%TF.GenerationSoftware,KiCad,Pcbnew,9.0.0-9.0.0-2~ubuntu24.04.1*%
%TF.CreationDate,2025-03-20T04:03:54-04:00*%
%TF.ProjectId,PicoLVDS,5069636f-4c56-4445-932e-6b696361645f,3*%
%TF.SameCoordinates,Original*%
%TF.FileFunction,Legend,Top*%
%TF.FilePolarity,Positive*%
%FSLAX46Y46*%
G04 Gerber Fmt 4.6, Leading zero omitted, Abs format (unit mm)*
G04 Created by KiCad (PCBNEW 9.0.0-9.0.0-2~ubuntu24.04.1) date 2025-03-20 04:03:54*
%MOMM*%
%LPD*%
G01*
G04 APERTURE LIST*
%ADD10C,0.100000*%
%ADD11C,0.300000*%
%ADD12C,0.150000*%
%ADD13C,0.200000*%
%ADD14C,0.120000*%
%ADD15C,0.127000*%
G04 APERTURE END LIST*
D10*
X32000000Y-40300000D02*
X38100000Y-40300000D01*
X32000000Y-39900000D02*
X32000000Y-40300000D01*
X31600000Y-39900000D02*
X38600000Y-39900000D01*
X38600000Y-40300000D01*
X31600000Y-40300000D01*
X31600000Y-39900000D01*
G36*
X31600000Y-39900000D02*
G01*
X38600000Y-39900000D01*
X38600000Y-40300000D01*
X31600000Y-40300000D01*
X31600000Y-39900000D01*
G37*
X38600000Y-41100000D02*
X38600000Y-40300000D01*
X38100000Y-39900000D02*
X32000000Y-39900000D01*
X31600000Y-40700000D02*
X38600000Y-40700000D01*
X38600000Y-41100000D01*
X31600000Y-41100000D01*
X31600000Y-40700000D01*
G36*
X31600000Y-40700000D02*
G01*
X38600000Y-40700000D01*
X38600000Y-41100000D01*
X31600000Y-41100000D01*
X31600000Y-40700000D01*
G37*
X32000000Y-41100000D02*
X38100000Y-41100000D01*
X32000000Y-40700000D02*
X38100000Y-40700000D01*
X31600000Y-40500000D02*
X38600000Y-40500000D01*
X38100000Y-40300000D02*
X38100000Y-39900000D01*
X31600000Y-41100000D02*
X31600000Y-40300000D01*
D11*
X96227143Y-80242870D02*
X96227143Y-78742870D01*
X96227143Y-78742870D02*
X96798572Y-78742870D01*
X96798572Y-78742870D02*
X96941429Y-78814299D01*
X96941429Y-78814299D02*
X97012858Y-78885727D01*
X97012858Y-78885727D02*
X97084286Y-79028584D01*
X97084286Y-79028584D02*
X97084286Y-79242870D01*
X97084286Y-79242870D02*
X97012858Y-79385727D01*
X97012858Y-79385727D02*
X96941429Y-79457156D01*
X96941429Y-79457156D02*
X96798572Y-79528584D01*
X96798572Y-79528584D02*
X96227143Y-79528584D01*
X97727143Y-80242870D02*
X97727143Y-79242870D01*
X97727143Y-78742870D02*
X97655715Y-78814299D01*
X97655715Y-78814299D02*
X97727143Y-78885727D01*
X97727143Y-78885727D02*
X97798572Y-78814299D01*
X97798572Y-78814299D02*
X97727143Y-78742870D01*
X97727143Y-78742870D02*
X97727143Y-78885727D01*
X99084287Y-80171442D02*
X98941429Y-80242870D01*
X98941429Y-80242870D02*
X98655715Y-80242870D01*
X98655715Y-80242870D02*
X98512858Y-80171442D01*
X98512858Y-80171442D02*
X98441429Y-80100013D01*
X98441429Y-80100013D02*
X98370001Y-79957156D01*
X98370001Y-79957156D02*
X98370001Y-79528584D01*
X98370001Y-79528584D02*
X98441429Y-79385727D01*
X98441429Y-79385727D02*
X98512858Y-79314299D01*
X98512858Y-79314299D02*
X98655715Y-79242870D01*
X98655715Y-79242870D02*
X98941429Y-79242870D01*
X98941429Y-79242870D02*
X99084287Y-79314299D01*
X99941429Y-80242870D02*
X99798572Y-80171442D01*
X99798572Y-80171442D02*
X99727143Y-80100013D01*
X99727143Y-80100013D02*
X99655715Y-79957156D01*
X99655715Y-79957156D02*
X99655715Y-79528584D01*
X99655715Y-79528584D02*
X99727143Y-79385727D01*
X99727143Y-79385727D02*
X99798572Y-79314299D01*
X99798572Y-79314299D02*
X99941429Y-79242870D01*
X99941429Y-79242870D02*
X100155715Y-79242870D01*
X100155715Y-79242870D02*
X100298572Y-79314299D01*
X100298572Y-79314299D02*
X100370001Y-79385727D01*
X100370001Y-79385727D02*
X100441429Y-79528584D01*
X100441429Y-79528584D02*
X100441429Y-79957156D01*
X100441429Y-79957156D02*
X100370001Y-80100013D01*
X100370001Y-80100013D02*
X100298572Y-80171442D01*
X100298572Y-80171442D02*
X100155715Y-80242870D01*
X100155715Y-80242870D02*
X99941429Y-80242870D01*
X101798572Y-80242870D02*
X101084286Y-80242870D01*
X101084286Y-80242870D02*
X101084286Y-78742870D01*
X102084287Y-78742870D02*
X102584287Y-80242870D01*
X102584287Y-80242870D02*
X103084287Y-78742870D01*
X103584286Y-80242870D02*
X103584286Y-78742870D01*
X103584286Y-78742870D02*
X103941429Y-78742870D01*
X103941429Y-78742870D02*
X104155715Y-78814299D01*
X104155715Y-78814299D02*
X104298572Y-78957156D01*
X104298572Y-78957156D02*
X104370001Y-79100013D01*
X104370001Y-79100013D02*
X104441429Y-79385727D01*
X104441429Y-79385727D02*
X104441429Y-79600013D01*
X104441429Y-79600013D02*
X104370001Y-79885727D01*
X104370001Y-79885727D02*
X104298572Y-80028584D01*
X104298572Y-80028584D02*
X104155715Y-80171442D01*
X104155715Y-80171442D02*
X103941429Y-80242870D01*
X103941429Y-80242870D02*
X103584286Y-80242870D01*
X105012858Y-80171442D02*
X105227144Y-80242870D01*
X105227144Y-80242870D02*
X105584286Y-80242870D01*
X105584286Y-80242870D02*
X105727144Y-80171442D01*
X105727144Y-80171442D02*
X105798572Y-80100013D01*
X105798572Y-80100013D02*
X105870001Y-79957156D01*
X105870001Y-79957156D02*
X105870001Y-79814299D01*
X105870001Y-79814299D02*
X105798572Y-79671442D01*
X105798572Y-79671442D02*
X105727144Y-79600013D01*
X105727144Y-79600013D02*
X105584286Y-79528584D01*
X105584286Y-79528584D02*
X105298572Y-79457156D01*
X105298572Y-79457156D02*
X105155715Y-79385727D01*
X105155715Y-79385727D02*
X105084286Y-79314299D01*
X105084286Y-79314299D02*
X105012858Y-79171442D01*
X105012858Y-79171442D02*
X105012858Y-79028584D01*
X105012858Y-79028584D02*
X105084286Y-78885727D01*
X105084286Y-78885727D02*
X105155715Y-78814299D01*
X105155715Y-78814299D02*
X105298572Y-78742870D01*
X105298572Y-78742870D02*
X105655715Y-78742870D01*
X105655715Y-78742870D02*
X105870001Y-78814299D01*
X107512857Y-79242870D02*
X107870000Y-80242870D01*
X107870000Y-80242870D02*
X108227143Y-79242870D01*
X108655714Y-78742870D02*
X109584286Y-78742870D01*
X109584286Y-78742870D02*
X109084286Y-79314299D01*
X109084286Y-79314299D02*
X109298571Y-79314299D01*
X109298571Y-79314299D02*
X109441429Y-79385727D01*
X109441429Y-79385727D02*
X109512857Y-79457156D01*
X109512857Y-79457156D02*
X109584286Y-79600013D01*
X109584286Y-79600013D02*
X109584286Y-79957156D01*
X109584286Y-79957156D02*
X109512857Y-80100013D01*
X109512857Y-80100013D02*
X109441429Y-80171442D01*
X109441429Y-80171442D02*
X109298571Y-80242870D01*
X109298571Y-80242870D02*
X108870000Y-80242870D01*
X108870000Y-80242870D02*
X108727143Y-80171442D01*
X108727143Y-80171442D02*
X108655714Y-80100013D01*
X94941427Y-82657786D02*
X94941427Y-81157786D01*
X94941427Y-81157786D02*
X95798570Y-82657786D01*
X95798570Y-82657786D02*
X95798570Y-81157786D01*
X96727142Y-82657786D02*
X96584285Y-82586358D01*
X96584285Y-82586358D02*
X96512856Y-82514929D01*
X96512856Y-82514929D02*
X96441428Y-82372072D01*
X96441428Y-82372072D02*
X96441428Y-81943500D01*
X96441428Y-81943500D02*
X96512856Y-81800643D01*
X96512856Y-81800643D02*
X96584285Y-81729215D01*
X96584285Y-81729215D02*
X96727142Y-81657786D01*
X96727142Y-81657786D02*
X96941428Y-81657786D01*
X96941428Y-81657786D02*
X97084285Y-81729215D01*
X97084285Y-81729215D02*
X97155714Y-81800643D01*
X97155714Y-81800643D02*
X97227142Y-81943500D01*
X97227142Y-81943500D02*
X97227142Y-82372072D01*
X97227142Y-82372072D02*
X97155714Y-82514929D01*
X97155714Y-82514929D02*
X97084285Y-82586358D01*
X97084285Y-82586358D02*
X96941428Y-82657786D01*
X96941428Y-82657786D02*
X96727142Y-82657786D01*
X98512857Y-82657786D02*
X98512857Y-81872072D01*
X98512857Y-81872072D02*
X98441428Y-81729215D01*
X98441428Y-81729215D02*
X98298571Y-81657786D01*
X98298571Y-81657786D02*
X98012857Y-81657786D01*
X98012857Y-81657786D02*
X97869999Y-81729215D01*
X98512857Y-82586358D02*
X98369999Y-82657786D01*
X98369999Y-82657786D02*
X98012857Y-82657786D01*
X98012857Y-82657786D02*
X97869999Y-82586358D01*
X97869999Y-82586358D02*
X97798571Y-82443500D01*
X97798571Y-82443500D02*
X97798571Y-82300643D01*
X97798571Y-82300643D02*
X97869999Y-82157786D01*
X97869999Y-82157786D02*
X98012857Y-82086358D01*
X98012857Y-82086358D02*
X98369999Y-82086358D01*
X98369999Y-82086358D02*
X98512857Y-82014929D01*
X99227142Y-82657786D02*
X99227142Y-81157786D01*
X99870000Y-82657786D02*
X99870000Y-81872072D01*
X99870000Y-81872072D02*
X99798571Y-81729215D01*
X99798571Y-81729215D02*
X99655714Y-81657786D01*
X99655714Y-81657786D02*
X99441428Y-81657786D01*
X99441428Y-81657786D02*
X99298571Y-81729215D01*
X99298571Y-81729215D02*
X99227142Y-81800643D01*
X101727142Y-82657786D02*
X101727142Y-81157786D01*
X101727142Y-81157786D02*
X102298571Y-81157786D01*
X102298571Y-81157786D02*
X102441428Y-81229215D01*
X102441428Y-81229215D02*
X102512857Y-81300643D01*
X102512857Y-81300643D02*
X102584285Y-81443500D01*
X102584285Y-81443500D02*
X102584285Y-81657786D01*
X102584285Y-81657786D02*
X102512857Y-81800643D01*
X102512857Y-81800643D02*
X102441428Y-81872072D01*
X102441428Y-81872072D02*
X102298571Y-81943500D01*
X102298571Y-81943500D02*
X101727142Y-81943500D01*
X103870000Y-82657786D02*
X103870000Y-81872072D01*
X103870000Y-81872072D02*
X103798571Y-81729215D01*
X103798571Y-81729215D02*
X103655714Y-81657786D01*
X103655714Y-81657786D02*
X103370000Y-81657786D01*
X103370000Y-81657786D02*
X103227142Y-81729215D01*
X103870000Y-82586358D02*
X103727142Y-82657786D01*
X103727142Y-82657786D02*
X103370000Y-82657786D01*
X103370000Y-82657786D02*
X103227142Y-82586358D01*
X103227142Y-82586358D02*
X103155714Y-82443500D01*
X103155714Y-82443500D02*
X103155714Y-82300643D01*
X103155714Y-82300643D02*
X103227142Y-82157786D01*
X103227142Y-82157786D02*
X103370000Y-82086358D01*
X103370000Y-82086358D02*
X103727142Y-82086358D01*
X103727142Y-82086358D02*
X103870000Y-82014929D01*
X104798571Y-82657786D02*
X104655714Y-82586358D01*
X104655714Y-82586358D02*
X104584285Y-82443500D01*
X104584285Y-82443500D02*
X104584285Y-81157786D01*
X106012857Y-82657786D02*
X106012857Y-81872072D01*
X106012857Y-81872072D02*
X105941428Y-81729215D01*
X105941428Y-81729215D02*
X105798571Y-81657786D01*
X105798571Y-81657786D02*
X105512857Y-81657786D01*
X105512857Y-81657786D02*
X105369999Y-81729215D01*
X106012857Y-82586358D02*
X105869999Y-82657786D01*
X105869999Y-82657786D02*
X105512857Y-82657786D01*
X105512857Y-82657786D02*
X105369999Y-82586358D01*
X105369999Y-82586358D02*
X105298571Y-82443500D01*
X105298571Y-82443500D02*
X105298571Y-82300643D01*
X105298571Y-82300643D02*
X105369999Y-82157786D01*
X105369999Y-82157786D02*
X105512857Y-82086358D01*
X105512857Y-82086358D02*
X105869999Y-82086358D01*
X105869999Y-82086358D02*
X106012857Y-82014929D01*
X107370000Y-82657786D02*
X107370000Y-81157786D01*
X107370000Y-82586358D02*
X107227142Y-82657786D01*
X107227142Y-82657786D02*
X106941428Y-82657786D01*
X106941428Y-82657786D02*
X106798571Y-82586358D01*
X106798571Y-82586358D02*
X106727142Y-82514929D01*
X106727142Y-82514929D02*
X106655714Y-82372072D01*
X106655714Y-82372072D02*
X106655714Y-81943500D01*
X106655714Y-81943500D02*
X106727142Y-81800643D01*
X106727142Y-81800643D02*
X106798571Y-81729215D01*
X106798571Y-81729215D02*
X106941428Y-81657786D01*
X106941428Y-81657786D02*
X107227142Y-81657786D01*
X107227142Y-81657786D02*
X107370000Y-81729215D01*
X108084285Y-82657786D02*
X108084285Y-81657786D01*
X108084285Y-81157786D02*
X108012857Y-81229215D01*
X108012857Y-81229215D02*
X108084285Y-81300643D01*
X108084285Y-81300643D02*
X108155714Y-81229215D01*
X108155714Y-81229215D02*
X108084285Y-81157786D01*
X108084285Y-81157786D02*
X108084285Y-81300643D01*
X108798571Y-81657786D02*
X108798571Y-82657786D01*
X108798571Y-81800643D02*
X108870000Y-81729215D01*
X108870000Y-81729215D02*
X109012857Y-81657786D01*
X109012857Y-81657786D02*
X109227143Y-81657786D01*
X109227143Y-81657786D02*
X109370000Y-81729215D01*
X109370000Y-81729215D02*
X109441429Y-81872072D01*
X109441429Y-81872072D02*
X109441429Y-82657786D01*
X110370000Y-82657786D02*
X110227143Y-82586358D01*
X110227143Y-82586358D02*
X110155714Y-82514929D01*
X110155714Y-82514929D02*
X110084286Y-82372072D01*
X110084286Y-82372072D02*
X110084286Y-81943500D01*
X110084286Y-81943500D02*
X110155714Y-81800643D01*
X110155714Y-81800643D02*
X110227143Y-81729215D01*
X110227143Y-81729215D02*
X110370000Y-81657786D01*
X110370000Y-81657786D02*
X110584286Y-81657786D01*
X110584286Y-81657786D02*
X110727143Y-81729215D01*
X110727143Y-81729215D02*
X110798572Y-81800643D01*
X110798572Y-81800643D02*
X110870000Y-81943500D01*
X110870000Y-81943500D02*
X110870000Y-82372072D01*
X110870000Y-82372072D02*
X110798572Y-82514929D01*
X110798572Y-82514929D02*
X110727143Y-82586358D01*
X110727143Y-82586358D02*
X110584286Y-82657786D01*
X110584286Y-82657786D02*
X110370000Y-82657786D01*
D10*
X32145237Y-39672419D02*
X31669047Y-39672419D01*
X31669047Y-39672419D02*
X31669047Y-38672419D01*
X32335714Y-38672419D02*
X32669047Y-39672419D01*
X32669047Y-39672419D02*
X33002380Y-38672419D01*
X33335714Y-39672419D02*
X33335714Y-38672419D01*
X33335714Y-38672419D02*
X33573809Y-38672419D01*
X33573809Y-38672419D02*
X33716666Y-38720038D01*
X33716666Y-38720038D02*
X33811904Y-38815276D01*
X33811904Y-38815276D02*
X33859523Y-38910514D01*
X33859523Y-38910514D02*
X33907142Y-39100990D01*
X33907142Y-39100990D02*
X33907142Y-39243847D01*
X33907142Y-39243847D02*
X33859523Y-39434323D01*
X33859523Y-39434323D02*
X33811904Y-39529561D01*
X33811904Y-39529561D02*
X33716666Y-39624800D01*
X33716666Y-39624800D02*
X33573809Y-39672419D01*
X33573809Y-39672419D02*
X33335714Y-39672419D01*
X34288095Y-39624800D02*
X34430952Y-39672419D01*
X34430952Y-39672419D02*
X34669047Y-39672419D01*
X34669047Y-39672419D02*
X34764285Y-39624800D01*
X34764285Y-39624800D02*
X34811904Y-39577180D01*
X34811904Y-39577180D02*
X34859523Y-39481942D01*
X34859523Y-39481942D02*
X34859523Y-39386704D01*
X34859523Y-39386704D02*
X34811904Y-39291466D01*
X34811904Y-39291466D02*
X34764285Y-39243847D01*
X34764285Y-39243847D02*
X34669047Y-39196228D01*
X34669047Y-39196228D02*
X34478571Y-39148609D01*
X34478571Y-39148609D02*
X34383333Y-39100990D01*
X34383333Y-39100990D02*
X34335714Y-39053371D01*
X34335714Y-39053371D02*
X34288095Y-38958133D01*
X34288095Y-38958133D02*
X34288095Y-38862895D01*
X34288095Y-38862895D02*
X34335714Y-38767657D01*
X34335714Y-38767657D02*
X34383333Y-38720038D01*
X34383333Y-38720038D02*
X34478571Y-38672419D01*
X34478571Y-38672419D02*
X34716666Y-38672419D01*
X34716666Y-38672419D02*
X34859523Y-38720038D01*
X36240476Y-38672419D02*
X36430952Y-38672419D01*
X36430952Y-38672419D02*
X36526190Y-38720038D01*
X36526190Y-38720038D02*
X36621428Y-38815276D01*
X36621428Y-38815276D02*
X36669047Y-39005752D01*
X36669047Y-39005752D02*
X36669047Y-39339085D01*
X36669047Y-39339085D02*
X36621428Y-39529561D01*
X36621428Y-39529561D02*
X36526190Y-39624800D01*
X36526190Y-39624800D02*
X36430952Y-39672419D01*
X36430952Y-39672419D02*
X36240476Y-39672419D01*
X36240476Y-39672419D02*
X36145238Y-39624800D01*
X36145238Y-39624800D02*
X36050000Y-39529561D01*
X36050000Y-39529561D02*
X36002381Y-39339085D01*
X36002381Y-39339085D02*
X36002381Y-39005752D01*
X36002381Y-39005752D02*
X36050000Y-38815276D01*
X36050000Y-38815276D02*
X36145238Y-38720038D01*
X36145238Y-38720038D02*
X36240476Y-38672419D01*
X37097619Y-38672419D02*
X37097619Y-39481942D01*
X37097619Y-39481942D02*
X37145238Y-39577180D01*
X37145238Y-39577180D02*
X37192857Y-39624800D01*
X37192857Y-39624800D02*
X37288095Y-39672419D01*
X37288095Y-39672419D02*
X37478571Y-39672419D01*
X37478571Y-39672419D02*
X37573809Y-39624800D01*
X37573809Y-39624800D02*
X37621428Y-39577180D01*
X37621428Y-39577180D02*
X37669047Y-39481942D01*
X37669047Y-39481942D02*
X37669047Y-38672419D01*
X38002381Y-38672419D02*
X38573809Y-38672419D01*
X38288095Y-39672419D02*
X38288095Y-38672419D01*
D12*
X94431819Y-68902903D02*
X95241342Y-68902903D01*
X95241342Y-68902903D02*
X95336580Y-68855284D01*
X95336580Y-68855284D02*
X95384200Y-68807665D01*
X95384200Y-68807665D02*
X95431819Y-68712427D01*
X95431819Y-68712427D02*
X95431819Y-68521951D01*
X95431819Y-68521951D02*
X95384200Y-68426713D01*
X95384200Y-68426713D02*
X95336580Y-68379094D01*
X95336580Y-68379094D02*
X95241342Y-68331475D01*
X95241342Y-68331475D02*
X94431819Y-68331475D01*
X95431819Y-67807665D02*
X95431819Y-67617189D01*
X95431819Y-67617189D02*
X95384200Y-67521951D01*
X95384200Y-67521951D02*
X95336580Y-67474332D01*
X95336580Y-67474332D02*
X95193723Y-67379094D01*
X95193723Y-67379094D02*
X95003247Y-67331475D01*
X95003247Y-67331475D02*
X94622295Y-67331475D01*
X94622295Y-67331475D02*
X94527057Y-67379094D01*
X94527057Y-67379094D02*
X94479438Y-67426713D01*
X94479438Y-67426713D02*
X94431819Y-67521951D01*
X94431819Y-67521951D02*
X94431819Y-67712427D01*
X94431819Y-67712427D02*
X94479438Y-67807665D01*
X94479438Y-67807665D02*
X94527057Y-67855284D01*
X94527057Y-67855284D02*
X94622295Y-67902903D01*
X94622295Y-67902903D02*
X94860390Y-67902903D01*
X94860390Y-67902903D02*
X94955628Y-67855284D01*
X94955628Y-67855284D02*
X95003247Y-67807665D01*
X95003247Y-67807665D02*
X95050866Y-67712427D01*
X95050866Y-67712427D02*
X95050866Y-67521951D01*
X95050866Y-67521951D02*
X95003247Y-67426713D01*
X95003247Y-67426713D02*
X94955628Y-67379094D01*
X94955628Y-67379094D02*
X94860390Y-67331475D01*
X46938095Y-62354819D02*
X46938095Y-63164342D01*
X46938095Y-63164342D02*
X46985714Y-63259580D01*
X46985714Y-63259580D02*
X47033333Y-63307200D01*
X47033333Y-63307200D02*
X47128571Y-63354819D01*
X47128571Y-63354819D02*
X47319047Y-63354819D01*
X47319047Y-63354819D02*
X47414285Y-63307200D01*
X47414285Y-63307200D02*
X47461904Y-63259580D01*
X47461904Y-63259580D02*
X47509523Y-63164342D01*
X47509523Y-63164342D02*
X47509523Y-62354819D01*
X47890476Y-62354819D02*
X48509523Y-62354819D01*
X48509523Y-62354819D02*
X48176190Y-62735771D01*
X48176190Y-62735771D02*
X48319047Y-62735771D01*
X48319047Y-62735771D02*
X48414285Y-62783390D01*
X48414285Y-62783390D02*
X48461904Y-62831009D01*
X48461904Y-62831009D02*
X48509523Y-62926247D01*
X48509523Y-62926247D02*
X48509523Y-63164342D01*
X48509523Y-63164342D02*
X48461904Y-63259580D01*
X48461904Y-63259580D02*
X48414285Y-63307200D01*
X48414285Y-63307200D02*
X48319047Y-63354819D01*
X48319047Y-63354819D02*
X48033333Y-63354819D01*
X48033333Y-63354819D02*
X47938095Y-63307200D01*
X47938095Y-63307200D02*
X47890476Y-63259580D01*
X53659580Y-45466666D02*
X53707200Y-45514285D01*
X53707200Y-45514285D02*
X53754819Y-45657142D01*
X53754819Y-45657142D02*
X53754819Y-45752380D01*
X53754819Y-45752380D02*
X53707200Y-45895237D01*
X53707200Y-45895237D02*
X53611961Y-45990475D01*
X53611961Y-45990475D02*
X53516723Y-46038094D01*
X53516723Y-46038094D02*
X53326247Y-46085713D01*
X53326247Y-46085713D02*
X53183390Y-46085713D01*
X53183390Y-46085713D02*
X52992914Y-46038094D01*
X52992914Y-46038094D02*
X52897676Y-45990475D01*
X52897676Y-45990475D02*
X52802438Y-45895237D01*
X52802438Y-45895237D02*
X52754819Y-45752380D01*
X52754819Y-45752380D02*
X52754819Y-45657142D01*
X52754819Y-45657142D02*
X52802438Y-45514285D01*
X52802438Y-45514285D02*
X52850057Y-45466666D01*
X53754819Y-44514285D02*
X53754819Y-45085713D01*
X53754819Y-44799999D02*
X52754819Y-44799999D01*
X52754819Y-44799999D02*
X52897676Y-44895237D01*
X52897676Y-44895237D02*
X52992914Y-44990475D01*
X52992914Y-44990475D02*
X53040533Y-45085713D01*
X98117833Y-65342579D02*
X98070214Y-65390199D01*
X98070214Y-65390199D02*
X97927357Y-65437818D01*
X97927357Y-65437818D02*
X97832119Y-65437818D01*
X97832119Y-65437818D02*
X97689262Y-65390199D01*
X97689262Y-65390199D02*
X97594024Y-65294960D01*
X97594024Y-65294960D02*
X97546405Y-65199722D01*
X97546405Y-65199722D02*
X97498786Y-65009246D01*
X97498786Y-65009246D02*
X97498786Y-64866389D01*
X97498786Y-64866389D02*
X97546405Y-64675913D01*
X97546405Y-64675913D02*
X97594024Y-64580675D01*
X97594024Y-64580675D02*
X97689262Y-64485437D01*
X97689262Y-64485437D02*
X97832119Y-64437818D01*
X97832119Y-64437818D02*
X97927357Y-64437818D01*
X97927357Y-64437818D02*
X98070214Y-64485437D01*
X98070214Y-64485437D02*
X98117833Y-64533056D01*
X98451167Y-64437818D02*
X99117833Y-64437818D01*
X99117833Y-64437818D02*
X98689262Y-65437818D01*
X46938095Y-50654819D02*
X46938095Y-51464342D01*
X46938095Y-51464342D02*
X46985714Y-51559580D01*
X46985714Y-51559580D02*
X47033333Y-51607200D01*
X47033333Y-51607200D02*
X47128571Y-51654819D01*
X47128571Y-51654819D02*
X47319047Y-51654819D01*
X47319047Y-51654819D02*
X47414285Y-51607200D01*
X47414285Y-51607200D02*
X47461904Y-51559580D01*
X47461904Y-51559580D02*
X47509523Y-51464342D01*
X47509523Y-51464342D02*
X47509523Y-50654819D01*
X47938095Y-50750057D02*
X47985714Y-50702438D01*
X47985714Y-50702438D02*
X48080952Y-50654819D01*
X48080952Y-50654819D02*
X48319047Y-50654819D01*
X48319047Y-50654819D02*
X48414285Y-50702438D01*
X48414285Y-50702438D02*
X48461904Y-50750057D01*
X48461904Y-50750057D02*
X48509523Y-50845295D01*
X48509523Y-50845295D02*
X48509523Y-50940533D01*
X48509523Y-50940533D02*
X48461904Y-51083390D01*
X48461904Y-51083390D02*
X47890476Y-51654819D01*
X47890476Y-51654819D02*
X48509523Y-51654819D01*
X114081819Y-69379093D02*
X114891342Y-69379093D01*
X114891342Y-69379093D02*
X114986580Y-69331474D01*
X114986580Y-69331474D02*
X115034200Y-69283855D01*
X115034200Y-69283855D02*
X115081819Y-69188617D01*
X115081819Y-69188617D02*
X115081819Y-68998141D01*
X115081819Y-68998141D02*
X115034200Y-68902903D01*
X115034200Y-68902903D02*
X114986580Y-68855284D01*
X114986580Y-68855284D02*
X114891342Y-68807665D01*
X114891342Y-68807665D02*
X114081819Y-68807665D01*
X115081819Y-67807665D02*
X115081819Y-68379093D01*
X115081819Y-68093379D02*
X114081819Y-68093379D01*
X114081819Y-68093379D02*
X114224676Y-68188617D01*
X114224676Y-68188617D02*
X114319914Y-68283855D01*
X114319914Y-68283855D02*
X114367533Y-68379093D01*
X114081819Y-67188617D02*
X114081819Y-67093379D01*
X114081819Y-67093379D02*
X114129438Y-66998141D01*
X114129438Y-66998141D02*
X114177057Y-66950522D01*
X114177057Y-66950522D02*
X114272295Y-66902903D01*
X114272295Y-66902903D02*
X114462771Y-66855284D01*
X114462771Y-66855284D02*
X114700866Y-66855284D01*
X114700866Y-66855284D02*
X114891342Y-66902903D01*
X114891342Y-66902903D02*
X114986580Y-66950522D01*
X114986580Y-66950522D02*
X115034200Y-66998141D01*
X115034200Y-66998141D02*
X115081819Y-67093379D01*
X115081819Y-67093379D02*
X115081819Y-67188617D01*
X115081819Y-67188617D02*
X115034200Y-67283855D01*
X115034200Y-67283855D02*
X114986580Y-67331474D01*
X114986580Y-67331474D02*
X114891342Y-67379093D01*
X114891342Y-67379093D02*
X114700866Y-67426712D01*
X114700866Y-67426712D02*
X114462771Y-67426712D01*
X114462771Y-67426712D02*
X114272295Y-67379093D01*
X114272295Y-67379093D02*
X114177057Y-67331474D01*
X114177057Y-67331474D02*
X114129438Y-67283855D01*
X114129438Y-67283855D02*
X114081819Y-67188617D01*
X104975833Y-65342579D02*
X104928214Y-65390199D01*
X104928214Y-65390199D02*
X104785357Y-65437818D01*
X104785357Y-65437818D02*
X104690119Y-65437818D01*
X104690119Y-65437818D02*
X104547262Y-65390199D01*
X104547262Y-65390199D02*
X104452024Y-65294960D01*
X104452024Y-65294960D02*
X104404405Y-65199722D01*
X104404405Y-65199722D02*
X104356786Y-65009246D01*
X104356786Y-65009246D02*
X104356786Y-64866389D01*
X104356786Y-64866389D02*
X104404405Y-64675913D01*
X104404405Y-64675913D02*
X104452024Y-64580675D01*
X104452024Y-64580675D02*
X104547262Y-64485437D01*
X104547262Y-64485437D02*
X104690119Y-64437818D01*
X104690119Y-64437818D02*
X104785357Y-64437818D01*
X104785357Y-64437818D02*
X104928214Y-64485437D01*
X104928214Y-64485437D02*
X104975833Y-64533056D01*
X105832976Y-64437818D02*
X105642500Y-64437818D01*
X105642500Y-64437818D02*
X105547262Y-64485437D01*
X105547262Y-64485437D02*
X105499643Y-64533056D01*
X105499643Y-64533056D02*
X105404405Y-64675913D01*
X105404405Y-64675913D02*
X105356786Y-64866389D01*
X105356786Y-64866389D02*
X105356786Y-65247341D01*
X105356786Y-65247341D02*
X105404405Y-65342579D01*
X105404405Y-65342579D02*
X105452024Y-65390199D01*
X105452024Y-65390199D02*
X105547262Y-65437818D01*
X105547262Y-65437818D02*
X105737738Y-65437818D01*
X105737738Y-65437818D02*
X105832976Y-65390199D01*
X105832976Y-65390199D02*
X105880595Y-65342579D01*
X105880595Y-65342579D02*
X105928214Y-65247341D01*
X105928214Y-65247341D02*
X105928214Y-65009246D01*
X105928214Y-65009246D02*
X105880595Y-64914008D01*
X105880595Y-64914008D02*
X105832976Y-64866389D01*
X105832976Y-64866389D02*
X105737738Y-64818770D01*
X105737738Y-64818770D02*
X105547262Y-64818770D01*
X105547262Y-64818770D02*
X105452024Y-64866389D01*
X105452024Y-64866389D02*
X105404405Y-64914008D01*
X105404405Y-64914008D02*
X105356786Y-65009246D01*
X107531819Y-69379093D02*
X108341342Y-69379093D01*
X108341342Y-69379093D02*
X108436580Y-69331474D01*
X108436580Y-69331474D02*
X108484200Y-69283855D01*
X108484200Y-69283855D02*
X108531819Y-69188617D01*
X108531819Y-69188617D02*
X108531819Y-68998141D01*
X108531819Y-68998141D02*
X108484200Y-68902903D01*
X108484200Y-68902903D02*
X108436580Y-68855284D01*
X108436580Y-68855284D02*
X108341342Y-68807665D01*
X108341342Y-68807665D02*
X107531819Y-68807665D01*
X108531819Y-67807665D02*
X108531819Y-68379093D01*
X108531819Y-68093379D02*
X107531819Y-68093379D01*
X107531819Y-68093379D02*
X107674676Y-68188617D01*
X107674676Y-68188617D02*
X107769914Y-68283855D01*
X107769914Y-68283855D02*
X107817533Y-68379093D01*
X108531819Y-66855284D02*
X108531819Y-67426712D01*
X108531819Y-67140998D02*
X107531819Y-67140998D01*
X107531819Y-67140998D02*
X107674676Y-67236236D01*
X107674676Y-67236236D02*
X107769914Y-67331474D01*
X107769914Y-67331474D02*
X107817533Y-67426712D01*
X31660839Y-44194819D02*
X31089411Y-44194819D01*
X31375125Y-44194819D02*
X31375125Y-43194819D01*
X31375125Y-43194819D02*
X31279887Y-43337676D01*
X31279887Y-43337676D02*
X31184649Y-43432914D01*
X31184649Y-43432914D02*
X31089411Y-43480533D01*
X31008458Y-82294819D02*
X30437030Y-82294819D01*
X30722744Y-82294819D02*
X30722744Y-81294819D01*
X30722744Y-81294819D02*
X30627506Y-81437676D01*
X30627506Y-81437676D02*
X30532268Y-81532914D01*
X30532268Y-81532914D02*
X30437030Y-81580533D01*
X31865601Y-81294819D02*
X31675125Y-81294819D01*
X31675125Y-81294819D02*
X31579887Y-81342438D01*
X31579887Y-81342438D02*
X31532268Y-81390057D01*
X31532268Y-81390057D02*
X31437030Y-81532914D01*
X31437030Y-81532914D02*
X31389411Y-81723390D01*
X31389411Y-81723390D02*
X31389411Y-82104342D01*
X31389411Y-82104342D02*
X31437030Y-82199580D01*
X31437030Y-82199580D02*
X31484649Y-82247200D01*
X31484649Y-82247200D02*
X31579887Y-82294819D01*
X31579887Y-82294819D02*
X31770363Y-82294819D01*
X31770363Y-82294819D02*
X31865601Y-82247200D01*
X31865601Y-82247200D02*
X31913220Y-82199580D01*
X31913220Y-82199580D02*
X31960839Y-82104342D01*
X31960839Y-82104342D02*
X31960839Y-81866247D01*
X31960839Y-81866247D02*
X31913220Y-81771009D01*
X31913220Y-81771009D02*
X31865601Y-81723390D01*
X31865601Y-81723390D02*
X31770363Y-81675771D01*
X31770363Y-81675771D02*
X31579887Y-81675771D01*
X31579887Y-81675771D02*
X31484649Y-81723390D01*
X31484649Y-81723390D02*
X31437030Y-81771009D01*
X31437030Y-81771009D02*
X31389411Y-81866247D01*
X31019048Y-62863866D02*
X31780953Y-62863866D01*
X31400000Y-63244819D02*
X31400000Y-62482914D01*
X38673866Y-63220951D02*
X38673866Y-62459047D01*
X91767833Y-65342579D02*
X91720214Y-65390199D01*
X91720214Y-65390199D02*
X91577357Y-65437818D01*
X91577357Y-65437818D02*
X91482119Y-65437818D01*
X91482119Y-65437818D02*
X91339262Y-65390199D01*
X91339262Y-65390199D02*
X91244024Y-65294960D01*
X91244024Y-65294960D02*
X91196405Y-65199722D01*
X91196405Y-65199722D02*
X91148786Y-65009246D01*
X91148786Y-65009246D02*
X91148786Y-64866389D01*
X91148786Y-64866389D02*
X91196405Y-64675913D01*
X91196405Y-64675913D02*
X91244024Y-64580675D01*
X91244024Y-64580675D02*
X91339262Y-64485437D01*
X91339262Y-64485437D02*
X91482119Y-64437818D01*
X91482119Y-64437818D02*
X91577357Y-64437818D01*
X91577357Y-64437818D02*
X91720214Y-64485437D01*
X91720214Y-64485437D02*
X91767833Y-64533056D01*
X92339262Y-64866389D02*
X92244024Y-64818770D01*
X92244024Y-64818770D02*
X92196405Y-64771151D01*
X92196405Y-64771151D02*
X92148786Y-64675913D01*
X92148786Y-64675913D02*
X92148786Y-64628294D01*
X92148786Y-64628294D02*
X92196405Y-64533056D01*
X92196405Y-64533056D02*
X92244024Y-64485437D01*
X92244024Y-64485437D02*
X92339262Y-64437818D01*
X92339262Y-64437818D02*
X92529738Y-64437818D01*
X92529738Y-64437818D02*
X92624976Y-64485437D01*
X92624976Y-64485437D02*
X92672595Y-64533056D01*
X92672595Y-64533056D02*
X92720214Y-64628294D01*
X92720214Y-64628294D02*
X92720214Y-64675913D01*
X92720214Y-64675913D02*
X92672595Y-64771151D01*
X92672595Y-64771151D02*
X92624976Y-64818770D01*
X92624976Y-64818770D02*
X92529738Y-64866389D01*
X92529738Y-64866389D02*
X92339262Y-64866389D01*
X92339262Y-64866389D02*
X92244024Y-64914008D01*
X92244024Y-64914008D02*
X92196405Y-64961627D01*
X92196405Y-64961627D02*
X92148786Y-65056865D01*
X92148786Y-65056865D02*
X92148786Y-65247341D01*
X92148786Y-65247341D02*
X92196405Y-65342579D01*
X92196405Y-65342579D02*
X92244024Y-65390199D01*
X92244024Y-65390199D02*
X92339262Y-65437818D01*
X92339262Y-65437818D02*
X92529738Y-65437818D01*
X92529738Y-65437818D02*
X92624976Y-65390199D01*
X92624976Y-65390199D02*
X92672595Y-65342579D01*
X92672595Y-65342579D02*
X92720214Y-65247341D01*
X92720214Y-65247341D02*
X92720214Y-65056865D01*
X92720214Y-65056865D02*
X92672595Y-64961627D01*
X92672595Y-64961627D02*
X92624976Y-64914008D01*
X92624976Y-64914008D02*
X92529738Y-64866389D01*
X53759580Y-80666666D02*
X53807200Y-80714285D01*
X53807200Y-80714285D02*
X53854819Y-80857142D01*
X53854819Y-80857142D02*
X53854819Y-80952380D01*
X53854819Y-80952380D02*
X53807200Y-81095237D01*
X53807200Y-81095237D02*
X53711961Y-81190475D01*
X53711961Y-81190475D02*
X53616723Y-81238094D01*
X53616723Y-81238094D02*
X53426247Y-81285713D01*
X53426247Y-81285713D02*
X53283390Y-81285713D01*
X53283390Y-81285713D02*
X53092914Y-81238094D01*
X53092914Y-81238094D02*
X52997676Y-81190475D01*
X52997676Y-81190475D02*
X52902438Y-81095237D01*
X52902438Y-81095237D02*
X52854819Y-80952380D01*
X52854819Y-80952380D02*
X52854819Y-80857142D01*
X52854819Y-80857142D02*
X52902438Y-80714285D01*
X52902438Y-80714285D02*
X52950057Y-80666666D01*
X53188152Y-79809523D02*
X53854819Y-79809523D01*
X52807200Y-80047618D02*
X53521485Y-80285713D01*
X53521485Y-80285713D02*
X53521485Y-79666666D01*
X53659580Y-57166666D02*
X53707200Y-57214285D01*
X53707200Y-57214285D02*
X53754819Y-57357142D01*
X53754819Y-57357142D02*
X53754819Y-57452380D01*
X53754819Y-57452380D02*
X53707200Y-57595237D01*
X53707200Y-57595237D02*
X53611961Y-57690475D01*
X53611961Y-57690475D02*
X53516723Y-57738094D01*
X53516723Y-57738094D02*
X53326247Y-57785713D01*
X53326247Y-57785713D02*
X53183390Y-57785713D01*
X53183390Y-57785713D02*
X52992914Y-57738094D01*
X52992914Y-57738094D02*
X52897676Y-57690475D01*
X52897676Y-57690475D02*
X52802438Y-57595237D01*
X52802438Y-57595237D02*
X52754819Y-57452380D01*
X52754819Y-57452380D02*
X52754819Y-57357142D01*
X52754819Y-57357142D02*
X52802438Y-57214285D01*
X52802438Y-57214285D02*
X52850057Y-57166666D01*
X52850057Y-56785713D02*
X52802438Y-56738094D01*
X52802438Y-56738094D02*
X52754819Y-56642856D01*
X52754819Y-56642856D02*
X52754819Y-56404761D01*
X52754819Y-56404761D02*
X52802438Y-56309523D01*
X52802438Y-56309523D02*
X52850057Y-56261904D01*
X52850057Y-56261904D02*
X52945295Y-56214285D01*
X52945295Y-56214285D02*
X53040533Y-56214285D01*
X53040533Y-56214285D02*
X53183390Y-56261904D01*
X53183390Y-56261904D02*
X53754819Y-56833332D01*
X53754819Y-56833332D02*
X53754819Y-56214285D01*
X111266333Y-65342579D02*
X111218714Y-65390199D01*
X111218714Y-65390199D02*
X111075857Y-65437818D01*
X111075857Y-65437818D02*
X110980619Y-65437818D01*
X110980619Y-65437818D02*
X110837762Y-65390199D01*
X110837762Y-65390199D02*
X110742524Y-65294960D01*
X110742524Y-65294960D02*
X110694905Y-65199722D01*
X110694905Y-65199722D02*
X110647286Y-65009246D01*
X110647286Y-65009246D02*
X110647286Y-64866389D01*
X110647286Y-64866389D02*
X110694905Y-64675913D01*
X110694905Y-64675913D02*
X110742524Y-64580675D01*
X110742524Y-64580675D02*
X110837762Y-64485437D01*
X110837762Y-64485437D02*
X110980619Y-64437818D01*
X110980619Y-64437818D02*
X111075857Y-64437818D01*
X111075857Y-64437818D02*
X111218714Y-64485437D01*
X111218714Y-64485437D02*
X111266333Y-64533056D01*
X112171095Y-64437818D02*
X111694905Y-64437818D01*
X111694905Y-64437818D02*
X111647286Y-64914008D01*
X111647286Y-64914008D02*
X111694905Y-64866389D01*
X111694905Y-64866389D02*
X111790143Y-64818770D01*
X111790143Y-64818770D02*
X112028238Y-64818770D01*
X112028238Y-64818770D02*
X112123476Y-64866389D01*
X112123476Y-64866389D02*
X112171095Y-64914008D01*
X112171095Y-64914008D02*
X112218714Y-65009246D01*
X112218714Y-65009246D02*
X112218714Y-65247341D01*
X112218714Y-65247341D02*
X112171095Y-65342579D01*
X112171095Y-65342579D02*
X112123476Y-65390199D01*
X112123476Y-65390199D02*
X112028238Y-65437818D01*
X112028238Y-65437818D02*
X111790143Y-65437818D01*
X111790143Y-65437818D02*
X111694905Y-65390199D01*
X111694905Y-65390199D02*
X111647286Y-65342579D01*
X116756666Y-53575819D02*
X116756666Y-54290104D01*
X116756666Y-54290104D02*
X116709047Y-54432961D01*
X116709047Y-54432961D02*
X116613809Y-54528200D01*
X116613809Y-54528200D02*
X116470952Y-54575819D01*
X116470952Y-54575819D02*
X116375714Y-54575819D01*
X117185238Y-53671057D02*
X117232857Y-53623438D01*
X117232857Y-53623438D02*
X117328095Y-53575819D01*
X117328095Y-53575819D02*
X117566190Y-53575819D01*
X117566190Y-53575819D02*
X117661428Y-53623438D01*
X117661428Y-53623438D02*
X117709047Y-53671057D01*
X117709047Y-53671057D02*
X117756666Y-53766295D01*
X117756666Y-53766295D02*
X117756666Y-53861533D01*
X117756666Y-53861533D02*
X117709047Y-54004390D01*
X117709047Y-54004390D02*
X117137619Y-54575819D01*
X117137619Y-54575819D02*
X117756666Y-54575819D01*
X100981819Y-68902903D02*
X101791342Y-68902903D01*
X101791342Y-68902903D02*
X101886580Y-68855284D01*
X101886580Y-68855284D02*
X101934200Y-68807665D01*
X101934200Y-68807665D02*
X101981819Y-68712427D01*
X101981819Y-68712427D02*
X101981819Y-68521951D01*
X101981819Y-68521951D02*
X101934200Y-68426713D01*
X101934200Y-68426713D02*
X101886580Y-68379094D01*
X101886580Y-68379094D02*
X101791342Y-68331475D01*
X101791342Y-68331475D02*
X100981819Y-68331475D01*
X101410390Y-67712427D02*
X101362771Y-67807665D01*
X101362771Y-67807665D02*
X101315152Y-67855284D01*
X101315152Y-67855284D02*
X101219914Y-67902903D01*
X101219914Y-67902903D02*
X101172295Y-67902903D01*
X101172295Y-67902903D02*
X101077057Y-67855284D01*
X101077057Y-67855284D02*
X101029438Y-67807665D01*
X101029438Y-67807665D02*
X100981819Y-67712427D01*
X100981819Y-67712427D02*
X100981819Y-67521951D01*
X100981819Y-67521951D02*
X101029438Y-67426713D01*
X101029438Y-67426713D02*
X101077057Y-67379094D01*
X101077057Y-67379094D02*
X101172295Y-67331475D01*
X101172295Y-67331475D02*
X101219914Y-67331475D01*
X101219914Y-67331475D02*
X101315152Y-67379094D01*
X101315152Y-67379094D02*
X101362771Y-67426713D01*
X101362771Y-67426713D02*
X101410390Y-67521951D01*
X101410390Y-67521951D02*
X101410390Y-67712427D01*
X101410390Y-67712427D02*
X101458009Y-67807665D01*
X101458009Y-67807665D02*
X101505628Y-67855284D01*
X101505628Y-67855284D02*
X101600866Y-67902903D01*
X101600866Y-67902903D02*
X101791342Y-67902903D01*
X101791342Y-67902903D02*
X101886580Y-67855284D01*
X101886580Y-67855284D02*
X101934200Y-67807665D01*
X101934200Y-67807665D02*
X101981819Y-67712427D01*
X101981819Y-67712427D02*
X101981819Y-67521951D01*
X101981819Y-67521951D02*
X101934200Y-67426713D01*
X101934200Y-67426713D02*
X101886580Y-67379094D01*
X101886580Y-67379094D02*
X101791342Y-67331475D01*
X101791342Y-67331475D02*
X101600866Y-67331475D01*
X101600866Y-67331475D02*
X101505628Y-67379094D01*
X101505628Y-67379094D02*
X101458009Y-67426713D01*
X101458009Y-67426713D02*
X101410390Y-67521951D01*
X46938095Y-85754819D02*
X46938095Y-86564342D01*
X46938095Y-86564342D02*
X46985714Y-86659580D01*
X46985714Y-86659580D02*
X47033333Y-86707200D01*
X47033333Y-86707200D02*
X47128571Y-86754819D01*
X47128571Y-86754819D02*
X47319047Y-86754819D01*
X47319047Y-86754819D02*
X47414285Y-86707200D01*
X47414285Y-86707200D02*
X47461904Y-86659580D01*
X47461904Y-86659580D02*
X47509523Y-86564342D01*
X47509523Y-86564342D02*
X47509523Y-85754819D01*
X48461904Y-85754819D02*
X47985714Y-85754819D01*
X47985714Y-85754819D02*
X47938095Y-86231009D01*
X47938095Y-86231009D02*
X47985714Y-86183390D01*
X47985714Y-86183390D02*
X48080952Y-86135771D01*
X48080952Y-86135771D02*
X48319047Y-86135771D01*
X48319047Y-86135771D02*
X48414285Y-86183390D01*
X48414285Y-86183390D02*
X48461904Y-86231009D01*
X48461904Y-86231009D02*
X48509523Y-86326247D01*
X48509523Y-86326247D02*
X48509523Y-86564342D01*
X48509523Y-86564342D02*
X48461904Y-86659580D01*
X48461904Y-86659580D02*
X48414285Y-86707200D01*
X48414285Y-86707200D02*
X48319047Y-86754819D01*
X48319047Y-86754819D02*
X48080952Y-86754819D01*
X48080952Y-86754819D02*
X47985714Y-86707200D01*
X47985714Y-86707200D02*
X47938095Y-86659580D01*
X53659580Y-68866666D02*
X53707200Y-68914285D01*
X53707200Y-68914285D02*
X53754819Y-69057142D01*
X53754819Y-69057142D02*
X53754819Y-69152380D01*
X53754819Y-69152380D02*
X53707200Y-69295237D01*
X53707200Y-69295237D02*
X53611961Y-69390475D01*
X53611961Y-69390475D02*
X53516723Y-69438094D01*
X53516723Y-69438094D02*
X53326247Y-69485713D01*
X53326247Y-69485713D02*
X53183390Y-69485713D01*
X53183390Y-69485713D02*
X52992914Y-69438094D01*
X52992914Y-69438094D02*
X52897676Y-69390475D01*
X52897676Y-69390475D02*
X52802438Y-69295237D01*
X52802438Y-69295237D02*
X52754819Y-69152380D01*
X52754819Y-69152380D02*
X52754819Y-69057142D01*
X52754819Y-69057142D02*
X52802438Y-68914285D01*
X52802438Y-68914285D02*
X52850057Y-68866666D01*
X52754819Y-68533332D02*
X52754819Y-67914285D01*
X52754819Y-67914285D02*
X53135771Y-68247618D01*
X53135771Y-68247618D02*
X53135771Y-68104761D01*
X53135771Y-68104761D02*
X53183390Y-68009523D01*
X53183390Y-68009523D02*
X53231009Y-67961904D01*
X53231009Y-67961904D02*
X53326247Y-67914285D01*
X53326247Y-67914285D02*
X53564342Y-67914285D01*
X53564342Y-67914285D02*
X53659580Y-67961904D01*
X53659580Y-67961904D02*
X53707200Y-68009523D01*
X53707200Y-68009523D02*
X53754819Y-68104761D01*
X53754819Y-68104761D02*
X53754819Y-68390475D01*
X53754819Y-68390475D02*
X53707200Y-68485713D01*
X53707200Y-68485713D02*
X53659580Y-68533332D01*
D10*
X70878095Y-62347419D02*
X70878095Y-63156942D01*
X70878095Y-63156942D02*
X70925714Y-63252180D01*
X70925714Y-63252180D02*
X70973333Y-63299800D01*
X70973333Y-63299800D02*
X71068571Y-63347419D01*
X71068571Y-63347419D02*
X71259047Y-63347419D01*
X71259047Y-63347419D02*
X71354285Y-63299800D01*
X71354285Y-63299800D02*
X71401904Y-63252180D01*
X71401904Y-63252180D02*
X71449523Y-63156942D01*
X71449523Y-63156942D02*
X71449523Y-62347419D01*
X72449523Y-63347419D02*
X71878095Y-63347419D01*
X72163809Y-63347419D02*
X72163809Y-62347419D01*
X72163809Y-62347419D02*
X72068571Y-62490276D01*
X72068571Y-62490276D02*
X71973333Y-62585514D01*
X71973333Y-62585514D02*
X71878095Y-62633133D01*
D12*
X46938095Y-74054819D02*
X46938095Y-74864342D01*
X46938095Y-74864342D02*
X46985714Y-74959580D01*
X46985714Y-74959580D02*
X47033333Y-75007200D01*
X47033333Y-75007200D02*
X47128571Y-75054819D01*
X47128571Y-75054819D02*
X47319047Y-75054819D01*
X47319047Y-75054819D02*
X47414285Y-75007200D01*
X47414285Y-75007200D02*
X47461904Y-74959580D01*
X47461904Y-74959580D02*
X47509523Y-74864342D01*
X47509523Y-74864342D02*
X47509523Y-74054819D01*
X48414285Y-74388152D02*
X48414285Y-75054819D01*
X48176190Y-74007200D02*
X47938095Y-74721485D01*
X47938095Y-74721485D02*
X48557142Y-74721485D01*
D13*
%TO.C,U9*%
X92477000Y-71441000D02*
X92477000Y-67240998D01*
X97477000Y-69041000D02*
X97477000Y-67240998D01*
D14*
%TO.C,U3*%
X47700000Y-51940000D02*
X45750000Y-51940000D01*
X47700000Y-51940000D02*
X49650000Y-51940000D01*
X47700000Y-62060000D02*
X45750000Y-62060000D01*
X47700000Y-62060000D02*
X49650000Y-62060000D01*
X50640000Y-62335000D02*
X50160000Y-62335000D01*
X50400000Y-62005000D01*
X50640000Y-62335000D01*
G36*
X50640000Y-62335000D02*
G01*
X50160000Y-62335000D01*
X50400000Y-62005000D01*
X50640000Y-62335000D01*
G37*
%TO.C,C1*%
X51740000Y-45415835D02*
X51740000Y-45184165D01*
X52460000Y-45415835D02*
X52460000Y-45184165D01*
%TO.C,C7*%
X98400335Y-63462999D02*
X98168665Y-63462999D01*
X98400335Y-64182999D02*
X98168665Y-64182999D01*
%TO.C,U2*%
X47700000Y-40240000D02*
X45750000Y-40240000D01*
X47700000Y-40240000D02*
X49650000Y-40240000D01*
X47700000Y-50360000D02*
X45750000Y-50360000D01*
X47700000Y-50360000D02*
X49650000Y-50360000D01*
X50640000Y-50635000D02*
X50160000Y-50635000D01*
X50400000Y-50305000D01*
X50640000Y-50635000D01*
G36*
X50640000Y-50635000D02*
G01*
X50160000Y-50635000D01*
X50400000Y-50305000D01*
X50640000Y-50635000D01*
G37*
D13*
%TO.C,U10*%
X112127000Y-71441000D02*
X112127000Y-67240998D01*
X117127000Y-69041000D02*
X117127000Y-67240998D01*
D14*
%TO.C,C6*%
X105258335Y-63462999D02*
X105026665Y-63462999D01*
X105258335Y-64182999D02*
X105026665Y-64182999D01*
D13*
%TO.C,U11*%
X105577000Y-71441000D02*
X105577000Y-67240998D01*
X110577000Y-69041000D02*
X110577000Y-67240998D01*
D12*
%TO.C,J1*%
X31400000Y-46490000D02*
X31400000Y-60840000D01*
X31400000Y-64740000D02*
X31400000Y-79090000D01*
D14*
X32420000Y-42410000D02*
X33750000Y-42410000D01*
X32420000Y-43740000D02*
X32420000Y-42410000D01*
X32420000Y-45010000D02*
X32420000Y-85710000D01*
X32420000Y-45010000D02*
X35020000Y-45010000D01*
X32420000Y-85710000D02*
X37620000Y-85710000D01*
X35020000Y-42410000D02*
X37620000Y-42410000D01*
X35020000Y-45010000D02*
X35020000Y-42410000D01*
X37620000Y-42410000D02*
X37620000Y-85710000D01*
D12*
X38650000Y-46540000D02*
X38650000Y-60890000D01*
X38650000Y-64790000D02*
X38650000Y-79140000D01*
D14*
%TO.C,C8*%
X92050335Y-63462999D02*
X91818665Y-63462999D01*
X92050335Y-64182999D02*
X91818665Y-64182999D01*
%TO.C,C4*%
X51840000Y-80615835D02*
X51840000Y-80384165D01*
X52560000Y-80615835D02*
X52560000Y-80384165D01*
%TO.C,C2*%
X51740000Y-57115835D02*
X51740000Y-56884165D01*
X52460000Y-57115835D02*
X52460000Y-56884165D01*
%TO.C,C5*%
X111548835Y-63462999D02*
X111317165Y-63462999D01*
X111548835Y-64182999D02*
X111317165Y-64182999D01*
D15*
%TO.C,J2*%
X88390000Y-36576000D02*
X119890000Y-36576000D01*
X88390000Y-39686000D02*
X88390000Y-36576000D01*
X88390000Y-51566000D02*
X88390000Y-43626000D01*
X119890000Y-36576000D02*
X119890000Y-39686000D01*
X119890000Y-43626000D02*
X119890000Y-51566000D01*
X119890000Y-51566000D02*
X88390000Y-51566000D01*
D13*
%TO.C,U8*%
X99027000Y-71441000D02*
X99027000Y-67240998D01*
X104027000Y-69041000D02*
X104027000Y-67240998D01*
D14*
%TO.C,U5*%
X47700000Y-75340000D02*
X45750000Y-75340000D01*
X47700000Y-75340000D02*
X49650000Y-75340000D01*
X47700000Y-85460000D02*
X45750000Y-85460000D01*
X47700000Y-85460000D02*
X49650000Y-85460000D01*
X50640000Y-85735000D02*
X50160000Y-85735000D01*
X50400000Y-85405000D01*
X50640000Y-85735000D01*
G36*
X50640000Y-85735000D02*
G01*
X50160000Y-85735000D01*
X50400000Y-85405000D01*
X50640000Y-85735000D01*
G37*
%TO.C,C3*%
X51740000Y-68815835D02*
X51740000Y-68584165D01*
X52460000Y-68815835D02*
X52460000Y-68584165D01*
D13*
%TO.C,U1*%
X61040000Y-37290000D02*
X82240000Y-37290000D01*
X61040000Y-37660000D02*
X61040000Y-37290000D01*
X61040000Y-40200000D02*
X61040000Y-39860000D01*
X61040000Y-42740000D02*
X61040000Y-42400000D01*
X61040000Y-45280000D02*
X61040000Y-44940000D01*
X61040000Y-47820000D02*
X61040000Y-47480000D01*
X61040000Y-50360000D02*
X61040000Y-50020000D01*
X61040000Y-52900000D02*
X61040000Y-52560000D01*
X61040000Y-55440000D02*
X61040000Y-55100000D01*
X61040000Y-57980000D02*
X61040000Y-57640000D01*
X61040000Y-60520000D02*
X61040000Y-60180000D01*
X61040000Y-63060000D02*
X61040000Y-62720000D01*
X61040000Y-65600000D02*
X61040000Y-65260000D01*
X61040000Y-68140000D02*
X61040000Y-67800000D01*
X61040000Y-70680000D02*
X61040000Y-70340000D01*
X61040000Y-73220000D02*
X61040000Y-72880000D01*
X61040000Y-75760000D02*
X61040000Y-75420000D01*
X61040000Y-78300000D02*
X61040000Y-77960000D01*
X61040000Y-80840000D02*
X61040000Y-80500000D01*
X61040000Y-83380000D02*
X61040000Y-83040000D01*
X61040000Y-85920000D02*
X61040000Y-85580000D01*
X61040000Y-88120000D02*
X61040000Y-88490000D01*
D10*
X67640000Y-36390000D02*
X67640000Y-35890000D01*
D13*
X68000000Y-88490000D02*
X61040000Y-88490000D01*
D10*
X68140000Y-35890000D02*
X67640000Y-35890000D01*
D13*
X70540000Y-88490000D02*
X70200000Y-88490000D01*
X73080000Y-88490000D02*
X72740000Y-88490000D01*
D10*
X75640000Y-35890000D02*
X75140000Y-35890000D01*
X75640000Y-36390000D02*
X75640000Y-35890000D01*
D13*
X82240000Y-37660000D02*
X82240000Y-37290000D01*
X82240000Y-39860000D02*
X82240000Y-40200000D01*
X82240000Y-42400000D02*
X82240000Y-42740000D01*
X82240000Y-44940000D02*
X82240000Y-45280000D01*
X82240000Y-47480000D02*
X82240000Y-47820000D01*
X82240000Y-50020000D02*
X82240000Y-50360000D01*
X82240000Y-52560000D02*
X82240000Y-52900000D01*
X82240000Y-55100000D02*
X82240000Y-55440000D01*
X82240000Y-57640000D02*
X82240000Y-57980000D01*
X82240000Y-60180000D02*
X82240000Y-60520000D01*
X82240000Y-62720000D02*
X82240000Y-63060000D01*
X82240000Y-65260000D02*
X82240000Y-65600000D01*
X82240000Y-67800000D02*
X82240000Y-68140000D01*
X82240000Y-70340000D02*
X82240000Y-70680000D01*
X82240000Y-72880000D02*
X82240000Y-73220000D01*
X82240000Y-75420000D02*
X82240000Y-75760000D01*
X82240000Y-77960000D02*
X82240000Y-78300000D01*
X82240000Y-80500000D02*
X82240000Y-80840000D01*
X82240000Y-83040000D02*
X82240000Y-83380000D01*
X82240000Y-85580000D02*
X82240000Y-85920000D01*
X82240000Y-88120000D02*
X82240000Y-88490000D01*
X82240000Y-88490000D02*
X75280000Y-88490000D01*
D14*
%TO.C,U4*%
X47700000Y-63640000D02*
X45750000Y-63640000D01*
X47700000Y-63640000D02*
X49650000Y-63640000D01*
X47700000Y-73760000D02*
X45750000Y-73760000D01*
X47700000Y-73760000D02*
X49650000Y-73760000D01*
X50640000Y-74035000D02*
X50160000Y-74035000D01*
X50400000Y-73705000D01*
X50640000Y-74035000D01*
G36*
X50640000Y-74035000D02*
G01*
X50160000Y-74035000D01*
X50400000Y-73705000D01*
X50640000Y-74035000D01*
G37*
%TD*%
M02*
