%TF.GenerationSoftware,KiCad,Pcbnew,8.0.9*%
%TF.CreationDate,2025-02-20T22:31:30-05:00*%
%TF.ProjectId,PicoLVDS,5069636f-4c56-4445-932e-6b696361645f,2*%
%TF.SameCoordinates,Original*%
%TF.FileFunction,Soldermask,Top*%
%TF.FilePolarity,Negative*%
%FSLAX46Y46*%
G04 Gerber Fmt 4.6, Leading zero omitted, Abs format (unit mm)*
G04 Created by KiCad (PCBNEW 8.0.9) date 2025-02-20 22:31:30*
%MOMM*%
%LPD*%
G01*
G04 APERTURE LIST*
G04 Aperture macros list*
%AMRoundRect*
0 Rectangle with rounded corners*
0 $1 Rounding radius*
0 $2 $3 $4 $5 $6 $7 $8 $9 X,Y pos of 4 corners*
0 Add a 4 corners polygon primitive as box body*
4,1,4,$2,$3,$4,$5,$6,$7,$8,$9,$2,$3,0*
0 Add four circle primitives for the rounded corners*
1,1,$1+$1,$2,$3*
1,1,$1+$1,$4,$5*
1,1,$1+$1,$6,$7*
1,1,$1+$1,$8,$9*
0 Add four rect primitives between the rounded corners*
20,1,$1+$1,$2,$3,$4,$5,0*
20,1,$1+$1,$4,$5,$6,$7,0*
20,1,$1+$1,$6,$7,$8,$9,0*
20,1,$1+$1,$8,$9,$2,$3,0*%
G04 Aperture macros list end*
%ADD10RoundRect,0.150000X0.825000X0.150000X-0.825000X0.150000X-0.825000X-0.150000X0.825000X-0.150000X0*%
%ADD11RoundRect,0.155000X0.155000X-0.212500X0.155000X0.212500X-0.155000X0.212500X-0.155000X-0.212500X0*%
%ADD12R,1.700000X1.700000*%
%ADD13O,1.700000X1.700000*%
%ADD14O,1.800000X1.800000*%
%ADD15O,1.500000X1.500000*%
%ADD16R,3.500000X1.700000*%
%ADD17R,1.700000X3.500000*%
G04 APERTURE END LIST*
D10*
%TO.C,U5*%
X50175000Y-84845000D03*
X50175000Y-83575000D03*
X50175000Y-82305000D03*
X50175000Y-81035000D03*
X50175000Y-79765000D03*
X50175000Y-78495000D03*
X50175000Y-77225000D03*
X50175000Y-75955000D03*
X45225000Y-75955000D03*
X45225000Y-77225000D03*
X45225000Y-78495000D03*
X45225000Y-79765000D03*
X45225000Y-81035000D03*
X45225000Y-82305000D03*
X45225000Y-83575000D03*
X45225000Y-84845000D03*
%TD*%
%TO.C,U4*%
X50175000Y-73145000D03*
X50175000Y-71875000D03*
X50175000Y-70605000D03*
X50175000Y-69335000D03*
X50175000Y-68065000D03*
X50175000Y-66795000D03*
X50175000Y-65525000D03*
X50175000Y-64255000D03*
X45225000Y-64255000D03*
X45225000Y-65525000D03*
X45225000Y-66795000D03*
X45225000Y-68065000D03*
X45225000Y-69335000D03*
X45225000Y-70605000D03*
X45225000Y-71875000D03*
X45225000Y-73145000D03*
%TD*%
%TO.C,U3*%
X50175000Y-61445000D03*
X50175000Y-60175000D03*
X50175000Y-58905000D03*
X50175000Y-57635000D03*
X50175000Y-56365000D03*
X50175000Y-55095000D03*
X50175000Y-53825000D03*
X50175000Y-52555000D03*
X45225000Y-52555000D03*
X45225000Y-53825000D03*
X45225000Y-55095000D03*
X45225000Y-56365000D03*
X45225000Y-57635000D03*
X45225000Y-58905000D03*
X45225000Y-60175000D03*
X45225000Y-61445000D03*
%TD*%
%TO.C,U2*%
X50175000Y-49745000D03*
X50175000Y-48475000D03*
X50175000Y-47205000D03*
X50175000Y-45935000D03*
X50175000Y-44665000D03*
X50175000Y-43395000D03*
X50175000Y-42125000D03*
X50175000Y-40855000D03*
X45225000Y-40855000D03*
X45225000Y-42125000D03*
X45225000Y-43395000D03*
X45225000Y-44665000D03*
X45225000Y-45935000D03*
X45225000Y-47205000D03*
X45225000Y-48475000D03*
X45225000Y-49745000D03*
%TD*%
D11*
%TO.C,C1*%
X52100000Y-45867500D03*
X52100000Y-44732500D03*
%TD*%
D12*
%TO.C,J1*%
X33750000Y-43740000D03*
D13*
X36290000Y-43740000D03*
X33750000Y-46280000D03*
X36290000Y-46280000D03*
X33750000Y-48820000D03*
X36290000Y-48820000D03*
X33750000Y-51360000D03*
X36290000Y-51360000D03*
X33750000Y-53900000D03*
X36290000Y-53900000D03*
X33750000Y-56440000D03*
X36290000Y-56440000D03*
X33750000Y-58980000D03*
X36290000Y-58980000D03*
X33750000Y-61520000D03*
X36290000Y-61520000D03*
X33750000Y-64060000D03*
X36290000Y-64060000D03*
X33750000Y-66600000D03*
X36290000Y-66600000D03*
X33750000Y-69140000D03*
X36290000Y-69140000D03*
X33750000Y-71680000D03*
X36290000Y-71680000D03*
X33750000Y-74220000D03*
X36290000Y-74220000D03*
X33750000Y-76760000D03*
X36290000Y-76760000D03*
X33750000Y-79300000D03*
X36290000Y-79300000D03*
X33750000Y-81840000D03*
X36290000Y-81840000D03*
X33750000Y-84380000D03*
X36290000Y-84380000D03*
%TD*%
D11*
%TO.C,C4*%
X52200000Y-81067500D03*
X52200000Y-79932500D03*
%TD*%
%TO.C,C2*%
X52100000Y-57567500D03*
X52100000Y-56432500D03*
%TD*%
%TO.C,C3*%
X52100000Y-69267500D03*
X52100000Y-68132500D03*
%TD*%
D14*
%TO.C,U1*%
X68915000Y-38890000D03*
D15*
X69215000Y-41920000D03*
X74065000Y-41920000D03*
D14*
X74365000Y-38890000D03*
D13*
X62750000Y-38760000D03*
D16*
X61850000Y-38760000D03*
D13*
X62750000Y-41300000D03*
D16*
X61850000Y-41300000D03*
D12*
X62750000Y-43840000D03*
D16*
X61850000Y-43840000D03*
D13*
X62750000Y-46380000D03*
D16*
X61850000Y-46380000D03*
D13*
X62750000Y-48920000D03*
D16*
X61850000Y-48920000D03*
D13*
X62750000Y-51460000D03*
D16*
X61850000Y-51460000D03*
D13*
X62750000Y-54000000D03*
D16*
X61850000Y-54000000D03*
D12*
X62750000Y-56540000D03*
D16*
X61850000Y-56540000D03*
D13*
X62750000Y-59080000D03*
D16*
X61850000Y-59080000D03*
D13*
X62750000Y-61620000D03*
D16*
X61850000Y-61620000D03*
D13*
X62750000Y-64160000D03*
D16*
X61850000Y-64160000D03*
D13*
X62750000Y-66700000D03*
D16*
X61850000Y-66700000D03*
D12*
X62750000Y-69240000D03*
D16*
X61850000Y-69240000D03*
D13*
X62750000Y-71780000D03*
D16*
X61850000Y-71780000D03*
D13*
X62750000Y-74320000D03*
D16*
X61850000Y-74320000D03*
D13*
X62750000Y-76860000D03*
D16*
X61850000Y-76860000D03*
D13*
X62750000Y-79400000D03*
D16*
X61850000Y-79400000D03*
D12*
X62750000Y-81940000D03*
D16*
X61850000Y-81940000D03*
D13*
X62750000Y-84480000D03*
D16*
X61850000Y-84480000D03*
D13*
X62750000Y-87020000D03*
D16*
X61850000Y-87020000D03*
D13*
X80530000Y-87020000D03*
D16*
X81430000Y-87020000D03*
D13*
X80530000Y-84480000D03*
D16*
X81430000Y-84480000D03*
D12*
X80530000Y-81940000D03*
D16*
X81430000Y-81940000D03*
D13*
X80530000Y-79400000D03*
D16*
X81430000Y-79400000D03*
D13*
X80530000Y-76860000D03*
D16*
X81430000Y-76860000D03*
D13*
X80530000Y-74320000D03*
D16*
X81430000Y-74320000D03*
D13*
X80530000Y-71780000D03*
D16*
X81430000Y-71780000D03*
D12*
X80530000Y-69240000D03*
D16*
X81430000Y-69240000D03*
D13*
X80530000Y-66700000D03*
D16*
X81430000Y-66700000D03*
D13*
X80530000Y-64160000D03*
D16*
X81430000Y-64160000D03*
D13*
X80530000Y-61620000D03*
D16*
X81430000Y-61620000D03*
D13*
X80530000Y-59080000D03*
D16*
X81430000Y-59080000D03*
D12*
X80530000Y-56540000D03*
D16*
X81430000Y-56540000D03*
D13*
X80530000Y-54000000D03*
D16*
X81430000Y-54000000D03*
D13*
X80530000Y-51460000D03*
D16*
X81430000Y-51460000D03*
D13*
X80530000Y-48920000D03*
D16*
X81430000Y-48920000D03*
D13*
X80530000Y-46380000D03*
D16*
X81430000Y-46380000D03*
D12*
X80530000Y-43840000D03*
D16*
X81430000Y-43840000D03*
D13*
X80530000Y-41300000D03*
D16*
X81430000Y-41300000D03*
D13*
X80530000Y-38760000D03*
D16*
X81430000Y-38760000D03*
D13*
X69100000Y-86790000D03*
D17*
X69100000Y-87690000D03*
D12*
X71640000Y-86790000D03*
D17*
X71640000Y-87690000D03*
D13*
X74180000Y-86790000D03*
D17*
X74180000Y-87690000D03*
%TD*%
M02*
