%TF.GenerationSoftware,KiCad,Pcbnew,9.0.0*%
%TF.CreationDate,2025-03-11T15:03:30-04:00*%
%TF.ProjectId,PicoLVDS,5069636f-4c56-4445-932e-6b696361645f,2*%
%TF.SameCoordinates,Original*%
%TF.FileFunction,Copper,L4,Bot*%
%TF.FilePolarity,Positive*%
%FSLAX46Y46*%
G04 Gerber Fmt 4.6, Leading zero omitted, Abs format (unit mm)*
G04 Created by KiCad (PCBNEW 9.0.0) date 2025-03-11 15:03:30*
%MOMM*%
%LPD*%
G01*
G04 APERTURE LIST*
%TA.AperFunction,ComponentPad*%
%ADD10R,1.700000X1.700000*%
%TD*%
%TA.AperFunction,ComponentPad*%
%ADD11O,1.700000X1.700000*%
%TD*%
%TA.AperFunction,ViaPad*%
%ADD12C,0.600000*%
%TD*%
G04 APERTURE END LIST*
D10*
%TO.P,J1,1,Pin_1*%
%TO.N,/Out_0+*%
X33750000Y-43740000D03*
D11*
%TO.P,J1,2,Pin_2*%
%TO.N,/Out_0-*%
X36290000Y-43740000D03*
%TO.P,J1,3,Pin_3*%
%TO.N,/Out_1+*%
X33750000Y-46280000D03*
%TO.P,J1,4,Pin_4*%
%TO.N,/Out_1-*%
X36290000Y-46280000D03*
%TO.P,J1,5,Pin_5*%
%TO.N,/Out_2+*%
X33750000Y-48820000D03*
%TO.P,J1,6,Pin_6*%
%TO.N,/Out_2-*%
X36290000Y-48820000D03*
%TO.P,J1,7,Pin_7*%
%TO.N,/Out_3+*%
X33750000Y-51360000D03*
%TO.P,J1,8,Pin_8*%
%TO.N,/Out_3-*%
X36290000Y-51360000D03*
%TO.P,J1,9,Pin_9*%
%TO.N,/Out_4+*%
X33750000Y-53900000D03*
%TO.P,J1,10,Pin_10*%
%TO.N,/Out_4-*%
X36290000Y-53900000D03*
%TO.P,J1,11,Pin_11*%
%TO.N,/Out_5+*%
X33750000Y-56440000D03*
%TO.P,J1,12,Pin_12*%
%TO.N,/Out_5-*%
X36290000Y-56440000D03*
%TO.P,J1,13,Pin_13*%
%TO.N,/Out_6+*%
X33750000Y-58980000D03*
%TO.P,J1,14,Pin_14*%
%TO.N,/Out_6-*%
X36290000Y-58980000D03*
%TO.P,J1,15,Pin_15*%
%TO.N,/Out_7+*%
X33750000Y-61520000D03*
%TO.P,J1,16,Pin_16*%
%TO.N,/Out_7-*%
X36290000Y-61520000D03*
%TO.P,J1,17,Pin_17*%
%TO.N,/Out_8+*%
X33750000Y-64060000D03*
%TO.P,J1,18,Pin_18*%
%TO.N,/Out_8-*%
X36290000Y-64060000D03*
%TO.P,J1,19,Pin_19*%
%TO.N,/Out_9+*%
X33750000Y-66600000D03*
%TO.P,J1,20,Pin_20*%
%TO.N,/Out_9-*%
X36290000Y-66600000D03*
%TO.P,J1,21,Pin_21*%
%TO.N,/Out_10+*%
X33750000Y-69140000D03*
%TO.P,J1,22,Pin_22*%
%TO.N,/Out_10-*%
X36290000Y-69140000D03*
%TO.P,J1,23,Pin_23*%
%TO.N,/Out_11+*%
X33750000Y-71680000D03*
%TO.P,J1,24,Pin_24*%
%TO.N,/Out_11-*%
X36290000Y-71680000D03*
%TO.P,J1,25,Pin_25*%
%TO.N,/Out_12+*%
X33750000Y-74220000D03*
%TO.P,J1,26,Pin_26*%
%TO.N,/Out_12-*%
X36290000Y-74220000D03*
%TO.P,J1,27,Pin_27*%
%TO.N,/Out_13+*%
X33750000Y-76760000D03*
%TO.P,J1,28,Pin_28*%
%TO.N,/Out_13-*%
X36290000Y-76760000D03*
%TO.P,J1,29,Pin_29*%
%TO.N,/Out_14+*%
X33750000Y-79300000D03*
%TO.P,J1,30,Pin_30*%
%TO.N,/Out_14-*%
X36290000Y-79300000D03*
%TO.P,J1,31,Pin_31*%
%TO.N,/Out_15+*%
X33750000Y-81840000D03*
%TO.P,J1,32,Pin_32*%
%TO.N,/Out_15-*%
X36290000Y-81840000D03*
%TO.P,J1,33,Pin_33*%
%TO.N,unconnected-(J1-Pin_33-Pad33)*%
X33750000Y-84380000D03*
%TO.P,J1,34,Pin_34*%
%TO.N,unconnected-(J1-Pin_34-Pad34)*%
X36290000Y-84380000D03*
%TD*%
%TO.P,U1,1,GPIO0*%
%TO.N,/D0*%
X62750000Y-38760000D03*
%TO.P,U1,2,GPIO1*%
%TO.N,/D1*%
X62750000Y-41300000D03*
D10*
%TO.P,U1,3,GND*%
%TO.N,GND*%
X62750000Y-43840000D03*
D11*
%TO.P,U1,4,GPIO2*%
%TO.N,/D2*%
X62750000Y-46380000D03*
%TO.P,U1,5,GPIO3*%
%TO.N,/D3*%
X62750000Y-48920000D03*
%TO.P,U1,6,GPIO4*%
%TO.N,/D4*%
X62750000Y-51460000D03*
%TO.P,U1,7,GPIO5*%
%TO.N,/D5*%
X62750000Y-54000000D03*
D10*
%TO.P,U1,8,GND*%
%TO.N,GND*%
X62750000Y-56540000D03*
D11*
%TO.P,U1,9,GPIO6*%
%TO.N,/D6*%
X62750000Y-59080000D03*
%TO.P,U1,10,GPIO7*%
%TO.N,/D7*%
X62750000Y-61620000D03*
%TO.P,U1,11,GPIO8*%
%TO.N,/D8*%
X62750000Y-64160000D03*
%TO.P,U1,12,GPIO9*%
%TO.N,/D9*%
X62750000Y-66700000D03*
D10*
%TO.P,U1,13,GND*%
%TO.N,GND*%
X62750000Y-69240000D03*
D11*
%TO.P,U1,14,GPIO10*%
%TO.N,/D10*%
X62750000Y-71780000D03*
%TO.P,U1,15,GPIO11*%
%TO.N,/D11*%
X62750000Y-74320000D03*
%TO.P,U1,16,GPIO12*%
%TO.N,/D12*%
X62750000Y-76860000D03*
%TO.P,U1,17,GPIO13*%
%TO.N,/D13*%
X62750000Y-79400000D03*
D10*
%TO.P,U1,18,GND*%
%TO.N,GND*%
X62750000Y-81940000D03*
D11*
%TO.P,U1,19,GPIO14*%
%TO.N,/D14*%
X62750000Y-84480000D03*
%TO.P,U1,20,GPIO15*%
%TO.N,/D15*%
X62750000Y-87020000D03*
%TO.P,U1,21,GPIO16*%
%TO.N,unconnected-(U1-GPIO16-Pad21)*%
X80530000Y-87020000D03*
%TO.P,U1,22,GPIO17*%
%TO.N,unconnected-(U1-GPIO17-Pad22)*%
X80530000Y-84480000D03*
D10*
%TO.P,U1,23,GND*%
%TO.N,GND*%
X80530000Y-81940000D03*
D11*
%TO.P,U1,24,GPIO18*%
%TO.N,unconnected-(U1-GPIO18-Pad24)_1*%
X80530000Y-79400000D03*
%TO.P,U1,25,GPIO19*%
%TO.N,unconnected-(U1-GPIO19-Pad25)_1*%
X80530000Y-76860000D03*
%TO.P,U1,26,GPIO20*%
%TO.N,unconnected-(U1-GPIO20-Pad26)_1*%
X80530000Y-74320000D03*
%TO.P,U1,27,GPIO21*%
%TO.N,unconnected-(U1-GPIO21-Pad27)_1*%
X80530000Y-71780000D03*
D10*
%TO.P,U1,28,GND*%
%TO.N,GND*%
X80530000Y-69240000D03*
D11*
%TO.P,U1,29,GPIO22*%
%TO.N,unconnected-(U1-GPIO22-Pad29)*%
X80530000Y-66700000D03*
%TO.P,U1,30,RUN*%
%TO.N,unconnected-(U1-RUN-Pad30)*%
X80530000Y-64160000D03*
%TO.P,U1,31,GPIO26_ADC0*%
%TO.N,unconnected-(U1-GPIO26_ADC0-Pad31)*%
X80530000Y-61620000D03*
%TO.P,U1,32,GPIO27_ADC1*%
%TO.N,unconnected-(U1-GPIO27_ADC1-Pad32)_1*%
X80530000Y-59080000D03*
D10*
%TO.P,U1,33,AGND*%
%TO.N,unconnected-(U1-AGND-Pad33)_1*%
X80530000Y-56540000D03*
D11*
%TO.P,U1,34,GPIO28_ADC2*%
%TO.N,unconnected-(U1-GPIO28_ADC2-Pad34)*%
X80530000Y-54000000D03*
%TO.P,U1,35,ADC_VREF*%
%TO.N,unconnected-(U1-ADC_VREF-Pad35)*%
X80530000Y-51460000D03*
%TO.P,U1,36,3V3*%
%TO.N,+3V3*%
X80530000Y-48920000D03*
%TO.P,U1,37,3V3_EN*%
%TO.N,unconnected-(U1-3V3_EN-Pad37)*%
X80530000Y-46380000D03*
D10*
%TO.P,U1,38,GND*%
%TO.N,GND*%
X80530000Y-43840000D03*
D11*
%TO.P,U1,39,VSYS*%
%TO.N,unconnected-(U1-VSYS-Pad39)_1*%
X80530000Y-41300000D03*
%TO.P,U1,40,VBUS*%
%TO.N,unconnected-(U1-VBUS-Pad40)*%
X80530000Y-38760000D03*
%TO.P,U1,41,SWCLK*%
%TO.N,unconnected-(U1-SWCLK-Pad41)_1*%
X69100000Y-86790000D03*
D10*
%TO.P,U1,42,GND*%
%TO.N,unconnected-(U1-GND-Pad42)_1*%
X71640000Y-86790000D03*
D11*
%TO.P,U1,43,SWDIO*%
%TO.N,unconnected-(U1-SWDIO-Pad43)*%
X74180000Y-86790000D03*
%TD*%
D12*
%TO.N,+3V3*%
X52750000Y-69250000D03*
X52750000Y-57750000D03*
X51500000Y-81110000D03*
X50175000Y-51800000D03*
X50200000Y-40100000D03*
X50175000Y-62200000D03*
X51500000Y-45935000D03*
X52750000Y-46000000D03*
X50175000Y-50500000D03*
X50175000Y-75200000D03*
X51500000Y-57635000D03*
X51500000Y-69267500D03*
X53000000Y-81000000D03*
X50175000Y-73900000D03*
X50175000Y-63500000D03*
X50200000Y-85600000D03*
%TO.N,GND*%
X52750000Y-68000000D03*
X52750000Y-44500000D03*
X51500000Y-56365000D03*
X51500000Y-68132500D03*
X52750000Y-56250000D03*
X51500000Y-79932500D03*
X51500000Y-44665000D03*
X53000000Y-79750000D03*
%TD*%
%TA.AperFunction,Conductor*%
%TO.N,GND*%
G36*
X61350287Y-37720185D02*
G01*
X61396042Y-37772989D01*
X61405986Y-37842147D01*
X61383566Y-37897385D01*
X61370868Y-37914862D01*
X61255639Y-38141012D01*
X61177204Y-38382408D01*
X61137500Y-38633088D01*
X61137500Y-38886911D01*
X61177204Y-39137591D01*
X61177205Y-39137595D01*
X61255638Y-39378985D01*
X61370866Y-39605134D01*
X61520054Y-39810473D01*
X61520056Y-39810475D01*
X61651900Y-39942319D01*
X61685385Y-40003642D01*
X61680401Y-40073334D01*
X61651900Y-40117681D01*
X61520056Y-40249524D01*
X61520056Y-40249525D01*
X61520054Y-40249527D01*
X61474739Y-40311898D01*
X61370866Y-40454865D01*
X61255639Y-40681012D01*
X61177204Y-40922408D01*
X61137500Y-41173088D01*
X61137500Y-41426911D01*
X61177204Y-41677591D01*
X61177205Y-41677595D01*
X61255638Y-41918985D01*
X61370866Y-42145134D01*
X61520054Y-42350473D01*
X61520056Y-42350475D01*
X61590073Y-42420492D01*
X61623558Y-42481815D01*
X61618574Y-42551507D01*
X61576703Y-42607440D01*
X61542809Y-42632813D01*
X61456649Y-42747906D01*
X61456645Y-42747913D01*
X61406403Y-42882620D01*
X61406401Y-42882627D01*
X61400000Y-42942155D01*
X61400000Y-43590000D01*
X62305440Y-43590000D01*
X62274755Y-43643147D01*
X62240000Y-43772857D01*
X62240000Y-43907143D01*
X62274755Y-44036853D01*
X62305440Y-44090000D01*
X61400000Y-44090000D01*
X61400000Y-44737844D01*
X61406401Y-44797372D01*
X61406403Y-44797379D01*
X61456645Y-44932086D01*
X61456649Y-44932093D01*
X61542808Y-45047186D01*
X61576702Y-45072559D01*
X61618573Y-45128493D01*
X61623557Y-45198185D01*
X61590073Y-45259506D01*
X61520057Y-45329523D01*
X61520056Y-45329525D01*
X61520054Y-45329527D01*
X61455983Y-45417712D01*
X61370866Y-45534865D01*
X61255639Y-45761012D01*
X61177204Y-46002408D01*
X61137500Y-46253088D01*
X61137500Y-46506911D01*
X61177204Y-46757591D01*
X61177205Y-46757595D01*
X61255638Y-46998985D01*
X61370866Y-47225134D01*
X61520054Y-47430473D01*
X61520056Y-47430475D01*
X61651900Y-47562319D01*
X61685385Y-47623642D01*
X61680401Y-47693334D01*
X61651900Y-47737681D01*
X61520056Y-47869524D01*
X61520056Y-47869525D01*
X61520054Y-47869527D01*
X61455983Y-47957712D01*
X61370866Y-48074865D01*
X61255639Y-48301012D01*
X61177204Y-48542408D01*
X61137500Y-48793088D01*
X61137500Y-49046911D01*
X61177204Y-49297591D01*
X61177205Y-49297595D01*
X61255638Y-49538985D01*
X61370866Y-49765134D01*
X61520054Y-49970473D01*
X61520056Y-49970475D01*
X61651900Y-50102319D01*
X61685385Y-50163642D01*
X61680401Y-50233334D01*
X61651900Y-50277681D01*
X61520056Y-50409524D01*
X61520056Y-50409525D01*
X61520054Y-50409527D01*
X61481823Y-50462147D01*
X61370866Y-50614865D01*
X61255639Y-50841012D01*
X61177204Y-51082408D01*
X61137500Y-51333088D01*
X61137500Y-51586911D01*
X61177204Y-51837591D01*
X61177205Y-51837595D01*
X61255638Y-52078985D01*
X61370866Y-52305134D01*
X61520054Y-52510473D01*
X61520056Y-52510475D01*
X61651900Y-52642319D01*
X61685385Y-52703642D01*
X61680401Y-52773334D01*
X61651900Y-52817681D01*
X61520056Y-52949524D01*
X61520056Y-52949525D01*
X61520054Y-52949527D01*
X61455983Y-53037712D01*
X61370866Y-53154865D01*
X61255639Y-53381012D01*
X61177204Y-53622408D01*
X61137500Y-53873088D01*
X61137500Y-54126911D01*
X61177204Y-54377591D01*
X61177205Y-54377595D01*
X61255638Y-54618985D01*
X61370866Y-54845134D01*
X61520054Y-55050473D01*
X61520056Y-55050475D01*
X61590073Y-55120492D01*
X61623558Y-55181815D01*
X61618574Y-55251507D01*
X61576703Y-55307440D01*
X61542809Y-55332813D01*
X61456649Y-55447906D01*
X61456645Y-55447913D01*
X61406403Y-55582620D01*
X61406401Y-55582627D01*
X61400000Y-55642155D01*
X61400000Y-56290000D01*
X62305440Y-56290000D01*
X62274755Y-56343147D01*
X62240000Y-56472857D01*
X62240000Y-56607143D01*
X62274755Y-56736853D01*
X62305440Y-56790000D01*
X61400000Y-56790000D01*
X61400000Y-57437844D01*
X61406401Y-57497372D01*
X61406403Y-57497379D01*
X61456645Y-57632086D01*
X61456649Y-57632093D01*
X61542808Y-57747186D01*
X61576702Y-57772559D01*
X61618573Y-57828493D01*
X61623557Y-57898185D01*
X61590073Y-57959506D01*
X61520057Y-58029523D01*
X61520056Y-58029525D01*
X61520054Y-58029527D01*
X61505138Y-58050057D01*
X61370866Y-58234865D01*
X61255639Y-58461012D01*
X61177204Y-58702408D01*
X61137500Y-58953088D01*
X61137500Y-59206911D01*
X61177204Y-59457591D01*
X61177205Y-59457595D01*
X61255638Y-59698985D01*
X61370866Y-59925134D01*
X61520054Y-60130473D01*
X61520056Y-60130475D01*
X61651900Y-60262319D01*
X61685385Y-60323642D01*
X61680401Y-60393334D01*
X61651900Y-60437681D01*
X61520056Y-60569524D01*
X61520056Y-60569525D01*
X61520054Y-60569527D01*
X61455983Y-60657712D01*
X61370866Y-60774865D01*
X61255639Y-61001012D01*
X61177204Y-61242408D01*
X61137500Y-61493088D01*
X61137500Y-61746911D01*
X61177204Y-61997591D01*
X61177205Y-61997595D01*
X61255638Y-62238985D01*
X61370866Y-62465134D01*
X61520054Y-62670473D01*
X61520056Y-62670475D01*
X61651900Y-62802319D01*
X61685385Y-62863642D01*
X61680401Y-62933334D01*
X61651900Y-62977681D01*
X61520056Y-63109524D01*
X61520056Y-63109525D01*
X61520054Y-63109527D01*
X61461529Y-63190079D01*
X61370866Y-63314865D01*
X61255639Y-63541012D01*
X61177204Y-63782408D01*
X61137500Y-64033088D01*
X61137500Y-64286911D01*
X61177204Y-64537591D01*
X61177205Y-64537595D01*
X61255638Y-64778985D01*
X61370866Y-65005134D01*
X61520054Y-65210473D01*
X61520056Y-65210475D01*
X61651900Y-65342319D01*
X61685385Y-65403642D01*
X61680401Y-65473334D01*
X61651900Y-65517681D01*
X61520056Y-65649524D01*
X61520056Y-65649525D01*
X61520054Y-65649527D01*
X61455983Y-65737712D01*
X61370866Y-65854865D01*
X61255639Y-66081012D01*
X61177204Y-66322408D01*
X61137500Y-66573088D01*
X61137500Y-66826911D01*
X61177204Y-67077591D01*
X61177205Y-67077595D01*
X61255638Y-67318985D01*
X61370866Y-67545134D01*
X61520054Y-67750473D01*
X61520056Y-67750475D01*
X61590073Y-67820492D01*
X61623558Y-67881815D01*
X61618574Y-67951507D01*
X61576703Y-68007440D01*
X61542809Y-68032813D01*
X61456649Y-68147906D01*
X61456645Y-68147913D01*
X61406403Y-68282620D01*
X61406401Y-68282627D01*
X61400000Y-68342155D01*
X61400000Y-68990000D01*
X62305440Y-68990000D01*
X62274755Y-69043147D01*
X62240000Y-69172857D01*
X62240000Y-69307143D01*
X62274755Y-69436853D01*
X62305440Y-69490000D01*
X61400000Y-69490000D01*
X61400000Y-70137844D01*
X61406401Y-70197372D01*
X61406403Y-70197379D01*
X61456645Y-70332086D01*
X61456649Y-70332093D01*
X61542808Y-70447186D01*
X61576702Y-70472559D01*
X61618573Y-70528493D01*
X61623557Y-70598185D01*
X61590073Y-70659506D01*
X61520057Y-70729523D01*
X61520056Y-70729525D01*
X61520054Y-70729527D01*
X61455983Y-70817712D01*
X61370866Y-70934865D01*
X61255639Y-71161012D01*
X61177204Y-71402408D01*
X61137500Y-71653088D01*
X61137500Y-71906911D01*
X61177204Y-72157591D01*
X61177205Y-72157595D01*
X61255638Y-72398985D01*
X61370866Y-72625134D01*
X61520054Y-72830473D01*
X61520056Y-72830475D01*
X61651900Y-72962319D01*
X61685385Y-73023642D01*
X61680401Y-73093334D01*
X61651900Y-73137681D01*
X61520056Y-73269524D01*
X61520056Y-73269525D01*
X61520054Y-73269527D01*
X61455983Y-73357712D01*
X61370866Y-73474865D01*
X61255639Y-73701012D01*
X61177204Y-73942408D01*
X61137500Y-74193088D01*
X61137500Y-74446911D01*
X61177204Y-74697591D01*
X61177205Y-74697595D01*
X61239747Y-74890079D01*
X61255639Y-74938987D01*
X61335311Y-75095353D01*
X61370866Y-75165134D01*
X61520054Y-75370473D01*
X61520056Y-75370475D01*
X61651900Y-75502319D01*
X61685385Y-75563642D01*
X61680401Y-75633334D01*
X61651900Y-75677681D01*
X61520056Y-75809524D01*
X61520056Y-75809525D01*
X61520054Y-75809527D01*
X61470811Y-75877304D01*
X61370866Y-76014865D01*
X61255639Y-76241012D01*
X61177204Y-76482408D01*
X61137500Y-76733088D01*
X61137500Y-76986911D01*
X61177204Y-77237591D01*
X61177205Y-77237595D01*
X61255638Y-77478985D01*
X61370866Y-77705134D01*
X61520054Y-77910473D01*
X61520056Y-77910475D01*
X61651900Y-78042319D01*
X61685385Y-78103642D01*
X61680401Y-78173334D01*
X61651900Y-78217681D01*
X61520056Y-78349524D01*
X61520056Y-78349525D01*
X61520054Y-78349527D01*
X61455983Y-78437712D01*
X61370866Y-78554865D01*
X61255639Y-78781012D01*
X61177204Y-79022408D01*
X61137500Y-79273088D01*
X61137500Y-79526911D01*
X61177204Y-79777591D01*
X61177205Y-79777595D01*
X61255638Y-80018985D01*
X61370866Y-80245134D01*
X61520054Y-80450473D01*
X61520056Y-80450475D01*
X61590073Y-80520492D01*
X61623558Y-80581815D01*
X61618574Y-80651507D01*
X61576703Y-80707440D01*
X61542809Y-80732813D01*
X61456649Y-80847906D01*
X61456645Y-80847913D01*
X61406403Y-80982620D01*
X61406401Y-80982627D01*
X61400000Y-81042155D01*
X61400000Y-81690000D01*
X62305440Y-81690000D01*
X62274755Y-81743147D01*
X62240000Y-81872857D01*
X62240000Y-82007143D01*
X62274755Y-82136853D01*
X62305440Y-82190000D01*
X61400000Y-82190000D01*
X61400000Y-82837844D01*
X61406401Y-82897372D01*
X61406403Y-82897379D01*
X61456645Y-83032086D01*
X61456649Y-83032093D01*
X61542808Y-83147186D01*
X61576702Y-83172559D01*
X61618573Y-83228493D01*
X61623557Y-83298185D01*
X61590073Y-83359506D01*
X61520057Y-83429523D01*
X61520056Y-83429525D01*
X61520054Y-83429527D01*
X61455983Y-83517712D01*
X61370866Y-83634865D01*
X61255639Y-83861012D01*
X61177204Y-84102408D01*
X61137500Y-84353088D01*
X61137500Y-84606911D01*
X61164076Y-84774702D01*
X61177205Y-84857595D01*
X61255638Y-85098985D01*
X61370866Y-85325134D01*
X61520054Y-85530473D01*
X61520056Y-85530475D01*
X61651900Y-85662319D01*
X61685385Y-85723642D01*
X61680401Y-85793334D01*
X61651900Y-85837681D01*
X61520056Y-85969524D01*
X61520056Y-85969525D01*
X61520054Y-85969527D01*
X61503363Y-85992500D01*
X61370866Y-86174865D01*
X61255639Y-86401012D01*
X61177204Y-86642408D01*
X61137500Y-86893088D01*
X61137500Y-87146911D01*
X61177204Y-87397591D01*
X61177205Y-87397595D01*
X61255638Y-87638985D01*
X61370866Y-87865134D01*
X61520054Y-88070473D01*
X61699527Y-88249946D01*
X61904866Y-88399134D01*
X62131015Y-88514362D01*
X62372405Y-88592795D01*
X62466413Y-88607684D01*
X62623089Y-88632500D01*
X62623094Y-88632500D01*
X62876911Y-88632500D01*
X63016177Y-88610441D01*
X63127595Y-88592795D01*
X63368985Y-88514362D01*
X63595134Y-88399134D01*
X63800473Y-88249946D01*
X63979946Y-88070473D01*
X64129134Y-87865134D01*
X64244362Y-87638985D01*
X64322795Y-87397595D01*
X64340441Y-87286177D01*
X64362500Y-87146911D01*
X64362500Y-86893088D01*
X64328373Y-86677620D01*
X64326071Y-86663088D01*
X67487500Y-86663088D01*
X67487500Y-86916911D01*
X67523928Y-87146906D01*
X67527205Y-87167595D01*
X67605638Y-87408985D01*
X67720866Y-87635134D01*
X67870054Y-87840473D01*
X68049527Y-88019946D01*
X68254866Y-88169134D01*
X68481015Y-88284362D01*
X68722405Y-88362795D01*
X68816413Y-88377684D01*
X68973089Y-88402500D01*
X68973094Y-88402500D01*
X69226911Y-88402500D01*
X69366177Y-88380441D01*
X69477595Y-88362795D01*
X69718985Y-88284362D01*
X69945134Y-88169134D01*
X70030699Y-88106966D01*
X70096503Y-88083486D01*
X70164557Y-88099311D01*
X70191265Y-88119603D01*
X70313851Y-88242189D01*
X70465560Y-88335764D01*
X70634759Y-88391831D01*
X70739189Y-88402500D01*
X72540810Y-88402499D01*
X72645241Y-88391831D01*
X72814440Y-88335764D01*
X72966149Y-88242189D01*
X73088737Y-88119600D01*
X73150056Y-88086118D01*
X73219748Y-88091102D01*
X73249301Y-88106967D01*
X73334861Y-88169131D01*
X73334863Y-88169132D01*
X73334866Y-88169134D01*
X73561015Y-88284362D01*
X73802405Y-88362795D01*
X73896413Y-88377684D01*
X74053089Y-88402500D01*
X74053094Y-88402500D01*
X74306911Y-88402500D01*
X74446177Y-88380441D01*
X74557595Y-88362795D01*
X74798985Y-88284362D01*
X75025134Y-88169134D01*
X75230473Y-88019946D01*
X75409946Y-87840473D01*
X75559134Y-87635134D01*
X75674362Y-87408985D01*
X75752795Y-87167595D01*
X75770441Y-87056177D01*
X75792500Y-86916911D01*
X75792500Y-86663088D01*
X75754837Y-86425298D01*
X75752795Y-86412405D01*
X75674362Y-86171015D01*
X75559134Y-85944866D01*
X75409946Y-85739527D01*
X75230473Y-85560054D01*
X75025134Y-85410866D01*
X74881753Y-85337810D01*
X74798987Y-85295639D01*
X74798986Y-85295638D01*
X74798985Y-85295638D01*
X74557595Y-85217205D01*
X74557593Y-85217204D01*
X74557591Y-85217204D01*
X74306911Y-85177500D01*
X74306906Y-85177500D01*
X74053094Y-85177500D01*
X74053089Y-85177500D01*
X73802408Y-85217204D01*
X73561012Y-85295639D01*
X73334865Y-85410866D01*
X73281555Y-85449599D01*
X73261939Y-85463851D01*
X73249301Y-85473033D01*
X73183494Y-85496513D01*
X73115440Y-85480688D01*
X73088734Y-85460396D01*
X72966150Y-85337812D01*
X72966149Y-85337811D01*
X72814440Y-85244236D01*
X72732863Y-85217204D01*
X72645242Y-85188169D01*
X72645235Y-85188168D01*
X72540812Y-85177500D01*
X70739196Y-85177500D01*
X70739180Y-85177501D01*
X70634757Y-85188169D01*
X70465562Y-85244235D01*
X70465557Y-85244237D01*
X70313852Y-85337810D01*
X70191265Y-85460397D01*
X70129942Y-85493881D01*
X70060250Y-85488897D01*
X70030701Y-85473035D01*
X69945134Y-85410866D01*
X69801753Y-85337810D01*
X69718987Y-85295639D01*
X69718986Y-85295638D01*
X69718985Y-85295638D01*
X69477595Y-85217205D01*
X69477593Y-85217204D01*
X69477591Y-85217204D01*
X69226911Y-85177500D01*
X69226906Y-85177500D01*
X68973094Y-85177500D01*
X68973089Y-85177500D01*
X68722408Y-85217204D01*
X68481012Y-85295639D01*
X68254865Y-85410866D01*
X68147466Y-85488897D01*
X68049527Y-85560054D01*
X68049525Y-85560056D01*
X68049524Y-85560056D01*
X67870056Y-85739524D01*
X67870056Y-85739525D01*
X67870054Y-85739527D01*
X67855809Y-85759134D01*
X67720866Y-85944865D01*
X67605639Y-86171012D01*
X67527204Y-86412408D01*
X67487500Y-86663088D01*
X64326071Y-86663088D01*
X64322795Y-86642407D01*
X64322795Y-86642405D01*
X64244362Y-86401015D01*
X64129134Y-86174866D01*
X63979946Y-85969527D01*
X63848100Y-85837681D01*
X63814615Y-85776358D01*
X63819599Y-85706666D01*
X63848100Y-85662319D01*
X63900476Y-85609943D01*
X63979946Y-85530473D01*
X64129134Y-85325134D01*
X64244362Y-85098985D01*
X64322795Y-84857595D01*
X64340441Y-84746177D01*
X64362500Y-84606911D01*
X64362500Y-84353088D01*
X64322795Y-84102408D01*
X64322795Y-84102405D01*
X64244362Y-83861015D01*
X64129134Y-83634866D01*
X63979946Y-83429527D01*
X63909925Y-83359506D01*
X63876442Y-83298183D01*
X63881427Y-83228492D01*
X63923298Y-83172558D01*
X63957191Y-83147185D01*
X64043350Y-83032093D01*
X64043354Y-83032086D01*
X64093596Y-82897379D01*
X64093598Y-82897372D01*
X64099999Y-82837844D01*
X64100000Y-82837827D01*
X64100000Y-82190000D01*
X63194560Y-82190000D01*
X63225245Y-82136853D01*
X63260000Y-82007143D01*
X63260000Y-81872857D01*
X63225245Y-81743147D01*
X63194560Y-81690000D01*
X64100000Y-81690000D01*
X64100000Y-81042172D01*
X64099999Y-81042155D01*
X64093598Y-80982627D01*
X64093596Y-80982620D01*
X64043354Y-80847913D01*
X64043350Y-80847906D01*
X63957190Y-80732812D01*
X63957188Y-80732810D01*
X63923295Y-80707437D01*
X63881425Y-80651503D01*
X63876442Y-80581811D01*
X63909924Y-80520494D01*
X63979946Y-80450473D01*
X64129134Y-80245134D01*
X64244362Y-80018985D01*
X64322795Y-79777595D01*
X64340441Y-79666177D01*
X64362500Y-79526911D01*
X64362500Y-79273088D01*
X64322795Y-79022408D01*
X64322795Y-79022405D01*
X64244362Y-78781015D01*
X64129134Y-78554866D01*
X63979946Y-78349527D01*
X63848100Y-78217681D01*
X63814615Y-78156358D01*
X63819599Y-78086666D01*
X63848100Y-78042319D01*
X63903753Y-77986666D01*
X63979946Y-77910473D01*
X64129134Y-77705134D01*
X64244362Y-77478985D01*
X64322795Y-77237595D01*
X64340441Y-77126177D01*
X64362500Y-76986911D01*
X64362500Y-76733088D01*
X64322795Y-76482408D01*
X64322795Y-76482405D01*
X64244362Y-76241015D01*
X64129134Y-76014866D01*
X63979946Y-75809527D01*
X63848100Y-75677681D01*
X63814615Y-75616358D01*
X63819599Y-75546666D01*
X63848100Y-75502319D01*
X63903753Y-75446666D01*
X63979946Y-75370473D01*
X64129134Y-75165134D01*
X64244362Y-74938985D01*
X64322795Y-74697595D01*
X64357083Y-74481110D01*
X64362500Y-74446911D01*
X64362500Y-74193088D01*
X64322795Y-73942408D01*
X64322795Y-73942405D01*
X64244362Y-73701015D01*
X64129134Y-73474866D01*
X63979946Y-73269527D01*
X63848100Y-73137681D01*
X63814615Y-73076358D01*
X63819599Y-73006666D01*
X63848100Y-72962319D01*
X63903753Y-72906666D01*
X63979946Y-72830473D01*
X64129134Y-72625134D01*
X64244362Y-72398985D01*
X64322795Y-72157595D01*
X64340441Y-72046177D01*
X64362500Y-71906911D01*
X64362500Y-71653088D01*
X64322795Y-71402408D01*
X64322795Y-71402405D01*
X64244362Y-71161015D01*
X64129134Y-70934866D01*
X63979946Y-70729527D01*
X63909925Y-70659506D01*
X63876442Y-70598183D01*
X63881427Y-70528492D01*
X63923298Y-70472558D01*
X63957191Y-70447185D01*
X64043350Y-70332093D01*
X64043354Y-70332086D01*
X64093596Y-70197379D01*
X64093598Y-70197372D01*
X64099999Y-70137844D01*
X64100000Y-70137827D01*
X64100000Y-69490000D01*
X63194560Y-69490000D01*
X63225245Y-69436853D01*
X63260000Y-69307143D01*
X63260000Y-69172857D01*
X63225245Y-69043147D01*
X63194560Y-68990000D01*
X64100000Y-68990000D01*
X64100000Y-68342172D01*
X64099999Y-68342155D01*
X64093598Y-68282627D01*
X64093596Y-68282620D01*
X64043354Y-68147913D01*
X64043350Y-68147906D01*
X63957190Y-68032812D01*
X63957188Y-68032810D01*
X63923295Y-68007437D01*
X63881425Y-67951503D01*
X63876442Y-67881811D01*
X63909924Y-67820494D01*
X63979946Y-67750473D01*
X64129134Y-67545134D01*
X64244362Y-67318985D01*
X64322795Y-67077595D01*
X64340441Y-66966177D01*
X64362500Y-66826911D01*
X64362500Y-66573088D01*
X64322795Y-66322408D01*
X64322795Y-66322405D01*
X64244362Y-66081015D01*
X64129134Y-65854866D01*
X63979946Y-65649527D01*
X63848100Y-65517681D01*
X63814615Y-65456358D01*
X63819599Y-65386666D01*
X63848100Y-65342319D01*
X63903753Y-65286666D01*
X63979946Y-65210473D01*
X64129134Y-65005134D01*
X64244362Y-64778985D01*
X64322795Y-64537595D01*
X64340441Y-64426177D01*
X64362500Y-64286911D01*
X64362500Y-64033088D01*
X64327153Y-63809920D01*
X64322795Y-63782405D01*
X64244362Y-63541015D01*
X64129134Y-63314866D01*
X63979946Y-63109527D01*
X63848100Y-62977681D01*
X63814615Y-62916358D01*
X63819599Y-62846666D01*
X63848100Y-62802319D01*
X63903753Y-62746666D01*
X63979946Y-62670473D01*
X64129134Y-62465134D01*
X64244362Y-62238985D01*
X64322795Y-61997595D01*
X64340441Y-61886177D01*
X64362500Y-61746911D01*
X64362500Y-61493088D01*
X64322795Y-61242408D01*
X64322795Y-61242405D01*
X64244362Y-61001015D01*
X64129134Y-60774866D01*
X63979946Y-60569527D01*
X63848100Y-60437681D01*
X63814615Y-60376358D01*
X63819599Y-60306666D01*
X63848100Y-60262319D01*
X63903753Y-60206666D01*
X63979946Y-60130473D01*
X64129134Y-59925134D01*
X64244362Y-59698985D01*
X64322795Y-59457595D01*
X64340441Y-59346177D01*
X64362500Y-59206911D01*
X64362500Y-58953088D01*
X64322795Y-58702408D01*
X64322795Y-58702405D01*
X64244362Y-58461015D01*
X64129134Y-58234866D01*
X63979946Y-58029527D01*
X63909925Y-57959506D01*
X63876442Y-57898183D01*
X63881427Y-57828492D01*
X63923298Y-57772558D01*
X63957191Y-57747185D01*
X64043350Y-57632093D01*
X64043354Y-57632086D01*
X64093596Y-57497379D01*
X64093598Y-57497372D01*
X64099999Y-57437844D01*
X64100000Y-57437827D01*
X64100000Y-56790000D01*
X63194560Y-56790000D01*
X63225245Y-56736853D01*
X63260000Y-56607143D01*
X63260000Y-56472857D01*
X63225245Y-56343147D01*
X63194560Y-56290000D01*
X64100000Y-56290000D01*
X64100000Y-55642172D01*
X64099999Y-55642155D01*
X64093598Y-55582627D01*
X64093596Y-55582620D01*
X64043354Y-55447913D01*
X64043350Y-55447906D01*
X63957190Y-55332812D01*
X63957188Y-55332810D01*
X63923295Y-55307437D01*
X63881425Y-55251503D01*
X63876442Y-55181811D01*
X63909924Y-55120494D01*
X63979946Y-55050473D01*
X64129134Y-54845134D01*
X64244362Y-54618985D01*
X64322795Y-54377595D01*
X64340441Y-54266177D01*
X64362500Y-54126911D01*
X64362500Y-53873088D01*
X64322795Y-53622408D01*
X64322795Y-53622405D01*
X64244362Y-53381015D01*
X64129134Y-53154866D01*
X63979946Y-52949527D01*
X63848100Y-52817681D01*
X63814615Y-52756358D01*
X63819599Y-52686666D01*
X63848100Y-52642319D01*
X63903753Y-52586666D01*
X63979946Y-52510473D01*
X64129134Y-52305134D01*
X64244362Y-52078985D01*
X64322795Y-51837595D01*
X64345325Y-51695348D01*
X64362500Y-51586911D01*
X64362500Y-51333088D01*
X64333501Y-51150000D01*
X64322795Y-51082405D01*
X64244362Y-50841015D01*
X64129134Y-50614866D01*
X63979946Y-50409527D01*
X63848100Y-50277681D01*
X63814615Y-50216358D01*
X63819599Y-50146666D01*
X63848100Y-50102319D01*
X63903753Y-50046666D01*
X63979946Y-49970473D01*
X64129134Y-49765134D01*
X64244362Y-49538985D01*
X64322795Y-49297595D01*
X64340441Y-49186177D01*
X64362500Y-49046911D01*
X64362500Y-48793088D01*
X64322795Y-48542408D01*
X64322795Y-48542405D01*
X64244362Y-48301015D01*
X64129134Y-48074866D01*
X63979946Y-47869527D01*
X63848100Y-47737681D01*
X63814615Y-47676358D01*
X63819599Y-47606666D01*
X63848100Y-47562319D01*
X63903753Y-47506666D01*
X63979946Y-47430473D01*
X64129134Y-47225134D01*
X64244362Y-46998985D01*
X64322795Y-46757595D01*
X64340441Y-46646177D01*
X64362500Y-46506911D01*
X64362500Y-46253088D01*
X64328694Y-46039651D01*
X64322795Y-46002405D01*
X64244362Y-45761015D01*
X64129134Y-45534866D01*
X63979946Y-45329527D01*
X63909925Y-45259506D01*
X63876442Y-45198183D01*
X63881427Y-45128492D01*
X63923298Y-45072558D01*
X63957191Y-45047185D01*
X64043350Y-44932093D01*
X64043354Y-44932086D01*
X64093596Y-44797379D01*
X64093598Y-44797372D01*
X64099999Y-44737844D01*
X64100000Y-44737827D01*
X64100000Y-44090000D01*
X63194560Y-44090000D01*
X63225245Y-44036853D01*
X63260000Y-43907143D01*
X63260000Y-43772857D01*
X63225245Y-43643147D01*
X63194560Y-43590000D01*
X64100000Y-43590000D01*
X64100000Y-42942172D01*
X64099999Y-42942155D01*
X64093598Y-42882627D01*
X64093596Y-42882620D01*
X64043354Y-42747913D01*
X64043350Y-42747906D01*
X63957190Y-42632812D01*
X63957188Y-42632810D01*
X63923295Y-42607437D01*
X63881425Y-42551503D01*
X63876442Y-42481811D01*
X63909924Y-42420494D01*
X63979946Y-42350473D01*
X64129134Y-42145134D01*
X64244362Y-41918985D01*
X64322795Y-41677595D01*
X64340498Y-41565820D01*
X64362500Y-41426911D01*
X64362500Y-41173088D01*
X64336030Y-41005968D01*
X64322795Y-40922405D01*
X64244362Y-40681015D01*
X64129134Y-40454866D01*
X63979946Y-40249527D01*
X63848100Y-40117681D01*
X63814615Y-40056358D01*
X63819599Y-39986666D01*
X63848100Y-39942319D01*
X63979946Y-39810473D01*
X64129134Y-39605134D01*
X64244362Y-39378985D01*
X64322795Y-39137595D01*
X64341287Y-39020842D01*
X64362500Y-38886911D01*
X64362500Y-38633088D01*
X64322795Y-38382408D01*
X64322795Y-38382405D01*
X64244362Y-38141015D01*
X64129134Y-37914866D01*
X64127686Y-37912874D01*
X64116434Y-37897385D01*
X64092954Y-37831579D01*
X64108779Y-37763525D01*
X64158885Y-37714830D01*
X64216752Y-37700500D01*
X67480895Y-37700500D01*
X67547934Y-37720185D01*
X67593689Y-37772989D01*
X67603633Y-37842147D01*
X67581213Y-37897386D01*
X67493102Y-38018659D01*
X67374302Y-38251816D01*
X67293435Y-38500696D01*
X67252500Y-38759152D01*
X67252500Y-39020847D01*
X67293435Y-39279303D01*
X67374302Y-39528183D01*
X67413511Y-39605134D01*
X67493102Y-39761340D01*
X67646916Y-39973046D01*
X67831954Y-40158084D01*
X68043660Y-40311898D01*
X68276821Y-40430699D01*
X68331992Y-40448625D01*
X68389668Y-40488063D01*
X68416866Y-40552421D01*
X68404951Y-40621268D01*
X68366560Y-40666874D01*
X68229670Y-40766331D01*
X68061332Y-40934669D01*
X68061332Y-40934670D01*
X68061330Y-40934672D01*
X68001232Y-41017388D01*
X67921394Y-41127276D01*
X67813310Y-41339400D01*
X67813309Y-41339403D01*
X67739743Y-41565820D01*
X67702500Y-41800964D01*
X67702500Y-42039035D01*
X67739743Y-42274179D01*
X67813309Y-42500596D01*
X67813310Y-42500599D01*
X67904279Y-42679134D01*
X67921394Y-42712723D01*
X68061330Y-42905328D01*
X68229672Y-43073670D01*
X68422277Y-43213606D01*
X68526317Y-43266617D01*
X68634400Y-43321689D01*
X68634403Y-43321690D01*
X68747611Y-43358473D01*
X68860822Y-43395257D01*
X69095964Y-43432500D01*
X69095965Y-43432500D01*
X69334035Y-43432500D01*
X69334036Y-43432500D01*
X69569178Y-43395257D01*
X69795599Y-43321689D01*
X70007723Y-43213606D01*
X70200328Y-43073670D01*
X70368670Y-42905328D01*
X70508606Y-42712723D01*
X70616689Y-42500599D01*
X70690257Y-42274178D01*
X70727500Y-42039036D01*
X70727500Y-41800964D01*
X70690257Y-41565822D01*
X70653473Y-41452611D01*
X70616690Y-41339403D01*
X70616689Y-41339400D01*
X70526553Y-41162500D01*
X70508606Y-41127277D01*
X70368670Y-40934672D01*
X70200328Y-40766330D01*
X70007723Y-40626394D01*
X69962363Y-40603282D01*
X69803460Y-40522316D01*
X69752664Y-40474341D01*
X69735869Y-40406520D01*
X69758407Y-40340385D01*
X69786866Y-40311515D01*
X69998046Y-40158084D01*
X70183084Y-39973046D01*
X70336898Y-39761340D01*
X70455699Y-39528179D01*
X70536564Y-39279303D01*
X70555709Y-39158425D01*
X70577500Y-39020847D01*
X70577500Y-38759152D01*
X70536564Y-38500696D01*
X70455697Y-38251816D01*
X70336897Y-38018659D01*
X70248787Y-37897386D01*
X70225307Y-37831579D01*
X70241132Y-37763525D01*
X70291238Y-37714830D01*
X70349105Y-37700500D01*
X72930895Y-37700500D01*
X72997934Y-37720185D01*
X73043689Y-37772989D01*
X73053633Y-37842147D01*
X73031213Y-37897386D01*
X72943102Y-38018659D01*
X72824302Y-38251816D01*
X72743435Y-38500696D01*
X72702500Y-38759152D01*
X72702500Y-39020847D01*
X72743435Y-39279303D01*
X72824302Y-39528183D01*
X72863511Y-39605134D01*
X72943102Y-39761340D01*
X73096916Y-39973046D01*
X73281954Y-40158084D01*
X73407814Y-40249527D01*
X73493130Y-40311513D01*
X73535795Y-40366843D01*
X73541774Y-40436457D01*
X73509168Y-40498252D01*
X73476539Y-40522315D01*
X73272281Y-40626390D01*
X73143873Y-40719684D01*
X73079672Y-40766330D01*
X73079670Y-40766332D01*
X73079669Y-40766332D01*
X72911332Y-40934669D01*
X72911332Y-40934670D01*
X72911330Y-40934672D01*
X72851232Y-41017388D01*
X72771394Y-41127276D01*
X72663310Y-41339400D01*
X72663309Y-41339403D01*
X72589743Y-41565820D01*
X72552500Y-41800964D01*
X72552500Y-42039035D01*
X72589743Y-42274179D01*
X72663309Y-42500596D01*
X72663310Y-42500599D01*
X72754279Y-42679134D01*
X72771394Y-42712723D01*
X72911330Y-42905328D01*
X73079672Y-43073670D01*
X73272277Y-43213606D01*
X73376317Y-43266617D01*
X73484400Y-43321689D01*
X73484403Y-43321690D01*
X73597611Y-43358473D01*
X73710822Y-43395257D01*
X73945964Y-43432500D01*
X73945965Y-43432500D01*
X74184035Y-43432500D01*
X74184036Y-43432500D01*
X74419178Y-43395257D01*
X74645599Y-43321689D01*
X74857723Y-43213606D01*
X75050328Y-43073670D01*
X75218670Y-42905328D01*
X75358606Y-42712723D01*
X75466689Y-42500599D01*
X75540257Y-42274178D01*
X75577500Y-42039036D01*
X75577500Y-41800964D01*
X75540257Y-41565822D01*
X75503473Y-41452611D01*
X75466690Y-41339403D01*
X75466689Y-41339400D01*
X75376553Y-41162500D01*
X75358606Y-41127277D01*
X75218670Y-40934672D01*
X75050328Y-40766330D01*
X74913439Y-40666874D01*
X74870774Y-40611544D01*
X74864795Y-40541930D01*
X74897401Y-40480135D01*
X74948005Y-40448626D01*
X75003179Y-40430699D01*
X75236340Y-40311898D01*
X75448046Y-40158084D01*
X75633084Y-39973046D01*
X75786898Y-39761340D01*
X75905699Y-39528179D01*
X75986564Y-39279303D01*
X76005709Y-39158425D01*
X76027500Y-39020847D01*
X76027500Y-38759152D01*
X75986564Y-38500696D01*
X75905697Y-38251816D01*
X75786897Y-38018659D01*
X75698787Y-37897386D01*
X75675307Y-37831579D01*
X75691132Y-37763525D01*
X75741238Y-37714830D01*
X75799105Y-37700500D01*
X79063248Y-37700500D01*
X79130287Y-37720185D01*
X79176042Y-37772989D01*
X79185986Y-37842147D01*
X79163566Y-37897385D01*
X79150868Y-37914862D01*
X79035639Y-38141012D01*
X78957204Y-38382408D01*
X78917500Y-38633088D01*
X78917500Y-38886911D01*
X78957204Y-39137591D01*
X78957205Y-39137595D01*
X79035638Y-39378985D01*
X79150866Y-39605134D01*
X79300054Y-39810473D01*
X79300056Y-39810475D01*
X79431900Y-39942319D01*
X79465385Y-40003642D01*
X79460401Y-40073334D01*
X79431900Y-40117681D01*
X79300056Y-40249524D01*
X79300056Y-40249525D01*
X79300054Y-40249527D01*
X79254739Y-40311898D01*
X79150866Y-40454865D01*
X79035639Y-40681012D01*
X78957204Y-40922408D01*
X78917500Y-41173088D01*
X78917500Y-41426911D01*
X78957204Y-41677591D01*
X78957205Y-41677595D01*
X79035638Y-41918985D01*
X79150866Y-42145134D01*
X79300054Y-42350473D01*
X79300056Y-42350475D01*
X79370073Y-42420492D01*
X79403558Y-42481815D01*
X79398574Y-42551507D01*
X79356703Y-42607440D01*
X79322809Y-42632813D01*
X79236649Y-42747906D01*
X79236645Y-42747913D01*
X79186403Y-42882620D01*
X79186401Y-42882627D01*
X79180000Y-42942155D01*
X79180000Y-43590000D01*
X80085440Y-43590000D01*
X80054755Y-43643147D01*
X80020000Y-43772857D01*
X80020000Y-43907143D01*
X80054755Y-44036853D01*
X80085440Y-44090000D01*
X79180000Y-44090000D01*
X79180000Y-44737844D01*
X79186401Y-44797372D01*
X79186403Y-44797379D01*
X79236645Y-44932086D01*
X79236649Y-44932093D01*
X79322808Y-45047186D01*
X79356702Y-45072559D01*
X79398573Y-45128493D01*
X79403557Y-45198185D01*
X79370073Y-45259506D01*
X79300057Y-45329523D01*
X79300056Y-45329525D01*
X79300054Y-45329527D01*
X79235983Y-45417712D01*
X79150866Y-45534865D01*
X79035639Y-45761012D01*
X78957204Y-46002408D01*
X78917500Y-46253088D01*
X78917500Y-46506911D01*
X78957204Y-46757591D01*
X78957205Y-46757595D01*
X79035638Y-46998985D01*
X79150866Y-47225134D01*
X79300054Y-47430473D01*
X79300056Y-47430475D01*
X79431900Y-47562319D01*
X79465385Y-47623642D01*
X79460401Y-47693334D01*
X79431900Y-47737681D01*
X79300056Y-47869524D01*
X79300056Y-47869525D01*
X79300054Y-47869527D01*
X79235983Y-47957712D01*
X79150866Y-48074865D01*
X79035639Y-48301012D01*
X78957204Y-48542408D01*
X78917500Y-48793088D01*
X78917500Y-49046911D01*
X78957204Y-49297591D01*
X78957205Y-49297595D01*
X79035638Y-49538985D01*
X79150866Y-49765134D01*
X79300054Y-49970473D01*
X79300056Y-49970475D01*
X79431900Y-50102319D01*
X79465385Y-50163642D01*
X79460401Y-50233334D01*
X79431900Y-50277681D01*
X79300056Y-50409524D01*
X79300056Y-50409525D01*
X79300054Y-50409527D01*
X79261823Y-50462147D01*
X79150866Y-50614865D01*
X79035639Y-50841012D01*
X78957204Y-51082408D01*
X78917500Y-51333088D01*
X78917500Y-51586911D01*
X78957204Y-51837591D01*
X78957205Y-51837595D01*
X79035638Y-52078985D01*
X79150866Y-52305134D01*
X79300054Y-52510473D01*
X79300056Y-52510475D01*
X79431900Y-52642319D01*
X79465385Y-52703642D01*
X79460401Y-52773334D01*
X79431900Y-52817681D01*
X79300056Y-52949524D01*
X79300056Y-52949525D01*
X79300054Y-52949527D01*
X79235983Y-53037712D01*
X79150866Y-53154865D01*
X79035639Y-53381012D01*
X78957204Y-53622408D01*
X78917500Y-53873088D01*
X78917500Y-54126911D01*
X78957204Y-54377591D01*
X78957205Y-54377595D01*
X79035638Y-54618985D01*
X79150866Y-54845134D01*
X79213033Y-54930699D01*
X79236513Y-54996504D01*
X79220688Y-55064558D01*
X79200397Y-55091265D01*
X79077810Y-55213852D01*
X78984237Y-55365557D01*
X78984235Y-55365562D01*
X78928169Y-55534757D01*
X78928168Y-55534764D01*
X78917500Y-55639181D01*
X78917500Y-57440803D01*
X78917501Y-57440819D01*
X78928169Y-57545242D01*
X78979738Y-57700866D01*
X78984236Y-57714440D01*
X79070716Y-57854647D01*
X79077812Y-57866150D01*
X79200396Y-57988734D01*
X79233881Y-58050057D01*
X79228897Y-58119749D01*
X79213033Y-58149301D01*
X79150866Y-58234865D01*
X79035639Y-58461012D01*
X78957204Y-58702408D01*
X78917500Y-58953088D01*
X78917500Y-59206911D01*
X78957204Y-59457591D01*
X78957205Y-59457595D01*
X79035638Y-59698985D01*
X79150866Y-59925134D01*
X79300054Y-60130473D01*
X79300056Y-60130475D01*
X79431900Y-60262319D01*
X79465385Y-60323642D01*
X79460401Y-60393334D01*
X79431900Y-60437681D01*
X79300056Y-60569524D01*
X79300056Y-60569525D01*
X79300054Y-60569527D01*
X79235983Y-60657712D01*
X79150866Y-60774865D01*
X79035639Y-61001012D01*
X78957204Y-61242408D01*
X78917500Y-61493088D01*
X78917500Y-61746911D01*
X78957204Y-61997591D01*
X78957205Y-61997595D01*
X79035638Y-62238985D01*
X79150866Y-62465134D01*
X79300054Y-62670473D01*
X79300056Y-62670475D01*
X79431900Y-62802319D01*
X79465385Y-62863642D01*
X79460401Y-62933334D01*
X79431900Y-62977681D01*
X79300056Y-63109524D01*
X79300056Y-63109525D01*
X79300054Y-63109527D01*
X79241529Y-63190079D01*
X79150866Y-63314865D01*
X79035639Y-63541012D01*
X78957204Y-63782408D01*
X78917500Y-64033088D01*
X78917500Y-64286911D01*
X78957204Y-64537591D01*
X78957205Y-64537595D01*
X79035638Y-64778985D01*
X79150866Y-65005134D01*
X79300054Y-65210473D01*
X79300056Y-65210475D01*
X79431900Y-65342319D01*
X79465385Y-65403642D01*
X79460401Y-65473334D01*
X79431900Y-65517681D01*
X79300056Y-65649524D01*
X79300056Y-65649525D01*
X79300054Y-65649527D01*
X79235983Y-65737712D01*
X79150866Y-65854865D01*
X79035639Y-66081012D01*
X78957204Y-66322408D01*
X78917500Y-66573088D01*
X78917500Y-66826911D01*
X78957204Y-67077591D01*
X78957205Y-67077595D01*
X79035638Y-67318985D01*
X79150866Y-67545134D01*
X79300054Y-67750473D01*
X79300056Y-67750475D01*
X79370073Y-67820492D01*
X79403558Y-67881815D01*
X79398574Y-67951507D01*
X79356703Y-68007440D01*
X79322809Y-68032813D01*
X79236649Y-68147906D01*
X79236645Y-68147913D01*
X79186403Y-68282620D01*
X79186401Y-68282627D01*
X79180000Y-68342155D01*
X79180000Y-68990000D01*
X80085440Y-68990000D01*
X80054755Y-69043147D01*
X80020000Y-69172857D01*
X80020000Y-69307143D01*
X80054755Y-69436853D01*
X80085440Y-69490000D01*
X79180000Y-69490000D01*
X79180000Y-70137844D01*
X79186401Y-70197372D01*
X79186403Y-70197379D01*
X79236645Y-70332086D01*
X79236649Y-70332093D01*
X79322808Y-70447186D01*
X79356702Y-70472559D01*
X79398573Y-70528493D01*
X79403557Y-70598185D01*
X79370073Y-70659506D01*
X79300057Y-70729523D01*
X79300056Y-70729525D01*
X79300054Y-70729527D01*
X79235983Y-70817712D01*
X79150866Y-70934865D01*
X79035639Y-71161012D01*
X78957204Y-71402408D01*
X78917500Y-71653088D01*
X78917500Y-71906911D01*
X78957204Y-72157591D01*
X78957205Y-72157595D01*
X79035638Y-72398985D01*
X79150866Y-72625134D01*
X79300054Y-72830473D01*
X79300056Y-72830475D01*
X79431900Y-72962319D01*
X79465385Y-73023642D01*
X79460401Y-73093334D01*
X79431900Y-73137681D01*
X79300056Y-73269524D01*
X79300056Y-73269525D01*
X79300054Y-73269527D01*
X79235983Y-73357712D01*
X79150866Y-73474865D01*
X79035639Y-73701012D01*
X78957204Y-73942408D01*
X78917500Y-74193088D01*
X78917500Y-74446911D01*
X78957204Y-74697591D01*
X78957205Y-74697595D01*
X79019747Y-74890079D01*
X79035639Y-74938987D01*
X79115311Y-75095353D01*
X79150866Y-75165134D01*
X79300054Y-75370473D01*
X79300056Y-75370475D01*
X79431900Y-75502319D01*
X79465385Y-75563642D01*
X79460401Y-75633334D01*
X79431900Y-75677681D01*
X79300056Y-75809524D01*
X79300056Y-75809525D01*
X79300054Y-75809527D01*
X79250811Y-75877304D01*
X79150866Y-76014865D01*
X79035639Y-76241012D01*
X78957204Y-76482408D01*
X78917500Y-76733088D01*
X78917500Y-76986911D01*
X78957204Y-77237591D01*
X78957205Y-77237595D01*
X79035638Y-77478985D01*
X79150866Y-77705134D01*
X79300054Y-77910473D01*
X79300056Y-77910475D01*
X79431900Y-78042319D01*
X79465385Y-78103642D01*
X79460401Y-78173334D01*
X79431900Y-78217681D01*
X79300056Y-78349524D01*
X79300056Y-78349525D01*
X79300054Y-78349527D01*
X79235983Y-78437712D01*
X79150866Y-78554865D01*
X79035639Y-78781012D01*
X78957204Y-79022408D01*
X78917500Y-79273088D01*
X78917500Y-79526911D01*
X78957204Y-79777591D01*
X78957205Y-79777595D01*
X79035638Y-80018985D01*
X79150866Y-80245134D01*
X79300054Y-80450473D01*
X79300056Y-80450475D01*
X79370073Y-80520492D01*
X79403558Y-80581815D01*
X79398574Y-80651507D01*
X79356703Y-80707440D01*
X79322809Y-80732813D01*
X79236649Y-80847906D01*
X79236645Y-80847913D01*
X79186403Y-80982620D01*
X79186401Y-80982627D01*
X79180000Y-81042155D01*
X79180000Y-81690000D01*
X80085440Y-81690000D01*
X80054755Y-81743147D01*
X80020000Y-81872857D01*
X80020000Y-82007143D01*
X80054755Y-82136853D01*
X80085440Y-82190000D01*
X79180000Y-82190000D01*
X79180000Y-82837844D01*
X79186401Y-82897372D01*
X79186403Y-82897379D01*
X79236645Y-83032086D01*
X79236649Y-83032093D01*
X79322808Y-83147186D01*
X79356702Y-83172559D01*
X79398573Y-83228493D01*
X79403557Y-83298185D01*
X79370073Y-83359506D01*
X79300057Y-83429523D01*
X79300056Y-83429525D01*
X79300054Y-83429527D01*
X79235983Y-83517712D01*
X79150866Y-83634865D01*
X79035639Y-83861012D01*
X78957204Y-84102408D01*
X78917500Y-84353088D01*
X78917500Y-84606911D01*
X78944076Y-84774702D01*
X78957205Y-84857595D01*
X79035638Y-85098985D01*
X79150866Y-85325134D01*
X79300054Y-85530473D01*
X79300056Y-85530475D01*
X79431900Y-85662319D01*
X79465385Y-85723642D01*
X79460401Y-85793334D01*
X79431900Y-85837681D01*
X79300056Y-85969524D01*
X79300056Y-85969525D01*
X79300054Y-85969527D01*
X79283363Y-85992500D01*
X79150866Y-86174865D01*
X79035639Y-86401012D01*
X78957204Y-86642408D01*
X78917500Y-86893088D01*
X78917500Y-87146911D01*
X78957204Y-87397591D01*
X78957205Y-87397595D01*
X79035638Y-87638985D01*
X79150866Y-87865134D01*
X79300054Y-88070473D01*
X79479527Y-88249946D01*
X79684866Y-88399134D01*
X79911015Y-88514362D01*
X80152405Y-88592795D01*
X80246413Y-88607684D01*
X80403089Y-88632500D01*
X80403094Y-88632500D01*
X80656911Y-88632500D01*
X80796177Y-88610441D01*
X80907595Y-88592795D01*
X81148985Y-88514362D01*
X81375134Y-88399134D01*
X81580473Y-88249946D01*
X81759946Y-88070473D01*
X81909134Y-87865134D01*
X82024362Y-87638985D01*
X82102795Y-87397595D01*
X82120441Y-87286177D01*
X82142500Y-87146911D01*
X82142500Y-86893088D01*
X82108372Y-86677620D01*
X82102795Y-86642405D01*
X82024362Y-86401015D01*
X81909134Y-86174866D01*
X81759946Y-85969527D01*
X81628100Y-85837681D01*
X81594615Y-85776358D01*
X81599599Y-85706666D01*
X81628100Y-85662319D01*
X81680476Y-85609943D01*
X81759946Y-85530473D01*
X81909134Y-85325134D01*
X82024362Y-85098985D01*
X82102795Y-84857595D01*
X82120441Y-84746177D01*
X82142500Y-84606911D01*
X82142500Y-84353088D01*
X82102795Y-84102408D01*
X82102795Y-84102405D01*
X82024362Y-83861015D01*
X81909134Y-83634866D01*
X81759946Y-83429527D01*
X81689925Y-83359506D01*
X81656442Y-83298183D01*
X81661427Y-83228492D01*
X81703298Y-83172558D01*
X81737191Y-83147185D01*
X81823350Y-83032093D01*
X81823354Y-83032086D01*
X81873596Y-82897379D01*
X81873598Y-82897372D01*
X81879999Y-82837844D01*
X81880000Y-82837827D01*
X81880000Y-82190000D01*
X80974560Y-82190000D01*
X81005245Y-82136853D01*
X81040000Y-82007143D01*
X81040000Y-81872857D01*
X81005245Y-81743147D01*
X80974560Y-81690000D01*
X81880000Y-81690000D01*
X81880000Y-81042172D01*
X81879999Y-81042155D01*
X81873598Y-80982627D01*
X81873596Y-80982620D01*
X81823354Y-80847913D01*
X81823350Y-80847906D01*
X81737190Y-80732812D01*
X81737188Y-80732810D01*
X81703295Y-80707437D01*
X81661425Y-80651503D01*
X81656442Y-80581811D01*
X81689924Y-80520494D01*
X81759946Y-80450473D01*
X81909134Y-80245134D01*
X82024362Y-80018985D01*
X82102795Y-79777595D01*
X82120441Y-79666177D01*
X82142500Y-79526911D01*
X82142500Y-79273088D01*
X82102795Y-79022408D01*
X82102795Y-79022405D01*
X82024362Y-78781015D01*
X81909134Y-78554866D01*
X81759946Y-78349527D01*
X81628100Y-78217681D01*
X81594615Y-78156358D01*
X81599599Y-78086666D01*
X81628100Y-78042319D01*
X81683753Y-77986666D01*
X81759946Y-77910473D01*
X81909134Y-77705134D01*
X82024362Y-77478985D01*
X82102795Y-77237595D01*
X82120441Y-77126177D01*
X82142500Y-76986911D01*
X82142500Y-76733088D01*
X82102795Y-76482408D01*
X82102795Y-76482405D01*
X82024362Y-76241015D01*
X81909134Y-76014866D01*
X81759946Y-75809527D01*
X81628100Y-75677681D01*
X81594615Y-75616358D01*
X81599599Y-75546666D01*
X81628100Y-75502319D01*
X81683753Y-75446666D01*
X81759946Y-75370473D01*
X81909134Y-75165134D01*
X82024362Y-74938985D01*
X82102795Y-74697595D01*
X82137083Y-74481110D01*
X82142500Y-74446911D01*
X82142500Y-74193088D01*
X82102795Y-73942408D01*
X82102795Y-73942405D01*
X82024362Y-73701015D01*
X81909134Y-73474866D01*
X81759946Y-73269527D01*
X81628100Y-73137681D01*
X81594615Y-73076358D01*
X81599599Y-73006666D01*
X81628100Y-72962319D01*
X81683753Y-72906666D01*
X81759946Y-72830473D01*
X81909134Y-72625134D01*
X82024362Y-72398985D01*
X82102795Y-72157595D01*
X82120441Y-72046177D01*
X82142500Y-71906911D01*
X82142500Y-71653088D01*
X82102795Y-71402408D01*
X82102795Y-71402405D01*
X82024362Y-71161015D01*
X81909134Y-70934866D01*
X81759946Y-70729527D01*
X81689925Y-70659506D01*
X81656442Y-70598183D01*
X81661427Y-70528492D01*
X81703298Y-70472558D01*
X81737191Y-70447185D01*
X81823350Y-70332093D01*
X81823354Y-70332086D01*
X81873596Y-70197379D01*
X81873598Y-70197372D01*
X81879999Y-70137844D01*
X81880000Y-70137827D01*
X81880000Y-69490000D01*
X80974560Y-69490000D01*
X81005245Y-69436853D01*
X81040000Y-69307143D01*
X81040000Y-69172857D01*
X81005245Y-69043147D01*
X80974560Y-68990000D01*
X81880000Y-68990000D01*
X81880000Y-68342172D01*
X81879999Y-68342155D01*
X81873598Y-68282627D01*
X81873596Y-68282620D01*
X81823354Y-68147913D01*
X81823350Y-68147906D01*
X81737190Y-68032812D01*
X81737188Y-68032810D01*
X81703295Y-68007437D01*
X81661425Y-67951503D01*
X81656442Y-67881811D01*
X81689924Y-67820494D01*
X81759946Y-67750473D01*
X81909134Y-67545134D01*
X82024362Y-67318985D01*
X82102795Y-67077595D01*
X82120441Y-66966177D01*
X82142500Y-66826911D01*
X82142500Y-66573088D01*
X82102795Y-66322408D01*
X82102795Y-66322405D01*
X82024362Y-66081015D01*
X81909134Y-65854866D01*
X81759946Y-65649527D01*
X81628100Y-65517681D01*
X81594615Y-65456358D01*
X81599599Y-65386666D01*
X81628100Y-65342319D01*
X81683753Y-65286666D01*
X81759946Y-65210473D01*
X81909134Y-65005134D01*
X82024362Y-64778985D01*
X82102795Y-64537595D01*
X82120441Y-64426177D01*
X82142500Y-64286911D01*
X82142500Y-64033088D01*
X82107153Y-63809920D01*
X82102795Y-63782405D01*
X82024362Y-63541015D01*
X81909134Y-63314866D01*
X81759946Y-63109527D01*
X81628100Y-62977681D01*
X81594615Y-62916358D01*
X81599599Y-62846666D01*
X81628100Y-62802319D01*
X81683753Y-62746666D01*
X81759946Y-62670473D01*
X81909134Y-62465134D01*
X82024362Y-62238985D01*
X82102795Y-61997595D01*
X82120441Y-61886177D01*
X82142500Y-61746911D01*
X82142500Y-61493088D01*
X82102795Y-61242408D01*
X82102795Y-61242405D01*
X82024362Y-61001015D01*
X81909134Y-60774866D01*
X81759946Y-60569527D01*
X81628100Y-60437681D01*
X81594615Y-60376358D01*
X81599599Y-60306666D01*
X81628100Y-60262319D01*
X81683753Y-60206666D01*
X81759946Y-60130473D01*
X81909134Y-59925134D01*
X82024362Y-59698985D01*
X82102795Y-59457595D01*
X82120441Y-59346177D01*
X82142500Y-59206911D01*
X82142500Y-58953088D01*
X82102795Y-58702408D01*
X82102795Y-58702405D01*
X82024362Y-58461015D01*
X81909134Y-58234866D01*
X81909132Y-58234863D01*
X81909131Y-58234861D01*
X81846967Y-58149301D01*
X81823486Y-58083495D01*
X81839311Y-58015441D01*
X81859596Y-57988741D01*
X81982189Y-57866149D01*
X82075764Y-57714440D01*
X82131831Y-57545241D01*
X82142500Y-57440811D01*
X82142499Y-55639190D01*
X82131831Y-55534759D01*
X82075764Y-55365560D01*
X81982189Y-55213851D01*
X81859603Y-55091265D01*
X81826118Y-55029942D01*
X81831102Y-54960250D01*
X81846964Y-54930702D01*
X81909134Y-54845134D01*
X82024362Y-54618985D01*
X82102795Y-54377595D01*
X82120441Y-54266177D01*
X82142500Y-54126911D01*
X82142500Y-53873088D01*
X82102795Y-53622408D01*
X82102795Y-53622405D01*
X82024362Y-53381015D01*
X81909134Y-53154866D01*
X81759946Y-52949527D01*
X81628100Y-52817681D01*
X81594615Y-52756358D01*
X81599599Y-52686666D01*
X81628100Y-52642319D01*
X81683753Y-52586666D01*
X81759946Y-52510473D01*
X81909134Y-52305134D01*
X82024362Y-52078985D01*
X82102795Y-51837595D01*
X82125325Y-51695348D01*
X82142500Y-51586911D01*
X82142500Y-51333088D01*
X82113501Y-51150000D01*
X82102795Y-51082405D01*
X82024362Y-50841015D01*
X81909134Y-50614866D01*
X81759946Y-50409527D01*
X81628100Y-50277681D01*
X81594615Y-50216358D01*
X81599599Y-50146666D01*
X81628100Y-50102319D01*
X81683753Y-50046666D01*
X81759946Y-49970473D01*
X81909134Y-49765134D01*
X82024362Y-49538985D01*
X82102795Y-49297595D01*
X82120441Y-49186177D01*
X82142500Y-49046911D01*
X82142500Y-48793088D01*
X82102795Y-48542408D01*
X82102795Y-48542405D01*
X82024362Y-48301015D01*
X81909134Y-48074866D01*
X81759946Y-47869527D01*
X81628100Y-47737681D01*
X81594615Y-47676358D01*
X81599599Y-47606666D01*
X81628100Y-47562319D01*
X81683753Y-47506666D01*
X81759946Y-47430473D01*
X81909134Y-47225134D01*
X82024362Y-46998985D01*
X82102795Y-46757595D01*
X82120441Y-46646177D01*
X82142500Y-46506911D01*
X82142500Y-46253088D01*
X82108694Y-46039651D01*
X82102795Y-46002405D01*
X82024362Y-45761015D01*
X81909134Y-45534866D01*
X81759946Y-45329527D01*
X81689925Y-45259506D01*
X81656442Y-45198183D01*
X81661427Y-45128492D01*
X81703298Y-45072558D01*
X81737191Y-45047185D01*
X81823350Y-44932093D01*
X81823354Y-44932086D01*
X81873596Y-44797379D01*
X81873598Y-44797372D01*
X81879999Y-44737844D01*
X81880000Y-44737827D01*
X81880000Y-44090000D01*
X80974560Y-44090000D01*
X81005245Y-44036853D01*
X81040000Y-43907143D01*
X81040000Y-43772857D01*
X81005245Y-43643147D01*
X80974560Y-43590000D01*
X81880000Y-43590000D01*
X81880000Y-42942172D01*
X81879999Y-42942155D01*
X81873598Y-42882627D01*
X81873596Y-42882620D01*
X81823354Y-42747913D01*
X81823350Y-42747906D01*
X81737190Y-42632812D01*
X81737188Y-42632810D01*
X81703295Y-42607437D01*
X81661425Y-42551503D01*
X81656442Y-42481811D01*
X81689924Y-42420494D01*
X81759946Y-42350473D01*
X81909134Y-42145134D01*
X82024362Y-41918985D01*
X82102795Y-41677595D01*
X82120498Y-41565820D01*
X82142500Y-41426911D01*
X82142500Y-41173088D01*
X82116030Y-41005968D01*
X82102795Y-40922405D01*
X82024362Y-40681015D01*
X81909134Y-40454866D01*
X81759946Y-40249527D01*
X81628100Y-40117681D01*
X81594615Y-40056358D01*
X81599599Y-39986666D01*
X81628100Y-39942319D01*
X81759946Y-39810473D01*
X81909134Y-39605134D01*
X82024362Y-39378985D01*
X82102795Y-39137595D01*
X82121287Y-39020842D01*
X82142500Y-38886911D01*
X82142500Y-38633088D01*
X82102795Y-38382408D01*
X82102795Y-38382405D01*
X82024362Y-38141015D01*
X81909134Y-37914866D01*
X81907686Y-37912874D01*
X81896434Y-37897385D01*
X81872954Y-37831579D01*
X81888779Y-37763525D01*
X81938885Y-37714830D01*
X81996752Y-37700500D01*
X87375500Y-37700500D01*
X87442539Y-37720185D01*
X87488294Y-37772989D01*
X87499500Y-37824500D01*
X87499500Y-89375500D01*
X87479815Y-89442539D01*
X87427011Y-89488294D01*
X87375500Y-89499500D01*
X30624500Y-89499500D01*
X30557461Y-89479815D01*
X30511706Y-89427011D01*
X30500500Y-89375500D01*
X30500500Y-42839181D01*
X32137500Y-42839181D01*
X32137500Y-44640803D01*
X32137501Y-44640819D01*
X32148169Y-44745242D01*
X32204235Y-44914437D01*
X32204237Y-44914442D01*
X32236449Y-44966666D01*
X32296246Y-45063612D01*
X32297812Y-45066150D01*
X32420396Y-45188734D01*
X32453881Y-45250057D01*
X32448897Y-45319749D01*
X32433033Y-45349301D01*
X32370866Y-45434865D01*
X32255639Y-45661012D01*
X32177204Y-45902408D01*
X32137500Y-46153088D01*
X32137500Y-46406911D01*
X32170032Y-46612306D01*
X32177205Y-46657595D01*
X32255638Y-46898985D01*
X32370866Y-47125134D01*
X32520054Y-47330473D01*
X32520056Y-47330475D01*
X32651900Y-47462319D01*
X32685385Y-47523642D01*
X32680401Y-47593334D01*
X32651900Y-47637681D01*
X32520056Y-47769524D01*
X32520056Y-47769525D01*
X32520054Y-47769527D01*
X32455983Y-47857712D01*
X32370866Y-47974865D01*
X32255639Y-48201012D01*
X32177204Y-48442408D01*
X32137500Y-48693088D01*
X32137500Y-48946911D01*
X32153338Y-49046906D01*
X32177205Y-49197595D01*
X32255638Y-49438985D01*
X32370866Y-49665134D01*
X32520054Y-49870473D01*
X32520056Y-49870475D01*
X32651900Y-50002319D01*
X32685385Y-50063642D01*
X32680401Y-50133334D01*
X32651900Y-50177681D01*
X32520056Y-50309524D01*
X32520056Y-50309525D01*
X32520054Y-50309527D01*
X32457701Y-50395348D01*
X32370866Y-50514865D01*
X32255639Y-50741012D01*
X32177204Y-50982408D01*
X32137500Y-51233088D01*
X32137500Y-51486911D01*
X32177204Y-51737591D01*
X32177205Y-51737595D01*
X32255638Y-51978985D01*
X32370866Y-52205134D01*
X32520054Y-52410473D01*
X32520056Y-52410475D01*
X32651900Y-52542319D01*
X32685385Y-52603642D01*
X32680401Y-52673334D01*
X32651900Y-52717681D01*
X32520056Y-52849524D01*
X32520056Y-52849525D01*
X32520054Y-52849527D01*
X32455983Y-52937712D01*
X32370866Y-53054865D01*
X32255639Y-53281012D01*
X32177204Y-53522408D01*
X32137500Y-53773088D01*
X32137500Y-54026911D01*
X32153338Y-54126906D01*
X32177205Y-54277595D01*
X32255638Y-54518985D01*
X32370866Y-54745134D01*
X32520054Y-54950473D01*
X32520056Y-54950475D01*
X32651900Y-55082319D01*
X32685385Y-55143642D01*
X32680401Y-55213334D01*
X32651900Y-55257681D01*
X32520056Y-55389524D01*
X32520056Y-55389525D01*
X32520054Y-55389527D01*
X32477639Y-55447906D01*
X32370866Y-55594865D01*
X32255639Y-55821012D01*
X32177204Y-56062408D01*
X32137500Y-56313088D01*
X32137500Y-56566911D01*
X32175955Y-56809703D01*
X32177205Y-56817595D01*
X32255638Y-57058985D01*
X32370866Y-57285134D01*
X32520054Y-57490473D01*
X32520056Y-57490475D01*
X32651900Y-57622319D01*
X32685385Y-57683642D01*
X32680401Y-57753334D01*
X32651900Y-57797681D01*
X32520056Y-57929524D01*
X32520056Y-57929525D01*
X32520054Y-57929527D01*
X32474527Y-57992189D01*
X32370866Y-58134865D01*
X32255639Y-58361012D01*
X32177204Y-58602408D01*
X32137500Y-58853088D01*
X32137500Y-59106911D01*
X32153338Y-59206906D01*
X32177205Y-59357595D01*
X32255638Y-59598985D01*
X32370866Y-59825134D01*
X32520054Y-60030473D01*
X32520056Y-60030475D01*
X32651900Y-60162319D01*
X32685385Y-60223642D01*
X32680401Y-60293334D01*
X32651900Y-60337681D01*
X32520056Y-60469524D01*
X32520056Y-60469525D01*
X32520054Y-60469527D01*
X32455983Y-60557712D01*
X32370866Y-60674865D01*
X32255639Y-60901012D01*
X32177204Y-61142408D01*
X32137500Y-61393088D01*
X32137500Y-61646911D01*
X32177204Y-61897589D01*
X32177205Y-61897595D01*
X32255638Y-62138985D01*
X32370866Y-62365134D01*
X32520054Y-62570473D01*
X32520056Y-62570475D01*
X32651900Y-62702319D01*
X32685385Y-62763642D01*
X32680401Y-62833334D01*
X32651900Y-62877681D01*
X32520056Y-63009524D01*
X32520056Y-63009525D01*
X32520054Y-63009527D01*
X32455983Y-63097712D01*
X32370866Y-63214865D01*
X32255639Y-63441012D01*
X32177204Y-63682408D01*
X32137500Y-63933088D01*
X32137500Y-64186911D01*
X32177204Y-64437591D01*
X32177205Y-64437595D01*
X32255638Y-64678985D01*
X32370866Y-64905134D01*
X32520054Y-65110473D01*
X32520056Y-65110475D01*
X32651900Y-65242319D01*
X32685385Y-65303642D01*
X32680401Y-65373334D01*
X32651900Y-65417681D01*
X32520056Y-65549524D01*
X32520056Y-65549525D01*
X32520054Y-65549527D01*
X32455983Y-65637712D01*
X32370866Y-65754865D01*
X32255639Y-65981012D01*
X32177204Y-66222408D01*
X32137500Y-66473088D01*
X32137500Y-66726911D01*
X32153338Y-66826906D01*
X32177205Y-66977595D01*
X32255638Y-67218985D01*
X32370866Y-67445134D01*
X32520054Y-67650473D01*
X32520056Y-67650475D01*
X32651900Y-67782319D01*
X32685385Y-67843642D01*
X32680401Y-67913334D01*
X32651900Y-67957681D01*
X32520056Y-68089524D01*
X32520056Y-68089525D01*
X32520054Y-68089527D01*
X32477639Y-68147906D01*
X32370866Y-68294865D01*
X32255639Y-68521012D01*
X32177204Y-68762408D01*
X32137500Y-69013088D01*
X32137500Y-69266911D01*
X32172834Y-69490000D01*
X32177205Y-69517595D01*
X32255638Y-69758985D01*
X32370866Y-69985134D01*
X32520054Y-70190473D01*
X32520056Y-70190475D01*
X32651900Y-70322319D01*
X32685385Y-70383642D01*
X32680401Y-70453334D01*
X32651900Y-70497681D01*
X32520056Y-70629524D01*
X32520056Y-70629525D01*
X32520054Y-70629527D01*
X32455983Y-70717712D01*
X32370866Y-70834865D01*
X32255639Y-71061012D01*
X32177204Y-71302408D01*
X32137500Y-71553088D01*
X32137500Y-71806911D01*
X32153338Y-71906906D01*
X32177205Y-72057595D01*
X32255638Y-72298985D01*
X32370866Y-72525134D01*
X32520054Y-72730473D01*
X32520056Y-72730475D01*
X32651900Y-72862319D01*
X32685385Y-72923642D01*
X32680401Y-72993334D01*
X32651900Y-73037681D01*
X32520056Y-73169524D01*
X32520056Y-73169525D01*
X32520054Y-73169527D01*
X32455983Y-73257712D01*
X32370866Y-73374865D01*
X32255639Y-73601012D01*
X32177204Y-73842408D01*
X32137500Y-74093088D01*
X32137500Y-74346911D01*
X32177204Y-74597591D01*
X32177205Y-74597595D01*
X32255638Y-74838985D01*
X32370866Y-75065134D01*
X32520054Y-75270473D01*
X32520056Y-75270475D01*
X32651900Y-75402319D01*
X32685385Y-75463642D01*
X32680401Y-75533334D01*
X32651900Y-75577681D01*
X32520056Y-75709524D01*
X32520056Y-75709525D01*
X32520054Y-75709527D01*
X32455983Y-75797712D01*
X32370866Y-75914865D01*
X32255639Y-76141012D01*
X32177204Y-76382408D01*
X32137500Y-76633088D01*
X32137500Y-76886911D01*
X32153338Y-76986906D01*
X32177205Y-77137595D01*
X32255638Y-77378985D01*
X32370866Y-77605134D01*
X32520054Y-77810473D01*
X32520056Y-77810475D01*
X32651900Y-77942319D01*
X32685385Y-78003642D01*
X32680401Y-78073334D01*
X32651900Y-78117681D01*
X32520056Y-78249524D01*
X32520056Y-78249525D01*
X32520054Y-78249527D01*
X32455983Y-78337712D01*
X32370866Y-78454865D01*
X32255639Y-78681012D01*
X32177204Y-78922408D01*
X32137500Y-79173088D01*
X32137500Y-79426911D01*
X32153338Y-79526906D01*
X32177205Y-79677595D01*
X32255638Y-79918985D01*
X32370866Y-80145134D01*
X32520054Y-80350473D01*
X32520056Y-80350475D01*
X32651900Y-80482319D01*
X32685385Y-80543642D01*
X32680401Y-80613334D01*
X32651900Y-80657681D01*
X32520056Y-80789524D01*
X32520056Y-80789525D01*
X32520054Y-80789527D01*
X32477639Y-80847906D01*
X32370866Y-80994865D01*
X32255639Y-81221012D01*
X32177204Y-81462408D01*
X32137500Y-81713088D01*
X32137500Y-81966911D01*
X32172834Y-82190000D01*
X32177205Y-82217595D01*
X32255638Y-82458985D01*
X32370866Y-82685134D01*
X32520054Y-82890473D01*
X32520056Y-82890475D01*
X32651900Y-83022319D01*
X32685385Y-83083642D01*
X32680401Y-83153334D01*
X32651900Y-83197681D01*
X32520056Y-83329524D01*
X32520056Y-83329525D01*
X32520054Y-83329527D01*
X32455983Y-83417712D01*
X32370866Y-83534865D01*
X32255639Y-83761012D01*
X32177204Y-84002408D01*
X32137500Y-84253088D01*
X32137500Y-84506911D01*
X32161498Y-84658425D01*
X32177205Y-84757595D01*
X32209697Y-84857595D01*
X32255639Y-84998987D01*
X32366825Y-85217204D01*
X32370866Y-85225134D01*
X32520054Y-85430473D01*
X32699527Y-85609946D01*
X32904866Y-85759134D01*
X33131015Y-85874362D01*
X33372405Y-85952795D01*
X33466413Y-85967684D01*
X33623089Y-85992500D01*
X33623094Y-85992500D01*
X33876911Y-85992500D01*
X34016177Y-85970441D01*
X34127595Y-85952795D01*
X34368985Y-85874362D01*
X34595134Y-85759134D01*
X34800473Y-85609946D01*
X34932319Y-85478100D01*
X34993642Y-85444615D01*
X35063334Y-85449599D01*
X35107681Y-85478100D01*
X35239527Y-85609946D01*
X35444866Y-85759134D01*
X35671015Y-85874362D01*
X35912405Y-85952795D01*
X36006413Y-85967684D01*
X36163089Y-85992500D01*
X36163094Y-85992500D01*
X36416911Y-85992500D01*
X36556177Y-85970441D01*
X36667595Y-85952795D01*
X36908985Y-85874362D01*
X37135134Y-85759134D01*
X37340473Y-85609946D01*
X37455071Y-85495348D01*
X49137500Y-85495348D01*
X49137500Y-85704651D01*
X49178329Y-85909912D01*
X49178331Y-85909920D01*
X49258423Y-86103280D01*
X49374703Y-86277306D01*
X49522693Y-86425296D01*
X49696719Y-86541576D01*
X49793399Y-86581622D01*
X49890080Y-86621669D01*
X50095348Y-86662499D01*
X50095352Y-86662500D01*
X50095353Y-86662500D01*
X50304648Y-86662500D01*
X50304649Y-86662499D01*
X50509920Y-86621669D01*
X50703282Y-86541575D01*
X50877304Y-86425298D01*
X51025298Y-86277304D01*
X51141575Y-86103282D01*
X51221669Y-85909920D01*
X51262500Y-85704647D01*
X51262500Y-85495353D01*
X51221669Y-85290080D01*
X51142515Y-85098987D01*
X51141576Y-85096719D01*
X51025296Y-84922693D01*
X50877306Y-84774703D01*
X50703280Y-84658423D01*
X50509920Y-84578331D01*
X50509912Y-84578329D01*
X50304651Y-84537500D01*
X50304647Y-84537500D01*
X50095353Y-84537500D01*
X50095348Y-84537500D01*
X49890087Y-84578329D01*
X49890079Y-84578331D01*
X49696719Y-84658423D01*
X49522693Y-84774703D01*
X49374703Y-84922693D01*
X49258423Y-85096719D01*
X49178331Y-85290079D01*
X49178329Y-85290087D01*
X49137500Y-85495348D01*
X37455071Y-85495348D01*
X37519946Y-85430473D01*
X37669134Y-85225134D01*
X37784362Y-84998985D01*
X37862795Y-84757595D01*
X37886662Y-84606906D01*
X37902500Y-84506911D01*
X37902500Y-84253088D01*
X37862795Y-84002408D01*
X37862795Y-84002405D01*
X37784362Y-83761015D01*
X37669134Y-83534866D01*
X37519946Y-83329527D01*
X37388100Y-83197681D01*
X37354615Y-83136358D01*
X37359599Y-83066666D01*
X37388100Y-83022319D01*
X37424781Y-82985638D01*
X37519946Y-82890473D01*
X37669134Y-82685134D01*
X37784362Y-82458985D01*
X37862795Y-82217595D01*
X37880441Y-82106177D01*
X37902500Y-81966911D01*
X37902500Y-81713088D01*
X37876030Y-81545968D01*
X37862795Y-81462405D01*
X37784362Y-81221015D01*
X37674475Y-81005348D01*
X50437500Y-81005348D01*
X50437500Y-81214651D01*
X50478329Y-81419912D01*
X50478331Y-81419920D01*
X50558423Y-81613280D01*
X50674703Y-81787306D01*
X50822693Y-81935296D01*
X50996719Y-82051576D01*
X51093399Y-82091622D01*
X51190080Y-82131669D01*
X51395348Y-82172499D01*
X51395352Y-82172500D01*
X51395353Y-82172500D01*
X51604648Y-82172500D01*
X51604649Y-82172499D01*
X51809920Y-82131669D01*
X52003282Y-82051575D01*
X52177304Y-81935298D01*
X52229521Y-81883081D01*
X52290844Y-81849595D01*
X52360536Y-81854579D01*
X52386093Y-81867659D01*
X52496716Y-81941574D01*
X52496717Y-81941574D01*
X52496718Y-81941575D01*
X52690080Y-82021669D01*
X52840429Y-82051575D01*
X52895348Y-82062499D01*
X52895352Y-82062500D01*
X52895353Y-82062500D01*
X53104648Y-82062500D01*
X53104649Y-82062499D01*
X53309920Y-82021669D01*
X53503282Y-81941575D01*
X53677304Y-81825298D01*
X53825298Y-81677304D01*
X53941575Y-81503282D01*
X54021669Y-81309920D01*
X54062500Y-81104647D01*
X54062500Y-80895353D01*
X54021669Y-80690080D01*
X53951422Y-80520490D01*
X53941576Y-80496719D01*
X53825296Y-80322693D01*
X53677306Y-80174703D01*
X53503280Y-80058423D01*
X53309920Y-79978331D01*
X53309912Y-79978329D01*
X53104651Y-79937500D01*
X53104647Y-79937500D01*
X52895353Y-79937500D01*
X52895348Y-79937500D01*
X52690087Y-79978329D01*
X52690079Y-79978331D01*
X52496719Y-80058423D01*
X52322693Y-80174703D01*
X52270476Y-80226920D01*
X52209153Y-80260404D01*
X52139461Y-80255419D01*
X52113906Y-80242341D01*
X52003280Y-80168423D01*
X51809920Y-80088331D01*
X51809912Y-80088329D01*
X51604651Y-80047500D01*
X51604647Y-80047500D01*
X51395353Y-80047500D01*
X51395348Y-80047500D01*
X51190087Y-80088329D01*
X51190079Y-80088331D01*
X50996719Y-80168423D01*
X50822693Y-80284703D01*
X50674703Y-80432693D01*
X50558423Y-80606719D01*
X50478331Y-80800079D01*
X50478329Y-80800087D01*
X50437500Y-81005348D01*
X37674475Y-81005348D01*
X37669134Y-80994866D01*
X37519946Y-80789527D01*
X37388100Y-80657681D01*
X37354615Y-80596358D01*
X37359599Y-80526666D01*
X37388100Y-80482319D01*
X37437726Y-80432693D01*
X37519946Y-80350473D01*
X37669134Y-80145134D01*
X37784362Y-79918985D01*
X37862795Y-79677595D01*
X37886662Y-79526906D01*
X37902500Y-79426911D01*
X37902500Y-79173088D01*
X37862795Y-78922408D01*
X37862795Y-78922405D01*
X37784362Y-78681015D01*
X37669134Y-78454866D01*
X37519946Y-78249527D01*
X37388100Y-78117681D01*
X37354615Y-78056358D01*
X37359599Y-77986666D01*
X37388100Y-77942319D01*
X37419946Y-77910473D01*
X37519946Y-77810473D01*
X37669134Y-77605134D01*
X37784362Y-77378985D01*
X37862795Y-77137595D01*
X37886662Y-76986906D01*
X37902500Y-76886911D01*
X37902500Y-76633088D01*
X37862795Y-76382408D01*
X37862795Y-76382405D01*
X37784362Y-76141015D01*
X37669134Y-75914866D01*
X37519946Y-75709527D01*
X37388100Y-75577681D01*
X37354615Y-75516358D01*
X37359599Y-75446666D01*
X37388100Y-75402319D01*
X37419946Y-75370473D01*
X37519946Y-75270473D01*
X37669134Y-75065134D01*
X37784362Y-74838985D01*
X37862795Y-74597595D01*
X37893571Y-74403282D01*
X37902500Y-74346911D01*
X37902500Y-74093088D01*
X37862795Y-73842408D01*
X37862795Y-73842405D01*
X37847505Y-73795348D01*
X49112500Y-73795348D01*
X49112500Y-74004651D01*
X49149984Y-74193094D01*
X49153331Y-74209920D01*
X49233425Y-74403282D01*
X49252830Y-74432324D01*
X49285427Y-74481110D01*
X49306304Y-74547788D01*
X49287819Y-74615168D01*
X49285427Y-74618890D01*
X49233424Y-74696719D01*
X49153331Y-74890079D01*
X49153329Y-74890087D01*
X49112500Y-75095348D01*
X49112500Y-75304651D01*
X49153329Y-75509912D01*
X49153331Y-75509920D01*
X49233423Y-75703280D01*
X49349703Y-75877306D01*
X49497693Y-76025296D01*
X49671719Y-76141576D01*
X49768399Y-76181622D01*
X49865080Y-76221669D01*
X50070348Y-76262499D01*
X50070352Y-76262500D01*
X50070353Y-76262500D01*
X50279648Y-76262500D01*
X50279649Y-76262499D01*
X50484920Y-76221669D01*
X50678282Y-76141575D01*
X50852304Y-76025298D01*
X51000298Y-75877304D01*
X51116575Y-75703282D01*
X51196669Y-75509920D01*
X51237500Y-75304647D01*
X51237500Y-75095353D01*
X51196669Y-74890080D01*
X51116575Y-74696718D01*
X51116573Y-74696715D01*
X51116570Y-74696709D01*
X51064573Y-74618892D01*
X51043694Y-74552215D01*
X51062178Y-74484834D01*
X51064573Y-74481108D01*
X51116570Y-74403290D01*
X51116571Y-74403287D01*
X51116575Y-74403282D01*
X51196669Y-74209920D01*
X51237500Y-74004647D01*
X51237500Y-73795353D01*
X51196669Y-73590080D01*
X51148945Y-73474865D01*
X51116576Y-73396719D01*
X51000296Y-73222693D01*
X50852306Y-73074703D01*
X50678280Y-72958423D01*
X50484920Y-72878331D01*
X50484912Y-72878329D01*
X50279651Y-72837500D01*
X50279647Y-72837500D01*
X50070353Y-72837500D01*
X50070348Y-72837500D01*
X49865087Y-72878329D01*
X49865079Y-72878331D01*
X49671719Y-72958423D01*
X49497693Y-73074703D01*
X49349703Y-73222693D01*
X49233423Y-73396719D01*
X49153331Y-73590079D01*
X49153329Y-73590087D01*
X49112500Y-73795348D01*
X37847505Y-73795348D01*
X37784362Y-73601015D01*
X37669134Y-73374866D01*
X37519946Y-73169527D01*
X37388100Y-73037681D01*
X37354615Y-72976358D01*
X37359599Y-72906666D01*
X37388100Y-72862319D01*
X37419946Y-72830473D01*
X37519946Y-72730473D01*
X37669134Y-72525134D01*
X37784362Y-72298985D01*
X37862795Y-72057595D01*
X37886662Y-71906906D01*
X37902500Y-71806911D01*
X37902500Y-71553088D01*
X37862795Y-71302408D01*
X37862795Y-71302405D01*
X37784362Y-71061015D01*
X37669134Y-70834866D01*
X37519946Y-70629527D01*
X37388100Y-70497681D01*
X37354615Y-70436358D01*
X37359599Y-70366666D01*
X37388100Y-70322319D01*
X37438751Y-70271668D01*
X37519946Y-70190473D01*
X37669134Y-69985134D01*
X37784362Y-69758985D01*
X37862795Y-69517595D01*
X37888603Y-69354648D01*
X37902500Y-69266911D01*
X37902500Y-69162848D01*
X50437500Y-69162848D01*
X50437500Y-69372151D01*
X50478329Y-69577412D01*
X50478331Y-69577420D01*
X50558423Y-69770780D01*
X50674703Y-69944806D01*
X50822693Y-70092796D01*
X50996719Y-70209076D01*
X51093399Y-70249122D01*
X51190080Y-70289169D01*
X51356738Y-70322319D01*
X51395348Y-70329999D01*
X51395352Y-70330000D01*
X51395353Y-70330000D01*
X51604648Y-70330000D01*
X51604649Y-70329999D01*
X51809920Y-70289169D01*
X52003282Y-70209075D01*
X52069206Y-70165026D01*
X52135881Y-70144149D01*
X52203261Y-70162633D01*
X52206980Y-70165023D01*
X52246718Y-70191575D01*
X52440080Y-70271669D01*
X52645348Y-70312499D01*
X52645352Y-70312500D01*
X52645353Y-70312500D01*
X52854648Y-70312500D01*
X52854649Y-70312499D01*
X53059920Y-70271669D01*
X53253282Y-70191575D01*
X53427304Y-70075298D01*
X53575298Y-69927304D01*
X53691575Y-69753282D01*
X53692935Y-69750000D01*
X53735142Y-69648102D01*
X53771669Y-69559920D01*
X53812500Y-69354647D01*
X53812500Y-69145353D01*
X53771669Y-68940080D01*
X53726858Y-68831898D01*
X53691576Y-68746719D01*
X53575296Y-68572693D01*
X53427306Y-68424703D01*
X53253280Y-68308423D01*
X53059920Y-68228331D01*
X53059912Y-68228329D01*
X52854651Y-68187500D01*
X52854647Y-68187500D01*
X52645353Y-68187500D01*
X52645348Y-68187500D01*
X52440087Y-68228329D01*
X52440079Y-68228331D01*
X52246717Y-68308425D01*
X52180793Y-68352473D01*
X52114116Y-68373350D01*
X52046736Y-68354865D01*
X52043014Y-68352473D01*
X52003282Y-68325925D01*
X52003277Y-68325923D01*
X51809920Y-68245831D01*
X51809912Y-68245829D01*
X51604651Y-68205000D01*
X51604647Y-68205000D01*
X51395353Y-68205000D01*
X51395348Y-68205000D01*
X51190087Y-68245829D01*
X51190079Y-68245831D01*
X50996719Y-68325923D01*
X50822693Y-68442203D01*
X50674703Y-68590193D01*
X50558423Y-68764219D01*
X50478331Y-68957579D01*
X50478329Y-68957587D01*
X50437500Y-69162848D01*
X37902500Y-69162848D01*
X37902500Y-69013088D01*
X37876030Y-68845968D01*
X37862795Y-68762405D01*
X37784362Y-68521015D01*
X37669134Y-68294866D01*
X37519946Y-68089527D01*
X37388100Y-67957681D01*
X37354615Y-67896358D01*
X37359599Y-67826666D01*
X37388100Y-67782319D01*
X37419948Y-67750471D01*
X37519946Y-67650473D01*
X37669134Y-67445134D01*
X37784362Y-67218985D01*
X37862795Y-66977595D01*
X37886662Y-66826906D01*
X37902500Y-66726911D01*
X37902500Y-66473088D01*
X37862795Y-66222408D01*
X37862795Y-66222405D01*
X37784362Y-65981015D01*
X37669134Y-65754866D01*
X37519946Y-65549527D01*
X37388100Y-65417681D01*
X37354615Y-65356358D01*
X37359599Y-65286666D01*
X37388100Y-65242319D01*
X37419946Y-65210473D01*
X37519946Y-65110473D01*
X37669134Y-64905134D01*
X37784362Y-64678985D01*
X37862795Y-64437595D01*
X37886662Y-64286906D01*
X37902500Y-64186911D01*
X37902500Y-63933088D01*
X37862795Y-63682408D01*
X37862795Y-63682405D01*
X37784362Y-63441015D01*
X37669134Y-63214866D01*
X37519946Y-63009527D01*
X37388100Y-62877681D01*
X37354615Y-62816358D01*
X37359599Y-62746666D01*
X37388100Y-62702319D01*
X37419946Y-62670473D01*
X37519946Y-62570473D01*
X37669134Y-62365134D01*
X37784362Y-62138985D01*
X37798541Y-62095348D01*
X49112500Y-62095348D01*
X49112500Y-62304651D01*
X49153329Y-62509912D01*
X49153331Y-62509920D01*
X49178413Y-62570474D01*
X49233425Y-62703282D01*
X49252830Y-62732324D01*
X49285427Y-62781110D01*
X49306304Y-62847788D01*
X49287819Y-62915168D01*
X49285427Y-62918890D01*
X49233424Y-62996719D01*
X49153331Y-63190079D01*
X49153329Y-63190087D01*
X49112500Y-63395348D01*
X49112500Y-63604651D01*
X49153329Y-63809912D01*
X49153331Y-63809920D01*
X49233423Y-64003280D01*
X49349703Y-64177306D01*
X49497693Y-64325296D01*
X49671719Y-64441576D01*
X49768399Y-64481622D01*
X49865080Y-64521669D01*
X50070348Y-64562499D01*
X50070352Y-64562500D01*
X50070353Y-64562500D01*
X50279648Y-64562500D01*
X50279649Y-64562499D01*
X50484920Y-64521669D01*
X50678282Y-64441575D01*
X50852304Y-64325298D01*
X51000298Y-64177304D01*
X51116575Y-64003282D01*
X51196669Y-63809920D01*
X51237500Y-63604647D01*
X51237500Y-63395353D01*
X51196669Y-63190080D01*
X51116575Y-62996718D01*
X51116573Y-62996715D01*
X51116570Y-62996709D01*
X51064573Y-62918892D01*
X51043694Y-62852215D01*
X51062178Y-62784834D01*
X51064573Y-62781108D01*
X51116570Y-62703290D01*
X51116571Y-62703287D01*
X51116575Y-62703282D01*
X51196669Y-62509920D01*
X51237500Y-62304647D01*
X51237500Y-62095353D01*
X51196669Y-61890080D01*
X51137364Y-61746906D01*
X51116576Y-61696719D01*
X51000296Y-61522693D01*
X50852306Y-61374703D01*
X50678280Y-61258423D01*
X50484920Y-61178331D01*
X50484912Y-61178329D01*
X50279651Y-61137500D01*
X50279647Y-61137500D01*
X50070353Y-61137500D01*
X50070348Y-61137500D01*
X49865087Y-61178329D01*
X49865079Y-61178331D01*
X49671719Y-61258423D01*
X49497693Y-61374703D01*
X49349703Y-61522693D01*
X49233423Y-61696719D01*
X49153331Y-61890079D01*
X49153329Y-61890087D01*
X49112500Y-62095348D01*
X37798541Y-62095348D01*
X37862795Y-61897595D01*
X37886662Y-61746906D01*
X37902500Y-61646911D01*
X37902500Y-61393088D01*
X37868485Y-61178331D01*
X37862795Y-61142405D01*
X37784362Y-60901015D01*
X37669134Y-60674866D01*
X37519946Y-60469527D01*
X37388100Y-60337681D01*
X37354615Y-60276358D01*
X37359599Y-60206666D01*
X37388100Y-60162319D01*
X37419946Y-60130473D01*
X37519946Y-60030473D01*
X37669134Y-59825134D01*
X37784362Y-59598985D01*
X37862795Y-59357595D01*
X37886662Y-59206906D01*
X37902500Y-59106911D01*
X37902500Y-58853088D01*
X37871390Y-58656670D01*
X37862795Y-58602405D01*
X37784362Y-58361015D01*
X37669134Y-58134866D01*
X37519946Y-57929527D01*
X37388100Y-57797681D01*
X37354615Y-57736358D01*
X37359599Y-57666666D01*
X37388100Y-57622319D01*
X37424781Y-57585638D01*
X37480071Y-57530348D01*
X50437500Y-57530348D01*
X50437500Y-57739651D01*
X50478329Y-57944912D01*
X50478331Y-57944920D01*
X50558423Y-58138280D01*
X50674703Y-58312306D01*
X50822693Y-58460296D01*
X50996719Y-58576576D01*
X51093399Y-58616622D01*
X51190080Y-58656669D01*
X51365566Y-58691575D01*
X51395348Y-58697499D01*
X51395352Y-58697500D01*
X51395353Y-58697500D01*
X51604648Y-58697500D01*
X51604649Y-58697499D01*
X51809920Y-58656669D01*
X51986079Y-58583700D01*
X52055546Y-58576232D01*
X52102420Y-58595159D01*
X52246719Y-58691576D01*
X52343399Y-58731622D01*
X52440080Y-58771669D01*
X52645348Y-58812499D01*
X52645352Y-58812500D01*
X52645353Y-58812500D01*
X52854648Y-58812500D01*
X52854649Y-58812499D01*
X53059920Y-58771669D01*
X53238978Y-58697500D01*
X53253280Y-58691576D01*
X53253280Y-58691575D01*
X53253282Y-58691575D01*
X53427304Y-58575298D01*
X53575298Y-58427304D01*
X53691575Y-58253282D01*
X53771669Y-58059920D01*
X53812500Y-57854647D01*
X53812500Y-57645353D01*
X53771669Y-57440080D01*
X53707488Y-57285134D01*
X53691576Y-57246719D01*
X53575296Y-57072693D01*
X53427306Y-56924703D01*
X53253280Y-56808423D01*
X53059920Y-56728331D01*
X53059912Y-56728329D01*
X52854651Y-56687500D01*
X52854647Y-56687500D01*
X52645353Y-56687500D01*
X52645348Y-56687500D01*
X52440087Y-56728329D01*
X52440079Y-56728331D01*
X52263922Y-56801298D01*
X52194452Y-56808767D01*
X52147579Y-56789840D01*
X52055520Y-56728329D01*
X52003282Y-56693425D01*
X52003277Y-56693423D01*
X51809920Y-56613331D01*
X51809912Y-56613329D01*
X51604651Y-56572500D01*
X51604647Y-56572500D01*
X51395353Y-56572500D01*
X51395348Y-56572500D01*
X51190087Y-56613329D01*
X51190079Y-56613331D01*
X50996719Y-56693423D01*
X50822693Y-56809703D01*
X50674703Y-56957693D01*
X50558423Y-57131719D01*
X50478331Y-57325079D01*
X50478329Y-57325087D01*
X50437500Y-57530348D01*
X37480071Y-57530348D01*
X37519946Y-57490473D01*
X37669134Y-57285134D01*
X37784362Y-57058985D01*
X37862795Y-56817595D01*
X37880441Y-56706177D01*
X37902500Y-56566911D01*
X37902500Y-56313088D01*
X37876030Y-56145968D01*
X37862795Y-56062405D01*
X37784362Y-55821015D01*
X37669134Y-55594866D01*
X37519946Y-55389527D01*
X37388100Y-55257681D01*
X37354615Y-55196358D01*
X37359599Y-55126666D01*
X37388100Y-55082319D01*
X37440477Y-55029942D01*
X37519946Y-54950473D01*
X37669134Y-54745134D01*
X37784362Y-54518985D01*
X37862795Y-54277595D01*
X37886662Y-54126906D01*
X37902500Y-54026911D01*
X37902500Y-53773088D01*
X37862795Y-53522408D01*
X37862795Y-53522405D01*
X37784362Y-53281015D01*
X37669134Y-53054866D01*
X37519946Y-52849527D01*
X37388100Y-52717681D01*
X37354615Y-52656358D01*
X37359599Y-52586666D01*
X37388100Y-52542319D01*
X37453115Y-52477304D01*
X37519946Y-52410473D01*
X37669134Y-52205134D01*
X37784362Y-51978985D01*
X37862795Y-51737595D01*
X37886662Y-51586906D01*
X37902500Y-51486911D01*
X37902500Y-51233088D01*
X37876030Y-51065968D01*
X37862795Y-50982405D01*
X37784362Y-50741015D01*
X37669134Y-50514866D01*
X37582299Y-50395348D01*
X49112500Y-50395348D01*
X49112500Y-50604651D01*
X49153329Y-50809912D01*
X49153331Y-50809920D01*
X49224778Y-50982408D01*
X49233425Y-51003282D01*
X49252830Y-51032324D01*
X49285427Y-51081110D01*
X49306304Y-51147788D01*
X49287819Y-51215168D01*
X49285427Y-51218890D01*
X49233424Y-51296719D01*
X49153331Y-51490079D01*
X49153329Y-51490087D01*
X49112500Y-51695348D01*
X49112500Y-51904651D01*
X49153329Y-52109912D01*
X49153331Y-52109920D01*
X49233423Y-52303280D01*
X49349703Y-52477306D01*
X49497693Y-52625296D01*
X49671719Y-52741576D01*
X49748390Y-52773334D01*
X49865080Y-52821669D01*
X50005118Y-52849524D01*
X50070348Y-52862499D01*
X50070352Y-52862500D01*
X50070353Y-52862500D01*
X50279648Y-52862500D01*
X50279649Y-52862499D01*
X50484920Y-52821669D01*
X50678282Y-52741575D01*
X50852304Y-52625298D01*
X51000298Y-52477304D01*
X51116575Y-52303282D01*
X51196669Y-52109920D01*
X51237500Y-51904647D01*
X51237500Y-51695353D01*
X51196669Y-51490080D01*
X51116575Y-51296718D01*
X51116573Y-51296715D01*
X51116570Y-51296709D01*
X51064573Y-51218892D01*
X51043694Y-51152215D01*
X51062178Y-51084834D01*
X51064573Y-51081108D01*
X51116570Y-51003290D01*
X51116571Y-51003287D01*
X51116575Y-51003282D01*
X51196669Y-50809920D01*
X51237500Y-50604647D01*
X51237500Y-50395353D01*
X51196669Y-50190080D01*
X51138623Y-50049946D01*
X51116576Y-49996719D01*
X51000296Y-49822693D01*
X50852306Y-49674703D01*
X50678280Y-49558423D01*
X50484920Y-49478331D01*
X50484912Y-49478329D01*
X50279651Y-49437500D01*
X50279647Y-49437500D01*
X50070353Y-49437500D01*
X50070348Y-49437500D01*
X49865087Y-49478329D01*
X49865079Y-49478331D01*
X49671719Y-49558423D01*
X49497693Y-49674703D01*
X49349703Y-49822693D01*
X49233423Y-49996719D01*
X49153331Y-50190079D01*
X49153329Y-50190087D01*
X49112500Y-50395348D01*
X37582299Y-50395348D01*
X37519946Y-50309527D01*
X37388100Y-50177681D01*
X37354615Y-50116358D01*
X37359599Y-50046666D01*
X37388100Y-50002319D01*
X37419946Y-49970473D01*
X37519946Y-49870473D01*
X37669134Y-49665134D01*
X37784362Y-49438985D01*
X37862795Y-49197595D01*
X37886662Y-49046906D01*
X37902500Y-48946911D01*
X37902500Y-48693088D01*
X37862795Y-48442408D01*
X37862795Y-48442405D01*
X37784362Y-48201015D01*
X37669134Y-47974866D01*
X37519946Y-47769527D01*
X37388100Y-47637681D01*
X37354615Y-47576358D01*
X37359599Y-47506666D01*
X37388100Y-47462319D01*
X37419946Y-47430473D01*
X37519946Y-47330473D01*
X37669134Y-47125134D01*
X37784362Y-46898985D01*
X37862795Y-46657595D01*
X37897531Y-46438280D01*
X37902500Y-46406911D01*
X37902500Y-46153088D01*
X37878633Y-46002405D01*
X37862795Y-45902405D01*
X37839382Y-45830348D01*
X50437500Y-45830348D01*
X50437500Y-46039651D01*
X50478329Y-46244912D01*
X50478331Y-46244920D01*
X50558423Y-46438280D01*
X50674703Y-46612306D01*
X50822693Y-46760296D01*
X50996719Y-46876576D01*
X51093399Y-46916622D01*
X51190080Y-46956669D01*
X51395348Y-46997499D01*
X51395352Y-46997500D01*
X51395353Y-46997500D01*
X51604648Y-46997500D01*
X51604649Y-46997499D01*
X51809920Y-46956669D01*
X52003282Y-46876575D01*
X52007466Y-46873778D01*
X52074139Y-46852899D01*
X52141520Y-46871380D01*
X52145236Y-46873767D01*
X52149441Y-46876577D01*
X52246719Y-46941576D01*
X52343399Y-46981622D01*
X52440080Y-47021669D01*
X52645348Y-47062499D01*
X52645352Y-47062500D01*
X52645353Y-47062500D01*
X52854648Y-47062500D01*
X52854649Y-47062499D01*
X53059920Y-47021669D01*
X53253282Y-46941575D01*
X53427304Y-46825298D01*
X53575298Y-46677304D01*
X53691575Y-46503282D01*
X53771669Y-46309920D01*
X53779160Y-46272256D01*
X53788754Y-46224031D01*
X53812499Y-46104651D01*
X53812500Y-46104648D01*
X53812500Y-45895352D01*
X53812499Y-45895348D01*
X53799570Y-45830348D01*
X53771669Y-45690080D01*
X53707377Y-45534866D01*
X53691576Y-45496719D01*
X53575296Y-45322693D01*
X53427306Y-45174703D01*
X53253280Y-45058423D01*
X53059920Y-44978331D01*
X53059912Y-44978329D01*
X52854651Y-44937500D01*
X52854647Y-44937500D01*
X52645353Y-44937500D01*
X52645348Y-44937500D01*
X52440087Y-44978329D01*
X52440079Y-44978331D01*
X52246719Y-45058423D01*
X52242526Y-45061226D01*
X52175847Y-45082100D01*
X52108468Y-45063612D01*
X52104750Y-45061223D01*
X52003282Y-44993425D01*
X52003277Y-44993423D01*
X51809920Y-44913331D01*
X51809912Y-44913329D01*
X51604651Y-44872500D01*
X51604647Y-44872500D01*
X51395353Y-44872500D01*
X51395348Y-44872500D01*
X51190087Y-44913329D01*
X51190079Y-44913331D01*
X50996719Y-44993423D01*
X50822693Y-45109703D01*
X50674703Y-45257693D01*
X50558423Y-45431719D01*
X50478331Y-45625079D01*
X50478329Y-45625087D01*
X50437500Y-45830348D01*
X37839382Y-45830348D01*
X37784362Y-45661015D01*
X37669134Y-45434866D01*
X37519946Y-45229527D01*
X37388100Y-45097681D01*
X37354615Y-45036358D01*
X37359599Y-44966666D01*
X37388100Y-44922319D01*
X37437919Y-44872500D01*
X37519946Y-44790473D01*
X37669134Y-44585134D01*
X37784362Y-44358985D01*
X37862795Y-44117595D01*
X37880441Y-44006177D01*
X37902500Y-43866911D01*
X37902500Y-43613088D01*
X37873897Y-43432500D01*
X37862795Y-43362405D01*
X37784362Y-43121015D01*
X37669134Y-42894866D01*
X37519946Y-42689527D01*
X37340473Y-42510054D01*
X37135134Y-42360866D01*
X36908985Y-42245638D01*
X36667595Y-42167205D01*
X36667593Y-42167204D01*
X36667591Y-42167204D01*
X36416911Y-42127500D01*
X36416906Y-42127500D01*
X36163094Y-42127500D01*
X36163089Y-42127500D01*
X35912408Y-42167204D01*
X35671012Y-42245639D01*
X35444865Y-42360866D01*
X35386332Y-42403393D01*
X35371939Y-42413851D01*
X35359301Y-42423033D01*
X35293494Y-42446513D01*
X35225440Y-42430688D01*
X35198734Y-42410396D01*
X35076150Y-42287812D01*
X35076149Y-42287811D01*
X34924440Y-42194236D01*
X34842863Y-42167204D01*
X34755242Y-42138169D01*
X34755235Y-42138168D01*
X34650812Y-42127500D01*
X32849196Y-42127500D01*
X32849180Y-42127501D01*
X32744757Y-42138169D01*
X32575562Y-42194235D01*
X32575557Y-42194237D01*
X32423849Y-42287812D01*
X32297812Y-42413849D01*
X32204237Y-42565557D01*
X32204235Y-42565562D01*
X32148169Y-42734757D01*
X32148168Y-42734764D01*
X32137500Y-42839181D01*
X30500500Y-42839181D01*
X30500500Y-39995348D01*
X49137500Y-39995348D01*
X49137500Y-40204651D01*
X49178329Y-40409912D01*
X49178331Y-40409920D01*
X49258423Y-40603280D01*
X49374703Y-40777306D01*
X49522693Y-40925296D01*
X49696719Y-41041576D01*
X49793399Y-41081622D01*
X49890080Y-41121669D01*
X50095348Y-41162499D01*
X50095352Y-41162500D01*
X50095353Y-41162500D01*
X50304648Y-41162500D01*
X50304649Y-41162499D01*
X50509920Y-41121669D01*
X50703282Y-41041575D01*
X50877304Y-40925298D01*
X51025298Y-40777304D01*
X51141575Y-40603282D01*
X51221669Y-40409920D01*
X51262500Y-40204647D01*
X51262500Y-39995353D01*
X51221669Y-39790080D01*
X51181622Y-39693399D01*
X51141576Y-39596719D01*
X51025296Y-39422693D01*
X50877306Y-39274703D01*
X50703280Y-39158423D01*
X50509920Y-39078331D01*
X50509912Y-39078329D01*
X50304651Y-39037500D01*
X50304647Y-39037500D01*
X50095353Y-39037500D01*
X50095348Y-39037500D01*
X49890087Y-39078329D01*
X49890079Y-39078331D01*
X49696719Y-39158423D01*
X49522693Y-39274703D01*
X49374703Y-39422693D01*
X49258423Y-39596719D01*
X49178331Y-39790079D01*
X49178329Y-39790087D01*
X49137500Y-39995348D01*
X30500500Y-39995348D01*
X30500500Y-37824500D01*
X30520185Y-37757461D01*
X30572989Y-37711706D01*
X30624500Y-37700500D01*
X61283248Y-37700500D01*
X61350287Y-37720185D01*
G37*
%TD.AperFunction*%
%TD*%
M02*
