M48
; DRILL file {KiCad 9.0.0-9.0.0-2~ubuntu24.04.1} date 2025-03-20T04:03:52-0400
; FORMAT={-:-/ absolute / inch / decimal}
; #@! TF.CreationDate,2025-03-20T04:03:52-04:00
; #@! TF.GenerationSoftware,Kicad,Pcbnew,9.0.0-9.0.0-2~ubuntu24.04.1
; #@! TF.FileFunction,Plated,1,4,PTH
FMAT,2
INCH
; #@! TA.AperFunction,Plated,PTH,ViaDrill
T1C0.0118
; #@! TA.AperFunction,Plated,PTH,ViaDrill
T2C0.0157
; #@! TA.AperFunction,Plated,PTH,ComponentDrill
T3C0.0370
; #@! TA.AperFunction,Plated,PTH,ComponentDrill
T4C0.0394
%
G90
G05
T1
X4.1365Y-1.8377
X4.1622Y-1.8377
T2
X1.26Y-1.55
X1.29Y-3.47
X1.9754Y-1.9882
X1.9754Y-2.0394
X1.9754Y-2.4488
X1.9754Y-2.5
X1.9754Y-2.9094
X1.9754Y-2.9606
X1.9764Y-1.5787
X1.9764Y-3.3701
X2.0276Y-1.7585
X2.0276Y-1.8085
X2.0276Y-2.2191
X2.0276Y-2.2691
X2.0276Y-2.6824
X2.0276Y-2.7271
X2.0276Y-3.1469
X2.0276Y-3.1933
X2.0768Y-1.752
X2.0768Y-1.811
X2.0768Y-2.2146
X2.0768Y-2.2736
X2.0768Y-2.6772
X2.0768Y-2.7264
X2.0866Y-3.1398
X2.0866Y-3.189
X2.1Y-1.51
X2.36Y-3.5
X2.57Y-1.73
X2.57Y-2.23
X2.57Y-2.73
X2.57Y-3.23
X2.58Y-1.61
X2.58Y-1.68
X2.58Y-1.78
X2.58Y-1.84
X2.58Y-2.11
X2.58Y-2.18
X2.58Y-2.28
X2.58Y-2.34
X2.58Y-2.61
X2.58Y-2.68
X2.58Y-2.78
X2.58Y-2.84
X2.58Y-3.11
X2.58Y-3.18
X2.58Y-3.28
X2.58Y-3.34
X2.6Y-1.64
X2.6Y-1.81
X2.6Y-2.14
X2.6Y-2.31
X2.6Y-2.64
X2.6Y-2.81
X2.6Y-3.14
X2.6Y-3.31
X2.62Y-1.61
X2.62Y-1.66
X2.62Y-1.7
X2.62Y-1.74
X2.62Y-1.78
X2.62Y-1.84
X2.62Y-2.11
X2.62Y-2.16
X2.62Y-2.2
X2.62Y-2.24
X2.62Y-2.28
X2.62Y-2.34
X2.62Y-2.61
X2.62Y-2.66
X2.62Y-2.7
X2.62Y-2.74
X2.62Y-2.78
X2.62Y-2.84
X2.62Y-3.11
X2.62Y-3.16
X2.62Y-3.2
X2.62Y-3.24
X2.62Y-3.28
X2.62Y-3.34
X3.0Y-1.91
X3.0Y-1.96
X3.0Y-2.02
X3.01Y-1.86
X3.0115Y-2.61
X3.0115Y-2.67
X3.0115Y-2.71
X3.0115Y-2.75
X3.0115Y-2.79
X3.0115Y-2.84
X3.0115Y-3.11
X3.0115Y-3.17
X3.0115Y-3.21
X3.0115Y-3.25
X3.0115Y-3.29
X3.0115Y-3.34
X3.03Y-1.51
X3.03Y-1.57
X3.03Y-1.61
X3.03Y-1.65
X3.03Y-1.69
X3.03Y-1.82
X3.03Y-1.94
X3.03Y-1.98
X3.0315Y-2.64
X3.0315Y-2.81
X3.0315Y-3.14
X3.0315Y-3.31
X3.04Y-1.89
X3.04Y-2.04
X3.05Y-1.54
X3.05Y-1.71
X3.0515Y-2.61
X3.0515Y-2.67
X3.0515Y-2.77
X3.0515Y-2.84
X3.0515Y-3.11
X3.0515Y-3.17
X3.0515Y-3.27
X3.0515Y-3.34
X3.06Y-1.61
X3.06Y-1.85
X3.06Y-1.92
X3.06Y-2.0
X3.0615Y-2.72
X3.0615Y-3.22
X3.07Y-1.51
X3.07Y-1.57
X3.07Y-1.67
X3.07Y-1.96
X3.08Y-1.89
X3.09Y-1.81
X3.09Y-2.04
X3.31Y-3.5
X3.34Y-1.51
X3.34Y-1.57
X3.34Y-1.61
X3.34Y-1.65
X3.34Y-1.69
X3.36Y-1.54
X3.36Y-1.71
X3.37Y-1.61
X3.38Y-1.51
X3.38Y-1.57
X3.38Y-1.67
X3.38Y-1.74
X3.41Y-2.36
X3.565Y-2.515
X3.6595Y-2.5305
X3.8248Y-2.5648
X3.8448Y-2.5448
X3.9195Y-2.5405
X4.0799Y-2.5499
X4.08Y-1.84
X4.0999Y-2.5299
X4.18Y-2.54
X4.22Y-1.84
X4.33Y-2.55
X4.3487Y-2.5287
X4.4379Y-2.5411
X4.61Y-2.5754
X4.64Y-2.56
X4.75Y-2.38
X4.75Y-3.48
X4.77Y-1.51
T3
X3.6501Y-1.74
X3.6901Y-1.8101
X3.7301Y-1.74
X3.7701Y-1.8101
X3.8101Y-1.74
X3.8501Y-1.8101
X3.8901Y-1.74
X3.9301Y-1.8101
X4.2702Y-1.74
X4.3102Y-1.8101
X4.3502Y-1.74
X4.3902Y-1.8101
X4.4302Y-1.74
X4.4702Y-1.8101
X4.5102Y-1.74
X4.5502Y-1.8101
T4
X1.3287Y-1.722
X1.3287Y-1.822
X1.3287Y-1.922
X1.3287Y-2.022
X1.3287Y-2.122
X1.3287Y-2.222
X1.3287Y-2.322
X1.3287Y-2.422
X1.3287Y-2.522
X1.3287Y-2.622
X1.3287Y-2.722
X1.3287Y-2.822
X1.3287Y-2.922
X1.3287Y-3.022
X1.3287Y-3.122
X1.3287Y-3.222
X1.3287Y-3.322
X1.4287Y-1.722
X1.4287Y-1.822
X1.4287Y-1.922
X1.4287Y-2.022
X1.4287Y-2.122
X1.4287Y-2.222
X1.4287Y-2.322
X1.4287Y-2.422
X1.4287Y-2.522
X1.4287Y-2.622
X1.4287Y-2.722
X1.4287Y-2.822
X1.4287Y-2.922
X1.4287Y-3.022
X1.4287Y-3.122
X1.4287Y-3.222
X1.4287Y-3.322
M30
