%TF.GenerationSoftware,KiCad,Pcbnew,8.0.9*%
%TF.CreationDate,2025-02-20T22:31:31-05:00*%
%TF.ProjectId,PicoLVDS,5069636f-4c56-4445-932e-6b696361645f,2*%
%TF.SameCoordinates,Original*%
%TF.FileFunction,Soldermask,Bot*%
%TF.FilePolarity,Negative*%
%FSLAX46Y46*%
G04 Gerber Fmt 4.6, Leading zero omitted, Abs format (unit mm)*
G04 Created by KiCad (PCBNEW 8.0.9) date 2025-02-20 22:31:31*
%MOMM*%
%LPD*%
G01*
G04 APERTURE LIST*
%ADD10R,1.700000X1.700000*%
%ADD11O,1.700000X1.700000*%
%ADD12O,1.800000X1.800000*%
%ADD13O,1.500000X1.500000*%
G04 APERTURE END LIST*
D10*
%TO.C,J1*%
X33750000Y-43740000D03*
D11*
X36290000Y-43740000D03*
X33750000Y-46280000D03*
X36290000Y-46280000D03*
X33750000Y-48820000D03*
X36290000Y-48820000D03*
X33750000Y-51360000D03*
X36290000Y-51360000D03*
X33750000Y-53900000D03*
X36290000Y-53900000D03*
X33750000Y-56440000D03*
X36290000Y-56440000D03*
X33750000Y-58980000D03*
X36290000Y-58980000D03*
X33750000Y-61520000D03*
X36290000Y-61520000D03*
X33750000Y-64060000D03*
X36290000Y-64060000D03*
X33750000Y-66600000D03*
X36290000Y-66600000D03*
X33750000Y-69140000D03*
X36290000Y-69140000D03*
X33750000Y-71680000D03*
X36290000Y-71680000D03*
X33750000Y-74220000D03*
X36290000Y-74220000D03*
X33750000Y-76760000D03*
X36290000Y-76760000D03*
X33750000Y-79300000D03*
X36290000Y-79300000D03*
X33750000Y-81840000D03*
X36290000Y-81840000D03*
X33750000Y-84380000D03*
X36290000Y-84380000D03*
%TD*%
D12*
%TO.C,U1*%
X68915000Y-38890000D03*
D13*
X69215000Y-41920000D03*
X74065000Y-41920000D03*
D12*
X74365000Y-38890000D03*
D11*
X62750000Y-38760000D03*
X62750000Y-41300000D03*
D10*
X62750000Y-43840000D03*
D11*
X62750000Y-46380000D03*
X62750000Y-48920000D03*
X62750000Y-51460000D03*
X62750000Y-54000000D03*
D10*
X62750000Y-56540000D03*
D11*
X62750000Y-59080000D03*
X62750000Y-61620000D03*
X62750000Y-64160000D03*
X62750000Y-66700000D03*
D10*
X62750000Y-69240000D03*
D11*
X62750000Y-71780000D03*
X62750000Y-74320000D03*
X62750000Y-76860000D03*
X62750000Y-79400000D03*
D10*
X62750000Y-81940000D03*
D11*
X62750000Y-84480000D03*
X62750000Y-87020000D03*
X80530000Y-87020000D03*
X80530000Y-84480000D03*
D10*
X80530000Y-81940000D03*
D11*
X80530000Y-79400000D03*
X80530000Y-76860000D03*
X80530000Y-74320000D03*
X80530000Y-71780000D03*
D10*
X80530000Y-69240000D03*
D11*
X80530000Y-66700000D03*
X80530000Y-64160000D03*
X80530000Y-61620000D03*
X80530000Y-59080000D03*
D10*
X80530000Y-56540000D03*
D11*
X80530000Y-54000000D03*
X80530000Y-51460000D03*
X80530000Y-48920000D03*
X80530000Y-46380000D03*
D10*
X80530000Y-43840000D03*
D11*
X80530000Y-41300000D03*
X80530000Y-38760000D03*
X69100000Y-86790000D03*
D10*
X71640000Y-86790000D03*
D11*
X74180000Y-86790000D03*
%TD*%
M02*
