%TF.GenerationSoftware,KiCad,Pcbnew,8.0.6*%
%TF.CreationDate,2025-02-20T14:45:06-05:00*%
%TF.ProjectId,PicoLVDS,5069636f-4c56-4445-932e-6b696361645f,1*%
%TF.SameCoordinates,Original*%
%TF.FileFunction,Copper,L3,Inr*%
%TF.FilePolarity,Positive*%
%FSLAX46Y46*%
G04 Gerber Fmt 4.6, Leading zero omitted, Abs format (unit mm)*
G04 Created by KiCad (PCBNEW 8.0.6) date 2025-02-20 14:45:06*
%MOMM*%
%LPD*%
G01*
G04 APERTURE LIST*
%TA.AperFunction,ComponentPad*%
%ADD10R,1.700000X1.700000*%
%TD*%
%TA.AperFunction,ComponentPad*%
%ADD11O,1.700000X1.700000*%
%TD*%
%TA.AperFunction,ViaPad*%
%ADD12C,0.600000*%
%TD*%
G04 APERTURE END LIST*
D10*
%TO.N,/Out_0+*%
%TO.C,J1*%
X33750000Y-43740000D03*
D11*
%TO.N,/Out_0-*%
X36290000Y-43740000D03*
%TO.N,/Out_1+*%
X33750000Y-46280000D03*
%TO.N,/Out_1-*%
X36290000Y-46280000D03*
%TO.N,/Out_2+*%
X33750000Y-48820000D03*
%TO.N,/Out_2-*%
X36290000Y-48820000D03*
%TO.N,/Out_3+*%
X33750000Y-51360000D03*
%TO.N,/Out_3-*%
X36290000Y-51360000D03*
%TO.N,/Out_4+*%
X33750000Y-53900000D03*
%TO.N,/Out_4-*%
X36290000Y-53900000D03*
%TO.N,/Out_5+*%
X33750000Y-56440000D03*
%TO.N,/Out_5-*%
X36290000Y-56440000D03*
%TO.N,/Out_6+*%
X33750000Y-58980000D03*
%TO.N,/Out_6-*%
X36290000Y-58980000D03*
%TO.N,/Out_7+*%
X33750000Y-61520000D03*
%TO.N,/Out_7-*%
X36290000Y-61520000D03*
%TO.N,/Out_8+*%
X33750000Y-64060000D03*
%TO.N,/Out_8-*%
X36290000Y-64060000D03*
%TO.N,/Out_9+*%
X33750000Y-66600000D03*
%TO.N,/Out_9-*%
X36290000Y-66600000D03*
%TO.N,/Out_10+*%
X33750000Y-69140000D03*
%TO.N,/Out_10-*%
X36290000Y-69140000D03*
%TO.N,/Out_11+*%
X33750000Y-71680000D03*
%TO.N,/Out_11-*%
X36290000Y-71680000D03*
%TO.N,/Out_12+*%
X33750000Y-74220000D03*
%TO.N,/Out_12-*%
X36290000Y-74220000D03*
%TO.N,/Out_13+*%
X33750000Y-76760000D03*
%TO.N,/Out_13-*%
X36290000Y-76760000D03*
%TO.N,/Out_14+*%
X33750000Y-79300000D03*
%TO.N,/Out_14-*%
X36290000Y-79300000D03*
%TO.N,/Out_15+*%
X33750000Y-81840000D03*
%TO.N,/Out_15-*%
X36290000Y-81840000D03*
%TO.N,unconnected-(J1-Pin_33-Pad33)*%
X33750000Y-84380000D03*
%TO.N,unconnected-(J1-Pin_34-Pad34)*%
X36290000Y-84380000D03*
%TD*%
%TO.N,/D0*%
%TO.C,U1*%
X62750000Y-38760000D03*
%TO.N,/D1*%
X62750000Y-41300000D03*
D10*
%TO.N,GND*%
X62750000Y-43840000D03*
D11*
%TO.N,/D2*%
X62750000Y-46380000D03*
%TO.N,/D3*%
X62750000Y-48920000D03*
%TO.N,/D4*%
X62750000Y-51460000D03*
%TO.N,/D5*%
X62750000Y-54000000D03*
D10*
%TO.N,GND*%
X62750000Y-56540000D03*
D11*
%TO.N,/D6*%
X62750000Y-59080000D03*
%TO.N,/D7*%
X62750000Y-61620000D03*
%TO.N,/D8*%
X62750000Y-64160000D03*
%TO.N,/D9*%
X62750000Y-66700000D03*
D10*
%TO.N,GND*%
X62750000Y-69240000D03*
D11*
%TO.N,/D10*%
X62750000Y-71780000D03*
%TO.N,/D11*%
X62750000Y-74320000D03*
%TO.N,/D12*%
X62750000Y-76860000D03*
%TO.N,/D13*%
X62750000Y-79400000D03*
D10*
%TO.N,GND*%
X62750000Y-81940000D03*
D11*
%TO.N,/D14*%
X62750000Y-84480000D03*
%TO.N,/D15*%
X62750000Y-87020000D03*
%TO.N,unconnected-(U1-GPIO16-Pad21)*%
X80530000Y-87020000D03*
%TO.N,unconnected-(U1-GPIO17-Pad22)*%
X80530000Y-84480000D03*
D10*
%TO.N,GND*%
X80530000Y-81940000D03*
D11*
%TO.N,unconnected-(U1-GPIO18-Pad24)_1*%
X80530000Y-79400000D03*
%TO.N,unconnected-(U1-GPIO19-Pad25)_1*%
X80530000Y-76860000D03*
%TO.N,unconnected-(U1-GPIO20-Pad26)_1*%
X80530000Y-74320000D03*
%TO.N,unconnected-(U1-GPIO21-Pad27)_1*%
X80530000Y-71780000D03*
D10*
%TO.N,GND*%
X80530000Y-69240000D03*
D11*
%TO.N,unconnected-(U1-GPIO22-Pad29)*%
X80530000Y-66700000D03*
%TO.N,unconnected-(U1-RUN-Pad30)*%
X80530000Y-64160000D03*
%TO.N,unconnected-(U1-GPIO26_ADC0-Pad31)*%
X80530000Y-61620000D03*
%TO.N,unconnected-(U1-GPIO27_ADC1-Pad32)_1*%
X80530000Y-59080000D03*
D10*
%TO.N,unconnected-(U1-AGND-Pad33)_1*%
X80530000Y-56540000D03*
D11*
%TO.N,unconnected-(U1-GPIO28_ADC2-Pad34)*%
X80530000Y-54000000D03*
%TO.N,unconnected-(U1-ADC_VREF-Pad35)*%
X80530000Y-51460000D03*
%TO.N,+3V3*%
X80530000Y-48920000D03*
%TO.N,unconnected-(U1-3V3_EN-Pad37)*%
X80530000Y-46380000D03*
D10*
%TO.N,GND*%
X80530000Y-43840000D03*
D11*
%TO.N,unconnected-(U1-VSYS-Pad39)_1*%
X80530000Y-41300000D03*
%TO.N,unconnected-(U1-VBUS-Pad40)*%
X80530000Y-38760000D03*
%TO.N,unconnected-(U1-SWCLK-Pad41)_1*%
X69100000Y-86790000D03*
D10*
%TO.N,unconnected-(U1-GND-Pad42)_1*%
X71640000Y-86790000D03*
D11*
%TO.N,unconnected-(U1-SWDIO-Pad43)*%
X74180000Y-86790000D03*
%TD*%
D12*
%TO.N,+3V3*%
X52750000Y-69250000D03*
X52750000Y-57750000D03*
X51500000Y-81110000D03*
X51600000Y-61500000D03*
X51500000Y-45935000D03*
X52750000Y-46000000D03*
X51500000Y-57635000D03*
X51500000Y-69267500D03*
X53000000Y-81000000D03*
X51600000Y-73300000D03*
X51700000Y-85000000D03*
X51700000Y-49800000D03*
%TO.N,GND*%
X52750000Y-68000000D03*
X52750000Y-44500000D03*
X51500000Y-56365000D03*
X51500000Y-68132500D03*
X52750000Y-56250000D03*
X51500000Y-79932500D03*
X51600000Y-64200000D03*
X51600000Y-52600000D03*
X51500000Y-44665000D03*
X51600000Y-75900000D03*
X53000000Y-79750000D03*
X51700000Y-40800000D03*
%TD*%
%TA.AperFunction,Conductor*%
%TO.N,+3V3*%
G36*
X61353699Y-37720185D02*
G01*
X61399454Y-37772989D01*
X61409398Y-37842147D01*
X61392387Y-37889290D01*
X61308808Y-38025676D01*
X61211680Y-38260166D01*
X61211676Y-38260178D01*
X61152427Y-38506971D01*
X61132514Y-38760000D01*
X61152427Y-39013028D01*
X61211676Y-39259821D01*
X61211680Y-39259833D01*
X61308808Y-39494323D01*
X61441422Y-39710728D01*
X61441423Y-39710730D01*
X61441424Y-39710732D01*
X61441426Y-39710734D01*
X61606265Y-39903735D01*
X61616283Y-39912291D01*
X61643703Y-39935711D01*
X61681895Y-39994219D01*
X61682393Y-40064087D01*
X61645038Y-40123132D01*
X61643703Y-40124289D01*
X61606266Y-40156264D01*
X61441423Y-40349269D01*
X61441422Y-40349271D01*
X61308808Y-40565676D01*
X61211680Y-40800166D01*
X61211676Y-40800178D01*
X61152427Y-41046971D01*
X61132514Y-41300000D01*
X61152427Y-41553028D01*
X61211676Y-41799821D01*
X61211680Y-41799833D01*
X61308808Y-42034323D01*
X61435755Y-42241481D01*
X61454000Y-42308927D01*
X61432884Y-42375529D01*
X61417710Y-42393952D01*
X61297810Y-42513852D01*
X61204237Y-42665557D01*
X61204235Y-42665562D01*
X61148169Y-42834757D01*
X61148168Y-42834764D01*
X61137500Y-42939181D01*
X61137500Y-44740803D01*
X61137501Y-44740819D01*
X61148169Y-44845242D01*
X61191470Y-44975916D01*
X61204236Y-45014440D01*
X61279378Y-45136265D01*
X61297812Y-45166150D01*
X61417709Y-45286047D01*
X61451194Y-45347370D01*
X61446210Y-45417062D01*
X61435756Y-45438518D01*
X61308806Y-45645681D01*
X61211680Y-45880166D01*
X61211676Y-45880178D01*
X61152427Y-46126971D01*
X61132514Y-46380000D01*
X61152427Y-46633028D01*
X61211676Y-46879821D01*
X61211680Y-46879833D01*
X61308808Y-47114323D01*
X61441422Y-47330728D01*
X61441423Y-47330730D01*
X61441424Y-47330732D01*
X61441426Y-47330734D01*
X61606265Y-47523735D01*
X61627642Y-47541993D01*
X61643703Y-47555711D01*
X61681895Y-47614219D01*
X61682393Y-47684087D01*
X61645038Y-47743132D01*
X61643703Y-47744289D01*
X61606266Y-47776264D01*
X61441423Y-47969269D01*
X61441422Y-47969271D01*
X61308808Y-48185676D01*
X61211680Y-48420166D01*
X61211676Y-48420178D01*
X61152427Y-48666971D01*
X61132514Y-48920000D01*
X61152427Y-49173028D01*
X61211676Y-49419821D01*
X61211680Y-49419833D01*
X61308808Y-49654323D01*
X61441422Y-49870728D01*
X61441423Y-49870730D01*
X61441424Y-49870732D01*
X61441426Y-49870734D01*
X61606265Y-50063735D01*
X61623061Y-50078080D01*
X61643703Y-50095711D01*
X61681895Y-50154219D01*
X61682393Y-50224087D01*
X61645038Y-50283132D01*
X61643703Y-50284289D01*
X61606266Y-50316264D01*
X61441423Y-50509269D01*
X61441422Y-50509271D01*
X61308808Y-50725676D01*
X61211680Y-50960166D01*
X61211676Y-50960178D01*
X61152427Y-51206971D01*
X61132514Y-51460000D01*
X61152427Y-51713028D01*
X61211676Y-51959821D01*
X61211680Y-51959833D01*
X61308808Y-52194323D01*
X61441422Y-52410728D01*
X61441423Y-52410730D01*
X61441424Y-52410732D01*
X61441426Y-52410734D01*
X61606265Y-52603735D01*
X61627642Y-52621993D01*
X61643703Y-52635711D01*
X61681895Y-52694219D01*
X61682393Y-52764087D01*
X61645038Y-52823132D01*
X61643703Y-52824289D01*
X61606266Y-52856264D01*
X61441423Y-53049269D01*
X61441422Y-53049271D01*
X61308808Y-53265676D01*
X61211680Y-53500166D01*
X61211676Y-53500178D01*
X61152427Y-53746971D01*
X61132514Y-54000000D01*
X61152427Y-54253028D01*
X61211676Y-54499821D01*
X61211680Y-54499833D01*
X61308808Y-54734323D01*
X61435755Y-54941481D01*
X61454000Y-55008927D01*
X61432884Y-55075529D01*
X61417710Y-55093952D01*
X61297810Y-55213852D01*
X61204237Y-55365557D01*
X61204235Y-55365562D01*
X61148169Y-55534757D01*
X61148168Y-55534764D01*
X61137500Y-55639181D01*
X61137500Y-57440803D01*
X61137501Y-57440819D01*
X61148169Y-57545242D01*
X61190908Y-57674219D01*
X61204236Y-57714440D01*
X61279378Y-57836265D01*
X61297812Y-57866150D01*
X61417709Y-57986047D01*
X61451194Y-58047370D01*
X61446210Y-58117062D01*
X61435756Y-58138518D01*
X61308806Y-58345681D01*
X61211680Y-58580166D01*
X61211676Y-58580178D01*
X61152427Y-58826971D01*
X61132514Y-59080000D01*
X61152427Y-59333028D01*
X61211676Y-59579821D01*
X61211680Y-59579833D01*
X61308808Y-59814323D01*
X61441422Y-60030728D01*
X61441423Y-60030730D01*
X61441424Y-60030732D01*
X61441426Y-60030734D01*
X61606265Y-60223735D01*
X61627642Y-60241993D01*
X61643703Y-60255711D01*
X61681895Y-60314219D01*
X61682393Y-60384087D01*
X61645038Y-60443132D01*
X61643703Y-60444289D01*
X61606266Y-60476264D01*
X61441423Y-60669269D01*
X61441422Y-60669271D01*
X61308808Y-60885676D01*
X61211680Y-61120166D01*
X61211676Y-61120178D01*
X61152427Y-61366971D01*
X61132514Y-61620000D01*
X61152427Y-61873028D01*
X61211676Y-62119821D01*
X61211680Y-62119833D01*
X61308808Y-62354323D01*
X61441422Y-62570728D01*
X61441423Y-62570730D01*
X61441424Y-62570732D01*
X61441426Y-62570734D01*
X61606265Y-62763735D01*
X61627642Y-62781993D01*
X61643703Y-62795711D01*
X61681895Y-62854219D01*
X61682393Y-62924087D01*
X61645038Y-62983132D01*
X61643703Y-62984289D01*
X61606266Y-63016264D01*
X61441423Y-63209269D01*
X61441422Y-63209271D01*
X61308808Y-63425676D01*
X61211680Y-63660166D01*
X61211676Y-63660178D01*
X61152427Y-63906971D01*
X61132514Y-64160000D01*
X61152427Y-64413028D01*
X61211676Y-64659821D01*
X61211680Y-64659833D01*
X61308808Y-64894323D01*
X61441422Y-65110728D01*
X61441423Y-65110730D01*
X61441424Y-65110732D01*
X61441426Y-65110734D01*
X61606265Y-65303735D01*
X61627642Y-65321993D01*
X61643703Y-65335711D01*
X61681895Y-65394219D01*
X61682393Y-65464087D01*
X61645038Y-65523132D01*
X61643703Y-65524289D01*
X61606266Y-65556264D01*
X61441423Y-65749269D01*
X61441422Y-65749271D01*
X61308808Y-65965676D01*
X61211680Y-66200166D01*
X61211676Y-66200178D01*
X61152427Y-66446971D01*
X61132514Y-66700000D01*
X61152427Y-66953028D01*
X61211676Y-67199821D01*
X61211680Y-67199833D01*
X61308808Y-67434323D01*
X61435755Y-67641481D01*
X61454000Y-67708927D01*
X61432884Y-67775529D01*
X61417710Y-67793952D01*
X61297810Y-67913852D01*
X61204237Y-68065557D01*
X61204235Y-68065562D01*
X61148169Y-68234757D01*
X61148168Y-68234764D01*
X61137500Y-68339181D01*
X61137500Y-70140803D01*
X61137501Y-70140819D01*
X61148169Y-70245242D01*
X61190908Y-70374219D01*
X61204236Y-70414440D01*
X61279378Y-70536265D01*
X61297812Y-70566150D01*
X61417709Y-70686047D01*
X61451194Y-70747370D01*
X61446210Y-70817062D01*
X61435756Y-70838518D01*
X61308806Y-71045681D01*
X61211680Y-71280166D01*
X61211676Y-71280178D01*
X61152427Y-71526971D01*
X61132514Y-71780000D01*
X61152427Y-72033028D01*
X61211676Y-72279821D01*
X61211680Y-72279833D01*
X61308808Y-72514323D01*
X61441422Y-72730728D01*
X61441423Y-72730730D01*
X61441424Y-72730732D01*
X61441426Y-72730734D01*
X61606265Y-72923735D01*
X61627642Y-72941993D01*
X61643703Y-72955711D01*
X61681895Y-73014219D01*
X61682393Y-73084087D01*
X61645038Y-73143132D01*
X61643703Y-73144289D01*
X61606266Y-73176264D01*
X61441423Y-73369269D01*
X61441422Y-73369271D01*
X61308808Y-73585676D01*
X61211680Y-73820166D01*
X61211676Y-73820178D01*
X61152427Y-74066971D01*
X61132514Y-74320000D01*
X61152427Y-74573028D01*
X61211676Y-74819821D01*
X61211680Y-74819833D01*
X61308808Y-75054323D01*
X61441422Y-75270728D01*
X61441423Y-75270730D01*
X61441424Y-75270732D01*
X61441426Y-75270734D01*
X61606265Y-75463735D01*
X61627642Y-75481993D01*
X61643703Y-75495711D01*
X61681895Y-75554219D01*
X61682393Y-75624087D01*
X61645038Y-75683132D01*
X61643703Y-75684289D01*
X61606266Y-75716264D01*
X61441423Y-75909269D01*
X61441422Y-75909271D01*
X61308808Y-76125676D01*
X61211680Y-76360166D01*
X61211676Y-76360178D01*
X61152427Y-76606971D01*
X61132514Y-76860000D01*
X61152427Y-77113028D01*
X61211676Y-77359821D01*
X61211680Y-77359833D01*
X61308808Y-77594323D01*
X61441422Y-77810728D01*
X61441423Y-77810730D01*
X61441424Y-77810732D01*
X61441426Y-77810734D01*
X61606265Y-78003735D01*
X61627642Y-78021993D01*
X61643703Y-78035711D01*
X61681895Y-78094219D01*
X61682393Y-78164087D01*
X61645038Y-78223132D01*
X61643703Y-78224289D01*
X61606266Y-78256264D01*
X61441423Y-78449269D01*
X61441422Y-78449271D01*
X61308808Y-78665676D01*
X61211680Y-78900166D01*
X61211676Y-78900178D01*
X61152427Y-79146971D01*
X61132514Y-79400000D01*
X61152427Y-79653028D01*
X61211676Y-79899821D01*
X61211680Y-79899833D01*
X61308808Y-80134323D01*
X61435755Y-80341481D01*
X61454000Y-80408927D01*
X61432884Y-80475529D01*
X61417710Y-80493952D01*
X61297810Y-80613852D01*
X61204237Y-80765557D01*
X61204235Y-80765562D01*
X61148169Y-80934757D01*
X61148168Y-80934764D01*
X61137500Y-81039181D01*
X61137500Y-82840803D01*
X61137501Y-82840819D01*
X61148169Y-82945242D01*
X61190908Y-83074219D01*
X61204236Y-83114440D01*
X61279378Y-83236265D01*
X61297812Y-83266150D01*
X61417709Y-83386047D01*
X61451194Y-83447370D01*
X61446210Y-83517062D01*
X61435756Y-83538518D01*
X61308806Y-83745681D01*
X61211680Y-83980166D01*
X61211676Y-83980178D01*
X61152427Y-84226971D01*
X61132514Y-84480000D01*
X61152427Y-84733028D01*
X61211676Y-84979821D01*
X61211680Y-84979833D01*
X61308808Y-85214323D01*
X61441422Y-85430728D01*
X61441423Y-85430730D01*
X61441424Y-85430732D01*
X61441426Y-85430734D01*
X61606265Y-85623735D01*
X61627642Y-85641993D01*
X61643703Y-85655711D01*
X61681895Y-85714219D01*
X61682393Y-85784087D01*
X61645038Y-85843132D01*
X61643703Y-85844289D01*
X61606266Y-85876264D01*
X61441423Y-86069269D01*
X61441422Y-86069271D01*
X61308808Y-86285676D01*
X61211680Y-86520166D01*
X61211676Y-86520178D01*
X61152427Y-86766971D01*
X61132514Y-87020000D01*
X61152427Y-87273028D01*
X61211676Y-87519821D01*
X61211680Y-87519833D01*
X61308808Y-87754323D01*
X61441422Y-87970728D01*
X61441423Y-87970730D01*
X61441424Y-87970732D01*
X61441426Y-87970734D01*
X61606265Y-88163735D01*
X61799266Y-88328574D01*
X61799268Y-88328575D01*
X61799269Y-88328576D01*
X61799271Y-88328577D01*
X62015676Y-88461191D01*
X62098581Y-88495531D01*
X62250169Y-88558321D01*
X62496969Y-88617572D01*
X62750000Y-88637486D01*
X63003031Y-88617572D01*
X63249831Y-88558321D01*
X63484323Y-88461191D01*
X63700734Y-88328574D01*
X63893735Y-88163735D01*
X64058574Y-87970734D01*
X64191191Y-87754323D01*
X64288321Y-87519831D01*
X64347572Y-87273031D01*
X64367486Y-87020000D01*
X64349385Y-86790000D01*
X67482514Y-86790000D01*
X67502427Y-87043028D01*
X67561676Y-87289821D01*
X67561680Y-87289833D01*
X67658808Y-87524323D01*
X67791422Y-87740728D01*
X67791423Y-87740730D01*
X67791424Y-87740732D01*
X67791426Y-87740734D01*
X67956265Y-87933735D01*
X68149266Y-88098574D01*
X68149268Y-88098575D01*
X68149269Y-88098576D01*
X68149271Y-88098577D01*
X68365676Y-88231191D01*
X68392228Y-88242189D01*
X68600169Y-88328321D01*
X68846969Y-88387572D01*
X69100000Y-88407486D01*
X69353031Y-88387572D01*
X69599831Y-88328321D01*
X69834323Y-88231191D01*
X70041481Y-88104243D01*
X70108927Y-88085999D01*
X70175529Y-88107115D01*
X70193952Y-88122290D01*
X70313851Y-88242189D01*
X70465560Y-88335764D01*
X70634759Y-88391831D01*
X70739189Y-88402500D01*
X72540810Y-88402499D01*
X72645241Y-88391831D01*
X72814440Y-88335764D01*
X72966149Y-88242189D01*
X73086050Y-88122287D01*
X73147369Y-88088805D01*
X73217061Y-88093789D01*
X73238518Y-88104244D01*
X73445676Y-88231191D01*
X73472228Y-88242189D01*
X73680169Y-88328321D01*
X73926969Y-88387572D01*
X74180000Y-88407486D01*
X74433031Y-88387572D01*
X74679831Y-88328321D01*
X74914323Y-88231191D01*
X75130734Y-88098574D01*
X75323735Y-87933735D01*
X75488574Y-87740734D01*
X75621191Y-87524323D01*
X75718321Y-87289831D01*
X75777572Y-87043031D01*
X75797486Y-86790000D01*
X75777572Y-86536969D01*
X75718321Y-86290169D01*
X75621191Y-86055677D01*
X75621191Y-86055676D01*
X75488577Y-85839271D01*
X75488576Y-85839269D01*
X75488575Y-85839268D01*
X75488574Y-85839266D01*
X75323735Y-85646265D01*
X75130734Y-85481426D01*
X75130732Y-85481424D01*
X75130730Y-85481423D01*
X75130728Y-85481422D01*
X74914323Y-85348808D01*
X74679833Y-85251680D01*
X74679835Y-85251680D01*
X74679831Y-85251679D01*
X74679827Y-85251678D01*
X74679821Y-85251676D01*
X74433027Y-85192427D01*
X74433028Y-85192427D01*
X74180000Y-85172514D01*
X73926971Y-85192427D01*
X73680178Y-85251676D01*
X73680166Y-85251680D01*
X73445681Y-85348806D01*
X73238518Y-85475756D01*
X73171072Y-85494000D01*
X73104469Y-85472883D01*
X73086047Y-85457709D01*
X72966150Y-85337812D01*
X72966149Y-85337811D01*
X72814440Y-85244236D01*
X72724169Y-85214323D01*
X72645242Y-85188169D01*
X72645235Y-85188168D01*
X72540812Y-85177500D01*
X70739196Y-85177500D01*
X70739180Y-85177501D01*
X70634757Y-85188169D01*
X70465562Y-85244235D01*
X70465557Y-85244237D01*
X70313852Y-85337810D01*
X70193952Y-85457710D01*
X70132629Y-85491194D01*
X70062937Y-85486210D01*
X70041481Y-85475755D01*
X69834323Y-85348808D01*
X69599833Y-85251680D01*
X69599835Y-85251680D01*
X69599831Y-85251679D01*
X69599827Y-85251678D01*
X69599821Y-85251676D01*
X69353027Y-85192427D01*
X69353028Y-85192427D01*
X69100000Y-85172514D01*
X68846971Y-85192427D01*
X68600178Y-85251676D01*
X68600166Y-85251680D01*
X68365676Y-85348808D01*
X68149271Y-85481422D01*
X68149269Y-85481423D01*
X67956265Y-85646265D01*
X67791423Y-85839269D01*
X67791422Y-85839271D01*
X67658808Y-86055676D01*
X67561680Y-86290166D01*
X67561676Y-86290178D01*
X67502427Y-86536971D01*
X67482514Y-86790000D01*
X64349385Y-86790000D01*
X64347572Y-86766969D01*
X64288321Y-86520169D01*
X64225531Y-86368581D01*
X64191191Y-86285676D01*
X64058577Y-86069271D01*
X64058576Y-86069269D01*
X64058575Y-86069268D01*
X64058574Y-86069266D01*
X63893735Y-85876265D01*
X63856295Y-85844288D01*
X63818104Y-85785784D01*
X63817604Y-85715916D01*
X63854958Y-85656870D01*
X63856209Y-85655785D01*
X63893735Y-85623735D01*
X64058574Y-85430734D01*
X64191191Y-85214323D01*
X64288321Y-84979831D01*
X64347572Y-84733031D01*
X64367486Y-84480000D01*
X64347572Y-84226969D01*
X64288321Y-83980169D01*
X64191191Y-83745677D01*
X64191191Y-83745676D01*
X64064244Y-83538518D01*
X64045999Y-83471072D01*
X64067115Y-83404470D01*
X64082280Y-83386057D01*
X64202189Y-83266149D01*
X64295764Y-83114440D01*
X64351831Y-82945241D01*
X64362500Y-82840811D01*
X64362499Y-81039190D01*
X64351831Y-80934759D01*
X64295764Y-80765560D01*
X64202189Y-80613851D01*
X64082290Y-80493952D01*
X64048805Y-80432629D01*
X64053789Y-80362937D01*
X64064244Y-80341481D01*
X64064496Y-80341071D01*
X64191191Y-80134323D01*
X64288321Y-79899831D01*
X64347572Y-79653031D01*
X64367486Y-79400000D01*
X64347572Y-79146969D01*
X64288321Y-78900169D01*
X64191191Y-78665677D01*
X64191191Y-78665676D01*
X64058577Y-78449271D01*
X64058576Y-78449269D01*
X64058575Y-78449268D01*
X64058574Y-78449266D01*
X63893735Y-78256265D01*
X63856295Y-78224288D01*
X63818104Y-78165784D01*
X63817604Y-78095916D01*
X63854958Y-78036870D01*
X63856209Y-78035785D01*
X63893735Y-78003735D01*
X64058574Y-77810734D01*
X64191191Y-77594323D01*
X64288321Y-77359831D01*
X64347572Y-77113031D01*
X64367486Y-76860000D01*
X64347572Y-76606969D01*
X64288321Y-76360169D01*
X64191191Y-76125677D01*
X64191191Y-76125676D01*
X64058577Y-75909271D01*
X64058576Y-75909269D01*
X64058575Y-75909268D01*
X64058574Y-75909266D01*
X63893735Y-75716265D01*
X63856295Y-75684288D01*
X63818104Y-75625784D01*
X63817604Y-75555916D01*
X63854958Y-75496870D01*
X63856209Y-75495785D01*
X63893735Y-75463735D01*
X64058574Y-75270734D01*
X64191191Y-75054323D01*
X64288321Y-74819831D01*
X64347572Y-74573031D01*
X64367486Y-74320000D01*
X64347572Y-74066969D01*
X64288321Y-73820169D01*
X64191191Y-73585677D01*
X64191191Y-73585676D01*
X64058577Y-73369271D01*
X64058576Y-73369269D01*
X64058575Y-73369268D01*
X64058574Y-73369266D01*
X63893735Y-73176265D01*
X63856295Y-73144288D01*
X63818104Y-73085784D01*
X63817604Y-73015916D01*
X63854958Y-72956870D01*
X63856209Y-72955785D01*
X63893735Y-72923735D01*
X64058574Y-72730734D01*
X64191191Y-72514323D01*
X64288321Y-72279831D01*
X64347572Y-72033031D01*
X64367486Y-71780000D01*
X64347572Y-71526969D01*
X64288321Y-71280169D01*
X64191191Y-71045677D01*
X64191191Y-71045676D01*
X64064244Y-70838518D01*
X64045999Y-70771072D01*
X64067115Y-70704470D01*
X64082280Y-70686057D01*
X64202189Y-70566149D01*
X64295764Y-70414440D01*
X64351831Y-70245241D01*
X64362500Y-70140811D01*
X64362499Y-68339190D01*
X64351831Y-68234759D01*
X64295764Y-68065560D01*
X64202189Y-67913851D01*
X64082290Y-67793952D01*
X64048805Y-67732629D01*
X64053789Y-67662937D01*
X64064244Y-67641481D01*
X64092178Y-67595898D01*
X64191191Y-67434323D01*
X64288321Y-67199831D01*
X64347572Y-66953031D01*
X64367486Y-66700000D01*
X64347572Y-66446969D01*
X64288321Y-66200169D01*
X64191191Y-65965677D01*
X64191191Y-65965676D01*
X64058577Y-65749271D01*
X64058576Y-65749269D01*
X64058575Y-65749268D01*
X64058574Y-65749266D01*
X63893735Y-65556265D01*
X63856295Y-65524288D01*
X63818104Y-65465784D01*
X63817604Y-65395916D01*
X63854958Y-65336870D01*
X63856209Y-65335785D01*
X63893735Y-65303735D01*
X64058574Y-65110734D01*
X64191191Y-64894323D01*
X64288321Y-64659831D01*
X64347572Y-64413031D01*
X64367486Y-64160000D01*
X64347572Y-63906969D01*
X64288321Y-63660169D01*
X64225531Y-63508581D01*
X64191191Y-63425676D01*
X64058577Y-63209271D01*
X64058576Y-63209269D01*
X64058575Y-63209268D01*
X64058574Y-63209266D01*
X63893735Y-63016265D01*
X63856295Y-62984288D01*
X63818104Y-62925784D01*
X63817604Y-62855916D01*
X63854958Y-62796870D01*
X63856209Y-62795785D01*
X63893735Y-62763735D01*
X64058574Y-62570734D01*
X64191191Y-62354323D01*
X64288321Y-62119831D01*
X64347572Y-61873031D01*
X64367486Y-61620000D01*
X64347572Y-61366969D01*
X64288321Y-61120169D01*
X64191191Y-60885677D01*
X64191191Y-60885676D01*
X64058577Y-60669271D01*
X64058576Y-60669269D01*
X64058575Y-60669268D01*
X64058574Y-60669266D01*
X63893735Y-60476265D01*
X63856295Y-60444288D01*
X63818104Y-60385784D01*
X63817604Y-60315916D01*
X63854958Y-60256870D01*
X63856209Y-60255785D01*
X63893735Y-60223735D01*
X64058574Y-60030734D01*
X64191191Y-59814323D01*
X64288321Y-59579831D01*
X64347572Y-59333031D01*
X64367486Y-59080000D01*
X64347572Y-58826969D01*
X64288321Y-58580169D01*
X64191191Y-58345677D01*
X64191191Y-58345676D01*
X64064244Y-58138518D01*
X64045999Y-58071072D01*
X64067115Y-58004470D01*
X64082280Y-57986057D01*
X64202189Y-57866149D01*
X64295764Y-57714440D01*
X64351831Y-57545241D01*
X64362500Y-57440811D01*
X64362499Y-55639190D01*
X64351831Y-55534759D01*
X64295764Y-55365560D01*
X64202189Y-55213851D01*
X64082290Y-55093952D01*
X64048805Y-55032629D01*
X64053789Y-54962937D01*
X64064244Y-54941481D01*
X64092178Y-54895898D01*
X64191191Y-54734323D01*
X64288321Y-54499831D01*
X64347572Y-54253031D01*
X64367486Y-54000000D01*
X64347572Y-53746969D01*
X64288321Y-53500169D01*
X64191191Y-53265677D01*
X64191191Y-53265676D01*
X64058577Y-53049271D01*
X64058576Y-53049269D01*
X64058575Y-53049268D01*
X64058574Y-53049266D01*
X63893735Y-52856265D01*
X63856295Y-52824288D01*
X63818104Y-52765784D01*
X63817604Y-52695916D01*
X63854958Y-52636870D01*
X63856209Y-52635785D01*
X63893735Y-52603735D01*
X64058574Y-52410734D01*
X64191191Y-52194323D01*
X64288321Y-51959831D01*
X64347572Y-51713031D01*
X64367486Y-51460000D01*
X64347572Y-51206969D01*
X64288321Y-50960169D01*
X64191191Y-50725677D01*
X64191191Y-50725676D01*
X64058577Y-50509271D01*
X64058576Y-50509269D01*
X64058575Y-50509268D01*
X64058574Y-50509266D01*
X63893735Y-50316265D01*
X63856295Y-50284288D01*
X63818104Y-50225784D01*
X63817604Y-50155916D01*
X63854958Y-50096870D01*
X63856209Y-50095785D01*
X63893735Y-50063735D01*
X64058574Y-49870734D01*
X64191191Y-49654323D01*
X64288321Y-49419831D01*
X64347572Y-49173031D01*
X64367486Y-48920000D01*
X64347572Y-48666969D01*
X64288321Y-48420169D01*
X64191191Y-48185677D01*
X64191191Y-48185676D01*
X64058577Y-47969271D01*
X64058576Y-47969269D01*
X64058575Y-47969268D01*
X64058574Y-47969266D01*
X63893735Y-47776265D01*
X63856295Y-47744288D01*
X63818104Y-47685784D01*
X63817604Y-47615916D01*
X63854958Y-47556870D01*
X63856209Y-47555785D01*
X63893735Y-47523735D01*
X64058574Y-47330734D01*
X64191191Y-47114323D01*
X64288321Y-46879831D01*
X64347572Y-46633031D01*
X64367486Y-46380000D01*
X64347572Y-46126969D01*
X64288321Y-45880169D01*
X64193550Y-45651372D01*
X64191191Y-45645676D01*
X64064244Y-45438518D01*
X64045999Y-45371072D01*
X64067115Y-45304470D01*
X64082280Y-45286057D01*
X64202189Y-45166149D01*
X64295764Y-45014440D01*
X64351831Y-44845241D01*
X64362500Y-44740811D01*
X64362499Y-42939190D01*
X64351831Y-42834759D01*
X64295764Y-42665560D01*
X64202189Y-42513851D01*
X64082290Y-42393952D01*
X64048805Y-42332629D01*
X64053789Y-42262937D01*
X64064244Y-42241481D01*
X64093197Y-42194235D01*
X64191191Y-42034323D01*
X64288321Y-41799831D01*
X64347572Y-41553031D01*
X64367486Y-41300000D01*
X64347572Y-41046969D01*
X64288321Y-40800169D01*
X64213615Y-40619813D01*
X64191191Y-40565676D01*
X64058577Y-40349271D01*
X64058576Y-40349269D01*
X64058575Y-40349268D01*
X64058574Y-40349266D01*
X63893735Y-40156265D01*
X63856295Y-40124288D01*
X63818104Y-40065784D01*
X63817604Y-39995916D01*
X63854958Y-39936870D01*
X63856209Y-39935785D01*
X63893735Y-39903735D01*
X64058574Y-39710734D01*
X64191191Y-39494323D01*
X64288321Y-39259831D01*
X64347572Y-39013031D01*
X64367486Y-38760000D01*
X64347572Y-38506969D01*
X64288321Y-38260169D01*
X64191191Y-38025677D01*
X64191191Y-38025676D01*
X64107613Y-37889290D01*
X64089368Y-37821844D01*
X64110484Y-37755242D01*
X64164256Y-37710628D01*
X64213340Y-37700500D01*
X67475620Y-37700500D01*
X67542659Y-37720185D01*
X67588414Y-37772989D01*
X67598358Y-37842147D01*
X67569909Y-37905033D01*
X67565848Y-37909787D01*
X67565846Y-37909789D01*
X67429120Y-38132907D01*
X67429118Y-38132910D01*
X67328980Y-38374666D01*
X67267889Y-38629128D01*
X67247359Y-38890000D01*
X67267889Y-39150871D01*
X67267889Y-39150874D01*
X67267890Y-39150877D01*
X67294048Y-39259831D01*
X67328980Y-39405333D01*
X67429118Y-39647089D01*
X67429120Y-39647092D01*
X67565846Y-39870210D01*
X67565847Y-39870211D01*
X67565848Y-39870213D01*
X67565850Y-39870215D01*
X67735800Y-40069200D01*
X67934785Y-40239150D01*
X67934787Y-40239151D01*
X67934788Y-40239152D01*
X67934789Y-40239153D01*
X68157907Y-40375879D01*
X68157910Y-40375881D01*
X68340078Y-40451337D01*
X68394482Y-40495178D01*
X68416547Y-40561472D01*
X68399268Y-40629171D01*
X68357417Y-40671624D01*
X68323235Y-40692571D01*
X68323228Y-40692575D01*
X68142194Y-40847194D01*
X67987575Y-41028228D01*
X67987574Y-41028231D01*
X67863184Y-41231216D01*
X67863182Y-41231219D01*
X67772078Y-41451165D01*
X67772078Y-41451166D01*
X67716502Y-41682657D01*
X67697823Y-41920000D01*
X67716502Y-42157342D01*
X67772078Y-42388833D01*
X67772078Y-42388834D01*
X67863182Y-42608780D01*
X67863184Y-42608783D01*
X67987574Y-42811768D01*
X67987575Y-42811771D01*
X68039969Y-42873116D01*
X68142194Y-42992806D01*
X68282330Y-43112494D01*
X68323228Y-43147424D01*
X68323231Y-43147425D01*
X68526216Y-43271815D01*
X68526219Y-43271817D01*
X68746166Y-43362921D01*
X68944822Y-43410614D01*
X68977661Y-43418498D01*
X69215000Y-43437177D01*
X69452339Y-43418498D01*
X69683833Y-43362921D01*
X69683834Y-43362921D01*
X69903780Y-43271817D01*
X69903781Y-43271816D01*
X69903784Y-43271815D01*
X70106774Y-43147422D01*
X70287806Y-42992806D01*
X70442422Y-42811774D01*
X70566815Y-42608784D01*
X70606137Y-42513852D01*
X70657921Y-42388834D01*
X70657921Y-42388833D01*
X70693297Y-42241481D01*
X70713498Y-42157339D01*
X70732177Y-41920000D01*
X70713498Y-41682661D01*
X70682834Y-41554936D01*
X70657921Y-41451166D01*
X70657921Y-41451165D01*
X70566817Y-41231219D01*
X70566815Y-41231216D01*
X70442425Y-41028231D01*
X70442424Y-41028228D01*
X70407494Y-40987330D01*
X70287806Y-40847194D01*
X70168116Y-40744969D01*
X70106771Y-40692575D01*
X70106768Y-40692574D01*
X69903784Y-40568184D01*
X69803129Y-40526492D01*
X69748726Y-40482651D01*
X69726661Y-40416357D01*
X69743940Y-40348658D01*
X69785791Y-40306204D01*
X69895215Y-40239150D01*
X70094200Y-40069200D01*
X70264150Y-39870215D01*
X70400879Y-39647093D01*
X70501021Y-39405329D01*
X70562110Y-39150877D01*
X70582641Y-38890000D01*
X70562110Y-38629123D01*
X70501021Y-38374671D01*
X70501019Y-38374666D01*
X70400881Y-38132910D01*
X70400879Y-38132907D01*
X70264153Y-37909789D01*
X70264151Y-37909787D01*
X70264150Y-37909785D01*
X70260090Y-37905032D01*
X70231519Y-37841272D01*
X70241956Y-37772186D01*
X70288086Y-37719709D01*
X70354380Y-37700500D01*
X72925620Y-37700500D01*
X72992659Y-37720185D01*
X73038414Y-37772989D01*
X73048358Y-37842147D01*
X73019909Y-37905033D01*
X73015848Y-37909787D01*
X73015846Y-37909789D01*
X72879120Y-38132907D01*
X72879118Y-38132910D01*
X72778980Y-38374666D01*
X72717889Y-38629128D01*
X72697359Y-38890000D01*
X72717889Y-39150871D01*
X72717889Y-39150874D01*
X72717890Y-39150877D01*
X72744048Y-39259831D01*
X72778980Y-39405333D01*
X72879118Y-39647089D01*
X72879120Y-39647092D01*
X73015846Y-39870210D01*
X73015847Y-39870211D01*
X73015848Y-39870213D01*
X73015850Y-39870215D01*
X73185800Y-40069200D01*
X73384785Y-40239150D01*
X73494208Y-40306204D01*
X73541082Y-40358015D01*
X73552505Y-40426945D01*
X73524848Y-40491108D01*
X73476870Y-40526492D01*
X73376215Y-40568184D01*
X73173231Y-40692574D01*
X73173228Y-40692575D01*
X72992194Y-40847194D01*
X72837575Y-41028228D01*
X72837574Y-41028231D01*
X72713184Y-41231216D01*
X72713182Y-41231219D01*
X72622078Y-41451165D01*
X72622078Y-41451166D01*
X72566502Y-41682657D01*
X72547823Y-41920000D01*
X72566502Y-42157342D01*
X72622078Y-42388833D01*
X72622078Y-42388834D01*
X72713182Y-42608780D01*
X72713184Y-42608783D01*
X72837574Y-42811768D01*
X72837575Y-42811771D01*
X72889969Y-42873116D01*
X72992194Y-42992806D01*
X73132330Y-43112494D01*
X73173228Y-43147424D01*
X73173231Y-43147425D01*
X73376216Y-43271815D01*
X73376219Y-43271817D01*
X73596166Y-43362921D01*
X73794822Y-43410614D01*
X73827661Y-43418498D01*
X74065000Y-43437177D01*
X74302339Y-43418498D01*
X74533833Y-43362921D01*
X74533834Y-43362921D01*
X74753780Y-43271817D01*
X74753781Y-43271816D01*
X74753784Y-43271815D01*
X74956774Y-43147422D01*
X75137806Y-42992806D01*
X75292422Y-42811774D01*
X75416815Y-42608784D01*
X75456137Y-42513852D01*
X75507921Y-42388834D01*
X75507921Y-42388833D01*
X75543297Y-42241481D01*
X75563498Y-42157339D01*
X75582177Y-41920000D01*
X75563498Y-41682661D01*
X75532834Y-41554936D01*
X75507921Y-41451166D01*
X75507921Y-41451165D01*
X75416817Y-41231219D01*
X75416815Y-41231216D01*
X75292425Y-41028231D01*
X75292424Y-41028228D01*
X75257494Y-40987330D01*
X75137806Y-40847194D01*
X75018116Y-40744969D01*
X74956771Y-40692575D01*
X74956768Y-40692574D01*
X74922583Y-40671625D01*
X74875708Y-40619813D01*
X74864285Y-40550883D01*
X74891943Y-40486721D01*
X74939921Y-40451337D01*
X75122089Y-40375881D01*
X75122090Y-40375880D01*
X75122093Y-40375879D01*
X75345215Y-40239150D01*
X75544200Y-40069200D01*
X75714150Y-39870215D01*
X75850879Y-39647093D01*
X75951021Y-39405329D01*
X76012110Y-39150877D01*
X76032641Y-38890000D01*
X76012110Y-38629123D01*
X75951021Y-38374671D01*
X75951019Y-38374666D01*
X75850881Y-38132910D01*
X75850879Y-38132907D01*
X75714153Y-37909789D01*
X75714151Y-37909787D01*
X75714150Y-37909785D01*
X75710090Y-37905032D01*
X75681519Y-37841272D01*
X75691956Y-37772186D01*
X75738086Y-37719709D01*
X75804380Y-37700500D01*
X79066660Y-37700500D01*
X79133699Y-37720185D01*
X79179454Y-37772989D01*
X79189398Y-37842147D01*
X79172387Y-37889290D01*
X79088808Y-38025676D01*
X78991680Y-38260166D01*
X78991676Y-38260178D01*
X78932427Y-38506971D01*
X78912514Y-38760000D01*
X78932427Y-39013028D01*
X78991676Y-39259821D01*
X78991680Y-39259833D01*
X79088808Y-39494323D01*
X79221422Y-39710728D01*
X79221423Y-39710730D01*
X79221424Y-39710732D01*
X79221426Y-39710734D01*
X79386265Y-39903735D01*
X79396283Y-39912291D01*
X79423703Y-39935711D01*
X79461895Y-39994219D01*
X79462393Y-40064087D01*
X79425038Y-40123132D01*
X79423703Y-40124289D01*
X79386266Y-40156264D01*
X79221423Y-40349269D01*
X79221422Y-40349271D01*
X79088808Y-40565676D01*
X78991680Y-40800166D01*
X78991676Y-40800178D01*
X78932427Y-41046971D01*
X78912514Y-41300000D01*
X78932427Y-41553028D01*
X78991676Y-41799821D01*
X78991680Y-41799833D01*
X79088808Y-42034323D01*
X79215755Y-42241481D01*
X79234000Y-42308927D01*
X79212884Y-42375529D01*
X79197710Y-42393952D01*
X79077810Y-42513852D01*
X78984237Y-42665557D01*
X78984235Y-42665562D01*
X78928169Y-42834757D01*
X78928168Y-42834764D01*
X78917500Y-42939181D01*
X78917500Y-44740803D01*
X78917501Y-44740819D01*
X78928169Y-44845242D01*
X78971470Y-44975916D01*
X78984236Y-45014440D01*
X79059378Y-45136265D01*
X79077812Y-45166150D01*
X79197709Y-45286047D01*
X79231194Y-45347370D01*
X79226210Y-45417062D01*
X79215756Y-45438518D01*
X79088806Y-45645681D01*
X78991680Y-45880166D01*
X78991676Y-45880178D01*
X78932427Y-46126971D01*
X78912514Y-46380000D01*
X78932427Y-46633028D01*
X78991676Y-46879821D01*
X78991680Y-46879833D01*
X79088808Y-47114323D01*
X79221422Y-47330728D01*
X79221423Y-47330730D01*
X79221424Y-47330732D01*
X79221426Y-47330734D01*
X79386265Y-47523735D01*
X79579266Y-47688574D01*
X79579268Y-47688575D01*
X79579269Y-47688576D01*
X79579272Y-47688578D01*
X79614403Y-47710106D01*
X79661279Y-47761917D01*
X79672703Y-47830846D01*
X79645047Y-47895010D01*
X79637297Y-47903515D01*
X79491886Y-48048926D01*
X79356400Y-48242420D01*
X79356399Y-48242422D01*
X79256570Y-48456507D01*
X79256567Y-48456513D01*
X79199364Y-48669999D01*
X79199364Y-48670000D01*
X80085440Y-48670000D01*
X80054755Y-48723147D01*
X80020000Y-48852857D01*
X80020000Y-48987143D01*
X80054755Y-49116853D01*
X80085440Y-49170000D01*
X79199364Y-49170000D01*
X79256567Y-49383486D01*
X79256570Y-49383492D01*
X79356399Y-49597578D01*
X79491894Y-49791082D01*
X79637296Y-49936484D01*
X79670781Y-49997807D01*
X79665797Y-50067499D01*
X79623925Y-50123432D01*
X79614405Y-50129892D01*
X79579271Y-50151422D01*
X79579269Y-50151423D01*
X79386265Y-50316265D01*
X79221423Y-50509269D01*
X79221422Y-50509271D01*
X79088808Y-50725676D01*
X78991680Y-50960166D01*
X78991676Y-50960178D01*
X78932427Y-51206971D01*
X78912514Y-51460000D01*
X78932427Y-51713028D01*
X78991676Y-51959821D01*
X78991680Y-51959833D01*
X79088808Y-52194323D01*
X79221422Y-52410728D01*
X79221423Y-52410730D01*
X79221424Y-52410732D01*
X79221426Y-52410734D01*
X79386265Y-52603735D01*
X79407642Y-52621993D01*
X79423703Y-52635711D01*
X79461895Y-52694219D01*
X79462393Y-52764087D01*
X79425038Y-52823132D01*
X79423703Y-52824289D01*
X79386266Y-52856264D01*
X79221423Y-53049269D01*
X79221422Y-53049271D01*
X79088808Y-53265676D01*
X78991680Y-53500166D01*
X78991676Y-53500178D01*
X78932427Y-53746971D01*
X78912514Y-54000000D01*
X78932427Y-54253028D01*
X78991676Y-54499821D01*
X78991680Y-54499833D01*
X79088808Y-54734323D01*
X79215755Y-54941481D01*
X79234000Y-55008927D01*
X79212884Y-55075529D01*
X79197710Y-55093952D01*
X79077810Y-55213852D01*
X78984237Y-55365557D01*
X78984235Y-55365562D01*
X78928169Y-55534757D01*
X78928168Y-55534764D01*
X78917500Y-55639181D01*
X78917500Y-57440803D01*
X78917501Y-57440819D01*
X78928169Y-57545242D01*
X78970908Y-57674219D01*
X78984236Y-57714440D01*
X79059378Y-57836265D01*
X79077812Y-57866150D01*
X79197709Y-57986047D01*
X79231194Y-58047370D01*
X79226210Y-58117062D01*
X79215756Y-58138518D01*
X79088806Y-58345681D01*
X78991680Y-58580166D01*
X78991676Y-58580178D01*
X78932427Y-58826971D01*
X78912514Y-59080000D01*
X78932427Y-59333028D01*
X78991676Y-59579821D01*
X78991680Y-59579833D01*
X79088808Y-59814323D01*
X79221422Y-60030728D01*
X79221423Y-60030730D01*
X79221424Y-60030732D01*
X79221426Y-60030734D01*
X79386265Y-60223735D01*
X79407642Y-60241993D01*
X79423703Y-60255711D01*
X79461895Y-60314219D01*
X79462393Y-60384087D01*
X79425038Y-60443132D01*
X79423703Y-60444289D01*
X79386266Y-60476264D01*
X79221423Y-60669269D01*
X79221422Y-60669271D01*
X79088808Y-60885676D01*
X78991680Y-61120166D01*
X78991676Y-61120178D01*
X78932427Y-61366971D01*
X78912514Y-61620000D01*
X78932427Y-61873028D01*
X78991676Y-62119821D01*
X78991680Y-62119833D01*
X79088808Y-62354323D01*
X79221422Y-62570728D01*
X79221423Y-62570730D01*
X79221424Y-62570732D01*
X79221426Y-62570734D01*
X79386265Y-62763735D01*
X79407642Y-62781993D01*
X79423703Y-62795711D01*
X79461895Y-62854219D01*
X79462393Y-62924087D01*
X79425038Y-62983132D01*
X79423703Y-62984289D01*
X79386266Y-63016264D01*
X79221423Y-63209269D01*
X79221422Y-63209271D01*
X79088808Y-63425676D01*
X78991680Y-63660166D01*
X78991676Y-63660178D01*
X78932427Y-63906971D01*
X78912514Y-64160000D01*
X78932427Y-64413028D01*
X78991676Y-64659821D01*
X78991680Y-64659833D01*
X79088808Y-64894323D01*
X79221422Y-65110728D01*
X79221423Y-65110730D01*
X79221424Y-65110732D01*
X79221426Y-65110734D01*
X79386265Y-65303735D01*
X79407642Y-65321993D01*
X79423703Y-65335711D01*
X79461895Y-65394219D01*
X79462393Y-65464087D01*
X79425038Y-65523132D01*
X79423703Y-65524289D01*
X79386266Y-65556264D01*
X79221423Y-65749269D01*
X79221422Y-65749271D01*
X79088808Y-65965676D01*
X78991680Y-66200166D01*
X78991676Y-66200178D01*
X78932427Y-66446971D01*
X78912514Y-66700000D01*
X78932427Y-66953028D01*
X78991676Y-67199821D01*
X78991680Y-67199833D01*
X79088808Y-67434323D01*
X79215755Y-67641481D01*
X79234000Y-67708927D01*
X79212884Y-67775529D01*
X79197710Y-67793952D01*
X79077810Y-67913852D01*
X78984237Y-68065557D01*
X78984235Y-68065562D01*
X78928169Y-68234757D01*
X78928168Y-68234764D01*
X78917500Y-68339181D01*
X78917500Y-70140803D01*
X78917501Y-70140819D01*
X78928169Y-70245242D01*
X78970908Y-70374219D01*
X78984236Y-70414440D01*
X79059378Y-70536265D01*
X79077812Y-70566150D01*
X79197709Y-70686047D01*
X79231194Y-70747370D01*
X79226210Y-70817062D01*
X79215756Y-70838518D01*
X79088806Y-71045681D01*
X78991680Y-71280166D01*
X78991676Y-71280178D01*
X78932427Y-71526971D01*
X78912514Y-71780000D01*
X78932427Y-72033028D01*
X78991676Y-72279821D01*
X78991680Y-72279833D01*
X79088808Y-72514323D01*
X79221422Y-72730728D01*
X79221423Y-72730730D01*
X79221424Y-72730732D01*
X79221426Y-72730734D01*
X79386265Y-72923735D01*
X79407642Y-72941993D01*
X79423703Y-72955711D01*
X79461895Y-73014219D01*
X79462393Y-73084087D01*
X79425038Y-73143132D01*
X79423703Y-73144289D01*
X79386266Y-73176264D01*
X79221423Y-73369269D01*
X79221422Y-73369271D01*
X79088808Y-73585676D01*
X78991680Y-73820166D01*
X78991676Y-73820178D01*
X78932427Y-74066971D01*
X78912514Y-74320000D01*
X78932427Y-74573028D01*
X78991676Y-74819821D01*
X78991680Y-74819833D01*
X79088808Y-75054323D01*
X79221422Y-75270728D01*
X79221423Y-75270730D01*
X79221424Y-75270732D01*
X79221426Y-75270734D01*
X79386265Y-75463735D01*
X79407642Y-75481993D01*
X79423703Y-75495711D01*
X79461895Y-75554219D01*
X79462393Y-75624087D01*
X79425038Y-75683132D01*
X79423703Y-75684289D01*
X79386266Y-75716264D01*
X79221423Y-75909269D01*
X79221422Y-75909271D01*
X79088808Y-76125676D01*
X78991680Y-76360166D01*
X78991676Y-76360178D01*
X78932427Y-76606971D01*
X78912514Y-76860000D01*
X78932427Y-77113028D01*
X78991676Y-77359821D01*
X78991680Y-77359833D01*
X79088808Y-77594323D01*
X79221422Y-77810728D01*
X79221423Y-77810730D01*
X79221424Y-77810732D01*
X79221426Y-77810734D01*
X79386265Y-78003735D01*
X79407642Y-78021993D01*
X79423703Y-78035711D01*
X79461895Y-78094219D01*
X79462393Y-78164087D01*
X79425038Y-78223132D01*
X79423703Y-78224289D01*
X79386266Y-78256264D01*
X79221423Y-78449269D01*
X79221422Y-78449271D01*
X79088808Y-78665676D01*
X78991680Y-78900166D01*
X78991676Y-78900178D01*
X78932427Y-79146971D01*
X78912514Y-79400000D01*
X78932427Y-79653028D01*
X78991676Y-79899821D01*
X78991680Y-79899833D01*
X79088808Y-80134323D01*
X79215755Y-80341481D01*
X79234000Y-80408927D01*
X79212884Y-80475529D01*
X79197710Y-80493952D01*
X79077810Y-80613852D01*
X78984237Y-80765557D01*
X78984235Y-80765562D01*
X78928169Y-80934757D01*
X78928168Y-80934764D01*
X78917500Y-81039181D01*
X78917500Y-82840803D01*
X78917501Y-82840819D01*
X78928169Y-82945242D01*
X78970908Y-83074219D01*
X78984236Y-83114440D01*
X79059378Y-83236265D01*
X79077812Y-83266150D01*
X79197709Y-83386047D01*
X79231194Y-83447370D01*
X79226210Y-83517062D01*
X79215756Y-83538518D01*
X79088806Y-83745681D01*
X78991680Y-83980166D01*
X78991676Y-83980178D01*
X78932427Y-84226971D01*
X78912514Y-84480000D01*
X78932427Y-84733028D01*
X78991676Y-84979821D01*
X78991680Y-84979833D01*
X79088808Y-85214323D01*
X79221422Y-85430728D01*
X79221423Y-85430730D01*
X79221424Y-85430732D01*
X79221426Y-85430734D01*
X79386265Y-85623735D01*
X79407642Y-85641993D01*
X79423703Y-85655711D01*
X79461895Y-85714219D01*
X79462393Y-85784087D01*
X79425038Y-85843132D01*
X79423703Y-85844289D01*
X79386266Y-85876264D01*
X79221423Y-86069269D01*
X79221422Y-86069271D01*
X79088808Y-86285676D01*
X78991680Y-86520166D01*
X78991676Y-86520178D01*
X78932427Y-86766971D01*
X78912514Y-87020000D01*
X78932427Y-87273028D01*
X78991676Y-87519821D01*
X78991680Y-87519833D01*
X79088808Y-87754323D01*
X79221422Y-87970728D01*
X79221423Y-87970730D01*
X79221424Y-87970732D01*
X79221426Y-87970734D01*
X79386265Y-88163735D01*
X79579266Y-88328574D01*
X79579268Y-88328575D01*
X79579269Y-88328576D01*
X79579271Y-88328577D01*
X79795676Y-88461191D01*
X79878581Y-88495531D01*
X80030169Y-88558321D01*
X80276969Y-88617572D01*
X80530000Y-88637486D01*
X80783031Y-88617572D01*
X81029831Y-88558321D01*
X81264323Y-88461191D01*
X81480734Y-88328574D01*
X81673735Y-88163735D01*
X81838574Y-87970734D01*
X81971191Y-87754323D01*
X82068321Y-87519831D01*
X82127572Y-87273031D01*
X82147486Y-87020000D01*
X82127572Y-86766969D01*
X82068321Y-86520169D01*
X82005531Y-86368581D01*
X81971191Y-86285676D01*
X81838577Y-86069271D01*
X81838576Y-86069269D01*
X81838575Y-86069268D01*
X81838574Y-86069266D01*
X81673735Y-85876265D01*
X81636295Y-85844288D01*
X81598104Y-85785784D01*
X81597604Y-85715916D01*
X81634958Y-85656870D01*
X81636209Y-85655785D01*
X81673735Y-85623735D01*
X81838574Y-85430734D01*
X81971191Y-85214323D01*
X82068321Y-84979831D01*
X82127572Y-84733031D01*
X82147486Y-84480000D01*
X82127572Y-84226969D01*
X82068321Y-83980169D01*
X81971191Y-83745677D01*
X81971191Y-83745676D01*
X81844244Y-83538518D01*
X81825999Y-83471072D01*
X81847115Y-83404470D01*
X81862280Y-83386057D01*
X81982189Y-83266149D01*
X82075764Y-83114440D01*
X82131831Y-82945241D01*
X82142500Y-82840811D01*
X82142499Y-81039190D01*
X82131831Y-80934759D01*
X82075764Y-80765560D01*
X81982189Y-80613851D01*
X81862290Y-80493952D01*
X81828805Y-80432629D01*
X81833789Y-80362937D01*
X81844244Y-80341481D01*
X81844496Y-80341071D01*
X81971191Y-80134323D01*
X82068321Y-79899831D01*
X82127572Y-79653031D01*
X82147486Y-79400000D01*
X82127572Y-79146969D01*
X82068321Y-78900169D01*
X81971191Y-78665677D01*
X81971191Y-78665676D01*
X81838577Y-78449271D01*
X81838576Y-78449269D01*
X81838575Y-78449268D01*
X81838574Y-78449266D01*
X81673735Y-78256265D01*
X81636295Y-78224288D01*
X81598104Y-78165784D01*
X81597604Y-78095916D01*
X81634958Y-78036870D01*
X81636209Y-78035785D01*
X81673735Y-78003735D01*
X81838574Y-77810734D01*
X81971191Y-77594323D01*
X82068321Y-77359831D01*
X82127572Y-77113031D01*
X82147486Y-76860000D01*
X82127572Y-76606969D01*
X82068321Y-76360169D01*
X81971191Y-76125677D01*
X81971191Y-76125676D01*
X81838577Y-75909271D01*
X81838576Y-75909269D01*
X81838575Y-75909268D01*
X81838574Y-75909266D01*
X81673735Y-75716265D01*
X81636295Y-75684288D01*
X81598104Y-75625784D01*
X81597604Y-75555916D01*
X81634958Y-75496870D01*
X81636209Y-75495785D01*
X81673735Y-75463735D01*
X81838574Y-75270734D01*
X81971191Y-75054323D01*
X82068321Y-74819831D01*
X82127572Y-74573031D01*
X82147486Y-74320000D01*
X82127572Y-74066969D01*
X82068321Y-73820169D01*
X81971191Y-73585677D01*
X81971191Y-73585676D01*
X81838577Y-73369271D01*
X81838576Y-73369269D01*
X81838575Y-73369268D01*
X81838574Y-73369266D01*
X81673735Y-73176265D01*
X81636295Y-73144288D01*
X81598104Y-73085784D01*
X81597604Y-73015916D01*
X81634958Y-72956870D01*
X81636209Y-72955785D01*
X81673735Y-72923735D01*
X81838574Y-72730734D01*
X81971191Y-72514323D01*
X82068321Y-72279831D01*
X82127572Y-72033031D01*
X82147486Y-71780000D01*
X82127572Y-71526969D01*
X82068321Y-71280169D01*
X81971191Y-71045677D01*
X81971191Y-71045676D01*
X81844244Y-70838518D01*
X81825999Y-70771072D01*
X81847115Y-70704470D01*
X81862280Y-70686057D01*
X81982189Y-70566149D01*
X82075764Y-70414440D01*
X82131831Y-70245241D01*
X82142500Y-70140811D01*
X82142499Y-68339190D01*
X82131831Y-68234759D01*
X82075764Y-68065560D01*
X81982189Y-67913851D01*
X81862290Y-67793952D01*
X81828805Y-67732629D01*
X81833789Y-67662937D01*
X81844244Y-67641481D01*
X81872178Y-67595898D01*
X81971191Y-67434323D01*
X82068321Y-67199831D01*
X82127572Y-66953031D01*
X82147486Y-66700000D01*
X82127572Y-66446969D01*
X82068321Y-66200169D01*
X81971191Y-65965677D01*
X81971191Y-65965676D01*
X81838577Y-65749271D01*
X81838576Y-65749269D01*
X81838575Y-65749268D01*
X81838574Y-65749266D01*
X81673735Y-65556265D01*
X81636295Y-65524288D01*
X81598104Y-65465784D01*
X81597604Y-65395916D01*
X81634958Y-65336870D01*
X81636209Y-65335785D01*
X81673735Y-65303735D01*
X81838574Y-65110734D01*
X81971191Y-64894323D01*
X82068321Y-64659831D01*
X82127572Y-64413031D01*
X82147486Y-64160000D01*
X82127572Y-63906969D01*
X82068321Y-63660169D01*
X82005531Y-63508581D01*
X81971191Y-63425676D01*
X81838577Y-63209271D01*
X81838576Y-63209269D01*
X81838575Y-63209268D01*
X81838574Y-63209266D01*
X81673735Y-63016265D01*
X81636295Y-62984288D01*
X81598104Y-62925784D01*
X81597604Y-62855916D01*
X81634958Y-62796870D01*
X81636209Y-62795785D01*
X81673735Y-62763735D01*
X81838574Y-62570734D01*
X81971191Y-62354323D01*
X82068321Y-62119831D01*
X82127572Y-61873031D01*
X82147486Y-61620000D01*
X82127572Y-61366969D01*
X82068321Y-61120169D01*
X81971191Y-60885677D01*
X81971191Y-60885676D01*
X81838577Y-60669271D01*
X81838576Y-60669269D01*
X81838575Y-60669268D01*
X81838574Y-60669266D01*
X81673735Y-60476265D01*
X81636295Y-60444288D01*
X81598104Y-60385784D01*
X81597604Y-60315916D01*
X81634958Y-60256870D01*
X81636209Y-60255785D01*
X81673735Y-60223735D01*
X81838574Y-60030734D01*
X81971191Y-59814323D01*
X82068321Y-59579831D01*
X82127572Y-59333031D01*
X82147486Y-59080000D01*
X82127572Y-58826969D01*
X82068321Y-58580169D01*
X81971191Y-58345677D01*
X81971191Y-58345676D01*
X81844244Y-58138518D01*
X81825999Y-58071072D01*
X81847115Y-58004470D01*
X81862280Y-57986057D01*
X81982189Y-57866149D01*
X82075764Y-57714440D01*
X82131831Y-57545241D01*
X82142500Y-57440811D01*
X82142499Y-55639190D01*
X82131831Y-55534759D01*
X82075764Y-55365560D01*
X81982189Y-55213851D01*
X81862290Y-55093952D01*
X81828805Y-55032629D01*
X81833789Y-54962937D01*
X81844244Y-54941481D01*
X81872178Y-54895898D01*
X81971191Y-54734323D01*
X82068321Y-54499831D01*
X82127572Y-54253031D01*
X82147486Y-54000000D01*
X82127572Y-53746969D01*
X82068321Y-53500169D01*
X81971191Y-53265677D01*
X81971191Y-53265676D01*
X81838577Y-53049271D01*
X81838576Y-53049269D01*
X81838575Y-53049268D01*
X81838574Y-53049266D01*
X81673735Y-52856265D01*
X81636295Y-52824288D01*
X81598104Y-52765784D01*
X81597604Y-52695916D01*
X81634958Y-52636870D01*
X81636209Y-52635785D01*
X81673735Y-52603735D01*
X81838574Y-52410734D01*
X81971191Y-52194323D01*
X82068321Y-51959831D01*
X82127572Y-51713031D01*
X82147486Y-51460000D01*
X82127572Y-51206969D01*
X82068321Y-50960169D01*
X81971191Y-50725677D01*
X81971191Y-50725676D01*
X81838577Y-50509271D01*
X81838576Y-50509269D01*
X81838575Y-50509268D01*
X81838574Y-50509266D01*
X81673735Y-50316265D01*
X81480734Y-50151426D01*
X81480732Y-50151424D01*
X81480730Y-50151423D01*
X81480728Y-50151422D01*
X81445595Y-50129892D01*
X81398720Y-50078080D01*
X81387297Y-50009150D01*
X81414955Y-49944988D01*
X81422704Y-49936484D01*
X81568105Y-49791082D01*
X81703600Y-49597578D01*
X81803429Y-49383492D01*
X81803432Y-49383486D01*
X81860636Y-49170000D01*
X80974560Y-49170000D01*
X81005245Y-49116853D01*
X81040000Y-48987143D01*
X81040000Y-48852857D01*
X81005245Y-48723147D01*
X80974560Y-48670000D01*
X81860636Y-48670000D01*
X81860635Y-48669999D01*
X81803432Y-48456513D01*
X81803429Y-48456507D01*
X81703600Y-48242422D01*
X81703599Y-48242420D01*
X81568113Y-48048926D01*
X81568108Y-48048920D01*
X81422703Y-47903515D01*
X81389218Y-47842192D01*
X81394202Y-47772500D01*
X81436074Y-47716567D01*
X81445581Y-47710115D01*
X81480734Y-47688574D01*
X81673735Y-47523735D01*
X81838574Y-47330734D01*
X81971191Y-47114323D01*
X82068321Y-46879831D01*
X82127572Y-46633031D01*
X82147486Y-46380000D01*
X82127572Y-46126969D01*
X82068321Y-45880169D01*
X81973550Y-45651372D01*
X81971191Y-45645676D01*
X81844244Y-45438518D01*
X81825999Y-45371072D01*
X81847115Y-45304470D01*
X81862280Y-45286057D01*
X81982189Y-45166149D01*
X82075764Y-45014440D01*
X82131831Y-44845241D01*
X82142500Y-44740811D01*
X82142499Y-42939190D01*
X82131831Y-42834759D01*
X82075764Y-42665560D01*
X81982189Y-42513851D01*
X81862290Y-42393952D01*
X81828805Y-42332629D01*
X81833789Y-42262937D01*
X81844244Y-42241481D01*
X81873197Y-42194235D01*
X81971191Y-42034323D01*
X82068321Y-41799831D01*
X82127572Y-41553031D01*
X82147486Y-41300000D01*
X82127572Y-41046969D01*
X82068321Y-40800169D01*
X81993615Y-40619813D01*
X81971191Y-40565676D01*
X81838577Y-40349271D01*
X81838576Y-40349269D01*
X81838575Y-40349268D01*
X81838574Y-40349266D01*
X81673735Y-40156265D01*
X81636295Y-40124288D01*
X81598104Y-40065784D01*
X81597604Y-39995916D01*
X81634958Y-39936870D01*
X81636209Y-39935785D01*
X81673735Y-39903735D01*
X81838574Y-39710734D01*
X81971191Y-39494323D01*
X82068321Y-39259831D01*
X82127572Y-39013031D01*
X82147486Y-38760000D01*
X82127572Y-38506969D01*
X82068321Y-38260169D01*
X81971191Y-38025677D01*
X81971191Y-38025676D01*
X81887613Y-37889290D01*
X81869368Y-37821844D01*
X81890484Y-37755242D01*
X81944256Y-37710628D01*
X81993340Y-37700500D01*
X87375500Y-37700500D01*
X87442539Y-37720185D01*
X87488294Y-37772989D01*
X87499500Y-37824500D01*
X87499500Y-89375500D01*
X87479815Y-89442539D01*
X87427011Y-89488294D01*
X87375500Y-89499500D01*
X30624500Y-89499500D01*
X30557461Y-89479815D01*
X30511706Y-89427011D01*
X30500500Y-89375500D01*
X30500500Y-46280000D01*
X32132514Y-46280000D01*
X32152427Y-46533028D01*
X32211676Y-46779821D01*
X32211680Y-46779833D01*
X32308808Y-47014323D01*
X32441422Y-47230728D01*
X32441423Y-47230730D01*
X32441424Y-47230732D01*
X32441426Y-47230734D01*
X32606265Y-47423735D01*
X32627642Y-47441993D01*
X32643703Y-47455711D01*
X32681895Y-47514219D01*
X32682393Y-47584087D01*
X32645038Y-47643132D01*
X32643703Y-47644289D01*
X32606266Y-47676264D01*
X32441423Y-47869269D01*
X32441422Y-47869271D01*
X32308808Y-48085676D01*
X32211680Y-48320166D01*
X32211676Y-48320178D01*
X32152427Y-48566971D01*
X32132514Y-48820000D01*
X32152427Y-49073028D01*
X32211676Y-49319821D01*
X32211680Y-49319833D01*
X32308808Y-49554323D01*
X32441422Y-49770728D01*
X32441423Y-49770730D01*
X32441424Y-49770732D01*
X32441426Y-49770734D01*
X32606265Y-49963735D01*
X32627642Y-49981993D01*
X32643703Y-49995711D01*
X32681895Y-50054219D01*
X32682393Y-50124087D01*
X32645038Y-50183132D01*
X32643703Y-50184289D01*
X32606266Y-50216264D01*
X32441423Y-50409269D01*
X32441422Y-50409271D01*
X32308808Y-50625676D01*
X32211680Y-50860166D01*
X32211676Y-50860178D01*
X32152427Y-51106971D01*
X32132514Y-51360000D01*
X32152427Y-51613028D01*
X32211676Y-51859821D01*
X32211680Y-51859833D01*
X32308808Y-52094323D01*
X32441422Y-52310728D01*
X32441423Y-52310730D01*
X32441424Y-52310732D01*
X32441426Y-52310734D01*
X32606265Y-52503735D01*
X32627642Y-52521993D01*
X32643703Y-52535711D01*
X32681895Y-52594219D01*
X32682393Y-52664087D01*
X32645038Y-52723132D01*
X32643703Y-52724289D01*
X32606266Y-52756264D01*
X32441423Y-52949269D01*
X32441422Y-52949271D01*
X32308808Y-53165676D01*
X32211680Y-53400166D01*
X32211676Y-53400178D01*
X32152427Y-53646971D01*
X32132514Y-53900000D01*
X32152427Y-54153028D01*
X32211676Y-54399821D01*
X32211680Y-54399833D01*
X32308808Y-54634323D01*
X32441422Y-54850728D01*
X32441423Y-54850730D01*
X32441424Y-54850732D01*
X32441426Y-54850734D01*
X32606265Y-55043735D01*
X32627642Y-55061993D01*
X32643703Y-55075711D01*
X32681895Y-55134219D01*
X32682393Y-55204087D01*
X32645038Y-55263132D01*
X32643703Y-55264289D01*
X32606266Y-55296264D01*
X32441423Y-55489269D01*
X32441422Y-55489271D01*
X32308808Y-55705676D01*
X32211680Y-55940166D01*
X32211676Y-55940178D01*
X32152427Y-56186971D01*
X32132514Y-56440000D01*
X32152427Y-56693028D01*
X32211676Y-56939821D01*
X32211680Y-56939833D01*
X32308808Y-57174323D01*
X32441422Y-57390728D01*
X32441423Y-57390730D01*
X32441424Y-57390732D01*
X32441426Y-57390734D01*
X32606265Y-57583735D01*
X32627642Y-57601993D01*
X32643703Y-57615711D01*
X32681895Y-57674219D01*
X32682393Y-57744087D01*
X32645038Y-57803132D01*
X32643703Y-57804289D01*
X32606266Y-57836264D01*
X32441423Y-58029269D01*
X32441422Y-58029271D01*
X32308808Y-58245676D01*
X32211680Y-58480166D01*
X32211676Y-58480178D01*
X32152427Y-58726971D01*
X32132514Y-58980000D01*
X32152427Y-59233028D01*
X32211676Y-59479821D01*
X32211680Y-59479833D01*
X32308808Y-59714323D01*
X32441422Y-59930728D01*
X32441423Y-59930730D01*
X32441424Y-59930732D01*
X32441426Y-59930734D01*
X32606265Y-60123735D01*
X32627642Y-60141993D01*
X32643703Y-60155711D01*
X32681895Y-60214219D01*
X32682393Y-60284087D01*
X32645038Y-60343132D01*
X32643703Y-60344289D01*
X32606266Y-60376264D01*
X32441423Y-60569269D01*
X32441422Y-60569271D01*
X32308808Y-60785676D01*
X32211680Y-61020166D01*
X32211676Y-61020178D01*
X32152427Y-61266971D01*
X32132514Y-61520000D01*
X32152427Y-61773028D01*
X32211676Y-62019821D01*
X32211680Y-62019833D01*
X32308808Y-62254323D01*
X32441422Y-62470728D01*
X32441423Y-62470730D01*
X32441424Y-62470732D01*
X32441426Y-62470734D01*
X32606265Y-62663735D01*
X32627642Y-62681993D01*
X32643703Y-62695711D01*
X32681895Y-62754219D01*
X32682393Y-62824087D01*
X32645038Y-62883132D01*
X32643703Y-62884289D01*
X32606266Y-62916264D01*
X32441423Y-63109269D01*
X32441422Y-63109271D01*
X32308808Y-63325676D01*
X32211680Y-63560166D01*
X32211676Y-63560178D01*
X32152427Y-63806971D01*
X32132514Y-64060000D01*
X32152427Y-64313028D01*
X32211676Y-64559821D01*
X32211680Y-64559833D01*
X32308808Y-64794323D01*
X32441422Y-65010728D01*
X32441423Y-65010730D01*
X32441424Y-65010732D01*
X32441426Y-65010734D01*
X32606265Y-65203735D01*
X32627642Y-65221993D01*
X32643703Y-65235711D01*
X32681895Y-65294219D01*
X32682393Y-65364087D01*
X32645038Y-65423132D01*
X32643703Y-65424289D01*
X32606266Y-65456264D01*
X32441423Y-65649269D01*
X32441422Y-65649271D01*
X32308808Y-65865676D01*
X32211680Y-66100166D01*
X32211676Y-66100178D01*
X32152427Y-66346971D01*
X32132514Y-66600000D01*
X32152427Y-66853028D01*
X32211676Y-67099821D01*
X32211680Y-67099833D01*
X32308808Y-67334323D01*
X32441422Y-67550728D01*
X32441423Y-67550730D01*
X32441424Y-67550732D01*
X32441426Y-67550734D01*
X32606265Y-67743735D01*
X32627642Y-67761993D01*
X32643703Y-67775711D01*
X32681895Y-67834219D01*
X32682393Y-67904087D01*
X32645038Y-67963132D01*
X32643703Y-67964289D01*
X32606266Y-67996264D01*
X32441423Y-68189269D01*
X32441422Y-68189271D01*
X32308808Y-68405676D01*
X32211680Y-68640166D01*
X32211676Y-68640178D01*
X32152427Y-68886971D01*
X32132514Y-69140000D01*
X32152427Y-69393028D01*
X32211676Y-69639821D01*
X32211680Y-69639833D01*
X32308808Y-69874323D01*
X32441422Y-70090728D01*
X32441423Y-70090730D01*
X32441424Y-70090732D01*
X32441426Y-70090734D01*
X32606265Y-70283735D01*
X32627642Y-70301993D01*
X32643703Y-70315711D01*
X32681895Y-70374219D01*
X32682393Y-70444087D01*
X32645038Y-70503132D01*
X32643703Y-70504289D01*
X32606266Y-70536264D01*
X32441423Y-70729269D01*
X32441422Y-70729271D01*
X32308808Y-70945676D01*
X32211680Y-71180166D01*
X32211676Y-71180178D01*
X32152427Y-71426971D01*
X32132514Y-71680000D01*
X32152427Y-71933028D01*
X32211676Y-72179821D01*
X32211680Y-72179833D01*
X32308808Y-72414323D01*
X32441422Y-72630728D01*
X32441423Y-72630730D01*
X32441424Y-72630732D01*
X32441426Y-72630734D01*
X32606265Y-72823735D01*
X32627642Y-72841993D01*
X32643703Y-72855711D01*
X32681895Y-72914219D01*
X32682393Y-72984087D01*
X32645038Y-73043132D01*
X32643703Y-73044289D01*
X32606266Y-73076264D01*
X32441423Y-73269269D01*
X32441422Y-73269271D01*
X32308808Y-73485676D01*
X32211680Y-73720166D01*
X32211676Y-73720178D01*
X32152427Y-73966971D01*
X32132514Y-74220000D01*
X32152427Y-74473028D01*
X32211676Y-74719821D01*
X32211680Y-74719833D01*
X32308808Y-74954323D01*
X32441422Y-75170728D01*
X32441423Y-75170730D01*
X32441424Y-75170732D01*
X32441426Y-75170734D01*
X32606265Y-75363735D01*
X32627642Y-75381993D01*
X32643703Y-75395711D01*
X32681895Y-75454219D01*
X32682393Y-75524087D01*
X32645038Y-75583132D01*
X32643703Y-75584289D01*
X32606266Y-75616264D01*
X32441423Y-75809269D01*
X32441422Y-75809271D01*
X32308808Y-76025676D01*
X32211680Y-76260166D01*
X32211676Y-76260178D01*
X32152427Y-76506971D01*
X32132514Y-76760000D01*
X32152427Y-77013028D01*
X32211676Y-77259821D01*
X32211680Y-77259833D01*
X32308808Y-77494323D01*
X32441422Y-77710728D01*
X32441423Y-77710730D01*
X32441424Y-77710732D01*
X32441426Y-77710734D01*
X32606265Y-77903735D01*
X32627642Y-77921993D01*
X32643703Y-77935711D01*
X32681895Y-77994219D01*
X32682393Y-78064087D01*
X32645038Y-78123132D01*
X32643703Y-78124289D01*
X32606266Y-78156264D01*
X32441423Y-78349269D01*
X32441422Y-78349271D01*
X32308808Y-78565676D01*
X32211680Y-78800166D01*
X32211676Y-78800178D01*
X32152427Y-79046971D01*
X32132514Y-79300000D01*
X32152427Y-79553028D01*
X32211676Y-79799821D01*
X32211680Y-79799833D01*
X32308808Y-80034323D01*
X32441422Y-80250728D01*
X32441423Y-80250730D01*
X32441424Y-80250732D01*
X32441426Y-80250734D01*
X32606265Y-80443735D01*
X32627642Y-80461993D01*
X32643703Y-80475711D01*
X32681895Y-80534219D01*
X32682393Y-80604087D01*
X32645038Y-80663132D01*
X32643703Y-80664289D01*
X32606266Y-80696264D01*
X32441423Y-80889269D01*
X32441422Y-80889271D01*
X32308808Y-81105676D01*
X32211680Y-81340166D01*
X32211676Y-81340178D01*
X32152427Y-81586971D01*
X32132514Y-81840000D01*
X32152427Y-82093028D01*
X32211676Y-82339821D01*
X32211680Y-82339833D01*
X32308808Y-82574323D01*
X32441422Y-82790728D01*
X32441423Y-82790730D01*
X32441424Y-82790732D01*
X32441426Y-82790734D01*
X32606265Y-82983735D01*
X32627642Y-83001993D01*
X32643703Y-83015711D01*
X32681895Y-83074219D01*
X32682393Y-83144087D01*
X32645038Y-83203132D01*
X32643703Y-83204289D01*
X32606266Y-83236264D01*
X32441423Y-83429269D01*
X32441422Y-83429271D01*
X32308808Y-83645676D01*
X32211680Y-83880166D01*
X32211676Y-83880178D01*
X32152427Y-84126971D01*
X32132514Y-84380000D01*
X32152427Y-84633028D01*
X32211676Y-84879821D01*
X32211680Y-84879833D01*
X32308808Y-85114323D01*
X32441422Y-85330728D01*
X32441423Y-85330730D01*
X32441424Y-85330732D01*
X32441426Y-85330734D01*
X32606265Y-85523735D01*
X32799266Y-85688574D01*
X32799268Y-85688575D01*
X32799269Y-85688576D01*
X32799271Y-85688577D01*
X33015676Y-85821191D01*
X33068647Y-85843132D01*
X33250169Y-85918321D01*
X33496969Y-85977572D01*
X33750000Y-85997486D01*
X34003031Y-85977572D01*
X34249831Y-85918321D01*
X34484323Y-85821191D01*
X34700734Y-85688574D01*
X34893735Y-85523735D01*
X34925711Y-85486295D01*
X34984216Y-85448104D01*
X35054084Y-85447604D01*
X35113130Y-85484958D01*
X35114214Y-85486209D01*
X35146265Y-85523735D01*
X35339266Y-85688574D01*
X35339268Y-85688575D01*
X35339269Y-85688576D01*
X35339271Y-85688577D01*
X35555676Y-85821191D01*
X35608647Y-85843132D01*
X35790169Y-85918321D01*
X36036969Y-85977572D01*
X36290000Y-85997486D01*
X36543031Y-85977572D01*
X36789831Y-85918321D01*
X37024323Y-85821191D01*
X37240734Y-85688574D01*
X37433735Y-85523735D01*
X37598574Y-85330734D01*
X37731191Y-85114323D01*
X37828321Y-84879831D01*
X37887572Y-84633031D01*
X37907486Y-84380000D01*
X37887572Y-84126969D01*
X37828321Y-83880169D01*
X37731191Y-83645677D01*
X37731191Y-83645676D01*
X37598577Y-83429271D01*
X37598576Y-83429269D01*
X37598575Y-83429268D01*
X37598574Y-83429266D01*
X37433735Y-83236265D01*
X37396295Y-83204288D01*
X37358104Y-83145784D01*
X37357604Y-83075916D01*
X37394958Y-83016870D01*
X37396209Y-83015785D01*
X37433735Y-82983735D01*
X37598574Y-82790734D01*
X37731191Y-82574323D01*
X37828321Y-82339831D01*
X37887572Y-82093031D01*
X37907486Y-81840000D01*
X37887572Y-81586969D01*
X37828321Y-81340169D01*
X37731191Y-81105677D01*
X37731191Y-81105676D01*
X37598577Y-80889271D01*
X37598576Y-80889269D01*
X37598575Y-80889268D01*
X37598574Y-80889266D01*
X37433735Y-80696265D01*
X37396295Y-80664288D01*
X37358104Y-80605784D01*
X37357604Y-80535916D01*
X37394958Y-80476870D01*
X37396209Y-80475785D01*
X37433735Y-80443735D01*
X37598574Y-80250734D01*
X37731191Y-80034323D01*
X37773368Y-79932500D01*
X50432359Y-79932500D01*
X50452872Y-80140784D01*
X50452873Y-80140786D01*
X50513628Y-80341069D01*
X50586215Y-80476870D01*
X50612291Y-80525653D01*
X50745063Y-80687436D01*
X50840260Y-80765562D01*
X50906850Y-80820211D01*
X51091431Y-80918872D01*
X51291714Y-80979627D01*
X51500000Y-81000141D01*
X51708286Y-80979627D01*
X51908569Y-80918872D01*
X52093150Y-80820211D01*
X52254936Y-80687436D01*
X52265062Y-80675097D01*
X52322805Y-80635762D01*
X52392650Y-80633889D01*
X52419362Y-80644398D01*
X52591431Y-80736372D01*
X52791714Y-80797127D01*
X53000000Y-80817641D01*
X53208286Y-80797127D01*
X53408569Y-80736372D01*
X53593150Y-80637711D01*
X53754936Y-80504936D01*
X53887711Y-80343150D01*
X53986372Y-80158569D01*
X54047127Y-79958286D01*
X54067641Y-79750000D01*
X54047127Y-79541714D01*
X53986372Y-79341431D01*
X53887711Y-79156850D01*
X53887708Y-79156846D01*
X53754936Y-78995063D01*
X53593153Y-78862291D01*
X53593151Y-78862290D01*
X53593150Y-78862289D01*
X53408569Y-78763628D01*
X53308427Y-78733250D01*
X53208284Y-78702872D01*
X53000000Y-78682359D01*
X52791715Y-78702872D01*
X52591428Y-78763629D01*
X52406846Y-78862291D01*
X52245064Y-78995062D01*
X52245064Y-78995063D01*
X52234934Y-79007406D01*
X52177187Y-79046739D01*
X52107342Y-79048607D01*
X52080631Y-79038096D01*
X51908573Y-78946129D01*
X51708284Y-78885372D01*
X51500000Y-78864859D01*
X51291715Y-78885372D01*
X51091428Y-78946129D01*
X50906846Y-79044791D01*
X50745063Y-79177563D01*
X50612291Y-79339346D01*
X50513629Y-79523928D01*
X50452872Y-79724215D01*
X50432359Y-79932500D01*
X37773368Y-79932500D01*
X37828321Y-79799831D01*
X37887572Y-79553031D01*
X37907486Y-79300000D01*
X37887572Y-79046969D01*
X37828321Y-78800169D01*
X37731191Y-78565677D01*
X37731191Y-78565676D01*
X37598577Y-78349271D01*
X37598576Y-78349269D01*
X37598575Y-78349268D01*
X37598574Y-78349266D01*
X37433735Y-78156265D01*
X37396295Y-78124288D01*
X37358104Y-78065784D01*
X37357604Y-77995916D01*
X37394958Y-77936870D01*
X37396209Y-77935785D01*
X37433735Y-77903735D01*
X37598574Y-77710734D01*
X37731191Y-77494323D01*
X37828321Y-77259831D01*
X37887572Y-77013031D01*
X37907486Y-76760000D01*
X37887572Y-76506969D01*
X37828321Y-76260169D01*
X37731191Y-76025677D01*
X37731191Y-76025676D01*
X37654176Y-75900000D01*
X50532359Y-75900000D01*
X50552872Y-76108284D01*
X50613629Y-76308571D01*
X50712291Y-76493153D01*
X50845063Y-76654936D01*
X50973084Y-76760000D01*
X51006850Y-76787711D01*
X51191431Y-76886372D01*
X51391714Y-76947127D01*
X51600000Y-76967641D01*
X51808286Y-76947127D01*
X52008569Y-76886372D01*
X52193150Y-76787711D01*
X52354936Y-76654936D01*
X52487711Y-76493150D01*
X52586372Y-76308569D01*
X52647127Y-76108286D01*
X52667641Y-75900000D01*
X52647127Y-75691714D01*
X52586372Y-75491431D01*
X52487711Y-75306850D01*
X52487708Y-75306846D01*
X52354936Y-75145063D01*
X52193153Y-75012291D01*
X52193151Y-75012290D01*
X52193150Y-75012289D01*
X52008569Y-74913628D01*
X51908427Y-74883250D01*
X51808284Y-74852872D01*
X51600000Y-74832359D01*
X51391715Y-74852872D01*
X51191428Y-74913629D01*
X51006846Y-75012291D01*
X50845063Y-75145063D01*
X50712291Y-75306846D01*
X50613629Y-75491428D01*
X50552872Y-75691715D01*
X50532359Y-75900000D01*
X37654176Y-75900000D01*
X37598577Y-75809271D01*
X37598576Y-75809269D01*
X37598575Y-75809268D01*
X37598574Y-75809266D01*
X37433735Y-75616265D01*
X37396295Y-75584288D01*
X37358104Y-75525784D01*
X37357604Y-75455916D01*
X37394958Y-75396870D01*
X37396209Y-75395785D01*
X37433735Y-75363735D01*
X37598574Y-75170734D01*
X37731191Y-74954323D01*
X37828321Y-74719831D01*
X37887572Y-74473031D01*
X37907486Y-74220000D01*
X37887572Y-73966969D01*
X37828321Y-73720169D01*
X37731191Y-73485677D01*
X37731191Y-73485676D01*
X37598577Y-73269271D01*
X37598576Y-73269269D01*
X37598575Y-73269268D01*
X37598574Y-73269266D01*
X37433735Y-73076265D01*
X37396295Y-73044288D01*
X37358104Y-72985784D01*
X37357604Y-72915916D01*
X37394958Y-72856870D01*
X37396209Y-72855785D01*
X37433735Y-72823735D01*
X37598574Y-72630734D01*
X37731191Y-72414323D01*
X37828321Y-72179831D01*
X37887572Y-71933031D01*
X37907486Y-71680000D01*
X37887572Y-71426969D01*
X37828321Y-71180169D01*
X37731191Y-70945677D01*
X37731191Y-70945676D01*
X37598577Y-70729271D01*
X37598576Y-70729269D01*
X37598575Y-70729268D01*
X37598574Y-70729266D01*
X37433735Y-70536265D01*
X37396295Y-70504288D01*
X37358104Y-70445784D01*
X37357604Y-70375916D01*
X37394958Y-70316870D01*
X37396209Y-70315785D01*
X37433735Y-70283735D01*
X37598574Y-70090734D01*
X37731191Y-69874323D01*
X37828321Y-69639831D01*
X37887572Y-69393031D01*
X37907486Y-69140000D01*
X37887572Y-68886969D01*
X37828321Y-68640169D01*
X37731191Y-68405677D01*
X37731191Y-68405676D01*
X37598577Y-68189271D01*
X37598576Y-68189269D01*
X37598575Y-68189268D01*
X37598574Y-68189266D01*
X37550091Y-68132500D01*
X50432359Y-68132500D01*
X50452872Y-68340784D01*
X50513629Y-68541071D01*
X50612291Y-68725653D01*
X50745063Y-68887436D01*
X50865617Y-68986372D01*
X50906850Y-69020211D01*
X51091431Y-69118872D01*
X51291714Y-69179627D01*
X51500000Y-69200141D01*
X51708286Y-69179627D01*
X51908569Y-69118872D01*
X52093150Y-69020211D01*
X52152000Y-68971912D01*
X52216306Y-68944601D01*
X52285173Y-68956391D01*
X52289097Y-68958398D01*
X52341431Y-68986372D01*
X52541714Y-69047127D01*
X52750000Y-69067641D01*
X52958286Y-69047127D01*
X53158569Y-68986372D01*
X53343150Y-68887711D01*
X53504936Y-68754936D01*
X53637711Y-68593150D01*
X53736372Y-68408569D01*
X53797127Y-68208286D01*
X53817641Y-68000000D01*
X53797127Y-67791714D01*
X53736372Y-67591431D01*
X53637711Y-67406850D01*
X53637708Y-67406846D01*
X53504936Y-67245063D01*
X53343153Y-67112291D01*
X53343151Y-67112290D01*
X53343150Y-67112289D01*
X53158569Y-67013628D01*
X53058427Y-66983250D01*
X52958284Y-66952872D01*
X52750000Y-66932359D01*
X52541715Y-66952872D01*
X52341426Y-67013629D01*
X52156855Y-67112285D01*
X52097998Y-67160586D01*
X52033687Y-67187898D01*
X51964820Y-67176105D01*
X51960882Y-67174089D01*
X51908573Y-67146129D01*
X51708284Y-67085372D01*
X51500000Y-67064859D01*
X51291715Y-67085372D01*
X51091428Y-67146129D01*
X50906846Y-67244791D01*
X50745063Y-67377563D01*
X50612291Y-67539346D01*
X50513629Y-67723928D01*
X50513628Y-67723930D01*
X50513628Y-67723931D01*
X50510751Y-67733414D01*
X50452872Y-67924215D01*
X50432359Y-68132500D01*
X37550091Y-68132500D01*
X37433735Y-67996265D01*
X37396295Y-67964288D01*
X37358104Y-67905784D01*
X37357604Y-67835916D01*
X37394958Y-67776870D01*
X37396209Y-67775785D01*
X37433735Y-67743735D01*
X37598574Y-67550734D01*
X37731191Y-67334323D01*
X37828321Y-67099831D01*
X37887572Y-66853031D01*
X37907486Y-66600000D01*
X37887572Y-66346969D01*
X37828321Y-66100169D01*
X37731191Y-65865677D01*
X37731191Y-65865676D01*
X37598577Y-65649271D01*
X37598576Y-65649269D01*
X37598575Y-65649268D01*
X37598574Y-65649266D01*
X37433735Y-65456265D01*
X37396295Y-65424288D01*
X37358104Y-65365784D01*
X37357604Y-65295916D01*
X37394958Y-65236870D01*
X37396209Y-65235785D01*
X37433735Y-65203735D01*
X37598574Y-65010734D01*
X37731191Y-64794323D01*
X37828321Y-64559831D01*
X37887572Y-64313031D01*
X37896468Y-64200000D01*
X50532359Y-64200000D01*
X50552872Y-64408284D01*
X50613629Y-64608571D01*
X50712291Y-64793153D01*
X50845063Y-64954936D01*
X51006846Y-65087708D01*
X51006850Y-65087711D01*
X51191431Y-65186372D01*
X51391714Y-65247127D01*
X51600000Y-65267641D01*
X51808286Y-65247127D01*
X52008569Y-65186372D01*
X52193150Y-65087711D01*
X52354936Y-64954936D01*
X52487711Y-64793150D01*
X52586372Y-64608569D01*
X52647127Y-64408286D01*
X52667641Y-64200000D01*
X52647127Y-63991714D01*
X52586372Y-63791431D01*
X52487711Y-63606850D01*
X52487708Y-63606846D01*
X52354936Y-63445063D01*
X52193153Y-63312291D01*
X52193151Y-63312290D01*
X52193150Y-63312289D01*
X52008569Y-63213628D01*
X51908427Y-63183250D01*
X51808284Y-63152872D01*
X51600000Y-63132359D01*
X51391715Y-63152872D01*
X51191428Y-63213629D01*
X51006846Y-63312291D01*
X50845063Y-63445063D01*
X50712291Y-63606846D01*
X50613629Y-63791428D01*
X50552872Y-63991715D01*
X50532359Y-64200000D01*
X37896468Y-64200000D01*
X37907486Y-64060000D01*
X37887572Y-63806969D01*
X37828321Y-63560169D01*
X37731191Y-63325677D01*
X37731191Y-63325676D01*
X37598577Y-63109271D01*
X37598576Y-63109269D01*
X37598575Y-63109268D01*
X37598574Y-63109266D01*
X37433735Y-62916265D01*
X37396295Y-62884288D01*
X37358104Y-62825784D01*
X37357604Y-62755916D01*
X37394958Y-62696870D01*
X37396209Y-62695785D01*
X37433735Y-62663735D01*
X37598574Y-62470734D01*
X37731191Y-62254323D01*
X37828321Y-62019831D01*
X37887572Y-61773031D01*
X37907486Y-61520000D01*
X37887572Y-61266969D01*
X37828321Y-61020169D01*
X37731191Y-60785677D01*
X37731191Y-60785676D01*
X37598577Y-60569271D01*
X37598576Y-60569269D01*
X37598575Y-60569268D01*
X37598574Y-60569266D01*
X37433735Y-60376265D01*
X37396295Y-60344288D01*
X37358104Y-60285784D01*
X37357604Y-60215916D01*
X37394958Y-60156870D01*
X37396209Y-60155785D01*
X37433735Y-60123735D01*
X37598574Y-59930734D01*
X37731191Y-59714323D01*
X37828321Y-59479831D01*
X37887572Y-59233031D01*
X37907486Y-58980000D01*
X37887572Y-58726969D01*
X37828321Y-58480169D01*
X37731191Y-58245677D01*
X37731191Y-58245676D01*
X37598577Y-58029271D01*
X37598576Y-58029269D01*
X37598575Y-58029268D01*
X37598574Y-58029266D01*
X37433735Y-57836265D01*
X37396295Y-57804288D01*
X37358104Y-57745784D01*
X37357604Y-57675916D01*
X37394958Y-57616870D01*
X37396209Y-57615785D01*
X37433735Y-57583735D01*
X37598574Y-57390734D01*
X37731191Y-57174323D01*
X37828321Y-56939831D01*
X37887572Y-56693031D01*
X37907486Y-56440000D01*
X37901583Y-56365000D01*
X50432359Y-56365000D01*
X50452872Y-56573284D01*
X50452873Y-56573286D01*
X50513628Y-56773569D01*
X50602498Y-56939833D01*
X50612291Y-56958153D01*
X50745063Y-57119936D01*
X50886941Y-57236372D01*
X50906850Y-57252711D01*
X51091431Y-57351372D01*
X51291714Y-57412127D01*
X51500000Y-57432641D01*
X51708286Y-57412127D01*
X51908569Y-57351372D01*
X52093150Y-57252711D01*
X52139084Y-57215012D01*
X52203393Y-57187699D01*
X52272261Y-57199489D01*
X52276197Y-57201503D01*
X52341431Y-57236372D01*
X52541714Y-57297127D01*
X52750000Y-57317641D01*
X52958286Y-57297127D01*
X53158569Y-57236372D01*
X53343150Y-57137711D01*
X53504936Y-57004936D01*
X53637711Y-56843150D01*
X53736372Y-56658569D01*
X53797127Y-56458286D01*
X53817641Y-56250000D01*
X53797127Y-56041714D01*
X53736372Y-55841431D01*
X53637711Y-55656850D01*
X53623217Y-55639189D01*
X53504936Y-55495063D01*
X53343153Y-55362291D01*
X53343151Y-55362290D01*
X53343150Y-55362289D01*
X53185942Y-55278259D01*
X53158571Y-55263629D01*
X53158570Y-55263628D01*
X53158569Y-55263628D01*
X53058427Y-55233250D01*
X52958284Y-55202872D01*
X52750000Y-55182359D01*
X52541715Y-55202872D01*
X52341426Y-55263629D01*
X52156855Y-55362285D01*
X52156849Y-55362289D01*
X52110913Y-55399988D01*
X52046603Y-55427300D01*
X51977736Y-55415509D01*
X51973796Y-55413492D01*
X51908573Y-55378629D01*
X51708284Y-55317872D01*
X51500000Y-55297359D01*
X51291715Y-55317872D01*
X51091428Y-55378629D01*
X50906846Y-55477291D01*
X50745063Y-55610063D01*
X50612291Y-55771846D01*
X50513629Y-55956428D01*
X50452872Y-56156715D01*
X50432359Y-56365000D01*
X37901583Y-56365000D01*
X37887572Y-56186969D01*
X37828321Y-55940169D01*
X37731191Y-55705677D01*
X37731191Y-55705676D01*
X37598577Y-55489271D01*
X37598576Y-55489269D01*
X37598575Y-55489268D01*
X37598574Y-55489266D01*
X37433735Y-55296265D01*
X37396295Y-55264288D01*
X37358104Y-55205784D01*
X37357604Y-55135916D01*
X37394958Y-55076870D01*
X37396209Y-55075785D01*
X37433735Y-55043735D01*
X37598574Y-54850734D01*
X37731191Y-54634323D01*
X37828321Y-54399831D01*
X37887572Y-54153031D01*
X37907486Y-53900000D01*
X37887572Y-53646969D01*
X37828321Y-53400169D01*
X37731191Y-53165677D01*
X37731191Y-53165676D01*
X37598577Y-52949271D01*
X37598576Y-52949269D01*
X37598575Y-52949268D01*
X37598574Y-52949266D01*
X37433735Y-52756265D01*
X37396295Y-52724288D01*
X37358104Y-52665784D01*
X37357633Y-52600000D01*
X50532359Y-52600000D01*
X50552872Y-52808284D01*
X50552873Y-52808286D01*
X50613628Y-53008569D01*
X50697604Y-53165677D01*
X50712291Y-53193153D01*
X50845063Y-53354936D01*
X51006846Y-53487708D01*
X51006850Y-53487711D01*
X51191431Y-53586372D01*
X51391714Y-53647127D01*
X51600000Y-53667641D01*
X51808286Y-53647127D01*
X52008569Y-53586372D01*
X52193150Y-53487711D01*
X52354936Y-53354936D01*
X52487711Y-53193150D01*
X52586372Y-53008569D01*
X52647127Y-52808286D01*
X52667641Y-52600000D01*
X52647127Y-52391714D01*
X52586372Y-52191431D01*
X52487711Y-52006850D01*
X52449125Y-51959833D01*
X52354936Y-51845063D01*
X52193153Y-51712291D01*
X52193151Y-51712290D01*
X52193150Y-51712289D01*
X52008569Y-51613628D01*
X51908427Y-51583250D01*
X51808284Y-51552872D01*
X51600000Y-51532359D01*
X51391715Y-51552872D01*
X51191428Y-51613629D01*
X51006846Y-51712291D01*
X50845063Y-51845063D01*
X50712291Y-52006846D01*
X50613629Y-52191428D01*
X50552872Y-52391715D01*
X50532359Y-52600000D01*
X37357633Y-52600000D01*
X37357604Y-52595916D01*
X37394958Y-52536870D01*
X37396209Y-52535785D01*
X37433735Y-52503735D01*
X37598574Y-52310734D01*
X37731191Y-52094323D01*
X37828321Y-51859831D01*
X37887572Y-51613031D01*
X37907486Y-51360000D01*
X37887572Y-51106969D01*
X37828321Y-50860169D01*
X37731191Y-50625677D01*
X37731191Y-50625676D01*
X37598577Y-50409271D01*
X37598576Y-50409269D01*
X37598575Y-50409268D01*
X37598574Y-50409266D01*
X37433735Y-50216265D01*
X37396295Y-50184288D01*
X37358104Y-50125784D01*
X37357604Y-50055916D01*
X37394958Y-49996870D01*
X37396209Y-49995785D01*
X37433735Y-49963735D01*
X37598574Y-49770734D01*
X37731191Y-49554323D01*
X37828321Y-49319831D01*
X37887572Y-49073031D01*
X37907486Y-48820000D01*
X37887572Y-48566969D01*
X37828321Y-48320169D01*
X37731191Y-48085677D01*
X37731191Y-48085676D01*
X37598577Y-47869271D01*
X37598576Y-47869269D01*
X37598575Y-47869268D01*
X37598574Y-47869266D01*
X37433735Y-47676265D01*
X37396295Y-47644288D01*
X37358104Y-47585784D01*
X37357604Y-47515916D01*
X37394958Y-47456870D01*
X37396209Y-47455785D01*
X37433735Y-47423735D01*
X37598574Y-47230734D01*
X37731191Y-47014323D01*
X37828321Y-46779831D01*
X37887572Y-46533031D01*
X37907486Y-46280000D01*
X37887572Y-46026969D01*
X37828321Y-45780169D01*
X37740289Y-45567641D01*
X37731191Y-45545676D01*
X37598577Y-45329271D01*
X37598576Y-45329269D01*
X37598575Y-45329268D01*
X37598574Y-45329266D01*
X37433735Y-45136265D01*
X37396295Y-45104288D01*
X37358104Y-45045784D01*
X37357604Y-44975916D01*
X37394958Y-44916870D01*
X37396209Y-44915785D01*
X37433735Y-44883735D01*
X37598574Y-44690734D01*
X37614344Y-44665000D01*
X50432359Y-44665000D01*
X50452872Y-44873284D01*
X50465356Y-44914437D01*
X50513628Y-45073569D01*
X50606107Y-45246585D01*
X50612291Y-45258153D01*
X50745063Y-45419936D01*
X50898279Y-45545677D01*
X50906850Y-45552711D01*
X51091431Y-45651372D01*
X51291714Y-45712127D01*
X51500000Y-45732641D01*
X51708286Y-45712127D01*
X51908569Y-45651372D01*
X52093150Y-45552711D01*
X52175980Y-45484732D01*
X52240289Y-45457420D01*
X52309157Y-45469211D01*
X52313094Y-45471225D01*
X52341431Y-45486372D01*
X52541714Y-45547127D01*
X52750000Y-45567641D01*
X52958286Y-45547127D01*
X53158569Y-45486372D01*
X53343150Y-45387711D01*
X53504936Y-45254936D01*
X53637711Y-45093150D01*
X53736372Y-44908569D01*
X53797127Y-44708286D01*
X53817641Y-44500000D01*
X53797127Y-44291714D01*
X53736372Y-44091431D01*
X53637711Y-43906850D01*
X53637708Y-43906846D01*
X53504936Y-43745063D01*
X53343153Y-43612291D01*
X53343151Y-43612290D01*
X53343150Y-43612289D01*
X53158569Y-43513628D01*
X53058427Y-43483250D01*
X52958284Y-43452872D01*
X52750000Y-43432359D01*
X52541715Y-43452872D01*
X52341426Y-43513629D01*
X52156855Y-43612285D01*
X52156848Y-43612290D01*
X52074019Y-43680266D01*
X52009709Y-43707579D01*
X51940841Y-43695788D01*
X51936901Y-43693771D01*
X51908573Y-43678629D01*
X51708284Y-43617872D01*
X51500000Y-43597359D01*
X51291715Y-43617872D01*
X51091428Y-43678629D01*
X50906846Y-43777291D01*
X50745063Y-43910063D01*
X50612291Y-44071846D01*
X50513629Y-44256428D01*
X50452872Y-44456715D01*
X50432359Y-44665000D01*
X37614344Y-44665000D01*
X37731191Y-44474323D01*
X37828321Y-44239831D01*
X37887572Y-43993031D01*
X37907486Y-43740000D01*
X37887572Y-43486969D01*
X37828321Y-43240169D01*
X37731191Y-43005677D01*
X37731191Y-43005676D01*
X37598577Y-42789271D01*
X37598576Y-42789269D01*
X37598575Y-42789268D01*
X37598574Y-42789266D01*
X37433735Y-42596265D01*
X37240734Y-42431426D01*
X37240732Y-42431424D01*
X37240730Y-42431423D01*
X37240728Y-42431422D01*
X37024323Y-42298808D01*
X36789833Y-42201680D01*
X36789835Y-42201680D01*
X36789831Y-42201679D01*
X36789827Y-42201678D01*
X36789821Y-42201676D01*
X36543027Y-42142427D01*
X36543028Y-42142427D01*
X36290000Y-42122514D01*
X36036971Y-42142427D01*
X35790178Y-42201676D01*
X35790166Y-42201680D01*
X35555681Y-42298806D01*
X35348518Y-42425756D01*
X35281072Y-42444000D01*
X35214469Y-42422883D01*
X35196047Y-42407709D01*
X35076150Y-42287812D01*
X35076149Y-42287811D01*
X34924440Y-42194236D01*
X34924437Y-42194235D01*
X34755242Y-42138169D01*
X34755235Y-42138168D01*
X34650812Y-42127500D01*
X32849196Y-42127500D01*
X32849180Y-42127501D01*
X32744757Y-42138169D01*
X32575562Y-42194235D01*
X32575557Y-42194237D01*
X32423849Y-42287812D01*
X32297812Y-42413849D01*
X32204237Y-42565557D01*
X32204235Y-42565562D01*
X32148169Y-42734757D01*
X32148168Y-42734764D01*
X32137500Y-42839181D01*
X32137500Y-44640803D01*
X32137501Y-44640819D01*
X32148169Y-44745242D01*
X32204235Y-44914437D01*
X32204237Y-44914442D01*
X32297812Y-45066150D01*
X32417709Y-45186047D01*
X32451194Y-45247370D01*
X32446210Y-45317062D01*
X32435756Y-45338518D01*
X32308806Y-45545681D01*
X32211680Y-45780166D01*
X32211676Y-45780178D01*
X32152427Y-46026971D01*
X32132514Y-46280000D01*
X30500500Y-46280000D01*
X30500500Y-40800000D01*
X50632359Y-40800000D01*
X50652872Y-41008284D01*
X50713629Y-41208571D01*
X50812291Y-41393153D01*
X50945063Y-41554936D01*
X51106846Y-41687708D01*
X51106850Y-41687711D01*
X51291431Y-41786372D01*
X51491714Y-41847127D01*
X51700000Y-41867641D01*
X51908286Y-41847127D01*
X52108569Y-41786372D01*
X52293150Y-41687711D01*
X52454936Y-41554936D01*
X52587711Y-41393150D01*
X52686372Y-41208569D01*
X52747127Y-41008286D01*
X52767641Y-40800000D01*
X52747127Y-40591714D01*
X52686372Y-40391431D01*
X52587711Y-40206850D01*
X52546196Y-40156264D01*
X52454936Y-40045063D01*
X52293153Y-39912291D01*
X52293151Y-39912290D01*
X52293150Y-39912289D01*
X52108569Y-39813628D01*
X52008427Y-39783250D01*
X51908284Y-39752872D01*
X51700000Y-39732359D01*
X51491715Y-39752872D01*
X51291428Y-39813629D01*
X51106846Y-39912291D01*
X50945063Y-40045063D01*
X50812291Y-40206846D01*
X50713629Y-40391428D01*
X50652872Y-40591715D01*
X50632359Y-40800000D01*
X30500500Y-40800000D01*
X30500500Y-37824500D01*
X30520185Y-37757461D01*
X30572989Y-37711706D01*
X30624500Y-37700500D01*
X61286660Y-37700500D01*
X61353699Y-37720185D01*
G37*
%TD.AperFunction*%
%TD*%
M02*
