%TF.GenerationSoftware,KiCad,Pcbnew,9.0.0*%
%TF.CreationDate,2025-03-11T15:03:30-04:00*%
%TF.ProjectId,PicoLVDS,5069636f-4c56-4445-932e-6b696361645f,2*%
%TF.SameCoordinates,Original*%
%TF.FileFunction,Paste,Top*%
%TF.FilePolarity,Positive*%
%FSLAX46Y46*%
G04 Gerber Fmt 4.6, Leading zero omitted, Abs format (unit mm)*
G04 Created by KiCad (PCBNEW 9.0.0) date 2025-03-11 15:03:30*
%MOMM*%
%LPD*%
G01*
G04 APERTURE LIST*
G04 APERTURE END LIST*
%TO.C,U3*%
G36*
G01*
X51150000Y-61295000D02*
X51150000Y-61595000D01*
G75*
G02*
X51000000Y-61745000I-150000J0D01*
G01*
X49350000Y-61745000D01*
G75*
G02*
X49200000Y-61595000I0J150000D01*
G01*
X49200000Y-61295000D01*
G75*
G02*
X49350000Y-61145000I150000J0D01*
G01*
X51000000Y-61145000D01*
G75*
G02*
X51150000Y-61295000I0J-150000D01*
G01*
G37*
G36*
G01*
X51150000Y-60025000D02*
X51150000Y-60325000D01*
G75*
G02*
X51000000Y-60475000I-150000J0D01*
G01*
X49350000Y-60475000D01*
G75*
G02*
X49200000Y-60325000I0J150000D01*
G01*
X49200000Y-60025000D01*
G75*
G02*
X49350000Y-59875000I150000J0D01*
G01*
X51000000Y-59875000D01*
G75*
G02*
X51150000Y-60025000I0J-150000D01*
G01*
G37*
G36*
G01*
X51150000Y-58755000D02*
X51150000Y-59055000D01*
G75*
G02*
X51000000Y-59205000I-150000J0D01*
G01*
X49350000Y-59205000D01*
G75*
G02*
X49200000Y-59055000I0J150000D01*
G01*
X49200000Y-58755000D01*
G75*
G02*
X49350000Y-58605000I150000J0D01*
G01*
X51000000Y-58605000D01*
G75*
G02*
X51150000Y-58755000I0J-150000D01*
G01*
G37*
G36*
G01*
X51150000Y-57485000D02*
X51150000Y-57785000D01*
G75*
G02*
X51000000Y-57935000I-150000J0D01*
G01*
X49350000Y-57935000D01*
G75*
G02*
X49200000Y-57785000I0J150000D01*
G01*
X49200000Y-57485000D01*
G75*
G02*
X49350000Y-57335000I150000J0D01*
G01*
X51000000Y-57335000D01*
G75*
G02*
X51150000Y-57485000I0J-150000D01*
G01*
G37*
G36*
G01*
X51150000Y-56215000D02*
X51150000Y-56515000D01*
G75*
G02*
X51000000Y-56665000I-150000J0D01*
G01*
X49350000Y-56665000D01*
G75*
G02*
X49200000Y-56515000I0J150000D01*
G01*
X49200000Y-56215000D01*
G75*
G02*
X49350000Y-56065000I150000J0D01*
G01*
X51000000Y-56065000D01*
G75*
G02*
X51150000Y-56215000I0J-150000D01*
G01*
G37*
G36*
G01*
X51150000Y-54945000D02*
X51150000Y-55245000D01*
G75*
G02*
X51000000Y-55395000I-150000J0D01*
G01*
X49350000Y-55395000D01*
G75*
G02*
X49200000Y-55245000I0J150000D01*
G01*
X49200000Y-54945000D01*
G75*
G02*
X49350000Y-54795000I150000J0D01*
G01*
X51000000Y-54795000D01*
G75*
G02*
X51150000Y-54945000I0J-150000D01*
G01*
G37*
G36*
G01*
X51150000Y-53675000D02*
X51150000Y-53975000D01*
G75*
G02*
X51000000Y-54125000I-150000J0D01*
G01*
X49350000Y-54125000D01*
G75*
G02*
X49200000Y-53975000I0J150000D01*
G01*
X49200000Y-53675000D01*
G75*
G02*
X49350000Y-53525000I150000J0D01*
G01*
X51000000Y-53525000D01*
G75*
G02*
X51150000Y-53675000I0J-150000D01*
G01*
G37*
G36*
G01*
X51150000Y-52405000D02*
X51150000Y-52705000D01*
G75*
G02*
X51000000Y-52855000I-150000J0D01*
G01*
X49350000Y-52855000D01*
G75*
G02*
X49200000Y-52705000I0J150000D01*
G01*
X49200000Y-52405000D01*
G75*
G02*
X49350000Y-52255000I150000J0D01*
G01*
X51000000Y-52255000D01*
G75*
G02*
X51150000Y-52405000I0J-150000D01*
G01*
G37*
G36*
G01*
X46200000Y-52405000D02*
X46200000Y-52705000D01*
G75*
G02*
X46050000Y-52855000I-150000J0D01*
G01*
X44400000Y-52855000D01*
G75*
G02*
X44250000Y-52705000I0J150000D01*
G01*
X44250000Y-52405000D01*
G75*
G02*
X44400000Y-52255000I150000J0D01*
G01*
X46050000Y-52255000D01*
G75*
G02*
X46200000Y-52405000I0J-150000D01*
G01*
G37*
G36*
G01*
X46200000Y-53675000D02*
X46200000Y-53975000D01*
G75*
G02*
X46050000Y-54125000I-150000J0D01*
G01*
X44400000Y-54125000D01*
G75*
G02*
X44250000Y-53975000I0J150000D01*
G01*
X44250000Y-53675000D01*
G75*
G02*
X44400000Y-53525000I150000J0D01*
G01*
X46050000Y-53525000D01*
G75*
G02*
X46200000Y-53675000I0J-150000D01*
G01*
G37*
G36*
G01*
X46200000Y-54945000D02*
X46200000Y-55245000D01*
G75*
G02*
X46050000Y-55395000I-150000J0D01*
G01*
X44400000Y-55395000D01*
G75*
G02*
X44250000Y-55245000I0J150000D01*
G01*
X44250000Y-54945000D01*
G75*
G02*
X44400000Y-54795000I150000J0D01*
G01*
X46050000Y-54795000D01*
G75*
G02*
X46200000Y-54945000I0J-150000D01*
G01*
G37*
G36*
G01*
X46200000Y-56215000D02*
X46200000Y-56515000D01*
G75*
G02*
X46050000Y-56665000I-150000J0D01*
G01*
X44400000Y-56665000D01*
G75*
G02*
X44250000Y-56515000I0J150000D01*
G01*
X44250000Y-56215000D01*
G75*
G02*
X44400000Y-56065000I150000J0D01*
G01*
X46050000Y-56065000D01*
G75*
G02*
X46200000Y-56215000I0J-150000D01*
G01*
G37*
G36*
G01*
X46200000Y-57485000D02*
X46200000Y-57785000D01*
G75*
G02*
X46050000Y-57935000I-150000J0D01*
G01*
X44400000Y-57935000D01*
G75*
G02*
X44250000Y-57785000I0J150000D01*
G01*
X44250000Y-57485000D01*
G75*
G02*
X44400000Y-57335000I150000J0D01*
G01*
X46050000Y-57335000D01*
G75*
G02*
X46200000Y-57485000I0J-150000D01*
G01*
G37*
G36*
G01*
X46200000Y-58755000D02*
X46200000Y-59055000D01*
G75*
G02*
X46050000Y-59205000I-150000J0D01*
G01*
X44400000Y-59205000D01*
G75*
G02*
X44250000Y-59055000I0J150000D01*
G01*
X44250000Y-58755000D01*
G75*
G02*
X44400000Y-58605000I150000J0D01*
G01*
X46050000Y-58605000D01*
G75*
G02*
X46200000Y-58755000I0J-150000D01*
G01*
G37*
G36*
G01*
X46200000Y-60025000D02*
X46200000Y-60325000D01*
G75*
G02*
X46050000Y-60475000I-150000J0D01*
G01*
X44400000Y-60475000D01*
G75*
G02*
X44250000Y-60325000I0J150000D01*
G01*
X44250000Y-60025000D01*
G75*
G02*
X44400000Y-59875000I150000J0D01*
G01*
X46050000Y-59875000D01*
G75*
G02*
X46200000Y-60025000I0J-150000D01*
G01*
G37*
G36*
G01*
X46200000Y-61295000D02*
X46200000Y-61595000D01*
G75*
G02*
X46050000Y-61745000I-150000J0D01*
G01*
X44400000Y-61745000D01*
G75*
G02*
X44250000Y-61595000I0J150000D01*
G01*
X44250000Y-61295000D01*
G75*
G02*
X44400000Y-61145000I150000J0D01*
G01*
X46050000Y-61145000D01*
G75*
G02*
X46200000Y-61295000I0J-150000D01*
G01*
G37*
%TD*%
%TO.C,C1*%
G36*
G01*
X52255000Y-46235000D02*
X51945000Y-46235000D01*
G75*
G02*
X51790000Y-46080000I0J155000D01*
G01*
X51790000Y-45655000D01*
G75*
G02*
X51945000Y-45500000I155000J0D01*
G01*
X52255000Y-45500000D01*
G75*
G02*
X52410000Y-45655000I0J-155000D01*
G01*
X52410000Y-46080000D01*
G75*
G02*
X52255000Y-46235000I-155000J0D01*
G01*
G37*
G36*
G01*
X52255000Y-45100000D02*
X51945000Y-45100000D01*
G75*
G02*
X51790000Y-44945000I0J155000D01*
G01*
X51790000Y-44520000D01*
G75*
G02*
X51945000Y-44365000I155000J0D01*
G01*
X52255000Y-44365000D01*
G75*
G02*
X52410000Y-44520000I0J-155000D01*
G01*
X52410000Y-44945000D01*
G75*
G02*
X52255000Y-45100000I-155000J0D01*
G01*
G37*
%TD*%
%TO.C,U2*%
G36*
G01*
X51150000Y-49595000D02*
X51150000Y-49895000D01*
G75*
G02*
X51000000Y-50045000I-150000J0D01*
G01*
X49350000Y-50045000D01*
G75*
G02*
X49200000Y-49895000I0J150000D01*
G01*
X49200000Y-49595000D01*
G75*
G02*
X49350000Y-49445000I150000J0D01*
G01*
X51000000Y-49445000D01*
G75*
G02*
X51150000Y-49595000I0J-150000D01*
G01*
G37*
G36*
G01*
X51150000Y-48325000D02*
X51150000Y-48625000D01*
G75*
G02*
X51000000Y-48775000I-150000J0D01*
G01*
X49350000Y-48775000D01*
G75*
G02*
X49200000Y-48625000I0J150000D01*
G01*
X49200000Y-48325000D01*
G75*
G02*
X49350000Y-48175000I150000J0D01*
G01*
X51000000Y-48175000D01*
G75*
G02*
X51150000Y-48325000I0J-150000D01*
G01*
G37*
G36*
G01*
X51150000Y-47055000D02*
X51150000Y-47355000D01*
G75*
G02*
X51000000Y-47505000I-150000J0D01*
G01*
X49350000Y-47505000D01*
G75*
G02*
X49200000Y-47355000I0J150000D01*
G01*
X49200000Y-47055000D01*
G75*
G02*
X49350000Y-46905000I150000J0D01*
G01*
X51000000Y-46905000D01*
G75*
G02*
X51150000Y-47055000I0J-150000D01*
G01*
G37*
G36*
G01*
X51150000Y-45785000D02*
X51150000Y-46085000D01*
G75*
G02*
X51000000Y-46235000I-150000J0D01*
G01*
X49350000Y-46235000D01*
G75*
G02*
X49200000Y-46085000I0J150000D01*
G01*
X49200000Y-45785000D01*
G75*
G02*
X49350000Y-45635000I150000J0D01*
G01*
X51000000Y-45635000D01*
G75*
G02*
X51150000Y-45785000I0J-150000D01*
G01*
G37*
G36*
G01*
X51150000Y-44515000D02*
X51150000Y-44815000D01*
G75*
G02*
X51000000Y-44965000I-150000J0D01*
G01*
X49350000Y-44965000D01*
G75*
G02*
X49200000Y-44815000I0J150000D01*
G01*
X49200000Y-44515000D01*
G75*
G02*
X49350000Y-44365000I150000J0D01*
G01*
X51000000Y-44365000D01*
G75*
G02*
X51150000Y-44515000I0J-150000D01*
G01*
G37*
G36*
G01*
X51150000Y-43245000D02*
X51150000Y-43545000D01*
G75*
G02*
X51000000Y-43695000I-150000J0D01*
G01*
X49350000Y-43695000D01*
G75*
G02*
X49200000Y-43545000I0J150000D01*
G01*
X49200000Y-43245000D01*
G75*
G02*
X49350000Y-43095000I150000J0D01*
G01*
X51000000Y-43095000D01*
G75*
G02*
X51150000Y-43245000I0J-150000D01*
G01*
G37*
G36*
G01*
X51150000Y-41975000D02*
X51150000Y-42275000D01*
G75*
G02*
X51000000Y-42425000I-150000J0D01*
G01*
X49350000Y-42425000D01*
G75*
G02*
X49200000Y-42275000I0J150000D01*
G01*
X49200000Y-41975000D01*
G75*
G02*
X49350000Y-41825000I150000J0D01*
G01*
X51000000Y-41825000D01*
G75*
G02*
X51150000Y-41975000I0J-150000D01*
G01*
G37*
G36*
G01*
X51150000Y-40705000D02*
X51150000Y-41005000D01*
G75*
G02*
X51000000Y-41155000I-150000J0D01*
G01*
X49350000Y-41155000D01*
G75*
G02*
X49200000Y-41005000I0J150000D01*
G01*
X49200000Y-40705000D01*
G75*
G02*
X49350000Y-40555000I150000J0D01*
G01*
X51000000Y-40555000D01*
G75*
G02*
X51150000Y-40705000I0J-150000D01*
G01*
G37*
G36*
G01*
X46200000Y-40705000D02*
X46200000Y-41005000D01*
G75*
G02*
X46050000Y-41155000I-150000J0D01*
G01*
X44400000Y-41155000D01*
G75*
G02*
X44250000Y-41005000I0J150000D01*
G01*
X44250000Y-40705000D01*
G75*
G02*
X44400000Y-40555000I150000J0D01*
G01*
X46050000Y-40555000D01*
G75*
G02*
X46200000Y-40705000I0J-150000D01*
G01*
G37*
G36*
G01*
X46200000Y-41975000D02*
X46200000Y-42275000D01*
G75*
G02*
X46050000Y-42425000I-150000J0D01*
G01*
X44400000Y-42425000D01*
G75*
G02*
X44250000Y-42275000I0J150000D01*
G01*
X44250000Y-41975000D01*
G75*
G02*
X44400000Y-41825000I150000J0D01*
G01*
X46050000Y-41825000D01*
G75*
G02*
X46200000Y-41975000I0J-150000D01*
G01*
G37*
G36*
G01*
X46200000Y-43245000D02*
X46200000Y-43545000D01*
G75*
G02*
X46050000Y-43695000I-150000J0D01*
G01*
X44400000Y-43695000D01*
G75*
G02*
X44250000Y-43545000I0J150000D01*
G01*
X44250000Y-43245000D01*
G75*
G02*
X44400000Y-43095000I150000J0D01*
G01*
X46050000Y-43095000D01*
G75*
G02*
X46200000Y-43245000I0J-150000D01*
G01*
G37*
G36*
G01*
X46200000Y-44515000D02*
X46200000Y-44815000D01*
G75*
G02*
X46050000Y-44965000I-150000J0D01*
G01*
X44400000Y-44965000D01*
G75*
G02*
X44250000Y-44815000I0J150000D01*
G01*
X44250000Y-44515000D01*
G75*
G02*
X44400000Y-44365000I150000J0D01*
G01*
X46050000Y-44365000D01*
G75*
G02*
X46200000Y-44515000I0J-150000D01*
G01*
G37*
G36*
G01*
X46200000Y-45785000D02*
X46200000Y-46085000D01*
G75*
G02*
X46050000Y-46235000I-150000J0D01*
G01*
X44400000Y-46235000D01*
G75*
G02*
X44250000Y-46085000I0J150000D01*
G01*
X44250000Y-45785000D01*
G75*
G02*
X44400000Y-45635000I150000J0D01*
G01*
X46050000Y-45635000D01*
G75*
G02*
X46200000Y-45785000I0J-150000D01*
G01*
G37*
G36*
G01*
X46200000Y-47055000D02*
X46200000Y-47355000D01*
G75*
G02*
X46050000Y-47505000I-150000J0D01*
G01*
X44400000Y-47505000D01*
G75*
G02*
X44250000Y-47355000I0J150000D01*
G01*
X44250000Y-47055000D01*
G75*
G02*
X44400000Y-46905000I150000J0D01*
G01*
X46050000Y-46905000D01*
G75*
G02*
X46200000Y-47055000I0J-150000D01*
G01*
G37*
G36*
G01*
X46200000Y-48325000D02*
X46200000Y-48625000D01*
G75*
G02*
X46050000Y-48775000I-150000J0D01*
G01*
X44400000Y-48775000D01*
G75*
G02*
X44250000Y-48625000I0J150000D01*
G01*
X44250000Y-48325000D01*
G75*
G02*
X44400000Y-48175000I150000J0D01*
G01*
X46050000Y-48175000D01*
G75*
G02*
X46200000Y-48325000I0J-150000D01*
G01*
G37*
G36*
G01*
X46200000Y-49595000D02*
X46200000Y-49895000D01*
G75*
G02*
X46050000Y-50045000I-150000J0D01*
G01*
X44400000Y-50045000D01*
G75*
G02*
X44250000Y-49895000I0J150000D01*
G01*
X44250000Y-49595000D01*
G75*
G02*
X44400000Y-49445000I150000J0D01*
G01*
X46050000Y-49445000D01*
G75*
G02*
X46200000Y-49595000I0J-150000D01*
G01*
G37*
%TD*%
%TO.C,C4*%
G36*
G01*
X52355000Y-81435000D02*
X52045000Y-81435000D01*
G75*
G02*
X51890000Y-81280000I0J155000D01*
G01*
X51890000Y-80855000D01*
G75*
G02*
X52045000Y-80700000I155000J0D01*
G01*
X52355000Y-80700000D01*
G75*
G02*
X52510000Y-80855000I0J-155000D01*
G01*
X52510000Y-81280000D01*
G75*
G02*
X52355000Y-81435000I-155000J0D01*
G01*
G37*
G36*
G01*
X52355000Y-80300000D02*
X52045000Y-80300000D01*
G75*
G02*
X51890000Y-80145000I0J155000D01*
G01*
X51890000Y-79720000D01*
G75*
G02*
X52045000Y-79565000I155000J0D01*
G01*
X52355000Y-79565000D01*
G75*
G02*
X52510000Y-79720000I0J-155000D01*
G01*
X52510000Y-80145000D01*
G75*
G02*
X52355000Y-80300000I-155000J0D01*
G01*
G37*
%TD*%
%TO.C,C2*%
G36*
G01*
X52255000Y-57935000D02*
X51945000Y-57935000D01*
G75*
G02*
X51790000Y-57780000I0J155000D01*
G01*
X51790000Y-57355000D01*
G75*
G02*
X51945000Y-57200000I155000J0D01*
G01*
X52255000Y-57200000D01*
G75*
G02*
X52410000Y-57355000I0J-155000D01*
G01*
X52410000Y-57780000D01*
G75*
G02*
X52255000Y-57935000I-155000J0D01*
G01*
G37*
G36*
G01*
X52255000Y-56800000D02*
X51945000Y-56800000D01*
G75*
G02*
X51790000Y-56645000I0J155000D01*
G01*
X51790000Y-56220000D01*
G75*
G02*
X51945000Y-56065000I155000J0D01*
G01*
X52255000Y-56065000D01*
G75*
G02*
X52410000Y-56220000I0J-155000D01*
G01*
X52410000Y-56645000D01*
G75*
G02*
X52255000Y-56800000I-155000J0D01*
G01*
G37*
%TD*%
%TO.C,U5*%
G36*
G01*
X51150000Y-84695000D02*
X51150000Y-84995000D01*
G75*
G02*
X51000000Y-85145000I-150000J0D01*
G01*
X49350000Y-85145000D01*
G75*
G02*
X49200000Y-84995000I0J150000D01*
G01*
X49200000Y-84695000D01*
G75*
G02*
X49350000Y-84545000I150000J0D01*
G01*
X51000000Y-84545000D01*
G75*
G02*
X51150000Y-84695000I0J-150000D01*
G01*
G37*
G36*
G01*
X51150000Y-83425000D02*
X51150000Y-83725000D01*
G75*
G02*
X51000000Y-83875000I-150000J0D01*
G01*
X49350000Y-83875000D01*
G75*
G02*
X49200000Y-83725000I0J150000D01*
G01*
X49200000Y-83425000D01*
G75*
G02*
X49350000Y-83275000I150000J0D01*
G01*
X51000000Y-83275000D01*
G75*
G02*
X51150000Y-83425000I0J-150000D01*
G01*
G37*
G36*
G01*
X51150000Y-82155000D02*
X51150000Y-82455000D01*
G75*
G02*
X51000000Y-82605000I-150000J0D01*
G01*
X49350000Y-82605000D01*
G75*
G02*
X49200000Y-82455000I0J150000D01*
G01*
X49200000Y-82155000D01*
G75*
G02*
X49350000Y-82005000I150000J0D01*
G01*
X51000000Y-82005000D01*
G75*
G02*
X51150000Y-82155000I0J-150000D01*
G01*
G37*
G36*
G01*
X51150000Y-80885000D02*
X51150000Y-81185000D01*
G75*
G02*
X51000000Y-81335000I-150000J0D01*
G01*
X49350000Y-81335000D01*
G75*
G02*
X49200000Y-81185000I0J150000D01*
G01*
X49200000Y-80885000D01*
G75*
G02*
X49350000Y-80735000I150000J0D01*
G01*
X51000000Y-80735000D01*
G75*
G02*
X51150000Y-80885000I0J-150000D01*
G01*
G37*
G36*
G01*
X51150000Y-79615000D02*
X51150000Y-79915000D01*
G75*
G02*
X51000000Y-80065000I-150000J0D01*
G01*
X49350000Y-80065000D01*
G75*
G02*
X49200000Y-79915000I0J150000D01*
G01*
X49200000Y-79615000D01*
G75*
G02*
X49350000Y-79465000I150000J0D01*
G01*
X51000000Y-79465000D01*
G75*
G02*
X51150000Y-79615000I0J-150000D01*
G01*
G37*
G36*
G01*
X51150000Y-78345000D02*
X51150000Y-78645000D01*
G75*
G02*
X51000000Y-78795000I-150000J0D01*
G01*
X49350000Y-78795000D01*
G75*
G02*
X49200000Y-78645000I0J150000D01*
G01*
X49200000Y-78345000D01*
G75*
G02*
X49350000Y-78195000I150000J0D01*
G01*
X51000000Y-78195000D01*
G75*
G02*
X51150000Y-78345000I0J-150000D01*
G01*
G37*
G36*
G01*
X51150000Y-77075000D02*
X51150000Y-77375000D01*
G75*
G02*
X51000000Y-77525000I-150000J0D01*
G01*
X49350000Y-77525000D01*
G75*
G02*
X49200000Y-77375000I0J150000D01*
G01*
X49200000Y-77075000D01*
G75*
G02*
X49350000Y-76925000I150000J0D01*
G01*
X51000000Y-76925000D01*
G75*
G02*
X51150000Y-77075000I0J-150000D01*
G01*
G37*
G36*
G01*
X51150000Y-75805000D02*
X51150000Y-76105000D01*
G75*
G02*
X51000000Y-76255000I-150000J0D01*
G01*
X49350000Y-76255000D01*
G75*
G02*
X49200000Y-76105000I0J150000D01*
G01*
X49200000Y-75805000D01*
G75*
G02*
X49350000Y-75655000I150000J0D01*
G01*
X51000000Y-75655000D01*
G75*
G02*
X51150000Y-75805000I0J-150000D01*
G01*
G37*
G36*
G01*
X46200000Y-75805000D02*
X46200000Y-76105000D01*
G75*
G02*
X46050000Y-76255000I-150000J0D01*
G01*
X44400000Y-76255000D01*
G75*
G02*
X44250000Y-76105000I0J150000D01*
G01*
X44250000Y-75805000D01*
G75*
G02*
X44400000Y-75655000I150000J0D01*
G01*
X46050000Y-75655000D01*
G75*
G02*
X46200000Y-75805000I0J-150000D01*
G01*
G37*
G36*
G01*
X46200000Y-77075000D02*
X46200000Y-77375000D01*
G75*
G02*
X46050000Y-77525000I-150000J0D01*
G01*
X44400000Y-77525000D01*
G75*
G02*
X44250000Y-77375000I0J150000D01*
G01*
X44250000Y-77075000D01*
G75*
G02*
X44400000Y-76925000I150000J0D01*
G01*
X46050000Y-76925000D01*
G75*
G02*
X46200000Y-77075000I0J-150000D01*
G01*
G37*
G36*
G01*
X46200000Y-78345000D02*
X46200000Y-78645000D01*
G75*
G02*
X46050000Y-78795000I-150000J0D01*
G01*
X44400000Y-78795000D01*
G75*
G02*
X44250000Y-78645000I0J150000D01*
G01*
X44250000Y-78345000D01*
G75*
G02*
X44400000Y-78195000I150000J0D01*
G01*
X46050000Y-78195000D01*
G75*
G02*
X46200000Y-78345000I0J-150000D01*
G01*
G37*
G36*
G01*
X46200000Y-79615000D02*
X46200000Y-79915000D01*
G75*
G02*
X46050000Y-80065000I-150000J0D01*
G01*
X44400000Y-80065000D01*
G75*
G02*
X44250000Y-79915000I0J150000D01*
G01*
X44250000Y-79615000D01*
G75*
G02*
X44400000Y-79465000I150000J0D01*
G01*
X46050000Y-79465000D01*
G75*
G02*
X46200000Y-79615000I0J-150000D01*
G01*
G37*
G36*
G01*
X46200000Y-80885000D02*
X46200000Y-81185000D01*
G75*
G02*
X46050000Y-81335000I-150000J0D01*
G01*
X44400000Y-81335000D01*
G75*
G02*
X44250000Y-81185000I0J150000D01*
G01*
X44250000Y-80885000D01*
G75*
G02*
X44400000Y-80735000I150000J0D01*
G01*
X46050000Y-80735000D01*
G75*
G02*
X46200000Y-80885000I0J-150000D01*
G01*
G37*
G36*
G01*
X46200000Y-82155000D02*
X46200000Y-82455000D01*
G75*
G02*
X46050000Y-82605000I-150000J0D01*
G01*
X44400000Y-82605000D01*
G75*
G02*
X44250000Y-82455000I0J150000D01*
G01*
X44250000Y-82155000D01*
G75*
G02*
X44400000Y-82005000I150000J0D01*
G01*
X46050000Y-82005000D01*
G75*
G02*
X46200000Y-82155000I0J-150000D01*
G01*
G37*
G36*
G01*
X46200000Y-83425000D02*
X46200000Y-83725000D01*
G75*
G02*
X46050000Y-83875000I-150000J0D01*
G01*
X44400000Y-83875000D01*
G75*
G02*
X44250000Y-83725000I0J150000D01*
G01*
X44250000Y-83425000D01*
G75*
G02*
X44400000Y-83275000I150000J0D01*
G01*
X46050000Y-83275000D01*
G75*
G02*
X46200000Y-83425000I0J-150000D01*
G01*
G37*
G36*
G01*
X46200000Y-84695000D02*
X46200000Y-84995000D01*
G75*
G02*
X46050000Y-85145000I-150000J0D01*
G01*
X44400000Y-85145000D01*
G75*
G02*
X44250000Y-84995000I0J150000D01*
G01*
X44250000Y-84695000D01*
G75*
G02*
X44400000Y-84545000I150000J0D01*
G01*
X46050000Y-84545000D01*
G75*
G02*
X46200000Y-84695000I0J-150000D01*
G01*
G37*
%TD*%
%TO.C,C3*%
G36*
G01*
X52255000Y-69635000D02*
X51945000Y-69635000D01*
G75*
G02*
X51790000Y-69480000I0J155000D01*
G01*
X51790000Y-69055000D01*
G75*
G02*
X51945000Y-68900000I155000J0D01*
G01*
X52255000Y-68900000D01*
G75*
G02*
X52410000Y-69055000I0J-155000D01*
G01*
X52410000Y-69480000D01*
G75*
G02*
X52255000Y-69635000I-155000J0D01*
G01*
G37*
G36*
G01*
X52255000Y-68500000D02*
X51945000Y-68500000D01*
G75*
G02*
X51790000Y-68345000I0J155000D01*
G01*
X51790000Y-67920000D01*
G75*
G02*
X51945000Y-67765000I155000J0D01*
G01*
X52255000Y-67765000D01*
G75*
G02*
X52410000Y-67920000I0J-155000D01*
G01*
X52410000Y-68345000D01*
G75*
G02*
X52255000Y-68500000I-155000J0D01*
G01*
G37*
%TD*%
%TO.C,U4*%
G36*
G01*
X51150000Y-72995000D02*
X51150000Y-73295000D01*
G75*
G02*
X51000000Y-73445000I-150000J0D01*
G01*
X49350000Y-73445000D01*
G75*
G02*
X49200000Y-73295000I0J150000D01*
G01*
X49200000Y-72995000D01*
G75*
G02*
X49350000Y-72845000I150000J0D01*
G01*
X51000000Y-72845000D01*
G75*
G02*
X51150000Y-72995000I0J-150000D01*
G01*
G37*
G36*
G01*
X51150000Y-71725000D02*
X51150000Y-72025000D01*
G75*
G02*
X51000000Y-72175000I-150000J0D01*
G01*
X49350000Y-72175000D01*
G75*
G02*
X49200000Y-72025000I0J150000D01*
G01*
X49200000Y-71725000D01*
G75*
G02*
X49350000Y-71575000I150000J0D01*
G01*
X51000000Y-71575000D01*
G75*
G02*
X51150000Y-71725000I0J-150000D01*
G01*
G37*
G36*
G01*
X51150000Y-70455000D02*
X51150000Y-70755000D01*
G75*
G02*
X51000000Y-70905000I-150000J0D01*
G01*
X49350000Y-70905000D01*
G75*
G02*
X49200000Y-70755000I0J150000D01*
G01*
X49200000Y-70455000D01*
G75*
G02*
X49350000Y-70305000I150000J0D01*
G01*
X51000000Y-70305000D01*
G75*
G02*
X51150000Y-70455000I0J-150000D01*
G01*
G37*
G36*
G01*
X51150000Y-69185000D02*
X51150000Y-69485000D01*
G75*
G02*
X51000000Y-69635000I-150000J0D01*
G01*
X49350000Y-69635000D01*
G75*
G02*
X49200000Y-69485000I0J150000D01*
G01*
X49200000Y-69185000D01*
G75*
G02*
X49350000Y-69035000I150000J0D01*
G01*
X51000000Y-69035000D01*
G75*
G02*
X51150000Y-69185000I0J-150000D01*
G01*
G37*
G36*
G01*
X51150000Y-67915000D02*
X51150000Y-68215000D01*
G75*
G02*
X51000000Y-68365000I-150000J0D01*
G01*
X49350000Y-68365000D01*
G75*
G02*
X49200000Y-68215000I0J150000D01*
G01*
X49200000Y-67915000D01*
G75*
G02*
X49350000Y-67765000I150000J0D01*
G01*
X51000000Y-67765000D01*
G75*
G02*
X51150000Y-67915000I0J-150000D01*
G01*
G37*
G36*
G01*
X51150000Y-66645000D02*
X51150000Y-66945000D01*
G75*
G02*
X51000000Y-67095000I-150000J0D01*
G01*
X49350000Y-67095000D01*
G75*
G02*
X49200000Y-66945000I0J150000D01*
G01*
X49200000Y-66645000D01*
G75*
G02*
X49350000Y-66495000I150000J0D01*
G01*
X51000000Y-66495000D01*
G75*
G02*
X51150000Y-66645000I0J-150000D01*
G01*
G37*
G36*
G01*
X51150000Y-65375000D02*
X51150000Y-65675000D01*
G75*
G02*
X51000000Y-65825000I-150000J0D01*
G01*
X49350000Y-65825000D01*
G75*
G02*
X49200000Y-65675000I0J150000D01*
G01*
X49200000Y-65375000D01*
G75*
G02*
X49350000Y-65225000I150000J0D01*
G01*
X51000000Y-65225000D01*
G75*
G02*
X51150000Y-65375000I0J-150000D01*
G01*
G37*
G36*
G01*
X51150000Y-64105000D02*
X51150000Y-64405000D01*
G75*
G02*
X51000000Y-64555000I-150000J0D01*
G01*
X49350000Y-64555000D01*
G75*
G02*
X49200000Y-64405000I0J150000D01*
G01*
X49200000Y-64105000D01*
G75*
G02*
X49350000Y-63955000I150000J0D01*
G01*
X51000000Y-63955000D01*
G75*
G02*
X51150000Y-64105000I0J-150000D01*
G01*
G37*
G36*
G01*
X46200000Y-64105000D02*
X46200000Y-64405000D01*
G75*
G02*
X46050000Y-64555000I-150000J0D01*
G01*
X44400000Y-64555000D01*
G75*
G02*
X44250000Y-64405000I0J150000D01*
G01*
X44250000Y-64105000D01*
G75*
G02*
X44400000Y-63955000I150000J0D01*
G01*
X46050000Y-63955000D01*
G75*
G02*
X46200000Y-64105000I0J-150000D01*
G01*
G37*
G36*
G01*
X46200000Y-65375000D02*
X46200000Y-65675000D01*
G75*
G02*
X46050000Y-65825000I-150000J0D01*
G01*
X44400000Y-65825000D01*
G75*
G02*
X44250000Y-65675000I0J150000D01*
G01*
X44250000Y-65375000D01*
G75*
G02*
X44400000Y-65225000I150000J0D01*
G01*
X46050000Y-65225000D01*
G75*
G02*
X46200000Y-65375000I0J-150000D01*
G01*
G37*
G36*
G01*
X46200000Y-66645000D02*
X46200000Y-66945000D01*
G75*
G02*
X46050000Y-67095000I-150000J0D01*
G01*
X44400000Y-67095000D01*
G75*
G02*
X44250000Y-66945000I0J150000D01*
G01*
X44250000Y-66645000D01*
G75*
G02*
X44400000Y-66495000I150000J0D01*
G01*
X46050000Y-66495000D01*
G75*
G02*
X46200000Y-66645000I0J-150000D01*
G01*
G37*
G36*
G01*
X46200000Y-67915000D02*
X46200000Y-68215000D01*
G75*
G02*
X46050000Y-68365000I-150000J0D01*
G01*
X44400000Y-68365000D01*
G75*
G02*
X44250000Y-68215000I0J150000D01*
G01*
X44250000Y-67915000D01*
G75*
G02*
X44400000Y-67765000I150000J0D01*
G01*
X46050000Y-67765000D01*
G75*
G02*
X46200000Y-67915000I0J-150000D01*
G01*
G37*
G36*
G01*
X46200000Y-69185000D02*
X46200000Y-69485000D01*
G75*
G02*
X46050000Y-69635000I-150000J0D01*
G01*
X44400000Y-69635000D01*
G75*
G02*
X44250000Y-69485000I0J150000D01*
G01*
X44250000Y-69185000D01*
G75*
G02*
X44400000Y-69035000I150000J0D01*
G01*
X46050000Y-69035000D01*
G75*
G02*
X46200000Y-69185000I0J-150000D01*
G01*
G37*
G36*
G01*
X46200000Y-70455000D02*
X46200000Y-70755000D01*
G75*
G02*
X46050000Y-70905000I-150000J0D01*
G01*
X44400000Y-70905000D01*
G75*
G02*
X44250000Y-70755000I0J150000D01*
G01*
X44250000Y-70455000D01*
G75*
G02*
X44400000Y-70305000I150000J0D01*
G01*
X46050000Y-70305000D01*
G75*
G02*
X46200000Y-70455000I0J-150000D01*
G01*
G37*
G36*
G01*
X46200000Y-71725000D02*
X46200000Y-72025000D01*
G75*
G02*
X46050000Y-72175000I-150000J0D01*
G01*
X44400000Y-72175000D01*
G75*
G02*
X44250000Y-72025000I0J150000D01*
G01*
X44250000Y-71725000D01*
G75*
G02*
X44400000Y-71575000I150000J0D01*
G01*
X46050000Y-71575000D01*
G75*
G02*
X46200000Y-71725000I0J-150000D01*
G01*
G37*
G36*
G01*
X46200000Y-72995000D02*
X46200000Y-73295000D01*
G75*
G02*
X46050000Y-73445000I-150000J0D01*
G01*
X44400000Y-73445000D01*
G75*
G02*
X44250000Y-73295000I0J150000D01*
G01*
X44250000Y-72995000D01*
G75*
G02*
X44400000Y-72845000I150000J0D01*
G01*
X46050000Y-72845000D01*
G75*
G02*
X46200000Y-72995000I0J-150000D01*
G01*
G37*
%TD*%
M02*
