%TF.GenerationSoftware,KiCad,Pcbnew,9.0.0*%
%TF.CreationDate,2025-03-11T15:03:30-04:00*%
%TF.ProjectId,PicoLVDS,5069636f-4c56-4445-932e-6b696361645f,2*%
%TF.SameCoordinates,Original*%
%TF.FileFunction,Copper,L3,Inr*%
%TF.FilePolarity,Positive*%
%FSLAX46Y46*%
G04 Gerber Fmt 4.6, Leading zero omitted, Abs format (unit mm)*
G04 Created by KiCad (PCBNEW 9.0.0) date 2025-03-11 15:03:30*
%MOMM*%
%LPD*%
G01*
G04 APERTURE LIST*
%TA.AperFunction,ComponentPad*%
%ADD10R,1.700000X1.700000*%
%TD*%
%TA.AperFunction,ComponentPad*%
%ADD11O,1.700000X1.700000*%
%TD*%
%TA.AperFunction,ViaPad*%
%ADD12C,0.600000*%
%TD*%
G04 APERTURE END LIST*
D10*
%TO.N,/Out_0+*%
%TO.C,J1*%
X33750000Y-43740000D03*
D11*
%TO.N,/Out_0-*%
X36290000Y-43740000D03*
%TO.N,/Out_1+*%
X33750000Y-46280000D03*
%TO.N,/Out_1-*%
X36290000Y-46280000D03*
%TO.N,/Out_2+*%
X33750000Y-48820000D03*
%TO.N,/Out_2-*%
X36290000Y-48820000D03*
%TO.N,/Out_3+*%
X33750000Y-51360000D03*
%TO.N,/Out_3-*%
X36290000Y-51360000D03*
%TO.N,/Out_4+*%
X33750000Y-53900000D03*
%TO.N,/Out_4-*%
X36290000Y-53900000D03*
%TO.N,/Out_5+*%
X33750000Y-56440000D03*
%TO.N,/Out_5-*%
X36290000Y-56440000D03*
%TO.N,/Out_6+*%
X33750000Y-58980000D03*
%TO.N,/Out_6-*%
X36290000Y-58980000D03*
%TO.N,/Out_7+*%
X33750000Y-61520000D03*
%TO.N,/Out_7-*%
X36290000Y-61520000D03*
%TO.N,/Out_8+*%
X33750000Y-64060000D03*
%TO.N,/Out_8-*%
X36290000Y-64060000D03*
%TO.N,/Out_9+*%
X33750000Y-66600000D03*
%TO.N,/Out_9-*%
X36290000Y-66600000D03*
%TO.N,/Out_10+*%
X33750000Y-69140000D03*
%TO.N,/Out_10-*%
X36290000Y-69140000D03*
%TO.N,/Out_11+*%
X33750000Y-71680000D03*
%TO.N,/Out_11-*%
X36290000Y-71680000D03*
%TO.N,/Out_12+*%
X33750000Y-74220000D03*
%TO.N,/Out_12-*%
X36290000Y-74220000D03*
%TO.N,/Out_13+*%
X33750000Y-76760000D03*
%TO.N,/Out_13-*%
X36290000Y-76760000D03*
%TO.N,/Out_14+*%
X33750000Y-79300000D03*
%TO.N,/Out_14-*%
X36290000Y-79300000D03*
%TO.N,/Out_15+*%
X33750000Y-81840000D03*
%TO.N,/Out_15-*%
X36290000Y-81840000D03*
%TO.N,unconnected-(J1-Pin_33-Pad33)*%
X33750000Y-84380000D03*
%TO.N,unconnected-(J1-Pin_34-Pad34)*%
X36290000Y-84380000D03*
%TD*%
%TO.N,/D0*%
%TO.C,U1*%
X62750000Y-38760000D03*
%TO.N,/D1*%
X62750000Y-41300000D03*
D10*
%TO.N,GND*%
X62750000Y-43840000D03*
D11*
%TO.N,/D2*%
X62750000Y-46380000D03*
%TO.N,/D3*%
X62750000Y-48920000D03*
%TO.N,/D4*%
X62750000Y-51460000D03*
%TO.N,/D5*%
X62750000Y-54000000D03*
D10*
%TO.N,GND*%
X62750000Y-56540000D03*
D11*
%TO.N,/D6*%
X62750000Y-59080000D03*
%TO.N,/D7*%
X62750000Y-61620000D03*
%TO.N,/D8*%
X62750000Y-64160000D03*
%TO.N,/D9*%
X62750000Y-66700000D03*
D10*
%TO.N,GND*%
X62750000Y-69240000D03*
D11*
%TO.N,/D10*%
X62750000Y-71780000D03*
%TO.N,/D11*%
X62750000Y-74320000D03*
%TO.N,/D12*%
X62750000Y-76860000D03*
%TO.N,/D13*%
X62750000Y-79400000D03*
D10*
%TO.N,GND*%
X62750000Y-81940000D03*
D11*
%TO.N,/D14*%
X62750000Y-84480000D03*
%TO.N,/D15*%
X62750000Y-87020000D03*
%TO.N,unconnected-(U1-GPIO16-Pad21)*%
X80530000Y-87020000D03*
%TO.N,unconnected-(U1-GPIO17-Pad22)*%
X80530000Y-84480000D03*
D10*
%TO.N,GND*%
X80530000Y-81940000D03*
D11*
%TO.N,unconnected-(U1-GPIO18-Pad24)_1*%
X80530000Y-79400000D03*
%TO.N,unconnected-(U1-GPIO19-Pad25)_1*%
X80530000Y-76860000D03*
%TO.N,unconnected-(U1-GPIO20-Pad26)_1*%
X80530000Y-74320000D03*
%TO.N,unconnected-(U1-GPIO21-Pad27)_1*%
X80530000Y-71780000D03*
D10*
%TO.N,GND*%
X80530000Y-69240000D03*
D11*
%TO.N,unconnected-(U1-GPIO22-Pad29)*%
X80530000Y-66700000D03*
%TO.N,unconnected-(U1-RUN-Pad30)*%
X80530000Y-64160000D03*
%TO.N,unconnected-(U1-GPIO26_ADC0-Pad31)*%
X80530000Y-61620000D03*
%TO.N,unconnected-(U1-GPIO27_ADC1-Pad32)_1*%
X80530000Y-59080000D03*
D10*
%TO.N,unconnected-(U1-AGND-Pad33)_1*%
X80530000Y-56540000D03*
D11*
%TO.N,unconnected-(U1-GPIO28_ADC2-Pad34)*%
X80530000Y-54000000D03*
%TO.N,unconnected-(U1-ADC_VREF-Pad35)*%
X80530000Y-51460000D03*
%TO.N,+3V3*%
X80530000Y-48920000D03*
%TO.N,unconnected-(U1-3V3_EN-Pad37)*%
X80530000Y-46380000D03*
D10*
%TO.N,GND*%
X80530000Y-43840000D03*
D11*
%TO.N,unconnected-(U1-VSYS-Pad39)_1*%
X80530000Y-41300000D03*
%TO.N,unconnected-(U1-VBUS-Pad40)*%
X80530000Y-38760000D03*
%TO.N,unconnected-(U1-SWCLK-Pad41)_1*%
X69100000Y-86790000D03*
D10*
%TO.N,unconnected-(U1-GND-Pad42)_1*%
X71640000Y-86790000D03*
D11*
%TO.N,unconnected-(U1-SWDIO-Pad43)*%
X74180000Y-86790000D03*
%TD*%
D12*
%TO.N,+3V3*%
X52750000Y-69250000D03*
X52750000Y-57750000D03*
X51500000Y-81110000D03*
X50175000Y-51800000D03*
X50200000Y-40100000D03*
X50175000Y-62200000D03*
X51500000Y-45935000D03*
X52750000Y-46000000D03*
X50175000Y-50500000D03*
X50175000Y-75200000D03*
X51500000Y-57635000D03*
X51500000Y-69267500D03*
X53000000Y-81000000D03*
X50175000Y-73900000D03*
X50175000Y-63500000D03*
X50200000Y-85600000D03*
%TO.N,GND*%
X52750000Y-68000000D03*
X52750000Y-44500000D03*
X51500000Y-56365000D03*
X51500000Y-68132500D03*
X52750000Y-56250000D03*
X51500000Y-79932500D03*
X51500000Y-44665000D03*
X53000000Y-79750000D03*
%TD*%
%TA.AperFunction,Conductor*%
%TO.N,+3V3*%
G36*
X61350287Y-37720185D02*
G01*
X61396042Y-37772989D01*
X61405986Y-37842147D01*
X61383566Y-37897385D01*
X61370868Y-37914862D01*
X61255639Y-38141012D01*
X61177204Y-38382408D01*
X61137500Y-38633088D01*
X61137500Y-38886911D01*
X61177204Y-39137591D01*
X61177205Y-39137595D01*
X61255638Y-39378985D01*
X61370866Y-39605134D01*
X61520054Y-39810473D01*
X61520056Y-39810475D01*
X61651900Y-39942319D01*
X61685385Y-40003642D01*
X61680401Y-40073334D01*
X61651900Y-40117681D01*
X61520056Y-40249524D01*
X61520056Y-40249525D01*
X61520054Y-40249527D01*
X61474739Y-40311898D01*
X61370866Y-40454865D01*
X61255639Y-40681012D01*
X61177204Y-40922408D01*
X61137500Y-41173088D01*
X61137500Y-41426911D01*
X61177204Y-41677591D01*
X61177205Y-41677595D01*
X61255638Y-41918985D01*
X61370866Y-42145134D01*
X61433033Y-42230699D01*
X61456513Y-42296504D01*
X61440688Y-42364558D01*
X61420397Y-42391265D01*
X61297810Y-42513852D01*
X61204237Y-42665557D01*
X61204235Y-42665562D01*
X61148169Y-42834757D01*
X61148168Y-42834764D01*
X61137500Y-42939181D01*
X61137500Y-44740803D01*
X61137501Y-44740819D01*
X61148169Y-44845242D01*
X61204235Y-45014437D01*
X61204237Y-45014442D01*
X61297812Y-45166150D01*
X61420396Y-45288734D01*
X61453881Y-45350057D01*
X61448897Y-45419749D01*
X61433033Y-45449301D01*
X61370866Y-45534865D01*
X61255639Y-45761012D01*
X61177204Y-46002408D01*
X61137500Y-46253088D01*
X61137500Y-46506911D01*
X61177204Y-46757591D01*
X61177205Y-46757595D01*
X61255638Y-46998985D01*
X61370866Y-47225134D01*
X61520054Y-47430473D01*
X61520056Y-47430475D01*
X61651900Y-47562319D01*
X61685385Y-47623642D01*
X61680401Y-47693334D01*
X61651900Y-47737681D01*
X61520056Y-47869524D01*
X61520056Y-47869525D01*
X61520054Y-47869527D01*
X61496989Y-47901273D01*
X61370866Y-48074865D01*
X61255639Y-48301012D01*
X61177204Y-48542408D01*
X61137500Y-48793088D01*
X61137500Y-49046911D01*
X61177204Y-49297591D01*
X61177205Y-49297595D01*
X61255638Y-49538985D01*
X61370866Y-49765134D01*
X61520054Y-49970473D01*
X61520056Y-49970475D01*
X61651900Y-50102319D01*
X61685385Y-50163642D01*
X61680401Y-50233334D01*
X61651900Y-50277681D01*
X61520056Y-50409524D01*
X61520056Y-50409525D01*
X61520054Y-50409527D01*
X61455983Y-50497712D01*
X61370866Y-50614865D01*
X61255639Y-50841012D01*
X61177204Y-51082408D01*
X61137500Y-51333088D01*
X61137500Y-51586911D01*
X61177204Y-51837591D01*
X61177205Y-51837595D01*
X61255638Y-52078985D01*
X61370866Y-52305134D01*
X61520054Y-52510473D01*
X61520056Y-52510475D01*
X61651900Y-52642319D01*
X61685385Y-52703642D01*
X61680401Y-52773334D01*
X61651900Y-52817681D01*
X61520056Y-52949524D01*
X61520056Y-52949525D01*
X61520054Y-52949527D01*
X61455983Y-53037712D01*
X61370866Y-53154865D01*
X61255639Y-53381012D01*
X61177204Y-53622408D01*
X61137500Y-53873088D01*
X61137500Y-54126911D01*
X61177204Y-54377591D01*
X61177205Y-54377595D01*
X61255638Y-54618985D01*
X61370866Y-54845134D01*
X61433033Y-54930699D01*
X61456513Y-54996504D01*
X61440688Y-55064558D01*
X61420397Y-55091265D01*
X61297810Y-55213852D01*
X61204237Y-55365557D01*
X61204235Y-55365562D01*
X61148169Y-55534757D01*
X61148168Y-55534764D01*
X61137500Y-55639181D01*
X61137500Y-57440803D01*
X61137501Y-57440819D01*
X61148169Y-57545242D01*
X61204235Y-57714437D01*
X61204237Y-57714442D01*
X61297812Y-57866150D01*
X61420396Y-57988734D01*
X61453881Y-58050057D01*
X61448897Y-58119749D01*
X61433033Y-58149301D01*
X61370866Y-58234865D01*
X61255639Y-58461012D01*
X61177204Y-58702408D01*
X61137500Y-58953088D01*
X61137500Y-59206911D01*
X61177204Y-59457591D01*
X61177205Y-59457595D01*
X61255638Y-59698985D01*
X61370866Y-59925134D01*
X61520054Y-60130473D01*
X61520056Y-60130475D01*
X61651900Y-60262319D01*
X61685385Y-60323642D01*
X61680401Y-60393334D01*
X61651900Y-60437681D01*
X61520056Y-60569524D01*
X61520056Y-60569525D01*
X61520054Y-60569527D01*
X61455983Y-60657712D01*
X61370866Y-60774865D01*
X61255639Y-61001012D01*
X61177204Y-61242408D01*
X61137500Y-61493088D01*
X61137500Y-61746911D01*
X61177204Y-61997591D01*
X61177205Y-61997595D01*
X61255638Y-62238985D01*
X61370866Y-62465134D01*
X61520054Y-62670473D01*
X61520056Y-62670475D01*
X61651900Y-62802319D01*
X61685385Y-62863642D01*
X61680401Y-62933334D01*
X61651900Y-62977681D01*
X61520056Y-63109524D01*
X61520056Y-63109525D01*
X61520054Y-63109527D01*
X61455983Y-63197712D01*
X61370866Y-63314865D01*
X61255639Y-63541012D01*
X61177204Y-63782408D01*
X61137500Y-64033088D01*
X61137500Y-64286911D01*
X61177204Y-64537591D01*
X61177205Y-64537595D01*
X61255638Y-64778985D01*
X61370866Y-65005134D01*
X61520054Y-65210473D01*
X61520056Y-65210475D01*
X61651900Y-65342319D01*
X61685385Y-65403642D01*
X61680401Y-65473334D01*
X61651900Y-65517681D01*
X61520056Y-65649524D01*
X61520056Y-65649525D01*
X61520054Y-65649527D01*
X61455983Y-65737712D01*
X61370866Y-65854865D01*
X61255639Y-66081012D01*
X61177204Y-66322408D01*
X61137500Y-66573088D01*
X61137500Y-66826911D01*
X61176002Y-67070000D01*
X61177205Y-67077595D01*
X61255638Y-67318985D01*
X61370866Y-67545134D01*
X61433033Y-67630699D01*
X61456513Y-67696504D01*
X61440688Y-67764558D01*
X61420397Y-67791265D01*
X61297810Y-67913852D01*
X61204237Y-68065557D01*
X61204235Y-68065562D01*
X61148169Y-68234757D01*
X61148168Y-68234764D01*
X61137500Y-68339181D01*
X61137500Y-70140803D01*
X61137501Y-70140819D01*
X61148169Y-70245242D01*
X61204235Y-70414437D01*
X61204237Y-70414442D01*
X61297812Y-70566150D01*
X61420396Y-70688734D01*
X61453881Y-70750057D01*
X61448897Y-70819749D01*
X61433033Y-70849301D01*
X61370866Y-70934865D01*
X61255639Y-71161012D01*
X61177204Y-71402408D01*
X61137500Y-71653088D01*
X61137500Y-71906911D01*
X61177204Y-72157591D01*
X61177205Y-72157595D01*
X61255638Y-72398985D01*
X61370866Y-72625134D01*
X61520054Y-72830473D01*
X61520056Y-72830475D01*
X61651900Y-72962319D01*
X61685385Y-73023642D01*
X61680401Y-73093334D01*
X61651900Y-73137681D01*
X61520056Y-73269524D01*
X61520056Y-73269525D01*
X61520054Y-73269527D01*
X61455983Y-73357712D01*
X61370866Y-73474865D01*
X61255639Y-73701012D01*
X61177204Y-73942408D01*
X61137500Y-74193088D01*
X61137500Y-74446911D01*
X61177204Y-74697591D01*
X61177205Y-74697595D01*
X61255638Y-74938985D01*
X61370866Y-75165134D01*
X61520054Y-75370473D01*
X61520056Y-75370475D01*
X61651900Y-75502319D01*
X61685385Y-75563642D01*
X61680401Y-75633334D01*
X61651900Y-75677681D01*
X61520056Y-75809524D01*
X61520056Y-75809525D01*
X61520054Y-75809527D01*
X61455983Y-75897712D01*
X61370866Y-76014865D01*
X61255639Y-76241012D01*
X61177204Y-76482408D01*
X61137500Y-76733088D01*
X61137500Y-76986911D01*
X61177204Y-77237591D01*
X61177205Y-77237595D01*
X61255638Y-77478985D01*
X61370866Y-77705134D01*
X61520054Y-77910473D01*
X61520056Y-77910475D01*
X61651900Y-78042319D01*
X61685385Y-78103642D01*
X61680401Y-78173334D01*
X61651900Y-78217681D01*
X61520056Y-78349524D01*
X61520056Y-78349525D01*
X61520054Y-78349527D01*
X61455983Y-78437712D01*
X61370866Y-78554865D01*
X61255639Y-78781012D01*
X61177204Y-79022408D01*
X61137500Y-79273088D01*
X61137500Y-79526911D01*
X61177204Y-79777591D01*
X61177205Y-79777595D01*
X61255638Y-80018985D01*
X61370866Y-80245134D01*
X61433033Y-80330699D01*
X61456513Y-80396504D01*
X61440688Y-80464558D01*
X61420397Y-80491265D01*
X61297810Y-80613852D01*
X61204237Y-80765557D01*
X61204235Y-80765562D01*
X61148169Y-80934757D01*
X61148168Y-80934764D01*
X61137500Y-81039181D01*
X61137500Y-82840803D01*
X61137501Y-82840819D01*
X61148169Y-82945242D01*
X61204235Y-83114437D01*
X61204237Y-83114442D01*
X61297812Y-83266150D01*
X61420396Y-83388734D01*
X61453881Y-83450057D01*
X61448897Y-83519749D01*
X61433033Y-83549301D01*
X61370866Y-83634865D01*
X61255639Y-83861012D01*
X61177204Y-84102408D01*
X61137500Y-84353088D01*
X61137500Y-84606911D01*
X61177204Y-84857591D01*
X61177205Y-84857595D01*
X61255638Y-85098985D01*
X61370866Y-85325134D01*
X61520054Y-85530473D01*
X61520056Y-85530475D01*
X61651900Y-85662319D01*
X61685385Y-85723642D01*
X61680401Y-85793334D01*
X61651900Y-85837681D01*
X61520056Y-85969524D01*
X61520056Y-85969525D01*
X61520054Y-85969527D01*
X61503363Y-85992500D01*
X61370866Y-86174865D01*
X61255639Y-86401012D01*
X61177204Y-86642408D01*
X61137500Y-86893088D01*
X61137500Y-87146911D01*
X61177204Y-87397591D01*
X61177205Y-87397595D01*
X61255638Y-87638985D01*
X61370866Y-87865134D01*
X61520054Y-88070473D01*
X61699527Y-88249946D01*
X61904866Y-88399134D01*
X62131015Y-88514362D01*
X62372405Y-88592795D01*
X62466413Y-88607684D01*
X62623089Y-88632500D01*
X62623094Y-88632500D01*
X62876911Y-88632500D01*
X63016177Y-88610441D01*
X63127595Y-88592795D01*
X63368985Y-88514362D01*
X63595134Y-88399134D01*
X63800473Y-88249946D01*
X63979946Y-88070473D01*
X64129134Y-87865134D01*
X64244362Y-87638985D01*
X64322795Y-87397595D01*
X64340441Y-87286177D01*
X64362500Y-87146911D01*
X64362500Y-86893088D01*
X64328373Y-86677620D01*
X64326071Y-86663088D01*
X67487500Y-86663088D01*
X67487500Y-86916911D01*
X67523928Y-87146906D01*
X67527205Y-87167595D01*
X67605638Y-87408985D01*
X67720866Y-87635134D01*
X67870054Y-87840473D01*
X68049527Y-88019946D01*
X68254866Y-88169134D01*
X68481015Y-88284362D01*
X68722405Y-88362795D01*
X68816413Y-88377684D01*
X68973089Y-88402500D01*
X68973094Y-88402500D01*
X69226911Y-88402500D01*
X69366177Y-88380441D01*
X69477595Y-88362795D01*
X69718985Y-88284362D01*
X69945134Y-88169134D01*
X70030699Y-88106966D01*
X70096503Y-88083486D01*
X70164557Y-88099311D01*
X70191265Y-88119603D01*
X70313851Y-88242189D01*
X70465560Y-88335764D01*
X70634759Y-88391831D01*
X70739189Y-88402500D01*
X72540810Y-88402499D01*
X72645241Y-88391831D01*
X72814440Y-88335764D01*
X72966149Y-88242189D01*
X73088737Y-88119600D01*
X73150056Y-88086118D01*
X73219748Y-88091102D01*
X73249301Y-88106967D01*
X73334861Y-88169131D01*
X73334863Y-88169132D01*
X73334866Y-88169134D01*
X73561015Y-88284362D01*
X73802405Y-88362795D01*
X73896413Y-88377684D01*
X74053089Y-88402500D01*
X74053094Y-88402500D01*
X74306911Y-88402500D01*
X74446177Y-88380441D01*
X74557595Y-88362795D01*
X74798985Y-88284362D01*
X75025134Y-88169134D01*
X75230473Y-88019946D01*
X75409946Y-87840473D01*
X75559134Y-87635134D01*
X75674362Y-87408985D01*
X75752795Y-87167595D01*
X75770441Y-87056177D01*
X75792500Y-86916911D01*
X75792500Y-86663088D01*
X75752795Y-86412408D01*
X75752795Y-86412405D01*
X75674362Y-86171015D01*
X75559134Y-85944866D01*
X75409946Y-85739527D01*
X75230473Y-85560054D01*
X75025134Y-85410866D01*
X74881753Y-85337810D01*
X74798987Y-85295639D01*
X74798986Y-85295638D01*
X74798985Y-85295638D01*
X74557595Y-85217205D01*
X74557593Y-85217204D01*
X74557591Y-85217204D01*
X74306911Y-85177500D01*
X74306906Y-85177500D01*
X74053094Y-85177500D01*
X74053089Y-85177500D01*
X73802408Y-85217204D01*
X73561012Y-85295639D01*
X73334865Y-85410866D01*
X73281555Y-85449599D01*
X73261939Y-85463851D01*
X73249301Y-85473033D01*
X73183494Y-85496513D01*
X73115440Y-85480688D01*
X73088734Y-85460396D01*
X72966150Y-85337812D01*
X72966149Y-85337811D01*
X72814440Y-85244236D01*
X72732863Y-85217204D01*
X72645242Y-85188169D01*
X72645235Y-85188168D01*
X72540812Y-85177500D01*
X70739196Y-85177500D01*
X70739180Y-85177501D01*
X70634757Y-85188169D01*
X70465562Y-85244235D01*
X70465557Y-85244237D01*
X70313852Y-85337810D01*
X70191265Y-85460397D01*
X70129942Y-85493881D01*
X70060250Y-85488897D01*
X70030701Y-85473035D01*
X69945134Y-85410866D01*
X69801753Y-85337810D01*
X69718987Y-85295639D01*
X69718986Y-85295638D01*
X69718985Y-85295638D01*
X69477595Y-85217205D01*
X69477593Y-85217204D01*
X69477591Y-85217204D01*
X69226911Y-85177500D01*
X69226906Y-85177500D01*
X68973094Y-85177500D01*
X68973089Y-85177500D01*
X68722408Y-85217204D01*
X68481012Y-85295639D01*
X68254865Y-85410866D01*
X68147466Y-85488897D01*
X68049527Y-85560054D01*
X68049525Y-85560056D01*
X68049524Y-85560056D01*
X67870056Y-85739524D01*
X67870056Y-85739525D01*
X67870054Y-85739527D01*
X67855809Y-85759134D01*
X67720866Y-85944865D01*
X67605639Y-86171012D01*
X67527204Y-86412408D01*
X67487500Y-86663088D01*
X64326071Y-86663088D01*
X64322795Y-86642407D01*
X64322795Y-86642405D01*
X64244362Y-86401015D01*
X64129134Y-86174866D01*
X63979946Y-85969527D01*
X63848100Y-85837681D01*
X63814615Y-85776358D01*
X63819599Y-85706666D01*
X63848100Y-85662319D01*
X63900476Y-85609943D01*
X63979946Y-85530473D01*
X64129134Y-85325134D01*
X64244362Y-85098985D01*
X64322795Y-84857595D01*
X64340441Y-84746177D01*
X64362500Y-84606911D01*
X64362500Y-84353088D01*
X64322795Y-84102408D01*
X64322795Y-84102405D01*
X64244362Y-83861015D01*
X64129134Y-83634866D01*
X64129132Y-83634863D01*
X64129131Y-83634861D01*
X64066967Y-83549301D01*
X64043486Y-83483495D01*
X64059311Y-83415441D01*
X64079596Y-83388741D01*
X64202189Y-83266149D01*
X64295764Y-83114440D01*
X64351831Y-82945241D01*
X64362500Y-82840811D01*
X64362499Y-81039190D01*
X64351831Y-80934759D01*
X64295764Y-80765560D01*
X64202189Y-80613851D01*
X64079603Y-80491265D01*
X64046118Y-80429942D01*
X64051102Y-80360250D01*
X64066964Y-80330702D01*
X64129134Y-80245134D01*
X64244362Y-80018985D01*
X64322795Y-79777595D01*
X64347347Y-79622579D01*
X64362500Y-79526911D01*
X64362500Y-79273088D01*
X64330760Y-79072693D01*
X64322795Y-79022405D01*
X64244362Y-78781015D01*
X64129134Y-78554866D01*
X63979946Y-78349527D01*
X63848100Y-78217681D01*
X63814615Y-78156358D01*
X63819599Y-78086666D01*
X63848100Y-78042319D01*
X63903753Y-77986666D01*
X63979946Y-77910473D01*
X64129134Y-77705134D01*
X64244362Y-77478985D01*
X64322795Y-77237595D01*
X64340441Y-77126177D01*
X64362500Y-76986911D01*
X64362500Y-76733088D01*
X64322795Y-76482408D01*
X64322795Y-76482405D01*
X64244362Y-76241015D01*
X64129134Y-76014866D01*
X63979946Y-75809527D01*
X63848100Y-75677681D01*
X63814615Y-75616358D01*
X63819599Y-75546666D01*
X63848100Y-75502319D01*
X63903753Y-75446666D01*
X63979946Y-75370473D01*
X64129134Y-75165134D01*
X64244362Y-74938985D01*
X64322795Y-74697595D01*
X64340441Y-74586177D01*
X64362500Y-74446911D01*
X64362500Y-74193088D01*
X64322795Y-73942408D01*
X64322795Y-73942405D01*
X64244362Y-73701015D01*
X64129134Y-73474866D01*
X63979946Y-73269527D01*
X63848100Y-73137681D01*
X63814615Y-73076358D01*
X63819599Y-73006666D01*
X63848100Y-72962319D01*
X63903753Y-72906666D01*
X63979946Y-72830473D01*
X64129134Y-72625134D01*
X64244362Y-72398985D01*
X64322795Y-72157595D01*
X64340441Y-72046177D01*
X64362500Y-71906911D01*
X64362500Y-71653088D01*
X64322795Y-71402408D01*
X64322795Y-71402405D01*
X64244362Y-71161015D01*
X64129134Y-70934866D01*
X64129132Y-70934863D01*
X64129131Y-70934861D01*
X64066967Y-70849301D01*
X64043486Y-70783495D01*
X64059311Y-70715441D01*
X64079596Y-70688741D01*
X64202189Y-70566149D01*
X64295764Y-70414440D01*
X64351831Y-70245241D01*
X64362500Y-70140811D01*
X64362499Y-68339190D01*
X64351831Y-68234759D01*
X64295764Y-68065560D01*
X64202189Y-67913851D01*
X64079603Y-67791265D01*
X64046118Y-67729942D01*
X64051102Y-67660250D01*
X64066964Y-67630702D01*
X64129134Y-67545134D01*
X64244362Y-67318985D01*
X64322795Y-67077595D01*
X64344984Y-66937500D01*
X64362500Y-66826911D01*
X64362500Y-66573088D01*
X64322795Y-66322408D01*
X64322795Y-66322405D01*
X64244362Y-66081015D01*
X64129134Y-65854866D01*
X63979946Y-65649527D01*
X63848100Y-65517681D01*
X63814615Y-65456358D01*
X63819599Y-65386666D01*
X63848100Y-65342319D01*
X63903753Y-65286666D01*
X63979946Y-65210473D01*
X64129134Y-65005134D01*
X64244362Y-64778985D01*
X64322795Y-64537595D01*
X64340441Y-64426177D01*
X64362500Y-64286911D01*
X64362500Y-64033088D01*
X64322795Y-63782408D01*
X64322795Y-63782405D01*
X64244362Y-63541015D01*
X64129134Y-63314866D01*
X63979946Y-63109527D01*
X63848100Y-62977681D01*
X63814615Y-62916358D01*
X63819599Y-62846666D01*
X63848100Y-62802319D01*
X63903753Y-62746666D01*
X63979946Y-62670473D01*
X64129134Y-62465134D01*
X64244362Y-62238985D01*
X64322795Y-61997595D01*
X64340441Y-61886177D01*
X64362500Y-61746911D01*
X64362500Y-61493088D01*
X64322795Y-61242408D01*
X64322795Y-61242405D01*
X64244362Y-61001015D01*
X64129134Y-60774866D01*
X63979946Y-60569527D01*
X63848100Y-60437681D01*
X63814615Y-60376358D01*
X63819599Y-60306666D01*
X63848100Y-60262319D01*
X63903753Y-60206666D01*
X63979946Y-60130473D01*
X64129134Y-59925134D01*
X64244362Y-59698985D01*
X64322795Y-59457595D01*
X64340441Y-59346177D01*
X64362500Y-59206911D01*
X64362500Y-58953088D01*
X64322795Y-58702408D01*
X64322795Y-58702405D01*
X64244362Y-58461015D01*
X64129134Y-58234866D01*
X64129132Y-58234863D01*
X64129131Y-58234861D01*
X64066967Y-58149301D01*
X64043486Y-58083495D01*
X64059311Y-58015441D01*
X64079596Y-57988741D01*
X64202189Y-57866149D01*
X64295764Y-57714440D01*
X64351831Y-57545241D01*
X64362500Y-57440811D01*
X64362499Y-55639190D01*
X64351831Y-55534759D01*
X64295764Y-55365560D01*
X64202189Y-55213851D01*
X64079603Y-55091265D01*
X64046118Y-55029942D01*
X64051102Y-54960250D01*
X64066964Y-54930702D01*
X64129134Y-54845134D01*
X64244362Y-54618985D01*
X64322795Y-54377595D01*
X64340441Y-54266177D01*
X64362500Y-54126911D01*
X64362500Y-53873088D01*
X64322795Y-53622408D01*
X64322795Y-53622405D01*
X64244362Y-53381015D01*
X64129134Y-53154866D01*
X63979946Y-52949527D01*
X63848100Y-52817681D01*
X63814615Y-52756358D01*
X63819599Y-52686666D01*
X63848100Y-52642319D01*
X63903753Y-52586666D01*
X63979946Y-52510473D01*
X64129134Y-52305134D01*
X64244362Y-52078985D01*
X64322795Y-51837595D01*
X64340441Y-51726177D01*
X64362500Y-51586911D01*
X64362500Y-51333088D01*
X64322795Y-51082408D01*
X64322795Y-51082405D01*
X64244362Y-50841015D01*
X64129134Y-50614866D01*
X63979946Y-50409527D01*
X63848100Y-50277681D01*
X63814615Y-50216358D01*
X63819599Y-50146666D01*
X63848100Y-50102319D01*
X63903753Y-50046666D01*
X63979946Y-49970473D01*
X64129134Y-49765134D01*
X64244362Y-49538985D01*
X64322795Y-49297595D01*
X64351422Y-49116853D01*
X64362500Y-49046911D01*
X64362500Y-48793088D01*
X64333002Y-48606853D01*
X64322795Y-48542405D01*
X64244362Y-48301015D01*
X64129134Y-48074866D01*
X63979946Y-47869527D01*
X63848100Y-47737681D01*
X63814615Y-47676358D01*
X63819599Y-47606666D01*
X63848100Y-47562319D01*
X63903753Y-47506666D01*
X63979946Y-47430473D01*
X64129134Y-47225134D01*
X64244362Y-46998985D01*
X64322795Y-46757595D01*
X64340441Y-46646177D01*
X64362500Y-46506911D01*
X64362500Y-46253088D01*
X64322795Y-46002408D01*
X64322795Y-46002405D01*
X64244362Y-45761015D01*
X64129134Y-45534866D01*
X64129132Y-45534863D01*
X64129131Y-45534861D01*
X64066967Y-45449301D01*
X64043486Y-45383495D01*
X64059311Y-45315441D01*
X64079596Y-45288741D01*
X64202189Y-45166149D01*
X64295764Y-45014440D01*
X64351831Y-44845241D01*
X64362500Y-44740811D01*
X64362499Y-42939190D01*
X64351831Y-42834759D01*
X64295764Y-42665560D01*
X64202189Y-42513851D01*
X64079603Y-42391265D01*
X64046118Y-42329942D01*
X64051102Y-42260250D01*
X64066964Y-42230702D01*
X64129134Y-42145134D01*
X64244362Y-41918985D01*
X64322795Y-41677595D01*
X64340498Y-41565820D01*
X64362500Y-41426911D01*
X64362500Y-41173088D01*
X64336030Y-41005968D01*
X64322795Y-40922405D01*
X64244362Y-40681015D01*
X64129134Y-40454866D01*
X63979946Y-40249527D01*
X63848100Y-40117681D01*
X63814615Y-40056358D01*
X63819599Y-39986666D01*
X63848100Y-39942319D01*
X63979946Y-39810473D01*
X64129134Y-39605134D01*
X64244362Y-39378985D01*
X64322795Y-39137595D01*
X64341287Y-39020842D01*
X64362500Y-38886911D01*
X64362500Y-38633088D01*
X64322795Y-38382408D01*
X64322795Y-38382405D01*
X64244362Y-38141015D01*
X64129134Y-37914866D01*
X64127686Y-37912874D01*
X64116434Y-37897385D01*
X64092954Y-37831579D01*
X64108779Y-37763525D01*
X64158885Y-37714830D01*
X64216752Y-37700500D01*
X67480895Y-37700500D01*
X67547934Y-37720185D01*
X67593689Y-37772989D01*
X67603633Y-37842147D01*
X67581213Y-37897386D01*
X67493102Y-38018659D01*
X67374302Y-38251816D01*
X67293435Y-38500696D01*
X67252500Y-38759152D01*
X67252500Y-39020847D01*
X67293435Y-39279303D01*
X67374302Y-39528183D01*
X67413511Y-39605134D01*
X67493102Y-39761340D01*
X67646916Y-39973046D01*
X67831954Y-40158084D01*
X68043660Y-40311898D01*
X68276821Y-40430699D01*
X68331992Y-40448625D01*
X68389668Y-40488063D01*
X68416866Y-40552421D01*
X68404951Y-40621268D01*
X68366560Y-40666874D01*
X68229670Y-40766331D01*
X68061332Y-40934669D01*
X68061332Y-40934670D01*
X68061330Y-40934672D01*
X68001232Y-41017388D01*
X67921394Y-41127276D01*
X67813310Y-41339400D01*
X67813309Y-41339403D01*
X67739743Y-41565820D01*
X67702500Y-41800964D01*
X67702500Y-42039035D01*
X67739743Y-42274179D01*
X67813309Y-42500596D01*
X67813310Y-42500599D01*
X67897363Y-42665560D01*
X67921394Y-42712723D01*
X68061330Y-42905328D01*
X68229672Y-43073670D01*
X68422277Y-43213606D01*
X68526317Y-43266617D01*
X68634400Y-43321689D01*
X68634403Y-43321690D01*
X68747611Y-43358473D01*
X68860822Y-43395257D01*
X69095964Y-43432500D01*
X69095965Y-43432500D01*
X69334035Y-43432500D01*
X69334036Y-43432500D01*
X69569178Y-43395257D01*
X69795599Y-43321689D01*
X70007723Y-43213606D01*
X70200328Y-43073670D01*
X70368670Y-42905328D01*
X70508606Y-42712723D01*
X70616689Y-42500599D01*
X70690257Y-42274178D01*
X70727500Y-42039036D01*
X70727500Y-41800964D01*
X70690257Y-41565822D01*
X70653473Y-41452611D01*
X70616690Y-41339403D01*
X70616689Y-41339400D01*
X70508605Y-41127276D01*
X70368670Y-40934672D01*
X70200328Y-40766330D01*
X70007723Y-40626394D01*
X69978578Y-40611544D01*
X69803460Y-40522316D01*
X69752664Y-40474341D01*
X69735869Y-40406520D01*
X69758407Y-40340385D01*
X69786866Y-40311515D01*
X69998046Y-40158084D01*
X70183084Y-39973046D01*
X70336898Y-39761340D01*
X70455699Y-39528179D01*
X70536564Y-39279303D01*
X70577500Y-39020847D01*
X70577500Y-38759152D01*
X70536564Y-38500696D01*
X70455697Y-38251816D01*
X70336897Y-38018659D01*
X70248787Y-37897386D01*
X70225307Y-37831579D01*
X70241132Y-37763525D01*
X70291238Y-37714830D01*
X70349105Y-37700500D01*
X72930895Y-37700500D01*
X72997934Y-37720185D01*
X73043689Y-37772989D01*
X73053633Y-37842147D01*
X73031213Y-37897386D01*
X72943102Y-38018659D01*
X72824302Y-38251816D01*
X72743435Y-38500696D01*
X72702500Y-38759152D01*
X72702500Y-39020847D01*
X72743435Y-39279303D01*
X72824302Y-39528183D01*
X72863511Y-39605134D01*
X72943102Y-39761340D01*
X73096916Y-39973046D01*
X73281954Y-40158084D01*
X73407814Y-40249527D01*
X73493130Y-40311513D01*
X73535795Y-40366843D01*
X73541774Y-40436457D01*
X73509168Y-40498252D01*
X73476539Y-40522315D01*
X73272281Y-40626390D01*
X73143873Y-40719684D01*
X73079672Y-40766330D01*
X73079670Y-40766332D01*
X73079669Y-40766332D01*
X72911332Y-40934669D01*
X72911332Y-40934670D01*
X72911330Y-40934672D01*
X72851232Y-41017388D01*
X72771394Y-41127276D01*
X72663310Y-41339400D01*
X72663309Y-41339403D01*
X72589743Y-41565820D01*
X72552500Y-41800964D01*
X72552500Y-42039035D01*
X72589743Y-42274179D01*
X72663309Y-42500596D01*
X72663310Y-42500599D01*
X72747363Y-42665560D01*
X72771394Y-42712723D01*
X72911330Y-42905328D01*
X73079672Y-43073670D01*
X73272277Y-43213606D01*
X73376317Y-43266617D01*
X73484400Y-43321689D01*
X73484403Y-43321690D01*
X73597611Y-43358473D01*
X73710822Y-43395257D01*
X73945964Y-43432500D01*
X73945965Y-43432500D01*
X74184035Y-43432500D01*
X74184036Y-43432500D01*
X74419178Y-43395257D01*
X74645599Y-43321689D01*
X74857723Y-43213606D01*
X75050328Y-43073670D01*
X75218670Y-42905328D01*
X75358606Y-42712723D01*
X75466689Y-42500599D01*
X75540257Y-42274178D01*
X75577500Y-42039036D01*
X75577500Y-41800964D01*
X75540257Y-41565822D01*
X75503473Y-41452611D01*
X75466690Y-41339403D01*
X75466689Y-41339400D01*
X75358605Y-41127276D01*
X75218670Y-40934672D01*
X75050328Y-40766330D01*
X74913439Y-40666874D01*
X74870774Y-40611544D01*
X74864795Y-40541930D01*
X74897401Y-40480135D01*
X74948005Y-40448626D01*
X75003179Y-40430699D01*
X75236340Y-40311898D01*
X75448046Y-40158084D01*
X75633084Y-39973046D01*
X75786898Y-39761340D01*
X75905699Y-39528179D01*
X75986564Y-39279303D01*
X76027500Y-39020847D01*
X76027500Y-38759152D01*
X75986564Y-38500696D01*
X75905697Y-38251816D01*
X75786897Y-38018659D01*
X75698787Y-37897386D01*
X75675307Y-37831579D01*
X75691132Y-37763525D01*
X75741238Y-37714830D01*
X75799105Y-37700500D01*
X79063248Y-37700500D01*
X79130287Y-37720185D01*
X79176042Y-37772989D01*
X79185986Y-37842147D01*
X79163566Y-37897385D01*
X79150868Y-37914862D01*
X79035639Y-38141012D01*
X78957204Y-38382408D01*
X78917500Y-38633088D01*
X78917500Y-38886911D01*
X78957204Y-39137591D01*
X78957205Y-39137595D01*
X79035638Y-39378985D01*
X79150866Y-39605134D01*
X79300054Y-39810473D01*
X79300056Y-39810475D01*
X79431900Y-39942319D01*
X79465385Y-40003642D01*
X79460401Y-40073334D01*
X79431900Y-40117681D01*
X79300056Y-40249524D01*
X79300056Y-40249525D01*
X79300054Y-40249527D01*
X79254739Y-40311898D01*
X79150866Y-40454865D01*
X79035639Y-40681012D01*
X78957204Y-40922408D01*
X78917500Y-41173088D01*
X78917500Y-41426911D01*
X78957204Y-41677591D01*
X78957205Y-41677595D01*
X79035638Y-41918985D01*
X79150866Y-42145134D01*
X79213033Y-42230699D01*
X79236513Y-42296504D01*
X79220688Y-42364558D01*
X79200397Y-42391265D01*
X79077810Y-42513852D01*
X78984237Y-42665557D01*
X78984235Y-42665562D01*
X78928169Y-42834757D01*
X78928168Y-42834764D01*
X78917500Y-42939181D01*
X78917500Y-44740803D01*
X78917501Y-44740819D01*
X78928169Y-44845242D01*
X78984235Y-45014437D01*
X78984237Y-45014442D01*
X79077812Y-45166150D01*
X79200396Y-45288734D01*
X79233881Y-45350057D01*
X79228897Y-45419749D01*
X79213033Y-45449301D01*
X79150866Y-45534865D01*
X79035639Y-45761012D01*
X78957204Y-46002408D01*
X78917500Y-46253088D01*
X78917500Y-46506911D01*
X78957204Y-46757591D01*
X78957205Y-46757595D01*
X79035638Y-46998985D01*
X79150866Y-47225134D01*
X79300054Y-47430473D01*
X79479527Y-47609946D01*
X79570935Y-47676358D01*
X79623481Y-47714535D01*
X79666147Y-47769865D01*
X79672126Y-47839478D01*
X79639520Y-47901273D01*
X79638278Y-47902534D01*
X79500271Y-48040541D01*
X79375379Y-48212442D01*
X79278904Y-48401782D01*
X79213242Y-48603870D01*
X79213242Y-48603873D01*
X79202769Y-48670000D01*
X80085440Y-48670000D01*
X80054755Y-48723147D01*
X80020000Y-48852857D01*
X80020000Y-48987143D01*
X80054755Y-49116853D01*
X80085440Y-49170000D01*
X79202769Y-49170000D01*
X79213242Y-49236126D01*
X79213242Y-49236129D01*
X79278904Y-49438217D01*
X79375379Y-49627557D01*
X79500272Y-49799459D01*
X79500276Y-49799464D01*
X79638277Y-49937465D01*
X79671762Y-49998788D01*
X79666778Y-50068480D01*
X79624906Y-50124413D01*
X79623482Y-50125464D01*
X79612650Y-50133334D01*
X79479527Y-50230054D01*
X79479525Y-50230056D01*
X79479524Y-50230056D01*
X79300056Y-50409524D01*
X79300056Y-50409525D01*
X79300054Y-50409527D01*
X79235983Y-50497712D01*
X79150866Y-50614865D01*
X79035639Y-50841012D01*
X78957204Y-51082408D01*
X78917500Y-51333088D01*
X78917500Y-51586911D01*
X78957204Y-51837591D01*
X78957205Y-51837595D01*
X79035638Y-52078985D01*
X79150866Y-52305134D01*
X79300054Y-52510473D01*
X79300056Y-52510475D01*
X79431900Y-52642319D01*
X79465385Y-52703642D01*
X79460401Y-52773334D01*
X79431900Y-52817681D01*
X79300056Y-52949524D01*
X79300056Y-52949525D01*
X79300054Y-52949527D01*
X79235983Y-53037712D01*
X79150866Y-53154865D01*
X79035639Y-53381012D01*
X78957204Y-53622408D01*
X78917500Y-53873088D01*
X78917500Y-54126911D01*
X78957204Y-54377591D01*
X78957205Y-54377595D01*
X79035638Y-54618985D01*
X79150866Y-54845134D01*
X79213033Y-54930699D01*
X79236513Y-54996504D01*
X79220688Y-55064558D01*
X79200397Y-55091265D01*
X79077810Y-55213852D01*
X78984237Y-55365557D01*
X78984235Y-55365562D01*
X78928169Y-55534757D01*
X78928168Y-55534764D01*
X78917500Y-55639181D01*
X78917500Y-57440803D01*
X78917501Y-57440819D01*
X78928169Y-57545242D01*
X78984235Y-57714437D01*
X78984237Y-57714442D01*
X79077812Y-57866150D01*
X79200396Y-57988734D01*
X79233881Y-58050057D01*
X79228897Y-58119749D01*
X79213033Y-58149301D01*
X79150866Y-58234865D01*
X79035639Y-58461012D01*
X78957204Y-58702408D01*
X78917500Y-58953088D01*
X78917500Y-59206911D01*
X78957204Y-59457591D01*
X78957205Y-59457595D01*
X79035638Y-59698985D01*
X79150866Y-59925134D01*
X79300054Y-60130473D01*
X79300056Y-60130475D01*
X79431900Y-60262319D01*
X79465385Y-60323642D01*
X79460401Y-60393334D01*
X79431900Y-60437681D01*
X79300056Y-60569524D01*
X79300056Y-60569525D01*
X79300054Y-60569527D01*
X79235983Y-60657712D01*
X79150866Y-60774865D01*
X79035639Y-61001012D01*
X78957204Y-61242408D01*
X78917500Y-61493088D01*
X78917500Y-61746911D01*
X78957204Y-61997591D01*
X78957205Y-61997595D01*
X79035638Y-62238985D01*
X79150866Y-62465134D01*
X79300054Y-62670473D01*
X79300056Y-62670475D01*
X79431900Y-62802319D01*
X79465385Y-62863642D01*
X79460401Y-62933334D01*
X79431900Y-62977681D01*
X79300056Y-63109524D01*
X79300056Y-63109525D01*
X79300054Y-63109527D01*
X79235983Y-63197712D01*
X79150866Y-63314865D01*
X79035639Y-63541012D01*
X78957204Y-63782408D01*
X78917500Y-64033088D01*
X78917500Y-64286911D01*
X78957204Y-64537591D01*
X78957205Y-64537595D01*
X79035638Y-64778985D01*
X79150866Y-65005134D01*
X79300054Y-65210473D01*
X79300056Y-65210475D01*
X79431900Y-65342319D01*
X79465385Y-65403642D01*
X79460401Y-65473334D01*
X79431900Y-65517681D01*
X79300056Y-65649524D01*
X79300056Y-65649525D01*
X79300054Y-65649527D01*
X79235983Y-65737712D01*
X79150866Y-65854865D01*
X79035639Y-66081012D01*
X78957204Y-66322408D01*
X78917500Y-66573088D01*
X78917500Y-66826911D01*
X78956002Y-67070000D01*
X78957205Y-67077595D01*
X79035638Y-67318985D01*
X79150866Y-67545134D01*
X79213033Y-67630699D01*
X79236513Y-67696504D01*
X79220688Y-67764558D01*
X79200397Y-67791265D01*
X79077810Y-67913852D01*
X78984237Y-68065557D01*
X78984235Y-68065562D01*
X78928169Y-68234757D01*
X78928168Y-68234764D01*
X78917500Y-68339181D01*
X78917500Y-70140803D01*
X78917501Y-70140819D01*
X78928169Y-70245242D01*
X78984235Y-70414437D01*
X78984237Y-70414442D01*
X79077812Y-70566150D01*
X79200396Y-70688734D01*
X79233881Y-70750057D01*
X79228897Y-70819749D01*
X79213033Y-70849301D01*
X79150866Y-70934865D01*
X79035639Y-71161012D01*
X78957204Y-71402408D01*
X78917500Y-71653088D01*
X78917500Y-71906911D01*
X78957204Y-72157591D01*
X78957205Y-72157595D01*
X79035638Y-72398985D01*
X79150866Y-72625134D01*
X79300054Y-72830473D01*
X79300056Y-72830475D01*
X79431900Y-72962319D01*
X79465385Y-73023642D01*
X79460401Y-73093334D01*
X79431900Y-73137681D01*
X79300056Y-73269524D01*
X79300056Y-73269525D01*
X79300054Y-73269527D01*
X79235983Y-73357712D01*
X79150866Y-73474865D01*
X79035639Y-73701012D01*
X78957204Y-73942408D01*
X78917500Y-74193088D01*
X78917500Y-74446911D01*
X78957204Y-74697591D01*
X78957205Y-74697595D01*
X79035638Y-74938985D01*
X79150866Y-75165134D01*
X79300054Y-75370473D01*
X79300056Y-75370475D01*
X79431900Y-75502319D01*
X79465385Y-75563642D01*
X79460401Y-75633334D01*
X79431900Y-75677681D01*
X79300056Y-75809524D01*
X79300056Y-75809525D01*
X79300054Y-75809527D01*
X79235983Y-75897712D01*
X79150866Y-76014865D01*
X79035639Y-76241012D01*
X78957204Y-76482408D01*
X78917500Y-76733088D01*
X78917500Y-76986911D01*
X78957204Y-77237591D01*
X78957205Y-77237595D01*
X79035638Y-77478985D01*
X79150866Y-77705134D01*
X79300054Y-77910473D01*
X79300056Y-77910475D01*
X79431900Y-78042319D01*
X79465385Y-78103642D01*
X79460401Y-78173334D01*
X79431900Y-78217681D01*
X79300056Y-78349524D01*
X79300056Y-78349525D01*
X79300054Y-78349527D01*
X79235983Y-78437712D01*
X79150866Y-78554865D01*
X79035639Y-78781012D01*
X78957204Y-79022408D01*
X78917500Y-79273088D01*
X78917500Y-79526911D01*
X78957204Y-79777591D01*
X78957205Y-79777595D01*
X79035638Y-80018985D01*
X79150866Y-80245134D01*
X79213033Y-80330699D01*
X79236513Y-80396504D01*
X79220688Y-80464558D01*
X79200397Y-80491265D01*
X79077810Y-80613852D01*
X78984237Y-80765557D01*
X78984235Y-80765562D01*
X78928169Y-80934757D01*
X78928168Y-80934764D01*
X78917500Y-81039181D01*
X78917500Y-82840803D01*
X78917501Y-82840819D01*
X78928169Y-82945242D01*
X78984235Y-83114437D01*
X78984237Y-83114442D01*
X79077812Y-83266150D01*
X79200396Y-83388734D01*
X79233881Y-83450057D01*
X79228897Y-83519749D01*
X79213033Y-83549301D01*
X79150866Y-83634865D01*
X79035639Y-83861012D01*
X78957204Y-84102408D01*
X78917500Y-84353088D01*
X78917500Y-84606911D01*
X78957204Y-84857591D01*
X78957205Y-84857595D01*
X79035638Y-85098985D01*
X79150866Y-85325134D01*
X79300054Y-85530473D01*
X79300056Y-85530475D01*
X79431900Y-85662319D01*
X79465385Y-85723642D01*
X79460401Y-85793334D01*
X79431900Y-85837681D01*
X79300056Y-85969524D01*
X79300056Y-85969525D01*
X79300054Y-85969527D01*
X79283363Y-85992500D01*
X79150866Y-86174865D01*
X79035639Y-86401012D01*
X78957204Y-86642408D01*
X78917500Y-86893088D01*
X78917500Y-87146911D01*
X78957204Y-87397591D01*
X78957205Y-87397595D01*
X79035638Y-87638985D01*
X79150866Y-87865134D01*
X79300054Y-88070473D01*
X79479527Y-88249946D01*
X79684866Y-88399134D01*
X79911015Y-88514362D01*
X80152405Y-88592795D01*
X80246413Y-88607684D01*
X80403089Y-88632500D01*
X80403094Y-88632500D01*
X80656911Y-88632500D01*
X80796177Y-88610441D01*
X80907595Y-88592795D01*
X81148985Y-88514362D01*
X81375134Y-88399134D01*
X81580473Y-88249946D01*
X81759946Y-88070473D01*
X81909134Y-87865134D01*
X82024362Y-87638985D01*
X82102795Y-87397595D01*
X82120441Y-87286177D01*
X82142500Y-87146911D01*
X82142500Y-86893088D01*
X82108372Y-86677620D01*
X82102795Y-86642405D01*
X82024362Y-86401015D01*
X81909134Y-86174866D01*
X81759946Y-85969527D01*
X81628100Y-85837681D01*
X81594615Y-85776358D01*
X81599599Y-85706666D01*
X81628100Y-85662319D01*
X81680476Y-85609943D01*
X81759946Y-85530473D01*
X81909134Y-85325134D01*
X82024362Y-85098985D01*
X82102795Y-84857595D01*
X82120441Y-84746177D01*
X82142500Y-84606911D01*
X82142500Y-84353088D01*
X82102795Y-84102408D01*
X82102795Y-84102405D01*
X82024362Y-83861015D01*
X81909134Y-83634866D01*
X81909132Y-83634863D01*
X81909131Y-83634861D01*
X81846967Y-83549301D01*
X81823486Y-83483495D01*
X81839311Y-83415441D01*
X81859596Y-83388741D01*
X81982189Y-83266149D01*
X82075764Y-83114440D01*
X82131831Y-82945241D01*
X82142500Y-82840811D01*
X82142499Y-81039190D01*
X82131831Y-80934759D01*
X82075764Y-80765560D01*
X81982189Y-80613851D01*
X81859603Y-80491265D01*
X81826118Y-80429942D01*
X81831102Y-80360250D01*
X81846964Y-80330702D01*
X81909134Y-80245134D01*
X82024362Y-80018985D01*
X82102795Y-79777595D01*
X82127347Y-79622579D01*
X82142500Y-79526911D01*
X82142500Y-79273088D01*
X82110760Y-79072693D01*
X82102795Y-79022405D01*
X82024362Y-78781015D01*
X81909134Y-78554866D01*
X81759946Y-78349527D01*
X81628100Y-78217681D01*
X81594615Y-78156358D01*
X81599599Y-78086666D01*
X81628100Y-78042319D01*
X81683753Y-77986666D01*
X81759946Y-77910473D01*
X81909134Y-77705134D01*
X82024362Y-77478985D01*
X82102795Y-77237595D01*
X82120441Y-77126177D01*
X82142500Y-76986911D01*
X82142500Y-76733088D01*
X82102795Y-76482408D01*
X82102795Y-76482405D01*
X82024362Y-76241015D01*
X81909134Y-76014866D01*
X81759946Y-75809527D01*
X81628100Y-75677681D01*
X81594615Y-75616358D01*
X81599599Y-75546666D01*
X81628100Y-75502319D01*
X81683753Y-75446666D01*
X81759946Y-75370473D01*
X81909134Y-75165134D01*
X82024362Y-74938985D01*
X82102795Y-74697595D01*
X82120441Y-74586177D01*
X82142500Y-74446911D01*
X82142500Y-74193088D01*
X82102795Y-73942408D01*
X82102795Y-73942405D01*
X82024362Y-73701015D01*
X81909134Y-73474866D01*
X81759946Y-73269527D01*
X81628100Y-73137681D01*
X81594615Y-73076358D01*
X81599599Y-73006666D01*
X81628100Y-72962319D01*
X81683753Y-72906666D01*
X81759946Y-72830473D01*
X81909134Y-72625134D01*
X82024362Y-72398985D01*
X82102795Y-72157595D01*
X82120441Y-72046177D01*
X82142500Y-71906911D01*
X82142500Y-71653088D01*
X82102795Y-71402408D01*
X82102795Y-71402405D01*
X82024362Y-71161015D01*
X81909134Y-70934866D01*
X81909132Y-70934863D01*
X81909131Y-70934861D01*
X81846967Y-70849301D01*
X81823486Y-70783495D01*
X81839311Y-70715441D01*
X81859596Y-70688741D01*
X81982189Y-70566149D01*
X82075764Y-70414440D01*
X82131831Y-70245241D01*
X82142500Y-70140811D01*
X82142499Y-68339190D01*
X82131831Y-68234759D01*
X82075764Y-68065560D01*
X81982189Y-67913851D01*
X81859603Y-67791265D01*
X81826118Y-67729942D01*
X81831102Y-67660250D01*
X81846964Y-67630702D01*
X81909134Y-67545134D01*
X82024362Y-67318985D01*
X82102795Y-67077595D01*
X82124984Y-66937500D01*
X82142500Y-66826911D01*
X82142500Y-66573088D01*
X82102795Y-66322408D01*
X82102795Y-66322405D01*
X82024362Y-66081015D01*
X81909134Y-65854866D01*
X81759946Y-65649527D01*
X81628100Y-65517681D01*
X81594615Y-65456358D01*
X81599599Y-65386666D01*
X81628100Y-65342319D01*
X81683753Y-65286666D01*
X81759946Y-65210473D01*
X81909134Y-65005134D01*
X82024362Y-64778985D01*
X82102795Y-64537595D01*
X82120441Y-64426177D01*
X82142500Y-64286911D01*
X82142500Y-64033088D01*
X82102795Y-63782408D01*
X82102795Y-63782405D01*
X82024362Y-63541015D01*
X81909134Y-63314866D01*
X81759946Y-63109527D01*
X81628100Y-62977681D01*
X81594615Y-62916358D01*
X81599599Y-62846666D01*
X81628100Y-62802319D01*
X81683753Y-62746666D01*
X81759946Y-62670473D01*
X81909134Y-62465134D01*
X82024362Y-62238985D01*
X82102795Y-61997595D01*
X82120441Y-61886177D01*
X82142500Y-61746911D01*
X82142500Y-61493088D01*
X82102795Y-61242408D01*
X82102795Y-61242405D01*
X82024362Y-61001015D01*
X81909134Y-60774866D01*
X81759946Y-60569527D01*
X81628100Y-60437681D01*
X81594615Y-60376358D01*
X81599599Y-60306666D01*
X81628100Y-60262319D01*
X81683753Y-60206666D01*
X81759946Y-60130473D01*
X81909134Y-59925134D01*
X82024362Y-59698985D01*
X82102795Y-59457595D01*
X82120441Y-59346177D01*
X82142500Y-59206911D01*
X82142500Y-58953088D01*
X82102795Y-58702408D01*
X82102795Y-58702405D01*
X82024362Y-58461015D01*
X81909134Y-58234866D01*
X81909132Y-58234863D01*
X81909131Y-58234861D01*
X81846967Y-58149301D01*
X81823486Y-58083495D01*
X81839311Y-58015441D01*
X81859596Y-57988741D01*
X81982189Y-57866149D01*
X82075764Y-57714440D01*
X82131831Y-57545241D01*
X82142500Y-57440811D01*
X82142499Y-55639190D01*
X82131831Y-55534759D01*
X82075764Y-55365560D01*
X81982189Y-55213851D01*
X81859603Y-55091265D01*
X81826118Y-55029942D01*
X81831102Y-54960250D01*
X81846964Y-54930702D01*
X81909134Y-54845134D01*
X82024362Y-54618985D01*
X82102795Y-54377595D01*
X82120441Y-54266177D01*
X82142500Y-54126911D01*
X82142500Y-53873088D01*
X82102795Y-53622408D01*
X82102795Y-53622405D01*
X82024362Y-53381015D01*
X81909134Y-53154866D01*
X81759946Y-52949527D01*
X81628100Y-52817681D01*
X81594615Y-52756358D01*
X81599599Y-52686666D01*
X81628100Y-52642319D01*
X81683753Y-52586666D01*
X81759946Y-52510473D01*
X81909134Y-52305134D01*
X82024362Y-52078985D01*
X82102795Y-51837595D01*
X82120441Y-51726177D01*
X82142500Y-51586911D01*
X82142500Y-51333088D01*
X82102795Y-51082408D01*
X82102795Y-51082405D01*
X82024362Y-50841015D01*
X81909134Y-50614866D01*
X81759946Y-50409527D01*
X81580473Y-50230054D01*
X81436516Y-50125462D01*
X81393852Y-50070134D01*
X81387873Y-50000520D01*
X81420479Y-49938726D01*
X81421722Y-49937464D01*
X81559728Y-49799458D01*
X81684620Y-49627557D01*
X81781095Y-49438217D01*
X81846757Y-49236129D01*
X81846757Y-49236126D01*
X81857231Y-49170000D01*
X80974560Y-49170000D01*
X81005245Y-49116853D01*
X81040000Y-48987143D01*
X81040000Y-48852857D01*
X81005245Y-48723147D01*
X80974560Y-48670000D01*
X81857231Y-48670000D01*
X81846757Y-48603873D01*
X81846757Y-48603870D01*
X81781095Y-48401782D01*
X81684620Y-48212442D01*
X81559727Y-48040540D01*
X81559723Y-48040535D01*
X81421722Y-47902534D01*
X81388237Y-47841211D01*
X81393221Y-47771519D01*
X81435093Y-47715586D01*
X81436448Y-47714586D01*
X81580473Y-47609946D01*
X81759946Y-47430473D01*
X81909134Y-47225134D01*
X82024362Y-46998985D01*
X82102795Y-46757595D01*
X82120441Y-46646177D01*
X82142500Y-46506911D01*
X82142500Y-46253088D01*
X82102795Y-46002408D01*
X82102795Y-46002405D01*
X82024362Y-45761015D01*
X81909134Y-45534866D01*
X81909132Y-45534863D01*
X81909131Y-45534861D01*
X81846967Y-45449301D01*
X81823486Y-45383495D01*
X81839311Y-45315441D01*
X81859596Y-45288741D01*
X81982189Y-45166149D01*
X82075764Y-45014440D01*
X82131831Y-44845241D01*
X82142500Y-44740811D01*
X82142499Y-42939190D01*
X82131831Y-42834759D01*
X82075764Y-42665560D01*
X81982189Y-42513851D01*
X81859603Y-42391265D01*
X81826118Y-42329942D01*
X81831102Y-42260250D01*
X81846964Y-42230702D01*
X81909134Y-42145134D01*
X82024362Y-41918985D01*
X82102795Y-41677595D01*
X82120498Y-41565820D01*
X82142500Y-41426911D01*
X82142500Y-41173088D01*
X82116030Y-41005968D01*
X82102795Y-40922405D01*
X82024362Y-40681015D01*
X81909134Y-40454866D01*
X81759946Y-40249527D01*
X81628100Y-40117681D01*
X81594615Y-40056358D01*
X81599599Y-39986666D01*
X81628100Y-39942319D01*
X81759946Y-39810473D01*
X81909134Y-39605134D01*
X82024362Y-39378985D01*
X82102795Y-39137595D01*
X82121287Y-39020842D01*
X82142500Y-38886911D01*
X82142500Y-38633088D01*
X82102795Y-38382408D01*
X82102795Y-38382405D01*
X82024362Y-38141015D01*
X81909134Y-37914866D01*
X81907686Y-37912874D01*
X81896434Y-37897385D01*
X81872954Y-37831579D01*
X81888779Y-37763525D01*
X81938885Y-37714830D01*
X81996752Y-37700500D01*
X87375500Y-37700500D01*
X87442539Y-37720185D01*
X87488294Y-37772989D01*
X87499500Y-37824500D01*
X87499500Y-89375500D01*
X87479815Y-89442539D01*
X87427011Y-89488294D01*
X87375500Y-89499500D01*
X30624500Y-89499500D01*
X30557461Y-89479815D01*
X30511706Y-89427011D01*
X30500500Y-89375500D01*
X30500500Y-42839181D01*
X32137500Y-42839181D01*
X32137500Y-44640803D01*
X32137501Y-44640819D01*
X32148169Y-44745242D01*
X32204235Y-44914437D01*
X32204237Y-44914442D01*
X32297812Y-45066150D01*
X32420396Y-45188734D01*
X32453881Y-45250057D01*
X32448897Y-45319749D01*
X32433033Y-45349299D01*
X32413393Y-45376332D01*
X32370866Y-45434865D01*
X32255639Y-45661012D01*
X32177204Y-45902408D01*
X32137500Y-46153088D01*
X32137500Y-46406911D01*
X32153338Y-46506906D01*
X32177205Y-46657595D01*
X32255638Y-46898985D01*
X32370866Y-47125134D01*
X32520054Y-47330473D01*
X32520056Y-47330475D01*
X32651900Y-47462319D01*
X32685385Y-47523642D01*
X32680401Y-47593334D01*
X32651900Y-47637681D01*
X32520056Y-47769524D01*
X32520056Y-47769525D01*
X32520054Y-47769527D01*
X32467972Y-47841211D01*
X32370866Y-47974865D01*
X32255639Y-48201012D01*
X32177204Y-48442408D01*
X32137500Y-48693088D01*
X32137500Y-48946911D01*
X32172834Y-49170000D01*
X32177205Y-49197595D01*
X32255638Y-49438985D01*
X32370866Y-49665134D01*
X32520054Y-49870473D01*
X32520056Y-49870475D01*
X32651900Y-50002319D01*
X32685385Y-50063642D01*
X32680401Y-50133334D01*
X32651900Y-50177681D01*
X32520056Y-50309524D01*
X32520056Y-50309525D01*
X32520054Y-50309527D01*
X32455983Y-50397712D01*
X32370866Y-50514865D01*
X32255639Y-50741012D01*
X32177204Y-50982408D01*
X32137500Y-51233088D01*
X32137500Y-51486911D01*
X32153338Y-51586906D01*
X32177205Y-51737595D01*
X32255638Y-51978985D01*
X32370866Y-52205134D01*
X32520054Y-52410473D01*
X32520056Y-52410475D01*
X32651900Y-52542319D01*
X32685385Y-52603642D01*
X32680401Y-52673334D01*
X32651900Y-52717681D01*
X32520056Y-52849524D01*
X32520056Y-52849525D01*
X32520054Y-52849527D01*
X32455983Y-52937712D01*
X32370866Y-53054865D01*
X32255639Y-53281012D01*
X32177204Y-53522408D01*
X32137500Y-53773088D01*
X32137500Y-54026911D01*
X32153338Y-54126906D01*
X32177205Y-54277595D01*
X32255638Y-54518985D01*
X32370866Y-54745134D01*
X32520054Y-54950473D01*
X32520056Y-54950475D01*
X32651900Y-55082319D01*
X32685385Y-55143642D01*
X32680401Y-55213334D01*
X32651900Y-55257681D01*
X32520056Y-55389524D01*
X32520056Y-55389525D01*
X32520054Y-55389527D01*
X32474854Y-55451739D01*
X32370866Y-55594865D01*
X32255639Y-55821012D01*
X32177204Y-56062408D01*
X32137500Y-56313088D01*
X32137500Y-56566911D01*
X32177204Y-56817591D01*
X32177205Y-56817595D01*
X32255638Y-57058985D01*
X32370866Y-57285134D01*
X32520054Y-57490473D01*
X32520056Y-57490475D01*
X32651900Y-57622319D01*
X32685385Y-57683642D01*
X32680401Y-57753334D01*
X32651900Y-57797681D01*
X32520056Y-57929524D01*
X32520056Y-57929525D01*
X32520054Y-57929527D01*
X32474527Y-57992189D01*
X32370866Y-58134865D01*
X32255639Y-58361012D01*
X32177204Y-58602408D01*
X32137500Y-58853088D01*
X32137500Y-59106911D01*
X32153338Y-59206906D01*
X32177205Y-59357595D01*
X32255638Y-59598985D01*
X32370866Y-59825134D01*
X32520054Y-60030473D01*
X32520056Y-60030475D01*
X32651900Y-60162319D01*
X32685385Y-60223642D01*
X32680401Y-60293334D01*
X32651900Y-60337681D01*
X32520056Y-60469524D01*
X32520056Y-60469525D01*
X32520054Y-60469527D01*
X32455983Y-60557712D01*
X32370866Y-60674865D01*
X32255639Y-60901012D01*
X32177204Y-61142408D01*
X32137500Y-61393088D01*
X32137500Y-61646911D01*
X32153338Y-61746906D01*
X32177205Y-61897595D01*
X32255638Y-62138985D01*
X32370866Y-62365134D01*
X32520054Y-62570473D01*
X32520056Y-62570475D01*
X32651900Y-62702319D01*
X32685385Y-62763642D01*
X32680401Y-62833334D01*
X32651900Y-62877681D01*
X32520056Y-63009524D01*
X32520056Y-63009525D01*
X32520054Y-63009527D01*
X32455983Y-63097712D01*
X32370866Y-63214865D01*
X32255639Y-63441012D01*
X32177204Y-63682408D01*
X32137500Y-63933088D01*
X32137500Y-64186911D01*
X32153338Y-64286906D01*
X32177205Y-64437595D01*
X32255638Y-64678985D01*
X32370866Y-64905134D01*
X32520054Y-65110473D01*
X32520056Y-65110475D01*
X32651900Y-65242319D01*
X32685385Y-65303642D01*
X32680401Y-65373334D01*
X32651900Y-65417681D01*
X32520056Y-65549524D01*
X32520056Y-65549525D01*
X32520054Y-65549527D01*
X32455983Y-65637712D01*
X32370866Y-65754865D01*
X32255639Y-65981012D01*
X32177204Y-66222408D01*
X32137500Y-66473088D01*
X32137500Y-66726911D01*
X32177204Y-66977591D01*
X32177205Y-66977595D01*
X32255638Y-67218985D01*
X32370866Y-67445134D01*
X32520054Y-67650473D01*
X32520056Y-67650475D01*
X32651900Y-67782319D01*
X32685385Y-67843642D01*
X32680401Y-67913334D01*
X32651900Y-67957681D01*
X32520056Y-68089524D01*
X32520056Y-68089525D01*
X32520054Y-68089527D01*
X32455983Y-68177712D01*
X32370866Y-68294865D01*
X32255639Y-68521012D01*
X32177204Y-68762408D01*
X32137500Y-69013088D01*
X32137500Y-69266911D01*
X32177204Y-69517591D01*
X32177205Y-69517595D01*
X32255638Y-69758985D01*
X32370866Y-69985134D01*
X32520054Y-70190473D01*
X32520056Y-70190475D01*
X32651900Y-70322319D01*
X32685385Y-70383642D01*
X32680401Y-70453334D01*
X32651900Y-70497681D01*
X32520056Y-70629524D01*
X32520056Y-70629525D01*
X32520054Y-70629527D01*
X32474527Y-70692189D01*
X32370866Y-70834865D01*
X32255639Y-71061012D01*
X32177204Y-71302408D01*
X32137500Y-71553088D01*
X32137500Y-71806911D01*
X32153338Y-71906906D01*
X32177205Y-72057595D01*
X32255638Y-72298985D01*
X32370866Y-72525134D01*
X32520054Y-72730473D01*
X32520056Y-72730475D01*
X32651900Y-72862319D01*
X32685385Y-72923642D01*
X32680401Y-72993334D01*
X32651900Y-73037681D01*
X32520056Y-73169524D01*
X32520056Y-73169525D01*
X32520054Y-73169527D01*
X32455983Y-73257712D01*
X32370866Y-73374865D01*
X32255639Y-73601012D01*
X32177204Y-73842408D01*
X32137500Y-74093088D01*
X32137500Y-74346911D01*
X32153338Y-74446906D01*
X32177205Y-74597595D01*
X32255638Y-74838985D01*
X32370866Y-75065134D01*
X32520054Y-75270473D01*
X32520056Y-75270475D01*
X32651900Y-75402319D01*
X32685385Y-75463642D01*
X32680401Y-75533334D01*
X32651900Y-75577681D01*
X32520056Y-75709524D01*
X32520056Y-75709525D01*
X32520054Y-75709527D01*
X32455983Y-75797712D01*
X32370866Y-75914865D01*
X32255639Y-76141012D01*
X32177204Y-76382408D01*
X32137500Y-76633088D01*
X32137500Y-76886911D01*
X32153338Y-76986906D01*
X32177205Y-77137595D01*
X32255638Y-77378985D01*
X32370866Y-77605134D01*
X32520054Y-77810473D01*
X32520056Y-77810475D01*
X32651900Y-77942319D01*
X32685385Y-78003642D01*
X32680401Y-78073334D01*
X32651900Y-78117681D01*
X32520056Y-78249524D01*
X32520056Y-78249525D01*
X32520054Y-78249527D01*
X32455983Y-78337712D01*
X32370866Y-78454865D01*
X32255639Y-78681012D01*
X32177204Y-78922408D01*
X32137500Y-79173088D01*
X32137500Y-79426911D01*
X32172098Y-79645352D01*
X32177205Y-79677595D01*
X32255638Y-79918985D01*
X32370866Y-80145134D01*
X32520054Y-80350473D01*
X32520056Y-80350475D01*
X32651900Y-80482319D01*
X32685385Y-80543642D01*
X32680401Y-80613334D01*
X32651900Y-80657681D01*
X32520056Y-80789524D01*
X32520056Y-80789525D01*
X32520054Y-80789527D01*
X32458626Y-80874075D01*
X32370866Y-80994865D01*
X32255639Y-81221012D01*
X32177204Y-81462408D01*
X32137500Y-81713088D01*
X32137500Y-81966911D01*
X32177204Y-82217591D01*
X32177205Y-82217595D01*
X32255638Y-82458985D01*
X32370866Y-82685134D01*
X32520054Y-82890473D01*
X32520056Y-82890475D01*
X32651900Y-83022319D01*
X32685385Y-83083642D01*
X32680401Y-83153334D01*
X32651900Y-83197681D01*
X32520056Y-83329524D01*
X32520056Y-83329525D01*
X32520054Y-83329527D01*
X32474527Y-83392189D01*
X32370866Y-83534865D01*
X32255639Y-83761012D01*
X32177204Y-84002408D01*
X32137500Y-84253088D01*
X32137500Y-84506911D01*
X32153338Y-84606906D01*
X32177205Y-84757595D01*
X32209697Y-84857595D01*
X32255639Y-84998987D01*
X32366825Y-85217204D01*
X32370866Y-85225134D01*
X32520054Y-85430473D01*
X32699527Y-85609946D01*
X32904866Y-85759134D01*
X33131015Y-85874362D01*
X33372405Y-85952795D01*
X33466413Y-85967684D01*
X33623089Y-85992500D01*
X33623094Y-85992500D01*
X33876911Y-85992500D01*
X34016177Y-85970441D01*
X34127595Y-85952795D01*
X34368985Y-85874362D01*
X34595134Y-85759134D01*
X34800473Y-85609946D01*
X34932319Y-85478100D01*
X34993642Y-85444615D01*
X35063334Y-85449599D01*
X35107681Y-85478100D01*
X35239527Y-85609946D01*
X35444866Y-85759134D01*
X35671015Y-85874362D01*
X35912405Y-85952795D01*
X36006413Y-85967684D01*
X36163089Y-85992500D01*
X36163094Y-85992500D01*
X36416911Y-85992500D01*
X36556177Y-85970441D01*
X36667595Y-85952795D01*
X36908985Y-85874362D01*
X37135134Y-85759134D01*
X37340473Y-85609946D01*
X37519946Y-85430473D01*
X37669134Y-85225134D01*
X37784362Y-84998985D01*
X37862795Y-84757595D01*
X37886662Y-84606906D01*
X37902500Y-84506911D01*
X37902500Y-84253088D01*
X37862795Y-84002408D01*
X37862795Y-84002405D01*
X37784362Y-83761015D01*
X37669134Y-83534866D01*
X37519946Y-83329527D01*
X37388100Y-83197681D01*
X37354615Y-83136358D01*
X37359599Y-83066666D01*
X37388100Y-83022319D01*
X37519946Y-82890473D01*
X37669134Y-82685134D01*
X37784362Y-82458985D01*
X37862795Y-82217595D01*
X37880441Y-82106177D01*
X37902500Y-81966911D01*
X37902500Y-81713088D01*
X37862795Y-81462408D01*
X37862795Y-81462405D01*
X37784362Y-81221015D01*
X37669134Y-80994866D01*
X37519946Y-80789527D01*
X37388100Y-80657681D01*
X37354615Y-80596358D01*
X37359599Y-80526666D01*
X37388100Y-80482319D01*
X37443115Y-80427304D01*
X37519946Y-80350473D01*
X37669134Y-80145134D01*
X37784362Y-79918985D01*
X37813974Y-79827848D01*
X50437500Y-79827848D01*
X50437500Y-80037151D01*
X50478329Y-80242412D01*
X50478331Y-80242420D01*
X50558423Y-80435780D01*
X50674703Y-80609806D01*
X50822693Y-80757796D01*
X50996719Y-80874076D01*
X51093399Y-80914122D01*
X51190080Y-80954169D01*
X51394674Y-80994865D01*
X51395348Y-80994999D01*
X51395352Y-80995000D01*
X51395353Y-80995000D01*
X51604648Y-80995000D01*
X51604649Y-80994999D01*
X51809920Y-80954169D01*
X52003282Y-80874075D01*
X52177304Y-80757798D01*
X52272984Y-80662117D01*
X52334305Y-80628634D01*
X52403997Y-80633618D01*
X52429552Y-80646696D01*
X52496718Y-80691575D01*
X52690080Y-80771669D01*
X52895348Y-80812499D01*
X52895352Y-80812500D01*
X52895353Y-80812500D01*
X53104648Y-80812500D01*
X53104649Y-80812499D01*
X53309920Y-80771669D01*
X53503282Y-80691575D01*
X53677304Y-80575298D01*
X53825298Y-80427304D01*
X53941575Y-80253282D01*
X54021669Y-80059920D01*
X54062500Y-79854647D01*
X54062500Y-79645353D01*
X54021669Y-79440080D01*
X53981622Y-79343399D01*
X53941576Y-79246719D01*
X53825296Y-79072693D01*
X53677306Y-78924703D01*
X53503280Y-78808423D01*
X53309920Y-78728331D01*
X53309912Y-78728329D01*
X53104651Y-78687500D01*
X53104647Y-78687500D01*
X52895353Y-78687500D01*
X52895348Y-78687500D01*
X52690087Y-78728329D01*
X52690079Y-78728331D01*
X52496719Y-78808423D01*
X52322693Y-78924703D01*
X52322692Y-78924704D01*
X52227017Y-79020380D01*
X52165694Y-79053865D01*
X52096002Y-79048881D01*
X52070446Y-79035802D01*
X52047365Y-79020380D01*
X52003282Y-78990925D01*
X52003277Y-78990923D01*
X51809920Y-78910831D01*
X51809912Y-78910829D01*
X51604651Y-78870000D01*
X51604647Y-78870000D01*
X51395353Y-78870000D01*
X51395348Y-78870000D01*
X51190087Y-78910829D01*
X51190079Y-78910831D01*
X50996719Y-78990923D01*
X50822693Y-79107203D01*
X50674703Y-79255193D01*
X50558423Y-79429219D01*
X50478331Y-79622579D01*
X50478329Y-79622587D01*
X50437500Y-79827848D01*
X37813974Y-79827848D01*
X37862795Y-79677595D01*
X37886662Y-79526906D01*
X37902500Y-79426911D01*
X37902500Y-79173088D01*
X37863159Y-78924703D01*
X37862795Y-78922405D01*
X37784362Y-78681015D01*
X37669134Y-78454866D01*
X37519946Y-78249527D01*
X37388100Y-78117681D01*
X37354615Y-78056358D01*
X37359599Y-77986666D01*
X37388100Y-77942319D01*
X37419946Y-77910473D01*
X37519946Y-77810473D01*
X37669134Y-77605134D01*
X37784362Y-77378985D01*
X37862795Y-77137595D01*
X37886662Y-76986906D01*
X37902500Y-76886911D01*
X37902500Y-76633088D01*
X37862795Y-76382408D01*
X37862795Y-76382405D01*
X37784362Y-76141015D01*
X37669134Y-75914866D01*
X37519946Y-75709527D01*
X37388100Y-75577681D01*
X37354615Y-75516358D01*
X37359599Y-75446666D01*
X37388100Y-75402319D01*
X37419946Y-75370473D01*
X37519946Y-75270473D01*
X37669134Y-75065134D01*
X37784362Y-74838985D01*
X37862795Y-74597595D01*
X37886662Y-74446906D01*
X37902500Y-74346911D01*
X37902500Y-74093088D01*
X37862795Y-73842408D01*
X37862795Y-73842405D01*
X37784362Y-73601015D01*
X37669134Y-73374866D01*
X37519946Y-73169527D01*
X37388100Y-73037681D01*
X37354615Y-72976358D01*
X37359599Y-72906666D01*
X37388100Y-72862319D01*
X37419946Y-72830473D01*
X37519946Y-72730473D01*
X37669134Y-72525134D01*
X37784362Y-72298985D01*
X37862795Y-72057595D01*
X37886662Y-71906906D01*
X37902500Y-71806911D01*
X37902500Y-71553088D01*
X37862795Y-71302408D01*
X37862795Y-71302405D01*
X37784362Y-71061015D01*
X37669134Y-70834866D01*
X37519946Y-70629527D01*
X37388100Y-70497681D01*
X37354615Y-70436358D01*
X37359599Y-70366666D01*
X37388100Y-70322319D01*
X37519946Y-70190473D01*
X37669134Y-69985134D01*
X37784362Y-69758985D01*
X37862795Y-69517595D01*
X37880441Y-69406177D01*
X37902500Y-69266911D01*
X37902500Y-69013088D01*
X37872756Y-68825296D01*
X37862795Y-68762405D01*
X37784362Y-68521015D01*
X37669134Y-68294866D01*
X37519946Y-68089527D01*
X37458267Y-68027848D01*
X50437500Y-68027848D01*
X50437500Y-68237151D01*
X50478329Y-68442412D01*
X50478331Y-68442420D01*
X50558423Y-68635780D01*
X50674703Y-68809806D01*
X50822693Y-68957796D01*
X50996719Y-69074076D01*
X51093399Y-69114122D01*
X51190080Y-69154169D01*
X51395348Y-69194999D01*
X51395352Y-69195000D01*
X51395353Y-69195000D01*
X51604648Y-69195000D01*
X51604649Y-69194999D01*
X51809920Y-69154169D01*
X52003282Y-69074075D01*
X52163747Y-68966856D01*
X52230423Y-68945979D01*
X52280089Y-68955398D01*
X52310006Y-68967790D01*
X52440080Y-69021669D01*
X52645348Y-69062499D01*
X52645352Y-69062500D01*
X52645353Y-69062500D01*
X52854648Y-69062500D01*
X52854649Y-69062499D01*
X53059920Y-69021669D01*
X53253282Y-68941575D01*
X53427304Y-68825298D01*
X53575298Y-68677304D01*
X53691575Y-68503282D01*
X53771669Y-68309920D01*
X53812500Y-68104647D01*
X53812500Y-67895353D01*
X53771669Y-67690080D01*
X53711630Y-67545134D01*
X53691576Y-67496719D01*
X53575296Y-67322693D01*
X53427306Y-67174703D01*
X53253280Y-67058423D01*
X53059920Y-66978331D01*
X53059912Y-66978329D01*
X52854651Y-66937500D01*
X52854647Y-66937500D01*
X52645353Y-66937500D01*
X52645348Y-66937500D01*
X52440087Y-66978329D01*
X52440079Y-66978331D01*
X52246719Y-67058424D01*
X52086253Y-67165643D01*
X52019575Y-67186520D01*
X51969910Y-67177101D01*
X51809920Y-67110831D01*
X51809912Y-67110829D01*
X51604651Y-67070000D01*
X51604647Y-67070000D01*
X51395353Y-67070000D01*
X51395348Y-67070000D01*
X51190087Y-67110829D01*
X51190079Y-67110831D01*
X50996719Y-67190923D01*
X50822693Y-67307203D01*
X50674703Y-67455193D01*
X50558423Y-67629219D01*
X50478331Y-67822579D01*
X50478329Y-67822587D01*
X50437500Y-68027848D01*
X37458267Y-68027848D01*
X37387565Y-67957146D01*
X37387066Y-67956635D01*
X37371016Y-67926394D01*
X37354615Y-67896358D01*
X37354669Y-67895594D01*
X37354311Y-67894919D01*
X37357154Y-67860848D01*
X37359599Y-67826666D01*
X37360068Y-67825935D01*
X37360122Y-67825291D01*
X37362343Y-67822395D01*
X37388100Y-67782319D01*
X37440477Y-67729942D01*
X37519946Y-67650473D01*
X37669134Y-67445134D01*
X37784362Y-67218985D01*
X37862795Y-66977595D01*
X37886662Y-66826906D01*
X37902500Y-66726911D01*
X37902500Y-66473088D01*
X37862795Y-66222408D01*
X37862795Y-66222405D01*
X37784362Y-65981015D01*
X37669134Y-65754866D01*
X37519946Y-65549527D01*
X37388100Y-65417681D01*
X37354615Y-65356358D01*
X37359599Y-65286666D01*
X37388100Y-65242319D01*
X37419946Y-65210473D01*
X37519946Y-65110473D01*
X37669134Y-64905134D01*
X37784362Y-64678985D01*
X37862795Y-64437595D01*
X37886662Y-64286906D01*
X37902500Y-64186911D01*
X37902500Y-63933088D01*
X37862795Y-63682408D01*
X37862795Y-63682405D01*
X37784362Y-63441015D01*
X37669134Y-63214866D01*
X37519946Y-63009527D01*
X37388100Y-62877681D01*
X37354615Y-62816358D01*
X37359599Y-62746666D01*
X37388100Y-62702319D01*
X37419946Y-62670473D01*
X37519946Y-62570473D01*
X37669134Y-62365134D01*
X37784362Y-62138985D01*
X37862795Y-61897595D01*
X37886662Y-61746906D01*
X37902500Y-61646911D01*
X37902500Y-61393088D01*
X37862795Y-61142408D01*
X37862795Y-61142405D01*
X37784362Y-60901015D01*
X37669134Y-60674866D01*
X37519946Y-60469527D01*
X37388100Y-60337681D01*
X37354615Y-60276358D01*
X37359599Y-60206666D01*
X37388100Y-60162319D01*
X37419946Y-60130473D01*
X37519946Y-60030473D01*
X37669134Y-59825134D01*
X37784362Y-59598985D01*
X37862795Y-59357595D01*
X37886662Y-59206906D01*
X37902500Y-59106911D01*
X37902500Y-58853088D01*
X37862795Y-58602408D01*
X37862795Y-58602405D01*
X37784362Y-58361015D01*
X37669134Y-58134866D01*
X37519946Y-57929527D01*
X37388100Y-57797681D01*
X37354615Y-57736358D01*
X37359599Y-57666666D01*
X37388100Y-57622319D01*
X37519946Y-57490473D01*
X37669134Y-57285134D01*
X37784362Y-57058985D01*
X37862795Y-56817595D01*
X37880441Y-56706177D01*
X37902500Y-56566911D01*
X37902500Y-56313088D01*
X37896255Y-56273659D01*
X37894147Y-56260348D01*
X50437500Y-56260348D01*
X50437500Y-56469651D01*
X50478329Y-56674912D01*
X50478331Y-56674920D01*
X50558423Y-56868280D01*
X50674703Y-57042306D01*
X50822693Y-57190296D01*
X50996719Y-57306576D01*
X51093399Y-57346622D01*
X51190080Y-57386669D01*
X51395348Y-57427499D01*
X51395352Y-57427500D01*
X51395353Y-57427500D01*
X51604648Y-57427500D01*
X51604649Y-57427499D01*
X51809920Y-57386669D01*
X52003282Y-57306575D01*
X52059248Y-57269179D01*
X52147579Y-57210160D01*
X52214256Y-57189282D01*
X52263921Y-57198700D01*
X52440080Y-57271669D01*
X52615561Y-57306574D01*
X52645348Y-57312499D01*
X52645352Y-57312500D01*
X52645353Y-57312500D01*
X52854648Y-57312500D01*
X52854649Y-57312499D01*
X53059920Y-57271669D01*
X53224964Y-57203304D01*
X53253280Y-57191576D01*
X53253280Y-57191575D01*
X53253282Y-57191575D01*
X53427304Y-57075298D01*
X53575298Y-56927304D01*
X53691575Y-56753282D01*
X53771669Y-56559920D01*
X53812500Y-56354647D01*
X53812500Y-56145353D01*
X53771669Y-55940080D01*
X53722349Y-55821012D01*
X53691576Y-55746719D01*
X53575296Y-55572693D01*
X53427306Y-55424703D01*
X53253280Y-55308423D01*
X53059920Y-55228331D01*
X53059912Y-55228329D01*
X52854651Y-55187500D01*
X52854647Y-55187500D01*
X52645353Y-55187500D01*
X52645348Y-55187500D01*
X52440087Y-55228329D01*
X52440079Y-55228331D01*
X52246719Y-55308424D01*
X52102421Y-55404840D01*
X52035743Y-55425717D01*
X51986078Y-55416298D01*
X51809920Y-55343331D01*
X51809912Y-55343329D01*
X51604651Y-55302500D01*
X51604647Y-55302500D01*
X51395353Y-55302500D01*
X51395348Y-55302500D01*
X51190087Y-55343329D01*
X51190079Y-55343331D01*
X50996719Y-55423423D01*
X50822693Y-55539703D01*
X50674703Y-55687693D01*
X50558423Y-55861719D01*
X50478331Y-56055079D01*
X50478329Y-56055087D01*
X50437500Y-56260348D01*
X37894147Y-56260348D01*
X37862795Y-56062408D01*
X37862795Y-56062405D01*
X37784362Y-55821015D01*
X37669134Y-55594866D01*
X37519946Y-55389527D01*
X37388100Y-55257681D01*
X37354615Y-55196358D01*
X37359599Y-55126666D01*
X37388100Y-55082319D01*
X37440477Y-55029942D01*
X37519946Y-54950473D01*
X37669134Y-54745134D01*
X37784362Y-54518985D01*
X37862795Y-54277595D01*
X37886662Y-54126906D01*
X37902500Y-54026911D01*
X37902500Y-53773088D01*
X37862795Y-53522408D01*
X37862795Y-53522405D01*
X37784362Y-53281015D01*
X37669134Y-53054866D01*
X37519946Y-52849527D01*
X37388100Y-52717681D01*
X37354615Y-52656358D01*
X37359599Y-52586666D01*
X37388100Y-52542319D01*
X37419946Y-52510473D01*
X37519946Y-52410473D01*
X37669134Y-52205134D01*
X37784362Y-51978985D01*
X37862795Y-51737595D01*
X37886662Y-51586906D01*
X37902500Y-51486911D01*
X37902500Y-51233088D01*
X37862795Y-50982408D01*
X37862795Y-50982405D01*
X37784362Y-50741015D01*
X37669134Y-50514866D01*
X37519946Y-50309527D01*
X37388100Y-50177681D01*
X37354615Y-50116358D01*
X37359599Y-50046666D01*
X37388100Y-50002319D01*
X37452955Y-49937464D01*
X37519946Y-49870473D01*
X37669134Y-49665134D01*
X37784362Y-49438985D01*
X37862795Y-49197595D01*
X37886662Y-49046906D01*
X37902500Y-48946911D01*
X37902500Y-48693088D01*
X37876030Y-48525968D01*
X37862795Y-48442405D01*
X37784362Y-48201015D01*
X37669134Y-47974866D01*
X37519946Y-47769527D01*
X37388100Y-47637681D01*
X37354615Y-47576358D01*
X37359599Y-47506666D01*
X37388100Y-47462319D01*
X37419946Y-47430473D01*
X37519946Y-47330473D01*
X37669134Y-47125134D01*
X37784362Y-46898985D01*
X37862795Y-46657595D01*
X37886662Y-46506906D01*
X37902500Y-46406911D01*
X37902500Y-46153088D01*
X37862795Y-45902408D01*
X37862795Y-45902405D01*
X37784362Y-45661015D01*
X37669134Y-45434866D01*
X37519946Y-45229527D01*
X37388100Y-45097681D01*
X37354615Y-45036358D01*
X37359599Y-44966666D01*
X37388100Y-44922319D01*
X37395982Y-44914437D01*
X37519946Y-44790473D01*
X37669134Y-44585134D01*
X37681763Y-44560348D01*
X50437500Y-44560348D01*
X50437500Y-44769651D01*
X50478329Y-44974912D01*
X50478331Y-44974920D01*
X50558423Y-45168280D01*
X50674703Y-45342306D01*
X50822693Y-45490296D01*
X50996719Y-45606576D01*
X51093399Y-45646622D01*
X51190080Y-45686669D01*
X51395348Y-45727499D01*
X51395352Y-45727500D01*
X51395353Y-45727500D01*
X51604648Y-45727500D01*
X51604649Y-45727499D01*
X51809920Y-45686669D01*
X52003282Y-45606575D01*
X52177304Y-45490298D01*
X52177308Y-45490293D01*
X52182008Y-45486437D01*
X52183733Y-45488539D01*
X52234703Y-45460642D01*
X52304399Y-45465557D01*
X52308582Y-45467200D01*
X52440080Y-45521669D01*
X52645348Y-45562499D01*
X52645352Y-45562500D01*
X52645353Y-45562500D01*
X52854648Y-45562500D01*
X52854649Y-45562499D01*
X53059920Y-45521669D01*
X53253282Y-45441575D01*
X53427304Y-45325298D01*
X53575298Y-45177304D01*
X53691575Y-45003282D01*
X53771669Y-44809920D01*
X53812500Y-44604647D01*
X53812500Y-44395353D01*
X53771669Y-44190080D01*
X53731622Y-44093399D01*
X53691576Y-43996719D01*
X53575296Y-43822693D01*
X53427306Y-43674703D01*
X53253280Y-43558423D01*
X53059920Y-43478331D01*
X53059912Y-43478329D01*
X52854651Y-43437500D01*
X52854647Y-43437500D01*
X52645353Y-43437500D01*
X52645348Y-43437500D01*
X52440087Y-43478329D01*
X52440079Y-43478331D01*
X52246718Y-43558424D01*
X52072696Y-43674701D01*
X52067987Y-43678567D01*
X52066289Y-43676499D01*
X52015056Y-43704409D01*
X51945369Y-43699356D01*
X51941365Y-43697778D01*
X51885655Y-43674702D01*
X51809920Y-43643331D01*
X51809912Y-43643329D01*
X51604651Y-43602500D01*
X51604647Y-43602500D01*
X51395353Y-43602500D01*
X51395348Y-43602500D01*
X51190087Y-43643329D01*
X51190079Y-43643331D01*
X50996719Y-43723423D01*
X50822693Y-43839703D01*
X50674703Y-43987693D01*
X50558423Y-44161719D01*
X50478331Y-44355079D01*
X50478329Y-44355087D01*
X50437500Y-44560348D01*
X37681763Y-44560348D01*
X37784362Y-44358985D01*
X37862795Y-44117595D01*
X37883369Y-43987693D01*
X37902500Y-43866911D01*
X37902500Y-43613088D01*
X37862795Y-43362408D01*
X37862795Y-43362405D01*
X37784362Y-43121015D01*
X37669134Y-42894866D01*
X37519946Y-42689527D01*
X37340473Y-42510054D01*
X37135134Y-42360866D01*
X36908985Y-42245638D01*
X36667595Y-42167205D01*
X36667593Y-42167204D01*
X36667591Y-42167204D01*
X36416911Y-42127500D01*
X36416906Y-42127500D01*
X36163094Y-42127500D01*
X36163089Y-42127500D01*
X35912408Y-42167204D01*
X35671012Y-42245639D01*
X35444865Y-42360866D01*
X35407779Y-42387811D01*
X35371939Y-42413851D01*
X35359301Y-42423033D01*
X35293494Y-42446513D01*
X35225440Y-42430688D01*
X35198734Y-42410396D01*
X35076150Y-42287812D01*
X35076149Y-42287811D01*
X34924440Y-42194236D01*
X34842863Y-42167204D01*
X34755242Y-42138169D01*
X34755235Y-42138168D01*
X34650812Y-42127500D01*
X32849196Y-42127500D01*
X32849180Y-42127501D01*
X32744757Y-42138169D01*
X32575562Y-42194235D01*
X32575557Y-42194237D01*
X32423849Y-42287812D01*
X32297812Y-42413849D01*
X32204237Y-42565557D01*
X32204235Y-42565562D01*
X32148169Y-42734757D01*
X32148168Y-42734764D01*
X32137500Y-42839181D01*
X30500500Y-42839181D01*
X30500500Y-37824500D01*
X30520185Y-37757461D01*
X30572989Y-37711706D01*
X30624500Y-37700500D01*
X61283248Y-37700500D01*
X61350287Y-37720185D01*
G37*
%TD.AperFunction*%
%TD*%
M02*
