%TF.GenerationSoftware,KiCad,Pcbnew,8.0.6*%
%TF.CreationDate,2025-02-20T14:45:04-05:00*%
%TF.ProjectId,PicoLVDS,5069636f-4c56-4445-932e-6b696361645f,1*%
%TF.SameCoordinates,Original*%
%TF.FileFunction,Drillmap*%
%TF.FilePolarity,Positive*%
%FSLAX45Y45*%
G04 Gerber Fmt 4.5, Leading zero omitted, Abs format (unit mm)*
G04 Created by KiCad (PCBNEW 8.0.6) date 2025-02-20 14:45:04*
%MOMM*%
%LPD*%
G01*
G04 APERTURE LIST*
%ADD10C,0.050000*%
%ADD11C,0.200000*%
%ADD12C,0.150000*%
%ADD13C,0.180000*%
G04 APERTURE END LIST*
D10*
X3000000Y-3720000D02*
X8800000Y-3720000D01*
X8800000Y-9000000D01*
X3000000Y-9000000D01*
X3000000Y-3720000D01*
D11*
D12*
X6846500Y-4117000D02*
X6996500Y-4267000D01*
X6996500Y-4117000D02*
X6846500Y-4267000D01*
X7331500Y-4117000D02*
X7481500Y-4267000D01*
X7481500Y-4117000D02*
X7331500Y-4267000D01*
D13*
X6981500Y-3889000D02*
G75*
G02*
X6801500Y-3889000I-90000J0D01*
G01*
X6801500Y-3889000D02*
G75*
G02*
X6981500Y-3889000I90000J0D01*
G01*
X7526500Y-3889000D02*
G75*
G02*
X7346500Y-3889000I-90000J0D01*
G01*
X7346500Y-3889000D02*
G75*
G02*
X7526500Y-3889000I90000J0D01*
G01*
D11*
X3258277Y-9313984D02*
X3258277Y-9113984D01*
X3258277Y-9113984D02*
X3305896Y-9113984D01*
X3305896Y-9113984D02*
X3334467Y-9123508D01*
X3334467Y-9123508D02*
X3353515Y-9142555D01*
X3353515Y-9142555D02*
X3363039Y-9161603D01*
X3363039Y-9161603D02*
X3372562Y-9199698D01*
X3372562Y-9199698D02*
X3372562Y-9228270D01*
X3372562Y-9228270D02*
X3363039Y-9266365D01*
X3363039Y-9266365D02*
X3353515Y-9285412D01*
X3353515Y-9285412D02*
X3334467Y-9304460D01*
X3334467Y-9304460D02*
X3305896Y-9313984D01*
X3305896Y-9313984D02*
X3258277Y-9313984D01*
X3458277Y-9313984D02*
X3458277Y-9180650D01*
X3458277Y-9218746D02*
X3467801Y-9199698D01*
X3467801Y-9199698D02*
X3477324Y-9190174D01*
X3477324Y-9190174D02*
X3496372Y-9180650D01*
X3496372Y-9180650D02*
X3515420Y-9180650D01*
X3582086Y-9313984D02*
X3582086Y-9180650D01*
X3582086Y-9113984D02*
X3572562Y-9123508D01*
X3572562Y-9123508D02*
X3582086Y-9133031D01*
X3582086Y-9133031D02*
X3591610Y-9123508D01*
X3591610Y-9123508D02*
X3582086Y-9113984D01*
X3582086Y-9113984D02*
X3582086Y-9133031D01*
X3705896Y-9313984D02*
X3686848Y-9304460D01*
X3686848Y-9304460D02*
X3677324Y-9285412D01*
X3677324Y-9285412D02*
X3677324Y-9113984D01*
X3810658Y-9313984D02*
X3791610Y-9304460D01*
X3791610Y-9304460D02*
X3782086Y-9285412D01*
X3782086Y-9285412D02*
X3782086Y-9113984D01*
X4039229Y-9313984D02*
X4039229Y-9113984D01*
X4039229Y-9113984D02*
X4105896Y-9256841D01*
X4105896Y-9256841D02*
X4172562Y-9113984D01*
X4172562Y-9113984D02*
X4172562Y-9313984D01*
X4353515Y-9313984D02*
X4353515Y-9209222D01*
X4353515Y-9209222D02*
X4343991Y-9190174D01*
X4343991Y-9190174D02*
X4324944Y-9180650D01*
X4324944Y-9180650D02*
X4286848Y-9180650D01*
X4286848Y-9180650D02*
X4267801Y-9190174D01*
X4353515Y-9304460D02*
X4334467Y-9313984D01*
X4334467Y-9313984D02*
X4286848Y-9313984D01*
X4286848Y-9313984D02*
X4267801Y-9304460D01*
X4267801Y-9304460D02*
X4258277Y-9285412D01*
X4258277Y-9285412D02*
X4258277Y-9266365D01*
X4258277Y-9266365D02*
X4267801Y-9247317D01*
X4267801Y-9247317D02*
X4286848Y-9237793D01*
X4286848Y-9237793D02*
X4334467Y-9237793D01*
X4334467Y-9237793D02*
X4353515Y-9228270D01*
X4448753Y-9180650D02*
X4448753Y-9380650D01*
X4448753Y-9190174D02*
X4467801Y-9180650D01*
X4467801Y-9180650D02*
X4505896Y-9180650D01*
X4505896Y-9180650D02*
X4524944Y-9190174D01*
X4524944Y-9190174D02*
X4534467Y-9199698D01*
X4534467Y-9199698D02*
X4543991Y-9218746D01*
X4543991Y-9218746D02*
X4543991Y-9275889D01*
X4543991Y-9275889D02*
X4534467Y-9294936D01*
X4534467Y-9294936D02*
X4524944Y-9304460D01*
X4524944Y-9304460D02*
X4505896Y-9313984D01*
X4505896Y-9313984D02*
X4467801Y-9313984D01*
X4467801Y-9313984D02*
X4448753Y-9304460D01*
X4629705Y-9294936D02*
X4639229Y-9304460D01*
X4639229Y-9304460D02*
X4629705Y-9313984D01*
X4629705Y-9313984D02*
X4620182Y-9304460D01*
X4620182Y-9304460D02*
X4629705Y-9294936D01*
X4629705Y-9294936D02*
X4629705Y-9313984D01*
X4629705Y-9190174D02*
X4639229Y-9199698D01*
X4639229Y-9199698D02*
X4629705Y-9209222D01*
X4629705Y-9209222D02*
X4620182Y-9199698D01*
X4620182Y-9199698D02*
X4629705Y-9190174D01*
X4629705Y-9190174D02*
X4629705Y-9209222D01*
D12*
X2847500Y-9567500D02*
X2997500Y-9717500D01*
X2997500Y-9567500D02*
X2847500Y-9717500D01*
D11*
X3363039Y-9733984D02*
X3248753Y-9733984D01*
X3305896Y-9733984D02*
X3305896Y-9533984D01*
X3305896Y-9533984D02*
X3286848Y-9562555D01*
X3286848Y-9562555D02*
X3267801Y-9581603D01*
X3267801Y-9581603D02*
X3248753Y-9591127D01*
X3448753Y-9714936D02*
X3458277Y-9724460D01*
X3458277Y-9724460D02*
X3448753Y-9733984D01*
X3448753Y-9733984D02*
X3439229Y-9724460D01*
X3439229Y-9724460D02*
X3448753Y-9714936D01*
X3448753Y-9714936D02*
X3448753Y-9733984D01*
X3639229Y-9533984D02*
X3543991Y-9533984D01*
X3543991Y-9533984D02*
X3534467Y-9629222D01*
X3534467Y-9629222D02*
X3543991Y-9619698D01*
X3543991Y-9619698D02*
X3563039Y-9610174D01*
X3563039Y-9610174D02*
X3610658Y-9610174D01*
X3610658Y-9610174D02*
X3629705Y-9619698D01*
X3629705Y-9619698D02*
X3639229Y-9629222D01*
X3639229Y-9629222D02*
X3648753Y-9648270D01*
X3648753Y-9648270D02*
X3648753Y-9695889D01*
X3648753Y-9695889D02*
X3639229Y-9714936D01*
X3639229Y-9714936D02*
X3629705Y-9724460D01*
X3629705Y-9724460D02*
X3610658Y-9733984D01*
X3610658Y-9733984D02*
X3563039Y-9733984D01*
X3563039Y-9733984D02*
X3543991Y-9724460D01*
X3543991Y-9724460D02*
X3534467Y-9714936D01*
X3772562Y-9533984D02*
X3791610Y-9533984D01*
X3791610Y-9533984D02*
X3810658Y-9543508D01*
X3810658Y-9543508D02*
X3820182Y-9553031D01*
X3820182Y-9553031D02*
X3829705Y-9572079D01*
X3829705Y-9572079D02*
X3839229Y-9610174D01*
X3839229Y-9610174D02*
X3839229Y-9657793D01*
X3839229Y-9657793D02*
X3829705Y-9695889D01*
X3829705Y-9695889D02*
X3820182Y-9714936D01*
X3820182Y-9714936D02*
X3810658Y-9724460D01*
X3810658Y-9724460D02*
X3791610Y-9733984D01*
X3791610Y-9733984D02*
X3772562Y-9733984D01*
X3772562Y-9733984D02*
X3753515Y-9724460D01*
X3753515Y-9724460D02*
X3743991Y-9714936D01*
X3743991Y-9714936D02*
X3734467Y-9695889D01*
X3734467Y-9695889D02*
X3724943Y-9657793D01*
X3724943Y-9657793D02*
X3724943Y-9610174D01*
X3724943Y-9610174D02*
X3734467Y-9572079D01*
X3734467Y-9572079D02*
X3743991Y-9553031D01*
X3743991Y-9553031D02*
X3753515Y-9543508D01*
X3753515Y-9543508D02*
X3772562Y-9533984D01*
X3963039Y-9533984D02*
X3982086Y-9533984D01*
X3982086Y-9533984D02*
X4001134Y-9543508D01*
X4001134Y-9543508D02*
X4010658Y-9553031D01*
X4010658Y-9553031D02*
X4020182Y-9572079D01*
X4020182Y-9572079D02*
X4029705Y-9610174D01*
X4029705Y-9610174D02*
X4029705Y-9657793D01*
X4029705Y-9657793D02*
X4020182Y-9695889D01*
X4020182Y-9695889D02*
X4010658Y-9714936D01*
X4010658Y-9714936D02*
X4001134Y-9724460D01*
X4001134Y-9724460D02*
X3982086Y-9733984D01*
X3982086Y-9733984D02*
X3963039Y-9733984D01*
X3963039Y-9733984D02*
X3943991Y-9724460D01*
X3943991Y-9724460D02*
X3934467Y-9714936D01*
X3934467Y-9714936D02*
X3924943Y-9695889D01*
X3924943Y-9695889D02*
X3915420Y-9657793D01*
X3915420Y-9657793D02*
X3915420Y-9610174D01*
X3915420Y-9610174D02*
X3924943Y-9572079D01*
X3924943Y-9572079D02*
X3934467Y-9553031D01*
X3934467Y-9553031D02*
X3943991Y-9543508D01*
X3943991Y-9543508D02*
X3963039Y-9533984D01*
X4115420Y-9733984D02*
X4115420Y-9600650D01*
X4115420Y-9619698D02*
X4124943Y-9610174D01*
X4124943Y-9610174D02*
X4143991Y-9600650D01*
X4143991Y-9600650D02*
X4172563Y-9600650D01*
X4172563Y-9600650D02*
X4191610Y-9610174D01*
X4191610Y-9610174D02*
X4201134Y-9629222D01*
X4201134Y-9629222D02*
X4201134Y-9733984D01*
X4201134Y-9629222D02*
X4210658Y-9610174D01*
X4210658Y-9610174D02*
X4229705Y-9600650D01*
X4229705Y-9600650D02*
X4258277Y-9600650D01*
X4258277Y-9600650D02*
X4277325Y-9610174D01*
X4277325Y-9610174D02*
X4286848Y-9629222D01*
X4286848Y-9629222D02*
X4286848Y-9733984D01*
X4382086Y-9733984D02*
X4382086Y-9600650D01*
X4382086Y-9619698D02*
X4391610Y-9610174D01*
X4391610Y-9610174D02*
X4410658Y-9600650D01*
X4410658Y-9600650D02*
X4439229Y-9600650D01*
X4439229Y-9600650D02*
X4458277Y-9610174D01*
X4458277Y-9610174D02*
X4467801Y-9629222D01*
X4467801Y-9629222D02*
X4467801Y-9733984D01*
X4467801Y-9629222D02*
X4477325Y-9610174D01*
X4477325Y-9610174D02*
X4496372Y-9600650D01*
X4496372Y-9600650D02*
X4524944Y-9600650D01*
X4524944Y-9600650D02*
X4543991Y-9610174D01*
X4543991Y-9610174D02*
X4553515Y-9629222D01*
X4553515Y-9629222D02*
X4553515Y-9733984D01*
X4943991Y-9524460D02*
X4772563Y-9781603D01*
X5201134Y-9533984D02*
X5220182Y-9533984D01*
X5220182Y-9533984D02*
X5239229Y-9543508D01*
X5239229Y-9543508D02*
X5248753Y-9553031D01*
X5248753Y-9553031D02*
X5258277Y-9572079D01*
X5258277Y-9572079D02*
X5267801Y-9610174D01*
X5267801Y-9610174D02*
X5267801Y-9657793D01*
X5267801Y-9657793D02*
X5258277Y-9695889D01*
X5258277Y-9695889D02*
X5248753Y-9714936D01*
X5248753Y-9714936D02*
X5239229Y-9724460D01*
X5239229Y-9724460D02*
X5220182Y-9733984D01*
X5220182Y-9733984D02*
X5201134Y-9733984D01*
X5201134Y-9733984D02*
X5182087Y-9724460D01*
X5182087Y-9724460D02*
X5172563Y-9714936D01*
X5172563Y-9714936D02*
X5163039Y-9695889D01*
X5163039Y-9695889D02*
X5153515Y-9657793D01*
X5153515Y-9657793D02*
X5153515Y-9610174D01*
X5153515Y-9610174D02*
X5163039Y-9572079D01*
X5163039Y-9572079D02*
X5172563Y-9553031D01*
X5172563Y-9553031D02*
X5182087Y-9543508D01*
X5182087Y-9543508D02*
X5201134Y-9533984D01*
X5353515Y-9714936D02*
X5363039Y-9724460D01*
X5363039Y-9724460D02*
X5353515Y-9733984D01*
X5353515Y-9733984D02*
X5343991Y-9724460D01*
X5343991Y-9724460D02*
X5353515Y-9714936D01*
X5353515Y-9714936D02*
X5353515Y-9733984D01*
X5486848Y-9533984D02*
X5505896Y-9533984D01*
X5505896Y-9533984D02*
X5524944Y-9543508D01*
X5524944Y-9543508D02*
X5534468Y-9553031D01*
X5534468Y-9553031D02*
X5543991Y-9572079D01*
X5543991Y-9572079D02*
X5553515Y-9610174D01*
X5553515Y-9610174D02*
X5553515Y-9657793D01*
X5553515Y-9657793D02*
X5543991Y-9695889D01*
X5543991Y-9695889D02*
X5534468Y-9714936D01*
X5534468Y-9714936D02*
X5524944Y-9724460D01*
X5524944Y-9724460D02*
X5505896Y-9733984D01*
X5505896Y-9733984D02*
X5486848Y-9733984D01*
X5486848Y-9733984D02*
X5467801Y-9724460D01*
X5467801Y-9724460D02*
X5458277Y-9714936D01*
X5458277Y-9714936D02*
X5448753Y-9695889D01*
X5448753Y-9695889D02*
X5439229Y-9657793D01*
X5439229Y-9657793D02*
X5439229Y-9610174D01*
X5439229Y-9610174D02*
X5448753Y-9572079D01*
X5448753Y-9572079D02*
X5458277Y-9553031D01*
X5458277Y-9553031D02*
X5467801Y-9543508D01*
X5467801Y-9543508D02*
X5486848Y-9533984D01*
X5734467Y-9533984D02*
X5639229Y-9533984D01*
X5639229Y-9533984D02*
X5629706Y-9629222D01*
X5629706Y-9629222D02*
X5639229Y-9619698D01*
X5639229Y-9619698D02*
X5658277Y-9610174D01*
X5658277Y-9610174D02*
X5705896Y-9610174D01*
X5705896Y-9610174D02*
X5724944Y-9619698D01*
X5724944Y-9619698D02*
X5734467Y-9629222D01*
X5734467Y-9629222D02*
X5743991Y-9648270D01*
X5743991Y-9648270D02*
X5743991Y-9695889D01*
X5743991Y-9695889D02*
X5734467Y-9714936D01*
X5734467Y-9714936D02*
X5724944Y-9724460D01*
X5724944Y-9724460D02*
X5705896Y-9733984D01*
X5705896Y-9733984D02*
X5658277Y-9733984D01*
X5658277Y-9733984D02*
X5639229Y-9724460D01*
X5639229Y-9724460D02*
X5629706Y-9714936D01*
X5839229Y-9733984D02*
X5877325Y-9733984D01*
X5877325Y-9733984D02*
X5896372Y-9724460D01*
X5896372Y-9724460D02*
X5905896Y-9714936D01*
X5905896Y-9714936D02*
X5924944Y-9686365D01*
X5924944Y-9686365D02*
X5934467Y-9648270D01*
X5934467Y-9648270D02*
X5934467Y-9572079D01*
X5934467Y-9572079D02*
X5924944Y-9553031D01*
X5924944Y-9553031D02*
X5915420Y-9543508D01*
X5915420Y-9543508D02*
X5896372Y-9533984D01*
X5896372Y-9533984D02*
X5858277Y-9533984D01*
X5858277Y-9533984D02*
X5839229Y-9543508D01*
X5839229Y-9543508D02*
X5829706Y-9553031D01*
X5829706Y-9553031D02*
X5820182Y-9572079D01*
X5820182Y-9572079D02*
X5820182Y-9619698D01*
X5820182Y-9619698D02*
X5829706Y-9638746D01*
X5829706Y-9638746D02*
X5839229Y-9648270D01*
X5839229Y-9648270D02*
X5858277Y-9657793D01*
X5858277Y-9657793D02*
X5896372Y-9657793D01*
X5896372Y-9657793D02*
X5915420Y-9648270D01*
X5915420Y-9648270D02*
X5924944Y-9638746D01*
X5924944Y-9638746D02*
X5934467Y-9619698D01*
X6124944Y-9733984D02*
X6010658Y-9733984D01*
X6067801Y-9733984D02*
X6067801Y-9533984D01*
X6067801Y-9533984D02*
X6048753Y-9562555D01*
X6048753Y-9562555D02*
X6029706Y-9581603D01*
X6029706Y-9581603D02*
X6010658Y-9591127D01*
X6201134Y-9533984D02*
X6201134Y-9572079D01*
X6277325Y-9533984D02*
X6277325Y-9572079D01*
X6572563Y-9810174D02*
X6563039Y-9800650D01*
X6563039Y-9800650D02*
X6543991Y-9772079D01*
X6543991Y-9772079D02*
X6534468Y-9753031D01*
X6534468Y-9753031D02*
X6524944Y-9724460D01*
X6524944Y-9724460D02*
X6515420Y-9676841D01*
X6515420Y-9676841D02*
X6515420Y-9638746D01*
X6515420Y-9638746D02*
X6524944Y-9591127D01*
X6524944Y-9591127D02*
X6534468Y-9562555D01*
X6534468Y-9562555D02*
X6543991Y-9543508D01*
X6543991Y-9543508D02*
X6563039Y-9514936D01*
X6563039Y-9514936D02*
X6572563Y-9505412D01*
X6639229Y-9553031D02*
X6648753Y-9543508D01*
X6648753Y-9543508D02*
X6667801Y-9533984D01*
X6667801Y-9533984D02*
X6715420Y-9533984D01*
X6715420Y-9533984D02*
X6734468Y-9543508D01*
X6734468Y-9543508D02*
X6743991Y-9553031D01*
X6743991Y-9553031D02*
X6753515Y-9572079D01*
X6753515Y-9572079D02*
X6753515Y-9591127D01*
X6753515Y-9591127D02*
X6743991Y-9619698D01*
X6743991Y-9619698D02*
X6629706Y-9733984D01*
X6629706Y-9733984D02*
X6753515Y-9733984D01*
X6991610Y-9733984D02*
X6991610Y-9533984D01*
X7077325Y-9733984D02*
X7077325Y-9629222D01*
X7077325Y-9629222D02*
X7067801Y-9610174D01*
X7067801Y-9610174D02*
X7048753Y-9600650D01*
X7048753Y-9600650D02*
X7020182Y-9600650D01*
X7020182Y-9600650D02*
X7001134Y-9610174D01*
X7001134Y-9610174D02*
X6991610Y-9619698D01*
X7201134Y-9733984D02*
X7182087Y-9724460D01*
X7182087Y-9724460D02*
X7172563Y-9714936D01*
X7172563Y-9714936D02*
X7163039Y-9695889D01*
X7163039Y-9695889D02*
X7163039Y-9638746D01*
X7163039Y-9638746D02*
X7172563Y-9619698D01*
X7172563Y-9619698D02*
X7182087Y-9610174D01*
X7182087Y-9610174D02*
X7201134Y-9600650D01*
X7201134Y-9600650D02*
X7229706Y-9600650D01*
X7229706Y-9600650D02*
X7248753Y-9610174D01*
X7248753Y-9610174D02*
X7258277Y-9619698D01*
X7258277Y-9619698D02*
X7267801Y-9638746D01*
X7267801Y-9638746D02*
X7267801Y-9695889D01*
X7267801Y-9695889D02*
X7258277Y-9714936D01*
X7258277Y-9714936D02*
X7248753Y-9724460D01*
X7248753Y-9724460D02*
X7229706Y-9733984D01*
X7229706Y-9733984D02*
X7201134Y-9733984D01*
X7382087Y-9733984D02*
X7363039Y-9724460D01*
X7363039Y-9724460D02*
X7353515Y-9705412D01*
X7353515Y-9705412D02*
X7353515Y-9533984D01*
X7534468Y-9724460D02*
X7515420Y-9733984D01*
X7515420Y-9733984D02*
X7477325Y-9733984D01*
X7477325Y-9733984D02*
X7458277Y-9724460D01*
X7458277Y-9724460D02*
X7448753Y-9705412D01*
X7448753Y-9705412D02*
X7448753Y-9629222D01*
X7448753Y-9629222D02*
X7458277Y-9610174D01*
X7458277Y-9610174D02*
X7477325Y-9600650D01*
X7477325Y-9600650D02*
X7515420Y-9600650D01*
X7515420Y-9600650D02*
X7534468Y-9610174D01*
X7534468Y-9610174D02*
X7543991Y-9629222D01*
X7543991Y-9629222D02*
X7543991Y-9648270D01*
X7543991Y-9648270D02*
X7448753Y-9667317D01*
X7620182Y-9724460D02*
X7639230Y-9733984D01*
X7639230Y-9733984D02*
X7677325Y-9733984D01*
X7677325Y-9733984D02*
X7696372Y-9724460D01*
X7696372Y-9724460D02*
X7705896Y-9705412D01*
X7705896Y-9705412D02*
X7705896Y-9695889D01*
X7705896Y-9695889D02*
X7696372Y-9676841D01*
X7696372Y-9676841D02*
X7677325Y-9667317D01*
X7677325Y-9667317D02*
X7648753Y-9667317D01*
X7648753Y-9667317D02*
X7629706Y-9657793D01*
X7629706Y-9657793D02*
X7620182Y-9638746D01*
X7620182Y-9638746D02*
X7620182Y-9629222D01*
X7620182Y-9629222D02*
X7629706Y-9610174D01*
X7629706Y-9610174D02*
X7648753Y-9600650D01*
X7648753Y-9600650D02*
X7677325Y-9600650D01*
X7677325Y-9600650D02*
X7696372Y-9610174D01*
X7772563Y-9810174D02*
X7782087Y-9800650D01*
X7782087Y-9800650D02*
X7801134Y-9772079D01*
X7801134Y-9772079D02*
X7810658Y-9753031D01*
X7810658Y-9753031D02*
X7820182Y-9724460D01*
X7820182Y-9724460D02*
X7829706Y-9676841D01*
X7829706Y-9676841D02*
X7829706Y-9638746D01*
X7829706Y-9638746D02*
X7820182Y-9591127D01*
X7820182Y-9591127D02*
X7810658Y-9562555D01*
X7810658Y-9562555D02*
X7801134Y-9543508D01*
X7801134Y-9543508D02*
X7782087Y-9514936D01*
X7782087Y-9514936D02*
X7772563Y-9505412D01*
X8134468Y-9810174D02*
X8124944Y-9800650D01*
X8124944Y-9800650D02*
X8105896Y-9772079D01*
X8105896Y-9772079D02*
X8096372Y-9753031D01*
X8096372Y-9753031D02*
X8086849Y-9724460D01*
X8086849Y-9724460D02*
X8077325Y-9676841D01*
X8077325Y-9676841D02*
X8077325Y-9638746D01*
X8077325Y-9638746D02*
X8086849Y-9591127D01*
X8086849Y-9591127D02*
X8096372Y-9562555D01*
X8096372Y-9562555D02*
X8105896Y-9543508D01*
X8105896Y-9543508D02*
X8124944Y-9514936D01*
X8124944Y-9514936D02*
X8134468Y-9505412D01*
X8210658Y-9600650D02*
X8210658Y-9733984D01*
X8210658Y-9619698D02*
X8220182Y-9610174D01*
X8220182Y-9610174D02*
X8239230Y-9600650D01*
X8239230Y-9600650D02*
X8267801Y-9600650D01*
X8267801Y-9600650D02*
X8286849Y-9610174D01*
X8286849Y-9610174D02*
X8296372Y-9629222D01*
X8296372Y-9629222D02*
X8296372Y-9733984D01*
X8420182Y-9733984D02*
X8401134Y-9724460D01*
X8401134Y-9724460D02*
X8391611Y-9714936D01*
X8391611Y-9714936D02*
X8382087Y-9695889D01*
X8382087Y-9695889D02*
X8382087Y-9638746D01*
X8382087Y-9638746D02*
X8391611Y-9619698D01*
X8391611Y-9619698D02*
X8401134Y-9610174D01*
X8401134Y-9610174D02*
X8420182Y-9600650D01*
X8420182Y-9600650D02*
X8448754Y-9600650D01*
X8448754Y-9600650D02*
X8467801Y-9610174D01*
X8467801Y-9610174D02*
X8477325Y-9619698D01*
X8477325Y-9619698D02*
X8486849Y-9638746D01*
X8486849Y-9638746D02*
X8486849Y-9695889D01*
X8486849Y-9695889D02*
X8477325Y-9714936D01*
X8477325Y-9714936D02*
X8467801Y-9724460D01*
X8467801Y-9724460D02*
X8448754Y-9733984D01*
X8448754Y-9733984D02*
X8420182Y-9733984D01*
X8543992Y-9600650D02*
X8620182Y-9600650D01*
X8572563Y-9533984D02*
X8572563Y-9705412D01*
X8572563Y-9705412D02*
X8582087Y-9724460D01*
X8582087Y-9724460D02*
X8601134Y-9733984D01*
X8601134Y-9733984D02*
X8620182Y-9733984D01*
X8839230Y-9600650D02*
X8839230Y-9800650D01*
X8839230Y-9610174D02*
X8858277Y-9600650D01*
X8858277Y-9600650D02*
X8896373Y-9600650D01*
X8896373Y-9600650D02*
X8915420Y-9610174D01*
X8915420Y-9610174D02*
X8924944Y-9619698D01*
X8924944Y-9619698D02*
X8934468Y-9638746D01*
X8934468Y-9638746D02*
X8934468Y-9695889D01*
X8934468Y-9695889D02*
X8924944Y-9714936D01*
X8924944Y-9714936D02*
X8915420Y-9724460D01*
X8915420Y-9724460D02*
X8896373Y-9733984D01*
X8896373Y-9733984D02*
X8858277Y-9733984D01*
X8858277Y-9733984D02*
X8839230Y-9724460D01*
X9048754Y-9733984D02*
X9029706Y-9724460D01*
X9029706Y-9724460D02*
X9020182Y-9705412D01*
X9020182Y-9705412D02*
X9020182Y-9533984D01*
X9210658Y-9733984D02*
X9210658Y-9629222D01*
X9210658Y-9629222D02*
X9201135Y-9610174D01*
X9201135Y-9610174D02*
X9182087Y-9600650D01*
X9182087Y-9600650D02*
X9143992Y-9600650D01*
X9143992Y-9600650D02*
X9124944Y-9610174D01*
X9210658Y-9724460D02*
X9191611Y-9733984D01*
X9191611Y-9733984D02*
X9143992Y-9733984D01*
X9143992Y-9733984D02*
X9124944Y-9724460D01*
X9124944Y-9724460D02*
X9115420Y-9705412D01*
X9115420Y-9705412D02*
X9115420Y-9686365D01*
X9115420Y-9686365D02*
X9124944Y-9667317D01*
X9124944Y-9667317D02*
X9143992Y-9657793D01*
X9143992Y-9657793D02*
X9191611Y-9657793D01*
X9191611Y-9657793D02*
X9210658Y-9648270D01*
X9277325Y-9600650D02*
X9353515Y-9600650D01*
X9305896Y-9533984D02*
X9305896Y-9705412D01*
X9305896Y-9705412D02*
X9315420Y-9724460D01*
X9315420Y-9724460D02*
X9334468Y-9733984D01*
X9334468Y-9733984D02*
X9353515Y-9733984D01*
X9496373Y-9724460D02*
X9477325Y-9733984D01*
X9477325Y-9733984D02*
X9439230Y-9733984D01*
X9439230Y-9733984D02*
X9420182Y-9724460D01*
X9420182Y-9724460D02*
X9410658Y-9705412D01*
X9410658Y-9705412D02*
X9410658Y-9629222D01*
X9410658Y-9629222D02*
X9420182Y-9610174D01*
X9420182Y-9610174D02*
X9439230Y-9600650D01*
X9439230Y-9600650D02*
X9477325Y-9600650D01*
X9477325Y-9600650D02*
X9496373Y-9610174D01*
X9496373Y-9610174D02*
X9505896Y-9629222D01*
X9505896Y-9629222D02*
X9505896Y-9648270D01*
X9505896Y-9648270D02*
X9410658Y-9667317D01*
X9677325Y-9733984D02*
X9677325Y-9533984D01*
X9677325Y-9724460D02*
X9658277Y-9733984D01*
X9658277Y-9733984D02*
X9620182Y-9733984D01*
X9620182Y-9733984D02*
X9601135Y-9724460D01*
X9601135Y-9724460D02*
X9591611Y-9714936D01*
X9591611Y-9714936D02*
X9582087Y-9695889D01*
X9582087Y-9695889D02*
X9582087Y-9638746D01*
X9582087Y-9638746D02*
X9591611Y-9619698D01*
X9591611Y-9619698D02*
X9601135Y-9610174D01*
X9601135Y-9610174D02*
X9620182Y-9600650D01*
X9620182Y-9600650D02*
X9658277Y-9600650D01*
X9658277Y-9600650D02*
X9677325Y-9610174D01*
X9753516Y-9810174D02*
X9763039Y-9800650D01*
X9763039Y-9800650D02*
X9782087Y-9772079D01*
X9782087Y-9772079D02*
X9791611Y-9753031D01*
X9791611Y-9753031D02*
X9801135Y-9724460D01*
X9801135Y-9724460D02*
X9810658Y-9676841D01*
X9810658Y-9676841D02*
X9810658Y-9638746D01*
X9810658Y-9638746D02*
X9801135Y-9591127D01*
X9801135Y-9591127D02*
X9791611Y-9562555D01*
X9791611Y-9562555D02*
X9782087Y-9543508D01*
X9782087Y-9543508D02*
X9763039Y-9514936D01*
X9763039Y-9514936D02*
X9753516Y-9505412D01*
D13*
X2997500Y-9912500D02*
G75*
G02*
X2817500Y-9912500I-90000J0D01*
G01*
X2817500Y-9912500D02*
G75*
G02*
X2997500Y-9912500I90000J0D01*
G01*
D11*
X3363039Y-10003984D02*
X3248753Y-10003984D01*
X3305896Y-10003984D02*
X3305896Y-9803984D01*
X3305896Y-9803984D02*
X3286848Y-9832555D01*
X3286848Y-9832555D02*
X3267801Y-9851603D01*
X3267801Y-9851603D02*
X3248753Y-9861127D01*
X3448753Y-9984936D02*
X3458277Y-9994460D01*
X3458277Y-9994460D02*
X3448753Y-10003984D01*
X3448753Y-10003984D02*
X3439229Y-9994460D01*
X3439229Y-9994460D02*
X3448753Y-9984936D01*
X3448753Y-9984936D02*
X3448753Y-10003984D01*
X3572562Y-9889698D02*
X3553515Y-9880174D01*
X3553515Y-9880174D02*
X3543991Y-9870650D01*
X3543991Y-9870650D02*
X3534467Y-9851603D01*
X3534467Y-9851603D02*
X3534467Y-9842079D01*
X3534467Y-9842079D02*
X3543991Y-9823031D01*
X3543991Y-9823031D02*
X3553515Y-9813508D01*
X3553515Y-9813508D02*
X3572562Y-9803984D01*
X3572562Y-9803984D02*
X3610658Y-9803984D01*
X3610658Y-9803984D02*
X3629705Y-9813508D01*
X3629705Y-9813508D02*
X3639229Y-9823031D01*
X3639229Y-9823031D02*
X3648753Y-9842079D01*
X3648753Y-9842079D02*
X3648753Y-9851603D01*
X3648753Y-9851603D02*
X3639229Y-9870650D01*
X3639229Y-9870650D02*
X3629705Y-9880174D01*
X3629705Y-9880174D02*
X3610658Y-9889698D01*
X3610658Y-9889698D02*
X3572562Y-9889698D01*
X3572562Y-9889698D02*
X3553515Y-9899222D01*
X3553515Y-9899222D02*
X3543991Y-9908746D01*
X3543991Y-9908746D02*
X3534467Y-9927793D01*
X3534467Y-9927793D02*
X3534467Y-9965889D01*
X3534467Y-9965889D02*
X3543991Y-9984936D01*
X3543991Y-9984936D02*
X3553515Y-9994460D01*
X3553515Y-9994460D02*
X3572562Y-10003984D01*
X3572562Y-10003984D02*
X3610658Y-10003984D01*
X3610658Y-10003984D02*
X3629705Y-9994460D01*
X3629705Y-9994460D02*
X3639229Y-9984936D01*
X3639229Y-9984936D02*
X3648753Y-9965889D01*
X3648753Y-9965889D02*
X3648753Y-9927793D01*
X3648753Y-9927793D02*
X3639229Y-9908746D01*
X3639229Y-9908746D02*
X3629705Y-9899222D01*
X3629705Y-9899222D02*
X3610658Y-9889698D01*
X3772562Y-9803984D02*
X3791610Y-9803984D01*
X3791610Y-9803984D02*
X3810658Y-9813508D01*
X3810658Y-9813508D02*
X3820182Y-9823031D01*
X3820182Y-9823031D02*
X3829705Y-9842079D01*
X3829705Y-9842079D02*
X3839229Y-9880174D01*
X3839229Y-9880174D02*
X3839229Y-9927793D01*
X3839229Y-9927793D02*
X3829705Y-9965889D01*
X3829705Y-9965889D02*
X3820182Y-9984936D01*
X3820182Y-9984936D02*
X3810658Y-9994460D01*
X3810658Y-9994460D02*
X3791610Y-10003984D01*
X3791610Y-10003984D02*
X3772562Y-10003984D01*
X3772562Y-10003984D02*
X3753515Y-9994460D01*
X3753515Y-9994460D02*
X3743991Y-9984936D01*
X3743991Y-9984936D02*
X3734467Y-9965889D01*
X3734467Y-9965889D02*
X3724943Y-9927793D01*
X3724943Y-9927793D02*
X3724943Y-9880174D01*
X3724943Y-9880174D02*
X3734467Y-9842079D01*
X3734467Y-9842079D02*
X3743991Y-9823031D01*
X3743991Y-9823031D02*
X3753515Y-9813508D01*
X3753515Y-9813508D02*
X3772562Y-9803984D01*
X3963039Y-9803984D02*
X3982086Y-9803984D01*
X3982086Y-9803984D02*
X4001134Y-9813508D01*
X4001134Y-9813508D02*
X4010658Y-9823031D01*
X4010658Y-9823031D02*
X4020182Y-9842079D01*
X4020182Y-9842079D02*
X4029705Y-9880174D01*
X4029705Y-9880174D02*
X4029705Y-9927793D01*
X4029705Y-9927793D02*
X4020182Y-9965889D01*
X4020182Y-9965889D02*
X4010658Y-9984936D01*
X4010658Y-9984936D02*
X4001134Y-9994460D01*
X4001134Y-9994460D02*
X3982086Y-10003984D01*
X3982086Y-10003984D02*
X3963039Y-10003984D01*
X3963039Y-10003984D02*
X3943991Y-9994460D01*
X3943991Y-9994460D02*
X3934467Y-9984936D01*
X3934467Y-9984936D02*
X3924943Y-9965889D01*
X3924943Y-9965889D02*
X3915420Y-9927793D01*
X3915420Y-9927793D02*
X3915420Y-9880174D01*
X3915420Y-9880174D02*
X3924943Y-9842079D01*
X3924943Y-9842079D02*
X3934467Y-9823031D01*
X3934467Y-9823031D02*
X3943991Y-9813508D01*
X3943991Y-9813508D02*
X3963039Y-9803984D01*
X4115420Y-10003984D02*
X4115420Y-9870650D01*
X4115420Y-9889698D02*
X4124943Y-9880174D01*
X4124943Y-9880174D02*
X4143991Y-9870650D01*
X4143991Y-9870650D02*
X4172563Y-9870650D01*
X4172563Y-9870650D02*
X4191610Y-9880174D01*
X4191610Y-9880174D02*
X4201134Y-9899222D01*
X4201134Y-9899222D02*
X4201134Y-10003984D01*
X4201134Y-9899222D02*
X4210658Y-9880174D01*
X4210658Y-9880174D02*
X4229705Y-9870650D01*
X4229705Y-9870650D02*
X4258277Y-9870650D01*
X4258277Y-9870650D02*
X4277325Y-9880174D01*
X4277325Y-9880174D02*
X4286848Y-9899222D01*
X4286848Y-9899222D02*
X4286848Y-10003984D01*
X4382086Y-10003984D02*
X4382086Y-9870650D01*
X4382086Y-9889698D02*
X4391610Y-9880174D01*
X4391610Y-9880174D02*
X4410658Y-9870650D01*
X4410658Y-9870650D02*
X4439229Y-9870650D01*
X4439229Y-9870650D02*
X4458277Y-9880174D01*
X4458277Y-9880174D02*
X4467801Y-9899222D01*
X4467801Y-9899222D02*
X4467801Y-10003984D01*
X4467801Y-9899222D02*
X4477325Y-9880174D01*
X4477325Y-9880174D02*
X4496372Y-9870650D01*
X4496372Y-9870650D02*
X4524944Y-9870650D01*
X4524944Y-9870650D02*
X4543991Y-9880174D01*
X4543991Y-9880174D02*
X4553515Y-9899222D01*
X4553515Y-9899222D02*
X4553515Y-10003984D01*
X4943991Y-9794460D02*
X4772563Y-10051603D01*
X5201134Y-9803984D02*
X5220182Y-9803984D01*
X5220182Y-9803984D02*
X5239229Y-9813508D01*
X5239229Y-9813508D02*
X5248753Y-9823031D01*
X5248753Y-9823031D02*
X5258277Y-9842079D01*
X5258277Y-9842079D02*
X5267801Y-9880174D01*
X5267801Y-9880174D02*
X5267801Y-9927793D01*
X5267801Y-9927793D02*
X5258277Y-9965889D01*
X5258277Y-9965889D02*
X5248753Y-9984936D01*
X5248753Y-9984936D02*
X5239229Y-9994460D01*
X5239229Y-9994460D02*
X5220182Y-10003984D01*
X5220182Y-10003984D02*
X5201134Y-10003984D01*
X5201134Y-10003984D02*
X5182087Y-9994460D01*
X5182087Y-9994460D02*
X5172563Y-9984936D01*
X5172563Y-9984936D02*
X5163039Y-9965889D01*
X5163039Y-9965889D02*
X5153515Y-9927793D01*
X5153515Y-9927793D02*
X5153515Y-9880174D01*
X5153515Y-9880174D02*
X5163039Y-9842079D01*
X5163039Y-9842079D02*
X5172563Y-9823031D01*
X5172563Y-9823031D02*
X5182087Y-9813508D01*
X5182087Y-9813508D02*
X5201134Y-9803984D01*
X5353515Y-9984936D02*
X5363039Y-9994460D01*
X5363039Y-9994460D02*
X5353515Y-10003984D01*
X5353515Y-10003984D02*
X5343991Y-9994460D01*
X5343991Y-9994460D02*
X5353515Y-9984936D01*
X5353515Y-9984936D02*
X5353515Y-10003984D01*
X5486848Y-9803984D02*
X5505896Y-9803984D01*
X5505896Y-9803984D02*
X5524944Y-9813508D01*
X5524944Y-9813508D02*
X5534468Y-9823031D01*
X5534468Y-9823031D02*
X5543991Y-9842079D01*
X5543991Y-9842079D02*
X5553515Y-9880174D01*
X5553515Y-9880174D02*
X5553515Y-9927793D01*
X5553515Y-9927793D02*
X5543991Y-9965889D01*
X5543991Y-9965889D02*
X5534468Y-9984936D01*
X5534468Y-9984936D02*
X5524944Y-9994460D01*
X5524944Y-9994460D02*
X5505896Y-10003984D01*
X5505896Y-10003984D02*
X5486848Y-10003984D01*
X5486848Y-10003984D02*
X5467801Y-9994460D01*
X5467801Y-9994460D02*
X5458277Y-9984936D01*
X5458277Y-9984936D02*
X5448753Y-9965889D01*
X5448753Y-9965889D02*
X5439229Y-9927793D01*
X5439229Y-9927793D02*
X5439229Y-9880174D01*
X5439229Y-9880174D02*
X5448753Y-9842079D01*
X5448753Y-9842079D02*
X5458277Y-9823031D01*
X5458277Y-9823031D02*
X5467801Y-9813508D01*
X5467801Y-9813508D02*
X5486848Y-9803984D01*
X5620182Y-9803984D02*
X5753515Y-9803984D01*
X5753515Y-9803984D02*
X5667801Y-10003984D01*
X5867801Y-9803984D02*
X5886848Y-9803984D01*
X5886848Y-9803984D02*
X5905896Y-9813508D01*
X5905896Y-9813508D02*
X5915420Y-9823031D01*
X5915420Y-9823031D02*
X5924944Y-9842079D01*
X5924944Y-9842079D02*
X5934467Y-9880174D01*
X5934467Y-9880174D02*
X5934467Y-9927793D01*
X5934467Y-9927793D02*
X5924944Y-9965889D01*
X5924944Y-9965889D02*
X5915420Y-9984936D01*
X5915420Y-9984936D02*
X5905896Y-9994460D01*
X5905896Y-9994460D02*
X5886848Y-10003984D01*
X5886848Y-10003984D02*
X5867801Y-10003984D01*
X5867801Y-10003984D02*
X5848753Y-9994460D01*
X5848753Y-9994460D02*
X5839229Y-9984936D01*
X5839229Y-9984936D02*
X5829706Y-9965889D01*
X5829706Y-9965889D02*
X5820182Y-9927793D01*
X5820182Y-9927793D02*
X5820182Y-9880174D01*
X5820182Y-9880174D02*
X5829706Y-9842079D01*
X5829706Y-9842079D02*
X5839229Y-9823031D01*
X5839229Y-9823031D02*
X5848753Y-9813508D01*
X5848753Y-9813508D02*
X5867801Y-9803984D01*
X6029706Y-10003984D02*
X6067801Y-10003984D01*
X6067801Y-10003984D02*
X6086848Y-9994460D01*
X6086848Y-9994460D02*
X6096372Y-9984936D01*
X6096372Y-9984936D02*
X6115420Y-9956365D01*
X6115420Y-9956365D02*
X6124944Y-9918270D01*
X6124944Y-9918270D02*
X6124944Y-9842079D01*
X6124944Y-9842079D02*
X6115420Y-9823031D01*
X6115420Y-9823031D02*
X6105896Y-9813508D01*
X6105896Y-9813508D02*
X6086848Y-9803984D01*
X6086848Y-9803984D02*
X6048753Y-9803984D01*
X6048753Y-9803984D02*
X6029706Y-9813508D01*
X6029706Y-9813508D02*
X6020182Y-9823031D01*
X6020182Y-9823031D02*
X6010658Y-9842079D01*
X6010658Y-9842079D02*
X6010658Y-9889698D01*
X6010658Y-9889698D02*
X6020182Y-9908746D01*
X6020182Y-9908746D02*
X6029706Y-9918270D01*
X6029706Y-9918270D02*
X6048753Y-9927793D01*
X6048753Y-9927793D02*
X6086848Y-9927793D01*
X6086848Y-9927793D02*
X6105896Y-9918270D01*
X6105896Y-9918270D02*
X6115420Y-9908746D01*
X6115420Y-9908746D02*
X6124944Y-9889698D01*
X6201134Y-9803984D02*
X6201134Y-9842079D01*
X6277325Y-9803984D02*
X6277325Y-9842079D01*
X6572563Y-10080174D02*
X6563039Y-10070650D01*
X6563039Y-10070650D02*
X6543991Y-10042079D01*
X6543991Y-10042079D02*
X6534468Y-10023031D01*
X6534468Y-10023031D02*
X6524944Y-9994460D01*
X6524944Y-9994460D02*
X6515420Y-9946841D01*
X6515420Y-9946841D02*
X6515420Y-9908746D01*
X6515420Y-9908746D02*
X6524944Y-9861127D01*
X6524944Y-9861127D02*
X6534468Y-9832555D01*
X6534468Y-9832555D02*
X6543991Y-9813508D01*
X6543991Y-9813508D02*
X6563039Y-9784936D01*
X6563039Y-9784936D02*
X6572563Y-9775412D01*
X6639229Y-9823031D02*
X6648753Y-9813508D01*
X6648753Y-9813508D02*
X6667801Y-9803984D01*
X6667801Y-9803984D02*
X6715420Y-9803984D01*
X6715420Y-9803984D02*
X6734468Y-9813508D01*
X6734468Y-9813508D02*
X6743991Y-9823031D01*
X6743991Y-9823031D02*
X6753515Y-9842079D01*
X6753515Y-9842079D02*
X6753515Y-9861127D01*
X6753515Y-9861127D02*
X6743991Y-9889698D01*
X6743991Y-9889698D02*
X6629706Y-10003984D01*
X6629706Y-10003984D02*
X6753515Y-10003984D01*
X6991610Y-10003984D02*
X6991610Y-9803984D01*
X7077325Y-10003984D02*
X7077325Y-9899222D01*
X7077325Y-9899222D02*
X7067801Y-9880174D01*
X7067801Y-9880174D02*
X7048753Y-9870650D01*
X7048753Y-9870650D02*
X7020182Y-9870650D01*
X7020182Y-9870650D02*
X7001134Y-9880174D01*
X7001134Y-9880174D02*
X6991610Y-9889698D01*
X7201134Y-10003984D02*
X7182087Y-9994460D01*
X7182087Y-9994460D02*
X7172563Y-9984936D01*
X7172563Y-9984936D02*
X7163039Y-9965889D01*
X7163039Y-9965889D02*
X7163039Y-9908746D01*
X7163039Y-9908746D02*
X7172563Y-9889698D01*
X7172563Y-9889698D02*
X7182087Y-9880174D01*
X7182087Y-9880174D02*
X7201134Y-9870650D01*
X7201134Y-9870650D02*
X7229706Y-9870650D01*
X7229706Y-9870650D02*
X7248753Y-9880174D01*
X7248753Y-9880174D02*
X7258277Y-9889698D01*
X7258277Y-9889698D02*
X7267801Y-9908746D01*
X7267801Y-9908746D02*
X7267801Y-9965889D01*
X7267801Y-9965889D02*
X7258277Y-9984936D01*
X7258277Y-9984936D02*
X7248753Y-9994460D01*
X7248753Y-9994460D02*
X7229706Y-10003984D01*
X7229706Y-10003984D02*
X7201134Y-10003984D01*
X7382087Y-10003984D02*
X7363039Y-9994460D01*
X7363039Y-9994460D02*
X7353515Y-9975412D01*
X7353515Y-9975412D02*
X7353515Y-9803984D01*
X7534468Y-9994460D02*
X7515420Y-10003984D01*
X7515420Y-10003984D02*
X7477325Y-10003984D01*
X7477325Y-10003984D02*
X7458277Y-9994460D01*
X7458277Y-9994460D02*
X7448753Y-9975412D01*
X7448753Y-9975412D02*
X7448753Y-9899222D01*
X7448753Y-9899222D02*
X7458277Y-9880174D01*
X7458277Y-9880174D02*
X7477325Y-9870650D01*
X7477325Y-9870650D02*
X7515420Y-9870650D01*
X7515420Y-9870650D02*
X7534468Y-9880174D01*
X7534468Y-9880174D02*
X7543991Y-9899222D01*
X7543991Y-9899222D02*
X7543991Y-9918270D01*
X7543991Y-9918270D02*
X7448753Y-9937317D01*
X7620182Y-9994460D02*
X7639230Y-10003984D01*
X7639230Y-10003984D02*
X7677325Y-10003984D01*
X7677325Y-10003984D02*
X7696372Y-9994460D01*
X7696372Y-9994460D02*
X7705896Y-9975412D01*
X7705896Y-9975412D02*
X7705896Y-9965889D01*
X7705896Y-9965889D02*
X7696372Y-9946841D01*
X7696372Y-9946841D02*
X7677325Y-9937317D01*
X7677325Y-9937317D02*
X7648753Y-9937317D01*
X7648753Y-9937317D02*
X7629706Y-9927793D01*
X7629706Y-9927793D02*
X7620182Y-9908746D01*
X7620182Y-9908746D02*
X7620182Y-9899222D01*
X7620182Y-9899222D02*
X7629706Y-9880174D01*
X7629706Y-9880174D02*
X7648753Y-9870650D01*
X7648753Y-9870650D02*
X7677325Y-9870650D01*
X7677325Y-9870650D02*
X7696372Y-9880174D01*
X7772563Y-10080174D02*
X7782087Y-10070650D01*
X7782087Y-10070650D02*
X7801134Y-10042079D01*
X7801134Y-10042079D02*
X7810658Y-10023031D01*
X7810658Y-10023031D02*
X7820182Y-9994460D01*
X7820182Y-9994460D02*
X7829706Y-9946841D01*
X7829706Y-9946841D02*
X7829706Y-9908746D01*
X7829706Y-9908746D02*
X7820182Y-9861127D01*
X7820182Y-9861127D02*
X7810658Y-9832555D01*
X7810658Y-9832555D02*
X7801134Y-9813508D01*
X7801134Y-9813508D02*
X7782087Y-9784936D01*
X7782087Y-9784936D02*
X7772563Y-9775412D01*
X8134468Y-10080174D02*
X8124944Y-10070650D01*
X8124944Y-10070650D02*
X8105896Y-10042079D01*
X8105896Y-10042079D02*
X8096372Y-10023031D01*
X8096372Y-10023031D02*
X8086849Y-9994460D01*
X8086849Y-9994460D02*
X8077325Y-9946841D01*
X8077325Y-9946841D02*
X8077325Y-9908746D01*
X8077325Y-9908746D02*
X8086849Y-9861127D01*
X8086849Y-9861127D02*
X8096372Y-9832555D01*
X8096372Y-9832555D02*
X8105896Y-9813508D01*
X8105896Y-9813508D02*
X8124944Y-9784936D01*
X8124944Y-9784936D02*
X8134468Y-9775412D01*
X8210658Y-9870650D02*
X8210658Y-10003984D01*
X8210658Y-9889698D02*
X8220182Y-9880174D01*
X8220182Y-9880174D02*
X8239230Y-9870650D01*
X8239230Y-9870650D02*
X8267801Y-9870650D01*
X8267801Y-9870650D02*
X8286849Y-9880174D01*
X8286849Y-9880174D02*
X8296372Y-9899222D01*
X8296372Y-9899222D02*
X8296372Y-10003984D01*
X8420182Y-10003984D02*
X8401134Y-9994460D01*
X8401134Y-9994460D02*
X8391611Y-9984936D01*
X8391611Y-9984936D02*
X8382087Y-9965889D01*
X8382087Y-9965889D02*
X8382087Y-9908746D01*
X8382087Y-9908746D02*
X8391611Y-9889698D01*
X8391611Y-9889698D02*
X8401134Y-9880174D01*
X8401134Y-9880174D02*
X8420182Y-9870650D01*
X8420182Y-9870650D02*
X8448754Y-9870650D01*
X8448754Y-9870650D02*
X8467801Y-9880174D01*
X8467801Y-9880174D02*
X8477325Y-9889698D01*
X8477325Y-9889698D02*
X8486849Y-9908746D01*
X8486849Y-9908746D02*
X8486849Y-9965889D01*
X8486849Y-9965889D02*
X8477325Y-9984936D01*
X8477325Y-9984936D02*
X8467801Y-9994460D01*
X8467801Y-9994460D02*
X8448754Y-10003984D01*
X8448754Y-10003984D02*
X8420182Y-10003984D01*
X8543992Y-9870650D02*
X8620182Y-9870650D01*
X8572563Y-9803984D02*
X8572563Y-9975412D01*
X8572563Y-9975412D02*
X8582087Y-9994460D01*
X8582087Y-9994460D02*
X8601134Y-10003984D01*
X8601134Y-10003984D02*
X8620182Y-10003984D01*
X8839230Y-9870650D02*
X8839230Y-10070650D01*
X8839230Y-9880174D02*
X8858277Y-9870650D01*
X8858277Y-9870650D02*
X8896373Y-9870650D01*
X8896373Y-9870650D02*
X8915420Y-9880174D01*
X8915420Y-9880174D02*
X8924944Y-9889698D01*
X8924944Y-9889698D02*
X8934468Y-9908746D01*
X8934468Y-9908746D02*
X8934468Y-9965889D01*
X8934468Y-9965889D02*
X8924944Y-9984936D01*
X8924944Y-9984936D02*
X8915420Y-9994460D01*
X8915420Y-9994460D02*
X8896373Y-10003984D01*
X8896373Y-10003984D02*
X8858277Y-10003984D01*
X8858277Y-10003984D02*
X8839230Y-9994460D01*
X9048754Y-10003984D02*
X9029706Y-9994460D01*
X9029706Y-9994460D02*
X9020182Y-9975412D01*
X9020182Y-9975412D02*
X9020182Y-9803984D01*
X9210658Y-10003984D02*
X9210658Y-9899222D01*
X9210658Y-9899222D02*
X9201135Y-9880174D01*
X9201135Y-9880174D02*
X9182087Y-9870650D01*
X9182087Y-9870650D02*
X9143992Y-9870650D01*
X9143992Y-9870650D02*
X9124944Y-9880174D01*
X9210658Y-9994460D02*
X9191611Y-10003984D01*
X9191611Y-10003984D02*
X9143992Y-10003984D01*
X9143992Y-10003984D02*
X9124944Y-9994460D01*
X9124944Y-9994460D02*
X9115420Y-9975412D01*
X9115420Y-9975412D02*
X9115420Y-9956365D01*
X9115420Y-9956365D02*
X9124944Y-9937317D01*
X9124944Y-9937317D02*
X9143992Y-9927793D01*
X9143992Y-9927793D02*
X9191611Y-9927793D01*
X9191611Y-9927793D02*
X9210658Y-9918270D01*
X9277325Y-9870650D02*
X9353515Y-9870650D01*
X9305896Y-9803984D02*
X9305896Y-9975412D01*
X9305896Y-9975412D02*
X9315420Y-9994460D01*
X9315420Y-9994460D02*
X9334468Y-10003984D01*
X9334468Y-10003984D02*
X9353515Y-10003984D01*
X9496373Y-9994460D02*
X9477325Y-10003984D01*
X9477325Y-10003984D02*
X9439230Y-10003984D01*
X9439230Y-10003984D02*
X9420182Y-9994460D01*
X9420182Y-9994460D02*
X9410658Y-9975412D01*
X9410658Y-9975412D02*
X9410658Y-9899222D01*
X9410658Y-9899222D02*
X9420182Y-9880174D01*
X9420182Y-9880174D02*
X9439230Y-9870650D01*
X9439230Y-9870650D02*
X9477325Y-9870650D01*
X9477325Y-9870650D02*
X9496373Y-9880174D01*
X9496373Y-9880174D02*
X9505896Y-9899222D01*
X9505896Y-9899222D02*
X9505896Y-9918270D01*
X9505896Y-9918270D02*
X9410658Y-9937317D01*
X9677325Y-10003984D02*
X9677325Y-9803984D01*
X9677325Y-9994460D02*
X9658277Y-10003984D01*
X9658277Y-10003984D02*
X9620182Y-10003984D01*
X9620182Y-10003984D02*
X9601135Y-9994460D01*
X9601135Y-9994460D02*
X9591611Y-9984936D01*
X9591611Y-9984936D02*
X9582087Y-9965889D01*
X9582087Y-9965889D02*
X9582087Y-9908746D01*
X9582087Y-9908746D02*
X9591611Y-9889698D01*
X9591611Y-9889698D02*
X9601135Y-9880174D01*
X9601135Y-9880174D02*
X9620182Y-9870650D01*
X9620182Y-9870650D02*
X9658277Y-9870650D01*
X9658277Y-9870650D02*
X9677325Y-9880174D01*
X9753516Y-10080174D02*
X9763039Y-10070650D01*
X9763039Y-10070650D02*
X9782087Y-10042079D01*
X9782087Y-10042079D02*
X9791611Y-10023031D01*
X9791611Y-10023031D02*
X9801135Y-9994460D01*
X9801135Y-9994460D02*
X9810658Y-9946841D01*
X9810658Y-9946841D02*
X9810658Y-9908746D01*
X9810658Y-9908746D02*
X9801135Y-9861127D01*
X9801135Y-9861127D02*
X9791611Y-9832555D01*
X9791611Y-9832555D02*
X9782087Y-9813508D01*
X9782087Y-9813508D02*
X9763039Y-9784936D01*
X9763039Y-9784936D02*
X9753516Y-9775412D01*
M02*
