%TF.GenerationSoftware,KiCad,Pcbnew,9.0.0*%
%TF.CreationDate,2025-03-11T15:03:30-04:00*%
%TF.ProjectId,PicoLVDS,5069636f-4c56-4445-932e-6b696361645f,2*%
%TF.SameCoordinates,Original*%
%TF.FileFunction,Copper,L1,Top*%
%TF.FilePolarity,Positive*%
%FSLAX46Y46*%
G04 Gerber Fmt 4.6, Leading zero omitted, Abs format (unit mm)*
G04 Created by KiCad (PCBNEW 9.0.0) date 2025-03-11 15:03:30*
%MOMM*%
%LPD*%
G01*
G04 APERTURE LIST*
%TA.AperFunction,ComponentPad*%
%ADD10R,1.700000X1.700000*%
%TD*%
%TA.AperFunction,ComponentPad*%
%ADD11O,1.700000X1.700000*%
%TD*%
%TA.AperFunction,SMDPad,CuDef*%
%ADD12R,3.500000X1.700000*%
%TD*%
%TA.AperFunction,SMDPad,CuDef*%
%ADD13R,1.700000X3.500000*%
%TD*%
%TA.AperFunction,ViaPad*%
%ADD14C,0.600000*%
%TD*%
%TA.AperFunction,Conductor*%
%ADD15C,0.508000*%
%TD*%
%TA.AperFunction,Conductor*%
%ADD16C,0.762000*%
%TD*%
%TA.AperFunction,Conductor*%
%ADD17C,0.175260*%
%TD*%
%TA.AperFunction,Conductor*%
%ADD18C,0.381000*%
%TD*%
G04 APERTURE END LIST*
%TO.P,U3,1,EN1\u002C2*%
%TO.N,+3V3*%
%TA.AperFunction,SMDPad,CuDef*%
G36*
G01*
X51150000Y-61295000D02*
X51150000Y-61595000D01*
G75*
G02*
X51000000Y-61745000I-150000J0D01*
G01*
X49350000Y-61745000D01*
G75*
G02*
X49200000Y-61595000I0J150000D01*
G01*
X49200000Y-61295000D01*
G75*
G02*
X49350000Y-61145000I150000J0D01*
G01*
X51000000Y-61145000D01*
G75*
G02*
X51150000Y-61295000I0J-150000D01*
G01*
G37*
%TD.AperFunction*%
%TO.P,U3,2,DIN1*%
%TO.N,/D7*%
%TA.AperFunction,SMDPad,CuDef*%
G36*
G01*
X51150000Y-60025000D02*
X51150000Y-60325000D01*
G75*
G02*
X51000000Y-60475000I-150000J0D01*
G01*
X49350000Y-60475000D01*
G75*
G02*
X49200000Y-60325000I0J150000D01*
G01*
X49200000Y-60025000D01*
G75*
G02*
X49350000Y-59875000I150000J0D01*
G01*
X51000000Y-59875000D01*
G75*
G02*
X51150000Y-60025000I0J-150000D01*
G01*
G37*
%TD.AperFunction*%
%TO.P,U3,3,DIN2*%
%TO.N,/D6*%
%TA.AperFunction,SMDPad,CuDef*%
G36*
G01*
X51150000Y-58755000D02*
X51150000Y-59055000D01*
G75*
G02*
X51000000Y-59205000I-150000J0D01*
G01*
X49350000Y-59205000D01*
G75*
G02*
X49200000Y-59055000I0J150000D01*
G01*
X49200000Y-58755000D01*
G75*
G02*
X49350000Y-58605000I150000J0D01*
G01*
X51000000Y-58605000D01*
G75*
G02*
X51150000Y-58755000I0J-150000D01*
G01*
G37*
%TD.AperFunction*%
%TO.P,U3,4,VCC*%
%TO.N,+3V3*%
%TA.AperFunction,SMDPad,CuDef*%
G36*
G01*
X51150000Y-57485000D02*
X51150000Y-57785000D01*
G75*
G02*
X51000000Y-57935000I-150000J0D01*
G01*
X49350000Y-57935000D01*
G75*
G02*
X49200000Y-57785000I0J150000D01*
G01*
X49200000Y-57485000D01*
G75*
G02*
X49350000Y-57335000I150000J0D01*
G01*
X51000000Y-57335000D01*
G75*
G02*
X51150000Y-57485000I0J-150000D01*
G01*
G37*
%TD.AperFunction*%
%TO.P,U3,5,GND*%
%TO.N,GND*%
%TA.AperFunction,SMDPad,CuDef*%
G36*
G01*
X51150000Y-56215000D02*
X51150000Y-56515000D01*
G75*
G02*
X51000000Y-56665000I-150000J0D01*
G01*
X49350000Y-56665000D01*
G75*
G02*
X49200000Y-56515000I0J150000D01*
G01*
X49200000Y-56215000D01*
G75*
G02*
X49350000Y-56065000I150000J0D01*
G01*
X51000000Y-56065000D01*
G75*
G02*
X51150000Y-56215000I0J-150000D01*
G01*
G37*
%TD.AperFunction*%
%TO.P,U3,6,DIN3*%
%TO.N,/D5*%
%TA.AperFunction,SMDPad,CuDef*%
G36*
G01*
X51150000Y-54945000D02*
X51150000Y-55245000D01*
G75*
G02*
X51000000Y-55395000I-150000J0D01*
G01*
X49350000Y-55395000D01*
G75*
G02*
X49200000Y-55245000I0J150000D01*
G01*
X49200000Y-54945000D01*
G75*
G02*
X49350000Y-54795000I150000J0D01*
G01*
X51000000Y-54795000D01*
G75*
G02*
X51150000Y-54945000I0J-150000D01*
G01*
G37*
%TD.AperFunction*%
%TO.P,U3,7,DIN4*%
%TO.N,/D4*%
%TA.AperFunction,SMDPad,CuDef*%
G36*
G01*
X51150000Y-53675000D02*
X51150000Y-53975000D01*
G75*
G02*
X51000000Y-54125000I-150000J0D01*
G01*
X49350000Y-54125000D01*
G75*
G02*
X49200000Y-53975000I0J150000D01*
G01*
X49200000Y-53675000D01*
G75*
G02*
X49350000Y-53525000I150000J0D01*
G01*
X51000000Y-53525000D01*
G75*
G02*
X51150000Y-53675000I0J-150000D01*
G01*
G37*
%TD.AperFunction*%
%TO.P,U3,8,EN3\u002C4*%
%TO.N,+3V3*%
%TA.AperFunction,SMDPad,CuDef*%
G36*
G01*
X51150000Y-52405000D02*
X51150000Y-52705000D01*
G75*
G02*
X51000000Y-52855000I-150000J0D01*
G01*
X49350000Y-52855000D01*
G75*
G02*
X49200000Y-52705000I0J150000D01*
G01*
X49200000Y-52405000D01*
G75*
G02*
X49350000Y-52255000I150000J0D01*
G01*
X51000000Y-52255000D01*
G75*
G02*
X51150000Y-52405000I0J-150000D01*
G01*
G37*
%TD.AperFunction*%
%TO.P,U3,9,DOUT4-*%
%TO.N,/Out_4-*%
%TA.AperFunction,SMDPad,CuDef*%
G36*
G01*
X46200000Y-52405000D02*
X46200000Y-52705000D01*
G75*
G02*
X46050000Y-52855000I-150000J0D01*
G01*
X44400000Y-52855000D01*
G75*
G02*
X44250000Y-52705000I0J150000D01*
G01*
X44250000Y-52405000D01*
G75*
G02*
X44400000Y-52255000I150000J0D01*
G01*
X46050000Y-52255000D01*
G75*
G02*
X46200000Y-52405000I0J-150000D01*
G01*
G37*
%TD.AperFunction*%
%TO.P,U3,10,DOUT4+*%
%TO.N,/Out_4+*%
%TA.AperFunction,SMDPad,CuDef*%
G36*
G01*
X46200000Y-53675000D02*
X46200000Y-53975000D01*
G75*
G02*
X46050000Y-54125000I-150000J0D01*
G01*
X44400000Y-54125000D01*
G75*
G02*
X44250000Y-53975000I0J150000D01*
G01*
X44250000Y-53675000D01*
G75*
G02*
X44400000Y-53525000I150000J0D01*
G01*
X46050000Y-53525000D01*
G75*
G02*
X46200000Y-53675000I0J-150000D01*
G01*
G37*
%TD.AperFunction*%
%TO.P,U3,11,DOUT3-*%
%TO.N,/Out_5-*%
%TA.AperFunction,SMDPad,CuDef*%
G36*
G01*
X46200000Y-54945000D02*
X46200000Y-55245000D01*
G75*
G02*
X46050000Y-55395000I-150000J0D01*
G01*
X44400000Y-55395000D01*
G75*
G02*
X44250000Y-55245000I0J150000D01*
G01*
X44250000Y-54945000D01*
G75*
G02*
X44400000Y-54795000I150000J0D01*
G01*
X46050000Y-54795000D01*
G75*
G02*
X46200000Y-54945000I0J-150000D01*
G01*
G37*
%TD.AperFunction*%
%TO.P,U3,12,DOUT3+*%
%TO.N,/Out_5+*%
%TA.AperFunction,SMDPad,CuDef*%
G36*
G01*
X46200000Y-56215000D02*
X46200000Y-56515000D01*
G75*
G02*
X46050000Y-56665000I-150000J0D01*
G01*
X44400000Y-56665000D01*
G75*
G02*
X44250000Y-56515000I0J150000D01*
G01*
X44250000Y-56215000D01*
G75*
G02*
X44400000Y-56065000I150000J0D01*
G01*
X46050000Y-56065000D01*
G75*
G02*
X46200000Y-56215000I0J-150000D01*
G01*
G37*
%TD.AperFunction*%
%TO.P,U3,13,DOUT2-*%
%TO.N,/Out_6-*%
%TA.AperFunction,SMDPad,CuDef*%
G36*
G01*
X46200000Y-57485000D02*
X46200000Y-57785000D01*
G75*
G02*
X46050000Y-57935000I-150000J0D01*
G01*
X44400000Y-57935000D01*
G75*
G02*
X44250000Y-57785000I0J150000D01*
G01*
X44250000Y-57485000D01*
G75*
G02*
X44400000Y-57335000I150000J0D01*
G01*
X46050000Y-57335000D01*
G75*
G02*
X46200000Y-57485000I0J-150000D01*
G01*
G37*
%TD.AperFunction*%
%TO.P,U3,14,DOUT2+*%
%TO.N,/Out_6+*%
%TA.AperFunction,SMDPad,CuDef*%
G36*
G01*
X46200000Y-58755000D02*
X46200000Y-59055000D01*
G75*
G02*
X46050000Y-59205000I-150000J0D01*
G01*
X44400000Y-59205000D01*
G75*
G02*
X44250000Y-59055000I0J150000D01*
G01*
X44250000Y-58755000D01*
G75*
G02*
X44400000Y-58605000I150000J0D01*
G01*
X46050000Y-58605000D01*
G75*
G02*
X46200000Y-58755000I0J-150000D01*
G01*
G37*
%TD.AperFunction*%
%TO.P,U3,15,DOUT1-*%
%TO.N,/Out_7-*%
%TA.AperFunction,SMDPad,CuDef*%
G36*
G01*
X46200000Y-60025000D02*
X46200000Y-60325000D01*
G75*
G02*
X46050000Y-60475000I-150000J0D01*
G01*
X44400000Y-60475000D01*
G75*
G02*
X44250000Y-60325000I0J150000D01*
G01*
X44250000Y-60025000D01*
G75*
G02*
X44400000Y-59875000I150000J0D01*
G01*
X46050000Y-59875000D01*
G75*
G02*
X46200000Y-60025000I0J-150000D01*
G01*
G37*
%TD.AperFunction*%
%TO.P,U3,16,DOUT1+*%
%TO.N,/Out_7+*%
%TA.AperFunction,SMDPad,CuDef*%
G36*
G01*
X46200000Y-61295000D02*
X46200000Y-61595000D01*
G75*
G02*
X46050000Y-61745000I-150000J0D01*
G01*
X44400000Y-61745000D01*
G75*
G02*
X44250000Y-61595000I0J150000D01*
G01*
X44250000Y-61295000D01*
G75*
G02*
X44400000Y-61145000I150000J0D01*
G01*
X46050000Y-61145000D01*
G75*
G02*
X46200000Y-61295000I0J-150000D01*
G01*
G37*
%TD.AperFunction*%
%TD*%
%TO.P,C1,1*%
%TO.N,+3V3*%
%TA.AperFunction,SMDPad,CuDef*%
G36*
G01*
X52255000Y-46235000D02*
X51945000Y-46235000D01*
G75*
G02*
X51790000Y-46080000I0J155000D01*
G01*
X51790000Y-45655000D01*
G75*
G02*
X51945000Y-45500000I155000J0D01*
G01*
X52255000Y-45500000D01*
G75*
G02*
X52410000Y-45655000I0J-155000D01*
G01*
X52410000Y-46080000D01*
G75*
G02*
X52255000Y-46235000I-155000J0D01*
G01*
G37*
%TD.AperFunction*%
%TO.P,C1,2*%
%TO.N,GND*%
%TA.AperFunction,SMDPad,CuDef*%
G36*
G01*
X52255000Y-45100000D02*
X51945000Y-45100000D01*
G75*
G02*
X51790000Y-44945000I0J155000D01*
G01*
X51790000Y-44520000D01*
G75*
G02*
X51945000Y-44365000I155000J0D01*
G01*
X52255000Y-44365000D01*
G75*
G02*
X52410000Y-44520000I0J-155000D01*
G01*
X52410000Y-44945000D01*
G75*
G02*
X52255000Y-45100000I-155000J0D01*
G01*
G37*
%TD.AperFunction*%
%TD*%
%TO.P,U2,1,EN1\u002C2*%
%TO.N,+3V3*%
%TA.AperFunction,SMDPad,CuDef*%
G36*
G01*
X51150000Y-49595000D02*
X51150000Y-49895000D01*
G75*
G02*
X51000000Y-50045000I-150000J0D01*
G01*
X49350000Y-50045000D01*
G75*
G02*
X49200000Y-49895000I0J150000D01*
G01*
X49200000Y-49595000D01*
G75*
G02*
X49350000Y-49445000I150000J0D01*
G01*
X51000000Y-49445000D01*
G75*
G02*
X51150000Y-49595000I0J-150000D01*
G01*
G37*
%TD.AperFunction*%
%TO.P,U2,2,DIN1*%
%TO.N,/D3*%
%TA.AperFunction,SMDPad,CuDef*%
G36*
G01*
X51150000Y-48325000D02*
X51150000Y-48625000D01*
G75*
G02*
X51000000Y-48775000I-150000J0D01*
G01*
X49350000Y-48775000D01*
G75*
G02*
X49200000Y-48625000I0J150000D01*
G01*
X49200000Y-48325000D01*
G75*
G02*
X49350000Y-48175000I150000J0D01*
G01*
X51000000Y-48175000D01*
G75*
G02*
X51150000Y-48325000I0J-150000D01*
G01*
G37*
%TD.AperFunction*%
%TO.P,U2,3,DIN2*%
%TO.N,/D2*%
%TA.AperFunction,SMDPad,CuDef*%
G36*
G01*
X51150000Y-47055000D02*
X51150000Y-47355000D01*
G75*
G02*
X51000000Y-47505000I-150000J0D01*
G01*
X49350000Y-47505000D01*
G75*
G02*
X49200000Y-47355000I0J150000D01*
G01*
X49200000Y-47055000D01*
G75*
G02*
X49350000Y-46905000I150000J0D01*
G01*
X51000000Y-46905000D01*
G75*
G02*
X51150000Y-47055000I0J-150000D01*
G01*
G37*
%TD.AperFunction*%
%TO.P,U2,4,VCC*%
%TO.N,+3V3*%
%TA.AperFunction,SMDPad,CuDef*%
G36*
G01*
X51150000Y-45785000D02*
X51150000Y-46085000D01*
G75*
G02*
X51000000Y-46235000I-150000J0D01*
G01*
X49350000Y-46235000D01*
G75*
G02*
X49200000Y-46085000I0J150000D01*
G01*
X49200000Y-45785000D01*
G75*
G02*
X49350000Y-45635000I150000J0D01*
G01*
X51000000Y-45635000D01*
G75*
G02*
X51150000Y-45785000I0J-150000D01*
G01*
G37*
%TD.AperFunction*%
%TO.P,U2,5,GND*%
%TO.N,GND*%
%TA.AperFunction,SMDPad,CuDef*%
G36*
G01*
X51150000Y-44515000D02*
X51150000Y-44815000D01*
G75*
G02*
X51000000Y-44965000I-150000J0D01*
G01*
X49350000Y-44965000D01*
G75*
G02*
X49200000Y-44815000I0J150000D01*
G01*
X49200000Y-44515000D01*
G75*
G02*
X49350000Y-44365000I150000J0D01*
G01*
X51000000Y-44365000D01*
G75*
G02*
X51150000Y-44515000I0J-150000D01*
G01*
G37*
%TD.AperFunction*%
%TO.P,U2,6,DIN3*%
%TO.N,/D1*%
%TA.AperFunction,SMDPad,CuDef*%
G36*
G01*
X51150000Y-43245000D02*
X51150000Y-43545000D01*
G75*
G02*
X51000000Y-43695000I-150000J0D01*
G01*
X49350000Y-43695000D01*
G75*
G02*
X49200000Y-43545000I0J150000D01*
G01*
X49200000Y-43245000D01*
G75*
G02*
X49350000Y-43095000I150000J0D01*
G01*
X51000000Y-43095000D01*
G75*
G02*
X51150000Y-43245000I0J-150000D01*
G01*
G37*
%TD.AperFunction*%
%TO.P,U2,7,DIN4*%
%TO.N,/D0*%
%TA.AperFunction,SMDPad,CuDef*%
G36*
G01*
X51150000Y-41975000D02*
X51150000Y-42275000D01*
G75*
G02*
X51000000Y-42425000I-150000J0D01*
G01*
X49350000Y-42425000D01*
G75*
G02*
X49200000Y-42275000I0J150000D01*
G01*
X49200000Y-41975000D01*
G75*
G02*
X49350000Y-41825000I150000J0D01*
G01*
X51000000Y-41825000D01*
G75*
G02*
X51150000Y-41975000I0J-150000D01*
G01*
G37*
%TD.AperFunction*%
%TO.P,U2,8,EN3\u002C4*%
%TO.N,+3V3*%
%TA.AperFunction,SMDPad,CuDef*%
G36*
G01*
X51150000Y-40705000D02*
X51150000Y-41005000D01*
G75*
G02*
X51000000Y-41155000I-150000J0D01*
G01*
X49350000Y-41155000D01*
G75*
G02*
X49200000Y-41005000I0J150000D01*
G01*
X49200000Y-40705000D01*
G75*
G02*
X49350000Y-40555000I150000J0D01*
G01*
X51000000Y-40555000D01*
G75*
G02*
X51150000Y-40705000I0J-150000D01*
G01*
G37*
%TD.AperFunction*%
%TO.P,U2,9,DOUT4-*%
%TO.N,/Out_0-*%
%TA.AperFunction,SMDPad,CuDef*%
G36*
G01*
X46200000Y-40705000D02*
X46200000Y-41005000D01*
G75*
G02*
X46050000Y-41155000I-150000J0D01*
G01*
X44400000Y-41155000D01*
G75*
G02*
X44250000Y-41005000I0J150000D01*
G01*
X44250000Y-40705000D01*
G75*
G02*
X44400000Y-40555000I150000J0D01*
G01*
X46050000Y-40555000D01*
G75*
G02*
X46200000Y-40705000I0J-150000D01*
G01*
G37*
%TD.AperFunction*%
%TO.P,U2,10,DOUT4+*%
%TO.N,/Out_0+*%
%TA.AperFunction,SMDPad,CuDef*%
G36*
G01*
X46200000Y-41975000D02*
X46200000Y-42275000D01*
G75*
G02*
X46050000Y-42425000I-150000J0D01*
G01*
X44400000Y-42425000D01*
G75*
G02*
X44250000Y-42275000I0J150000D01*
G01*
X44250000Y-41975000D01*
G75*
G02*
X44400000Y-41825000I150000J0D01*
G01*
X46050000Y-41825000D01*
G75*
G02*
X46200000Y-41975000I0J-150000D01*
G01*
G37*
%TD.AperFunction*%
%TO.P,U2,11,DOUT3-*%
%TO.N,/Out_1-*%
%TA.AperFunction,SMDPad,CuDef*%
G36*
G01*
X46200000Y-43245000D02*
X46200000Y-43545000D01*
G75*
G02*
X46050000Y-43695000I-150000J0D01*
G01*
X44400000Y-43695000D01*
G75*
G02*
X44250000Y-43545000I0J150000D01*
G01*
X44250000Y-43245000D01*
G75*
G02*
X44400000Y-43095000I150000J0D01*
G01*
X46050000Y-43095000D01*
G75*
G02*
X46200000Y-43245000I0J-150000D01*
G01*
G37*
%TD.AperFunction*%
%TO.P,U2,12,DOUT3+*%
%TO.N,/Out_1+*%
%TA.AperFunction,SMDPad,CuDef*%
G36*
G01*
X46200000Y-44515000D02*
X46200000Y-44815000D01*
G75*
G02*
X46050000Y-44965000I-150000J0D01*
G01*
X44400000Y-44965000D01*
G75*
G02*
X44250000Y-44815000I0J150000D01*
G01*
X44250000Y-44515000D01*
G75*
G02*
X44400000Y-44365000I150000J0D01*
G01*
X46050000Y-44365000D01*
G75*
G02*
X46200000Y-44515000I0J-150000D01*
G01*
G37*
%TD.AperFunction*%
%TO.P,U2,13,DOUT2-*%
%TO.N,/Out_2-*%
%TA.AperFunction,SMDPad,CuDef*%
G36*
G01*
X46200000Y-45785000D02*
X46200000Y-46085000D01*
G75*
G02*
X46050000Y-46235000I-150000J0D01*
G01*
X44400000Y-46235000D01*
G75*
G02*
X44250000Y-46085000I0J150000D01*
G01*
X44250000Y-45785000D01*
G75*
G02*
X44400000Y-45635000I150000J0D01*
G01*
X46050000Y-45635000D01*
G75*
G02*
X46200000Y-45785000I0J-150000D01*
G01*
G37*
%TD.AperFunction*%
%TO.P,U2,14,DOUT2+*%
%TO.N,/Out_2+*%
%TA.AperFunction,SMDPad,CuDef*%
G36*
G01*
X46200000Y-47055000D02*
X46200000Y-47355000D01*
G75*
G02*
X46050000Y-47505000I-150000J0D01*
G01*
X44400000Y-47505000D01*
G75*
G02*
X44250000Y-47355000I0J150000D01*
G01*
X44250000Y-47055000D01*
G75*
G02*
X44400000Y-46905000I150000J0D01*
G01*
X46050000Y-46905000D01*
G75*
G02*
X46200000Y-47055000I0J-150000D01*
G01*
G37*
%TD.AperFunction*%
%TO.P,U2,15,DOUT1-*%
%TO.N,/Out_3-*%
%TA.AperFunction,SMDPad,CuDef*%
G36*
G01*
X46200000Y-48325000D02*
X46200000Y-48625000D01*
G75*
G02*
X46050000Y-48775000I-150000J0D01*
G01*
X44400000Y-48775000D01*
G75*
G02*
X44250000Y-48625000I0J150000D01*
G01*
X44250000Y-48325000D01*
G75*
G02*
X44400000Y-48175000I150000J0D01*
G01*
X46050000Y-48175000D01*
G75*
G02*
X46200000Y-48325000I0J-150000D01*
G01*
G37*
%TD.AperFunction*%
%TO.P,U2,16,DOUT1+*%
%TO.N,/Out_3+*%
%TA.AperFunction,SMDPad,CuDef*%
G36*
G01*
X46200000Y-49595000D02*
X46200000Y-49895000D01*
G75*
G02*
X46050000Y-50045000I-150000J0D01*
G01*
X44400000Y-50045000D01*
G75*
G02*
X44250000Y-49895000I0J150000D01*
G01*
X44250000Y-49595000D01*
G75*
G02*
X44400000Y-49445000I150000J0D01*
G01*
X46050000Y-49445000D01*
G75*
G02*
X46200000Y-49595000I0J-150000D01*
G01*
G37*
%TD.AperFunction*%
%TD*%
D10*
%TO.P,J1,1,Pin_1*%
%TO.N,/Out_0+*%
X33750000Y-43740000D03*
D11*
%TO.P,J1,2,Pin_2*%
%TO.N,/Out_0-*%
X36290000Y-43740000D03*
%TO.P,J1,3,Pin_3*%
%TO.N,/Out_1+*%
X33750000Y-46280000D03*
%TO.P,J1,4,Pin_4*%
%TO.N,/Out_1-*%
X36290000Y-46280000D03*
%TO.P,J1,5,Pin_5*%
%TO.N,/Out_2+*%
X33750000Y-48820000D03*
%TO.P,J1,6,Pin_6*%
%TO.N,/Out_2-*%
X36290000Y-48820000D03*
%TO.P,J1,7,Pin_7*%
%TO.N,/Out_3+*%
X33750000Y-51360000D03*
%TO.P,J1,8,Pin_8*%
%TO.N,/Out_3-*%
X36290000Y-51360000D03*
%TO.P,J1,9,Pin_9*%
%TO.N,/Out_4+*%
X33750000Y-53900000D03*
%TO.P,J1,10,Pin_10*%
%TO.N,/Out_4-*%
X36290000Y-53900000D03*
%TO.P,J1,11,Pin_11*%
%TO.N,/Out_5+*%
X33750000Y-56440000D03*
%TO.P,J1,12,Pin_12*%
%TO.N,/Out_5-*%
X36290000Y-56440000D03*
%TO.P,J1,13,Pin_13*%
%TO.N,/Out_6+*%
X33750000Y-58980000D03*
%TO.P,J1,14,Pin_14*%
%TO.N,/Out_6-*%
X36290000Y-58980000D03*
%TO.P,J1,15,Pin_15*%
%TO.N,/Out_7+*%
X33750000Y-61520000D03*
%TO.P,J1,16,Pin_16*%
%TO.N,/Out_7-*%
X36290000Y-61520000D03*
%TO.P,J1,17,Pin_17*%
%TO.N,/Out_8+*%
X33750000Y-64060000D03*
%TO.P,J1,18,Pin_18*%
%TO.N,/Out_8-*%
X36290000Y-64060000D03*
%TO.P,J1,19,Pin_19*%
%TO.N,/Out_9+*%
X33750000Y-66600000D03*
%TO.P,J1,20,Pin_20*%
%TO.N,/Out_9-*%
X36290000Y-66600000D03*
%TO.P,J1,21,Pin_21*%
%TO.N,/Out_10+*%
X33750000Y-69140000D03*
%TO.P,J1,22,Pin_22*%
%TO.N,/Out_10-*%
X36290000Y-69140000D03*
%TO.P,J1,23,Pin_23*%
%TO.N,/Out_11+*%
X33750000Y-71680000D03*
%TO.P,J1,24,Pin_24*%
%TO.N,/Out_11-*%
X36290000Y-71680000D03*
%TO.P,J1,25,Pin_25*%
%TO.N,/Out_12+*%
X33750000Y-74220000D03*
%TO.P,J1,26,Pin_26*%
%TO.N,/Out_12-*%
X36290000Y-74220000D03*
%TO.P,J1,27,Pin_27*%
%TO.N,/Out_13+*%
X33750000Y-76760000D03*
%TO.P,J1,28,Pin_28*%
%TO.N,/Out_13-*%
X36290000Y-76760000D03*
%TO.P,J1,29,Pin_29*%
%TO.N,/Out_14+*%
X33750000Y-79300000D03*
%TO.P,J1,30,Pin_30*%
%TO.N,/Out_14-*%
X36290000Y-79300000D03*
%TO.P,J1,31,Pin_31*%
%TO.N,/Out_15+*%
X33750000Y-81840000D03*
%TO.P,J1,32,Pin_32*%
%TO.N,/Out_15-*%
X36290000Y-81840000D03*
%TO.P,J1,33,Pin_33*%
%TO.N,unconnected-(J1-Pin_33-Pad33)*%
X33750000Y-84380000D03*
%TO.P,J1,34,Pin_34*%
%TO.N,unconnected-(J1-Pin_34-Pad34)*%
X36290000Y-84380000D03*
%TD*%
%TO.P,C4,1*%
%TO.N,+3V3*%
%TA.AperFunction,SMDPad,CuDef*%
G36*
G01*
X52355000Y-81435000D02*
X52045000Y-81435000D01*
G75*
G02*
X51890000Y-81280000I0J155000D01*
G01*
X51890000Y-80855000D01*
G75*
G02*
X52045000Y-80700000I155000J0D01*
G01*
X52355000Y-80700000D01*
G75*
G02*
X52510000Y-80855000I0J-155000D01*
G01*
X52510000Y-81280000D01*
G75*
G02*
X52355000Y-81435000I-155000J0D01*
G01*
G37*
%TD.AperFunction*%
%TO.P,C4,2*%
%TO.N,GND*%
%TA.AperFunction,SMDPad,CuDef*%
G36*
G01*
X52355000Y-80300000D02*
X52045000Y-80300000D01*
G75*
G02*
X51890000Y-80145000I0J155000D01*
G01*
X51890000Y-79720000D01*
G75*
G02*
X52045000Y-79565000I155000J0D01*
G01*
X52355000Y-79565000D01*
G75*
G02*
X52510000Y-79720000I0J-155000D01*
G01*
X52510000Y-80145000D01*
G75*
G02*
X52355000Y-80300000I-155000J0D01*
G01*
G37*
%TD.AperFunction*%
%TD*%
%TO.P,C2,1*%
%TO.N,+3V3*%
%TA.AperFunction,SMDPad,CuDef*%
G36*
G01*
X52255000Y-57935000D02*
X51945000Y-57935000D01*
G75*
G02*
X51790000Y-57780000I0J155000D01*
G01*
X51790000Y-57355000D01*
G75*
G02*
X51945000Y-57200000I155000J0D01*
G01*
X52255000Y-57200000D01*
G75*
G02*
X52410000Y-57355000I0J-155000D01*
G01*
X52410000Y-57780000D01*
G75*
G02*
X52255000Y-57935000I-155000J0D01*
G01*
G37*
%TD.AperFunction*%
%TO.P,C2,2*%
%TO.N,GND*%
%TA.AperFunction,SMDPad,CuDef*%
G36*
G01*
X52255000Y-56800000D02*
X51945000Y-56800000D01*
G75*
G02*
X51790000Y-56645000I0J155000D01*
G01*
X51790000Y-56220000D01*
G75*
G02*
X51945000Y-56065000I155000J0D01*
G01*
X52255000Y-56065000D01*
G75*
G02*
X52410000Y-56220000I0J-155000D01*
G01*
X52410000Y-56645000D01*
G75*
G02*
X52255000Y-56800000I-155000J0D01*
G01*
G37*
%TD.AperFunction*%
%TD*%
%TO.P,U5,1,EN1\u002C2*%
%TO.N,+3V3*%
%TA.AperFunction,SMDPad,CuDef*%
G36*
G01*
X51150000Y-84695000D02*
X51150000Y-84995000D01*
G75*
G02*
X51000000Y-85145000I-150000J0D01*
G01*
X49350000Y-85145000D01*
G75*
G02*
X49200000Y-84995000I0J150000D01*
G01*
X49200000Y-84695000D01*
G75*
G02*
X49350000Y-84545000I150000J0D01*
G01*
X51000000Y-84545000D01*
G75*
G02*
X51150000Y-84695000I0J-150000D01*
G01*
G37*
%TD.AperFunction*%
%TO.P,U5,2,DIN1*%
%TO.N,/D15*%
%TA.AperFunction,SMDPad,CuDef*%
G36*
G01*
X51150000Y-83425000D02*
X51150000Y-83725000D01*
G75*
G02*
X51000000Y-83875000I-150000J0D01*
G01*
X49350000Y-83875000D01*
G75*
G02*
X49200000Y-83725000I0J150000D01*
G01*
X49200000Y-83425000D01*
G75*
G02*
X49350000Y-83275000I150000J0D01*
G01*
X51000000Y-83275000D01*
G75*
G02*
X51150000Y-83425000I0J-150000D01*
G01*
G37*
%TD.AperFunction*%
%TO.P,U5,3,DIN2*%
%TO.N,/D14*%
%TA.AperFunction,SMDPad,CuDef*%
G36*
G01*
X51150000Y-82155000D02*
X51150000Y-82455000D01*
G75*
G02*
X51000000Y-82605000I-150000J0D01*
G01*
X49350000Y-82605000D01*
G75*
G02*
X49200000Y-82455000I0J150000D01*
G01*
X49200000Y-82155000D01*
G75*
G02*
X49350000Y-82005000I150000J0D01*
G01*
X51000000Y-82005000D01*
G75*
G02*
X51150000Y-82155000I0J-150000D01*
G01*
G37*
%TD.AperFunction*%
%TO.P,U5,4,VCC*%
%TO.N,+3V3*%
%TA.AperFunction,SMDPad,CuDef*%
G36*
G01*
X51150000Y-80885000D02*
X51150000Y-81185000D01*
G75*
G02*
X51000000Y-81335000I-150000J0D01*
G01*
X49350000Y-81335000D01*
G75*
G02*
X49200000Y-81185000I0J150000D01*
G01*
X49200000Y-80885000D01*
G75*
G02*
X49350000Y-80735000I150000J0D01*
G01*
X51000000Y-80735000D01*
G75*
G02*
X51150000Y-80885000I0J-150000D01*
G01*
G37*
%TD.AperFunction*%
%TO.P,U5,5,GND*%
%TO.N,GND*%
%TA.AperFunction,SMDPad,CuDef*%
G36*
G01*
X51150000Y-79615000D02*
X51150000Y-79915000D01*
G75*
G02*
X51000000Y-80065000I-150000J0D01*
G01*
X49350000Y-80065000D01*
G75*
G02*
X49200000Y-79915000I0J150000D01*
G01*
X49200000Y-79615000D01*
G75*
G02*
X49350000Y-79465000I150000J0D01*
G01*
X51000000Y-79465000D01*
G75*
G02*
X51150000Y-79615000I0J-150000D01*
G01*
G37*
%TD.AperFunction*%
%TO.P,U5,6,DIN3*%
%TO.N,/D13*%
%TA.AperFunction,SMDPad,CuDef*%
G36*
G01*
X51150000Y-78345000D02*
X51150000Y-78645000D01*
G75*
G02*
X51000000Y-78795000I-150000J0D01*
G01*
X49350000Y-78795000D01*
G75*
G02*
X49200000Y-78645000I0J150000D01*
G01*
X49200000Y-78345000D01*
G75*
G02*
X49350000Y-78195000I150000J0D01*
G01*
X51000000Y-78195000D01*
G75*
G02*
X51150000Y-78345000I0J-150000D01*
G01*
G37*
%TD.AperFunction*%
%TO.P,U5,7,DIN4*%
%TO.N,/D12*%
%TA.AperFunction,SMDPad,CuDef*%
G36*
G01*
X51150000Y-77075000D02*
X51150000Y-77375000D01*
G75*
G02*
X51000000Y-77525000I-150000J0D01*
G01*
X49350000Y-77525000D01*
G75*
G02*
X49200000Y-77375000I0J150000D01*
G01*
X49200000Y-77075000D01*
G75*
G02*
X49350000Y-76925000I150000J0D01*
G01*
X51000000Y-76925000D01*
G75*
G02*
X51150000Y-77075000I0J-150000D01*
G01*
G37*
%TD.AperFunction*%
%TO.P,U5,8,EN3\u002C4*%
%TO.N,+3V3*%
%TA.AperFunction,SMDPad,CuDef*%
G36*
G01*
X51150000Y-75805000D02*
X51150000Y-76105000D01*
G75*
G02*
X51000000Y-76255000I-150000J0D01*
G01*
X49350000Y-76255000D01*
G75*
G02*
X49200000Y-76105000I0J150000D01*
G01*
X49200000Y-75805000D01*
G75*
G02*
X49350000Y-75655000I150000J0D01*
G01*
X51000000Y-75655000D01*
G75*
G02*
X51150000Y-75805000I0J-150000D01*
G01*
G37*
%TD.AperFunction*%
%TO.P,U5,9,DOUT4-*%
%TO.N,/Out_12-*%
%TA.AperFunction,SMDPad,CuDef*%
G36*
G01*
X46200000Y-75805000D02*
X46200000Y-76105000D01*
G75*
G02*
X46050000Y-76255000I-150000J0D01*
G01*
X44400000Y-76255000D01*
G75*
G02*
X44250000Y-76105000I0J150000D01*
G01*
X44250000Y-75805000D01*
G75*
G02*
X44400000Y-75655000I150000J0D01*
G01*
X46050000Y-75655000D01*
G75*
G02*
X46200000Y-75805000I0J-150000D01*
G01*
G37*
%TD.AperFunction*%
%TO.P,U5,10,DOUT4+*%
%TO.N,/Out_12+*%
%TA.AperFunction,SMDPad,CuDef*%
G36*
G01*
X46200000Y-77075000D02*
X46200000Y-77375000D01*
G75*
G02*
X46050000Y-77525000I-150000J0D01*
G01*
X44400000Y-77525000D01*
G75*
G02*
X44250000Y-77375000I0J150000D01*
G01*
X44250000Y-77075000D01*
G75*
G02*
X44400000Y-76925000I150000J0D01*
G01*
X46050000Y-76925000D01*
G75*
G02*
X46200000Y-77075000I0J-150000D01*
G01*
G37*
%TD.AperFunction*%
%TO.P,U5,11,DOUT3-*%
%TO.N,/Out_13-*%
%TA.AperFunction,SMDPad,CuDef*%
G36*
G01*
X46200000Y-78345000D02*
X46200000Y-78645000D01*
G75*
G02*
X46050000Y-78795000I-150000J0D01*
G01*
X44400000Y-78795000D01*
G75*
G02*
X44250000Y-78645000I0J150000D01*
G01*
X44250000Y-78345000D01*
G75*
G02*
X44400000Y-78195000I150000J0D01*
G01*
X46050000Y-78195000D01*
G75*
G02*
X46200000Y-78345000I0J-150000D01*
G01*
G37*
%TD.AperFunction*%
%TO.P,U5,12,DOUT3+*%
%TO.N,/Out_13+*%
%TA.AperFunction,SMDPad,CuDef*%
G36*
G01*
X46200000Y-79615000D02*
X46200000Y-79915000D01*
G75*
G02*
X46050000Y-80065000I-150000J0D01*
G01*
X44400000Y-80065000D01*
G75*
G02*
X44250000Y-79915000I0J150000D01*
G01*
X44250000Y-79615000D01*
G75*
G02*
X44400000Y-79465000I150000J0D01*
G01*
X46050000Y-79465000D01*
G75*
G02*
X46200000Y-79615000I0J-150000D01*
G01*
G37*
%TD.AperFunction*%
%TO.P,U5,13,DOUT2-*%
%TO.N,/Out_14-*%
%TA.AperFunction,SMDPad,CuDef*%
G36*
G01*
X46200000Y-80885000D02*
X46200000Y-81185000D01*
G75*
G02*
X46050000Y-81335000I-150000J0D01*
G01*
X44400000Y-81335000D01*
G75*
G02*
X44250000Y-81185000I0J150000D01*
G01*
X44250000Y-80885000D01*
G75*
G02*
X44400000Y-80735000I150000J0D01*
G01*
X46050000Y-80735000D01*
G75*
G02*
X46200000Y-80885000I0J-150000D01*
G01*
G37*
%TD.AperFunction*%
%TO.P,U5,14,DOUT2+*%
%TO.N,/Out_14+*%
%TA.AperFunction,SMDPad,CuDef*%
G36*
G01*
X46200000Y-82155000D02*
X46200000Y-82455000D01*
G75*
G02*
X46050000Y-82605000I-150000J0D01*
G01*
X44400000Y-82605000D01*
G75*
G02*
X44250000Y-82455000I0J150000D01*
G01*
X44250000Y-82155000D01*
G75*
G02*
X44400000Y-82005000I150000J0D01*
G01*
X46050000Y-82005000D01*
G75*
G02*
X46200000Y-82155000I0J-150000D01*
G01*
G37*
%TD.AperFunction*%
%TO.P,U5,15,DOUT1-*%
%TO.N,/Out_15-*%
%TA.AperFunction,SMDPad,CuDef*%
G36*
G01*
X46200000Y-83425000D02*
X46200000Y-83725000D01*
G75*
G02*
X46050000Y-83875000I-150000J0D01*
G01*
X44400000Y-83875000D01*
G75*
G02*
X44250000Y-83725000I0J150000D01*
G01*
X44250000Y-83425000D01*
G75*
G02*
X44400000Y-83275000I150000J0D01*
G01*
X46050000Y-83275000D01*
G75*
G02*
X46200000Y-83425000I0J-150000D01*
G01*
G37*
%TD.AperFunction*%
%TO.P,U5,16,DOUT1+*%
%TO.N,/Out_15+*%
%TA.AperFunction,SMDPad,CuDef*%
G36*
G01*
X46200000Y-84695000D02*
X46200000Y-84995000D01*
G75*
G02*
X46050000Y-85145000I-150000J0D01*
G01*
X44400000Y-85145000D01*
G75*
G02*
X44250000Y-84995000I0J150000D01*
G01*
X44250000Y-84695000D01*
G75*
G02*
X44400000Y-84545000I150000J0D01*
G01*
X46050000Y-84545000D01*
G75*
G02*
X46200000Y-84695000I0J-150000D01*
G01*
G37*
%TD.AperFunction*%
%TD*%
%TO.P,C3,1*%
%TO.N,+3V3*%
%TA.AperFunction,SMDPad,CuDef*%
G36*
G01*
X52255000Y-69635000D02*
X51945000Y-69635000D01*
G75*
G02*
X51790000Y-69480000I0J155000D01*
G01*
X51790000Y-69055000D01*
G75*
G02*
X51945000Y-68900000I155000J0D01*
G01*
X52255000Y-68900000D01*
G75*
G02*
X52410000Y-69055000I0J-155000D01*
G01*
X52410000Y-69480000D01*
G75*
G02*
X52255000Y-69635000I-155000J0D01*
G01*
G37*
%TD.AperFunction*%
%TO.P,C3,2*%
%TO.N,GND*%
%TA.AperFunction,SMDPad,CuDef*%
G36*
G01*
X52255000Y-68500000D02*
X51945000Y-68500000D01*
G75*
G02*
X51790000Y-68345000I0J155000D01*
G01*
X51790000Y-67920000D01*
G75*
G02*
X51945000Y-67765000I155000J0D01*
G01*
X52255000Y-67765000D01*
G75*
G02*
X52410000Y-67920000I0J-155000D01*
G01*
X52410000Y-68345000D01*
G75*
G02*
X52255000Y-68500000I-155000J0D01*
G01*
G37*
%TD.AperFunction*%
%TD*%
%TO.P,U1,1,GPIO0*%
%TO.N,/D0*%
X62750000Y-38760000D03*
D12*
X61850000Y-38760000D03*
D11*
%TO.P,U1,2,GPIO1*%
%TO.N,/D1*%
X62750000Y-41300000D03*
D12*
X61850000Y-41300000D03*
D10*
%TO.P,U1,3,GND*%
%TO.N,GND*%
X62750000Y-43840000D03*
D12*
X61850000Y-43840000D03*
D11*
%TO.P,U1,4,GPIO2*%
%TO.N,/D2*%
X62750000Y-46380000D03*
D12*
X61850000Y-46380000D03*
D11*
%TO.P,U1,5,GPIO3*%
%TO.N,/D3*%
X62750000Y-48920000D03*
D12*
X61850000Y-48920000D03*
D11*
%TO.P,U1,6,GPIO4*%
%TO.N,/D4*%
X62750000Y-51460000D03*
D12*
X61850000Y-51460000D03*
D11*
%TO.P,U1,7,GPIO5*%
%TO.N,/D5*%
X62750000Y-54000000D03*
D12*
X61850000Y-54000000D03*
D10*
%TO.P,U1,8,GND*%
%TO.N,GND*%
X62750000Y-56540000D03*
D12*
X61850000Y-56540000D03*
D11*
%TO.P,U1,9,GPIO6*%
%TO.N,/D6*%
X62750000Y-59080000D03*
D12*
X61850000Y-59080000D03*
D11*
%TO.P,U1,10,GPIO7*%
%TO.N,/D7*%
X62750000Y-61620000D03*
D12*
X61850000Y-61620000D03*
D11*
%TO.P,U1,11,GPIO8*%
%TO.N,/D8*%
X62750000Y-64160000D03*
D12*
X61850000Y-64160000D03*
D11*
%TO.P,U1,12,GPIO9*%
%TO.N,/D9*%
X62750000Y-66700000D03*
D12*
X61850000Y-66700000D03*
D10*
%TO.P,U1,13,GND*%
%TO.N,GND*%
X62750000Y-69240000D03*
D12*
X61850000Y-69240000D03*
D11*
%TO.P,U1,14,GPIO10*%
%TO.N,/D10*%
X62750000Y-71780000D03*
D12*
X61850000Y-71780000D03*
D11*
%TO.P,U1,15,GPIO11*%
%TO.N,/D11*%
X62750000Y-74320000D03*
D12*
X61850000Y-74320000D03*
D11*
%TO.P,U1,16,GPIO12*%
%TO.N,/D12*%
X62750000Y-76860000D03*
D12*
X61850000Y-76860000D03*
D11*
%TO.P,U1,17,GPIO13*%
%TO.N,/D13*%
X62750000Y-79400000D03*
D12*
X61850000Y-79400000D03*
D10*
%TO.P,U1,18,GND*%
%TO.N,GND*%
X62750000Y-81940000D03*
D12*
X61850000Y-81940000D03*
D11*
%TO.P,U1,19,GPIO14*%
%TO.N,/D14*%
X62750000Y-84480000D03*
D12*
X61850000Y-84480000D03*
D11*
%TO.P,U1,20,GPIO15*%
%TO.N,/D15*%
X62750000Y-87020000D03*
D12*
X61850000Y-87020000D03*
D11*
%TO.P,U1,21,GPIO16*%
%TO.N,unconnected-(U1-GPIO16-Pad21)*%
X80530000Y-87020000D03*
D12*
%TO.N,unconnected-(U1-GPIO16-Pad21)_1*%
X81430000Y-87020000D03*
D11*
%TO.P,U1,22,GPIO17*%
%TO.N,unconnected-(U1-GPIO17-Pad22)*%
X80530000Y-84480000D03*
D12*
%TO.N,unconnected-(U1-GPIO17-Pad22)_1*%
X81430000Y-84480000D03*
D10*
%TO.P,U1,23,GND*%
%TO.N,GND*%
X80530000Y-81940000D03*
D12*
X81430000Y-81940000D03*
D11*
%TO.P,U1,24,GPIO18*%
%TO.N,unconnected-(U1-GPIO18-Pad24)_1*%
X80530000Y-79400000D03*
D12*
%TO.N,unconnected-(U1-GPIO18-Pad24)*%
X81430000Y-79400000D03*
D11*
%TO.P,U1,25,GPIO19*%
%TO.N,unconnected-(U1-GPIO19-Pad25)_1*%
X80530000Y-76860000D03*
D12*
%TO.N,unconnected-(U1-GPIO19-Pad25)*%
X81430000Y-76860000D03*
D11*
%TO.P,U1,26,GPIO20*%
%TO.N,unconnected-(U1-GPIO20-Pad26)_1*%
X80530000Y-74320000D03*
D12*
%TO.N,unconnected-(U1-GPIO20-Pad26)*%
X81430000Y-74320000D03*
D11*
%TO.P,U1,27,GPIO21*%
%TO.N,unconnected-(U1-GPIO21-Pad27)_1*%
X80530000Y-71780000D03*
D12*
%TO.N,unconnected-(U1-GPIO21-Pad27)*%
X81430000Y-71780000D03*
D10*
%TO.P,U1,28,GND*%
%TO.N,GND*%
X80530000Y-69240000D03*
D12*
X81430000Y-69240000D03*
D11*
%TO.P,U1,29,GPIO22*%
%TO.N,unconnected-(U1-GPIO22-Pad29)*%
X80530000Y-66700000D03*
D12*
%TO.N,unconnected-(U1-GPIO22-Pad29)_1*%
X81430000Y-66700000D03*
D11*
%TO.P,U1,30,RUN*%
%TO.N,unconnected-(U1-RUN-Pad30)*%
X80530000Y-64160000D03*
D12*
%TO.N,unconnected-(U1-RUN-Pad30)_1*%
X81430000Y-64160000D03*
D11*
%TO.P,U1,31,GPIO26_ADC0*%
%TO.N,unconnected-(U1-GPIO26_ADC0-Pad31)*%
X80530000Y-61620000D03*
D12*
%TO.N,unconnected-(U1-GPIO26_ADC0-Pad31)_1*%
X81430000Y-61620000D03*
D11*
%TO.P,U1,32,GPIO27_ADC1*%
%TO.N,unconnected-(U1-GPIO27_ADC1-Pad32)_1*%
X80530000Y-59080000D03*
D12*
%TO.N,unconnected-(U1-GPIO27_ADC1-Pad32)*%
X81430000Y-59080000D03*
D10*
%TO.P,U1,33,AGND*%
%TO.N,unconnected-(U1-AGND-Pad33)_1*%
X80530000Y-56540000D03*
D12*
%TO.N,unconnected-(U1-AGND-Pad33)*%
X81430000Y-56540000D03*
D11*
%TO.P,U1,34,GPIO28_ADC2*%
%TO.N,unconnected-(U1-GPIO28_ADC2-Pad34)*%
X80530000Y-54000000D03*
D12*
%TO.N,unconnected-(U1-GPIO28_ADC2-Pad34)_1*%
X81430000Y-54000000D03*
D11*
%TO.P,U1,35,ADC_VREF*%
%TO.N,unconnected-(U1-ADC_VREF-Pad35)*%
X80530000Y-51460000D03*
D12*
%TO.N,unconnected-(U1-ADC_VREF-Pad35)_1*%
X81430000Y-51460000D03*
D11*
%TO.P,U1,36,3V3*%
%TO.N,+3V3*%
X80530000Y-48920000D03*
D12*
X81430000Y-48920000D03*
D11*
%TO.P,U1,37,3V3_EN*%
%TO.N,unconnected-(U1-3V3_EN-Pad37)*%
X80530000Y-46380000D03*
D12*
%TO.N,unconnected-(U1-3V3_EN-Pad37)_1*%
X81430000Y-46380000D03*
D10*
%TO.P,U1,38,GND*%
%TO.N,GND*%
X80530000Y-43840000D03*
D12*
X81430000Y-43840000D03*
D11*
%TO.P,U1,39,VSYS*%
%TO.N,unconnected-(U1-VSYS-Pad39)_1*%
X80530000Y-41300000D03*
D12*
%TO.N,unconnected-(U1-VSYS-Pad39)*%
X81430000Y-41300000D03*
D11*
%TO.P,U1,40,VBUS*%
%TO.N,unconnected-(U1-VBUS-Pad40)*%
X80530000Y-38760000D03*
D12*
%TO.N,unconnected-(U1-VBUS-Pad40)_1*%
X81430000Y-38760000D03*
D11*
%TO.P,U1,41,SWCLK*%
%TO.N,unconnected-(U1-SWCLK-Pad41)_1*%
X69100000Y-86790000D03*
D13*
%TO.N,unconnected-(U1-SWCLK-Pad41)*%
X69100000Y-87690000D03*
D10*
%TO.P,U1,42,GND*%
%TO.N,unconnected-(U1-GND-Pad42)_1*%
X71640000Y-86790000D03*
D13*
%TO.N,unconnected-(U1-GND-Pad42)*%
X71640000Y-87690000D03*
D11*
%TO.P,U1,43,SWDIO*%
%TO.N,unconnected-(U1-SWDIO-Pad43)*%
X74180000Y-86790000D03*
D13*
%TO.N,unconnected-(U1-SWDIO-Pad43)_1*%
X74180000Y-87690000D03*
%TD*%
%TO.P,U4,1,EN1\u002C2*%
%TO.N,+3V3*%
%TA.AperFunction,SMDPad,CuDef*%
G36*
G01*
X51150000Y-72995000D02*
X51150000Y-73295000D01*
G75*
G02*
X51000000Y-73445000I-150000J0D01*
G01*
X49350000Y-73445000D01*
G75*
G02*
X49200000Y-73295000I0J150000D01*
G01*
X49200000Y-72995000D01*
G75*
G02*
X49350000Y-72845000I150000J0D01*
G01*
X51000000Y-72845000D01*
G75*
G02*
X51150000Y-72995000I0J-150000D01*
G01*
G37*
%TD.AperFunction*%
%TO.P,U4,2,DIN1*%
%TO.N,/D11*%
%TA.AperFunction,SMDPad,CuDef*%
G36*
G01*
X51150000Y-71725000D02*
X51150000Y-72025000D01*
G75*
G02*
X51000000Y-72175000I-150000J0D01*
G01*
X49350000Y-72175000D01*
G75*
G02*
X49200000Y-72025000I0J150000D01*
G01*
X49200000Y-71725000D01*
G75*
G02*
X49350000Y-71575000I150000J0D01*
G01*
X51000000Y-71575000D01*
G75*
G02*
X51150000Y-71725000I0J-150000D01*
G01*
G37*
%TD.AperFunction*%
%TO.P,U4,3,DIN2*%
%TO.N,/D10*%
%TA.AperFunction,SMDPad,CuDef*%
G36*
G01*
X51150000Y-70455000D02*
X51150000Y-70755000D01*
G75*
G02*
X51000000Y-70905000I-150000J0D01*
G01*
X49350000Y-70905000D01*
G75*
G02*
X49200000Y-70755000I0J150000D01*
G01*
X49200000Y-70455000D01*
G75*
G02*
X49350000Y-70305000I150000J0D01*
G01*
X51000000Y-70305000D01*
G75*
G02*
X51150000Y-70455000I0J-150000D01*
G01*
G37*
%TD.AperFunction*%
%TO.P,U4,4,VCC*%
%TO.N,+3V3*%
%TA.AperFunction,SMDPad,CuDef*%
G36*
G01*
X51150000Y-69185000D02*
X51150000Y-69485000D01*
G75*
G02*
X51000000Y-69635000I-150000J0D01*
G01*
X49350000Y-69635000D01*
G75*
G02*
X49200000Y-69485000I0J150000D01*
G01*
X49200000Y-69185000D01*
G75*
G02*
X49350000Y-69035000I150000J0D01*
G01*
X51000000Y-69035000D01*
G75*
G02*
X51150000Y-69185000I0J-150000D01*
G01*
G37*
%TD.AperFunction*%
%TO.P,U4,5,GND*%
%TO.N,GND*%
%TA.AperFunction,SMDPad,CuDef*%
G36*
G01*
X51150000Y-67915000D02*
X51150000Y-68215000D01*
G75*
G02*
X51000000Y-68365000I-150000J0D01*
G01*
X49350000Y-68365000D01*
G75*
G02*
X49200000Y-68215000I0J150000D01*
G01*
X49200000Y-67915000D01*
G75*
G02*
X49350000Y-67765000I150000J0D01*
G01*
X51000000Y-67765000D01*
G75*
G02*
X51150000Y-67915000I0J-150000D01*
G01*
G37*
%TD.AperFunction*%
%TO.P,U4,6,DIN3*%
%TO.N,/D9*%
%TA.AperFunction,SMDPad,CuDef*%
G36*
G01*
X51150000Y-66645000D02*
X51150000Y-66945000D01*
G75*
G02*
X51000000Y-67095000I-150000J0D01*
G01*
X49350000Y-67095000D01*
G75*
G02*
X49200000Y-66945000I0J150000D01*
G01*
X49200000Y-66645000D01*
G75*
G02*
X49350000Y-66495000I150000J0D01*
G01*
X51000000Y-66495000D01*
G75*
G02*
X51150000Y-66645000I0J-150000D01*
G01*
G37*
%TD.AperFunction*%
%TO.P,U4,7,DIN4*%
%TO.N,/D8*%
%TA.AperFunction,SMDPad,CuDef*%
G36*
G01*
X51150000Y-65375000D02*
X51150000Y-65675000D01*
G75*
G02*
X51000000Y-65825000I-150000J0D01*
G01*
X49350000Y-65825000D01*
G75*
G02*
X49200000Y-65675000I0J150000D01*
G01*
X49200000Y-65375000D01*
G75*
G02*
X49350000Y-65225000I150000J0D01*
G01*
X51000000Y-65225000D01*
G75*
G02*
X51150000Y-65375000I0J-150000D01*
G01*
G37*
%TD.AperFunction*%
%TO.P,U4,8,EN3\u002C4*%
%TO.N,+3V3*%
%TA.AperFunction,SMDPad,CuDef*%
G36*
G01*
X51150000Y-64105000D02*
X51150000Y-64405000D01*
G75*
G02*
X51000000Y-64555000I-150000J0D01*
G01*
X49350000Y-64555000D01*
G75*
G02*
X49200000Y-64405000I0J150000D01*
G01*
X49200000Y-64105000D01*
G75*
G02*
X49350000Y-63955000I150000J0D01*
G01*
X51000000Y-63955000D01*
G75*
G02*
X51150000Y-64105000I0J-150000D01*
G01*
G37*
%TD.AperFunction*%
%TO.P,U4,9,DOUT4-*%
%TO.N,/Out_8-*%
%TA.AperFunction,SMDPad,CuDef*%
G36*
G01*
X46200000Y-64105000D02*
X46200000Y-64405000D01*
G75*
G02*
X46050000Y-64555000I-150000J0D01*
G01*
X44400000Y-64555000D01*
G75*
G02*
X44250000Y-64405000I0J150000D01*
G01*
X44250000Y-64105000D01*
G75*
G02*
X44400000Y-63955000I150000J0D01*
G01*
X46050000Y-63955000D01*
G75*
G02*
X46200000Y-64105000I0J-150000D01*
G01*
G37*
%TD.AperFunction*%
%TO.P,U4,10,DOUT4+*%
%TO.N,/Out_8+*%
%TA.AperFunction,SMDPad,CuDef*%
G36*
G01*
X46200000Y-65375000D02*
X46200000Y-65675000D01*
G75*
G02*
X46050000Y-65825000I-150000J0D01*
G01*
X44400000Y-65825000D01*
G75*
G02*
X44250000Y-65675000I0J150000D01*
G01*
X44250000Y-65375000D01*
G75*
G02*
X44400000Y-65225000I150000J0D01*
G01*
X46050000Y-65225000D01*
G75*
G02*
X46200000Y-65375000I0J-150000D01*
G01*
G37*
%TD.AperFunction*%
%TO.P,U4,11,DOUT3-*%
%TO.N,/Out_9-*%
%TA.AperFunction,SMDPad,CuDef*%
G36*
G01*
X46200000Y-66645000D02*
X46200000Y-66945000D01*
G75*
G02*
X46050000Y-67095000I-150000J0D01*
G01*
X44400000Y-67095000D01*
G75*
G02*
X44250000Y-66945000I0J150000D01*
G01*
X44250000Y-66645000D01*
G75*
G02*
X44400000Y-66495000I150000J0D01*
G01*
X46050000Y-66495000D01*
G75*
G02*
X46200000Y-66645000I0J-150000D01*
G01*
G37*
%TD.AperFunction*%
%TO.P,U4,12,DOUT3+*%
%TO.N,/Out_9+*%
%TA.AperFunction,SMDPad,CuDef*%
G36*
G01*
X46200000Y-67915000D02*
X46200000Y-68215000D01*
G75*
G02*
X46050000Y-68365000I-150000J0D01*
G01*
X44400000Y-68365000D01*
G75*
G02*
X44250000Y-68215000I0J150000D01*
G01*
X44250000Y-67915000D01*
G75*
G02*
X44400000Y-67765000I150000J0D01*
G01*
X46050000Y-67765000D01*
G75*
G02*
X46200000Y-67915000I0J-150000D01*
G01*
G37*
%TD.AperFunction*%
%TO.P,U4,13,DOUT2-*%
%TO.N,/Out_10-*%
%TA.AperFunction,SMDPad,CuDef*%
G36*
G01*
X46200000Y-69185000D02*
X46200000Y-69485000D01*
G75*
G02*
X46050000Y-69635000I-150000J0D01*
G01*
X44400000Y-69635000D01*
G75*
G02*
X44250000Y-69485000I0J150000D01*
G01*
X44250000Y-69185000D01*
G75*
G02*
X44400000Y-69035000I150000J0D01*
G01*
X46050000Y-69035000D01*
G75*
G02*
X46200000Y-69185000I0J-150000D01*
G01*
G37*
%TD.AperFunction*%
%TO.P,U4,14,DOUT2+*%
%TO.N,/Out_10+*%
%TA.AperFunction,SMDPad,CuDef*%
G36*
G01*
X46200000Y-70455000D02*
X46200000Y-70755000D01*
G75*
G02*
X46050000Y-70905000I-150000J0D01*
G01*
X44400000Y-70905000D01*
G75*
G02*
X44250000Y-70755000I0J150000D01*
G01*
X44250000Y-70455000D01*
G75*
G02*
X44400000Y-70305000I150000J0D01*
G01*
X46050000Y-70305000D01*
G75*
G02*
X46200000Y-70455000I0J-150000D01*
G01*
G37*
%TD.AperFunction*%
%TO.P,U4,15,DOUT1-*%
%TO.N,/Out_11-*%
%TA.AperFunction,SMDPad,CuDef*%
G36*
G01*
X46200000Y-71725000D02*
X46200000Y-72025000D01*
G75*
G02*
X46050000Y-72175000I-150000J0D01*
G01*
X44400000Y-72175000D01*
G75*
G02*
X44250000Y-72025000I0J150000D01*
G01*
X44250000Y-71725000D01*
G75*
G02*
X44400000Y-71575000I150000J0D01*
G01*
X46050000Y-71575000D01*
G75*
G02*
X46200000Y-71725000I0J-150000D01*
G01*
G37*
%TD.AperFunction*%
%TO.P,U4,16,DOUT1+*%
%TO.N,/Out_11+*%
%TA.AperFunction,SMDPad,CuDef*%
G36*
G01*
X46200000Y-72995000D02*
X46200000Y-73295000D01*
G75*
G02*
X46050000Y-73445000I-150000J0D01*
G01*
X44400000Y-73445000D01*
G75*
G02*
X44250000Y-73295000I0J150000D01*
G01*
X44250000Y-72995000D01*
G75*
G02*
X44400000Y-72845000I150000J0D01*
G01*
X46050000Y-72845000D01*
G75*
G02*
X46200000Y-72995000I0J-150000D01*
G01*
G37*
%TD.AperFunction*%
%TD*%
D14*
%TO.N,+3V3*%
X52750000Y-69250000D03*
X52750000Y-57750000D03*
X51500000Y-81110000D03*
X50175000Y-51800000D03*
X50200000Y-40100000D03*
X50175000Y-62200000D03*
X51500000Y-45935000D03*
X52750000Y-46000000D03*
X50175000Y-50500000D03*
X50175000Y-75200000D03*
X51500000Y-57635000D03*
X51500000Y-69267500D03*
X53000000Y-81000000D03*
X50175000Y-73900000D03*
X50175000Y-63500000D03*
X50200000Y-85600000D03*
%TO.N,GND*%
X52750000Y-68000000D03*
X52750000Y-44500000D03*
X51500000Y-56365000D03*
X51500000Y-68132500D03*
X52750000Y-56250000D03*
X51500000Y-79932500D03*
X51500000Y-44665000D03*
X53000000Y-79750000D03*
%TD*%
D15*
%TO.N,+3V3*%
X52200000Y-81067500D02*
X52932500Y-81067500D01*
X52617500Y-45867500D02*
X52750000Y-46000000D01*
D16*
X50175000Y-75955000D02*
X50175000Y-75200000D01*
X50175000Y-84845000D02*
X50175000Y-85575000D01*
X50175000Y-85575000D02*
X50200000Y-85600000D01*
X50175000Y-63500000D02*
X50175000Y-62200000D01*
D15*
X52567500Y-57567500D02*
X52750000Y-57750000D01*
X50175000Y-57635000D02*
X51500000Y-57635000D01*
X52100000Y-45867500D02*
X52617500Y-45867500D01*
X50250000Y-81110000D02*
X51500000Y-81110000D01*
D16*
X50175000Y-40125000D02*
X50200000Y-40100000D01*
X50175000Y-49745000D02*
X50175000Y-50500000D01*
X50175000Y-64255000D02*
X50175000Y-63500000D01*
D15*
X51500000Y-57635000D02*
X52032500Y-57635000D01*
X50175000Y-45935000D02*
X51500000Y-45935000D01*
D16*
X50175000Y-50500000D02*
X50175000Y-51800000D01*
D15*
X50267500Y-69267500D02*
X50200000Y-69335000D01*
X51500000Y-45935000D02*
X52032500Y-45935000D01*
X52100000Y-69267500D02*
X51500000Y-69267500D01*
D16*
X50175000Y-51800000D02*
X50175000Y-52555000D01*
D15*
X52932500Y-81067500D02*
X53000000Y-81000000D01*
D16*
X50175000Y-62200000D02*
X50175000Y-61445000D01*
D15*
X51500000Y-69267500D02*
X50267500Y-69267500D01*
X51500000Y-81110000D02*
X52157500Y-81110000D01*
X52100000Y-69267500D02*
X52732500Y-69267500D01*
D16*
X50175000Y-40855000D02*
X50175000Y-40125000D01*
X50230000Y-49800000D02*
X50175000Y-49745000D01*
D15*
X52100000Y-57567500D02*
X52567500Y-57567500D01*
D16*
X50175000Y-75200000D02*
X50175000Y-73900000D01*
X50175000Y-73900000D02*
X50175000Y-73145000D01*
D15*
X52032500Y-57635000D02*
X52100000Y-57567500D01*
X52732500Y-69267500D02*
X52750000Y-69250000D01*
X52032500Y-45935000D02*
X52100000Y-45867500D01*
%TO.N,GND*%
X52817500Y-79932500D02*
X52200000Y-79932500D01*
D16*
X78994200Y-44844200D02*
X80033400Y-43805000D01*
D15*
X52100000Y-56432500D02*
X52567500Y-56432500D01*
X52200000Y-79932500D02*
X51500000Y-79932500D01*
X52567500Y-56432500D02*
X52750000Y-56250000D01*
D16*
X78994200Y-45505800D02*
X78994200Y-44844200D01*
D15*
X52032500Y-44665000D02*
X52100000Y-44732500D01*
X50267500Y-68132500D02*
X50200000Y-68065000D01*
X51500000Y-79932500D02*
X50342500Y-79932500D01*
X51500000Y-44665000D02*
X52032500Y-44665000D01*
X52750000Y-44500000D02*
X52517500Y-44732500D01*
X50175000Y-56365000D02*
X51500000Y-56365000D01*
X52750000Y-68000000D02*
X52617500Y-68132500D01*
X52517500Y-44732500D02*
X52100000Y-44732500D01*
X50175000Y-44665000D02*
X51500000Y-44665000D01*
D16*
X62750000Y-56540000D02*
X67960000Y-56540000D01*
D15*
X53000000Y-79750000D02*
X52817500Y-79932500D01*
X52617500Y-68132500D02*
X52100000Y-68132500D01*
X50342500Y-79932500D02*
X50250000Y-79840000D01*
X51500000Y-56365000D02*
X52032500Y-56365000D01*
X52100000Y-68132500D02*
X51500000Y-68132500D01*
X51500000Y-68132500D02*
X50267500Y-68132500D01*
D16*
X67960000Y-56540000D02*
X78994200Y-45505800D01*
D15*
X52032500Y-56365000D02*
X52100000Y-56432500D01*
D16*
X80033400Y-43805000D02*
X82712000Y-43805000D01*
D17*
%TO.N,/Out_8-*%
X40475031Y-64517799D02*
X40475031Y-64921339D01*
X36991692Y-64060000D02*
X38129031Y-65197339D01*
X40061031Y-64241799D02*
X40199031Y-64241799D01*
X43814824Y-65041170D02*
X43814824Y-64990048D01*
X44495030Y-64984970D02*
X44234288Y-64984970D01*
X39095031Y-64517823D02*
X39095031Y-64921339D01*
X44021919Y-65197339D02*
X43970994Y-65197339D01*
X39371031Y-65197339D02*
X39509031Y-65197339D01*
X45225000Y-64255000D02*
X44495030Y-64984970D01*
X38681031Y-64241823D02*
X38819031Y-64241823D01*
X42687164Y-64990048D02*
X42687164Y-65041170D01*
X44234288Y-64984970D02*
X44021919Y-65197339D01*
X43970994Y-65197339D02*
X43970994Y-65197340D01*
X39785031Y-64921339D02*
X39785031Y-64517799D01*
X40751031Y-65197339D02*
X42530994Y-65197340D01*
X38405031Y-64921339D02*
X38405031Y-64517823D01*
X43330994Y-64506218D02*
X43170994Y-64506218D01*
X39509031Y-65197339D02*
G75*
G03*
X39785039Y-64921339I-31J276039D01*
G01*
X43970994Y-65197340D02*
G75*
G02*
X43814860Y-65041170I6J156140D01*
G01*
X39785031Y-64517799D02*
G75*
G02*
X40061031Y-64241831I275969J-1D01*
G01*
X38819031Y-64241823D02*
G75*
G02*
X39094977Y-64517823I-31J-275977D01*
G01*
X43170994Y-64506218D02*
G75*
G03*
X42687218Y-64990048I6J-483782D01*
G01*
X39095031Y-64921339D02*
G75*
G03*
X39371031Y-65197269I275969J39D01*
G01*
X43814824Y-64990048D02*
G75*
G03*
X43330994Y-64506176I-483824J48D01*
G01*
X38129031Y-65197339D02*
G75*
G03*
X38405039Y-64921339I-31J276039D01*
G01*
X40475031Y-64921339D02*
G75*
G03*
X40751031Y-65197269I275969J39D01*
G01*
X42687164Y-65041170D02*
G75*
G02*
X42530994Y-65197364I-156164J-30D01*
G01*
X40199031Y-64241799D02*
G75*
G02*
X40475001Y-64517799I-31J-276001D01*
G01*
X38405031Y-64517823D02*
G75*
G02*
X38681031Y-64241831I275969J23D01*
G01*
%TO.N,/Out_5+*%
X44418382Y-56365000D02*
X44015722Y-56767660D01*
X41220602Y-56767660D02*
X37503876Y-56767660D01*
X36741506Y-57530030D02*
X35838494Y-57530030D01*
X35838494Y-57530030D02*
X34748464Y-56440000D01*
X45225000Y-56365000D02*
X44418382Y-56365000D01*
X34748464Y-56440000D02*
X33750000Y-56440000D01*
X42132388Y-56767660D02*
X41880000Y-56767660D01*
X44015722Y-56767660D02*
X43915888Y-56767660D01*
X37503876Y-56767660D02*
X36741506Y-57530030D01*
X43132388Y-57515272D02*
X42880000Y-57515272D01*
X41880000Y-56767660D02*
X41220602Y-56767660D01*
X43915888Y-56767660D02*
X43880000Y-56767660D01*
X42880000Y-57515272D02*
G75*
G02*
X42342328Y-56977636I0J537672D01*
G01*
X43670024Y-56977636D02*
G75*
G02*
X43132388Y-57515224I-537624J36D01*
G01*
X42342364Y-56977636D02*
G75*
G03*
X42132388Y-56767636I-209964J36D01*
G01*
X43880000Y-56767660D02*
G75*
G03*
X43670060Y-56977636I0J-209940D01*
G01*
%TO.N,/Out_1-*%
X39766602Y-45531076D02*
X39646602Y-45531076D01*
X42836170Y-44835041D02*
X42836170Y-45332138D01*
X37000000Y-46280000D02*
X36290000Y-46280000D01*
X41888308Y-46280000D02*
X41446602Y-46280000D01*
X45225000Y-43395000D02*
X44753830Y-43866170D01*
X37966602Y-46280000D02*
X37846602Y-46280000D01*
X38806602Y-46040000D02*
X38806602Y-45771052D01*
X38206602Y-45771052D02*
X38206602Y-46040000D01*
X40006602Y-46040000D02*
X40006602Y-45771076D01*
X42836170Y-45332138D02*
X41888308Y-46280000D01*
X40966602Y-45531076D02*
X40846602Y-45531076D01*
X39166602Y-46280000D02*
X39046602Y-46280000D01*
X37846602Y-46280000D02*
X37000000Y-46280000D01*
X40606602Y-45771076D02*
X40606602Y-46040000D01*
X40366602Y-46280000D02*
X40246602Y-46280000D01*
X41206602Y-46040000D02*
X41206602Y-45771076D01*
X39406602Y-45771076D02*
X39406602Y-46040000D01*
X38566602Y-45531052D02*
X38446602Y-45531052D01*
X43805041Y-43866170D02*
X42836170Y-44835041D01*
X44753830Y-43866170D02*
X43805041Y-43866170D01*
X41206602Y-45771076D02*
G75*
G03*
X40966602Y-45531098I-240002J-24D01*
G01*
X38446602Y-45531052D02*
G75*
G03*
X38206552Y-45771052I-2J-240048D01*
G01*
X40006602Y-45771076D02*
G75*
G03*
X39766602Y-45531098I-240002J-24D01*
G01*
X40246602Y-46280000D02*
G75*
G02*
X40006600Y-46040000I-2J240000D01*
G01*
X39646602Y-45531076D02*
G75*
G03*
X39406576Y-45771076I-2J-240024D01*
G01*
X38206602Y-46040000D02*
G75*
G02*
X37966602Y-46280002I-240002J0D01*
G01*
X38806602Y-45771052D02*
G75*
G03*
X38566602Y-45531098I-240002J-48D01*
G01*
X40846602Y-45531076D02*
G75*
G03*
X40606576Y-45771076I-2J-240024D01*
G01*
X41446602Y-46280000D02*
G75*
G02*
X41206600Y-46040000I-2J240000D01*
G01*
X39046602Y-46280000D02*
G75*
G02*
X38806600Y-46040000I-2J240000D01*
G01*
X40606602Y-46040000D02*
G75*
G02*
X40366602Y-46280002I-240002J0D01*
G01*
X39406602Y-46040000D02*
G75*
G02*
X39166602Y-46280002I-240002J0D01*
G01*
%TO.N,/Out_14-*%
X40746521Y-81506170D02*
X40626521Y-81506170D01*
X41346521Y-80770252D02*
X41226521Y-80770252D01*
X42786521Y-81266170D02*
X42786521Y-81010246D01*
X39137862Y-81506170D02*
X39546521Y-81506170D01*
X41586521Y-81266170D02*
X41586521Y-81010252D01*
X40986521Y-81010252D02*
X40986521Y-81266170D01*
X43291329Y-81506170D02*
X43026521Y-81506170D01*
X36931692Y-79300000D02*
X39137862Y-81506170D01*
X39786521Y-81010246D02*
X39786521Y-81266170D01*
X40146521Y-80770246D02*
X40026521Y-80770246D01*
X42186521Y-81010246D02*
X42186521Y-81266170D01*
X41946521Y-81506170D02*
X41826521Y-81506170D01*
X45225000Y-81035000D02*
X43762499Y-81035000D01*
X40386521Y-81266170D02*
X40386521Y-81010246D01*
X43762499Y-81035000D02*
X43291329Y-81506170D01*
X42546521Y-80770246D02*
X42426521Y-80770246D01*
X43026521Y-81506170D02*
G75*
G02*
X42786530Y-81266170I-21J239970D01*
G01*
X42186521Y-81266170D02*
G75*
G02*
X41946521Y-81506221I-240021J-30D01*
G01*
X41226521Y-80770252D02*
G75*
G03*
X40986452Y-81010252I-21J-240048D01*
G01*
X39786521Y-81266170D02*
G75*
G02*
X39546521Y-81506221I-240021J-30D01*
G01*
X40626521Y-81506170D02*
G75*
G02*
X40386530Y-81266170I-21J239970D01*
G01*
X41586521Y-81010252D02*
G75*
G03*
X41346521Y-80770279I-240021J-48D01*
G01*
X42426521Y-80770246D02*
G75*
G03*
X42186546Y-81010246I-21J-239954D01*
G01*
X40986521Y-81266170D02*
G75*
G02*
X40746521Y-81506221I-240021J-30D01*
G01*
X40386521Y-81010246D02*
G75*
G03*
X40146521Y-80770179I-240021J46D01*
G01*
X42786521Y-81010246D02*
G75*
G03*
X42546521Y-80770179I-240021J46D01*
G01*
X41826521Y-81506170D02*
G75*
G02*
X41586530Y-81266170I-21J239970D01*
G01*
X40026521Y-80770246D02*
G75*
G03*
X39786546Y-81010246I-21J-239954D01*
G01*
%TO.N,/Out_11-*%
X40770548Y-72577339D02*
X40770548Y-72197794D01*
X40530548Y-71957794D02*
X40410548Y-71957794D01*
X39330548Y-71957794D02*
X39210548Y-71957794D01*
X39930548Y-72817339D02*
X39810548Y-72817339D01*
X41300000Y-72817339D02*
X41300000Y-72817340D01*
X41300000Y-72817339D02*
X41010548Y-72817339D01*
X38970548Y-72197794D02*
X38970548Y-72577339D01*
X40170548Y-72197794D02*
X40170548Y-72577339D01*
X44234288Y-72604970D02*
X44495030Y-72604970D01*
X39570548Y-72577339D02*
X39570548Y-72197794D01*
X42541830Y-72612494D02*
X42541830Y-72673170D01*
X42686000Y-72817340D02*
X44021919Y-72817339D01*
X37011692Y-71680000D02*
X38149031Y-72817339D01*
X44021919Y-72817339D02*
X44234288Y-72604970D01*
X41916000Y-72140664D02*
X42070000Y-72140664D01*
X37011692Y-71680000D02*
X36290000Y-71680000D01*
X44495030Y-72604970D02*
X45225000Y-71875000D01*
X38149031Y-72817339D02*
X38730548Y-72817339D01*
X41444170Y-72673170D02*
X41444170Y-72612494D01*
X39810548Y-72817339D02*
G75*
G02*
X39570461Y-72577339I-48J240039D01*
G01*
X40770548Y-72197794D02*
G75*
G03*
X40530548Y-71957752I-240048J-6D01*
G01*
X42070000Y-72140664D02*
G75*
G02*
X42541836Y-72612494I0J-471836D01*
G01*
X41300000Y-72817340D02*
G75*
G03*
X41444140Y-72673170I0J144140D01*
G01*
X39210548Y-71957794D02*
G75*
G03*
X38970494Y-72197794I-48J-240006D01*
G01*
X38970548Y-72577339D02*
G75*
G02*
X38730548Y-72817348I-240048J39D01*
G01*
X41010548Y-72817339D02*
G75*
G02*
X40770461Y-72577339I-48J240039D01*
G01*
X40410548Y-71957794D02*
G75*
G03*
X40170494Y-72197794I-48J-240006D01*
G01*
X41444170Y-72612494D02*
G75*
G02*
X41916000Y-72140670I471830J-6D01*
G01*
X39570548Y-72197794D02*
G75*
G03*
X39330548Y-71957752I-240048J-6D01*
G01*
X42541830Y-72673170D02*
G75*
G03*
X42686000Y-72817370I144170J-30D01*
G01*
X40170548Y-72577339D02*
G75*
G02*
X39930548Y-72817348I-240048J39D01*
G01*
%TO.N,/Out_5-*%
X38249088Y-56440000D02*
X38369088Y-56440000D01*
X44009970Y-56049288D02*
X44009970Y-56310030D01*
X44495030Y-55824970D02*
X44234288Y-55824970D01*
X37649088Y-55559753D02*
X37769088Y-55559753D01*
X38009088Y-55799753D02*
X38009088Y-56200000D01*
X44234288Y-55824970D02*
X44009970Y-56049288D01*
X36290000Y-56440000D02*
X37169088Y-56440000D01*
X43132388Y-57187612D02*
X42880000Y-57187612D01*
X44009970Y-56310030D02*
X43880000Y-56440000D01*
X37409088Y-56200000D02*
X37409088Y-55799753D01*
X38849088Y-55559753D02*
X38969088Y-55559753D01*
X39449088Y-56440000D02*
X39569088Y-56440000D01*
X39569088Y-56440000D02*
X40997425Y-56440000D01*
X41880000Y-56440000D02*
X41220602Y-56440000D01*
X42132388Y-56440000D02*
X41880000Y-56440000D01*
X40997425Y-56440000D02*
X41220602Y-56440000D01*
X38609088Y-56200000D02*
X38609088Y-55799753D01*
X39209088Y-55799753D02*
X39209088Y-56200000D01*
X45225000Y-55095000D02*
X44495030Y-55824970D01*
X38009088Y-56200000D02*
G75*
G03*
X38249088Y-56440012I240012J0D01*
G01*
X38969088Y-55559753D02*
G75*
G02*
X39209147Y-55799753I12J-240047D01*
G01*
X37769088Y-55559753D02*
G75*
G02*
X38009147Y-55799753I12J-240047D01*
G01*
X37409088Y-55799753D02*
G75*
G02*
X37649088Y-55559788I240012J-47D01*
G01*
X38609088Y-55799753D02*
G75*
G02*
X38849088Y-55559788I240012J-47D01*
G01*
X39209088Y-56200000D02*
G75*
G03*
X39449088Y-56440012I240012J0D01*
G01*
X43342364Y-56977636D02*
G75*
G02*
X43132388Y-57187564I-209964J36D01*
G01*
X42880000Y-57187612D02*
G75*
G02*
X42669988Y-56977636I0J210012D01*
G01*
X42670024Y-56977636D02*
G75*
G03*
X42132388Y-56439976I-537624J36D01*
G01*
X37169088Y-56440000D02*
G75*
G03*
X37409100Y-56200000I12J240000D01*
G01*
X43880000Y-56440000D02*
G75*
G03*
X43342400Y-56977636I0J-537600D01*
G01*
X38369088Y-56440000D02*
G75*
G03*
X38609100Y-56200000I12J240000D01*
G01*
%TO.N,/Out_7-*%
X44009970Y-61129288D02*
X44009970Y-61390030D01*
X42629781Y-62092864D02*
X42629781Y-62055830D01*
X38679957Y-61520000D02*
X38815957Y-61520000D01*
X44234288Y-60904970D02*
X44009970Y-61129288D01*
X39767957Y-60901846D02*
X39767957Y-61248000D01*
X36290000Y-61520000D02*
X37455957Y-61520000D01*
X43023951Y-62301034D02*
X42837951Y-62301034D01*
X43232121Y-62055830D02*
X43232121Y-62092864D01*
X37999957Y-60629840D02*
X38135957Y-60629840D01*
X39087957Y-61248000D02*
X39087957Y-60901846D01*
X44495030Y-60904970D02*
X44234288Y-60904970D01*
X44009970Y-61390030D02*
X43880000Y-61520000D01*
X39359957Y-60629846D02*
X39495957Y-60629846D01*
X43880000Y-61520000D02*
X43767951Y-61520000D01*
X37727957Y-61248000D02*
X37727957Y-60901840D01*
X45225000Y-60175000D02*
X44495030Y-60904970D01*
X40039957Y-61520000D02*
X42093951Y-61520000D01*
X38407957Y-60901840D02*
X38407957Y-61248000D01*
X43767951Y-61520000D02*
G75*
G03*
X43232200Y-62055830I49J-535800D01*
G01*
X39087957Y-60901846D02*
G75*
G02*
X39359957Y-60629757I272043J46D01*
G01*
X37455957Y-61520000D02*
G75*
G03*
X37728000Y-61248000I43J272000D01*
G01*
X39767957Y-61248000D02*
G75*
G03*
X40039957Y-61520043I272043J0D01*
G01*
X38135957Y-60629840D02*
G75*
G02*
X38407960Y-60901840I43J-271960D01*
G01*
X38407957Y-61248000D02*
G75*
G03*
X38679957Y-61520043I272043J0D01*
G01*
X37727957Y-60901840D02*
G75*
G02*
X37999957Y-60629757I272043J40D01*
G01*
X42629781Y-62055830D02*
G75*
G03*
X42093951Y-61520019I-535781J30D01*
G01*
X43232121Y-62092864D02*
G75*
G02*
X43023951Y-62301121I-208221J-36D01*
G01*
X42837951Y-62301034D02*
G75*
G02*
X42629866Y-62092864I49J208134D01*
G01*
X38815957Y-61520000D02*
G75*
G03*
X39088000Y-61248000I43J272000D01*
G01*
X39495957Y-60629846D02*
G75*
G02*
X39767954Y-60901846I43J-271954D01*
G01*
%TO.N,/Out_6+*%
X42984754Y-60074983D02*
X42806754Y-60074983D01*
X45225000Y-58905000D02*
X44418382Y-58905000D01*
X35838494Y-60070030D02*
X34748464Y-58980000D01*
X36741506Y-60070030D02*
X35838494Y-60070030D01*
X37503876Y-59307660D02*
X36741506Y-60070030D01*
X43504584Y-59499830D02*
X43504584Y-59555153D01*
X44418382Y-58905000D02*
X44015722Y-59307660D01*
X34748464Y-58980000D02*
X33750000Y-58980000D01*
X42286924Y-59555153D02*
X42286924Y-59499830D01*
X37503876Y-59307660D02*
X42094754Y-59307660D01*
X44015722Y-59307660D02*
X43696754Y-59307660D01*
X42286924Y-59499830D02*
G75*
G03*
X42094754Y-59307676I-192124J30D01*
G01*
X43696754Y-59307660D02*
G75*
G03*
X43504660Y-59499830I46J-192140D01*
G01*
X43504584Y-59555153D02*
G75*
G02*
X42984754Y-60074984I-519784J-47D01*
G01*
X42806754Y-60074983D02*
G75*
G02*
X42287017Y-59555153I46J519783D01*
G01*
%TO.N,/Out_9-*%
X36290000Y-66600000D02*
X36931692Y-66600000D01*
X44021919Y-67737339D02*
X43858419Y-67737339D01*
X44495030Y-67524970D02*
X44234288Y-67524970D01*
X40109031Y-67121859D02*
X40109031Y-67497339D01*
X38909031Y-67121871D02*
X38909031Y-67497339D01*
X39149031Y-67737339D02*
X39269031Y-67737339D01*
X39749031Y-66881859D02*
X39869031Y-66881859D01*
X43107151Y-68488608D02*
X42858419Y-68488608D01*
X43858419Y-67737339D02*
X43858419Y-67737340D01*
X45225000Y-66795000D02*
X44495030Y-67524970D01*
X38549031Y-66881871D02*
X38669031Y-66881871D01*
X36931692Y-66600000D02*
X38069031Y-67737339D01*
X44234288Y-67524970D02*
X44021919Y-67737339D01*
X38309031Y-67497339D02*
X38309031Y-67121871D01*
X39509031Y-67497339D02*
X39509031Y-67121859D01*
X40349031Y-67737339D02*
X42107151Y-67737340D01*
X38069031Y-67737339D02*
G75*
G03*
X38309039Y-67497339I-31J240039D01*
G01*
X38309031Y-67121871D02*
G75*
G02*
X38549031Y-66881931I239969J-29D01*
G01*
X39869031Y-66881859D02*
G75*
G02*
X40109041Y-67121859I-31J-240041D01*
G01*
X38909031Y-67497339D02*
G75*
G03*
X39149031Y-67737269I239969J39D01*
G01*
X42646615Y-68276804D02*
G75*
G03*
X42107151Y-67737385I-539415J4D01*
G01*
X43318955Y-68276804D02*
G75*
G02*
X43107151Y-68488555I-211755J4D01*
G01*
X40109031Y-67497339D02*
G75*
G03*
X40349031Y-67737269I239969J39D01*
G01*
X39509031Y-67121859D02*
G75*
G02*
X39749031Y-66881931I239969J-41D01*
G01*
X39269031Y-67737339D02*
G75*
G03*
X39509039Y-67497339I-31J240039D01*
G01*
X38669031Y-66881871D02*
G75*
G02*
X38909029Y-67121871I-31J-240029D01*
G01*
X43858419Y-67737340D02*
G75*
G03*
X43318940Y-68276804I-19J-539460D01*
G01*
X42858419Y-68488608D02*
G75*
G02*
X42646592Y-68276804I-19J211808D01*
G01*
%TO.N,/Out_4+*%
X44418382Y-53825000D02*
X44063908Y-54179474D01*
X43136000Y-55008653D02*
X42950000Y-55008653D01*
X44063908Y-54179474D02*
X44015722Y-54227660D01*
X35838494Y-54990030D02*
X34748464Y-53900000D01*
X36741506Y-54990030D02*
X35838494Y-54990030D01*
X37503876Y-54227660D02*
X42206000Y-54227660D01*
X45225000Y-53825000D02*
X44418382Y-53825000D01*
X43671830Y-54435830D02*
X43671830Y-54472823D01*
X42414170Y-54472823D02*
X42414170Y-54435830D01*
X44015722Y-54227660D02*
X43880000Y-54227660D01*
X37503876Y-54227660D02*
X36741506Y-54990030D01*
X34748464Y-53900000D02*
X33750000Y-53900000D01*
X42950000Y-55008653D02*
G75*
G02*
X42414147Y-54472823I0J535853D01*
G01*
X43880000Y-54227660D02*
G75*
G03*
X43671860Y-54435830I0J-208140D01*
G01*
X42414170Y-54435830D02*
G75*
G03*
X42206000Y-54227630I-208170J30D01*
G01*
X43671830Y-54472823D02*
G75*
G02*
X43136000Y-55008630I-535830J23D01*
G01*
%TO.N,/Out_3+*%
X35838494Y-52450030D02*
X34748464Y-51360000D01*
X41944032Y-51687660D02*
X37503876Y-51687660D01*
X36741506Y-52450030D02*
X35838494Y-52450030D01*
X37503876Y-51687660D02*
X36741506Y-52450030D01*
X44357862Y-49273830D02*
X41944032Y-51687660D01*
X45225000Y-49745000D02*
X44753830Y-49273830D01*
X44753830Y-49273830D02*
X44357862Y-49273830D01*
X34748464Y-51360000D02*
X33750000Y-51360000D01*
%TO.N,/Out_0+*%
X35838494Y-44830030D02*
X36741506Y-44830030D01*
X43291329Y-41653830D02*
X43762499Y-42125000D01*
X33750000Y-43740000D02*
X34077660Y-44067660D01*
X37564032Y-44067660D02*
X39977862Y-41653830D01*
X37380030Y-44067660D02*
X37564032Y-44067660D01*
X39977862Y-41653830D02*
X43291329Y-41653830D01*
X37380030Y-44191506D02*
X37380030Y-44067660D01*
X43762499Y-42125000D02*
X45225000Y-42125000D01*
X34077660Y-44067660D02*
X35076124Y-44067660D01*
X36741506Y-44830030D02*
X37380030Y-44191506D01*
X35076124Y-44067660D02*
X35838494Y-44830030D01*
%TO.N,/Out_15-*%
X41251329Y-83463612D02*
X41251329Y-83806170D01*
X41851329Y-83806170D02*
X41851329Y-83463612D01*
X43051329Y-83806170D02*
X43051329Y-83463588D01*
X40651329Y-83806170D02*
X40651329Y-83463588D01*
X41011329Y-84046170D02*
X40891329Y-84046170D01*
X42211329Y-84046170D02*
X42091329Y-84046170D01*
X42811329Y-83223588D02*
X42691329Y-83223588D01*
X40051329Y-83463588D02*
X40051329Y-83806170D01*
X45225000Y-83575000D02*
X43762499Y-83575000D01*
X41611329Y-83223612D02*
X41491329Y-83223612D01*
X39177862Y-84046170D02*
X39811329Y-84046170D01*
X42451329Y-83463588D02*
X42451329Y-83806170D01*
X43762499Y-83575000D02*
X43291329Y-84046170D01*
X40411329Y-83223588D02*
X40291329Y-83223588D01*
X36971692Y-81840000D02*
X39177862Y-84046170D01*
X41491329Y-83223612D02*
G75*
G03*
X41251312Y-83463612I-29J-239988D01*
G01*
X40051329Y-83806170D02*
G75*
G02*
X39811329Y-84046229I-240029J-30D01*
G01*
X40291329Y-83223588D02*
G75*
G03*
X40051288Y-83463588I-29J-240012D01*
G01*
X40891329Y-84046170D02*
G75*
G02*
X40651330Y-83806170I-29J239970D01*
G01*
X43051329Y-83463588D02*
G75*
G03*
X42811329Y-83223571I-240029J-12D01*
G01*
X41851329Y-83463612D02*
G75*
G03*
X41611329Y-83223571I-240029J12D01*
G01*
X42691329Y-83223588D02*
G75*
G03*
X42451288Y-83463588I-29J-240012D01*
G01*
X42451329Y-83806170D02*
G75*
G02*
X42211329Y-84046229I-240029J-30D01*
G01*
X42091329Y-84046170D02*
G75*
G02*
X41851330Y-83806170I-29J239970D01*
G01*
X40651329Y-83463588D02*
G75*
G03*
X40411329Y-83223571I-240029J-12D01*
G01*
X41251329Y-83806170D02*
G75*
G02*
X41011329Y-84046229I-240029J-30D01*
G01*
X43291329Y-84046170D02*
G75*
G02*
X43051330Y-83806170I-29J239970D01*
G01*
%TO.N,/Out_12+*%
X43291329Y-76753830D02*
X43762499Y-77225000D01*
X39122138Y-76753830D02*
X43291329Y-76753830D01*
X37209922Y-74841614D02*
X39122138Y-76753830D01*
X35838494Y-75310030D02*
X36741506Y-75310030D01*
X33750000Y-74220000D02*
X34748464Y-74220000D01*
X34748464Y-74220000D02*
X35838494Y-75310030D01*
X36741506Y-75310030D02*
X37209922Y-74841614D01*
X43762499Y-77225000D02*
X45225000Y-77225000D01*
%TO.N,/Out_1+*%
X34270000Y-46800000D02*
X33750000Y-46280000D01*
X45225000Y-44665000D02*
X44753830Y-44193830D01*
X36741506Y-47370030D02*
X35838494Y-47370030D01*
X43163830Y-45467862D02*
X42024032Y-46607660D01*
X35268464Y-46800000D02*
X34270000Y-46800000D01*
X44753830Y-44193830D02*
X43940765Y-44193830D01*
X35838494Y-47370030D02*
X35268464Y-46800000D01*
X37503876Y-46607660D02*
X36741506Y-47370030D01*
X42024032Y-46607660D02*
X37503876Y-46607660D01*
X43940765Y-44193830D02*
X43163830Y-44970765D01*
X43163830Y-44970765D02*
X43163830Y-45467862D01*
%TO.N,/Out_6-*%
X44495030Y-58364970D02*
X44234288Y-58364970D01*
X43176924Y-59499830D02*
X43176924Y-59555153D01*
X39303133Y-58357233D02*
X39303133Y-58740000D01*
X43880000Y-58980000D02*
X43696754Y-58980000D01*
X38103133Y-58357233D02*
X38103133Y-58740000D01*
X37503133Y-58740000D02*
X37503133Y-58357233D01*
X44009970Y-58589288D02*
X44009970Y-58850030D01*
X39543133Y-58980000D02*
X42094754Y-58980000D01*
X44234288Y-58364970D02*
X44009970Y-58589288D01*
X38343133Y-58980000D02*
X38463133Y-58980000D01*
X44009970Y-58850030D02*
X43880000Y-58980000D01*
X36290000Y-58980000D02*
X37263133Y-58980000D01*
X38943133Y-58117233D02*
X39063133Y-58117233D01*
X38703133Y-58740000D02*
X38703133Y-58357233D01*
X37743133Y-58117233D02*
X37863133Y-58117233D01*
X45225000Y-57635000D02*
X44495030Y-58364970D01*
X42614584Y-59555153D02*
X42614584Y-59499830D01*
X42984754Y-59747323D02*
X42806754Y-59747323D01*
X39063133Y-58117233D02*
G75*
G02*
X39303067Y-58357233I-33J-239967D01*
G01*
X43176924Y-59555153D02*
G75*
G02*
X42984754Y-59747324I-192124J-47D01*
G01*
X42614584Y-59499830D02*
G75*
G03*
X42094754Y-58980016I-519784J30D01*
G01*
X37863133Y-58117233D02*
G75*
G02*
X38103067Y-58357233I-33J-239967D01*
G01*
X37503133Y-58357233D02*
G75*
G02*
X37743133Y-58117233I239967J33D01*
G01*
X42806754Y-59747323D02*
G75*
G02*
X42614677Y-59555153I46J192123D01*
G01*
X38103133Y-58740000D02*
G75*
G03*
X38343133Y-58979967I239967J0D01*
G01*
X37263133Y-58980000D02*
G75*
G03*
X37503100Y-58740000I-33J240000D01*
G01*
X43696754Y-58980000D02*
G75*
G03*
X43177000Y-59499830I46J-519800D01*
G01*
X38463133Y-58980000D02*
G75*
G03*
X38703100Y-58740000I-33J240000D01*
G01*
X38703133Y-58357233D02*
G75*
G02*
X38943133Y-58117233I239967J33D01*
G01*
X39303133Y-58740000D02*
G75*
G03*
X39543133Y-58979967I239967J0D01*
G01*
%TO.N,/Out_8+*%
X37179922Y-64711614D02*
X36741506Y-65150030D01*
X43330994Y-64833878D02*
X43170994Y-64833878D01*
X43014824Y-64990048D02*
X43014824Y-65041170D01*
X36741506Y-65150030D02*
X35838494Y-65150030D01*
X37993308Y-65525000D02*
X37179922Y-64711614D01*
X35838494Y-65150030D02*
X35076124Y-64387660D01*
X43487164Y-65041170D02*
X43487164Y-64990048D01*
X35076124Y-64387660D02*
X34077660Y-64387660D01*
X37993308Y-65525000D02*
X42530994Y-65525000D01*
X45225000Y-65525000D02*
X43970994Y-65525000D01*
X43170994Y-64833878D02*
G75*
G03*
X43014878Y-64990048I6J-156122D01*
G01*
X43970994Y-65525000D02*
G75*
G02*
X43487200Y-65041170I6J483800D01*
G01*
X43487164Y-64990048D02*
G75*
G03*
X43330994Y-64833836I-156164J48D01*
G01*
X43014824Y-65041170D02*
G75*
G02*
X42530994Y-65525024I-483824J-30D01*
G01*
%TO.N,/Out_11+*%
X35838494Y-72770030D02*
X36741506Y-72770030D01*
X42686000Y-73145000D02*
X45225000Y-73145000D01*
X33750000Y-71680000D02*
X34077660Y-72007660D01*
X41916000Y-72468324D02*
X42070000Y-72468324D01*
X35076124Y-72007660D02*
X35838494Y-72770030D01*
X36741506Y-72770030D02*
X37189922Y-72321614D01*
X41771830Y-72673170D02*
X41771830Y-72612494D01*
X34077660Y-72007660D02*
X35076124Y-72007660D01*
X42214170Y-72612494D02*
X42214170Y-72673170D01*
X37189922Y-72321614D02*
X38013308Y-73145000D01*
X38013308Y-73145000D02*
X41300000Y-73145000D01*
X41300000Y-73145000D02*
G75*
G03*
X41771800Y-72673170I0J471800D01*
G01*
X42070000Y-72468324D02*
G75*
G02*
X42214176Y-72612494I0J-144176D01*
G01*
X42214170Y-72673170D02*
G75*
G03*
X42686000Y-73145030I471830J-30D01*
G01*
X41771830Y-72612494D02*
G75*
G02*
X41916000Y-72468330I144170J-6D01*
G01*
%TO.N,/Out_13-*%
X45225000Y-78495000D02*
X43762499Y-78495000D01*
X40457718Y-78726170D02*
X40457718Y-78378876D01*
X43762499Y-78495000D02*
X43291329Y-78966170D01*
X40217718Y-78138876D02*
X40097718Y-78138876D01*
X41417718Y-78138852D02*
X41297718Y-78138852D01*
X42857718Y-78726170D02*
X42857718Y-78378852D01*
X41657718Y-78726170D02*
X41657718Y-78378852D01*
X36991692Y-76760000D02*
X39197862Y-78966170D01*
X41057718Y-78378852D02*
X41057718Y-78726170D01*
X42617718Y-78138852D02*
X42497718Y-78138852D01*
X39857718Y-78378876D02*
X39857718Y-78726170D01*
X42257718Y-78378852D02*
X42257718Y-78726170D01*
X43291329Y-78966170D02*
X43097718Y-78966170D01*
X42017718Y-78966170D02*
X41897718Y-78966170D01*
X39197862Y-78966170D02*
X39617718Y-78966170D01*
X40817718Y-78966170D02*
X40697718Y-78966170D01*
X39857718Y-78726170D02*
G75*
G02*
X39617718Y-78966218I-240018J-30D01*
G01*
X41297718Y-78138852D02*
G75*
G03*
X41057652Y-78378852I-18J-240048D01*
G01*
X42857718Y-78378852D02*
G75*
G03*
X42617718Y-78138882I-240018J-48D01*
G01*
X40097718Y-78138876D02*
G75*
G03*
X39857676Y-78378876I-18J-240024D01*
G01*
X43097718Y-78966170D02*
G75*
G02*
X42857730Y-78726170I-18J239970D01*
G01*
X41657718Y-78378852D02*
G75*
G03*
X41417718Y-78138882I-240018J-48D01*
G01*
X40697718Y-78966170D02*
G75*
G02*
X40457730Y-78726170I-18J239970D01*
G01*
X40457718Y-78378876D02*
G75*
G03*
X40217718Y-78138882I-240018J-24D01*
G01*
X41057718Y-78726170D02*
G75*
G02*
X40817718Y-78966218I-240018J-30D01*
G01*
X42497718Y-78138852D02*
G75*
G03*
X42257652Y-78378852I-18J-240048D01*
G01*
X41897718Y-78966170D02*
G75*
G02*
X41657730Y-78726170I-18J239970D01*
G01*
X42257718Y-78726170D02*
G75*
G02*
X42017718Y-78966218I-240018J-30D01*
G01*
%TO.N,/Out_0-*%
X38884211Y-41556183D02*
X39078461Y-41750433D01*
X41860000Y-41086170D02*
X41860000Y-40811435D01*
X41020000Y-41326170D02*
X40900000Y-41326170D01*
X38120501Y-41980415D02*
X38035648Y-42065267D01*
X41260000Y-40811435D02*
X41260000Y-41086170D01*
X40250000Y-41326170D02*
X39842138Y-41326170D01*
X40900000Y-41326170D02*
X40250000Y-41326170D01*
X38969064Y-41131919D02*
X38884211Y-41216771D01*
X37428308Y-43740000D02*
X36290000Y-43740000D01*
X38654197Y-42174699D02*
X38459913Y-41980415D01*
X38035648Y-42404679D02*
X38229931Y-42598962D01*
X38145080Y-43023227D02*
X37896349Y-43271959D01*
X45225000Y-40855000D02*
X43762499Y-40855000D01*
X37896349Y-43271959D02*
X37428308Y-43740000D01*
X43291329Y-41326170D02*
X42100000Y-41326170D01*
X39502726Y-41326170D02*
X39308475Y-41131919D01*
X38229931Y-42938374D02*
X38145080Y-43023227D01*
X39078461Y-42089844D02*
X38993609Y-42174698D01*
X38993609Y-42174698D02*
X38993609Y-42174699D01*
X43762499Y-40855000D02*
X43291329Y-41326170D01*
X41620000Y-40571435D02*
X41500000Y-40571435D01*
X39078461Y-41750433D02*
G75*
G02*
X39078423Y-42089805I-169661J-169667D01*
G01*
X39842138Y-41326170D02*
G75*
G02*
X39502726Y-41326170I-169706J169704D01*
G01*
X41860000Y-40811435D02*
G75*
G03*
X41620000Y-40571400I-240000J35D01*
G01*
X38229931Y-42598962D02*
G75*
G02*
X38229963Y-42938406I-169731J-169738D01*
G01*
X38884211Y-41216771D02*
G75*
G03*
X38884188Y-41556206I169689J-169729D01*
G01*
X39308475Y-41131919D02*
G75*
G03*
X38969065Y-41131919I-169705J-169703D01*
G01*
X38035648Y-42065267D02*
G75*
G03*
X38035621Y-42404706I169752J-169733D01*
G01*
X42100000Y-41326170D02*
G75*
G02*
X41860030Y-41086170I0J239970D01*
G01*
X41260000Y-41086170D02*
G75*
G02*
X41020000Y-41326200I-240000J-30D01*
G01*
X41500000Y-40571435D02*
G75*
G03*
X41260035Y-40811435I0J-239965D01*
G01*
X38459913Y-41980415D02*
G75*
G03*
X38120501Y-41980415I-169706J-169704D01*
G01*
X38993609Y-42174699D02*
G75*
G02*
X38654197Y-42174699I-169706J169704D01*
G01*
%TO.N,/Out_3-*%
X38928308Y-50604875D02*
X38808308Y-50604875D01*
X40368308Y-51120000D02*
X40368308Y-50844899D01*
X40128308Y-50604899D02*
X40008308Y-50604899D01*
X40728308Y-51360000D02*
X40608308Y-51360000D01*
X45225000Y-48475000D02*
X44753830Y-48946170D01*
X38568308Y-50844875D02*
X38568308Y-51120000D01*
X40968308Y-50844899D02*
X40968308Y-51120000D01*
X38328308Y-51360000D02*
X38208308Y-51360000D01*
X38208308Y-51360000D02*
X38100000Y-51360000D01*
X39768308Y-50844899D02*
X39768308Y-51120000D01*
X41568308Y-51120000D02*
X41568308Y-50844899D01*
X41328308Y-50604899D02*
X41208308Y-50604899D01*
X41935421Y-51232887D02*
X41808308Y-51360000D01*
X39528308Y-51360000D02*
X39408308Y-51360000D01*
X38100000Y-51360000D02*
X36290000Y-51360000D01*
X44222138Y-48946170D02*
X41935421Y-51232887D01*
X39168308Y-51120000D02*
X39168308Y-50844875D01*
X44753830Y-48946170D02*
X44222138Y-48946170D01*
X39408308Y-51360000D02*
G75*
G02*
X39168300Y-51120000I-8J240000D01*
G01*
X40968308Y-51120000D02*
G75*
G02*
X40728308Y-51360008I-240008J0D01*
G01*
X41808308Y-51360000D02*
G75*
G02*
X41568300Y-51120000I-8J240000D01*
G01*
X40368308Y-50844899D02*
G75*
G03*
X40128308Y-50604892I-240008J-1D01*
G01*
X41208308Y-50604899D02*
G75*
G03*
X40968299Y-50844899I-8J-240001D01*
G01*
X38808308Y-50604875D02*
G75*
G03*
X38568275Y-50844875I-8J-240025D01*
G01*
X40608308Y-51360000D02*
G75*
G02*
X40368300Y-51120000I-8J240000D01*
G01*
X38568308Y-51120000D02*
G75*
G02*
X38328308Y-51360008I-240008J0D01*
G01*
X39168308Y-50844875D02*
G75*
G03*
X38928308Y-50604892I-240008J-25D01*
G01*
X39768308Y-51120000D02*
G75*
G02*
X39528308Y-51360008I-240008J0D01*
G01*
X40008308Y-50604899D02*
G75*
G03*
X39768299Y-50844899I-8J-240001D01*
G01*
X41568308Y-50844899D02*
G75*
G03*
X41328308Y-50604892I-240008J-1D01*
G01*
%TO.N,/Out_4-*%
X43344170Y-54435830D02*
X43344170Y-54472823D01*
X39812583Y-53255750D02*
X39812583Y-53688000D01*
X41190583Y-53043750D02*
X41084583Y-53043750D01*
X44234288Y-53284970D02*
X44009970Y-53509288D01*
X44009970Y-53509288D02*
X44009970Y-53770030D01*
X43136000Y-54680993D02*
X42950000Y-54680993D01*
X42206000Y-53900000D02*
X41614583Y-53900000D01*
X40660583Y-53900000D02*
X40554583Y-53900000D01*
X44009970Y-53770030D02*
X43880000Y-53900000D01*
X37800000Y-53900000D02*
X36290000Y-53900000D01*
X40872583Y-53255750D02*
X40872583Y-53688000D01*
X45225000Y-52555000D02*
X44495030Y-53284970D01*
X42741830Y-54472823D02*
X42741830Y-54435830D01*
X40130583Y-53043750D02*
X40024583Y-53043750D01*
X44495030Y-53284970D02*
X44234288Y-53284970D01*
X40342583Y-53688000D02*
X40342583Y-53255750D01*
X39600583Y-53900000D02*
X39494583Y-53900000D01*
X41402583Y-53688000D02*
X41402583Y-53255750D01*
X39494583Y-53900000D02*
X37800000Y-53900000D01*
X43880000Y-53900000D02*
G75*
G03*
X43344200Y-54435830I0J-535800D01*
G01*
X40024583Y-53043750D02*
G75*
G03*
X39812650Y-53255750I17J-211950D01*
G01*
X42741830Y-54435830D02*
G75*
G03*
X42206000Y-53899970I-535830J30D01*
G01*
X40872583Y-53688000D02*
G75*
G02*
X40660583Y-53899983I-211983J0D01*
G01*
X41084583Y-53043750D02*
G75*
G03*
X40872650Y-53255750I17J-211950D01*
G01*
X40554583Y-53900000D02*
G75*
G02*
X40342600Y-53688000I17J212000D01*
G01*
X42950000Y-54680993D02*
G75*
G02*
X42741807Y-54472823I0J208193D01*
G01*
X43344170Y-54472823D02*
G75*
G02*
X43136000Y-54680970I-208170J23D01*
G01*
X40342583Y-53255750D02*
G75*
G03*
X40130583Y-53043717I-211983J50D01*
G01*
X41402583Y-53255750D02*
G75*
G03*
X41190583Y-53043717I-211983J50D01*
G01*
X41614583Y-53900000D02*
G75*
G02*
X41402600Y-53688000I17J212000D01*
G01*
X39812583Y-53688000D02*
G75*
G02*
X39600583Y-53899983I-211983J0D01*
G01*
%TO.N,/Out_10-*%
X40820508Y-70277339D02*
X40700508Y-70277339D01*
X40220508Y-69426351D02*
X40100508Y-69426351D01*
X43700000Y-70277339D02*
X43700000Y-70277340D01*
X44495030Y-70064970D02*
X44234288Y-70064970D01*
X38009031Y-70277339D02*
X39620508Y-70277339D01*
X45225000Y-69335000D02*
X44495030Y-70064970D01*
X36871692Y-69140000D02*
X38009031Y-70277339D01*
X43100000Y-70976159D02*
X42950000Y-70976159D01*
X41060508Y-69666339D02*
X41060508Y-70037339D01*
X41900508Y-70277339D02*
X42350000Y-70277340D01*
X44234288Y-70064970D02*
X44021919Y-70277339D01*
X40460508Y-70037339D02*
X40460508Y-69666351D01*
X36871692Y-69140000D02*
X36290000Y-69140000D01*
X44021919Y-70277339D02*
X43700000Y-70277339D01*
X43236170Y-70741170D02*
X43236170Y-70839989D01*
X39860508Y-69666351D02*
X39860508Y-70037339D01*
X41420508Y-69426339D02*
X41300508Y-69426339D01*
X41660508Y-70037339D02*
X41660508Y-69666339D01*
X42813830Y-70839989D02*
X42813830Y-70741170D01*
X42813830Y-70741170D02*
G75*
G03*
X42350000Y-70277370I-463830J-30D01*
G01*
X40100508Y-69426351D02*
G75*
G03*
X39860551Y-69666351I-8J-239949D01*
G01*
X41900508Y-70277339D02*
G75*
G02*
X41660461Y-70037339I-8J240039D01*
G01*
X41300508Y-69426339D02*
G75*
G03*
X41060539Y-69666339I-8J-239961D01*
G01*
X40700508Y-70277339D02*
G75*
G02*
X40460461Y-70037339I-8J240039D01*
G01*
X42950000Y-70976159D02*
G75*
G02*
X42813841Y-70839989I0J136159D01*
G01*
X39860508Y-70037339D02*
G75*
G02*
X39620508Y-70277308I-240008J39D01*
G01*
X43700000Y-70277340D02*
G75*
G03*
X43236140Y-70741170I0J-463860D01*
G01*
X41060508Y-70037339D02*
G75*
G02*
X40820508Y-70277308I-240008J39D01*
G01*
X41660508Y-69666339D02*
G75*
G03*
X41420508Y-69426292I-240008J39D01*
G01*
X43236170Y-70839989D02*
G75*
G02*
X43100000Y-70976170I-136170J-11D01*
G01*
X40460508Y-69666351D02*
G75*
G03*
X40220508Y-69426292I-240008J51D01*
G01*
%TO.N,/Out_15+*%
X33750000Y-81840000D02*
X34748464Y-81840000D01*
X39042138Y-84373830D02*
X43291329Y-84373830D01*
X36741506Y-82930030D02*
X37169922Y-82501614D01*
X35838494Y-82930030D02*
X36741506Y-82930030D01*
X43762499Y-84845000D02*
X45225000Y-84845000D01*
X43291329Y-84373830D02*
X43762499Y-84845000D01*
X37169922Y-82501614D02*
X39042138Y-84373830D01*
X34748464Y-81840000D02*
X35838494Y-82930030D01*
%TO.N,/Out_2+*%
X41870862Y-49147660D02*
X37503876Y-49147660D01*
X34748464Y-48820000D02*
X33750000Y-48820000D01*
X44284692Y-46733830D02*
X41870862Y-49147660D01*
X45225000Y-47205000D02*
X44753830Y-46733830D01*
X35838494Y-49910030D02*
X34748464Y-48820000D01*
X37503876Y-49147660D02*
X36741506Y-49910030D01*
X44753830Y-46733830D02*
X44284692Y-46733830D01*
X36741506Y-49910030D02*
X35838494Y-49910030D01*
%TO.N,/Out_9+*%
X35076124Y-66927660D02*
X34077660Y-66927660D01*
X34077660Y-66927660D02*
X33750000Y-66600000D01*
X45225000Y-68065000D02*
X43858419Y-68065000D01*
X37933308Y-68065000D02*
X42107151Y-68065000D01*
X36741506Y-67690030D02*
X35838494Y-67690030D01*
X37149922Y-67281614D02*
X36741506Y-67690030D01*
X43107151Y-68816268D02*
X42858419Y-68816268D01*
X37933308Y-68065000D02*
X37149922Y-67281614D01*
X35838494Y-67690030D02*
X35076124Y-66927660D01*
X42318955Y-68276804D02*
G75*
G03*
X42107151Y-68065045I-211755J4D01*
G01*
X42858419Y-68816268D02*
G75*
G02*
X42318932Y-68276804I-19J539468D01*
G01*
X43646615Y-68276804D02*
G75*
G02*
X43107151Y-68816215I-539415J4D01*
G01*
X43858419Y-68065000D02*
G75*
G03*
X43646600Y-68276804I-19J-211800D01*
G01*
%TO.N,/Out_10+*%
X45225000Y-70605000D02*
X43700000Y-70605000D01*
X35838494Y-70230030D02*
X35076124Y-69467660D01*
X43100000Y-71303819D02*
X42950000Y-71303819D01*
X36741506Y-70230030D02*
X35838494Y-70230030D01*
X35076124Y-69467660D02*
X34077660Y-69467660D01*
X37873308Y-70605000D02*
X37119922Y-69851614D01*
X37873308Y-70605000D02*
X42350000Y-70605000D01*
X42486170Y-70839989D02*
X42486170Y-70741170D01*
X37119922Y-69851614D02*
X36741506Y-70230030D01*
X43563830Y-70741170D02*
X43563830Y-70839989D01*
X34077660Y-69467660D02*
X33750000Y-69140000D01*
X42950000Y-71303819D02*
G75*
G02*
X42486181Y-70839989I0J463819D01*
G01*
X42486170Y-70741170D02*
G75*
G03*
X42350000Y-70605030I-136170J-30D01*
G01*
X43700000Y-70605000D02*
G75*
G03*
X43563800Y-70741170I0J-136200D01*
G01*
X43563830Y-70839989D02*
G75*
G02*
X43100000Y-71303830I-463830J-11D01*
G01*
%TO.N,/Out_14+*%
X35076124Y-79627660D02*
X35838494Y-80390030D01*
X43762499Y-82305000D02*
X45225000Y-82305000D01*
X34077660Y-79627660D02*
X35076124Y-79627660D01*
X37149922Y-79981614D02*
X39002138Y-81833830D01*
X43291329Y-81833830D02*
X43762499Y-82305000D01*
X39002138Y-81833830D02*
X43291329Y-81833830D01*
X35838494Y-80390030D02*
X36741506Y-80390030D01*
X36741506Y-80390030D02*
X37149922Y-79981614D01*
%TO.N,/Out_13+*%
X37179922Y-77411614D02*
X36741506Y-77850030D01*
X34748464Y-76760000D02*
X33750000Y-76760000D01*
X43762499Y-79765000D02*
X43291329Y-79293830D01*
X43291329Y-79293830D02*
X39062138Y-79293830D01*
X35838494Y-77850030D02*
X34748464Y-76760000D01*
X39062138Y-79293830D02*
X37179922Y-77411614D01*
X36741506Y-77850030D02*
X35838494Y-77850030D01*
X45225000Y-79765000D02*
X43762499Y-79765000D01*
%TO.N,/Out_7+*%
X36741506Y-62610030D02*
X35838494Y-62610030D01*
X35838494Y-62610030D02*
X35076124Y-61847660D01*
X42302121Y-62092864D02*
X42302121Y-62055830D01*
X37503876Y-61847660D02*
X42093951Y-61847660D01*
X35076124Y-61847660D02*
X34077660Y-61847660D01*
X44418382Y-61445000D02*
X44015722Y-61847660D01*
X44015722Y-61847660D02*
X43767951Y-61847660D01*
X37503876Y-61847660D02*
X36741506Y-62610030D01*
X43559781Y-62055830D02*
X43559781Y-62092864D01*
X43023951Y-62628694D02*
X42837951Y-62628694D01*
X42302121Y-62055830D02*
G75*
G03*
X42093951Y-61847579I-208221J30D01*
G01*
X42837951Y-62628694D02*
G75*
G02*
X42302206Y-62092864I49J535794D01*
G01*
X43767951Y-61847660D02*
G75*
G03*
X43559860Y-62055830I49J-208140D01*
G01*
X43559781Y-62092864D02*
G75*
G02*
X43023951Y-62628681I-535781J-36D01*
G01*
%TO.N,/Out_2-*%
X41176278Y-48580000D02*
X41176278Y-48304851D01*
X40336278Y-48820000D02*
X40216278Y-48820000D01*
X39376278Y-48304852D02*
X39376278Y-48580000D01*
X40936278Y-48064851D02*
X40816278Y-48064851D01*
X37400000Y-48820000D02*
X36290000Y-48820000D01*
X44148968Y-46406170D02*
X41735138Y-48820000D01*
X38536278Y-48064851D02*
X38416278Y-48064851D01*
X45225000Y-45935000D02*
X44753830Y-46406170D01*
X39136278Y-48820000D02*
X39016278Y-48820000D01*
X38776278Y-48580000D02*
X38776278Y-48304851D01*
X38176278Y-48304851D02*
X38176278Y-48580000D01*
X40576278Y-48304851D02*
X40576278Y-48580000D01*
X37936278Y-48820000D02*
X37816278Y-48820000D01*
X39736278Y-48064852D02*
X39616278Y-48064852D01*
X37816278Y-48820000D02*
X37400000Y-48820000D01*
X39976278Y-48580000D02*
X39976278Y-48304852D01*
X44753830Y-46406170D02*
X44148968Y-46406170D01*
X41735138Y-48820000D02*
X41416278Y-48820000D01*
X38416278Y-48064851D02*
G75*
G03*
X38176351Y-48304851I22J-239949D01*
G01*
X39616278Y-48064852D02*
G75*
G03*
X39376252Y-48304852I22J-240048D01*
G01*
X39976278Y-48304852D02*
G75*
G03*
X39736278Y-48064922I-239978J-48D01*
G01*
X40576278Y-48580000D02*
G75*
G02*
X40336278Y-48819978I-239978J0D01*
G01*
X38776278Y-48304851D02*
G75*
G03*
X38536278Y-48064822I-239978J51D01*
G01*
X40216278Y-48820000D02*
G75*
G02*
X39976300Y-48580000I22J240000D01*
G01*
X41416278Y-48820000D02*
G75*
G02*
X41176300Y-48580000I22J240000D01*
G01*
X40816278Y-48064851D02*
G75*
G03*
X40576351Y-48304851I22J-239949D01*
G01*
X41176278Y-48304851D02*
G75*
G03*
X40936278Y-48064822I-239978J51D01*
G01*
X39016278Y-48820000D02*
G75*
G02*
X38776300Y-48580000I22J240000D01*
G01*
X38176278Y-48580000D02*
G75*
G02*
X37936278Y-48819978I-239978J0D01*
G01*
X39376278Y-48580000D02*
G75*
G02*
X39136278Y-48819978I-239978J0D01*
G01*
%TO.N,/Out_12-*%
X40306714Y-75584716D02*
X40186714Y-75584716D01*
X43291329Y-76426170D02*
X43186714Y-76426170D01*
X41146714Y-75824740D02*
X41146714Y-76186170D01*
X42346714Y-75824716D02*
X42346714Y-76186170D01*
X41746714Y-76186170D02*
X41746714Y-75824740D01*
X39946714Y-75824716D02*
X39946714Y-76186170D01*
X40546714Y-76186170D02*
X40546714Y-75824716D01*
X42706714Y-75584716D02*
X42586714Y-75584716D01*
X45225000Y-75955000D02*
X43762499Y-75955000D01*
X42106714Y-76426170D02*
X41986714Y-76426170D01*
X43762499Y-75955000D02*
X43291329Y-76426170D01*
X42946714Y-76186170D02*
X42946714Y-75824716D01*
X39257862Y-76426170D02*
X39706714Y-76426170D01*
X41506714Y-75584740D02*
X41386714Y-75584740D01*
X37051692Y-74220000D02*
X39257862Y-76426170D01*
X40906714Y-76426170D02*
X40786714Y-76426170D01*
X39946714Y-76186170D02*
G75*
G02*
X39706714Y-76426214I-240014J-30D01*
G01*
X41986714Y-76426170D02*
G75*
G02*
X41746730Y-76186170I-14J239970D01*
G01*
X42586714Y-75584716D02*
G75*
G03*
X42346716Y-75824716I-14J-239984D01*
G01*
X41146714Y-76186170D02*
G75*
G02*
X40906714Y-76426214I-240014J-30D01*
G01*
X42946714Y-75824716D02*
G75*
G03*
X42706714Y-75584686I-240014J16D01*
G01*
X43186714Y-76426170D02*
G75*
G02*
X42946730Y-76186170I-14J239970D01*
G01*
X40186714Y-75584716D02*
G75*
G03*
X39946716Y-75824716I-14J-239984D01*
G01*
X42346714Y-76186170D02*
G75*
G02*
X42106714Y-76426214I-240014J-30D01*
G01*
X41746714Y-75824740D02*
G75*
G03*
X41506714Y-75584686I-240014J40D01*
G01*
X41386714Y-75584740D02*
G75*
G03*
X41146740Y-75824740I-14J-239960D01*
G01*
X40546714Y-75824716D02*
G75*
G03*
X40306714Y-75584686I-240014J16D01*
G01*
X40786714Y-76426170D02*
G75*
G02*
X40546730Y-76186170I-14J239970D01*
G01*
D18*
%TO.N,/D7*%
X59658429Y-61585000D02*
X59693429Y-61620000D01*
X57350384Y-61585000D02*
X57502784Y-61585000D01*
X57502784Y-61585000D02*
X59658429Y-61585000D01*
X59693429Y-61620000D02*
X62750000Y-61620000D01*
X56283584Y-61018634D02*
X56283584Y-62101388D01*
X52675000Y-60175000D02*
X54085000Y-61585000D01*
X56588384Y-62406188D02*
X56740784Y-62406188D01*
X55826384Y-60713834D02*
X55978784Y-60713834D01*
X55521584Y-61280200D02*
X55521584Y-61018634D01*
X54085000Y-61585000D02*
X55216784Y-61585000D01*
X50175000Y-60175000D02*
X52675000Y-60175000D01*
X57045584Y-62101388D02*
X57045584Y-61889800D01*
X55978784Y-60713834D02*
G75*
G02*
X56283566Y-61018634I16J-304766D01*
G01*
X56283584Y-62101388D02*
G75*
G03*
X56588384Y-62406216I304816J-12D01*
G01*
X56740784Y-62406188D02*
G75*
G03*
X57045588Y-62101388I16J304788D01*
G01*
X55521584Y-61018634D02*
G75*
G02*
X55826384Y-60713784I304816J34D01*
G01*
X57045584Y-61889800D02*
G75*
G02*
X57350384Y-61584984I304816J0D01*
G01*
X55216784Y-61585000D02*
G75*
G03*
X55521600Y-61280200I16J304800D01*
G01*
%TO.N,/D3*%
X55295307Y-48281272D02*
X55295307Y-49059992D01*
X56057307Y-49059992D02*
X56057307Y-47890027D01*
X56819307Y-47890027D02*
X56819307Y-49059992D01*
X56362107Y-47585227D02*
X56514507Y-47585227D01*
X58038507Y-48475000D02*
X61000000Y-48475000D01*
X57886107Y-48475000D02*
X58038507Y-48475000D01*
X50175000Y-48475000D02*
X54258307Y-48475000D01*
X57581307Y-49059992D02*
X57581307Y-48779800D01*
X57124107Y-49364792D02*
X57276507Y-49364792D01*
X54645763Y-48087544D02*
X55101579Y-48087544D01*
X55600107Y-49364792D02*
X55752507Y-49364792D01*
X55295307Y-49059992D02*
G75*
G03*
X55600107Y-49364793I304793J-8D01*
G01*
X54258307Y-48475000D02*
G75*
G03*
X54452000Y-48281272I-7J193700D01*
G01*
X57581307Y-48779800D02*
G75*
G02*
X57886107Y-48475007I304793J0D01*
G01*
X55752507Y-49364792D02*
G75*
G03*
X56057292Y-49059992I-7J304792D01*
G01*
X57276507Y-49364792D02*
G75*
G03*
X57581292Y-49059992I-7J304792D01*
G01*
X55101579Y-48087544D02*
G75*
G02*
X55295356Y-48281272I21J-193756D01*
G01*
X56057307Y-47890027D02*
G75*
G02*
X56362107Y-47585207I304793J27D01*
G01*
X56819307Y-49059992D02*
G75*
G03*
X57124107Y-49364793I304793J-8D01*
G01*
X56514507Y-47585227D02*
G75*
G02*
X56819273Y-47890027I-7J-304773D01*
G01*
X54452035Y-48281272D02*
G75*
G02*
X54645763Y-48087535I193765J-28D01*
G01*
%TO.N,/D0*%
X53475000Y-42125000D02*
X54176820Y-41423182D01*
X55349955Y-41097251D02*
X55024024Y-41423183D01*
X50175000Y-42125000D02*
X53475000Y-42125000D01*
X55138153Y-40461847D02*
X55349955Y-40673649D01*
X55131616Y-39412500D02*
X54874181Y-39669934D01*
X62715000Y-38725000D02*
X56875000Y-38725000D01*
X56875000Y-38725000D02*
X56187500Y-39412500D01*
X54874181Y-40197875D02*
X55138151Y-40461845D01*
X55138151Y-40461845D02*
X55138153Y-40461847D01*
X54874181Y-39669934D02*
G75*
G03*
X54874185Y-40197871I264019J-263966D01*
G01*
X55349955Y-40673649D02*
G75*
G02*
X55350005Y-41097301I-211755J-211851D01*
G01*
X55024024Y-41423183D02*
G75*
G02*
X54600398Y-41423206I-211824J211783D01*
G01*
X55659558Y-39412500D02*
G75*
G03*
X55131616Y-39412500I-263971J-263972D01*
G01*
X54600422Y-41423182D02*
G75*
G03*
X54176820Y-41423182I-211801J-211800D01*
G01*
X56187500Y-39412500D02*
G75*
G02*
X55659558Y-39412500I-263971J263972D01*
G01*
%TO.N,/D5*%
X55500000Y-55500000D02*
X53232488Y-55500000D01*
X53232488Y-55500000D02*
X52827488Y-55095000D01*
X58445200Y-54269800D02*
X58445200Y-55136755D01*
X58140400Y-55441555D02*
X57988000Y-55441555D01*
X62715000Y-53965000D02*
X58750000Y-53965000D01*
X57226000Y-53965000D02*
X57035000Y-53965000D01*
X57683200Y-55136755D02*
X57683200Y-54269800D01*
X57035000Y-53965000D02*
X55500000Y-55500000D01*
X57378400Y-53965000D02*
X57226000Y-53965000D01*
X52827488Y-55095000D02*
X50175000Y-55095000D01*
X58750000Y-53965000D02*
G75*
G03*
X58445200Y-54269800I0J-304800D01*
G01*
X57683200Y-54269800D02*
G75*
G03*
X57378400Y-53965000I-304800J0D01*
G01*
X57988000Y-55441555D02*
G75*
G02*
X57683245Y-55136755I0J304755D01*
G01*
X58445200Y-55136755D02*
G75*
G02*
X58140400Y-55441600I-304800J-45D01*
G01*
%TO.N,/D1*%
X58106600Y-42227751D02*
X58259000Y-42227751D01*
X57801800Y-40607034D02*
X57801800Y-41922951D01*
X59021000Y-41265000D02*
X62000000Y-41265000D01*
X54605000Y-43395000D02*
X56689081Y-41310919D01*
X58563800Y-41922951D02*
X58563800Y-41569800D01*
X57344600Y-40302234D02*
X57497000Y-40302234D01*
X56689081Y-41310919D02*
X56735000Y-41265000D01*
X58868600Y-41265000D02*
X59021000Y-41265000D01*
X50175000Y-43395000D02*
X54605000Y-43395000D01*
X57039800Y-40960200D02*
X57039800Y-40607034D01*
X58259000Y-42227751D02*
G75*
G03*
X58563751Y-41922951I0J304751D01*
G01*
X56735000Y-41265000D02*
G75*
G03*
X57039800Y-40960200I0J304800D01*
G01*
X57039800Y-40607034D02*
G75*
G02*
X57344600Y-40302200I304800J34D01*
G01*
X57497000Y-40302234D02*
G75*
G02*
X57801766Y-40607034I0J-304766D01*
G01*
X57801800Y-41922951D02*
G75*
G03*
X58106600Y-42227800I304800J-49D01*
G01*
X58563800Y-41569800D02*
G75*
G02*
X58868600Y-41265000I304800J0D01*
G01*
%TO.N,/D8*%
X54525000Y-64125000D02*
X54500000Y-64100000D01*
X58642316Y-64160000D02*
X62750000Y-64160000D01*
X56321316Y-64125000D02*
X54525000Y-64125000D01*
X57997716Y-64998282D02*
X57845316Y-64998282D01*
X56778516Y-63606510D02*
X56778516Y-63820200D01*
X58642316Y-64160000D02*
X58607316Y-64125000D01*
X58302516Y-64429800D02*
X58302516Y-64693482D01*
X57540516Y-64693482D02*
X57540516Y-63606510D01*
X52775000Y-65525000D02*
X50200000Y-65525000D01*
X57235716Y-63301710D02*
X57083316Y-63301710D01*
X54500000Y-64100000D02*
X54200000Y-64100000D01*
X52775000Y-65525000D02*
X54200000Y-64100000D01*
X56473716Y-64125000D02*
X56321316Y-64125000D01*
X57540516Y-63606510D02*
G75*
G03*
X57235716Y-63301684I-304816J10D01*
G01*
X58607316Y-64125000D02*
G75*
G03*
X58302500Y-64429800I-16J-304800D01*
G01*
X56778516Y-63820200D02*
G75*
G02*
X56473716Y-64125016I-304816J0D01*
G01*
X57083316Y-63301710D02*
G75*
G03*
X56778510Y-63606510I-16J-304790D01*
G01*
X57845316Y-64998282D02*
G75*
G02*
X57540518Y-64693482I-16J304782D01*
G01*
X58302516Y-64693482D02*
G75*
G02*
X57997716Y-64998316I-304816J-18D01*
G01*
%TO.N,/D10*%
X58969641Y-71745000D02*
X59151641Y-71745000D01*
X57695641Y-71178056D02*
X57695641Y-72311951D01*
X57149641Y-70814056D02*
X57331641Y-70814056D01*
X59151641Y-71745000D02*
X62715000Y-71745000D01*
X55005000Y-70605000D02*
X56145000Y-71745000D01*
X50200000Y-70605000D02*
X55005000Y-70605000D01*
X58605641Y-72311951D02*
X58605641Y-72109000D01*
X56145000Y-71745000D02*
X56421641Y-71745000D01*
X58059641Y-72675951D02*
X58241641Y-72675951D01*
X56785641Y-71381000D02*
X56785641Y-71178056D01*
X56785641Y-71178056D02*
G75*
G02*
X57149641Y-70814141I363959J-44D01*
G01*
X57695641Y-72311951D02*
G75*
G03*
X58059641Y-72675959I363959J-49D01*
G01*
X58241641Y-72675951D02*
G75*
G03*
X58605551Y-72311951I-41J363951D01*
G01*
X58605641Y-72109000D02*
G75*
G02*
X58969641Y-71745041I363959J0D01*
G01*
X57331641Y-70814056D02*
G75*
G02*
X57695644Y-71178056I-41J-364044D01*
G01*
X56421641Y-71745000D02*
G75*
G03*
X56785600Y-71381000I-41J364000D01*
G01*
%TO.N,/D12*%
X55546000Y-76019680D02*
X55710000Y-76019680D01*
X53578000Y-76422000D02*
X53578000Y-76347699D01*
X54398000Y-76422000D02*
X54398000Y-77102293D01*
X51547038Y-77300000D02*
X52097038Y-76750000D01*
X55218000Y-76422000D02*
X55218000Y-76347680D01*
X56530000Y-76750000D02*
X62640000Y-76750000D01*
X54726000Y-77430293D02*
X54890000Y-77430293D01*
X55218000Y-77102293D02*
X55218000Y-76422000D01*
X53906000Y-76019699D02*
X54070000Y-76019699D01*
X52097038Y-76750000D02*
X53250000Y-76750000D01*
X56038000Y-76347680D02*
X56038000Y-76422000D01*
X50250000Y-77300000D02*
X51547038Y-77300000D01*
X54398000Y-76347699D02*
X54398000Y-76422000D01*
X56366000Y-76750000D02*
X56530000Y-76750000D01*
X54070000Y-76019699D02*
G75*
G02*
X54398001Y-76347699I0J-328001D01*
G01*
X53250000Y-76750000D02*
G75*
G03*
X53578000Y-76422000I0J328000D01*
G01*
X54398000Y-77102293D02*
G75*
G03*
X54726000Y-77430300I328000J-7D01*
G01*
X53578000Y-76347699D02*
G75*
G02*
X53906000Y-76019700I328000J-1D01*
G01*
X56038000Y-76422000D02*
G75*
G03*
X56366000Y-76750000I328000J0D01*
G01*
X55710000Y-76019680D02*
G75*
G02*
X56038020Y-76347680I0J-328020D01*
G01*
X54890000Y-77430293D02*
G75*
G03*
X55217993Y-77102293I0J327993D01*
G01*
X55218000Y-76347680D02*
G75*
G02*
X55546000Y-76019700I328000J-20D01*
G01*
%TO.N,/D14*%
X56921200Y-83940292D02*
X56921200Y-84140200D01*
X57683200Y-84949689D02*
X57683200Y-83940292D01*
X53805000Y-82305000D02*
X50325000Y-82305000D01*
X56616400Y-84445000D02*
X56464000Y-84445000D01*
X58445200Y-84749800D02*
X58445200Y-84949689D01*
X62715000Y-84445000D02*
X58750000Y-84445000D01*
X56464000Y-84445000D02*
X55945000Y-84445000D01*
X58140400Y-85254489D02*
X57988000Y-85254489D01*
X53805000Y-82305000D02*
X55945000Y-84445000D01*
X57378400Y-83635492D02*
X57226000Y-83635492D01*
X58750000Y-84445000D02*
G75*
G03*
X58445200Y-84749800I0J-304800D01*
G01*
X57988000Y-85254489D02*
G75*
G02*
X57683211Y-84949689I0J304789D01*
G01*
X57683200Y-83940292D02*
G75*
G03*
X57378400Y-83635500I-304800J-8D01*
G01*
X58445200Y-84949689D02*
G75*
G02*
X58140400Y-85254500I-304800J-11D01*
G01*
X56921200Y-84140200D02*
G75*
G02*
X56616400Y-84445000I-304800J0D01*
G01*
X57226000Y-83635492D02*
G75*
G03*
X56921192Y-83940292I0J-304808D01*
G01*
%TO.N,/D4*%
X56962000Y-52850250D02*
X57140000Y-52850250D01*
X56606000Y-51781000D02*
X56606000Y-52494250D01*
X55675000Y-51425000D02*
X56250000Y-51425000D01*
X58030000Y-51425000D02*
X62715000Y-51425000D01*
X53275000Y-53825000D02*
X55675000Y-51425000D01*
X57496000Y-52494250D02*
X57496000Y-51781000D01*
X57852000Y-51425000D02*
X58030000Y-51425000D01*
X50175000Y-53825000D02*
X53275000Y-53825000D01*
X57496000Y-51781000D02*
G75*
G02*
X57852000Y-51425000I356000J0D01*
G01*
X56606000Y-52494250D02*
G75*
G03*
X56962000Y-52850200I356000J50D01*
G01*
X57140000Y-52850250D02*
G75*
G03*
X57496050Y-52494250I0J356050D01*
G01*
X56250000Y-51425000D02*
G75*
G02*
X56606000Y-51781000I0J-356000D01*
G01*
%TO.N,/D15*%
X58013800Y-87358193D02*
X58013800Y-87289800D01*
X55800000Y-86900000D02*
X56100000Y-86900000D01*
X56794600Y-86307026D02*
X56947000Y-86307026D01*
X57251800Y-86680200D02*
X57251800Y-87358193D01*
X56489800Y-86680200D02*
X56489800Y-86611826D01*
X52475000Y-83575000D02*
X55800000Y-86900000D01*
X58471000Y-86985000D02*
X62715000Y-86985000D01*
X50325000Y-83575000D02*
X52475000Y-83575000D01*
X57556600Y-87662993D02*
X57709000Y-87662993D01*
X57251800Y-86611826D02*
X57251800Y-86680200D01*
X56100000Y-86900000D02*
X56185000Y-86985000D01*
X58318600Y-86985000D02*
X58471000Y-86985000D01*
X57709000Y-87662993D02*
G75*
G03*
X58013793Y-87358193I0J304793D01*
G01*
X57251800Y-87358193D02*
G75*
G03*
X57556600Y-87663000I304800J-7D01*
G01*
X56489800Y-86611826D02*
G75*
G02*
X56794600Y-86307000I304800J26D01*
G01*
X56947000Y-86307026D02*
G75*
G02*
X57251774Y-86611826I0J-304774D01*
G01*
X58013800Y-87289800D02*
G75*
G02*
X58318600Y-86985000I304800J0D01*
G01*
X56185000Y-86985000D02*
G75*
G03*
X56489800Y-86680200I0J304800D01*
G01*
%TO.N,/D2*%
X58114000Y-47262599D02*
X57960000Y-47262599D01*
X58884000Y-45427420D02*
X58730000Y-45427420D01*
X51330044Y-47205000D02*
X50175000Y-47205000D01*
X58422000Y-45735420D02*
X58422000Y-46954599D01*
X57190000Y-46345000D02*
X55355000Y-46345000D01*
X54495000Y-47205000D02*
X51330044Y-47205000D01*
X57344000Y-46345000D02*
X57190000Y-46345000D01*
X59192000Y-46037000D02*
X59192000Y-45735420D01*
X55355000Y-46345000D02*
X54495000Y-47205000D01*
X62715000Y-46345000D02*
X59500000Y-46345000D01*
X57652000Y-46954599D02*
X57652000Y-46653000D01*
X59192000Y-45735420D02*
G75*
G03*
X58884000Y-45427400I-308000J20D01*
G01*
X58422000Y-46954599D02*
G75*
G02*
X58114000Y-47262600I-308000J-1D01*
G01*
X58730000Y-45427420D02*
G75*
G03*
X58422020Y-45735420I0J-307980D01*
G01*
X57652000Y-46653000D02*
G75*
G03*
X57344000Y-46345000I-308000J0D01*
G01*
X57960000Y-47262599D02*
G75*
G02*
X57652001Y-46954599I0J307999D01*
G01*
X59500000Y-46345000D02*
G75*
G02*
X59192000Y-46037000I0J308000D01*
G01*
%TO.N,/D11*%
X57181927Y-73519053D02*
X57337927Y-73519053D01*
X53775000Y-71875000D02*
X56185000Y-74285000D01*
X57649927Y-73973000D02*
X57649927Y-74738947D01*
X56869927Y-73973000D02*
X56869927Y-73831053D01*
X50200000Y-71875000D02*
X53775000Y-71875000D01*
X57961927Y-75050947D02*
X58117927Y-75050947D01*
X58897927Y-74285000D02*
X59000000Y-74285000D01*
X57649927Y-73831053D02*
X57649927Y-73973000D01*
X58741927Y-74285000D02*
X58897927Y-74285000D01*
X56185000Y-74285000D02*
X56557927Y-74285000D01*
X58429927Y-74738947D02*
X58429927Y-74597000D01*
X59000000Y-74285000D02*
X62715000Y-74285000D01*
X58117927Y-75050947D02*
G75*
G03*
X58429947Y-74738947I-27J312047D01*
G01*
X57649927Y-74738947D02*
G75*
G03*
X57961927Y-75050873I311973J47D01*
G01*
X56557927Y-74285000D02*
G75*
G03*
X56869900Y-73973000I-27J312000D01*
G01*
X56869927Y-73831053D02*
G75*
G02*
X57181927Y-73519127I311973J-47D01*
G01*
X58429927Y-74597000D02*
G75*
G02*
X58741927Y-74285027I311973J0D01*
G01*
X57337927Y-73519053D02*
G75*
G02*
X57649947Y-73831053I-27J-312047D01*
G01*
%TO.N,/D9*%
X55856000Y-66479000D02*
X55856000Y-67212909D01*
X57436000Y-66377091D02*
X57436000Y-66479000D01*
X55382000Y-66061091D02*
X55540000Y-66061091D01*
X56172000Y-67528909D02*
X56330000Y-67528909D01*
X56646000Y-67212909D02*
X56646000Y-66479000D01*
X56646000Y-66479000D02*
X56646000Y-66377091D01*
X55066000Y-66479000D02*
X55066000Y-66377091D01*
X57752000Y-66795000D02*
X57910000Y-66795000D01*
X56962000Y-66061091D02*
X57120000Y-66061091D01*
X57910000Y-66795000D02*
X62655000Y-66795000D01*
X55856000Y-66377091D02*
X55856000Y-66479000D01*
X50200000Y-66795000D02*
X54750000Y-66795000D01*
X55066000Y-66377091D02*
G75*
G02*
X55382000Y-66061100I316000J-9D01*
G01*
X54750000Y-66795000D02*
G75*
G03*
X55066000Y-66479000I0J316000D01*
G01*
X57436000Y-66479000D02*
G75*
G03*
X57752000Y-66795000I316000J0D01*
G01*
X55540000Y-66061091D02*
G75*
G02*
X55856009Y-66377091I0J-316009D01*
G01*
X55856000Y-67212909D02*
G75*
G03*
X56172000Y-67528900I316000J9D01*
G01*
X56646000Y-66377091D02*
G75*
G02*
X56962000Y-66061100I316000J-9D01*
G01*
X56330000Y-67528909D02*
G75*
G03*
X56646009Y-67212909I0J316009D01*
G01*
X57120000Y-66061091D02*
G75*
G02*
X57436009Y-66377091I0J-316009D01*
G01*
%TO.N,/D6*%
X54621600Y-59882727D02*
X54774000Y-59882727D01*
X54316800Y-58232092D02*
X54316800Y-59577927D01*
X55383600Y-58905000D02*
X55536000Y-58905000D01*
X53859600Y-57927292D02*
X54012000Y-57927292D01*
X57675000Y-59080000D02*
X62750000Y-59080000D01*
X55078800Y-59577927D02*
X55078800Y-59209800D01*
X57500000Y-58905000D02*
X57543464Y-58948464D01*
X55536000Y-58905000D02*
X57500000Y-58905000D01*
X53554800Y-58600200D02*
X53554800Y-58232092D01*
X50175000Y-58905000D02*
X53250000Y-58905000D01*
X57543464Y-58948464D02*
X57675000Y-59080000D01*
X55078800Y-59209800D02*
G75*
G02*
X55383600Y-58905000I304800J0D01*
G01*
X54012000Y-57927292D02*
G75*
G02*
X54316808Y-58232092I0J-304808D01*
G01*
X53554800Y-58232092D02*
G75*
G02*
X53859600Y-57927300I304800J-8D01*
G01*
X53250000Y-58905000D02*
G75*
G03*
X53554800Y-58600200I0J304800D01*
G01*
X54774000Y-59882727D02*
G75*
G03*
X55078827Y-59577927I0J304827D01*
G01*
X54316800Y-59577927D02*
G75*
G03*
X54621600Y-59882700I304800J27D01*
G01*
%TO.N,/D13*%
X58197000Y-80137544D02*
X58197000Y-79737000D01*
X57267000Y-78993000D02*
X57267000Y-80137544D01*
X60000000Y-79365000D02*
X62715000Y-79365000D01*
X55200000Y-78600000D02*
X55866250Y-79266250D01*
X57639000Y-80509544D02*
X57825000Y-80509544D01*
X54700000Y-78500000D02*
X54800000Y-78600000D01*
X56709000Y-78520481D02*
X56895000Y-78520481D01*
X55866250Y-79266250D02*
X55965000Y-79365000D01*
X50320000Y-78500000D02*
X54700000Y-78500000D01*
X54800000Y-78600000D02*
X55200000Y-78600000D01*
X57267000Y-78892481D02*
X57267000Y-78993000D01*
X56337000Y-78993000D02*
X56337000Y-78892481D01*
X58755000Y-79365000D02*
X60000000Y-79365000D01*
X58569000Y-79365000D02*
X58755000Y-79365000D01*
X57825000Y-80509544D02*
G75*
G03*
X58197044Y-80137544I0J372044D01*
G01*
X56895000Y-78520481D02*
G75*
G02*
X57267019Y-78892481I0J-372019D01*
G01*
X55965000Y-79365000D02*
G75*
G03*
X56337000Y-78993000I0J372000D01*
G01*
X57267000Y-80137544D02*
G75*
G03*
X57639000Y-80509500I372000J44D01*
G01*
X56337000Y-78892481D02*
G75*
G02*
X56709000Y-78520500I372000J-19D01*
G01*
X58197000Y-79737000D02*
G75*
G02*
X58569000Y-79365000I372000J0D01*
G01*
%TD*%
%TA.AperFunction,Conductor*%
%TO.N,GND*%
G36*
X78863437Y-37720185D02*
G01*
X78909192Y-37772989D01*
X78919756Y-37837101D01*
X78917500Y-37859177D01*
X78917500Y-39660803D01*
X78917501Y-39660819D01*
X78927770Y-39761340D01*
X78928169Y-39765241D01*
X78984236Y-39934440D01*
X79003025Y-39964902D01*
X79003027Y-39964905D01*
X79021466Y-40032298D01*
X79003027Y-40095095D01*
X78984236Y-40125560D01*
X78928169Y-40294757D01*
X78928168Y-40294764D01*
X78917500Y-40399181D01*
X78917500Y-42200803D01*
X78917501Y-42200819D01*
X78928169Y-42305242D01*
X78984235Y-42474437D01*
X78984237Y-42474442D01*
X79077812Y-42626150D01*
X79170226Y-42718564D01*
X79203711Y-42779887D01*
X79198727Y-42849578D01*
X79186403Y-42882619D01*
X79186401Y-42882627D01*
X79180000Y-42942155D01*
X79180000Y-43590000D01*
X80085440Y-43590000D01*
X80054755Y-43643147D01*
X80020000Y-43772857D01*
X80020000Y-43907143D01*
X80054755Y-44036853D01*
X80085440Y-44090000D01*
X79180000Y-44090000D01*
X79180000Y-44737844D01*
X79186402Y-44797377D01*
X79186403Y-44797381D01*
X79198726Y-44830422D01*
X79203710Y-44900114D01*
X79170226Y-44961434D01*
X79077812Y-45053849D01*
X78984237Y-45205557D01*
X78984235Y-45205562D01*
X78928169Y-45374757D01*
X78928168Y-45374764D01*
X78917500Y-45479181D01*
X78917500Y-47280803D01*
X78917501Y-47280819D01*
X78928168Y-47385235D01*
X78928169Y-47385241D01*
X78984236Y-47554440D01*
X79003025Y-47584902D01*
X79003027Y-47584905D01*
X79021466Y-47652298D01*
X79003027Y-47715095D01*
X78984236Y-47745560D01*
X78928169Y-47914757D01*
X78928168Y-47914764D01*
X78917500Y-48019181D01*
X78917500Y-49820803D01*
X78917501Y-49820819D01*
X78928168Y-49925235D01*
X78928169Y-49925241D01*
X78984236Y-50094440D01*
X79003025Y-50124902D01*
X79003027Y-50124905D01*
X79021466Y-50192298D01*
X79003027Y-50255095D01*
X78984236Y-50285560D01*
X78928169Y-50454757D01*
X78928168Y-50454764D01*
X78917500Y-50559181D01*
X78917500Y-52360803D01*
X78917501Y-52360819D01*
X78928168Y-52465235D01*
X78928169Y-52465241D01*
X78984236Y-52634440D01*
X79003025Y-52664902D01*
X79003027Y-52664905D01*
X79021466Y-52732298D01*
X79003027Y-52795095D01*
X78984236Y-52825560D01*
X78928169Y-52994757D01*
X78928168Y-52994764D01*
X78917500Y-53099181D01*
X78917500Y-54900803D01*
X78917501Y-54900819D01*
X78928168Y-55005235D01*
X78928169Y-55005241D01*
X78984236Y-55174440D01*
X79003025Y-55204902D01*
X79003027Y-55204905D01*
X79021466Y-55272298D01*
X79003027Y-55335095D01*
X78984236Y-55365560D01*
X78928169Y-55534757D01*
X78928168Y-55534764D01*
X78917500Y-55639181D01*
X78917500Y-57440803D01*
X78917501Y-57440819D01*
X78928168Y-57545235D01*
X78928169Y-57545241D01*
X78984236Y-57714440D01*
X79003025Y-57744902D01*
X79003027Y-57744905D01*
X79021466Y-57812298D01*
X79003027Y-57875095D01*
X78984236Y-57905560D01*
X78928169Y-58074757D01*
X78928168Y-58074764D01*
X78917500Y-58179181D01*
X78917500Y-59980803D01*
X78917501Y-59980819D01*
X78928168Y-60085235D01*
X78928169Y-60085241D01*
X78984236Y-60254440D01*
X79003025Y-60284902D01*
X79003027Y-60284905D01*
X79021466Y-60352298D01*
X79003027Y-60415095D01*
X78984236Y-60445560D01*
X78928169Y-60614757D01*
X78928168Y-60614764D01*
X78917500Y-60719181D01*
X78917500Y-62520803D01*
X78917501Y-62520819D01*
X78928168Y-62625235D01*
X78928169Y-62625241D01*
X78984236Y-62794440D01*
X79003025Y-62824902D01*
X79003027Y-62824905D01*
X79021466Y-62892298D01*
X79003027Y-62955095D01*
X78984236Y-62985560D01*
X78928169Y-63154757D01*
X78928168Y-63154764D01*
X78917500Y-63259181D01*
X78917500Y-65060803D01*
X78917501Y-65060819D01*
X78928168Y-65165235D01*
X78928169Y-65165241D01*
X78984236Y-65334440D01*
X79003025Y-65364902D01*
X79003027Y-65364905D01*
X79021466Y-65432298D01*
X79003027Y-65495095D01*
X78984236Y-65525560D01*
X78928169Y-65694757D01*
X78928168Y-65694764D01*
X78917500Y-65799181D01*
X78917500Y-67600803D01*
X78917501Y-67600819D01*
X78928169Y-67705242D01*
X78984235Y-67874437D01*
X78984237Y-67874442D01*
X79077812Y-68026150D01*
X79170226Y-68118564D01*
X79203711Y-68179887D01*
X79198727Y-68249578D01*
X79186403Y-68282619D01*
X79186401Y-68282627D01*
X79180000Y-68342155D01*
X79180000Y-68990000D01*
X80085440Y-68990000D01*
X80054755Y-69043147D01*
X80020000Y-69172857D01*
X80020000Y-69307143D01*
X80054755Y-69436853D01*
X80085440Y-69490000D01*
X79180000Y-69490000D01*
X79180000Y-70137844D01*
X79186402Y-70197377D01*
X79186403Y-70197381D01*
X79198726Y-70230422D01*
X79203710Y-70300114D01*
X79170226Y-70361434D01*
X79077812Y-70453849D01*
X78984237Y-70605557D01*
X78984235Y-70605562D01*
X78928169Y-70774757D01*
X78928168Y-70774764D01*
X78917500Y-70879181D01*
X78917500Y-72680803D01*
X78917501Y-72680819D01*
X78928168Y-72785235D01*
X78928169Y-72785241D01*
X78984236Y-72954440D01*
X79003025Y-72984902D01*
X79003027Y-72984905D01*
X79021466Y-73052298D01*
X79003027Y-73115095D01*
X78984236Y-73145560D01*
X78928169Y-73314757D01*
X78928168Y-73314764D01*
X78917500Y-73419181D01*
X78917500Y-75220803D01*
X78917501Y-75220819D01*
X78928168Y-75325235D01*
X78928169Y-75325241D01*
X78984236Y-75494440D01*
X79003025Y-75524902D01*
X79003027Y-75524905D01*
X79021466Y-75592298D01*
X79003027Y-75655095D01*
X78984236Y-75685560D01*
X78928169Y-75854757D01*
X78928168Y-75854764D01*
X78917500Y-75959181D01*
X78917500Y-77760803D01*
X78917501Y-77760819D01*
X78928168Y-77865235D01*
X78928169Y-77865241D01*
X78984236Y-78034440D01*
X79003025Y-78064902D01*
X79003027Y-78064905D01*
X79021466Y-78132298D01*
X79003027Y-78195095D01*
X78984236Y-78225560D01*
X78928169Y-78394757D01*
X78928168Y-78394764D01*
X78917500Y-78499181D01*
X78917500Y-80300803D01*
X78917501Y-80300819D01*
X78928169Y-80405242D01*
X78984235Y-80574437D01*
X78984237Y-80574442D01*
X79077812Y-80726150D01*
X79170226Y-80818564D01*
X79203711Y-80879887D01*
X79198727Y-80949578D01*
X79186403Y-80982619D01*
X79186401Y-80982627D01*
X79180000Y-81042155D01*
X79180000Y-81690000D01*
X80085440Y-81690000D01*
X80054755Y-81743147D01*
X80020000Y-81872857D01*
X80020000Y-82007143D01*
X80054755Y-82136853D01*
X80085440Y-82190000D01*
X79180000Y-82190000D01*
X79180000Y-82837844D01*
X79186402Y-82897377D01*
X79186403Y-82897381D01*
X79198726Y-82930422D01*
X79203710Y-83000114D01*
X79170226Y-83061434D01*
X79077812Y-83153849D01*
X78984237Y-83305557D01*
X78984235Y-83305562D01*
X78928169Y-83474757D01*
X78928168Y-83474764D01*
X78917500Y-83579181D01*
X78917500Y-85380803D01*
X78917501Y-85380819D01*
X78925984Y-85463851D01*
X78928169Y-85485241D01*
X78984236Y-85654440D01*
X79003025Y-85684902D01*
X79003027Y-85684905D01*
X79021466Y-85752298D01*
X79003027Y-85815095D01*
X78984236Y-85845560D01*
X78928169Y-86014757D01*
X78928168Y-86014764D01*
X78917500Y-86119181D01*
X78917500Y-87920803D01*
X78917501Y-87920819D01*
X78928168Y-88025235D01*
X78928169Y-88025241D01*
X78984236Y-88194440D01*
X79077811Y-88346149D01*
X79203851Y-88472189D01*
X79355560Y-88565764D01*
X79524759Y-88621831D01*
X79629189Y-88632500D01*
X80388651Y-88632499D01*
X80388661Y-88632500D01*
X80403094Y-88632500D01*
X80681569Y-88632500D01*
X80681573Y-88632499D01*
X83230804Y-88632499D01*
X83230810Y-88632499D01*
X83335241Y-88621831D01*
X83504440Y-88565764D01*
X83656149Y-88472189D01*
X83782189Y-88346149D01*
X83875764Y-88194440D01*
X83931831Y-88025241D01*
X83942500Y-87920811D01*
X83942499Y-86119190D01*
X83931831Y-86014759D01*
X83875764Y-85845560D01*
X83856973Y-85815095D01*
X83838533Y-85747706D01*
X83856973Y-85684904D01*
X83875764Y-85654440D01*
X83931831Y-85485241D01*
X83942500Y-85380811D01*
X83942499Y-83579190D01*
X83931831Y-83474759D01*
X83875764Y-83305560D01*
X83782189Y-83153851D01*
X83689772Y-83061434D01*
X83656288Y-83000112D01*
X83661272Y-82930420D01*
X83661273Y-82930419D01*
X83673597Y-82897375D01*
X83673598Y-82897372D01*
X83679999Y-82837844D01*
X83680000Y-82837827D01*
X83680000Y-82190000D01*
X80974560Y-82190000D01*
X81005245Y-82136853D01*
X81040000Y-82007143D01*
X81040000Y-81872857D01*
X81005245Y-81743147D01*
X80974560Y-81690000D01*
X83680000Y-81690000D01*
X83680000Y-81042172D01*
X83679999Y-81042155D01*
X83673598Y-80982627D01*
X83673597Y-80982624D01*
X83661273Y-80949581D01*
X83656288Y-80879889D01*
X83689772Y-80818566D01*
X83689773Y-80818565D01*
X83689774Y-80818564D01*
X83782189Y-80726149D01*
X83875764Y-80574440D01*
X83931831Y-80405241D01*
X83942500Y-80300811D01*
X83942499Y-78499190D01*
X83931831Y-78394759D01*
X83875764Y-78225560D01*
X83856973Y-78195095D01*
X83838533Y-78127706D01*
X83856973Y-78064904D01*
X83875764Y-78034440D01*
X83931831Y-77865241D01*
X83942500Y-77760811D01*
X83942499Y-75959190D01*
X83931831Y-75854759D01*
X83875764Y-75685560D01*
X83856973Y-75655095D01*
X83838533Y-75587706D01*
X83856973Y-75524904D01*
X83875764Y-75494440D01*
X83931831Y-75325241D01*
X83942500Y-75220811D01*
X83942499Y-73419190D01*
X83931831Y-73314759D01*
X83875764Y-73145560D01*
X83856973Y-73115095D01*
X83838533Y-73047706D01*
X83856973Y-72984904D01*
X83875764Y-72954440D01*
X83931831Y-72785241D01*
X83942500Y-72680811D01*
X83942499Y-70879190D01*
X83931831Y-70774759D01*
X83875764Y-70605560D01*
X83782189Y-70453851D01*
X83689772Y-70361434D01*
X83656288Y-70300112D01*
X83661272Y-70230420D01*
X83661273Y-70230419D01*
X83673597Y-70197375D01*
X83673598Y-70197372D01*
X83679999Y-70137844D01*
X83680000Y-70137827D01*
X83680000Y-69490000D01*
X80974560Y-69490000D01*
X81005245Y-69436853D01*
X81040000Y-69307143D01*
X81040000Y-69172857D01*
X81005245Y-69043147D01*
X80974560Y-68990000D01*
X83680000Y-68990000D01*
X83680000Y-68342172D01*
X83679999Y-68342155D01*
X83673598Y-68282627D01*
X83673597Y-68282624D01*
X83661273Y-68249581D01*
X83656288Y-68179889D01*
X83689772Y-68118566D01*
X83689773Y-68118565D01*
X83689774Y-68118564D01*
X83782189Y-68026149D01*
X83875764Y-67874440D01*
X83931831Y-67705241D01*
X83942500Y-67600811D01*
X83942499Y-65799190D01*
X83931831Y-65694759D01*
X83875764Y-65525560D01*
X83856973Y-65495095D01*
X83838533Y-65427706D01*
X83856973Y-65364904D01*
X83875764Y-65334440D01*
X83931831Y-65165241D01*
X83942500Y-65060811D01*
X83942499Y-63259190D01*
X83931831Y-63154759D01*
X83875764Y-62985560D01*
X83856973Y-62955095D01*
X83838533Y-62887706D01*
X83856973Y-62824904D01*
X83875764Y-62794440D01*
X83931831Y-62625241D01*
X83942500Y-62520811D01*
X83942499Y-60719190D01*
X83931831Y-60614759D01*
X83875764Y-60445560D01*
X83856973Y-60415095D01*
X83838533Y-60347706D01*
X83856973Y-60284904D01*
X83875764Y-60254440D01*
X83931831Y-60085241D01*
X83942500Y-59980811D01*
X83942499Y-58179190D01*
X83931831Y-58074759D01*
X83875764Y-57905560D01*
X83856973Y-57875095D01*
X83838533Y-57807706D01*
X83856973Y-57744904D01*
X83875764Y-57714440D01*
X83931831Y-57545241D01*
X83942500Y-57440811D01*
X83942499Y-55639190D01*
X83931831Y-55534759D01*
X83875764Y-55365560D01*
X83856973Y-55335095D01*
X83838533Y-55267706D01*
X83856973Y-55204904D01*
X83875764Y-55174440D01*
X83931831Y-55005241D01*
X83942500Y-54900811D01*
X83942499Y-53099190D01*
X83931831Y-52994759D01*
X83875764Y-52825560D01*
X83856973Y-52795095D01*
X83838533Y-52727706D01*
X83856973Y-52664904D01*
X83875764Y-52634440D01*
X83931831Y-52465241D01*
X83942500Y-52360811D01*
X83942499Y-50559190D01*
X83931831Y-50454759D01*
X83875764Y-50285560D01*
X83856973Y-50255095D01*
X83838533Y-50187706D01*
X83856973Y-50124904D01*
X83875764Y-50094440D01*
X83931831Y-49925241D01*
X83942500Y-49820811D01*
X83942499Y-48019190D01*
X83931831Y-47914759D01*
X83875764Y-47745560D01*
X83856973Y-47715095D01*
X83838533Y-47647706D01*
X83856973Y-47584904D01*
X83875764Y-47554440D01*
X83931831Y-47385241D01*
X83942500Y-47280811D01*
X83942499Y-45479190D01*
X83931831Y-45374759D01*
X83875764Y-45205560D01*
X83782189Y-45053851D01*
X83689772Y-44961434D01*
X83656288Y-44900112D01*
X83661272Y-44830420D01*
X83661273Y-44830419D01*
X83673597Y-44797375D01*
X83673598Y-44797372D01*
X83679999Y-44737844D01*
X83680000Y-44737827D01*
X83680000Y-44090000D01*
X80974560Y-44090000D01*
X81005245Y-44036853D01*
X81040000Y-43907143D01*
X81040000Y-43772857D01*
X81005245Y-43643147D01*
X80974560Y-43590000D01*
X83680000Y-43590000D01*
X83680000Y-42942172D01*
X83679999Y-42942155D01*
X83673598Y-42882627D01*
X83673597Y-42882624D01*
X83661273Y-42849581D01*
X83656288Y-42779889D01*
X83689772Y-42718566D01*
X83689773Y-42718565D01*
X83695615Y-42712723D01*
X83782189Y-42626149D01*
X83875764Y-42474440D01*
X83931831Y-42305241D01*
X83942500Y-42200811D01*
X83942499Y-40399190D01*
X83931831Y-40294759D01*
X83875764Y-40125560D01*
X83856973Y-40095095D01*
X83838533Y-40027706D01*
X83856973Y-39964904D01*
X83875764Y-39934440D01*
X83931831Y-39765241D01*
X83942500Y-39660811D01*
X83942499Y-37859190D01*
X83940243Y-37837101D01*
X83940243Y-37837100D01*
X83953013Y-37768408D01*
X84000895Y-37717524D01*
X84063601Y-37700500D01*
X87375500Y-37700500D01*
X87442539Y-37720185D01*
X87488294Y-37772989D01*
X87499500Y-37824500D01*
X87499500Y-89375500D01*
X87479815Y-89442539D01*
X87427011Y-89488294D01*
X87375500Y-89499500D01*
X75916500Y-89499500D01*
X75849461Y-89479815D01*
X75803706Y-89427011D01*
X75792500Y-89375500D01*
X75792499Y-86924518D01*
X75792500Y-86924501D01*
X75792500Y-86656981D01*
X75792499Y-86656959D01*
X75792499Y-85889196D01*
X75792498Y-85889181D01*
X75788042Y-85845560D01*
X75781831Y-85784759D01*
X75725764Y-85615560D01*
X75632189Y-85463851D01*
X75506149Y-85337811D01*
X75354440Y-85244236D01*
X75354437Y-85244235D01*
X75185242Y-85188169D01*
X75185235Y-85188168D01*
X75080818Y-85177500D01*
X75080811Y-85177500D01*
X74306908Y-85177500D01*
X74306906Y-85177500D01*
X74053094Y-85177500D01*
X74053090Y-85177500D01*
X73279196Y-85177500D01*
X73279180Y-85177501D01*
X73174757Y-85188169D01*
X73061959Y-85225547D01*
X73005560Y-85244236D01*
X72975094Y-85263027D01*
X72907702Y-85281466D01*
X72844905Y-85263027D01*
X72814440Y-85244236D01*
X72729840Y-85216202D01*
X72645242Y-85188169D01*
X72645235Y-85188168D01*
X72540812Y-85177500D01*
X70739196Y-85177500D01*
X70739180Y-85177501D01*
X70634757Y-85188169D01*
X70521959Y-85225547D01*
X70465560Y-85244236D01*
X70435094Y-85263027D01*
X70367702Y-85281466D01*
X70304905Y-85263027D01*
X70274440Y-85244236D01*
X70189840Y-85216202D01*
X70105242Y-85188169D01*
X70105235Y-85188168D01*
X70000818Y-85177500D01*
X70000811Y-85177500D01*
X69226908Y-85177500D01*
X69226906Y-85177500D01*
X68973094Y-85177500D01*
X68973090Y-85177500D01*
X68199196Y-85177500D01*
X68199180Y-85177501D01*
X68094757Y-85188169D01*
X67925562Y-85244235D01*
X67925557Y-85244237D01*
X67773849Y-85337812D01*
X67647812Y-85463849D01*
X67554237Y-85615557D01*
X67554235Y-85615562D01*
X67498169Y-85784757D01*
X67498168Y-85784764D01*
X67487500Y-85889181D01*
X67487500Y-85889194D01*
X67487501Y-89375500D01*
X67467816Y-89442539D01*
X67415012Y-89488294D01*
X67363501Y-89499500D01*
X66124000Y-89499500D01*
X66056961Y-89479815D01*
X66011206Y-89427011D01*
X66000000Y-89375500D01*
X66000000Y-56391020D01*
X66019685Y-56323981D01*
X66041750Y-56298225D01*
X66903091Y-55534764D01*
X77000000Y-46585231D01*
X77000000Y-37824500D01*
X77019685Y-37757461D01*
X77072489Y-37711706D01*
X77124000Y-37700500D01*
X78796398Y-37700500D01*
X78863437Y-37720185D01*
G37*
%TD.AperFunction*%
%TD*%
M02*
