M48
; DRILL file {KiCad 9.0.0} date 2025-03-11T15:03:23-0400
; FORMAT={-:-/ absolute / metric / decimal}
; #@! TF.CreationDate,2025-03-11T15:03:23-04:00
; #@! TF.GenerationSoftware,Kicad,Pcbnew,9.0.0
; #@! TF.FileFunction,Plated,1,4,PTH
FMAT,2
METRIC
; #@! TA.AperFunction,Plated,PTH,ViaDrill
T1C0.400
; #@! TA.AperFunction,Plated,PTH,ComponentDrill
T2C1.000
; #@! TA.AperFunction,Plated,PTH,ComponentDrill
T3C1.020
%
G90
G05
T1
X50.175Y-50.5
X50.175Y-51.8
X50.175Y-62.2
X50.175Y-63.5
X50.175Y-73.9
X50.175Y-75.2
X50.2Y-40.1
X50.2Y-85.6
X51.5Y-44.665
X51.5Y-45.935
X51.5Y-56.365
X51.5Y-57.635
X51.5Y-68.132
X51.5Y-69.267
X51.5Y-79.932
X51.5Y-81.11
X52.75Y-44.5
X52.75Y-46.0
X52.75Y-56.25
X52.75Y-57.75
X52.75Y-68.0
X52.75Y-69.25
X53.0Y-79.75
X53.0Y-81.0
T2
X33.75Y-43.74
X33.75Y-46.28
X33.75Y-48.82
X33.75Y-51.36
X33.75Y-53.9
X33.75Y-56.44
X33.75Y-58.98
X33.75Y-61.52
X33.75Y-64.06
X33.75Y-66.6
X33.75Y-69.14
X33.75Y-71.68
X33.75Y-74.22
X33.75Y-76.76
X33.75Y-79.3
X33.75Y-81.84
X33.75Y-84.38
X36.29Y-43.74
X36.29Y-46.28
X36.29Y-48.82
X36.29Y-51.36
X36.29Y-53.9
X36.29Y-56.44
X36.29Y-58.98
X36.29Y-61.52
X36.29Y-64.06
X36.29Y-66.6
X36.29Y-69.14
X36.29Y-71.68
X36.29Y-74.22
X36.29Y-76.76
X36.29Y-79.3
X36.29Y-81.84
X36.29Y-84.38
T3
X62.75Y-38.76
X62.75Y-41.3
X62.75Y-43.84
X62.75Y-46.38
X62.75Y-48.92
X62.75Y-51.46
X62.75Y-54.0
X62.75Y-56.54
X62.75Y-59.08
X62.75Y-61.62
X62.75Y-64.16
X62.75Y-66.7
X62.75Y-69.24
X62.75Y-71.78
X62.75Y-74.32
X62.75Y-76.86
X62.75Y-79.4
X62.75Y-81.94
X62.75Y-84.48
X62.75Y-87.02
X69.1Y-86.79
X71.64Y-86.79
X74.18Y-86.79
X80.53Y-38.76
X80.53Y-41.3
X80.53Y-43.84
X80.53Y-46.38
X80.53Y-48.92
X80.53Y-51.46
X80.53Y-54.0
X80.53Y-56.54
X80.53Y-59.08
X80.53Y-61.62
X80.53Y-64.16
X80.53Y-66.7
X80.53Y-69.24
X80.53Y-71.78
X80.53Y-74.32
X80.53Y-76.86
X80.53Y-79.4
X80.53Y-81.94
X80.53Y-84.48
X80.53Y-87.02
M30
