%TF.GenerationSoftware,KiCad,Pcbnew,9.0.0*%
%TF.CreationDate,2025-03-18T14:59:40-04:00*%
%TF.ProjectId,PicoLVDS,5069636f-4c56-4445-932e-6b696361645f,3*%
%TF.SameCoordinates,Original*%
%TF.FileFunction,Plated,1,4,PTH,Drill*%
%TF.FilePolarity,Positive*%
%FSLAX46Y46*%
G04 Gerber Fmt 4.6, Leading zero omitted, Abs format (unit mm)*
G04 Created by KiCad (PCBNEW 9.0.0) date 2025-03-18 14:59:40*
%MOMM*%
%LPD*%
G01*
G04 APERTURE LIST*
%TA.AperFunction,ViaDrill*%
%ADD10C,0.300000*%
%TD*%
%TA.AperFunction,ViaDrill*%
%ADD11C,0.400000*%
%TD*%
%TA.AperFunction,ComponentDrill*%
%ADD12C,0.940000*%
%TD*%
%TA.AperFunction,ComponentDrill*%
%ADD13C,1.000000*%
%TD*%
G04 APERTURE END LIST*
D10*
X105068060Y-46678412D03*
X105720460Y-46678412D03*
D11*
X32004000Y-39370000D03*
X32766000Y-88138000D03*
X50175000Y-50500000D03*
X50175000Y-51800000D03*
X50175000Y-62200000D03*
X50175000Y-63500000D03*
X50175000Y-73900000D03*
X50175000Y-75200000D03*
X50200000Y-40100000D03*
X50200000Y-85600000D03*
X51500000Y-44665000D03*
X51500000Y-45935000D03*
X51500000Y-56365000D03*
X51500000Y-57635000D03*
X51500000Y-68132500D03*
X51500000Y-69267500D03*
X51500000Y-79932500D03*
X51500000Y-81110000D03*
X52750000Y-44500000D03*
X52750000Y-46000000D03*
X52750000Y-56250000D03*
X52750000Y-57750000D03*
X52750000Y-68000000D03*
X52750000Y-69250000D03*
X53000000Y-79750000D03*
X53000000Y-81000000D03*
X53340000Y-38354000D03*
X59944000Y-88900000D03*
X65278000Y-43942000D03*
X65278000Y-56642000D03*
X65278000Y-69342000D03*
X65278000Y-82042000D03*
X65532000Y-40894000D03*
X65532000Y-42672000D03*
X65532000Y-45212000D03*
X65532000Y-46736000D03*
X65532000Y-53594000D03*
X65532000Y-55372000D03*
X65532000Y-57912000D03*
X65532000Y-59436000D03*
X65532000Y-66294000D03*
X65532000Y-68072000D03*
X65532000Y-70612000D03*
X65532000Y-72136000D03*
X65532000Y-78994000D03*
X65532000Y-80772000D03*
X65532000Y-83312000D03*
X65532000Y-84836000D03*
X66040000Y-41656000D03*
X66040000Y-45974000D03*
X66040000Y-54356000D03*
X66040000Y-58674000D03*
X66040000Y-67056000D03*
X66040000Y-71374000D03*
X66040000Y-79756000D03*
X66040000Y-84074000D03*
X66548000Y-40894000D03*
X66548000Y-42164000D03*
X66548000Y-43180000D03*
X66548000Y-44196000D03*
X66548000Y-45212000D03*
X66548000Y-46736000D03*
X66548000Y-53594000D03*
X66548000Y-54864000D03*
X66548000Y-55880000D03*
X66548000Y-56896000D03*
X66548000Y-57912000D03*
X66548000Y-59436000D03*
X66548000Y-66294000D03*
X66548000Y-67564000D03*
X66548000Y-68580000D03*
X66548000Y-69596000D03*
X66548000Y-70612000D03*
X66548000Y-72136000D03*
X66548000Y-78994000D03*
X66548000Y-80264000D03*
X66548000Y-81280000D03*
X66548000Y-82296000D03*
X66548000Y-83312000D03*
X66548000Y-84836000D03*
X76200000Y-48514000D03*
X76200000Y-49784000D03*
X76200000Y-51308000D03*
X76454000Y-47244000D03*
X76493077Y-66294000D03*
X76493077Y-67818000D03*
X76493077Y-68834000D03*
X76493077Y-69850000D03*
X76493077Y-70866000D03*
X76493077Y-72136000D03*
X76493077Y-78994000D03*
X76493077Y-80518000D03*
X76493077Y-81534000D03*
X76493077Y-82550000D03*
X76493077Y-83566000D03*
X76493077Y-84836000D03*
X76962000Y-38354000D03*
X76962000Y-39878000D03*
X76962000Y-40894000D03*
X76962000Y-41910000D03*
X76962000Y-42926000D03*
X76962000Y-46228000D03*
X76962000Y-49276000D03*
X76962000Y-50292000D03*
X77001077Y-67056000D03*
X77001077Y-71374000D03*
X77001077Y-79756000D03*
X77001077Y-84074000D03*
X77216000Y-48006000D03*
X77216000Y-51816000D03*
X77470000Y-39116000D03*
X77470000Y-43434000D03*
X77509077Y-66294000D03*
X77509077Y-67818000D03*
X77509077Y-70358000D03*
X77509077Y-72136000D03*
X77509077Y-78994000D03*
X77509077Y-80518000D03*
X77509077Y-83058000D03*
X77509077Y-84836000D03*
X77724000Y-40894000D03*
X77724000Y-46990000D03*
X77724000Y-48768000D03*
X77724000Y-50800000D03*
X77763077Y-69088000D03*
X77763077Y-81788000D03*
X77978000Y-38354000D03*
X77978000Y-39878000D03*
X77978000Y-42418000D03*
X77978000Y-49784000D03*
X78232000Y-48006000D03*
X78486000Y-45974000D03*
X78486000Y-51816000D03*
X84074000Y-88900000D03*
X84836000Y-38354000D03*
X84836000Y-39878000D03*
X84836000Y-40894000D03*
X84836000Y-41910000D03*
X84836000Y-42926000D03*
X85344000Y-39116000D03*
X85344000Y-43434000D03*
X85598000Y-40894000D03*
X85852000Y-38354000D03*
X85852000Y-39878000D03*
X85852000Y-42418000D03*
X85852000Y-44196000D03*
X86614000Y-59944000D03*
X90551000Y-63881000D03*
X92952500Y-64273500D03*
X97151001Y-65147001D03*
X97659001Y-64639001D03*
X99556500Y-64527500D03*
X103629999Y-64767999D03*
X103632000Y-46736000D03*
X104137999Y-64259999D03*
X106172000Y-64516000D03*
X107188000Y-46736000D03*
X109982000Y-64770000D03*
X110458249Y-64230249D03*
X112722000Y-64544499D03*
X117094000Y-65416001D03*
X117856000Y-65024000D03*
X120650000Y-60452000D03*
X120650000Y-88392000D03*
X121158000Y-38354000D03*
D12*
%TO.C,J2*%
X92713000Y-44196000D03*
X93729000Y-45976000D03*
X94745000Y-44196000D03*
X95761000Y-45976000D03*
X96777000Y-44196000D03*
X97793000Y-45976000D03*
X98809000Y-44196000D03*
X99825000Y-45976000D03*
X108463000Y-44196000D03*
X109479000Y-45976000D03*
X110495000Y-44196000D03*
X111511000Y-45976000D03*
X112527000Y-44196000D03*
X113543000Y-45976000D03*
X114559000Y-44196000D03*
X115575000Y-45976000D03*
D13*
%TO.C,J1*%
X33750000Y-43740000D03*
X33750000Y-46280000D03*
X33750000Y-48820000D03*
X33750000Y-51360000D03*
X33750000Y-53900000D03*
X33750000Y-56440000D03*
X33750000Y-58980000D03*
X33750000Y-61520000D03*
X33750000Y-64060000D03*
X33750000Y-66600000D03*
X33750000Y-69140000D03*
X33750000Y-71680000D03*
X33750000Y-74220000D03*
X33750000Y-76760000D03*
X33750000Y-79300000D03*
X33750000Y-81840000D03*
X33750000Y-84380000D03*
X36290000Y-43740000D03*
X36290000Y-46280000D03*
X36290000Y-48820000D03*
X36290000Y-51360000D03*
X36290000Y-53900000D03*
X36290000Y-56440000D03*
X36290000Y-58980000D03*
X36290000Y-61520000D03*
X36290000Y-64060000D03*
X36290000Y-66600000D03*
X36290000Y-69140000D03*
X36290000Y-71680000D03*
X36290000Y-74220000D03*
X36290000Y-76760000D03*
X36290000Y-79300000D03*
X36290000Y-81840000D03*
X36290000Y-84380000D03*
M02*
