%TF.GenerationSoftware,KiCad,Pcbnew,9.0.0*%
%TF.CreationDate,2025-03-18T14:59:46-04:00*%
%TF.ProjectId,PicoLVDS,5069636f-4c56-4445-932e-6b696361645f,3*%
%TF.SameCoordinates,Original*%
%TF.FileFunction,Copper,L1,Top*%
%TF.FilePolarity,Positive*%
%FSLAX46Y46*%
G04 Gerber Fmt 4.6, Leading zero omitted, Abs format (unit mm)*
G04 Created by KiCad (PCBNEW 9.0.0) date 2025-03-18 14:59:46*
%MOMM*%
%LPD*%
G01*
G04 APERTURE LIST*
%TA.AperFunction,SMDPad,CuDef*%
%ADD10O,0.599999X1.450000*%
%TD*%
%TA.AperFunction,ComponentPad*%
%ADD11R,1.700000X1.700000*%
%TD*%
%TA.AperFunction,ComponentPad*%
%ADD12O,1.700000X1.700000*%
%TD*%
%TA.AperFunction,ComponentPad*%
%ADD13C,1.448000*%
%TD*%
%TA.AperFunction,ViaPad*%
%ADD14C,0.600000*%
%TD*%
%TA.AperFunction,ViaPad*%
%ADD15C,0.500000*%
%TD*%
%TA.AperFunction,Conductor*%
%ADD16C,0.508000*%
%TD*%
%TA.AperFunction,Conductor*%
%ADD17C,0.762000*%
%TD*%
%TA.AperFunction,Conductor*%
%ADD18C,0.175260*%
%TD*%
%TA.AperFunction,Conductor*%
%ADD19C,0.381000*%
%TD*%
G04 APERTURE END LIST*
%TO.P,U1,22,GP17*%
%TO.N,/D17*%
%TA.AperFunction,SMDPad,CuDef*%
G36*
G01*
X79830000Y-85044706D02*
X79830000Y-83915294D01*
G75*
G02*
X80065294Y-83680000I235294J0D01*
G01*
X82794706Y-83680000D01*
G75*
G02*
X83030000Y-83915294I0J-235294D01*
G01*
X83030000Y-85044706D01*
G75*
G02*
X82794706Y-85280000I-235294J0D01*
G01*
X80065294Y-85280000D01*
G75*
G02*
X79830000Y-85044706I0J235294D01*
G01*
G37*
%TD.AperFunction*%
%TO.P,U1,23,GND*%
%TO.N,GND*%
%TA.AperFunction,SMDPad,CuDef*%
G36*
G01*
X79830000Y-82504706D02*
X79830000Y-81375294D01*
G75*
G02*
X80065294Y-81140000I235294J0D01*
G01*
X82794706Y-81140000D01*
G75*
G02*
X83030000Y-81375294I0J-235294D01*
G01*
X83030000Y-82504706D01*
G75*
G02*
X82794706Y-82740000I-235294J0D01*
G01*
X80065294Y-82740000D01*
G75*
G02*
X79830000Y-82504706I0J235294D01*
G01*
G37*
%TD.AperFunction*%
%TO.P,U1,24,GP18*%
%TO.N,/D18*%
%TA.AperFunction,SMDPad,CuDef*%
G36*
G01*
X79830000Y-79964706D02*
X79830000Y-78835294D01*
G75*
G02*
X80065294Y-78600000I235294J0D01*
G01*
X82794706Y-78600000D01*
G75*
G02*
X83030000Y-78835294I0J-235294D01*
G01*
X83030000Y-79964706D01*
G75*
G02*
X82794706Y-80200000I-235294J0D01*
G01*
X80065294Y-80200000D01*
G75*
G02*
X79830000Y-79964706I0J235294D01*
G01*
G37*
%TD.AperFunction*%
%TO.P,U1,25,GP19*%
%TO.N,/D19*%
%TA.AperFunction,SMDPad,CuDef*%
G36*
G01*
X79830000Y-77424706D02*
X79830000Y-76295294D01*
G75*
G02*
X80065294Y-76060000I235294J0D01*
G01*
X82794706Y-76060000D01*
G75*
G02*
X83030000Y-76295294I0J-235294D01*
G01*
X83030000Y-77424706D01*
G75*
G02*
X82794706Y-77660000I-235294J0D01*
G01*
X80065294Y-77660000D01*
G75*
G02*
X79830000Y-77424706I0J235294D01*
G01*
G37*
%TD.AperFunction*%
%TO.P,U1,26,GP20*%
%TO.N,/SR*%
%TA.AperFunction,SMDPad,CuDef*%
G36*
G01*
X79830000Y-74884706D02*
X79830000Y-73755294D01*
G75*
G02*
X80065294Y-73520000I235294J0D01*
G01*
X82794706Y-73520000D01*
G75*
G02*
X83030000Y-73755294I0J-235294D01*
G01*
X83030000Y-74884706D01*
G75*
G02*
X82794706Y-75120000I-235294J0D01*
G01*
X80065294Y-75120000D01*
G75*
G02*
X79830000Y-74884706I0J235294D01*
G01*
G37*
%TD.AperFunction*%
%TO.P,U1,27,GP21*%
%TO.N,unconnected-(U1-GP21-Pad27)*%
%TA.AperFunction,SMDPad,CuDef*%
G36*
G01*
X79830000Y-72344706D02*
X79830000Y-71215294D01*
G75*
G02*
X80065294Y-70980000I235294J0D01*
G01*
X82794706Y-70980000D01*
G75*
G02*
X83030000Y-71215294I0J-235294D01*
G01*
X83030000Y-72344706D01*
G75*
G02*
X82794706Y-72580000I-235294J0D01*
G01*
X80065294Y-72580000D01*
G75*
G02*
X79830000Y-72344706I0J235294D01*
G01*
G37*
%TD.AperFunction*%
%TO.P,U1,28,GND*%
%TO.N,GND*%
%TA.AperFunction,SMDPad,CuDef*%
G36*
G01*
X79830000Y-69804706D02*
X79830000Y-68675294D01*
G75*
G02*
X80065294Y-68440000I235294J0D01*
G01*
X82794706Y-68440000D01*
G75*
G02*
X83030000Y-68675294I0J-235294D01*
G01*
X83030000Y-69804706D01*
G75*
G02*
X82794706Y-70040000I-235294J0D01*
G01*
X80065294Y-70040000D01*
G75*
G02*
X79830000Y-69804706I0J235294D01*
G01*
G37*
%TD.AperFunction*%
%TO.P,U1,29,GP22*%
%TO.N,unconnected-(U1-GP22-Pad29)*%
%TA.AperFunction,SMDPad,CuDef*%
G36*
G01*
X79830000Y-67264706D02*
X79830000Y-66135294D01*
G75*
G02*
X80065294Y-65900000I235294J0D01*
G01*
X82794706Y-65900000D01*
G75*
G02*
X83030000Y-66135294I0J-235294D01*
G01*
X83030000Y-67264706D01*
G75*
G02*
X82794706Y-67500000I-235294J0D01*
G01*
X80065294Y-67500000D01*
G75*
G02*
X79830000Y-67264706I0J235294D01*
G01*
G37*
%TD.AperFunction*%
%TO.P,U1,30,RUN*%
%TO.N,unconnected-(U1-RUN-Pad30)*%
%TA.AperFunction,SMDPad,CuDef*%
G36*
G01*
X79830000Y-64724706D02*
X79830000Y-63595294D01*
G75*
G02*
X80065294Y-63360000I235294J0D01*
G01*
X82794706Y-63360000D01*
G75*
G02*
X83030000Y-63595294I0J-235294D01*
G01*
X83030000Y-64724706D01*
G75*
G02*
X82794706Y-64960000I-235294J0D01*
G01*
X80065294Y-64960000D01*
G75*
G02*
X79830000Y-64724706I0J235294D01*
G01*
G37*
%TD.AperFunction*%
%TO.P,U1,31,GP26_A0*%
%TO.N,unconnected-(U1-GP26_A0-Pad31)*%
%TA.AperFunction,SMDPad,CuDef*%
G36*
G01*
X79830000Y-62184706D02*
X79830000Y-61055294D01*
G75*
G02*
X80065294Y-60820000I235294J0D01*
G01*
X82794706Y-60820000D01*
G75*
G02*
X83030000Y-61055294I0J-235294D01*
G01*
X83030000Y-62184706D01*
G75*
G02*
X82794706Y-62420000I-235294J0D01*
G01*
X80065294Y-62420000D01*
G75*
G02*
X79830000Y-62184706I0J235294D01*
G01*
G37*
%TD.AperFunction*%
%TO.P,U1,32,GP27_A1*%
%TO.N,unconnected-(U1-GP27_A1-Pad32)*%
%TA.AperFunction,SMDPad,CuDef*%
G36*
G01*
X79830000Y-59644706D02*
X79830000Y-58515294D01*
G75*
G02*
X80065294Y-58280000I235294J0D01*
G01*
X82794706Y-58280000D01*
G75*
G02*
X83030000Y-58515294I0J-235294D01*
G01*
X83030000Y-59644706D01*
G75*
G02*
X82794706Y-59880000I-235294J0D01*
G01*
X80065294Y-59880000D01*
G75*
G02*
X79830000Y-59644706I0J235294D01*
G01*
G37*
%TD.AperFunction*%
%TO.P,U1,33,AGND*%
%TO.N,unconnected-(U1-AGND-Pad33)*%
%TA.AperFunction,SMDPad,CuDef*%
G36*
G01*
X79830000Y-57104706D02*
X79830000Y-55975294D01*
G75*
G02*
X80065294Y-55740000I235294J0D01*
G01*
X82794706Y-55740000D01*
G75*
G02*
X83030000Y-55975294I0J-235294D01*
G01*
X83030000Y-57104706D01*
G75*
G02*
X82794706Y-57340000I-235294J0D01*
G01*
X80065294Y-57340000D01*
G75*
G02*
X79830000Y-57104706I0J235294D01*
G01*
G37*
%TD.AperFunction*%
%TO.P,U1,34,GP28_A2*%
%TO.N,unconnected-(U1-GP28_A2-Pad34)*%
%TA.AperFunction,SMDPad,CuDef*%
G36*
G01*
X79830000Y-54564706D02*
X79830000Y-53435294D01*
G75*
G02*
X80065294Y-53200000I235294J0D01*
G01*
X82794706Y-53200000D01*
G75*
G02*
X83030000Y-53435294I0J-235294D01*
G01*
X83030000Y-54564706D01*
G75*
G02*
X82794706Y-54800000I-235294J0D01*
G01*
X80065294Y-54800000D01*
G75*
G02*
X79830000Y-54564706I0J235294D01*
G01*
G37*
%TD.AperFunction*%
%TO.P,U1,35,ADC_VREF*%
%TO.N,unconnected-(U1-ADC_VREF-Pad35)*%
%TA.AperFunction,SMDPad,CuDef*%
G36*
G01*
X79830000Y-52024706D02*
X79830000Y-50895294D01*
G75*
G02*
X80065294Y-50660000I235294J0D01*
G01*
X82794706Y-50660000D01*
G75*
G02*
X83030000Y-50895294I0J-235294D01*
G01*
X83030000Y-52024706D01*
G75*
G02*
X82794706Y-52260000I-235294J0D01*
G01*
X80065294Y-52260000D01*
G75*
G02*
X79830000Y-52024706I0J235294D01*
G01*
G37*
%TD.AperFunction*%
%TO.P,U1,36,3V3*%
%TO.N,+3V3*%
%TA.AperFunction,SMDPad,CuDef*%
G36*
G01*
X79830000Y-49484706D02*
X79830000Y-48355294D01*
G75*
G02*
X80065294Y-48120000I235294J0D01*
G01*
X82794706Y-48120000D01*
G75*
G02*
X83030000Y-48355294I0J-235294D01*
G01*
X83030000Y-49484706D01*
G75*
G02*
X82794706Y-49720000I-235294J0D01*
G01*
X80065294Y-49720000D01*
G75*
G02*
X79830000Y-49484706I0J235294D01*
G01*
G37*
%TD.AperFunction*%
%TO.P,U1,37,3V3_EN*%
%TO.N,unconnected-(U1-3V3_EN-Pad37)*%
%TA.AperFunction,SMDPad,CuDef*%
G36*
G01*
X79830000Y-46944706D02*
X79830000Y-45815294D01*
G75*
G02*
X80065294Y-45580000I235294J0D01*
G01*
X82794706Y-45580000D01*
G75*
G02*
X83030000Y-45815294I0J-235294D01*
G01*
X83030000Y-46944706D01*
G75*
G02*
X82794706Y-47180000I-235294J0D01*
G01*
X80065294Y-47180000D01*
G75*
G02*
X79830000Y-46944706I0J235294D01*
G01*
G37*
%TD.AperFunction*%
%TO.P,U1,38,GND*%
%TO.N,GND*%
%TA.AperFunction,SMDPad,CuDef*%
G36*
G01*
X79830000Y-44404706D02*
X79830000Y-43275294D01*
G75*
G02*
X80065294Y-43040000I235294J0D01*
G01*
X82794706Y-43040000D01*
G75*
G02*
X83030000Y-43275294I0J-235294D01*
G01*
X83030000Y-44404706D01*
G75*
G02*
X82794706Y-44640000I-235294J0D01*
G01*
X80065294Y-44640000D01*
G75*
G02*
X79830000Y-44404706I0J235294D01*
G01*
G37*
%TD.AperFunction*%
%TO.P,U1,39,VSYS*%
%TO.N,unconnected-(U1-VSYS-Pad39)*%
%TA.AperFunction,SMDPad,CuDef*%
G36*
G01*
X79830000Y-41864706D02*
X79830000Y-40735294D01*
G75*
G02*
X80065294Y-40500000I235294J0D01*
G01*
X82794706Y-40500000D01*
G75*
G02*
X83030000Y-40735294I0J-235294D01*
G01*
X83030000Y-41864706D01*
G75*
G02*
X82794706Y-42100000I-235294J0D01*
G01*
X80065294Y-42100000D01*
G75*
G02*
X79830000Y-41864706I0J235294D01*
G01*
G37*
%TD.AperFunction*%
%TO.P,U1,40,VBUS*%
%TO.N,unconnected-(U1-VBUS-Pad40)*%
%TA.AperFunction,SMDPad,CuDef*%
G36*
G01*
X79830000Y-39324706D02*
X79830000Y-38195294D01*
G75*
G02*
X80065294Y-37960000I235294J0D01*
G01*
X82794706Y-37960000D01*
G75*
G02*
X83030000Y-38195294I0J-235294D01*
G01*
X83030000Y-39324706D01*
G75*
G02*
X82794706Y-39560000I-235294J0D01*
G01*
X80065294Y-39560000D01*
G75*
G02*
X79830000Y-39324706I0J235294D01*
G01*
G37*
%TD.AperFunction*%
%TO.P,U1,21,GP16*%
%TO.N,/D16*%
%TA.AperFunction,SMDPad,CuDef*%
G36*
G01*
X79830000Y-87584706D02*
X79830000Y-86455294D01*
G75*
G02*
X80065294Y-86220000I235294J0D01*
G01*
X82794706Y-86220000D01*
G75*
G02*
X83030000Y-86455294I0J-235294D01*
G01*
X83030000Y-87584706D01*
G75*
G02*
X82794706Y-87820000I-235294J0D01*
G01*
X80065294Y-87820000D01*
G75*
G02*
X79830000Y-87584706I0J235294D01*
G01*
G37*
%TD.AperFunction*%
%TO.P,U1,*%
%TO.N,*%
%TA.AperFunction,SMDPad,CuDef*%
G36*
G01*
X68365000Y-39240000D02*
X68365000Y-38540000D01*
G75*
G02*
X68915000Y-37990000I550000J0D01*
G01*
X68915000Y-37990000D01*
G75*
G02*
X69465000Y-38540000I0J-550000D01*
G01*
X69465000Y-39240000D01*
G75*
G02*
X68915000Y-39790000I-550000J0D01*
G01*
X68915000Y-39790000D01*
G75*
G02*
X68365000Y-39240000I0J550000D01*
G01*
G37*
%TD.AperFunction*%
%TA.AperFunction,SMDPad,CuDef*%
G36*
G01*
X68690000Y-42120000D02*
X68690000Y-41720000D01*
G75*
G02*
X69215000Y-41195000I525000J0D01*
G01*
X69215000Y-41195000D01*
G75*
G02*
X69740000Y-41720000I0J-525000D01*
G01*
X69740000Y-42120000D01*
G75*
G02*
X69215000Y-42645000I-525000J0D01*
G01*
X69215000Y-42645000D01*
G75*
G02*
X68690000Y-42120000I0J525000D01*
G01*
G37*
%TD.AperFunction*%
%TA.AperFunction,SMDPad,CuDef*%
G36*
G01*
X73540000Y-42120000D02*
X73540000Y-41720000D01*
G75*
G02*
X74065000Y-41195000I525000J0D01*
G01*
X74065000Y-41195000D01*
G75*
G02*
X74590000Y-41720000I0J-525000D01*
G01*
X74590000Y-42120000D01*
G75*
G02*
X74065000Y-42645000I-525000J0D01*
G01*
X74065000Y-42645000D01*
G75*
G02*
X73540000Y-42120000I0J525000D01*
G01*
G37*
%TD.AperFunction*%
%TA.AperFunction,SMDPad,CuDef*%
G36*
G01*
X73815000Y-39240000D02*
X73815000Y-38540000D01*
G75*
G02*
X74365000Y-37990000I550000J0D01*
G01*
X74365000Y-37990000D01*
G75*
G02*
X74915000Y-38540000I0J-550000D01*
G01*
X74915000Y-39240000D01*
G75*
G02*
X74365000Y-39790000I-550000J0D01*
G01*
X74365000Y-39790000D01*
G75*
G02*
X73815000Y-39240000I0J550000D01*
G01*
G37*
%TD.AperFunction*%
%TO.P,U1,1,GP0*%
%TO.N,/D0*%
%TA.AperFunction,SMDPad,CuDef*%
G36*
G01*
X60250000Y-39324706D02*
X60250000Y-38195294D01*
G75*
G02*
X60485294Y-37960000I235294J0D01*
G01*
X63214706Y-37960000D01*
G75*
G02*
X63450000Y-38195294I0J-235294D01*
G01*
X63450000Y-39324706D01*
G75*
G02*
X63214706Y-39560000I-235294J0D01*
G01*
X60485294Y-39560000D01*
G75*
G02*
X60250000Y-39324706I0J235294D01*
G01*
G37*
%TD.AperFunction*%
%TO.P,U1,2,GP1*%
%TO.N,/D1*%
%TA.AperFunction,SMDPad,CuDef*%
G36*
G01*
X60250000Y-41864706D02*
X60250000Y-40735294D01*
G75*
G02*
X60485294Y-40500000I235294J0D01*
G01*
X63214706Y-40500000D01*
G75*
G02*
X63450000Y-40735294I0J-235294D01*
G01*
X63450000Y-41864706D01*
G75*
G02*
X63214706Y-42100000I-235294J0D01*
G01*
X60485294Y-42100000D01*
G75*
G02*
X60250000Y-41864706I0J235294D01*
G01*
G37*
%TD.AperFunction*%
%TO.P,U1,3,GND*%
%TO.N,GND*%
%TA.AperFunction,SMDPad,CuDef*%
G36*
G01*
X60250000Y-44404706D02*
X60250000Y-43275294D01*
G75*
G02*
X60485294Y-43040000I235294J0D01*
G01*
X63214706Y-43040000D01*
G75*
G02*
X63450000Y-43275294I0J-235294D01*
G01*
X63450000Y-44404706D01*
G75*
G02*
X63214706Y-44640000I-235294J0D01*
G01*
X60485294Y-44640000D01*
G75*
G02*
X60250000Y-44404706I0J235294D01*
G01*
G37*
%TD.AperFunction*%
%TO.P,U1,4,GP2*%
%TO.N,/D2*%
%TA.AperFunction,SMDPad,CuDef*%
G36*
G01*
X60250000Y-46944706D02*
X60250000Y-45815294D01*
G75*
G02*
X60485294Y-45580000I235294J0D01*
G01*
X63214706Y-45580000D01*
G75*
G02*
X63450000Y-45815294I0J-235294D01*
G01*
X63450000Y-46944706D01*
G75*
G02*
X63214706Y-47180000I-235294J0D01*
G01*
X60485294Y-47180000D01*
G75*
G02*
X60250000Y-46944706I0J235294D01*
G01*
G37*
%TD.AperFunction*%
%TO.P,U1,5,GP3*%
%TO.N,/D3*%
%TA.AperFunction,SMDPad,CuDef*%
G36*
G01*
X60250000Y-49484706D02*
X60250000Y-48355294D01*
G75*
G02*
X60485294Y-48120000I235294J0D01*
G01*
X63214706Y-48120000D01*
G75*
G02*
X63450000Y-48355294I0J-235294D01*
G01*
X63450000Y-49484706D01*
G75*
G02*
X63214706Y-49720000I-235294J0D01*
G01*
X60485294Y-49720000D01*
G75*
G02*
X60250000Y-49484706I0J235294D01*
G01*
G37*
%TD.AperFunction*%
%TO.P,U1,6,GP4*%
%TO.N,/D4*%
%TA.AperFunction,SMDPad,CuDef*%
G36*
G01*
X60250000Y-52024706D02*
X60250000Y-50895294D01*
G75*
G02*
X60485294Y-50660000I235294J0D01*
G01*
X63214706Y-50660000D01*
G75*
G02*
X63450000Y-50895294I0J-235294D01*
G01*
X63450000Y-52024706D01*
G75*
G02*
X63214706Y-52260000I-235294J0D01*
G01*
X60485294Y-52260000D01*
G75*
G02*
X60250000Y-52024706I0J235294D01*
G01*
G37*
%TD.AperFunction*%
%TO.P,U1,7,GP5*%
%TO.N,/D5*%
%TA.AperFunction,SMDPad,CuDef*%
G36*
G01*
X60250000Y-54564706D02*
X60250000Y-53435294D01*
G75*
G02*
X60485294Y-53200000I235294J0D01*
G01*
X63214706Y-53200000D01*
G75*
G02*
X63450000Y-53435294I0J-235294D01*
G01*
X63450000Y-54564706D01*
G75*
G02*
X63214706Y-54800000I-235294J0D01*
G01*
X60485294Y-54800000D01*
G75*
G02*
X60250000Y-54564706I0J235294D01*
G01*
G37*
%TD.AperFunction*%
%TO.P,U1,8,GND*%
%TO.N,GND*%
%TA.AperFunction,SMDPad,CuDef*%
G36*
G01*
X60250000Y-57104706D02*
X60250000Y-55975294D01*
G75*
G02*
X60485294Y-55740000I235294J0D01*
G01*
X63214706Y-55740000D01*
G75*
G02*
X63450000Y-55975294I0J-235294D01*
G01*
X63450000Y-57104706D01*
G75*
G02*
X63214706Y-57340000I-235294J0D01*
G01*
X60485294Y-57340000D01*
G75*
G02*
X60250000Y-57104706I0J235294D01*
G01*
G37*
%TD.AperFunction*%
%TO.P,U1,9,GP6*%
%TO.N,/D6*%
%TA.AperFunction,SMDPad,CuDef*%
G36*
G01*
X60250000Y-59644706D02*
X60250000Y-58515294D01*
G75*
G02*
X60485294Y-58280000I235294J0D01*
G01*
X63214706Y-58280000D01*
G75*
G02*
X63450000Y-58515294I0J-235294D01*
G01*
X63450000Y-59644706D01*
G75*
G02*
X63214706Y-59880000I-235294J0D01*
G01*
X60485294Y-59880000D01*
G75*
G02*
X60250000Y-59644706I0J235294D01*
G01*
G37*
%TD.AperFunction*%
%TO.P,U1,10,GP7*%
%TO.N,/D7*%
%TA.AperFunction,SMDPad,CuDef*%
G36*
G01*
X60250000Y-62184706D02*
X60250000Y-61055294D01*
G75*
G02*
X60485294Y-60820000I235294J0D01*
G01*
X63214706Y-60820000D01*
G75*
G02*
X63450000Y-61055294I0J-235294D01*
G01*
X63450000Y-62184706D01*
G75*
G02*
X63214706Y-62420000I-235294J0D01*
G01*
X60485294Y-62420000D01*
G75*
G02*
X60250000Y-62184706I0J235294D01*
G01*
G37*
%TD.AperFunction*%
%TO.P,U1,11,GP8*%
%TO.N,/D8*%
%TA.AperFunction,SMDPad,CuDef*%
G36*
G01*
X60250000Y-64724706D02*
X60250000Y-63595294D01*
G75*
G02*
X60485294Y-63360000I235294J0D01*
G01*
X63214706Y-63360000D01*
G75*
G02*
X63450000Y-63595294I0J-235294D01*
G01*
X63450000Y-64724706D01*
G75*
G02*
X63214706Y-64960000I-235294J0D01*
G01*
X60485294Y-64960000D01*
G75*
G02*
X60250000Y-64724706I0J235294D01*
G01*
G37*
%TD.AperFunction*%
%TO.P,U1,12,GP9*%
%TO.N,/D9*%
%TA.AperFunction,SMDPad,CuDef*%
G36*
G01*
X60250000Y-67264706D02*
X60250000Y-66135294D01*
G75*
G02*
X60485294Y-65900000I235294J0D01*
G01*
X63214706Y-65900000D01*
G75*
G02*
X63450000Y-66135294I0J-235294D01*
G01*
X63450000Y-67264706D01*
G75*
G02*
X63214706Y-67500000I-235294J0D01*
G01*
X60485294Y-67500000D01*
G75*
G02*
X60250000Y-67264706I0J235294D01*
G01*
G37*
%TD.AperFunction*%
%TO.P,U1,13,GND*%
%TO.N,GND*%
%TA.AperFunction,SMDPad,CuDef*%
G36*
G01*
X60250000Y-69804706D02*
X60250000Y-68675294D01*
G75*
G02*
X60485294Y-68440000I235294J0D01*
G01*
X63214706Y-68440000D01*
G75*
G02*
X63450000Y-68675294I0J-235294D01*
G01*
X63450000Y-69804706D01*
G75*
G02*
X63214706Y-70040000I-235294J0D01*
G01*
X60485294Y-70040000D01*
G75*
G02*
X60250000Y-69804706I0J235294D01*
G01*
G37*
%TD.AperFunction*%
%TO.P,U1,14,GP10*%
%TO.N,/D10*%
%TA.AperFunction,SMDPad,CuDef*%
G36*
G01*
X60250000Y-72344706D02*
X60250000Y-71215294D01*
G75*
G02*
X60485294Y-70980000I235294J0D01*
G01*
X63214706Y-70980000D01*
G75*
G02*
X63450000Y-71215294I0J-235294D01*
G01*
X63450000Y-72344706D01*
G75*
G02*
X63214706Y-72580000I-235294J0D01*
G01*
X60485294Y-72580000D01*
G75*
G02*
X60250000Y-72344706I0J235294D01*
G01*
G37*
%TD.AperFunction*%
%TO.P,U1,15,GP11*%
%TO.N,/D11*%
%TA.AperFunction,SMDPad,CuDef*%
G36*
G01*
X60250000Y-74884706D02*
X60250000Y-73755294D01*
G75*
G02*
X60485294Y-73520000I235294J0D01*
G01*
X63214706Y-73520000D01*
G75*
G02*
X63450000Y-73755294I0J-235294D01*
G01*
X63450000Y-74884706D01*
G75*
G02*
X63214706Y-75120000I-235294J0D01*
G01*
X60485294Y-75120000D01*
G75*
G02*
X60250000Y-74884706I0J235294D01*
G01*
G37*
%TD.AperFunction*%
%TO.P,U1,16,GP12*%
%TO.N,/D12*%
%TA.AperFunction,SMDPad,CuDef*%
G36*
G01*
X60250000Y-77424706D02*
X60250000Y-76295294D01*
G75*
G02*
X60485294Y-76060000I235294J0D01*
G01*
X63214706Y-76060000D01*
G75*
G02*
X63450000Y-76295294I0J-235294D01*
G01*
X63450000Y-77424706D01*
G75*
G02*
X63214706Y-77660000I-235294J0D01*
G01*
X60485294Y-77660000D01*
G75*
G02*
X60250000Y-77424706I0J235294D01*
G01*
G37*
%TD.AperFunction*%
%TO.P,U1,17,GP13*%
%TO.N,/D13*%
%TA.AperFunction,SMDPad,CuDef*%
G36*
G01*
X60250000Y-79964706D02*
X60250000Y-78835294D01*
G75*
G02*
X60485294Y-78600000I235294J0D01*
G01*
X63214706Y-78600000D01*
G75*
G02*
X63450000Y-78835294I0J-235294D01*
G01*
X63450000Y-79964706D01*
G75*
G02*
X63214706Y-80200000I-235294J0D01*
G01*
X60485294Y-80200000D01*
G75*
G02*
X60250000Y-79964706I0J235294D01*
G01*
G37*
%TD.AperFunction*%
%TO.P,U1,18,GND*%
%TO.N,GND*%
%TA.AperFunction,SMDPad,CuDef*%
G36*
G01*
X60250000Y-82504706D02*
X60250000Y-81375294D01*
G75*
G02*
X60485294Y-81140000I235294J0D01*
G01*
X63214706Y-81140000D01*
G75*
G02*
X63450000Y-81375294I0J-235294D01*
G01*
X63450000Y-82504706D01*
G75*
G02*
X63214706Y-82740000I-235294J0D01*
G01*
X60485294Y-82740000D01*
G75*
G02*
X60250000Y-82504706I0J235294D01*
G01*
G37*
%TD.AperFunction*%
%TO.P,U1,19,GP14*%
%TO.N,/D14*%
%TA.AperFunction,SMDPad,CuDef*%
G36*
G01*
X60250000Y-85044706D02*
X60250000Y-83915294D01*
G75*
G02*
X60485294Y-83680000I235294J0D01*
G01*
X63214706Y-83680000D01*
G75*
G02*
X63450000Y-83915294I0J-235294D01*
G01*
X63450000Y-85044706D01*
G75*
G02*
X63214706Y-85280000I-235294J0D01*
G01*
X60485294Y-85280000D01*
G75*
G02*
X60250000Y-85044706I0J235294D01*
G01*
G37*
%TD.AperFunction*%
%TO.P,U1,20,GP15*%
%TO.N,/D15*%
%TA.AperFunction,SMDPad,CuDef*%
G36*
G01*
X60250000Y-87584706D02*
X60250000Y-86455294D01*
G75*
G02*
X60485294Y-86220000I235294J0D01*
G01*
X63214706Y-86220000D01*
G75*
G02*
X63450000Y-86455294I0J-235294D01*
G01*
X63450000Y-87584706D01*
G75*
G02*
X63214706Y-87820000I-235294J0D01*
G01*
X60485294Y-87820000D01*
G75*
G02*
X60250000Y-87584706I0J235294D01*
G01*
G37*
%TD.AperFunction*%
%TO.P,U1,41,SWCLK*%
%TO.N,unconnected-(U1-SWCLK-Pad41)*%
%TA.AperFunction,SMDPad,CuDef*%
G36*
G01*
X69664706Y-89190000D02*
X68535294Y-89190000D01*
G75*
G02*
X68300000Y-88954706I0J235294D01*
G01*
X68300000Y-86225294D01*
G75*
G02*
X68535294Y-85990000I235294J0D01*
G01*
X69664706Y-85990000D01*
G75*
G02*
X69900000Y-86225294I0J-235294D01*
G01*
X69900000Y-88954706D01*
G75*
G02*
X69664706Y-89190000I-235294J0D01*
G01*
G37*
%TD.AperFunction*%
%TO.P,U1,42,GND*%
%TO.N,unconnected-(U1-GND-Pad42)*%
%TA.AperFunction,SMDPad,CuDef*%
G36*
G01*
X72169412Y-89190000D02*
X71110588Y-89190000D01*
G75*
G02*
X70890000Y-88969412I0J220588D01*
G01*
X70890000Y-86210588D01*
G75*
G02*
X71110588Y-85990000I220588J0D01*
G01*
X72169412Y-85990000D01*
G75*
G02*
X72390000Y-86210588I0J-220588D01*
G01*
X72390000Y-88969412D01*
G75*
G02*
X72169412Y-89190000I-220588J0D01*
G01*
G37*
%TD.AperFunction*%
%TO.P,U1,43,SWDIO*%
%TO.N,unconnected-(U1-SWDIO-Pad43)*%
%TA.AperFunction,SMDPad,CuDef*%
G36*
G01*
X74709412Y-89190000D02*
X73650588Y-89190000D01*
G75*
G02*
X73430000Y-88969412I0J220588D01*
G01*
X73430000Y-86210588D01*
G75*
G02*
X73650588Y-85990000I220588J0D01*
G01*
X74709412Y-85990000D01*
G75*
G02*
X74930000Y-86210588I0J-220588D01*
G01*
X74930000Y-88969412D01*
G75*
G02*
X74709412Y-89190000I-220588J0D01*
G01*
G37*
%TD.AperFunction*%
%TD*%
D10*
%TO.P,U9,1,R*%
%TO.N,/D19*%
X93072000Y-70866000D03*
%TO.P,U9,2,RE_N*%
%TO.N,/SR*%
X94342000Y-70866000D03*
%TO.P,U9,3,DE*%
X95612000Y-70866000D03*
%TO.P,U9,4,D*%
%TO.N,/D19*%
X96882000Y-70866000D03*
%TO.P,U9,5,GND*%
%TO.N,GND*%
X96882000Y-65416001D03*
%TO.P,U9,6,A*%
%TO.N,/RJ45_Out_19+*%
X95612000Y-65416001D03*
%TO.P,U9,7,B*%
%TO.N,/RJ45_Out_19-*%
X94342000Y-65416001D03*
%TO.P,U9,8,VCC*%
%TO.N,+3V3*%
X93072000Y-65416001D03*
%TD*%
%TO.P,U3,1,EN1\u002C2*%
%TO.N,+3V3*%
%TA.AperFunction,SMDPad,CuDef*%
G36*
G01*
X51150000Y-61295000D02*
X51150000Y-61595000D01*
G75*
G02*
X51000000Y-61745000I-150000J0D01*
G01*
X49350000Y-61745000D01*
G75*
G02*
X49200000Y-61595000I0J150000D01*
G01*
X49200000Y-61295000D01*
G75*
G02*
X49350000Y-61145000I150000J0D01*
G01*
X51000000Y-61145000D01*
G75*
G02*
X51150000Y-61295000I0J-150000D01*
G01*
G37*
%TD.AperFunction*%
%TO.P,U3,2,DIN1*%
%TO.N,/D7*%
%TA.AperFunction,SMDPad,CuDef*%
G36*
G01*
X51150000Y-60025000D02*
X51150000Y-60325000D01*
G75*
G02*
X51000000Y-60475000I-150000J0D01*
G01*
X49350000Y-60475000D01*
G75*
G02*
X49200000Y-60325000I0J150000D01*
G01*
X49200000Y-60025000D01*
G75*
G02*
X49350000Y-59875000I150000J0D01*
G01*
X51000000Y-59875000D01*
G75*
G02*
X51150000Y-60025000I0J-150000D01*
G01*
G37*
%TD.AperFunction*%
%TO.P,U3,3,DIN2*%
%TO.N,/D6*%
%TA.AperFunction,SMDPad,CuDef*%
G36*
G01*
X51150000Y-58755000D02*
X51150000Y-59055000D01*
G75*
G02*
X51000000Y-59205000I-150000J0D01*
G01*
X49350000Y-59205000D01*
G75*
G02*
X49200000Y-59055000I0J150000D01*
G01*
X49200000Y-58755000D01*
G75*
G02*
X49350000Y-58605000I150000J0D01*
G01*
X51000000Y-58605000D01*
G75*
G02*
X51150000Y-58755000I0J-150000D01*
G01*
G37*
%TD.AperFunction*%
%TO.P,U3,4,VCC*%
%TO.N,+3V3*%
%TA.AperFunction,SMDPad,CuDef*%
G36*
G01*
X51150000Y-57485000D02*
X51150000Y-57785000D01*
G75*
G02*
X51000000Y-57935000I-150000J0D01*
G01*
X49350000Y-57935000D01*
G75*
G02*
X49200000Y-57785000I0J150000D01*
G01*
X49200000Y-57485000D01*
G75*
G02*
X49350000Y-57335000I150000J0D01*
G01*
X51000000Y-57335000D01*
G75*
G02*
X51150000Y-57485000I0J-150000D01*
G01*
G37*
%TD.AperFunction*%
%TO.P,U3,5,GND*%
%TO.N,GND*%
%TA.AperFunction,SMDPad,CuDef*%
G36*
G01*
X51150000Y-56215000D02*
X51150000Y-56515000D01*
G75*
G02*
X51000000Y-56665000I-150000J0D01*
G01*
X49350000Y-56665000D01*
G75*
G02*
X49200000Y-56515000I0J150000D01*
G01*
X49200000Y-56215000D01*
G75*
G02*
X49350000Y-56065000I150000J0D01*
G01*
X51000000Y-56065000D01*
G75*
G02*
X51150000Y-56215000I0J-150000D01*
G01*
G37*
%TD.AperFunction*%
%TO.P,U3,6,DIN3*%
%TO.N,/D5*%
%TA.AperFunction,SMDPad,CuDef*%
G36*
G01*
X51150000Y-54945000D02*
X51150000Y-55245000D01*
G75*
G02*
X51000000Y-55395000I-150000J0D01*
G01*
X49350000Y-55395000D01*
G75*
G02*
X49200000Y-55245000I0J150000D01*
G01*
X49200000Y-54945000D01*
G75*
G02*
X49350000Y-54795000I150000J0D01*
G01*
X51000000Y-54795000D01*
G75*
G02*
X51150000Y-54945000I0J-150000D01*
G01*
G37*
%TD.AperFunction*%
%TO.P,U3,7,DIN4*%
%TO.N,/D4*%
%TA.AperFunction,SMDPad,CuDef*%
G36*
G01*
X51150000Y-53675000D02*
X51150000Y-53975000D01*
G75*
G02*
X51000000Y-54125000I-150000J0D01*
G01*
X49350000Y-54125000D01*
G75*
G02*
X49200000Y-53975000I0J150000D01*
G01*
X49200000Y-53675000D01*
G75*
G02*
X49350000Y-53525000I150000J0D01*
G01*
X51000000Y-53525000D01*
G75*
G02*
X51150000Y-53675000I0J-150000D01*
G01*
G37*
%TD.AperFunction*%
%TO.P,U3,8,EN3\u002C4*%
%TO.N,+3V3*%
%TA.AperFunction,SMDPad,CuDef*%
G36*
G01*
X51150000Y-52405000D02*
X51150000Y-52705000D01*
G75*
G02*
X51000000Y-52855000I-150000J0D01*
G01*
X49350000Y-52855000D01*
G75*
G02*
X49200000Y-52705000I0J150000D01*
G01*
X49200000Y-52405000D01*
G75*
G02*
X49350000Y-52255000I150000J0D01*
G01*
X51000000Y-52255000D01*
G75*
G02*
X51150000Y-52405000I0J-150000D01*
G01*
G37*
%TD.AperFunction*%
%TO.P,U3,9,DOUT4-*%
%TO.N,/Out_4-*%
%TA.AperFunction,SMDPad,CuDef*%
G36*
G01*
X46200000Y-52405000D02*
X46200000Y-52705000D01*
G75*
G02*
X46050000Y-52855000I-150000J0D01*
G01*
X44400000Y-52855000D01*
G75*
G02*
X44250000Y-52705000I0J150000D01*
G01*
X44250000Y-52405000D01*
G75*
G02*
X44400000Y-52255000I150000J0D01*
G01*
X46050000Y-52255000D01*
G75*
G02*
X46200000Y-52405000I0J-150000D01*
G01*
G37*
%TD.AperFunction*%
%TO.P,U3,10,DOUT4+*%
%TO.N,/Out_4+*%
%TA.AperFunction,SMDPad,CuDef*%
G36*
G01*
X46200000Y-53675000D02*
X46200000Y-53975000D01*
G75*
G02*
X46050000Y-54125000I-150000J0D01*
G01*
X44400000Y-54125000D01*
G75*
G02*
X44250000Y-53975000I0J150000D01*
G01*
X44250000Y-53675000D01*
G75*
G02*
X44400000Y-53525000I150000J0D01*
G01*
X46050000Y-53525000D01*
G75*
G02*
X46200000Y-53675000I0J-150000D01*
G01*
G37*
%TD.AperFunction*%
%TO.P,U3,11,DOUT3-*%
%TO.N,/Out_5-*%
%TA.AperFunction,SMDPad,CuDef*%
G36*
G01*
X46200000Y-54945000D02*
X46200000Y-55245000D01*
G75*
G02*
X46050000Y-55395000I-150000J0D01*
G01*
X44400000Y-55395000D01*
G75*
G02*
X44250000Y-55245000I0J150000D01*
G01*
X44250000Y-54945000D01*
G75*
G02*
X44400000Y-54795000I150000J0D01*
G01*
X46050000Y-54795000D01*
G75*
G02*
X46200000Y-54945000I0J-150000D01*
G01*
G37*
%TD.AperFunction*%
%TO.P,U3,12,DOUT3+*%
%TO.N,/Out_5+*%
%TA.AperFunction,SMDPad,CuDef*%
G36*
G01*
X46200000Y-56215000D02*
X46200000Y-56515000D01*
G75*
G02*
X46050000Y-56665000I-150000J0D01*
G01*
X44400000Y-56665000D01*
G75*
G02*
X44250000Y-56515000I0J150000D01*
G01*
X44250000Y-56215000D01*
G75*
G02*
X44400000Y-56065000I150000J0D01*
G01*
X46050000Y-56065000D01*
G75*
G02*
X46200000Y-56215000I0J-150000D01*
G01*
G37*
%TD.AperFunction*%
%TO.P,U3,13,DOUT2-*%
%TO.N,/Out_6-*%
%TA.AperFunction,SMDPad,CuDef*%
G36*
G01*
X46200000Y-57485000D02*
X46200000Y-57785000D01*
G75*
G02*
X46050000Y-57935000I-150000J0D01*
G01*
X44400000Y-57935000D01*
G75*
G02*
X44250000Y-57785000I0J150000D01*
G01*
X44250000Y-57485000D01*
G75*
G02*
X44400000Y-57335000I150000J0D01*
G01*
X46050000Y-57335000D01*
G75*
G02*
X46200000Y-57485000I0J-150000D01*
G01*
G37*
%TD.AperFunction*%
%TO.P,U3,14,DOUT2+*%
%TO.N,/Out_6+*%
%TA.AperFunction,SMDPad,CuDef*%
G36*
G01*
X46200000Y-58755000D02*
X46200000Y-59055000D01*
G75*
G02*
X46050000Y-59205000I-150000J0D01*
G01*
X44400000Y-59205000D01*
G75*
G02*
X44250000Y-59055000I0J150000D01*
G01*
X44250000Y-58755000D01*
G75*
G02*
X44400000Y-58605000I150000J0D01*
G01*
X46050000Y-58605000D01*
G75*
G02*
X46200000Y-58755000I0J-150000D01*
G01*
G37*
%TD.AperFunction*%
%TO.P,U3,15,DOUT1-*%
%TO.N,/Out_7-*%
%TA.AperFunction,SMDPad,CuDef*%
G36*
G01*
X46200000Y-60025000D02*
X46200000Y-60325000D01*
G75*
G02*
X46050000Y-60475000I-150000J0D01*
G01*
X44400000Y-60475000D01*
G75*
G02*
X44250000Y-60325000I0J150000D01*
G01*
X44250000Y-60025000D01*
G75*
G02*
X44400000Y-59875000I150000J0D01*
G01*
X46050000Y-59875000D01*
G75*
G02*
X46200000Y-60025000I0J-150000D01*
G01*
G37*
%TD.AperFunction*%
%TO.P,U3,16,DOUT1+*%
%TO.N,/Out_7+*%
%TA.AperFunction,SMDPad,CuDef*%
G36*
G01*
X46200000Y-61295000D02*
X46200000Y-61595000D01*
G75*
G02*
X46050000Y-61745000I-150000J0D01*
G01*
X44400000Y-61745000D01*
G75*
G02*
X44250000Y-61595000I0J150000D01*
G01*
X44250000Y-61295000D01*
G75*
G02*
X44400000Y-61145000I150000J0D01*
G01*
X46050000Y-61145000D01*
G75*
G02*
X46200000Y-61295000I0J-150000D01*
G01*
G37*
%TD.AperFunction*%
%TD*%
%TO.P,C1,1*%
%TO.N,+3V3*%
%TA.AperFunction,SMDPad,CuDef*%
G36*
G01*
X52255000Y-46235000D02*
X51945000Y-46235000D01*
G75*
G02*
X51790000Y-46080000I0J155000D01*
G01*
X51790000Y-45655000D01*
G75*
G02*
X51945000Y-45500000I155000J0D01*
G01*
X52255000Y-45500000D01*
G75*
G02*
X52410000Y-45655000I0J-155000D01*
G01*
X52410000Y-46080000D01*
G75*
G02*
X52255000Y-46235000I-155000J0D01*
G01*
G37*
%TD.AperFunction*%
%TO.P,C1,2*%
%TO.N,GND*%
%TA.AperFunction,SMDPad,CuDef*%
G36*
G01*
X52255000Y-45100000D02*
X51945000Y-45100000D01*
G75*
G02*
X51790000Y-44945000I0J155000D01*
G01*
X51790000Y-44520000D01*
G75*
G02*
X51945000Y-44365000I155000J0D01*
G01*
X52255000Y-44365000D01*
G75*
G02*
X52410000Y-44520000I0J-155000D01*
G01*
X52410000Y-44945000D01*
G75*
G02*
X52255000Y-45100000I-155000J0D01*
G01*
G37*
%TD.AperFunction*%
%TD*%
%TO.P,C7,1*%
%TO.N,+3V3*%
%TA.AperFunction,SMDPad,CuDef*%
G36*
G01*
X99219500Y-63667999D02*
X99219500Y-63977999D01*
G75*
G02*
X99064500Y-64132999I-155000J0D01*
G01*
X98639500Y-64132999D01*
G75*
G02*
X98484500Y-63977999I0J155000D01*
G01*
X98484500Y-63667999D01*
G75*
G02*
X98639500Y-63512999I155000J0D01*
G01*
X99064500Y-63512999D01*
G75*
G02*
X99219500Y-63667999I0J-155000D01*
G01*
G37*
%TD.AperFunction*%
%TO.P,C7,2*%
%TO.N,GND*%
%TA.AperFunction,SMDPad,CuDef*%
G36*
G01*
X98084500Y-63667999D02*
X98084500Y-63977999D01*
G75*
G02*
X97929500Y-64132999I-155000J0D01*
G01*
X97504500Y-64132999D01*
G75*
G02*
X97349500Y-63977999I0J155000D01*
G01*
X97349500Y-63667999D01*
G75*
G02*
X97504500Y-63512999I155000J0D01*
G01*
X97929500Y-63512999D01*
G75*
G02*
X98084500Y-63667999I0J-155000D01*
G01*
G37*
%TD.AperFunction*%
%TD*%
%TO.P,U2,1,EN1\u002C2*%
%TO.N,+3V3*%
%TA.AperFunction,SMDPad,CuDef*%
G36*
G01*
X51150000Y-49595000D02*
X51150000Y-49895000D01*
G75*
G02*
X51000000Y-50045000I-150000J0D01*
G01*
X49350000Y-50045000D01*
G75*
G02*
X49200000Y-49895000I0J150000D01*
G01*
X49200000Y-49595000D01*
G75*
G02*
X49350000Y-49445000I150000J0D01*
G01*
X51000000Y-49445000D01*
G75*
G02*
X51150000Y-49595000I0J-150000D01*
G01*
G37*
%TD.AperFunction*%
%TO.P,U2,2,DIN1*%
%TO.N,/D3*%
%TA.AperFunction,SMDPad,CuDef*%
G36*
G01*
X51150000Y-48325000D02*
X51150000Y-48625000D01*
G75*
G02*
X51000000Y-48775000I-150000J0D01*
G01*
X49350000Y-48775000D01*
G75*
G02*
X49200000Y-48625000I0J150000D01*
G01*
X49200000Y-48325000D01*
G75*
G02*
X49350000Y-48175000I150000J0D01*
G01*
X51000000Y-48175000D01*
G75*
G02*
X51150000Y-48325000I0J-150000D01*
G01*
G37*
%TD.AperFunction*%
%TO.P,U2,3,DIN2*%
%TO.N,/D2*%
%TA.AperFunction,SMDPad,CuDef*%
G36*
G01*
X51150000Y-47055000D02*
X51150000Y-47355000D01*
G75*
G02*
X51000000Y-47505000I-150000J0D01*
G01*
X49350000Y-47505000D01*
G75*
G02*
X49200000Y-47355000I0J150000D01*
G01*
X49200000Y-47055000D01*
G75*
G02*
X49350000Y-46905000I150000J0D01*
G01*
X51000000Y-46905000D01*
G75*
G02*
X51150000Y-47055000I0J-150000D01*
G01*
G37*
%TD.AperFunction*%
%TO.P,U2,4,VCC*%
%TO.N,+3V3*%
%TA.AperFunction,SMDPad,CuDef*%
G36*
G01*
X51150000Y-45785000D02*
X51150000Y-46085000D01*
G75*
G02*
X51000000Y-46235000I-150000J0D01*
G01*
X49350000Y-46235000D01*
G75*
G02*
X49200000Y-46085000I0J150000D01*
G01*
X49200000Y-45785000D01*
G75*
G02*
X49350000Y-45635000I150000J0D01*
G01*
X51000000Y-45635000D01*
G75*
G02*
X51150000Y-45785000I0J-150000D01*
G01*
G37*
%TD.AperFunction*%
%TO.P,U2,5,GND*%
%TO.N,GND*%
%TA.AperFunction,SMDPad,CuDef*%
G36*
G01*
X51150000Y-44515000D02*
X51150000Y-44815000D01*
G75*
G02*
X51000000Y-44965000I-150000J0D01*
G01*
X49350000Y-44965000D01*
G75*
G02*
X49200000Y-44815000I0J150000D01*
G01*
X49200000Y-44515000D01*
G75*
G02*
X49350000Y-44365000I150000J0D01*
G01*
X51000000Y-44365000D01*
G75*
G02*
X51150000Y-44515000I0J-150000D01*
G01*
G37*
%TD.AperFunction*%
%TO.P,U2,6,DIN3*%
%TO.N,/D1*%
%TA.AperFunction,SMDPad,CuDef*%
G36*
G01*
X51150000Y-43245000D02*
X51150000Y-43545000D01*
G75*
G02*
X51000000Y-43695000I-150000J0D01*
G01*
X49350000Y-43695000D01*
G75*
G02*
X49200000Y-43545000I0J150000D01*
G01*
X49200000Y-43245000D01*
G75*
G02*
X49350000Y-43095000I150000J0D01*
G01*
X51000000Y-43095000D01*
G75*
G02*
X51150000Y-43245000I0J-150000D01*
G01*
G37*
%TD.AperFunction*%
%TO.P,U2,7,DIN4*%
%TO.N,/D0*%
%TA.AperFunction,SMDPad,CuDef*%
G36*
G01*
X51150000Y-41975000D02*
X51150000Y-42275000D01*
G75*
G02*
X51000000Y-42425000I-150000J0D01*
G01*
X49350000Y-42425000D01*
G75*
G02*
X49200000Y-42275000I0J150000D01*
G01*
X49200000Y-41975000D01*
G75*
G02*
X49350000Y-41825000I150000J0D01*
G01*
X51000000Y-41825000D01*
G75*
G02*
X51150000Y-41975000I0J-150000D01*
G01*
G37*
%TD.AperFunction*%
%TO.P,U2,8,EN3\u002C4*%
%TO.N,+3V3*%
%TA.AperFunction,SMDPad,CuDef*%
G36*
G01*
X51150000Y-40705000D02*
X51150000Y-41005000D01*
G75*
G02*
X51000000Y-41155000I-150000J0D01*
G01*
X49350000Y-41155000D01*
G75*
G02*
X49200000Y-41005000I0J150000D01*
G01*
X49200000Y-40705000D01*
G75*
G02*
X49350000Y-40555000I150000J0D01*
G01*
X51000000Y-40555000D01*
G75*
G02*
X51150000Y-40705000I0J-150000D01*
G01*
G37*
%TD.AperFunction*%
%TO.P,U2,9,DOUT4-*%
%TO.N,/Out_0-*%
%TA.AperFunction,SMDPad,CuDef*%
G36*
G01*
X46200000Y-40705000D02*
X46200000Y-41005000D01*
G75*
G02*
X46050000Y-41155000I-150000J0D01*
G01*
X44400000Y-41155000D01*
G75*
G02*
X44250000Y-41005000I0J150000D01*
G01*
X44250000Y-40705000D01*
G75*
G02*
X44400000Y-40555000I150000J0D01*
G01*
X46050000Y-40555000D01*
G75*
G02*
X46200000Y-40705000I0J-150000D01*
G01*
G37*
%TD.AperFunction*%
%TO.P,U2,10,DOUT4+*%
%TO.N,/Out_0+*%
%TA.AperFunction,SMDPad,CuDef*%
G36*
G01*
X46200000Y-41975000D02*
X46200000Y-42275000D01*
G75*
G02*
X46050000Y-42425000I-150000J0D01*
G01*
X44400000Y-42425000D01*
G75*
G02*
X44250000Y-42275000I0J150000D01*
G01*
X44250000Y-41975000D01*
G75*
G02*
X44400000Y-41825000I150000J0D01*
G01*
X46050000Y-41825000D01*
G75*
G02*
X46200000Y-41975000I0J-150000D01*
G01*
G37*
%TD.AperFunction*%
%TO.P,U2,11,DOUT3-*%
%TO.N,/Out_1-*%
%TA.AperFunction,SMDPad,CuDef*%
G36*
G01*
X46200000Y-43245000D02*
X46200000Y-43545000D01*
G75*
G02*
X46050000Y-43695000I-150000J0D01*
G01*
X44400000Y-43695000D01*
G75*
G02*
X44250000Y-43545000I0J150000D01*
G01*
X44250000Y-43245000D01*
G75*
G02*
X44400000Y-43095000I150000J0D01*
G01*
X46050000Y-43095000D01*
G75*
G02*
X46200000Y-43245000I0J-150000D01*
G01*
G37*
%TD.AperFunction*%
%TO.P,U2,12,DOUT3+*%
%TO.N,/Out_1+*%
%TA.AperFunction,SMDPad,CuDef*%
G36*
G01*
X46200000Y-44515000D02*
X46200000Y-44815000D01*
G75*
G02*
X46050000Y-44965000I-150000J0D01*
G01*
X44400000Y-44965000D01*
G75*
G02*
X44250000Y-44815000I0J150000D01*
G01*
X44250000Y-44515000D01*
G75*
G02*
X44400000Y-44365000I150000J0D01*
G01*
X46050000Y-44365000D01*
G75*
G02*
X46200000Y-44515000I0J-150000D01*
G01*
G37*
%TD.AperFunction*%
%TO.P,U2,13,DOUT2-*%
%TO.N,/Out_2-*%
%TA.AperFunction,SMDPad,CuDef*%
G36*
G01*
X46200000Y-45785000D02*
X46200000Y-46085000D01*
G75*
G02*
X46050000Y-46235000I-150000J0D01*
G01*
X44400000Y-46235000D01*
G75*
G02*
X44250000Y-46085000I0J150000D01*
G01*
X44250000Y-45785000D01*
G75*
G02*
X44400000Y-45635000I150000J0D01*
G01*
X46050000Y-45635000D01*
G75*
G02*
X46200000Y-45785000I0J-150000D01*
G01*
G37*
%TD.AperFunction*%
%TO.P,U2,14,DOUT2+*%
%TO.N,/Out_2+*%
%TA.AperFunction,SMDPad,CuDef*%
G36*
G01*
X46200000Y-47055000D02*
X46200000Y-47355000D01*
G75*
G02*
X46050000Y-47505000I-150000J0D01*
G01*
X44400000Y-47505000D01*
G75*
G02*
X44250000Y-47355000I0J150000D01*
G01*
X44250000Y-47055000D01*
G75*
G02*
X44400000Y-46905000I150000J0D01*
G01*
X46050000Y-46905000D01*
G75*
G02*
X46200000Y-47055000I0J-150000D01*
G01*
G37*
%TD.AperFunction*%
%TO.P,U2,15,DOUT1-*%
%TO.N,/Out_3-*%
%TA.AperFunction,SMDPad,CuDef*%
G36*
G01*
X46200000Y-48325000D02*
X46200000Y-48625000D01*
G75*
G02*
X46050000Y-48775000I-150000J0D01*
G01*
X44400000Y-48775000D01*
G75*
G02*
X44250000Y-48625000I0J150000D01*
G01*
X44250000Y-48325000D01*
G75*
G02*
X44400000Y-48175000I150000J0D01*
G01*
X46050000Y-48175000D01*
G75*
G02*
X46200000Y-48325000I0J-150000D01*
G01*
G37*
%TD.AperFunction*%
%TO.P,U2,16,DOUT1+*%
%TO.N,/Out_3+*%
%TA.AperFunction,SMDPad,CuDef*%
G36*
G01*
X46200000Y-49595000D02*
X46200000Y-49895000D01*
G75*
G02*
X46050000Y-50045000I-150000J0D01*
G01*
X44400000Y-50045000D01*
G75*
G02*
X44250000Y-49895000I0J150000D01*
G01*
X44250000Y-49595000D01*
G75*
G02*
X44400000Y-49445000I150000J0D01*
G01*
X46050000Y-49445000D01*
G75*
G02*
X46200000Y-49595000I0J-150000D01*
G01*
G37*
%TD.AperFunction*%
%TD*%
%TO.P,U10,1,R*%
%TO.N,/D16*%
X112722000Y-70866000D03*
%TO.P,U10,2,RE_N*%
%TO.N,/SR*%
X113992000Y-70866000D03*
%TO.P,U10,3,DE*%
X115262000Y-70866000D03*
%TO.P,U10,4,D*%
%TO.N,/D16*%
X116532000Y-70866000D03*
%TO.P,U10,5,GND*%
%TO.N,GND*%
X116532000Y-65416001D03*
%TO.P,U10,6,A*%
%TO.N,/RJ45_Out_16+*%
X115262000Y-65416001D03*
%TO.P,U10,7,B*%
%TO.N,/RJ45_Out_16-*%
X113992000Y-65416001D03*
%TO.P,U10,8,VCC*%
%TO.N,+3V3*%
X112722000Y-65416001D03*
%TD*%
%TO.P,C6,1*%
%TO.N,+3V3*%
%TA.AperFunction,SMDPad,CuDef*%
G36*
G01*
X106077500Y-63667999D02*
X106077500Y-63977999D01*
G75*
G02*
X105922500Y-64132999I-155000J0D01*
G01*
X105497500Y-64132999D01*
G75*
G02*
X105342500Y-63977999I0J155000D01*
G01*
X105342500Y-63667999D01*
G75*
G02*
X105497500Y-63512999I155000J0D01*
G01*
X105922500Y-63512999D01*
G75*
G02*
X106077500Y-63667999I0J-155000D01*
G01*
G37*
%TD.AperFunction*%
%TO.P,C6,2*%
%TO.N,GND*%
%TA.AperFunction,SMDPad,CuDef*%
G36*
G01*
X104942500Y-63667999D02*
X104942500Y-63977999D01*
G75*
G02*
X104787500Y-64132999I-155000J0D01*
G01*
X104362500Y-64132999D01*
G75*
G02*
X104207500Y-63977999I0J155000D01*
G01*
X104207500Y-63667999D01*
G75*
G02*
X104362500Y-63512999I155000J0D01*
G01*
X104787500Y-63512999D01*
G75*
G02*
X104942500Y-63667999I0J-155000D01*
G01*
G37*
%TD.AperFunction*%
%TD*%
%TO.P,U11,1,R*%
%TO.N,/D17*%
X106172000Y-70866000D03*
%TO.P,U11,2,RE_N*%
%TO.N,/SR*%
X107442000Y-70866000D03*
%TO.P,U11,3,DE*%
X108712000Y-70866000D03*
%TO.P,U11,4,D*%
%TO.N,/D17*%
X109982000Y-70866000D03*
%TO.P,U11,5,GND*%
%TO.N,GND*%
X109982000Y-65416001D03*
%TO.P,U11,6,A*%
%TO.N,/RJ45_Out_17+*%
X108712000Y-65416001D03*
%TO.P,U11,7,B*%
%TO.N,/RJ45_Out_17-*%
X107442000Y-65416001D03*
%TO.P,U11,8,VCC*%
%TO.N,+3V3*%
X106172000Y-65416001D03*
%TD*%
D11*
%TO.P,J1,1,Pin_1*%
%TO.N,/Out_0+*%
X33750000Y-43740000D03*
D12*
%TO.P,J1,2,Pin_2*%
%TO.N,/Out_0-*%
X36290000Y-43740000D03*
%TO.P,J1,3,Pin_3*%
%TO.N,/Out_1+*%
X33750000Y-46280000D03*
%TO.P,J1,4,Pin_4*%
%TO.N,/Out_1-*%
X36290000Y-46280000D03*
%TO.P,J1,5,Pin_5*%
%TO.N,/Out_2+*%
X33750000Y-48820000D03*
%TO.P,J1,6,Pin_6*%
%TO.N,/Out_2-*%
X36290000Y-48820000D03*
%TO.P,J1,7,Pin_7*%
%TO.N,/Out_3+*%
X33750000Y-51360000D03*
%TO.P,J1,8,Pin_8*%
%TO.N,/Out_3-*%
X36290000Y-51360000D03*
%TO.P,J1,9,Pin_9*%
%TO.N,/Out_4+*%
X33750000Y-53900000D03*
%TO.P,J1,10,Pin_10*%
%TO.N,/Out_4-*%
X36290000Y-53900000D03*
%TO.P,J1,11,Pin_11*%
%TO.N,/Out_5+*%
X33750000Y-56440000D03*
%TO.P,J1,12,Pin_12*%
%TO.N,/Out_5-*%
X36290000Y-56440000D03*
%TO.P,J1,13,Pin_13*%
%TO.N,/Out_6+*%
X33750000Y-58980000D03*
%TO.P,J1,14,Pin_14*%
%TO.N,/Out_6-*%
X36290000Y-58980000D03*
%TO.P,J1,15,Pin_15*%
%TO.N,/Out_7+*%
X33750000Y-61520000D03*
%TO.P,J1,16,Pin_16*%
%TO.N,/Out_7-*%
X36290000Y-61520000D03*
%TO.P,J1,17,Pin_17*%
%TO.N,/Out_8+*%
X33750000Y-64060000D03*
%TO.P,J1,18,Pin_18*%
%TO.N,/Out_8-*%
X36290000Y-64060000D03*
%TO.P,J1,19,Pin_19*%
%TO.N,/Out_9+*%
X33750000Y-66600000D03*
%TO.P,J1,20,Pin_20*%
%TO.N,/Out_9-*%
X36290000Y-66600000D03*
%TO.P,J1,21,Pin_21*%
%TO.N,/Out_10+*%
X33750000Y-69140000D03*
%TO.P,J1,22,Pin_22*%
%TO.N,/Out_10-*%
X36290000Y-69140000D03*
%TO.P,J1,23,Pin_23*%
%TO.N,/Out_11+*%
X33750000Y-71680000D03*
%TO.P,J1,24,Pin_24*%
%TO.N,/Out_11-*%
X36290000Y-71680000D03*
%TO.P,J1,25,Pin_25*%
%TO.N,/Out_12+*%
X33750000Y-74220000D03*
%TO.P,J1,26,Pin_26*%
%TO.N,/Out_12-*%
X36290000Y-74220000D03*
%TO.P,J1,27,Pin_27*%
%TO.N,/Out_13+*%
X33750000Y-76760000D03*
%TO.P,J1,28,Pin_28*%
%TO.N,/Out_13-*%
X36290000Y-76760000D03*
%TO.P,J1,29,Pin_29*%
%TO.N,/Out_14+*%
X33750000Y-79300000D03*
%TO.P,J1,30,Pin_30*%
%TO.N,/Out_14-*%
X36290000Y-79300000D03*
%TO.P,J1,31,Pin_31*%
%TO.N,/Out_15+*%
X33750000Y-81840000D03*
%TO.P,J1,32,Pin_32*%
%TO.N,/Out_15-*%
X36290000Y-81840000D03*
%TO.P,J1,33,Pin_33*%
%TO.N,unconnected-(J1-Pin_33-Pad33)*%
X33750000Y-84380000D03*
%TO.P,J1,34,Pin_34*%
%TO.N,unconnected-(J1-Pin_34-Pad34)*%
X36290000Y-84380000D03*
%TD*%
%TO.P,C8,1*%
%TO.N,+3V3*%
%TA.AperFunction,SMDPad,CuDef*%
G36*
G01*
X92869500Y-63667999D02*
X92869500Y-63977999D01*
G75*
G02*
X92714500Y-64132999I-155000J0D01*
G01*
X92289500Y-64132999D01*
G75*
G02*
X92134500Y-63977999I0J155000D01*
G01*
X92134500Y-63667999D01*
G75*
G02*
X92289500Y-63512999I155000J0D01*
G01*
X92714500Y-63512999D01*
G75*
G02*
X92869500Y-63667999I0J-155000D01*
G01*
G37*
%TD.AperFunction*%
%TO.P,C8,2*%
%TO.N,GND*%
%TA.AperFunction,SMDPad,CuDef*%
G36*
G01*
X91734500Y-63667999D02*
X91734500Y-63977999D01*
G75*
G02*
X91579500Y-64132999I-155000J0D01*
G01*
X91154500Y-64132999D01*
G75*
G02*
X90999500Y-63977999I0J155000D01*
G01*
X90999500Y-63667999D01*
G75*
G02*
X91154500Y-63512999I155000J0D01*
G01*
X91579500Y-63512999D01*
G75*
G02*
X91734500Y-63667999I0J-155000D01*
G01*
G37*
%TD.AperFunction*%
%TD*%
%TO.P,C4,1*%
%TO.N,+3V3*%
%TA.AperFunction,SMDPad,CuDef*%
G36*
G01*
X52355000Y-81435000D02*
X52045000Y-81435000D01*
G75*
G02*
X51890000Y-81280000I0J155000D01*
G01*
X51890000Y-80855000D01*
G75*
G02*
X52045000Y-80700000I155000J0D01*
G01*
X52355000Y-80700000D01*
G75*
G02*
X52510000Y-80855000I0J-155000D01*
G01*
X52510000Y-81280000D01*
G75*
G02*
X52355000Y-81435000I-155000J0D01*
G01*
G37*
%TD.AperFunction*%
%TO.P,C4,2*%
%TO.N,GND*%
%TA.AperFunction,SMDPad,CuDef*%
G36*
G01*
X52355000Y-80300000D02*
X52045000Y-80300000D01*
G75*
G02*
X51890000Y-80145000I0J155000D01*
G01*
X51890000Y-79720000D01*
G75*
G02*
X52045000Y-79565000I155000J0D01*
G01*
X52355000Y-79565000D01*
G75*
G02*
X52510000Y-79720000I0J-155000D01*
G01*
X52510000Y-80145000D01*
G75*
G02*
X52355000Y-80300000I-155000J0D01*
G01*
G37*
%TD.AperFunction*%
%TD*%
%TO.P,C2,1*%
%TO.N,+3V3*%
%TA.AperFunction,SMDPad,CuDef*%
G36*
G01*
X52255000Y-57935000D02*
X51945000Y-57935000D01*
G75*
G02*
X51790000Y-57780000I0J155000D01*
G01*
X51790000Y-57355000D01*
G75*
G02*
X51945000Y-57200000I155000J0D01*
G01*
X52255000Y-57200000D01*
G75*
G02*
X52410000Y-57355000I0J-155000D01*
G01*
X52410000Y-57780000D01*
G75*
G02*
X52255000Y-57935000I-155000J0D01*
G01*
G37*
%TD.AperFunction*%
%TO.P,C2,2*%
%TO.N,GND*%
%TA.AperFunction,SMDPad,CuDef*%
G36*
G01*
X52255000Y-56800000D02*
X51945000Y-56800000D01*
G75*
G02*
X51790000Y-56645000I0J155000D01*
G01*
X51790000Y-56220000D01*
G75*
G02*
X51945000Y-56065000I155000J0D01*
G01*
X52255000Y-56065000D01*
G75*
G02*
X52410000Y-56220000I0J-155000D01*
G01*
X52410000Y-56645000D01*
G75*
G02*
X52255000Y-56800000I-155000J0D01*
G01*
G37*
%TD.AperFunction*%
%TD*%
%TO.P,C5,1*%
%TO.N,+3V3*%
%TA.AperFunction,SMDPad,CuDef*%
G36*
G01*
X112368000Y-63667999D02*
X112368000Y-63977999D01*
G75*
G02*
X112213000Y-64132999I-155000J0D01*
G01*
X111788000Y-64132999D01*
G75*
G02*
X111633000Y-63977999I0J155000D01*
G01*
X111633000Y-63667999D01*
G75*
G02*
X111788000Y-63512999I155000J0D01*
G01*
X112213000Y-63512999D01*
G75*
G02*
X112368000Y-63667999I0J-155000D01*
G01*
G37*
%TD.AperFunction*%
%TO.P,C5,2*%
%TO.N,GND*%
%TA.AperFunction,SMDPad,CuDef*%
G36*
G01*
X111233000Y-63667999D02*
X111233000Y-63977999D01*
G75*
G02*
X111078000Y-64132999I-155000J0D01*
G01*
X110653000Y-64132999D01*
G75*
G02*
X110498000Y-63977999I0J155000D01*
G01*
X110498000Y-63667999D01*
G75*
G02*
X110653000Y-63512999I155000J0D01*
G01*
X111078000Y-63512999D01*
G75*
G02*
X111233000Y-63667999I0J-155000D01*
G01*
G37*
%TD.AperFunction*%
%TD*%
D13*
%TO.P,J2,1_1,1_1*%
%TO.N,/RJ45_Out_19-*%
X108463000Y-44196000D03*
%TO.P,J2,1_2,1_2*%
%TO.N,/RJ45_Out_19+*%
X109479000Y-45976000D03*
%TO.P,J2,1_3,1_3*%
%TO.N,/RJ45_Out_17-*%
X110495000Y-44196000D03*
%TO.P,J2,1_4,1_4*%
%TO.N,/RJ45_Out_18+*%
X111511000Y-45976000D03*
%TO.P,J2,1_5,1_5*%
%TO.N,/RJ45_Out_18-*%
X112527000Y-44196000D03*
%TO.P,J2,1_6,1_6*%
%TO.N,/RJ45_Out_17+*%
X113543000Y-45976000D03*
%TO.P,J2,1_7,1_7*%
%TO.N,/RJ45_Out_16-*%
X114559000Y-44196000D03*
%TO.P,J2,1_8,1_8*%
%TO.N,/RJ45_Out_16+*%
X115575000Y-45976000D03*
%TO.P,J2,2_1,2_1*%
%TO.N,/RJ45_Out_19-*%
X92713000Y-44196000D03*
%TO.P,J2,2_2,2_2*%
%TO.N,/RJ45_Out_19+*%
X93729000Y-45976000D03*
%TO.P,J2,2_3,2_3*%
%TO.N,/RJ45_Out_17-*%
X94745000Y-44196000D03*
%TO.P,J2,2_4,2_4*%
%TO.N,/RJ45_Out_18+*%
X95761000Y-45976000D03*
%TO.P,J2,2_5,2_5*%
%TO.N,/RJ45_Out_18-*%
X96777000Y-44196000D03*
%TO.P,J2,2_6,2_6*%
%TO.N,/RJ45_Out_17+*%
X97793000Y-45976000D03*
%TO.P,J2,2_7,2_7*%
%TO.N,/RJ45_Out_16-*%
X98809000Y-44196000D03*
%TO.P,J2,2_8,2_8*%
%TO.N,/RJ45_Out_16+*%
X99825000Y-45976000D03*
%TD*%
D10*
%TO.P,U8,1,R*%
%TO.N,/D18*%
X99622000Y-70866000D03*
%TO.P,U8,2,RE_N*%
%TO.N,/SR*%
X100892000Y-70866000D03*
%TO.P,U8,3,DE*%
X102162000Y-70866000D03*
%TO.P,U8,4,D*%
%TO.N,/D18*%
X103432000Y-70866000D03*
%TO.P,U8,5,GND*%
%TO.N,GND*%
X103432000Y-65416001D03*
%TO.P,U8,6,A*%
%TO.N,/RJ45_Out_18+*%
X102162000Y-65416001D03*
%TO.P,U8,7,B*%
%TO.N,/RJ45_Out_18-*%
X100892000Y-65416001D03*
%TO.P,U8,8,VCC*%
%TO.N,+3V3*%
X99622000Y-65416001D03*
%TD*%
%TO.P,U5,1,EN1\u002C2*%
%TO.N,+3V3*%
%TA.AperFunction,SMDPad,CuDef*%
G36*
G01*
X51150000Y-84695000D02*
X51150000Y-84995000D01*
G75*
G02*
X51000000Y-85145000I-150000J0D01*
G01*
X49350000Y-85145000D01*
G75*
G02*
X49200000Y-84995000I0J150000D01*
G01*
X49200000Y-84695000D01*
G75*
G02*
X49350000Y-84545000I150000J0D01*
G01*
X51000000Y-84545000D01*
G75*
G02*
X51150000Y-84695000I0J-150000D01*
G01*
G37*
%TD.AperFunction*%
%TO.P,U5,2,DIN1*%
%TO.N,/D15*%
%TA.AperFunction,SMDPad,CuDef*%
G36*
G01*
X51150000Y-83425000D02*
X51150000Y-83725000D01*
G75*
G02*
X51000000Y-83875000I-150000J0D01*
G01*
X49350000Y-83875000D01*
G75*
G02*
X49200000Y-83725000I0J150000D01*
G01*
X49200000Y-83425000D01*
G75*
G02*
X49350000Y-83275000I150000J0D01*
G01*
X51000000Y-83275000D01*
G75*
G02*
X51150000Y-83425000I0J-150000D01*
G01*
G37*
%TD.AperFunction*%
%TO.P,U5,3,DIN2*%
%TO.N,/D14*%
%TA.AperFunction,SMDPad,CuDef*%
G36*
G01*
X51150000Y-82155000D02*
X51150000Y-82455000D01*
G75*
G02*
X51000000Y-82605000I-150000J0D01*
G01*
X49350000Y-82605000D01*
G75*
G02*
X49200000Y-82455000I0J150000D01*
G01*
X49200000Y-82155000D01*
G75*
G02*
X49350000Y-82005000I150000J0D01*
G01*
X51000000Y-82005000D01*
G75*
G02*
X51150000Y-82155000I0J-150000D01*
G01*
G37*
%TD.AperFunction*%
%TO.P,U5,4,VCC*%
%TO.N,+3V3*%
%TA.AperFunction,SMDPad,CuDef*%
G36*
G01*
X51150000Y-80885000D02*
X51150000Y-81185000D01*
G75*
G02*
X51000000Y-81335000I-150000J0D01*
G01*
X49350000Y-81335000D01*
G75*
G02*
X49200000Y-81185000I0J150000D01*
G01*
X49200000Y-80885000D01*
G75*
G02*
X49350000Y-80735000I150000J0D01*
G01*
X51000000Y-80735000D01*
G75*
G02*
X51150000Y-80885000I0J-150000D01*
G01*
G37*
%TD.AperFunction*%
%TO.P,U5,5,GND*%
%TO.N,GND*%
%TA.AperFunction,SMDPad,CuDef*%
G36*
G01*
X51150000Y-79615000D02*
X51150000Y-79915000D01*
G75*
G02*
X51000000Y-80065000I-150000J0D01*
G01*
X49350000Y-80065000D01*
G75*
G02*
X49200000Y-79915000I0J150000D01*
G01*
X49200000Y-79615000D01*
G75*
G02*
X49350000Y-79465000I150000J0D01*
G01*
X51000000Y-79465000D01*
G75*
G02*
X51150000Y-79615000I0J-150000D01*
G01*
G37*
%TD.AperFunction*%
%TO.P,U5,6,DIN3*%
%TO.N,/D13*%
%TA.AperFunction,SMDPad,CuDef*%
G36*
G01*
X51150000Y-78345000D02*
X51150000Y-78645000D01*
G75*
G02*
X51000000Y-78795000I-150000J0D01*
G01*
X49350000Y-78795000D01*
G75*
G02*
X49200000Y-78645000I0J150000D01*
G01*
X49200000Y-78345000D01*
G75*
G02*
X49350000Y-78195000I150000J0D01*
G01*
X51000000Y-78195000D01*
G75*
G02*
X51150000Y-78345000I0J-150000D01*
G01*
G37*
%TD.AperFunction*%
%TO.P,U5,7,DIN4*%
%TO.N,/D12*%
%TA.AperFunction,SMDPad,CuDef*%
G36*
G01*
X51150000Y-77075000D02*
X51150000Y-77375000D01*
G75*
G02*
X51000000Y-77525000I-150000J0D01*
G01*
X49350000Y-77525000D01*
G75*
G02*
X49200000Y-77375000I0J150000D01*
G01*
X49200000Y-77075000D01*
G75*
G02*
X49350000Y-76925000I150000J0D01*
G01*
X51000000Y-76925000D01*
G75*
G02*
X51150000Y-77075000I0J-150000D01*
G01*
G37*
%TD.AperFunction*%
%TO.P,U5,8,EN3\u002C4*%
%TO.N,+3V3*%
%TA.AperFunction,SMDPad,CuDef*%
G36*
G01*
X51150000Y-75805000D02*
X51150000Y-76105000D01*
G75*
G02*
X51000000Y-76255000I-150000J0D01*
G01*
X49350000Y-76255000D01*
G75*
G02*
X49200000Y-76105000I0J150000D01*
G01*
X49200000Y-75805000D01*
G75*
G02*
X49350000Y-75655000I150000J0D01*
G01*
X51000000Y-75655000D01*
G75*
G02*
X51150000Y-75805000I0J-150000D01*
G01*
G37*
%TD.AperFunction*%
%TO.P,U5,9,DOUT4-*%
%TO.N,/Out_12-*%
%TA.AperFunction,SMDPad,CuDef*%
G36*
G01*
X46200000Y-75805000D02*
X46200000Y-76105000D01*
G75*
G02*
X46050000Y-76255000I-150000J0D01*
G01*
X44400000Y-76255000D01*
G75*
G02*
X44250000Y-76105000I0J150000D01*
G01*
X44250000Y-75805000D01*
G75*
G02*
X44400000Y-75655000I150000J0D01*
G01*
X46050000Y-75655000D01*
G75*
G02*
X46200000Y-75805000I0J-150000D01*
G01*
G37*
%TD.AperFunction*%
%TO.P,U5,10,DOUT4+*%
%TO.N,/Out_12+*%
%TA.AperFunction,SMDPad,CuDef*%
G36*
G01*
X46200000Y-77075000D02*
X46200000Y-77375000D01*
G75*
G02*
X46050000Y-77525000I-150000J0D01*
G01*
X44400000Y-77525000D01*
G75*
G02*
X44250000Y-77375000I0J150000D01*
G01*
X44250000Y-77075000D01*
G75*
G02*
X44400000Y-76925000I150000J0D01*
G01*
X46050000Y-76925000D01*
G75*
G02*
X46200000Y-77075000I0J-150000D01*
G01*
G37*
%TD.AperFunction*%
%TO.P,U5,11,DOUT3-*%
%TO.N,/Out_13-*%
%TA.AperFunction,SMDPad,CuDef*%
G36*
G01*
X46200000Y-78345000D02*
X46200000Y-78645000D01*
G75*
G02*
X46050000Y-78795000I-150000J0D01*
G01*
X44400000Y-78795000D01*
G75*
G02*
X44250000Y-78645000I0J150000D01*
G01*
X44250000Y-78345000D01*
G75*
G02*
X44400000Y-78195000I150000J0D01*
G01*
X46050000Y-78195000D01*
G75*
G02*
X46200000Y-78345000I0J-150000D01*
G01*
G37*
%TD.AperFunction*%
%TO.P,U5,12,DOUT3+*%
%TO.N,/Out_13+*%
%TA.AperFunction,SMDPad,CuDef*%
G36*
G01*
X46200000Y-79615000D02*
X46200000Y-79915000D01*
G75*
G02*
X46050000Y-80065000I-150000J0D01*
G01*
X44400000Y-80065000D01*
G75*
G02*
X44250000Y-79915000I0J150000D01*
G01*
X44250000Y-79615000D01*
G75*
G02*
X44400000Y-79465000I150000J0D01*
G01*
X46050000Y-79465000D01*
G75*
G02*
X46200000Y-79615000I0J-150000D01*
G01*
G37*
%TD.AperFunction*%
%TO.P,U5,13,DOUT2-*%
%TO.N,/Out_14-*%
%TA.AperFunction,SMDPad,CuDef*%
G36*
G01*
X46200000Y-80885000D02*
X46200000Y-81185000D01*
G75*
G02*
X46050000Y-81335000I-150000J0D01*
G01*
X44400000Y-81335000D01*
G75*
G02*
X44250000Y-81185000I0J150000D01*
G01*
X44250000Y-80885000D01*
G75*
G02*
X44400000Y-80735000I150000J0D01*
G01*
X46050000Y-80735000D01*
G75*
G02*
X46200000Y-80885000I0J-150000D01*
G01*
G37*
%TD.AperFunction*%
%TO.P,U5,14,DOUT2+*%
%TO.N,/Out_14+*%
%TA.AperFunction,SMDPad,CuDef*%
G36*
G01*
X46200000Y-82155000D02*
X46200000Y-82455000D01*
G75*
G02*
X46050000Y-82605000I-150000J0D01*
G01*
X44400000Y-82605000D01*
G75*
G02*
X44250000Y-82455000I0J150000D01*
G01*
X44250000Y-82155000D01*
G75*
G02*
X44400000Y-82005000I150000J0D01*
G01*
X46050000Y-82005000D01*
G75*
G02*
X46200000Y-82155000I0J-150000D01*
G01*
G37*
%TD.AperFunction*%
%TO.P,U5,15,DOUT1-*%
%TO.N,/Out_15-*%
%TA.AperFunction,SMDPad,CuDef*%
G36*
G01*
X46200000Y-83425000D02*
X46200000Y-83725000D01*
G75*
G02*
X46050000Y-83875000I-150000J0D01*
G01*
X44400000Y-83875000D01*
G75*
G02*
X44250000Y-83725000I0J150000D01*
G01*
X44250000Y-83425000D01*
G75*
G02*
X44400000Y-83275000I150000J0D01*
G01*
X46050000Y-83275000D01*
G75*
G02*
X46200000Y-83425000I0J-150000D01*
G01*
G37*
%TD.AperFunction*%
%TO.P,U5,16,DOUT1+*%
%TO.N,/Out_15+*%
%TA.AperFunction,SMDPad,CuDef*%
G36*
G01*
X46200000Y-84695000D02*
X46200000Y-84995000D01*
G75*
G02*
X46050000Y-85145000I-150000J0D01*
G01*
X44400000Y-85145000D01*
G75*
G02*
X44250000Y-84995000I0J150000D01*
G01*
X44250000Y-84695000D01*
G75*
G02*
X44400000Y-84545000I150000J0D01*
G01*
X46050000Y-84545000D01*
G75*
G02*
X46200000Y-84695000I0J-150000D01*
G01*
G37*
%TD.AperFunction*%
%TD*%
%TO.P,C3,1*%
%TO.N,+3V3*%
%TA.AperFunction,SMDPad,CuDef*%
G36*
G01*
X52255000Y-69635000D02*
X51945000Y-69635000D01*
G75*
G02*
X51790000Y-69480000I0J155000D01*
G01*
X51790000Y-69055000D01*
G75*
G02*
X51945000Y-68900000I155000J0D01*
G01*
X52255000Y-68900000D01*
G75*
G02*
X52410000Y-69055000I0J-155000D01*
G01*
X52410000Y-69480000D01*
G75*
G02*
X52255000Y-69635000I-155000J0D01*
G01*
G37*
%TD.AperFunction*%
%TO.P,C3,2*%
%TO.N,GND*%
%TA.AperFunction,SMDPad,CuDef*%
G36*
G01*
X52255000Y-68500000D02*
X51945000Y-68500000D01*
G75*
G02*
X51790000Y-68345000I0J155000D01*
G01*
X51790000Y-67920000D01*
G75*
G02*
X51945000Y-67765000I155000J0D01*
G01*
X52255000Y-67765000D01*
G75*
G02*
X52410000Y-67920000I0J-155000D01*
G01*
X52410000Y-68345000D01*
G75*
G02*
X52255000Y-68500000I-155000J0D01*
G01*
G37*
%TD.AperFunction*%
%TD*%
%TO.P,U4,1,EN1\u002C2*%
%TO.N,+3V3*%
%TA.AperFunction,SMDPad,CuDef*%
G36*
G01*
X51150000Y-72995000D02*
X51150000Y-73295000D01*
G75*
G02*
X51000000Y-73445000I-150000J0D01*
G01*
X49350000Y-73445000D01*
G75*
G02*
X49200000Y-73295000I0J150000D01*
G01*
X49200000Y-72995000D01*
G75*
G02*
X49350000Y-72845000I150000J0D01*
G01*
X51000000Y-72845000D01*
G75*
G02*
X51150000Y-72995000I0J-150000D01*
G01*
G37*
%TD.AperFunction*%
%TO.P,U4,2,DIN1*%
%TO.N,/D11*%
%TA.AperFunction,SMDPad,CuDef*%
G36*
G01*
X51150000Y-71725000D02*
X51150000Y-72025000D01*
G75*
G02*
X51000000Y-72175000I-150000J0D01*
G01*
X49350000Y-72175000D01*
G75*
G02*
X49200000Y-72025000I0J150000D01*
G01*
X49200000Y-71725000D01*
G75*
G02*
X49350000Y-71575000I150000J0D01*
G01*
X51000000Y-71575000D01*
G75*
G02*
X51150000Y-71725000I0J-150000D01*
G01*
G37*
%TD.AperFunction*%
%TO.P,U4,3,DIN2*%
%TO.N,/D10*%
%TA.AperFunction,SMDPad,CuDef*%
G36*
G01*
X51150000Y-70455000D02*
X51150000Y-70755000D01*
G75*
G02*
X51000000Y-70905000I-150000J0D01*
G01*
X49350000Y-70905000D01*
G75*
G02*
X49200000Y-70755000I0J150000D01*
G01*
X49200000Y-70455000D01*
G75*
G02*
X49350000Y-70305000I150000J0D01*
G01*
X51000000Y-70305000D01*
G75*
G02*
X51150000Y-70455000I0J-150000D01*
G01*
G37*
%TD.AperFunction*%
%TO.P,U4,4,VCC*%
%TO.N,+3V3*%
%TA.AperFunction,SMDPad,CuDef*%
G36*
G01*
X51150000Y-69185000D02*
X51150000Y-69485000D01*
G75*
G02*
X51000000Y-69635000I-150000J0D01*
G01*
X49350000Y-69635000D01*
G75*
G02*
X49200000Y-69485000I0J150000D01*
G01*
X49200000Y-69185000D01*
G75*
G02*
X49350000Y-69035000I150000J0D01*
G01*
X51000000Y-69035000D01*
G75*
G02*
X51150000Y-69185000I0J-150000D01*
G01*
G37*
%TD.AperFunction*%
%TO.P,U4,5,GND*%
%TO.N,GND*%
%TA.AperFunction,SMDPad,CuDef*%
G36*
G01*
X51150000Y-67915000D02*
X51150000Y-68215000D01*
G75*
G02*
X51000000Y-68365000I-150000J0D01*
G01*
X49350000Y-68365000D01*
G75*
G02*
X49200000Y-68215000I0J150000D01*
G01*
X49200000Y-67915000D01*
G75*
G02*
X49350000Y-67765000I150000J0D01*
G01*
X51000000Y-67765000D01*
G75*
G02*
X51150000Y-67915000I0J-150000D01*
G01*
G37*
%TD.AperFunction*%
%TO.P,U4,6,DIN3*%
%TO.N,/D9*%
%TA.AperFunction,SMDPad,CuDef*%
G36*
G01*
X51150000Y-66645000D02*
X51150000Y-66945000D01*
G75*
G02*
X51000000Y-67095000I-150000J0D01*
G01*
X49350000Y-67095000D01*
G75*
G02*
X49200000Y-66945000I0J150000D01*
G01*
X49200000Y-66645000D01*
G75*
G02*
X49350000Y-66495000I150000J0D01*
G01*
X51000000Y-66495000D01*
G75*
G02*
X51150000Y-66645000I0J-150000D01*
G01*
G37*
%TD.AperFunction*%
%TO.P,U4,7,DIN4*%
%TO.N,/D8*%
%TA.AperFunction,SMDPad,CuDef*%
G36*
G01*
X51150000Y-65375000D02*
X51150000Y-65675000D01*
G75*
G02*
X51000000Y-65825000I-150000J0D01*
G01*
X49350000Y-65825000D01*
G75*
G02*
X49200000Y-65675000I0J150000D01*
G01*
X49200000Y-65375000D01*
G75*
G02*
X49350000Y-65225000I150000J0D01*
G01*
X51000000Y-65225000D01*
G75*
G02*
X51150000Y-65375000I0J-150000D01*
G01*
G37*
%TD.AperFunction*%
%TO.P,U4,8,EN3\u002C4*%
%TO.N,+3V3*%
%TA.AperFunction,SMDPad,CuDef*%
G36*
G01*
X51150000Y-64105000D02*
X51150000Y-64405000D01*
G75*
G02*
X51000000Y-64555000I-150000J0D01*
G01*
X49350000Y-64555000D01*
G75*
G02*
X49200000Y-64405000I0J150000D01*
G01*
X49200000Y-64105000D01*
G75*
G02*
X49350000Y-63955000I150000J0D01*
G01*
X51000000Y-63955000D01*
G75*
G02*
X51150000Y-64105000I0J-150000D01*
G01*
G37*
%TD.AperFunction*%
%TO.P,U4,9,DOUT4-*%
%TO.N,/Out_8-*%
%TA.AperFunction,SMDPad,CuDef*%
G36*
G01*
X46200000Y-64105000D02*
X46200000Y-64405000D01*
G75*
G02*
X46050000Y-64555000I-150000J0D01*
G01*
X44400000Y-64555000D01*
G75*
G02*
X44250000Y-64405000I0J150000D01*
G01*
X44250000Y-64105000D01*
G75*
G02*
X44400000Y-63955000I150000J0D01*
G01*
X46050000Y-63955000D01*
G75*
G02*
X46200000Y-64105000I0J-150000D01*
G01*
G37*
%TD.AperFunction*%
%TO.P,U4,10,DOUT4+*%
%TO.N,/Out_8+*%
%TA.AperFunction,SMDPad,CuDef*%
G36*
G01*
X46200000Y-65375000D02*
X46200000Y-65675000D01*
G75*
G02*
X46050000Y-65825000I-150000J0D01*
G01*
X44400000Y-65825000D01*
G75*
G02*
X44250000Y-65675000I0J150000D01*
G01*
X44250000Y-65375000D01*
G75*
G02*
X44400000Y-65225000I150000J0D01*
G01*
X46050000Y-65225000D01*
G75*
G02*
X46200000Y-65375000I0J-150000D01*
G01*
G37*
%TD.AperFunction*%
%TO.P,U4,11,DOUT3-*%
%TO.N,/Out_9-*%
%TA.AperFunction,SMDPad,CuDef*%
G36*
G01*
X46200000Y-66645000D02*
X46200000Y-66945000D01*
G75*
G02*
X46050000Y-67095000I-150000J0D01*
G01*
X44400000Y-67095000D01*
G75*
G02*
X44250000Y-66945000I0J150000D01*
G01*
X44250000Y-66645000D01*
G75*
G02*
X44400000Y-66495000I150000J0D01*
G01*
X46050000Y-66495000D01*
G75*
G02*
X46200000Y-66645000I0J-150000D01*
G01*
G37*
%TD.AperFunction*%
%TO.P,U4,12,DOUT3+*%
%TO.N,/Out_9+*%
%TA.AperFunction,SMDPad,CuDef*%
G36*
G01*
X46200000Y-67915000D02*
X46200000Y-68215000D01*
G75*
G02*
X46050000Y-68365000I-150000J0D01*
G01*
X44400000Y-68365000D01*
G75*
G02*
X44250000Y-68215000I0J150000D01*
G01*
X44250000Y-67915000D01*
G75*
G02*
X44400000Y-67765000I150000J0D01*
G01*
X46050000Y-67765000D01*
G75*
G02*
X46200000Y-67915000I0J-150000D01*
G01*
G37*
%TD.AperFunction*%
%TO.P,U4,13,DOUT2-*%
%TO.N,/Out_10-*%
%TA.AperFunction,SMDPad,CuDef*%
G36*
G01*
X46200000Y-69185000D02*
X46200000Y-69485000D01*
G75*
G02*
X46050000Y-69635000I-150000J0D01*
G01*
X44400000Y-69635000D01*
G75*
G02*
X44250000Y-69485000I0J150000D01*
G01*
X44250000Y-69185000D01*
G75*
G02*
X44400000Y-69035000I150000J0D01*
G01*
X46050000Y-69035000D01*
G75*
G02*
X46200000Y-69185000I0J-150000D01*
G01*
G37*
%TD.AperFunction*%
%TO.P,U4,14,DOUT2+*%
%TO.N,/Out_10+*%
%TA.AperFunction,SMDPad,CuDef*%
G36*
G01*
X46200000Y-70455000D02*
X46200000Y-70755000D01*
G75*
G02*
X46050000Y-70905000I-150000J0D01*
G01*
X44400000Y-70905000D01*
G75*
G02*
X44250000Y-70755000I0J150000D01*
G01*
X44250000Y-70455000D01*
G75*
G02*
X44400000Y-70305000I150000J0D01*
G01*
X46050000Y-70305000D01*
G75*
G02*
X46200000Y-70455000I0J-150000D01*
G01*
G37*
%TD.AperFunction*%
%TO.P,U4,15,DOUT1-*%
%TO.N,/Out_11-*%
%TA.AperFunction,SMDPad,CuDef*%
G36*
G01*
X46200000Y-71725000D02*
X46200000Y-72025000D01*
G75*
G02*
X46050000Y-72175000I-150000J0D01*
G01*
X44400000Y-72175000D01*
G75*
G02*
X44250000Y-72025000I0J150000D01*
G01*
X44250000Y-71725000D01*
G75*
G02*
X44400000Y-71575000I150000J0D01*
G01*
X46050000Y-71575000D01*
G75*
G02*
X46200000Y-71725000I0J-150000D01*
G01*
G37*
%TD.AperFunction*%
%TO.P,U4,16,DOUT1+*%
%TO.N,/Out_11+*%
%TA.AperFunction,SMDPad,CuDef*%
G36*
G01*
X46200000Y-72995000D02*
X46200000Y-73295000D01*
G75*
G02*
X46050000Y-73445000I-150000J0D01*
G01*
X44400000Y-73445000D01*
G75*
G02*
X44250000Y-73295000I0J150000D01*
G01*
X44250000Y-72995000D01*
G75*
G02*
X44400000Y-72845000I150000J0D01*
G01*
X46050000Y-72845000D01*
G75*
G02*
X46200000Y-72995000I0J-150000D01*
G01*
G37*
%TD.AperFunction*%
%TD*%
D14*
%TO.N,+3V3*%
X52750000Y-69250000D03*
X77216000Y-51816000D03*
X52750000Y-57750000D03*
X92952500Y-64273500D03*
X51500000Y-81110000D03*
X76962000Y-49276000D03*
X76454000Y-47244000D03*
X50175000Y-51800000D03*
X77216000Y-48006000D03*
X78232000Y-48006000D03*
X50200000Y-40100000D03*
X76962000Y-50292000D03*
X77978000Y-49784000D03*
X50175000Y-62200000D03*
X112722000Y-64544499D03*
X78486000Y-45974000D03*
X51500000Y-45935000D03*
X52750000Y-46000000D03*
X76962000Y-46228000D03*
X50175000Y-50500000D03*
X76200000Y-48514000D03*
X106172000Y-64516000D03*
X77724000Y-48768000D03*
X50175000Y-75200000D03*
X51500000Y-57635000D03*
X51500000Y-69267500D03*
X53000000Y-81000000D03*
X78486000Y-51816000D03*
X77724000Y-50800000D03*
X99556500Y-64527500D03*
X50175000Y-73900000D03*
X50175000Y-63500000D03*
X50200000Y-85600000D03*
X76200000Y-51308000D03*
X77724000Y-46990000D03*
X76200000Y-49784000D03*
%TO.N,GND*%
X66548000Y-67564000D03*
X66548000Y-56896000D03*
X76493077Y-83566000D03*
X90551000Y-63881000D03*
X76493077Y-66294000D03*
X66548000Y-82296000D03*
X84074000Y-88900000D03*
X76962000Y-39878000D03*
X66548000Y-84836000D03*
X52750000Y-68000000D03*
X65532000Y-42672000D03*
X120650000Y-60452000D03*
X76493077Y-81534000D03*
X77763077Y-69088000D03*
X66040000Y-58674000D03*
X65532000Y-68072000D03*
X66548000Y-43180000D03*
X85344000Y-39116000D03*
X65532000Y-66294000D03*
X66548000Y-78994000D03*
X77001077Y-71374000D03*
X66548000Y-42164000D03*
X66548000Y-57912000D03*
X65532000Y-78994000D03*
X65532000Y-84836000D03*
X120650000Y-88392000D03*
X66040000Y-71374000D03*
X52750000Y-44500000D03*
X76493077Y-84836000D03*
X66040000Y-84074000D03*
X84836000Y-40894000D03*
X66548000Y-68580000D03*
X76962000Y-40894000D03*
X65532000Y-57912000D03*
X65532000Y-70612000D03*
X66548000Y-69596000D03*
X103632000Y-46736000D03*
X32004000Y-39370000D03*
X65532000Y-83312000D03*
X77470000Y-43434000D03*
X66040000Y-45974000D03*
X51500000Y-56365000D03*
X117094000Y-65416001D03*
X66040000Y-54356000D03*
X86614000Y-59944000D03*
X104137999Y-64259999D03*
X66548000Y-80264000D03*
X76493077Y-72136000D03*
X66548000Y-70612000D03*
X76493077Y-70866000D03*
X77001077Y-67056000D03*
X51500000Y-68132500D03*
X77001077Y-84074000D03*
X77509077Y-80518000D03*
X66548000Y-54864000D03*
X77509077Y-66294000D03*
X76962000Y-42926000D03*
X66548000Y-81280000D03*
X77509077Y-67818000D03*
X77978000Y-39878000D03*
X65532000Y-40894000D03*
X84836000Y-38354000D03*
X52750000Y-56250000D03*
X85598000Y-40894000D03*
X77509077Y-78994000D03*
X66548000Y-59436000D03*
X65278000Y-56642000D03*
X76493077Y-67818000D03*
X65278000Y-43942000D03*
X77724000Y-40894000D03*
X65532000Y-55372000D03*
X65532000Y-59436000D03*
X76493077Y-68834000D03*
X66548000Y-72136000D03*
X97659001Y-64639001D03*
X84836000Y-41910000D03*
X77978000Y-42418000D03*
X51500000Y-79932500D03*
X85852000Y-38354000D03*
X66548000Y-83312000D03*
X85852000Y-44196000D03*
X109982000Y-64770000D03*
X65532000Y-72136000D03*
X76962000Y-38354000D03*
X121158000Y-38354000D03*
X66548000Y-45212000D03*
X65532000Y-46736000D03*
X97151001Y-65147001D03*
X77509077Y-83058000D03*
X65278000Y-82042000D03*
X85852000Y-39878000D03*
X76493077Y-80518000D03*
X51500000Y-44665000D03*
X77509077Y-84836000D03*
X77978000Y-38354000D03*
X65532000Y-45212000D03*
X85852000Y-42418000D03*
X76493077Y-82550000D03*
X32766000Y-88138000D03*
X65278000Y-69342000D03*
X66548000Y-53594000D03*
X84836000Y-42926000D03*
X110458249Y-64230249D03*
X65532000Y-80772000D03*
X66040000Y-41656000D03*
X77763077Y-81788000D03*
X66548000Y-66294000D03*
X59944000Y-88900000D03*
X76493077Y-78994000D03*
X77470000Y-39116000D03*
X66548000Y-40894000D03*
X66548000Y-46736000D03*
X103629999Y-64767999D03*
X66548000Y-55880000D03*
X77509077Y-70358000D03*
X66040000Y-67056000D03*
X53000000Y-79750000D03*
X84836000Y-39878000D03*
X85344000Y-43434000D03*
X66548000Y-44196000D03*
X65532000Y-53594000D03*
X77001077Y-79756000D03*
X77509077Y-72136000D03*
X76962000Y-41910000D03*
X107188000Y-46736000D03*
X66040000Y-79756000D03*
X117856000Y-65024000D03*
X76493077Y-69850000D03*
X53340000Y-38354000D03*
D15*
%TO.N,/RJ45_Out_17+*%
X105068060Y-46678412D03*
%TO.N,/RJ45_Out_17-*%
X105720460Y-46678412D03*
%TD*%
D16*
%TO.N,+3V3*%
X52200000Y-81067500D02*
X52932500Y-81067500D01*
D17*
X112722000Y-64544499D02*
X112000500Y-63822999D01*
D16*
X52617500Y-45867500D02*
X52750000Y-46000000D01*
D17*
X50175000Y-75955000D02*
X50175000Y-75200000D01*
X99622000Y-64592999D02*
X99556500Y-64527500D01*
X50175000Y-84845000D02*
X50175000Y-85575000D01*
X50175000Y-85575000D02*
X50200000Y-85600000D01*
X106172000Y-65416001D02*
X106172000Y-64516000D01*
X50175000Y-63500000D02*
X50175000Y-62200000D01*
D16*
X52567500Y-57567500D02*
X52750000Y-57750000D01*
D17*
X93072000Y-65416001D02*
X93072000Y-64392999D01*
X99556500Y-64527500D02*
X98852000Y-63822999D01*
D16*
X50175000Y-57635000D02*
X51500000Y-57635000D01*
X52100000Y-45867500D02*
X52617500Y-45867500D01*
X50250000Y-81110000D02*
X51500000Y-81110000D01*
D17*
X50175000Y-40125000D02*
X50200000Y-40100000D01*
X50175000Y-49745000D02*
X50175000Y-50500000D01*
X112722000Y-65416001D02*
X112722000Y-64544499D01*
X50175000Y-64255000D02*
X50175000Y-63500000D01*
D16*
X51500000Y-57635000D02*
X52032500Y-57635000D01*
X50175000Y-45935000D02*
X51500000Y-45935000D01*
D17*
X106172000Y-64516000D02*
X106172000Y-64284999D01*
X50175000Y-50500000D02*
X50175000Y-51800000D01*
D16*
X50267500Y-69267500D02*
X50200000Y-69335000D01*
X51500000Y-45935000D02*
X52032500Y-45935000D01*
X52100000Y-69267500D02*
X51500000Y-69267500D01*
D17*
X50175000Y-51800000D02*
X50175000Y-52555000D01*
X92952500Y-64273500D02*
X92502000Y-63822999D01*
D16*
X52932500Y-81067500D02*
X53000000Y-81000000D01*
D17*
X93072000Y-64392999D02*
X92952500Y-64273500D01*
X50175000Y-62200000D02*
X50175000Y-61445000D01*
D16*
X51500000Y-69267500D02*
X50267500Y-69267500D01*
X51500000Y-81110000D02*
X52157500Y-81110000D01*
X52100000Y-69267500D02*
X52732500Y-69267500D01*
D17*
X50175000Y-40855000D02*
X50175000Y-40125000D01*
X50230000Y-49800000D02*
X50175000Y-49745000D01*
D16*
X52100000Y-57567500D02*
X52567500Y-57567500D01*
D17*
X50175000Y-75200000D02*
X50175000Y-73900000D01*
X50175000Y-73900000D02*
X50175000Y-73145000D01*
D16*
X52032500Y-57635000D02*
X52100000Y-57567500D01*
D17*
X99622000Y-65416001D02*
X99622000Y-64592999D01*
X106172000Y-64284999D02*
X105710000Y-63822999D01*
D16*
X52732500Y-69267500D02*
X52750000Y-69250000D01*
X52032500Y-45935000D02*
X52100000Y-45867500D01*
%TO.N,GND*%
X52817500Y-79932500D02*
X52200000Y-79932500D01*
D17*
X97659001Y-64639001D02*
X97151001Y-65147001D01*
X117602000Y-65278000D02*
X117856000Y-65024000D01*
X97151001Y-65147001D02*
X96882000Y-65416001D01*
X97717000Y-64581001D02*
X97659001Y-64639001D01*
X97717000Y-63822999D02*
X97717000Y-64581001D01*
D16*
X52100000Y-56432500D02*
X52567500Y-56432500D01*
X52200000Y-79932500D02*
X51500000Y-79932500D01*
D17*
X109982000Y-64770000D02*
X109982000Y-64706499D01*
D16*
X52567500Y-56432500D02*
X52750000Y-56250000D01*
D17*
X117463999Y-65416001D02*
X117602000Y-65278000D01*
X91367000Y-63822999D02*
X90609001Y-63822999D01*
D16*
X52032500Y-44665000D02*
X52100000Y-44732500D01*
X50267500Y-68132500D02*
X50200000Y-68065000D01*
X51500000Y-79932500D02*
X50342500Y-79932500D01*
X51500000Y-44665000D02*
X52032500Y-44665000D01*
D17*
X90424000Y-64008000D02*
X90551000Y-63881000D01*
D16*
X52750000Y-44500000D02*
X52517500Y-44732500D01*
X50175000Y-56365000D02*
X51500000Y-56365000D01*
X52750000Y-68000000D02*
X52617500Y-68132500D01*
X52517500Y-44732500D02*
X52100000Y-44732500D01*
D17*
X109982000Y-64706499D02*
X110458249Y-64230249D01*
D16*
X50175000Y-44665000D02*
X51500000Y-44665000D01*
D17*
X103432000Y-64965999D02*
X103629999Y-64767999D01*
X103629999Y-64767999D02*
X104137999Y-64259999D01*
X110458249Y-64230249D02*
X110865500Y-63822999D01*
D16*
X53000000Y-79750000D02*
X52817500Y-79932500D01*
X52617500Y-68132500D02*
X52100000Y-68132500D01*
X50342500Y-79932500D02*
X50250000Y-79840000D01*
X51500000Y-56365000D02*
X52032500Y-56365000D01*
X52100000Y-68132500D02*
X51500000Y-68132500D01*
D17*
X104137999Y-64259999D02*
X104575000Y-63822999D01*
X116532000Y-65416001D02*
X117094000Y-65416001D01*
X109982000Y-65416001D02*
X109982000Y-64770000D01*
D16*
X51500000Y-68132500D02*
X50267500Y-68132500D01*
D17*
X117094000Y-65416001D02*
X117463999Y-65416001D01*
X103432000Y-65416001D02*
X103432000Y-64965999D01*
X90551000Y-63881000D02*
X90609001Y-63822999D01*
D16*
X52032500Y-56365000D02*
X52100000Y-56432500D01*
D17*
X80033400Y-43805000D02*
X82712000Y-43805000D01*
D18*
%TO.N,/Out_8-*%
X40475031Y-64517799D02*
X40475031Y-64921339D01*
X36991692Y-64060000D02*
X38129031Y-65197339D01*
X40061031Y-64241799D02*
X40199031Y-64241799D01*
X43814824Y-65041170D02*
X43814824Y-64990048D01*
X44495030Y-64984970D02*
X44234288Y-64984970D01*
X39095031Y-64517823D02*
X39095031Y-64921339D01*
X44021919Y-65197339D02*
X43970994Y-65197339D01*
X39371031Y-65197339D02*
X39509031Y-65197339D01*
X45225000Y-64255000D02*
X44495030Y-64984970D01*
X38681031Y-64241823D02*
X38819031Y-64241823D01*
X42687164Y-64990048D02*
X42687164Y-65041170D01*
X44234288Y-64984970D02*
X44021919Y-65197339D01*
X43970994Y-65197339D02*
X43970994Y-65197340D01*
X39785031Y-64921339D02*
X39785031Y-64517799D01*
X40751031Y-65197339D02*
X42530994Y-65197340D01*
X38405031Y-64921339D02*
X38405031Y-64517823D01*
X43330994Y-64506218D02*
X43170994Y-64506218D01*
X39509031Y-65197339D02*
G75*
G03*
X39785039Y-64921339I-31J276039D01*
G01*
X43970994Y-65197340D02*
G75*
G02*
X43814860Y-65041170I6J156140D01*
G01*
X39785031Y-64517799D02*
G75*
G02*
X40061031Y-64241831I275969J-1D01*
G01*
X38819031Y-64241823D02*
G75*
G02*
X39094977Y-64517823I-31J-275977D01*
G01*
X43170994Y-64506218D02*
G75*
G03*
X42687218Y-64990048I6J-483782D01*
G01*
X39095031Y-64921339D02*
G75*
G03*
X39371031Y-65197269I275969J39D01*
G01*
X43814824Y-64990048D02*
G75*
G03*
X43330994Y-64506176I-483824J48D01*
G01*
X38129031Y-65197339D02*
G75*
G03*
X38405039Y-64921339I-31J276039D01*
G01*
X40475031Y-64921339D02*
G75*
G03*
X40751031Y-65197269I275969J39D01*
G01*
X42687164Y-65041170D02*
G75*
G02*
X42530994Y-65197364I-156164J-30D01*
G01*
X40199031Y-64241799D02*
G75*
G02*
X40475001Y-64517799I-31J-276001D01*
G01*
X38405031Y-64517823D02*
G75*
G02*
X38681031Y-64241831I275969J23D01*
G01*
%TO.N,/Out_5+*%
X44418382Y-56365000D02*
X44015722Y-56767660D01*
X41220602Y-56767660D02*
X37503876Y-56767660D01*
X36741506Y-57530030D02*
X35838494Y-57530030D01*
X35838494Y-57530030D02*
X34748464Y-56440000D01*
X45225000Y-56365000D02*
X44418382Y-56365000D01*
X34748464Y-56440000D02*
X33750000Y-56440000D01*
X42132388Y-56767660D02*
X41880000Y-56767660D01*
X44015722Y-56767660D02*
X43915888Y-56767660D01*
X37503876Y-56767660D02*
X36741506Y-57530030D01*
X43132388Y-57515272D02*
X42880000Y-57515272D01*
X41880000Y-56767660D02*
X41220602Y-56767660D01*
X43915888Y-56767660D02*
X43880000Y-56767660D01*
X42880000Y-57515272D02*
G75*
G02*
X42342328Y-56977636I0J537672D01*
G01*
X43670024Y-56977636D02*
G75*
G02*
X43132388Y-57515224I-537624J36D01*
G01*
X42342364Y-56977636D02*
G75*
G03*
X42132388Y-56767636I-209964J36D01*
G01*
X43880000Y-56767660D02*
G75*
G03*
X43670060Y-56977636I0J-209940D01*
G01*
%TO.N,/Out_1-*%
X39766602Y-45531076D02*
X39646602Y-45531076D01*
X42836170Y-44835041D02*
X42836170Y-45332138D01*
X37000000Y-46280000D02*
X36290000Y-46280000D01*
X41888308Y-46280000D02*
X41446602Y-46280000D01*
X45225000Y-43395000D02*
X44753830Y-43866170D01*
X37966602Y-46280000D02*
X37846602Y-46280000D01*
X38806602Y-46040000D02*
X38806602Y-45771052D01*
X38206602Y-45771052D02*
X38206602Y-46040000D01*
X40006602Y-46040000D02*
X40006602Y-45771076D01*
X42836170Y-45332138D02*
X41888308Y-46280000D01*
X40966602Y-45531076D02*
X40846602Y-45531076D01*
X39166602Y-46280000D02*
X39046602Y-46280000D01*
X37846602Y-46280000D02*
X37000000Y-46280000D01*
X40606602Y-45771076D02*
X40606602Y-46040000D01*
X40366602Y-46280000D02*
X40246602Y-46280000D01*
X41206602Y-46040000D02*
X41206602Y-45771076D01*
X39406602Y-45771076D02*
X39406602Y-46040000D01*
X38566602Y-45531052D02*
X38446602Y-45531052D01*
X43805041Y-43866170D02*
X42836170Y-44835041D01*
X44753830Y-43866170D02*
X43805041Y-43866170D01*
X41206602Y-45771076D02*
G75*
G03*
X40966602Y-45531098I-240002J-24D01*
G01*
X38446602Y-45531052D02*
G75*
G03*
X38206552Y-45771052I-2J-240048D01*
G01*
X40006602Y-45771076D02*
G75*
G03*
X39766602Y-45531098I-240002J-24D01*
G01*
X40246602Y-46280000D02*
G75*
G02*
X40006600Y-46040000I-2J240000D01*
G01*
X39646602Y-45531076D02*
G75*
G03*
X39406576Y-45771076I-2J-240024D01*
G01*
X38206602Y-46040000D02*
G75*
G02*
X37966602Y-46280002I-240002J0D01*
G01*
X38806602Y-45771052D02*
G75*
G03*
X38566602Y-45531098I-240002J-48D01*
G01*
X40846602Y-45531076D02*
G75*
G03*
X40606576Y-45771076I-2J-240024D01*
G01*
X41446602Y-46280000D02*
G75*
G02*
X41206600Y-46040000I-2J240000D01*
G01*
X39046602Y-46280000D02*
G75*
G02*
X38806600Y-46040000I-2J240000D01*
G01*
X40606602Y-46040000D02*
G75*
G02*
X40366602Y-46280002I-240002J0D01*
G01*
X39406602Y-46040000D02*
G75*
G02*
X39166602Y-46280002I-240002J0D01*
G01*
%TO.N,/Out_14-*%
X40746521Y-81506170D02*
X40626521Y-81506170D01*
X41346521Y-80770252D02*
X41226521Y-80770252D01*
X42786521Y-81266170D02*
X42786521Y-81010246D01*
X39137862Y-81506170D02*
X39546521Y-81506170D01*
X41586521Y-81266170D02*
X41586521Y-81010252D01*
X40986521Y-81010252D02*
X40986521Y-81266170D01*
X43291329Y-81506170D02*
X43026521Y-81506170D01*
X36931692Y-79300000D02*
X39137862Y-81506170D01*
X39786521Y-81010246D02*
X39786521Y-81266170D01*
X40146521Y-80770246D02*
X40026521Y-80770246D01*
X42186521Y-81010246D02*
X42186521Y-81266170D01*
X41946521Y-81506170D02*
X41826521Y-81506170D01*
X45225000Y-81035000D02*
X43762499Y-81035000D01*
X40386521Y-81266170D02*
X40386521Y-81010246D01*
X43762499Y-81035000D02*
X43291329Y-81506170D01*
X42546521Y-80770246D02*
X42426521Y-80770246D01*
X43026521Y-81506170D02*
G75*
G02*
X42786530Y-81266170I-21J239970D01*
G01*
X42186521Y-81266170D02*
G75*
G02*
X41946521Y-81506221I-240021J-30D01*
G01*
X41226521Y-80770252D02*
G75*
G03*
X40986452Y-81010252I-21J-240048D01*
G01*
X39786521Y-81266170D02*
G75*
G02*
X39546521Y-81506221I-240021J-30D01*
G01*
X40626521Y-81506170D02*
G75*
G02*
X40386530Y-81266170I-21J239970D01*
G01*
X41586521Y-81010252D02*
G75*
G03*
X41346521Y-80770279I-240021J-48D01*
G01*
X42426521Y-80770246D02*
G75*
G03*
X42186546Y-81010246I-21J-239954D01*
G01*
X40986521Y-81266170D02*
G75*
G02*
X40746521Y-81506221I-240021J-30D01*
G01*
X40386521Y-81010246D02*
G75*
G03*
X40146521Y-80770179I-240021J46D01*
G01*
X42786521Y-81010246D02*
G75*
G03*
X42546521Y-80770179I-240021J46D01*
G01*
X41826521Y-81506170D02*
G75*
G02*
X41586530Y-81266170I-21J239970D01*
G01*
X40026521Y-80770246D02*
G75*
G03*
X39786546Y-81010246I-21J-239954D01*
G01*
%TO.N,/Out_11-*%
X40770548Y-72577339D02*
X40770548Y-72197794D01*
X40530548Y-71957794D02*
X40410548Y-71957794D01*
X39330548Y-71957794D02*
X39210548Y-71957794D01*
X39930548Y-72817339D02*
X39810548Y-72817339D01*
X41300000Y-72817339D02*
X41300000Y-72817340D01*
X41300000Y-72817339D02*
X41010548Y-72817339D01*
X38970548Y-72197794D02*
X38970548Y-72577339D01*
X40170548Y-72197794D02*
X40170548Y-72577339D01*
X44234288Y-72604970D02*
X44495030Y-72604970D01*
X39570548Y-72577339D02*
X39570548Y-72197794D01*
X42541830Y-72612494D02*
X42541830Y-72673170D01*
X42686000Y-72817340D02*
X44021919Y-72817339D01*
X37011692Y-71680000D02*
X38149031Y-72817339D01*
X44021919Y-72817339D02*
X44234288Y-72604970D01*
X41916000Y-72140664D02*
X42070000Y-72140664D01*
X37011692Y-71680000D02*
X36290000Y-71680000D01*
X44495030Y-72604970D02*
X45225000Y-71875000D01*
X38149031Y-72817339D02*
X38730548Y-72817339D01*
X41444170Y-72673170D02*
X41444170Y-72612494D01*
X39810548Y-72817339D02*
G75*
G02*
X39570461Y-72577339I-48J240039D01*
G01*
X40770548Y-72197794D02*
G75*
G03*
X40530548Y-71957752I-240048J-6D01*
G01*
X42070000Y-72140664D02*
G75*
G02*
X42541836Y-72612494I0J-471836D01*
G01*
X41300000Y-72817340D02*
G75*
G03*
X41444140Y-72673170I0J144140D01*
G01*
X39210548Y-71957794D02*
G75*
G03*
X38970494Y-72197794I-48J-240006D01*
G01*
X38970548Y-72577339D02*
G75*
G02*
X38730548Y-72817348I-240048J39D01*
G01*
X41010548Y-72817339D02*
G75*
G02*
X40770461Y-72577339I-48J240039D01*
G01*
X40410548Y-71957794D02*
G75*
G03*
X40170494Y-72197794I-48J-240006D01*
G01*
X41444170Y-72612494D02*
G75*
G02*
X41916000Y-72140670I471830J-6D01*
G01*
X39570548Y-72197794D02*
G75*
G03*
X39330548Y-71957752I-240048J-6D01*
G01*
X42541830Y-72673170D02*
G75*
G03*
X42686000Y-72817370I144170J-30D01*
G01*
X40170548Y-72577339D02*
G75*
G02*
X39930548Y-72817348I-240048J39D01*
G01*
%TO.N,/Out_5-*%
X38249088Y-56440000D02*
X38369088Y-56440000D01*
X44009970Y-56049288D02*
X44009970Y-56310030D01*
X44495030Y-55824970D02*
X44234288Y-55824970D01*
X37649088Y-55559753D02*
X37769088Y-55559753D01*
X38009088Y-55799753D02*
X38009088Y-56200000D01*
X44234288Y-55824970D02*
X44009970Y-56049288D01*
X36290000Y-56440000D02*
X37169088Y-56440000D01*
X43132388Y-57187612D02*
X42880000Y-57187612D01*
X44009970Y-56310030D02*
X43880000Y-56440000D01*
X37409088Y-56200000D02*
X37409088Y-55799753D01*
X38849088Y-55559753D02*
X38969088Y-55559753D01*
X39449088Y-56440000D02*
X39569088Y-56440000D01*
X39569088Y-56440000D02*
X40997425Y-56440000D01*
X41880000Y-56440000D02*
X41220602Y-56440000D01*
X42132388Y-56440000D02*
X41880000Y-56440000D01*
X40997425Y-56440000D02*
X41220602Y-56440000D01*
X38609088Y-56200000D02*
X38609088Y-55799753D01*
X39209088Y-55799753D02*
X39209088Y-56200000D01*
X45225000Y-55095000D02*
X44495030Y-55824970D01*
X38009088Y-56200000D02*
G75*
G03*
X38249088Y-56440012I240012J0D01*
G01*
X38969088Y-55559753D02*
G75*
G02*
X39209147Y-55799753I12J-240047D01*
G01*
X37769088Y-55559753D02*
G75*
G02*
X38009147Y-55799753I12J-240047D01*
G01*
X37409088Y-55799753D02*
G75*
G02*
X37649088Y-55559788I240012J-47D01*
G01*
X38609088Y-55799753D02*
G75*
G02*
X38849088Y-55559788I240012J-47D01*
G01*
X39209088Y-56200000D02*
G75*
G03*
X39449088Y-56440012I240012J0D01*
G01*
X43342364Y-56977636D02*
G75*
G02*
X43132388Y-57187564I-209964J36D01*
G01*
X42880000Y-57187612D02*
G75*
G02*
X42669988Y-56977636I0J210012D01*
G01*
X42670024Y-56977636D02*
G75*
G03*
X42132388Y-56439976I-537624J36D01*
G01*
X37169088Y-56440000D02*
G75*
G03*
X37409100Y-56200000I12J240000D01*
G01*
X43880000Y-56440000D02*
G75*
G03*
X43342400Y-56977636I0J-537600D01*
G01*
X38369088Y-56440000D02*
G75*
G03*
X38609100Y-56200000I12J240000D01*
G01*
%TO.N,/Out_7-*%
X44009970Y-61129288D02*
X44009970Y-61390030D01*
X42629781Y-62092864D02*
X42629781Y-62055830D01*
X38679957Y-61520000D02*
X38815957Y-61520000D01*
X44234288Y-60904970D02*
X44009970Y-61129288D01*
X39767957Y-60901846D02*
X39767957Y-61248000D01*
X36290000Y-61520000D02*
X37455957Y-61520000D01*
X43023951Y-62301034D02*
X42837951Y-62301034D01*
X43232121Y-62055830D02*
X43232121Y-62092864D01*
X37999957Y-60629840D02*
X38135957Y-60629840D01*
X39087957Y-61248000D02*
X39087957Y-60901846D01*
X44495030Y-60904970D02*
X44234288Y-60904970D01*
X44009970Y-61390030D02*
X43880000Y-61520000D01*
X39359957Y-60629846D02*
X39495957Y-60629846D01*
X43880000Y-61520000D02*
X43767951Y-61520000D01*
X37727957Y-61248000D02*
X37727957Y-60901840D01*
X45225000Y-60175000D02*
X44495030Y-60904970D01*
X40039957Y-61520000D02*
X42093951Y-61520000D01*
X38407957Y-60901840D02*
X38407957Y-61248000D01*
X43767951Y-61520000D02*
G75*
G03*
X43232200Y-62055830I49J-535800D01*
G01*
X39087957Y-60901846D02*
G75*
G02*
X39359957Y-60629757I272043J46D01*
G01*
X37455957Y-61520000D02*
G75*
G03*
X37728000Y-61248000I43J272000D01*
G01*
X39767957Y-61248000D02*
G75*
G03*
X40039957Y-61520043I272043J0D01*
G01*
X38135957Y-60629840D02*
G75*
G02*
X38407960Y-60901840I43J-271960D01*
G01*
X38407957Y-61248000D02*
G75*
G03*
X38679957Y-61520043I272043J0D01*
G01*
X37727957Y-60901840D02*
G75*
G02*
X37999957Y-60629757I272043J40D01*
G01*
X42629781Y-62055830D02*
G75*
G03*
X42093951Y-61520019I-535781J30D01*
G01*
X43232121Y-62092864D02*
G75*
G02*
X43023951Y-62301121I-208221J-36D01*
G01*
X42837951Y-62301034D02*
G75*
G02*
X42629866Y-62092864I49J208134D01*
G01*
X38815957Y-61520000D02*
G75*
G03*
X39088000Y-61248000I43J272000D01*
G01*
X39495957Y-60629846D02*
G75*
G02*
X39767954Y-60901846I43J-271954D01*
G01*
%TO.N,/Out_6+*%
X42984754Y-60074983D02*
X42806754Y-60074983D01*
X45225000Y-58905000D02*
X44418382Y-58905000D01*
X35838494Y-60070030D02*
X34748464Y-58980000D01*
X36741506Y-60070030D02*
X35838494Y-60070030D01*
X37503876Y-59307660D02*
X36741506Y-60070030D01*
X43504584Y-59499830D02*
X43504584Y-59555153D01*
X44418382Y-58905000D02*
X44015722Y-59307660D01*
X34748464Y-58980000D02*
X33750000Y-58980000D01*
X42286924Y-59555153D02*
X42286924Y-59499830D01*
X37503876Y-59307660D02*
X42094754Y-59307660D01*
X44015722Y-59307660D02*
X43696754Y-59307660D01*
X42286924Y-59499830D02*
G75*
G03*
X42094754Y-59307676I-192124J30D01*
G01*
X43696754Y-59307660D02*
G75*
G03*
X43504660Y-59499830I46J-192140D01*
G01*
X43504584Y-59555153D02*
G75*
G02*
X42984754Y-60074984I-519784J-47D01*
G01*
X42806754Y-60074983D02*
G75*
G02*
X42287017Y-59555153I46J519783D01*
G01*
%TO.N,/Out_9-*%
X36290000Y-66600000D02*
X36931692Y-66600000D01*
X44021919Y-67737339D02*
X43858419Y-67737339D01*
X44495030Y-67524970D02*
X44234288Y-67524970D01*
X40109031Y-67121859D02*
X40109031Y-67497339D01*
X38909031Y-67121871D02*
X38909031Y-67497339D01*
X39149031Y-67737339D02*
X39269031Y-67737339D01*
X39749031Y-66881859D02*
X39869031Y-66881859D01*
X43107151Y-68488608D02*
X42858419Y-68488608D01*
X43858419Y-67737339D02*
X43858419Y-67737340D01*
X45225000Y-66795000D02*
X44495030Y-67524970D01*
X38549031Y-66881871D02*
X38669031Y-66881871D01*
X36931692Y-66600000D02*
X38069031Y-67737339D01*
X44234288Y-67524970D02*
X44021919Y-67737339D01*
X38309031Y-67497339D02*
X38309031Y-67121871D01*
X39509031Y-67497339D02*
X39509031Y-67121859D01*
X40349031Y-67737339D02*
X42107151Y-67737340D01*
X38069031Y-67737339D02*
G75*
G03*
X38309039Y-67497339I-31J240039D01*
G01*
X38309031Y-67121871D02*
G75*
G02*
X38549031Y-66881931I239969J-29D01*
G01*
X39869031Y-66881859D02*
G75*
G02*
X40109041Y-67121859I-31J-240041D01*
G01*
X38909031Y-67497339D02*
G75*
G03*
X39149031Y-67737269I239969J39D01*
G01*
X42646615Y-68276804D02*
G75*
G03*
X42107151Y-67737385I-539415J4D01*
G01*
X43318955Y-68276804D02*
G75*
G02*
X43107151Y-68488555I-211755J4D01*
G01*
X40109031Y-67497339D02*
G75*
G03*
X40349031Y-67737269I239969J39D01*
G01*
X39509031Y-67121859D02*
G75*
G02*
X39749031Y-66881931I239969J-41D01*
G01*
X39269031Y-67737339D02*
G75*
G03*
X39509039Y-67497339I-31J240039D01*
G01*
X38669031Y-66881871D02*
G75*
G02*
X38909029Y-67121871I-31J-240029D01*
G01*
X43858419Y-67737340D02*
G75*
G03*
X43318940Y-68276804I-19J-539460D01*
G01*
X42858419Y-68488608D02*
G75*
G02*
X42646592Y-68276804I-19J211808D01*
G01*
%TO.N,/Out_4+*%
X44418382Y-53825000D02*
X44063908Y-54179474D01*
X43136000Y-55008653D02*
X42950000Y-55008653D01*
X44063908Y-54179474D02*
X44015722Y-54227660D01*
X35838494Y-54990030D02*
X34748464Y-53900000D01*
X36741506Y-54990030D02*
X35838494Y-54990030D01*
X37503876Y-54227660D02*
X42206000Y-54227660D01*
X45225000Y-53825000D02*
X44418382Y-53825000D01*
X43671830Y-54435830D02*
X43671830Y-54472823D01*
X42414170Y-54472823D02*
X42414170Y-54435830D01*
X44015722Y-54227660D02*
X43880000Y-54227660D01*
X37503876Y-54227660D02*
X36741506Y-54990030D01*
X34748464Y-53900000D02*
X33750000Y-53900000D01*
X42950000Y-55008653D02*
G75*
G02*
X42414147Y-54472823I0J535853D01*
G01*
X43880000Y-54227660D02*
G75*
G03*
X43671860Y-54435830I0J-208140D01*
G01*
X42414170Y-54435830D02*
G75*
G03*
X42206000Y-54227630I-208170J30D01*
G01*
X43671830Y-54472823D02*
G75*
G02*
X43136000Y-55008630I-535830J23D01*
G01*
%TO.N,/Out_3+*%
X35838494Y-52450030D02*
X34748464Y-51360000D01*
X41944032Y-51687660D02*
X37503876Y-51687660D01*
X36741506Y-52450030D02*
X35838494Y-52450030D01*
X37503876Y-51687660D02*
X36741506Y-52450030D01*
X44357862Y-49273830D02*
X41944032Y-51687660D01*
X45225000Y-49745000D02*
X44753830Y-49273830D01*
X44753830Y-49273830D02*
X44357862Y-49273830D01*
X34748464Y-51360000D02*
X33750000Y-51360000D01*
%TO.N,/Out_0+*%
X35838494Y-44830030D02*
X36741506Y-44830030D01*
X43291329Y-41653830D02*
X43762499Y-42125000D01*
X33750000Y-43740000D02*
X34077660Y-44067660D01*
X37564032Y-44067660D02*
X39977862Y-41653830D01*
X37380030Y-44067660D02*
X37564032Y-44067660D01*
X39977862Y-41653830D02*
X43291329Y-41653830D01*
X37380030Y-44191506D02*
X37380030Y-44067660D01*
X43762499Y-42125000D02*
X45225000Y-42125000D01*
X34077660Y-44067660D02*
X35076124Y-44067660D01*
X36741506Y-44830030D02*
X37380030Y-44191506D01*
X35076124Y-44067660D02*
X35838494Y-44830030D01*
%TO.N,/Out_15-*%
X41251329Y-83463612D02*
X41251329Y-83806170D01*
X41851329Y-83806170D02*
X41851329Y-83463612D01*
X43051329Y-83806170D02*
X43051329Y-83463588D01*
X40651329Y-83806170D02*
X40651329Y-83463588D01*
X41011329Y-84046170D02*
X40891329Y-84046170D01*
X42211329Y-84046170D02*
X42091329Y-84046170D01*
X42811329Y-83223588D02*
X42691329Y-83223588D01*
X40051329Y-83463588D02*
X40051329Y-83806170D01*
X45225000Y-83575000D02*
X43762499Y-83575000D01*
X41611329Y-83223612D02*
X41491329Y-83223612D01*
X39177862Y-84046170D02*
X39811329Y-84046170D01*
X42451329Y-83463588D02*
X42451329Y-83806170D01*
X43762499Y-83575000D02*
X43291329Y-84046170D01*
X40411329Y-83223588D02*
X40291329Y-83223588D01*
X36971692Y-81840000D02*
X39177862Y-84046170D01*
X41491329Y-83223612D02*
G75*
G03*
X41251312Y-83463612I-29J-239988D01*
G01*
X40051329Y-83806170D02*
G75*
G02*
X39811329Y-84046229I-240029J-30D01*
G01*
X40291329Y-83223588D02*
G75*
G03*
X40051288Y-83463588I-29J-240012D01*
G01*
X40891329Y-84046170D02*
G75*
G02*
X40651330Y-83806170I-29J239970D01*
G01*
X43051329Y-83463588D02*
G75*
G03*
X42811329Y-83223571I-240029J-12D01*
G01*
X41851329Y-83463612D02*
G75*
G03*
X41611329Y-83223571I-240029J12D01*
G01*
X42691329Y-83223588D02*
G75*
G03*
X42451288Y-83463588I-29J-240012D01*
G01*
X42451329Y-83806170D02*
G75*
G02*
X42211329Y-84046229I-240029J-30D01*
G01*
X42091329Y-84046170D02*
G75*
G02*
X41851330Y-83806170I-29J239970D01*
G01*
X40651329Y-83463588D02*
G75*
G03*
X40411329Y-83223571I-240029J-12D01*
G01*
X41251329Y-83806170D02*
G75*
G02*
X41011329Y-84046229I-240029J-30D01*
G01*
X43291329Y-84046170D02*
G75*
G02*
X43051330Y-83806170I-29J239970D01*
G01*
%TO.N,/Out_12+*%
X43291329Y-76753830D02*
X43762499Y-77225000D01*
X39122138Y-76753830D02*
X43291329Y-76753830D01*
X37209922Y-74841614D02*
X39122138Y-76753830D01*
X35838494Y-75310030D02*
X36741506Y-75310030D01*
X33750000Y-74220000D02*
X34748464Y-74220000D01*
X34748464Y-74220000D02*
X35838494Y-75310030D01*
X36741506Y-75310030D02*
X37209922Y-74841614D01*
X43762499Y-77225000D02*
X45225000Y-77225000D01*
%TO.N,/Out_1+*%
X34270000Y-46800000D02*
X33750000Y-46280000D01*
X45225000Y-44665000D02*
X44753830Y-44193830D01*
X36741506Y-47370030D02*
X35838494Y-47370030D01*
X43163830Y-45467862D02*
X42024032Y-46607660D01*
X35268464Y-46800000D02*
X34270000Y-46800000D01*
X44753830Y-44193830D02*
X43940765Y-44193830D01*
X35838494Y-47370030D02*
X35268464Y-46800000D01*
X37503876Y-46607660D02*
X36741506Y-47370030D01*
X42024032Y-46607660D02*
X37503876Y-46607660D01*
X43940765Y-44193830D02*
X43163830Y-44970765D01*
X43163830Y-44970765D02*
X43163830Y-45467862D01*
%TO.N,/Out_6-*%
X44495030Y-58364970D02*
X44234288Y-58364970D01*
X43176924Y-59499830D02*
X43176924Y-59555153D01*
X39303133Y-58357233D02*
X39303133Y-58740000D01*
X43880000Y-58980000D02*
X43696754Y-58980000D01*
X38103133Y-58357233D02*
X38103133Y-58740000D01*
X37503133Y-58740000D02*
X37503133Y-58357233D01*
X44009970Y-58589288D02*
X44009970Y-58850030D01*
X39543133Y-58980000D02*
X42094754Y-58980000D01*
X44234288Y-58364970D02*
X44009970Y-58589288D01*
X38343133Y-58980000D02*
X38463133Y-58980000D01*
X44009970Y-58850030D02*
X43880000Y-58980000D01*
X36290000Y-58980000D02*
X37263133Y-58980000D01*
X38943133Y-58117233D02*
X39063133Y-58117233D01*
X38703133Y-58740000D02*
X38703133Y-58357233D01*
X37743133Y-58117233D02*
X37863133Y-58117233D01*
X45225000Y-57635000D02*
X44495030Y-58364970D01*
X42614584Y-59555153D02*
X42614584Y-59499830D01*
X42984754Y-59747323D02*
X42806754Y-59747323D01*
X39063133Y-58117233D02*
G75*
G02*
X39303067Y-58357233I-33J-239967D01*
G01*
X43176924Y-59555153D02*
G75*
G02*
X42984754Y-59747324I-192124J-47D01*
G01*
X42614584Y-59499830D02*
G75*
G03*
X42094754Y-58980016I-519784J30D01*
G01*
X37863133Y-58117233D02*
G75*
G02*
X38103067Y-58357233I-33J-239967D01*
G01*
X37503133Y-58357233D02*
G75*
G02*
X37743133Y-58117233I239967J33D01*
G01*
X42806754Y-59747323D02*
G75*
G02*
X42614677Y-59555153I46J192123D01*
G01*
X38103133Y-58740000D02*
G75*
G03*
X38343133Y-58979967I239967J0D01*
G01*
X37263133Y-58980000D02*
G75*
G03*
X37503100Y-58740000I-33J240000D01*
G01*
X43696754Y-58980000D02*
G75*
G03*
X43177000Y-59499830I46J-519800D01*
G01*
X38463133Y-58980000D02*
G75*
G03*
X38703100Y-58740000I-33J240000D01*
G01*
X38703133Y-58357233D02*
G75*
G02*
X38943133Y-58117233I239967J33D01*
G01*
X39303133Y-58740000D02*
G75*
G03*
X39543133Y-58979967I239967J0D01*
G01*
%TO.N,/Out_8+*%
X37179922Y-64711614D02*
X36741506Y-65150030D01*
X43330994Y-64833878D02*
X43170994Y-64833878D01*
X43014824Y-64990048D02*
X43014824Y-65041170D01*
X36741506Y-65150030D02*
X35838494Y-65150030D01*
X37993308Y-65525000D02*
X37179922Y-64711614D01*
X35838494Y-65150030D02*
X35076124Y-64387660D01*
X43487164Y-65041170D02*
X43487164Y-64990048D01*
X35076124Y-64387660D02*
X34077660Y-64387660D01*
X37993308Y-65525000D02*
X42530994Y-65525000D01*
X45225000Y-65525000D02*
X43970994Y-65525000D01*
X43170994Y-64833878D02*
G75*
G03*
X43014878Y-64990048I6J-156122D01*
G01*
X43970994Y-65525000D02*
G75*
G02*
X43487200Y-65041170I6J483800D01*
G01*
X43487164Y-64990048D02*
G75*
G03*
X43330994Y-64833836I-156164J48D01*
G01*
X43014824Y-65041170D02*
G75*
G02*
X42530994Y-65525024I-483824J-30D01*
G01*
%TO.N,/Out_11+*%
X35838494Y-72770030D02*
X36741506Y-72770030D01*
X42686000Y-73145000D02*
X45225000Y-73145000D01*
X33750000Y-71680000D02*
X34077660Y-72007660D01*
X41916000Y-72468324D02*
X42070000Y-72468324D01*
X35076124Y-72007660D02*
X35838494Y-72770030D01*
X36741506Y-72770030D02*
X37189922Y-72321614D01*
X41771830Y-72673170D02*
X41771830Y-72612494D01*
X34077660Y-72007660D02*
X35076124Y-72007660D01*
X42214170Y-72612494D02*
X42214170Y-72673170D01*
X37189922Y-72321614D02*
X38013308Y-73145000D01*
X38013308Y-73145000D02*
X41300000Y-73145000D01*
X41300000Y-73145000D02*
G75*
G03*
X41771800Y-72673170I0J471800D01*
G01*
X42070000Y-72468324D02*
G75*
G02*
X42214176Y-72612494I0J-144176D01*
G01*
X42214170Y-72673170D02*
G75*
G03*
X42686000Y-73145030I471830J-30D01*
G01*
X41771830Y-72612494D02*
G75*
G02*
X41916000Y-72468330I144170J-6D01*
G01*
%TO.N,/Out_13-*%
X45225000Y-78495000D02*
X43762499Y-78495000D01*
X40457718Y-78726170D02*
X40457718Y-78378876D01*
X43762499Y-78495000D02*
X43291329Y-78966170D01*
X40217718Y-78138876D02*
X40097718Y-78138876D01*
X41417718Y-78138852D02*
X41297718Y-78138852D01*
X42857718Y-78726170D02*
X42857718Y-78378852D01*
X41657718Y-78726170D02*
X41657718Y-78378852D01*
X36991692Y-76760000D02*
X39197862Y-78966170D01*
X41057718Y-78378852D02*
X41057718Y-78726170D01*
X42617718Y-78138852D02*
X42497718Y-78138852D01*
X39857718Y-78378876D02*
X39857718Y-78726170D01*
X42257718Y-78378852D02*
X42257718Y-78726170D01*
X43291329Y-78966170D02*
X43097718Y-78966170D01*
X42017718Y-78966170D02*
X41897718Y-78966170D01*
X39197862Y-78966170D02*
X39617718Y-78966170D01*
X40817718Y-78966170D02*
X40697718Y-78966170D01*
X39857718Y-78726170D02*
G75*
G02*
X39617718Y-78966218I-240018J-30D01*
G01*
X41297718Y-78138852D02*
G75*
G03*
X41057652Y-78378852I-18J-240048D01*
G01*
X42857718Y-78378852D02*
G75*
G03*
X42617718Y-78138882I-240018J-48D01*
G01*
X40097718Y-78138876D02*
G75*
G03*
X39857676Y-78378876I-18J-240024D01*
G01*
X43097718Y-78966170D02*
G75*
G02*
X42857730Y-78726170I-18J239970D01*
G01*
X41657718Y-78378852D02*
G75*
G03*
X41417718Y-78138882I-240018J-48D01*
G01*
X40697718Y-78966170D02*
G75*
G02*
X40457730Y-78726170I-18J239970D01*
G01*
X40457718Y-78378876D02*
G75*
G03*
X40217718Y-78138882I-240018J-24D01*
G01*
X41057718Y-78726170D02*
G75*
G02*
X40817718Y-78966218I-240018J-30D01*
G01*
X42497718Y-78138852D02*
G75*
G03*
X42257652Y-78378852I-18J-240048D01*
G01*
X41897718Y-78966170D02*
G75*
G02*
X41657730Y-78726170I-18J239970D01*
G01*
X42257718Y-78726170D02*
G75*
G02*
X42017718Y-78966218I-240018J-30D01*
G01*
%TO.N,/Out_0-*%
X38884211Y-41556183D02*
X39078461Y-41750433D01*
X41860000Y-41086170D02*
X41860000Y-40811435D01*
X41020000Y-41326170D02*
X40900000Y-41326170D01*
X38120501Y-41980415D02*
X38035648Y-42065267D01*
X41260000Y-40811435D02*
X41260000Y-41086170D01*
X40250000Y-41326170D02*
X39842138Y-41326170D01*
X40900000Y-41326170D02*
X40250000Y-41326170D01*
X38969064Y-41131919D02*
X38884211Y-41216771D01*
X37428308Y-43740000D02*
X36290000Y-43740000D01*
X38654197Y-42174699D02*
X38459913Y-41980415D01*
X38035648Y-42404679D02*
X38229931Y-42598962D01*
X38145080Y-43023227D02*
X37896349Y-43271959D01*
X45225000Y-40855000D02*
X43762499Y-40855000D01*
X37896349Y-43271959D02*
X37428308Y-43740000D01*
X43291329Y-41326170D02*
X42100000Y-41326170D01*
X39502726Y-41326170D02*
X39308475Y-41131919D01*
X38229931Y-42938374D02*
X38145080Y-43023227D01*
X39078461Y-42089844D02*
X38993609Y-42174698D01*
X38993609Y-42174698D02*
X38993609Y-42174699D01*
X43762499Y-40855000D02*
X43291329Y-41326170D01*
X41620000Y-40571435D02*
X41500000Y-40571435D01*
X39078461Y-41750433D02*
G75*
G02*
X39078423Y-42089805I-169661J-169667D01*
G01*
X39842138Y-41326170D02*
G75*
G02*
X39502726Y-41326170I-169706J169704D01*
G01*
X41860000Y-40811435D02*
G75*
G03*
X41620000Y-40571400I-240000J35D01*
G01*
X38229931Y-42598962D02*
G75*
G02*
X38229963Y-42938406I-169731J-169738D01*
G01*
X38884211Y-41216771D02*
G75*
G03*
X38884188Y-41556206I169689J-169729D01*
G01*
X39308475Y-41131919D02*
G75*
G03*
X38969065Y-41131919I-169705J-169703D01*
G01*
X38035648Y-42065267D02*
G75*
G03*
X38035621Y-42404706I169752J-169733D01*
G01*
X42100000Y-41326170D02*
G75*
G02*
X41860030Y-41086170I0J239970D01*
G01*
X41260000Y-41086170D02*
G75*
G02*
X41020000Y-41326200I-240000J-30D01*
G01*
X41500000Y-40571435D02*
G75*
G03*
X41260035Y-40811435I0J-239965D01*
G01*
X38459913Y-41980415D02*
G75*
G03*
X38120501Y-41980415I-169706J-169704D01*
G01*
X38993609Y-42174699D02*
G75*
G02*
X38654197Y-42174699I-169706J169704D01*
G01*
%TO.N,/Out_3-*%
X38928308Y-50604875D02*
X38808308Y-50604875D01*
X40368308Y-51120000D02*
X40368308Y-50844899D01*
X40128308Y-50604899D02*
X40008308Y-50604899D01*
X40728308Y-51360000D02*
X40608308Y-51360000D01*
X45225000Y-48475000D02*
X44753830Y-48946170D01*
X38568308Y-50844875D02*
X38568308Y-51120000D01*
X40968308Y-50844899D02*
X40968308Y-51120000D01*
X38328308Y-51360000D02*
X38208308Y-51360000D01*
X38208308Y-51360000D02*
X38100000Y-51360000D01*
X39768308Y-50844899D02*
X39768308Y-51120000D01*
X41568308Y-51120000D02*
X41568308Y-50844899D01*
X41328308Y-50604899D02*
X41208308Y-50604899D01*
X41935421Y-51232887D02*
X41808308Y-51360000D01*
X39528308Y-51360000D02*
X39408308Y-51360000D01*
X38100000Y-51360000D02*
X36290000Y-51360000D01*
X44222138Y-48946170D02*
X41935421Y-51232887D01*
X39168308Y-51120000D02*
X39168308Y-50844875D01*
X44753830Y-48946170D02*
X44222138Y-48946170D01*
X39408308Y-51360000D02*
G75*
G02*
X39168300Y-51120000I-8J240000D01*
G01*
X40968308Y-51120000D02*
G75*
G02*
X40728308Y-51360008I-240008J0D01*
G01*
X41808308Y-51360000D02*
G75*
G02*
X41568300Y-51120000I-8J240000D01*
G01*
X40368308Y-50844899D02*
G75*
G03*
X40128308Y-50604892I-240008J-1D01*
G01*
X41208308Y-50604899D02*
G75*
G03*
X40968299Y-50844899I-8J-240001D01*
G01*
X38808308Y-50604875D02*
G75*
G03*
X38568275Y-50844875I-8J-240025D01*
G01*
X40608308Y-51360000D02*
G75*
G02*
X40368300Y-51120000I-8J240000D01*
G01*
X38568308Y-51120000D02*
G75*
G02*
X38328308Y-51360008I-240008J0D01*
G01*
X39168308Y-50844875D02*
G75*
G03*
X38928308Y-50604892I-240008J-25D01*
G01*
X39768308Y-51120000D02*
G75*
G02*
X39528308Y-51360008I-240008J0D01*
G01*
X40008308Y-50604899D02*
G75*
G03*
X39768299Y-50844899I-8J-240001D01*
G01*
X41568308Y-50844899D02*
G75*
G03*
X41328308Y-50604892I-240008J-1D01*
G01*
%TO.N,/Out_4-*%
X43344170Y-54435830D02*
X43344170Y-54472823D01*
X39812583Y-53255750D02*
X39812583Y-53688000D01*
X41190583Y-53043750D02*
X41084583Y-53043750D01*
X44234288Y-53284970D02*
X44009970Y-53509288D01*
X44009970Y-53509288D02*
X44009970Y-53770030D01*
X43136000Y-54680993D02*
X42950000Y-54680993D01*
X42206000Y-53900000D02*
X41614583Y-53900000D01*
X40660583Y-53900000D02*
X40554583Y-53900000D01*
X44009970Y-53770030D02*
X43880000Y-53900000D01*
X37800000Y-53900000D02*
X36290000Y-53900000D01*
X40872583Y-53255750D02*
X40872583Y-53688000D01*
X45225000Y-52555000D02*
X44495030Y-53284970D01*
X42741830Y-54472823D02*
X42741830Y-54435830D01*
X40130583Y-53043750D02*
X40024583Y-53043750D01*
X44495030Y-53284970D02*
X44234288Y-53284970D01*
X40342583Y-53688000D02*
X40342583Y-53255750D01*
X39600583Y-53900000D02*
X39494583Y-53900000D01*
X41402583Y-53688000D02*
X41402583Y-53255750D01*
X39494583Y-53900000D02*
X37800000Y-53900000D01*
X43880000Y-53900000D02*
G75*
G03*
X43344200Y-54435830I0J-535800D01*
G01*
X40024583Y-53043750D02*
G75*
G03*
X39812650Y-53255750I17J-211950D01*
G01*
X42741830Y-54435830D02*
G75*
G03*
X42206000Y-53899970I-535830J30D01*
G01*
X40872583Y-53688000D02*
G75*
G02*
X40660583Y-53899983I-211983J0D01*
G01*
X41084583Y-53043750D02*
G75*
G03*
X40872650Y-53255750I17J-211950D01*
G01*
X40554583Y-53900000D02*
G75*
G02*
X40342600Y-53688000I17J212000D01*
G01*
X42950000Y-54680993D02*
G75*
G02*
X42741807Y-54472823I0J208193D01*
G01*
X43344170Y-54472823D02*
G75*
G02*
X43136000Y-54680970I-208170J23D01*
G01*
X40342583Y-53255750D02*
G75*
G03*
X40130583Y-53043717I-211983J50D01*
G01*
X41402583Y-53255750D02*
G75*
G03*
X41190583Y-53043717I-211983J50D01*
G01*
X41614583Y-53900000D02*
G75*
G02*
X41402600Y-53688000I17J212000D01*
G01*
X39812583Y-53688000D02*
G75*
G02*
X39600583Y-53899983I-211983J0D01*
G01*
%TO.N,/Out_10-*%
X40820508Y-70277339D02*
X40700508Y-70277339D01*
X40220508Y-69426351D02*
X40100508Y-69426351D01*
X43700000Y-70277339D02*
X43700000Y-70277340D01*
X44495030Y-70064970D02*
X44234288Y-70064970D01*
X38009031Y-70277339D02*
X39620508Y-70277339D01*
X45225000Y-69335000D02*
X44495030Y-70064970D01*
X36871692Y-69140000D02*
X38009031Y-70277339D01*
X43100000Y-70976159D02*
X42950000Y-70976159D01*
X41060508Y-69666339D02*
X41060508Y-70037339D01*
X41900508Y-70277339D02*
X42350000Y-70277340D01*
X44234288Y-70064970D02*
X44021919Y-70277339D01*
X40460508Y-70037339D02*
X40460508Y-69666351D01*
X36871692Y-69140000D02*
X36290000Y-69140000D01*
X44021919Y-70277339D02*
X43700000Y-70277339D01*
X43236170Y-70741170D02*
X43236170Y-70839989D01*
X39860508Y-69666351D02*
X39860508Y-70037339D01*
X41420508Y-69426339D02*
X41300508Y-69426339D01*
X41660508Y-70037339D02*
X41660508Y-69666339D01*
X42813830Y-70839989D02*
X42813830Y-70741170D01*
X42813830Y-70741170D02*
G75*
G03*
X42350000Y-70277370I-463830J-30D01*
G01*
X40100508Y-69426351D02*
G75*
G03*
X39860551Y-69666351I-8J-239949D01*
G01*
X41900508Y-70277339D02*
G75*
G02*
X41660461Y-70037339I-8J240039D01*
G01*
X41300508Y-69426339D02*
G75*
G03*
X41060539Y-69666339I-8J-239961D01*
G01*
X40700508Y-70277339D02*
G75*
G02*
X40460461Y-70037339I-8J240039D01*
G01*
X42950000Y-70976159D02*
G75*
G02*
X42813841Y-70839989I0J136159D01*
G01*
X39860508Y-70037339D02*
G75*
G02*
X39620508Y-70277308I-240008J39D01*
G01*
X43700000Y-70277340D02*
G75*
G03*
X43236140Y-70741170I0J-463860D01*
G01*
X41060508Y-70037339D02*
G75*
G02*
X40820508Y-70277308I-240008J39D01*
G01*
X41660508Y-69666339D02*
G75*
G03*
X41420508Y-69426292I-240008J39D01*
G01*
X43236170Y-70839989D02*
G75*
G02*
X43100000Y-70976170I-136170J-11D01*
G01*
X40460508Y-69666351D02*
G75*
G03*
X40220508Y-69426292I-240008J51D01*
G01*
%TO.N,/Out_15+*%
X33750000Y-81840000D02*
X34748464Y-81840000D01*
X39042138Y-84373830D02*
X43291329Y-84373830D01*
X36741506Y-82930030D02*
X37169922Y-82501614D01*
X35838494Y-82930030D02*
X36741506Y-82930030D01*
X43762499Y-84845000D02*
X45225000Y-84845000D01*
X43291329Y-84373830D02*
X43762499Y-84845000D01*
X37169922Y-82501614D02*
X39042138Y-84373830D01*
X34748464Y-81840000D02*
X35838494Y-82930030D01*
%TO.N,/Out_2+*%
X41870862Y-49147660D02*
X37503876Y-49147660D01*
X34748464Y-48820000D02*
X33750000Y-48820000D01*
X44284692Y-46733830D02*
X41870862Y-49147660D01*
X45225000Y-47205000D02*
X44753830Y-46733830D01*
X35838494Y-49910030D02*
X34748464Y-48820000D01*
X37503876Y-49147660D02*
X36741506Y-49910030D01*
X44753830Y-46733830D02*
X44284692Y-46733830D01*
X36741506Y-49910030D02*
X35838494Y-49910030D01*
%TO.N,/Out_9+*%
X35076124Y-66927660D02*
X34077660Y-66927660D01*
X34077660Y-66927660D02*
X33750000Y-66600000D01*
X45225000Y-68065000D02*
X43858419Y-68065000D01*
X37933308Y-68065000D02*
X42107151Y-68065000D01*
X36741506Y-67690030D02*
X35838494Y-67690030D01*
X37149922Y-67281614D02*
X36741506Y-67690030D01*
X43107151Y-68816268D02*
X42858419Y-68816268D01*
X37933308Y-68065000D02*
X37149922Y-67281614D01*
X35838494Y-67690030D02*
X35076124Y-66927660D01*
X42318955Y-68276804D02*
G75*
G03*
X42107151Y-68065045I-211755J4D01*
G01*
X42858419Y-68816268D02*
G75*
G02*
X42318932Y-68276804I-19J539468D01*
G01*
X43646615Y-68276804D02*
G75*
G02*
X43107151Y-68816215I-539415J4D01*
G01*
X43858419Y-68065000D02*
G75*
G03*
X43646600Y-68276804I-19J-211800D01*
G01*
%TO.N,/Out_10+*%
X45225000Y-70605000D02*
X43700000Y-70605000D01*
X35838494Y-70230030D02*
X35076124Y-69467660D01*
X43100000Y-71303819D02*
X42950000Y-71303819D01*
X36741506Y-70230030D02*
X35838494Y-70230030D01*
X35076124Y-69467660D02*
X34077660Y-69467660D01*
X37873308Y-70605000D02*
X37119922Y-69851614D01*
X37873308Y-70605000D02*
X42350000Y-70605000D01*
X42486170Y-70839989D02*
X42486170Y-70741170D01*
X37119922Y-69851614D02*
X36741506Y-70230030D01*
X43563830Y-70741170D02*
X43563830Y-70839989D01*
X34077660Y-69467660D02*
X33750000Y-69140000D01*
X42950000Y-71303819D02*
G75*
G02*
X42486181Y-70839989I0J463819D01*
G01*
X42486170Y-70741170D02*
G75*
G03*
X42350000Y-70605030I-136170J-30D01*
G01*
X43700000Y-70605000D02*
G75*
G03*
X43563800Y-70741170I0J-136200D01*
G01*
X43563830Y-70839989D02*
G75*
G02*
X43100000Y-71303830I-463830J-11D01*
G01*
%TO.N,/Out_14+*%
X35076124Y-79627660D02*
X35838494Y-80390030D01*
X43762499Y-82305000D02*
X45225000Y-82305000D01*
X34077660Y-79627660D02*
X35076124Y-79627660D01*
X37149922Y-79981614D02*
X39002138Y-81833830D01*
X43291329Y-81833830D02*
X43762499Y-82305000D01*
X39002138Y-81833830D02*
X43291329Y-81833830D01*
X35838494Y-80390030D02*
X36741506Y-80390030D01*
X36741506Y-80390030D02*
X37149922Y-79981614D01*
%TO.N,/Out_13+*%
X37179922Y-77411614D02*
X36741506Y-77850030D01*
X34748464Y-76760000D02*
X33750000Y-76760000D01*
X43762499Y-79765000D02*
X43291329Y-79293830D01*
X43291329Y-79293830D02*
X39062138Y-79293830D01*
X35838494Y-77850030D02*
X34748464Y-76760000D01*
X39062138Y-79293830D02*
X37179922Y-77411614D01*
X36741506Y-77850030D02*
X35838494Y-77850030D01*
X45225000Y-79765000D02*
X43762499Y-79765000D01*
%TO.N,/Out_7+*%
X36741506Y-62610030D02*
X35838494Y-62610030D01*
X35838494Y-62610030D02*
X35076124Y-61847660D01*
X42302121Y-62092864D02*
X42302121Y-62055830D01*
X37503876Y-61847660D02*
X42093951Y-61847660D01*
X35076124Y-61847660D02*
X34077660Y-61847660D01*
X44418382Y-61445000D02*
X44015722Y-61847660D01*
X44015722Y-61847660D02*
X43767951Y-61847660D01*
X37503876Y-61847660D02*
X36741506Y-62610030D01*
X43559781Y-62055830D02*
X43559781Y-62092864D01*
X43023951Y-62628694D02*
X42837951Y-62628694D01*
X42302121Y-62055830D02*
G75*
G03*
X42093951Y-61847579I-208221J30D01*
G01*
X42837951Y-62628694D02*
G75*
G02*
X42302206Y-62092864I49J535794D01*
G01*
X43767951Y-61847660D02*
G75*
G03*
X43559860Y-62055830I49J-208140D01*
G01*
X43559781Y-62092864D02*
G75*
G02*
X43023951Y-62628681I-535781J-36D01*
G01*
%TO.N,/Out_2-*%
X41176278Y-48580000D02*
X41176278Y-48304851D01*
X40336278Y-48820000D02*
X40216278Y-48820000D01*
X39376278Y-48304852D02*
X39376278Y-48580000D01*
X40936278Y-48064851D02*
X40816278Y-48064851D01*
X37400000Y-48820000D02*
X36290000Y-48820000D01*
X44148968Y-46406170D02*
X41735138Y-48820000D01*
X38536278Y-48064851D02*
X38416278Y-48064851D01*
X45225000Y-45935000D02*
X44753830Y-46406170D01*
X39136278Y-48820000D02*
X39016278Y-48820000D01*
X38776278Y-48580000D02*
X38776278Y-48304851D01*
X38176278Y-48304851D02*
X38176278Y-48580000D01*
X40576278Y-48304851D02*
X40576278Y-48580000D01*
X37936278Y-48820000D02*
X37816278Y-48820000D01*
X39736278Y-48064852D02*
X39616278Y-48064852D01*
X37816278Y-48820000D02*
X37400000Y-48820000D01*
X39976278Y-48580000D02*
X39976278Y-48304852D01*
X44753830Y-46406170D02*
X44148968Y-46406170D01*
X41735138Y-48820000D02*
X41416278Y-48820000D01*
X38416278Y-48064851D02*
G75*
G03*
X38176351Y-48304851I22J-239949D01*
G01*
X39616278Y-48064852D02*
G75*
G03*
X39376252Y-48304852I22J-240048D01*
G01*
X39976278Y-48304852D02*
G75*
G03*
X39736278Y-48064922I-239978J-48D01*
G01*
X40576278Y-48580000D02*
G75*
G02*
X40336278Y-48819978I-239978J0D01*
G01*
X38776278Y-48304851D02*
G75*
G03*
X38536278Y-48064822I-239978J51D01*
G01*
X40216278Y-48820000D02*
G75*
G02*
X39976300Y-48580000I22J240000D01*
G01*
X41416278Y-48820000D02*
G75*
G02*
X41176300Y-48580000I22J240000D01*
G01*
X40816278Y-48064851D02*
G75*
G03*
X40576351Y-48304851I22J-239949D01*
G01*
X41176278Y-48304851D02*
G75*
G03*
X40936278Y-48064822I-239978J51D01*
G01*
X39016278Y-48820000D02*
G75*
G02*
X38776300Y-48580000I22J240000D01*
G01*
X38176278Y-48580000D02*
G75*
G02*
X37936278Y-48819978I-239978J0D01*
G01*
X39376278Y-48580000D02*
G75*
G02*
X39136278Y-48819978I-239978J0D01*
G01*
%TO.N,/Out_12-*%
X40306714Y-75584716D02*
X40186714Y-75584716D01*
X43291329Y-76426170D02*
X43186714Y-76426170D01*
X41146714Y-75824740D02*
X41146714Y-76186170D01*
X42346714Y-75824716D02*
X42346714Y-76186170D01*
X41746714Y-76186170D02*
X41746714Y-75824740D01*
X39946714Y-75824716D02*
X39946714Y-76186170D01*
X40546714Y-76186170D02*
X40546714Y-75824716D01*
X42706714Y-75584716D02*
X42586714Y-75584716D01*
X45225000Y-75955000D02*
X43762499Y-75955000D01*
X42106714Y-76426170D02*
X41986714Y-76426170D01*
X43762499Y-75955000D02*
X43291329Y-76426170D01*
X42946714Y-76186170D02*
X42946714Y-75824716D01*
X39257862Y-76426170D02*
X39706714Y-76426170D01*
X41506714Y-75584740D02*
X41386714Y-75584740D01*
X37051692Y-74220000D02*
X39257862Y-76426170D01*
X40906714Y-76426170D02*
X40786714Y-76426170D01*
X39946714Y-76186170D02*
G75*
G02*
X39706714Y-76426214I-240014J-30D01*
G01*
X41986714Y-76426170D02*
G75*
G02*
X41746730Y-76186170I-14J239970D01*
G01*
X42586714Y-75584716D02*
G75*
G03*
X42346716Y-75824716I-14J-239984D01*
G01*
X41146714Y-76186170D02*
G75*
G02*
X40906714Y-76426214I-240014J-30D01*
G01*
X42946714Y-75824716D02*
G75*
G03*
X42706714Y-75584686I-240014J16D01*
G01*
X43186714Y-76426170D02*
G75*
G02*
X42946730Y-76186170I-14J239970D01*
G01*
X40186714Y-75584716D02*
G75*
G03*
X39946716Y-75824716I-14J-239984D01*
G01*
X42346714Y-76186170D02*
G75*
G02*
X42106714Y-76426214I-240014J-30D01*
G01*
X41746714Y-75824740D02*
G75*
G03*
X41506714Y-75584686I-240014J40D01*
G01*
X41386714Y-75584740D02*
G75*
G03*
X41146740Y-75824740I-14J-239960D01*
G01*
X40546714Y-75824716D02*
G75*
G03*
X40306714Y-75584686I-240014J16D01*
G01*
X40786714Y-76426170D02*
G75*
G02*
X40546730Y-76186170I-14J239970D01*
G01*
D19*
%TO.N,/D16*%
X116532000Y-71372000D02*
X116532000Y-70866000D01*
X80530000Y-87020000D02*
X99951500Y-87020000D01*
X115740500Y-72163500D02*
X116532000Y-71372000D01*
X114808000Y-72163500D02*
X115740500Y-72163500D01*
X112722000Y-71372000D02*
X113513500Y-72163500D01*
X112722000Y-70866000D02*
X112722000Y-71372000D01*
X113513500Y-72163500D02*
X114808000Y-72163500D01*
X99951500Y-87020000D02*
X114808000Y-72163500D01*
%TO.N,/D18*%
X96656090Y-77107407D02*
X96871618Y-77322936D01*
X95793986Y-77969515D02*
X95094362Y-78669138D01*
X99134646Y-74197801D02*
X98858591Y-73921746D01*
X98272542Y-75490961D02*
X98272540Y-75490960D01*
X95901750Y-77861753D02*
X95793986Y-77969515D01*
X97733724Y-76029776D02*
X98225305Y-76521357D01*
X99622000Y-71372000D02*
X100413500Y-72163500D01*
X97686489Y-77060174D02*
X97194909Y-76568594D01*
X102640500Y-72163500D02*
X103432000Y-71372000D01*
X98811357Y-74952143D02*
X99302938Y-75443724D01*
X97194907Y-76568593D02*
X96703326Y-76077012D01*
X96164510Y-76615827D02*
X96656090Y-77107407D01*
X97349907Y-74999379D02*
X97242143Y-75107142D01*
X98225305Y-76952409D02*
X98117541Y-77060174D01*
X96608856Y-78137807D02*
X96332802Y-77861753D01*
X95094362Y-78669138D02*
X94363500Y-79400000D01*
X97194909Y-76568594D02*
X97194907Y-76568593D01*
X98595829Y-74736615D02*
X98811357Y-74952143D01*
X99622000Y-70866000D02*
X99622000Y-71372000D01*
X101600000Y-72163500D02*
X99565699Y-74197801D01*
X99302938Y-75874776D02*
X99195174Y-75982541D01*
X103432000Y-71372000D02*
X103432000Y-70866000D01*
X101600000Y-72163500D02*
X102640500Y-72163500D01*
X100413500Y-72163500D02*
X101600000Y-72163500D01*
X98764122Y-75982541D02*
X98272542Y-75490961D01*
X94363500Y-79400000D02*
X80530000Y-79400000D01*
X96272274Y-76077012D02*
X96164510Y-76184775D01*
X97147672Y-78030042D02*
X97039908Y-78137807D01*
X98272540Y-75490960D02*
X97780959Y-74999379D01*
X97242143Y-75538194D02*
X97733723Y-76029774D01*
X98427539Y-73921746D02*
X98319775Y-74029509D01*
X98319775Y-74460561D02*
X98595829Y-74736615D01*
X96871618Y-77322936D02*
X97147672Y-77598990D01*
X97733723Y-76029774D02*
X97733724Y-76029776D01*
X97147672Y-77598990D02*
G75*
G02*
X97147656Y-78030026I-215572J-215510D01*
G01*
X98319775Y-74029509D02*
G75*
G03*
X98319810Y-74460526I215525J-215491D01*
G01*
X97780959Y-74999379D02*
G75*
G03*
X97349907Y-74999379I-215526J-215525D01*
G01*
X98117541Y-77060174D02*
G75*
G02*
X97686489Y-77060174I-215526J215525D01*
G01*
X98858591Y-73921746D02*
G75*
G03*
X98427539Y-73921746I-215526J-215525D01*
G01*
X96703326Y-76077012D02*
G75*
G03*
X96272274Y-76077012I-215526J-215525D01*
G01*
X99565699Y-74197801D02*
G75*
G02*
X99134647Y-74197801I-215526J215526D01*
G01*
X96164510Y-76184775D02*
G75*
G03*
X96164511Y-76615826I215490J-215525D01*
G01*
X98225305Y-76521357D02*
G75*
G02*
X98225322Y-76952426I-215505J-215543D01*
G01*
X97039908Y-78137807D02*
G75*
G02*
X96608856Y-78137807I-215526J215525D01*
G01*
X99195174Y-75982541D02*
G75*
G02*
X98764122Y-75982541I-215526J215525D01*
G01*
X96332802Y-77861753D02*
G75*
G03*
X95901750Y-77861753I-215526J-215525D01*
G01*
X97242143Y-75107142D02*
G75*
G03*
X97242111Y-75538226I215557J-215558D01*
G01*
X99302938Y-75443724D02*
G75*
G02*
X99302988Y-75874826I-215538J-215576D01*
G01*
%TO.N,/D7*%
X59658429Y-61585000D02*
X59693429Y-61620000D01*
X57350384Y-61585000D02*
X57502784Y-61585000D01*
X57502784Y-61585000D02*
X59658429Y-61585000D01*
X59693429Y-61620000D02*
X62750000Y-61620000D01*
X56283584Y-61018634D02*
X56283584Y-62101388D01*
X52675000Y-60175000D02*
X54085000Y-61585000D01*
X56588384Y-62406188D02*
X56740784Y-62406188D01*
X55826384Y-60713834D02*
X55978784Y-60713834D01*
X55521584Y-61280200D02*
X55521584Y-61018634D01*
X54085000Y-61585000D02*
X55216784Y-61585000D01*
X50175000Y-60175000D02*
X52675000Y-60175000D01*
X57045584Y-62101388D02*
X57045584Y-61889800D01*
X55978784Y-60713834D02*
G75*
G02*
X56283566Y-61018634I16J-304766D01*
G01*
X56283584Y-62101388D02*
G75*
G03*
X56588384Y-62406216I304816J-12D01*
G01*
X56740784Y-62406188D02*
G75*
G03*
X57045588Y-62101388I16J304788D01*
G01*
X55521584Y-61018634D02*
G75*
G02*
X55826384Y-60713784I304816J34D01*
G01*
X57045584Y-61889800D02*
G75*
G02*
X57350384Y-61584984I304816J0D01*
G01*
X55216784Y-61585000D02*
G75*
G03*
X55521600Y-61280200I16J304800D01*
G01*
%TO.N,/D3*%
X55295307Y-48281272D02*
X55295307Y-49059992D01*
X56057307Y-49059992D02*
X56057307Y-47890027D01*
X56819307Y-47890027D02*
X56819307Y-49059992D01*
X56362107Y-47585227D02*
X56514507Y-47585227D01*
X58038507Y-48475000D02*
X61000000Y-48475000D01*
X57886107Y-48475000D02*
X58038507Y-48475000D01*
X50175000Y-48475000D02*
X54258307Y-48475000D01*
X57581307Y-49059992D02*
X57581307Y-48779800D01*
X57124107Y-49364792D02*
X57276507Y-49364792D01*
X54645763Y-48087544D02*
X55101579Y-48087544D01*
X55600107Y-49364792D02*
X55752507Y-49364792D01*
X55295307Y-49059992D02*
G75*
G03*
X55600107Y-49364793I304793J-8D01*
G01*
X54258307Y-48475000D02*
G75*
G03*
X54452000Y-48281272I-7J193700D01*
G01*
X57581307Y-48779800D02*
G75*
G02*
X57886107Y-48475007I304793J0D01*
G01*
X55752507Y-49364792D02*
G75*
G03*
X56057292Y-49059992I-7J304792D01*
G01*
X57276507Y-49364792D02*
G75*
G03*
X57581292Y-49059992I-7J304792D01*
G01*
X55101579Y-48087544D02*
G75*
G02*
X55295356Y-48281272I21J-193756D01*
G01*
X56057307Y-47890027D02*
G75*
G02*
X56362107Y-47585207I304793J27D01*
G01*
X56819307Y-49059992D02*
G75*
G03*
X57124107Y-49364793I304793J-8D01*
G01*
X56514507Y-47585227D02*
G75*
G02*
X56819273Y-47890027I-7J-304773D01*
G01*
X54452035Y-48281272D02*
G75*
G02*
X54645763Y-48087535I193765J-28D01*
G01*
%TO.N,/D0*%
X53475000Y-42125000D02*
X54176820Y-41423182D01*
X55349955Y-41097251D02*
X55024024Y-41423183D01*
X50175000Y-42125000D02*
X53475000Y-42125000D01*
X55138153Y-40461847D02*
X55349955Y-40673649D01*
X55131616Y-39412500D02*
X54874181Y-39669934D01*
X62715000Y-38725000D02*
X56875000Y-38725000D01*
X56875000Y-38725000D02*
X56187500Y-39412500D01*
X54874181Y-40197875D02*
X55138151Y-40461845D01*
X55138151Y-40461845D02*
X55138153Y-40461847D01*
X54874181Y-39669934D02*
G75*
G03*
X54874185Y-40197871I264019J-263966D01*
G01*
X55349955Y-40673649D02*
G75*
G02*
X55350005Y-41097301I-211755J-211851D01*
G01*
X55024024Y-41423183D02*
G75*
G02*
X54600398Y-41423206I-211824J211783D01*
G01*
X55659558Y-39412500D02*
G75*
G03*
X55131616Y-39412500I-263971J-263972D01*
G01*
X54600422Y-41423182D02*
G75*
G03*
X54176820Y-41423182I-211801J-211800D01*
G01*
X56187500Y-39412500D02*
G75*
G02*
X55659558Y-39412500I-263971J263972D01*
G01*
%TO.N,/D5*%
X55500000Y-55500000D02*
X53232488Y-55500000D01*
X53232488Y-55500000D02*
X52827488Y-55095000D01*
X58445200Y-54269800D02*
X58445200Y-55136755D01*
X58140400Y-55441555D02*
X57988000Y-55441555D01*
X62715000Y-53965000D02*
X58750000Y-53965000D01*
X57226000Y-53965000D02*
X57035000Y-53965000D01*
X57683200Y-55136755D02*
X57683200Y-54269800D01*
X57035000Y-53965000D02*
X55500000Y-55500000D01*
X57378400Y-53965000D02*
X57226000Y-53965000D01*
X52827488Y-55095000D02*
X50175000Y-55095000D01*
X58750000Y-53965000D02*
G75*
G03*
X58445200Y-54269800I0J-304800D01*
G01*
X57683200Y-54269800D02*
G75*
G03*
X57378400Y-53965000I-304800J0D01*
G01*
X57988000Y-55441555D02*
G75*
G02*
X57683245Y-55136755I0J304755D01*
G01*
X58445200Y-55136755D02*
G75*
G02*
X58140400Y-55441600I-304800J-45D01*
G01*
%TO.N,/D1*%
X58106600Y-42227751D02*
X58259000Y-42227751D01*
X57801800Y-40607034D02*
X57801800Y-41922951D01*
X59021000Y-41265000D02*
X62000000Y-41265000D01*
X54605000Y-43395000D02*
X56689081Y-41310919D01*
X58563800Y-41922951D02*
X58563800Y-41569800D01*
X57344600Y-40302234D02*
X57497000Y-40302234D01*
X56689081Y-41310919D02*
X56735000Y-41265000D01*
X58868600Y-41265000D02*
X59021000Y-41265000D01*
X50175000Y-43395000D02*
X54605000Y-43395000D01*
X57039800Y-40960200D02*
X57039800Y-40607034D01*
X58259000Y-42227751D02*
G75*
G03*
X58563751Y-41922951I0J304751D01*
G01*
X56735000Y-41265000D02*
G75*
G03*
X57039800Y-40960200I0J304800D01*
G01*
X57039800Y-40607034D02*
G75*
G02*
X57344600Y-40302200I304800J34D01*
G01*
X57497000Y-40302234D02*
G75*
G02*
X57801766Y-40607034I0J-304766D01*
G01*
X57801800Y-41922951D02*
G75*
G03*
X58106600Y-42227800I304800J-49D01*
G01*
X58563800Y-41569800D02*
G75*
G02*
X58868600Y-41265000I304800J0D01*
G01*
%TO.N,/D8*%
X54525000Y-64125000D02*
X54500000Y-64100000D01*
X58642316Y-64160000D02*
X62750000Y-64160000D01*
X56321316Y-64125000D02*
X54525000Y-64125000D01*
X57997716Y-64998282D02*
X57845316Y-64998282D01*
X56778516Y-63606510D02*
X56778516Y-63820200D01*
X58642316Y-64160000D02*
X58607316Y-64125000D01*
X58302516Y-64429800D02*
X58302516Y-64693482D01*
X57540516Y-64693482D02*
X57540516Y-63606510D01*
X52775000Y-65525000D02*
X50200000Y-65525000D01*
X57235716Y-63301710D02*
X57083316Y-63301710D01*
X54500000Y-64100000D02*
X54200000Y-64100000D01*
X52775000Y-65525000D02*
X54200000Y-64100000D01*
X56473716Y-64125000D02*
X56321316Y-64125000D01*
X57540516Y-63606510D02*
G75*
G03*
X57235716Y-63301684I-304816J10D01*
G01*
X58607316Y-64125000D02*
G75*
G03*
X58302500Y-64429800I-16J-304800D01*
G01*
X56778516Y-63820200D02*
G75*
G02*
X56473716Y-64125016I-304816J0D01*
G01*
X57083316Y-63301710D02*
G75*
G03*
X56778510Y-63606510I-16J-304790D01*
G01*
X57845316Y-64998282D02*
G75*
G02*
X57540518Y-64693482I-16J304782D01*
G01*
X58302516Y-64693482D02*
G75*
G02*
X57997716Y-64998316I-304816J-18D01*
G01*
%TO.N,/D10*%
X58969641Y-71745000D02*
X59151641Y-71745000D01*
X57695641Y-71178056D02*
X57695641Y-72311951D01*
X57149641Y-70814056D02*
X57331641Y-70814056D01*
X59151641Y-71745000D02*
X62715000Y-71745000D01*
X55005000Y-70605000D02*
X56145000Y-71745000D01*
X50200000Y-70605000D02*
X55005000Y-70605000D01*
X58605641Y-72311951D02*
X58605641Y-72109000D01*
X56145000Y-71745000D02*
X56421641Y-71745000D01*
X58059641Y-72675951D02*
X58241641Y-72675951D01*
X56785641Y-71381000D02*
X56785641Y-71178056D01*
X56785641Y-71178056D02*
G75*
G02*
X57149641Y-70814141I363959J-44D01*
G01*
X57695641Y-72311951D02*
G75*
G03*
X58059641Y-72675959I363959J-49D01*
G01*
X58241641Y-72675951D02*
G75*
G03*
X58605551Y-72311951I-41J363951D01*
G01*
X58605641Y-72109000D02*
G75*
G02*
X58969641Y-71745041I363959J0D01*
G01*
X57331641Y-70814056D02*
G75*
G02*
X57695644Y-71178056I-41J-364044D01*
G01*
X56421641Y-71745000D02*
G75*
G03*
X56785600Y-71381000I-41J364000D01*
G01*
%TO.N,/D12*%
X55546000Y-76019680D02*
X55710000Y-76019680D01*
X53578000Y-76422000D02*
X53578000Y-76347699D01*
X54398000Y-76422000D02*
X54398000Y-77102293D01*
X51547038Y-77300000D02*
X52097038Y-76750000D01*
X55218000Y-76422000D02*
X55218000Y-76347680D01*
X56530000Y-76750000D02*
X62640000Y-76750000D01*
X54726000Y-77430293D02*
X54890000Y-77430293D01*
X55218000Y-77102293D02*
X55218000Y-76422000D01*
X53906000Y-76019699D02*
X54070000Y-76019699D01*
X52097038Y-76750000D02*
X53250000Y-76750000D01*
X56038000Y-76347680D02*
X56038000Y-76422000D01*
X50250000Y-77300000D02*
X51547038Y-77300000D01*
X54398000Y-76347699D02*
X54398000Y-76422000D01*
X56366000Y-76750000D02*
X56530000Y-76750000D01*
X54070000Y-76019699D02*
G75*
G02*
X54398001Y-76347699I0J-328001D01*
G01*
X53250000Y-76750000D02*
G75*
G03*
X53578000Y-76422000I0J328000D01*
G01*
X54398000Y-77102293D02*
G75*
G03*
X54726000Y-77430300I328000J-7D01*
G01*
X53578000Y-76347699D02*
G75*
G02*
X53906000Y-76019700I328000J-1D01*
G01*
X56038000Y-76422000D02*
G75*
G03*
X56366000Y-76750000I328000J0D01*
G01*
X55710000Y-76019680D02*
G75*
G02*
X56038020Y-76347680I0J-328020D01*
G01*
X54890000Y-77430293D02*
G75*
G03*
X55217993Y-77102293I0J327993D01*
G01*
X55218000Y-76347680D02*
G75*
G02*
X55546000Y-76019700I328000J-20D01*
G01*
%TO.N,/D14*%
X56921200Y-83940292D02*
X56921200Y-84140200D01*
X57683200Y-84949689D02*
X57683200Y-83940292D01*
X53805000Y-82305000D02*
X50325000Y-82305000D01*
X56616400Y-84445000D02*
X56464000Y-84445000D01*
X58445200Y-84749800D02*
X58445200Y-84949689D01*
X62715000Y-84445000D02*
X58750000Y-84445000D01*
X56464000Y-84445000D02*
X55945000Y-84445000D01*
X58140400Y-85254489D02*
X57988000Y-85254489D01*
X53805000Y-82305000D02*
X55945000Y-84445000D01*
X57378400Y-83635492D02*
X57226000Y-83635492D01*
X58750000Y-84445000D02*
G75*
G03*
X58445200Y-84749800I0J-304800D01*
G01*
X57988000Y-85254489D02*
G75*
G02*
X57683211Y-84949689I0J304789D01*
G01*
X57683200Y-83940292D02*
G75*
G03*
X57378400Y-83635500I-304800J-8D01*
G01*
X58445200Y-84949689D02*
G75*
G02*
X58140400Y-85254500I-304800J-11D01*
G01*
X56921200Y-84140200D02*
G75*
G02*
X56616400Y-84445000I-304800J0D01*
G01*
X57226000Y-83635492D02*
G75*
G03*
X56921192Y-83940292I0J-304808D01*
G01*
%TO.N,/D4*%
X56962000Y-52850250D02*
X57140000Y-52850250D01*
X56606000Y-51781000D02*
X56606000Y-52494250D01*
X55675000Y-51425000D02*
X56250000Y-51425000D01*
X58030000Y-51425000D02*
X62715000Y-51425000D01*
X53275000Y-53825000D02*
X55675000Y-51425000D01*
X57496000Y-52494250D02*
X57496000Y-51781000D01*
X57852000Y-51425000D02*
X58030000Y-51425000D01*
X50175000Y-53825000D02*
X53275000Y-53825000D01*
X57496000Y-51781000D02*
G75*
G02*
X57852000Y-51425000I356000J0D01*
G01*
X56606000Y-52494250D02*
G75*
G03*
X56962000Y-52850200I356000J50D01*
G01*
X57140000Y-52850250D02*
G75*
G03*
X57496050Y-52494250I0J356050D01*
G01*
X56250000Y-51425000D02*
G75*
G02*
X56606000Y-51781000I0J-356000D01*
G01*
%TO.N,/D15*%
X58013800Y-87358193D02*
X58013800Y-87289800D01*
X55800000Y-86900000D02*
X56100000Y-86900000D01*
X56794600Y-86307026D02*
X56947000Y-86307026D01*
X57251800Y-86680200D02*
X57251800Y-87358193D01*
X56489800Y-86680200D02*
X56489800Y-86611826D01*
X52475000Y-83575000D02*
X55800000Y-86900000D01*
X58471000Y-86985000D02*
X62715000Y-86985000D01*
X50325000Y-83575000D02*
X52475000Y-83575000D01*
X57556600Y-87662993D02*
X57709000Y-87662993D01*
X57251800Y-86611826D02*
X57251800Y-86680200D01*
X56100000Y-86900000D02*
X56185000Y-86985000D01*
X58318600Y-86985000D02*
X58471000Y-86985000D01*
X57709000Y-87662993D02*
G75*
G03*
X58013793Y-87358193I0J304793D01*
G01*
X57251800Y-87358193D02*
G75*
G03*
X57556600Y-87663000I304800J-7D01*
G01*
X56489800Y-86611826D02*
G75*
G02*
X56794600Y-86307000I304800J26D01*
G01*
X56947000Y-86307026D02*
G75*
G02*
X57251774Y-86611826I0J-304774D01*
G01*
X58013800Y-87289800D02*
G75*
G02*
X58318600Y-86985000I304800J0D01*
G01*
X56185000Y-86985000D02*
G75*
G03*
X56489800Y-86680200I0J304800D01*
G01*
%TO.N,/D2*%
X58114000Y-47262599D02*
X57960000Y-47262599D01*
X58884000Y-45427420D02*
X58730000Y-45427420D01*
X51330044Y-47205000D02*
X50175000Y-47205000D01*
X58422000Y-45735420D02*
X58422000Y-46954599D01*
X57190000Y-46345000D02*
X55355000Y-46345000D01*
X54495000Y-47205000D02*
X51330044Y-47205000D01*
X57344000Y-46345000D02*
X57190000Y-46345000D01*
X59192000Y-46037000D02*
X59192000Y-45735420D01*
X55355000Y-46345000D02*
X54495000Y-47205000D01*
X62715000Y-46345000D02*
X59500000Y-46345000D01*
X57652000Y-46954599D02*
X57652000Y-46653000D01*
X59192000Y-45735420D02*
G75*
G03*
X58884000Y-45427400I-308000J20D01*
G01*
X58422000Y-46954599D02*
G75*
G02*
X58114000Y-47262600I-308000J-1D01*
G01*
X58730000Y-45427420D02*
G75*
G03*
X58422020Y-45735420I0J-307980D01*
G01*
X57652000Y-46653000D02*
G75*
G03*
X57344000Y-46345000I-308000J0D01*
G01*
X57960000Y-47262599D02*
G75*
G02*
X57652001Y-46954599I0J307999D01*
G01*
X59500000Y-46345000D02*
G75*
G02*
X59192000Y-46037000I0J308000D01*
G01*
%TO.N,/D11*%
X57181927Y-73519053D02*
X57337927Y-73519053D01*
X53775000Y-71875000D02*
X56185000Y-74285000D01*
X57649927Y-73973000D02*
X57649927Y-74738947D01*
X56869927Y-73973000D02*
X56869927Y-73831053D01*
X50200000Y-71875000D02*
X53775000Y-71875000D01*
X57961927Y-75050947D02*
X58117927Y-75050947D01*
X58897927Y-74285000D02*
X59000000Y-74285000D01*
X57649927Y-73831053D02*
X57649927Y-73973000D01*
X58741927Y-74285000D02*
X58897927Y-74285000D01*
X56185000Y-74285000D02*
X56557927Y-74285000D01*
X58429927Y-74738947D02*
X58429927Y-74597000D01*
X59000000Y-74285000D02*
X62715000Y-74285000D01*
X58117927Y-75050947D02*
G75*
G03*
X58429947Y-74738947I-27J312047D01*
G01*
X57649927Y-74738947D02*
G75*
G03*
X57961927Y-75050873I311973J47D01*
G01*
X56557927Y-74285000D02*
G75*
G03*
X56869900Y-73973000I-27J312000D01*
G01*
X56869927Y-73831053D02*
G75*
G02*
X57181927Y-73519127I311973J-47D01*
G01*
X58429927Y-74597000D02*
G75*
G02*
X58741927Y-74285027I311973J0D01*
G01*
X57337927Y-73519053D02*
G75*
G02*
X57649947Y-73831053I-27J-312047D01*
G01*
%TO.N,/D9*%
X55856000Y-66479000D02*
X55856000Y-67212909D01*
X57436000Y-66377091D02*
X57436000Y-66479000D01*
X55382000Y-66061091D02*
X55540000Y-66061091D01*
X56172000Y-67528909D02*
X56330000Y-67528909D01*
X56646000Y-67212909D02*
X56646000Y-66479000D01*
X56646000Y-66479000D02*
X56646000Y-66377091D01*
X55066000Y-66479000D02*
X55066000Y-66377091D01*
X57752000Y-66795000D02*
X57910000Y-66795000D01*
X56962000Y-66061091D02*
X57120000Y-66061091D01*
X57910000Y-66795000D02*
X62655000Y-66795000D01*
X55856000Y-66377091D02*
X55856000Y-66479000D01*
X50200000Y-66795000D02*
X54750000Y-66795000D01*
X55066000Y-66377091D02*
G75*
G02*
X55382000Y-66061100I316000J-9D01*
G01*
X54750000Y-66795000D02*
G75*
G03*
X55066000Y-66479000I0J316000D01*
G01*
X57436000Y-66479000D02*
G75*
G03*
X57752000Y-66795000I316000J0D01*
G01*
X55540000Y-66061091D02*
G75*
G02*
X55856009Y-66377091I0J-316009D01*
G01*
X55856000Y-67212909D02*
G75*
G03*
X56172000Y-67528900I316000J9D01*
G01*
X56646000Y-66377091D02*
G75*
G02*
X56962000Y-66061100I316000J-9D01*
G01*
X56330000Y-67528909D02*
G75*
G03*
X56646009Y-67212909I0J316009D01*
G01*
X57120000Y-66061091D02*
G75*
G02*
X57436009Y-66377091I0J-316009D01*
G01*
%TO.N,/D6*%
X54621600Y-59882727D02*
X54774000Y-59882727D01*
X54316800Y-58232092D02*
X54316800Y-59577927D01*
X55383600Y-58905000D02*
X55536000Y-58905000D01*
X53859600Y-57927292D02*
X54012000Y-57927292D01*
X57675000Y-59080000D02*
X62750000Y-59080000D01*
X55078800Y-59577927D02*
X55078800Y-59209800D01*
X57500000Y-58905000D02*
X57543464Y-58948464D01*
X55536000Y-58905000D02*
X57500000Y-58905000D01*
X53554800Y-58600200D02*
X53554800Y-58232092D01*
X50175000Y-58905000D02*
X53250000Y-58905000D01*
X57543464Y-58948464D02*
X57675000Y-59080000D01*
X55078800Y-59209800D02*
G75*
G02*
X55383600Y-58905000I304800J0D01*
G01*
X54012000Y-57927292D02*
G75*
G02*
X54316808Y-58232092I0J-304808D01*
G01*
X53554800Y-58232092D02*
G75*
G02*
X53859600Y-57927300I304800J-8D01*
G01*
X53250000Y-58905000D02*
G75*
G03*
X53554800Y-58600200I0J304800D01*
G01*
X54774000Y-59882727D02*
G75*
G03*
X55078827Y-59577927I0J304827D01*
G01*
X54316800Y-59577927D02*
G75*
G03*
X54621600Y-59882700I304800J27D01*
G01*
%TO.N,/D13*%
X58197000Y-80137544D02*
X58197000Y-79737000D01*
X57267000Y-78993000D02*
X57267000Y-80137544D01*
X60000000Y-79365000D02*
X62715000Y-79365000D01*
X55200000Y-78600000D02*
X55866250Y-79266250D01*
X57639000Y-80509544D02*
X57825000Y-80509544D01*
X54700000Y-78500000D02*
X54800000Y-78600000D01*
X56709000Y-78520481D02*
X56895000Y-78520481D01*
X55866250Y-79266250D02*
X55965000Y-79365000D01*
X50320000Y-78500000D02*
X54700000Y-78500000D01*
X54800000Y-78600000D02*
X55200000Y-78600000D01*
X57267000Y-78892481D02*
X57267000Y-78993000D01*
X56337000Y-78993000D02*
X56337000Y-78892481D01*
X58755000Y-79365000D02*
X60000000Y-79365000D01*
X58569000Y-79365000D02*
X58755000Y-79365000D01*
X57825000Y-80509544D02*
G75*
G03*
X58197044Y-80137544I0J372044D01*
G01*
X56895000Y-78520481D02*
G75*
G02*
X57267019Y-78892481I0J-372019D01*
G01*
X55965000Y-79365000D02*
G75*
G03*
X56337000Y-78993000I0J372000D01*
G01*
X57267000Y-80137544D02*
G75*
G03*
X57639000Y-80509500I372000J44D01*
G01*
X56337000Y-78892481D02*
G75*
G02*
X56709000Y-78520500I372000J-19D01*
G01*
X58197000Y-79737000D02*
G75*
G02*
X58569000Y-79365000I372000J0D01*
G01*
%TO.N,/D19*%
X90330719Y-75998756D02*
X90330719Y-76860000D01*
X89111519Y-78026044D02*
X89263919Y-78026044D01*
X94996000Y-72163500D02*
X96090500Y-72163500D01*
X94996000Y-73406000D02*
X94996000Y-72163500D01*
X85758719Y-75998756D02*
X85758719Y-76860000D01*
X84996719Y-77721244D02*
X84996719Y-77164800D01*
X92311919Y-76860000D02*
X93320000Y-76860000D01*
X94996000Y-75184000D02*
X94996000Y-73406000D01*
X85758719Y-76860000D02*
X85758719Y-77721244D01*
X94683306Y-76714623D02*
X94289866Y-76321183D01*
X88044719Y-77721244D02*
X88044719Y-76860000D01*
X87587519Y-78026044D02*
X87739919Y-78026044D01*
X85301519Y-75693956D02*
X85453919Y-75693956D01*
X84234719Y-77164800D02*
X84234719Y-77721244D01*
X93072000Y-70866000D02*
X93072000Y-71254901D01*
X87282719Y-75998756D02*
X87282719Y-76860000D01*
X91397519Y-75693956D02*
X91549919Y-75693956D01*
X86520719Y-76860000D02*
X86520719Y-75998756D01*
X91092719Y-76860000D02*
X91092719Y-76555200D01*
X88044719Y-76860000D02*
X88044719Y-75998756D01*
X80530000Y-76860000D02*
X83929919Y-76860000D01*
X89568719Y-77721244D02*
X89568719Y-76860000D01*
X86520719Y-77721244D02*
X86520719Y-76860000D01*
X91854719Y-75998756D02*
X91854719Y-76555200D01*
X94575543Y-77253439D02*
X94683306Y-77145675D01*
X90330719Y-76860000D02*
X90330719Y-77721244D01*
X93072000Y-71254901D02*
X93980599Y-72163500D01*
X94397630Y-75782369D02*
X94996000Y-75184000D01*
X89873519Y-75693956D02*
X90025919Y-75693956D01*
X93751052Y-76860000D02*
X94144491Y-77253439D01*
X94289866Y-75890131D02*
X94397630Y-75782369D01*
X86063519Y-78026044D02*
X86215919Y-78026044D01*
X92159519Y-76860000D02*
X92311919Y-76860000D01*
X86825519Y-75693956D02*
X86977919Y-75693956D01*
X93980599Y-72163500D02*
X94996000Y-72163500D01*
X84996719Y-77164800D02*
X84996719Y-76860000D01*
X91092719Y-77721244D02*
X91092719Y-76860000D01*
X84539519Y-78026044D02*
X84691919Y-78026044D01*
X88806719Y-75998756D02*
X88806719Y-76860000D01*
X88349519Y-75693956D02*
X88501919Y-75693956D01*
X90635519Y-78026044D02*
X90787919Y-78026044D01*
X87282719Y-76860000D02*
X87282719Y-77721244D01*
X89568719Y-76860000D02*
X89568719Y-75998756D01*
X96882000Y-71372000D02*
X96882000Y-70866000D01*
X91092719Y-76555200D02*
X91092719Y-75998756D01*
X96090500Y-72163500D02*
X96882000Y-71372000D01*
X88806719Y-76860000D02*
X88806719Y-77721244D01*
X84996719Y-76860000D02*
X84996719Y-75998756D01*
X89568719Y-75998756D02*
G75*
G02*
X89873519Y-75694019I304781J-44D01*
G01*
X84691919Y-78026044D02*
G75*
G03*
X84996744Y-77721244I-19J304844D01*
G01*
X90330719Y-77721244D02*
G75*
G03*
X90635519Y-78025981I304781J44D01*
G01*
X86520719Y-75998756D02*
G75*
G02*
X86825519Y-75694019I304781J-44D01*
G01*
X91854719Y-76555200D02*
G75*
G03*
X92159519Y-76859981I304781J0D01*
G01*
X88806719Y-77721244D02*
G75*
G03*
X89111519Y-78025981I304781J44D01*
G01*
X85453919Y-75693956D02*
G75*
G02*
X85758744Y-75998756I-19J-304844D01*
G01*
X86977919Y-75693956D02*
G75*
G02*
X87282744Y-75998756I-19J-304844D01*
G01*
X86215919Y-78026044D02*
G75*
G03*
X86520744Y-77721244I-19J304844D01*
G01*
X85758719Y-77721244D02*
G75*
G03*
X86063519Y-78025981I304781J44D01*
G01*
X84234719Y-77721244D02*
G75*
G03*
X84539519Y-78025981I304781J44D01*
G01*
X94289866Y-76321183D02*
G75*
G02*
X94289909Y-75890174I215534J215483D01*
G01*
X94144491Y-77253439D02*
G75*
G03*
X94575543Y-77253439I215526J215525D01*
G01*
X88044719Y-75998756D02*
G75*
G02*
X88349519Y-75694019I304781J-44D01*
G01*
X87282719Y-77721244D02*
G75*
G03*
X87587519Y-78025981I304781J44D01*
G01*
X88501919Y-75693956D02*
G75*
G02*
X88806744Y-75998756I-19J-304844D01*
G01*
X93320000Y-76860000D02*
G75*
G02*
X93751052Y-76860000I215526J-215525D01*
G01*
X94683306Y-77145675D02*
G75*
G03*
X94683355Y-76714574I-215506J215575D01*
G01*
X84996719Y-75998756D02*
G75*
G02*
X85301519Y-75694019I304781J-44D01*
G01*
X89263919Y-78026044D02*
G75*
G03*
X89568744Y-77721244I-19J304844D01*
G01*
X91092719Y-75998756D02*
G75*
G02*
X91397519Y-75694019I304781J-44D01*
G01*
X91549919Y-75693956D02*
G75*
G02*
X91854744Y-75998756I-19J-304844D01*
G01*
X87739919Y-78026044D02*
G75*
G03*
X88044744Y-77721244I-19J304844D01*
G01*
X90787919Y-78026044D02*
G75*
G03*
X91092744Y-77721244I-19J304844D01*
G01*
X83929919Y-76860000D02*
G75*
G02*
X84234700Y-77164800I-19J-304800D01*
G01*
X90025919Y-75693956D02*
G75*
G02*
X90330744Y-75998756I-19J-304844D01*
G01*
%TO.N,/D17*%
X108204000Y-72163500D02*
X102917243Y-77450257D01*
X101624085Y-78743415D02*
X102060900Y-79180230D01*
X101187227Y-78306557D02*
X101624084Y-78743414D01*
X102162901Y-78204602D02*
X102162901Y-78204599D01*
X100761979Y-80036575D02*
X100983321Y-80257917D01*
X100546450Y-79821047D02*
X100761979Y-80036575D01*
X108204000Y-72163500D02*
X109190500Y-72163500D01*
X100983321Y-80688969D02*
X100875556Y-80796735D01*
X102599755Y-78641456D02*
X102378427Y-78420128D01*
X100444504Y-80796735D02*
X100223162Y-80575393D01*
X101522083Y-79719048D02*
X101085269Y-79282234D01*
X106172000Y-70866000D02*
X106172000Y-71254901D01*
X101085269Y-79282234D02*
X101085268Y-79282232D01*
X100217387Y-78845404D02*
X100109623Y-78953167D01*
X109190500Y-72163500D02*
X109982000Y-71372000D01*
X107080599Y-72163500D02*
X108204000Y-72163500D01*
X98396362Y-81971138D02*
X95887500Y-84480000D01*
X102917242Y-77881311D02*
X103138571Y-78102640D01*
X102060900Y-79611282D02*
X101953135Y-79719048D01*
X101085268Y-79282232D02*
X100648440Y-78845404D01*
X101624084Y-78743414D02*
X101624085Y-78743415D01*
X99684345Y-80683156D02*
X98396362Y-81971138D01*
X102378427Y-78420128D02*
X102162901Y-78204602D01*
X109982000Y-71372000D02*
X109982000Y-70866000D01*
X100109623Y-79384220D02*
X100546450Y-79821047D01*
X99792110Y-80575393D02*
X99684345Y-80683156D01*
X106172000Y-71254901D02*
X107080599Y-72163500D01*
X95887500Y-84480000D02*
X80530000Y-84480000D01*
X103138571Y-78533692D02*
X103030809Y-78641455D01*
X101294991Y-77767741D02*
X101187227Y-77875504D01*
X102162901Y-78204599D02*
X101726043Y-77767741D01*
X102060900Y-79180230D02*
G75*
G02*
X102060944Y-79611326I-215500J-215570D01*
G01*
X103138571Y-78102640D02*
G75*
G02*
X103138605Y-78533726I-215571J-215560D01*
G01*
X100109623Y-78953167D02*
G75*
G03*
X100109616Y-79384227I215477J-215533D01*
G01*
X100648440Y-78845404D02*
G75*
G03*
X100217388Y-78845404I-215526J-215526D01*
G01*
X100875556Y-80796735D02*
G75*
G02*
X100444504Y-80796735I-215526J215525D01*
G01*
X103030809Y-78641455D02*
G75*
G02*
X102599773Y-78641438I-215509J215555D01*
G01*
X101726043Y-77767741D02*
G75*
G03*
X101294991Y-77767741I-215526J-215525D01*
G01*
X101187227Y-77875504D02*
G75*
G03*
X101187257Y-78306527I215573J-215496D01*
G01*
X102917243Y-77450257D02*
G75*
G03*
X102917226Y-77881326I215557J-215543D01*
G01*
X101953135Y-79719048D02*
G75*
G02*
X101522083Y-79719048I-215526J215525D01*
G01*
X100983321Y-80257917D02*
G75*
G02*
X100983278Y-80688926I-215521J-215483D01*
G01*
X100223162Y-80575393D02*
G75*
G03*
X99792110Y-80575393I-215526J-215525D01*
G01*
%TO.N,/SR*%
X113992000Y-70866000D02*
X114808000Y-70866000D01*
X102162000Y-69904000D02*
X102162000Y-70866000D01*
X100892000Y-70866000D02*
X102162000Y-70866000D01*
X94996000Y-70104000D02*
X94996000Y-70866000D01*
X85700000Y-74320000D02*
X92202000Y-67818000D01*
X94996000Y-70866000D02*
X95612000Y-70866000D01*
X92710000Y-67818000D02*
X100330000Y-67818000D01*
X80530000Y-74320000D02*
X85700000Y-74320000D01*
X105664000Y-67818000D02*
X108204000Y-70358000D01*
X92202000Y-67818000D02*
X92710000Y-67818000D01*
X92710000Y-67818000D02*
X94996000Y-70104000D01*
X108204000Y-70866000D02*
X108712000Y-70866000D01*
X94342000Y-70866000D02*
X94996000Y-70866000D01*
X105664000Y-67818000D02*
X111760000Y-67818000D01*
X111760000Y-67818000D02*
X114808000Y-70866000D01*
X100330000Y-67818000D02*
X100330000Y-68072000D01*
X100330000Y-67818000D02*
X105664000Y-67818000D01*
X114808000Y-70866000D02*
X115262000Y-70866000D01*
X107442000Y-70866000D02*
X108204000Y-70866000D01*
X108204000Y-70358000D02*
X108204000Y-70866000D01*
X100330000Y-68072000D02*
X102162000Y-69904000D01*
D18*
%TO.N,/RJ45_Out_17+*%
X108712000Y-65416001D02*
X108712000Y-64691001D01*
X108241810Y-64220811D02*
X108241810Y-61839681D01*
X97793000Y-44427691D02*
X97793000Y-45976000D01*
X105392799Y-46311651D02*
X105392799Y-45680491D01*
X107677490Y-60604001D02*
X108241810Y-60604001D01*
X108241810Y-57839681D02*
X108241810Y-55118000D01*
X108667472Y-59275361D02*
X108241810Y-59275361D01*
X105392799Y-45680491D02*
X105273623Y-45561315D01*
X105068060Y-46678412D02*
X105229430Y-46517042D01*
X107251828Y-61039681D02*
X107251828Y-60839681D01*
X108712000Y-64691001D02*
X108241810Y-64220811D01*
X107677490Y-61275361D02*
X107487508Y-61275361D01*
X107487508Y-58604001D02*
X107677490Y-58604001D01*
X105229430Y-46517042D02*
X105229430Y-46475020D01*
X107487508Y-60604001D02*
X107677490Y-60604001D01*
X111910729Y-46941030D02*
X112476030Y-46375729D01*
X104242366Y-45561313D02*
X104050887Y-45369834D01*
X112476030Y-46375729D02*
X112476030Y-45976000D01*
X103056138Y-43343830D02*
X99321589Y-43343830D01*
X107251828Y-59039681D02*
X107251828Y-58839681D01*
X107677490Y-59275361D02*
X107487508Y-59275361D01*
X103859410Y-44147100D02*
X103451805Y-43739497D01*
X105273623Y-45561315D02*
X105273622Y-45561313D01*
X108241810Y-49042717D02*
X110343497Y-46941030D01*
X109231792Y-60039681D02*
X109231792Y-59839681D01*
X98409271Y-43230970D02*
X97843970Y-43796271D01*
X104050888Y-44338578D02*
X103859410Y-44147100D01*
X105229430Y-46475020D02*
X105392799Y-46311651D01*
X110343497Y-46941030D02*
X111910729Y-46941030D01*
X97843970Y-43796271D02*
X97843970Y-44376721D01*
X108241810Y-58039681D02*
X108241810Y-57839681D01*
X99321589Y-43343830D02*
X99208729Y-43230970D01*
X108241810Y-60604001D02*
X108667472Y-60604001D01*
X99208729Y-43230970D02*
X98409271Y-43230970D01*
X108241810Y-55118000D02*
X108241810Y-49042717D01*
X112476030Y-45976000D02*
X113543000Y-45976000D01*
X97843970Y-44376721D02*
X97793000Y-44427691D01*
X108241810Y-59275361D02*
X107677490Y-59275361D01*
X103451805Y-43739497D02*
X103056138Y-43343830D01*
X107251828Y-58839681D02*
G75*
G02*
X107487508Y-58604028I235672J-19D01*
G01*
X104050887Y-45369834D02*
G75*
G02*
X104050912Y-44622541I373613J373634D01*
G01*
X109231792Y-59839681D02*
G75*
G03*
X108667472Y-59275408I-564292J-19D01*
G01*
X105273622Y-45561313D02*
G75*
G03*
X104989732Y-45561359I-141922J-141987D01*
G01*
X107487508Y-61275361D02*
G75*
G02*
X107251839Y-61039681I-8J235661D01*
G01*
X107487508Y-59275361D02*
G75*
G02*
X107251839Y-59039681I-8J235661D01*
G01*
X108241810Y-61839681D02*
G75*
G03*
X107677490Y-61275390I-564310J-19D01*
G01*
X104989686Y-45561314D02*
G75*
G02*
X104242339Y-45561340I-373686J373614D01*
G01*
X107677490Y-58604001D02*
G75*
G03*
X108241801Y-58039681I10J564301D01*
G01*
X104050888Y-44622516D02*
G75*
G03*
X104050935Y-44338531I-141988J142016D01*
G01*
X107251828Y-60839681D02*
G75*
G02*
X107487508Y-60604028I235672J-19D01*
G01*
X108667472Y-60604001D02*
G75*
G03*
X109231801Y-60039681I28J564301D01*
G01*
%TO.N,/RJ45_Out_19+*%
X107497970Y-43994970D02*
X104052830Y-40549830D01*
X100653724Y-41166382D02*
X100270276Y-41166382D01*
X93398304Y-55586170D02*
X93276831Y-55586170D01*
X92119209Y-55350000D02*
X92119209Y-55150000D01*
X92713001Y-54913830D02*
X93040661Y-54913830D01*
X95140830Y-64219831D02*
X95140830Y-60365138D01*
X93040661Y-46664339D02*
X93040661Y-47994614D01*
X101125830Y-40222170D02*
X101125830Y-40530446D01*
X93040661Y-53586170D02*
X92476831Y-53586170D01*
X93729000Y-45976000D02*
X93040661Y-46664339D01*
X101125830Y-40077729D02*
X101125830Y-40222170D01*
X93040661Y-58264969D02*
X93040661Y-57150000D01*
X101125830Y-40530446D02*
X101125830Y-40694276D01*
X109479000Y-45976000D02*
X108664030Y-45161030D01*
X94827198Y-40549830D02*
X94301862Y-40549830D01*
X95612000Y-64691001D02*
X95140830Y-64219831D01*
X107497970Y-44595729D02*
X107497970Y-43994970D01*
X93381830Y-41469862D02*
X93381830Y-42350138D01*
X93040661Y-51308000D02*
X93040661Y-51054000D01*
X93729000Y-42697308D02*
X93729000Y-45976000D01*
X93040661Y-49194614D02*
X93040661Y-51054000D01*
X99362000Y-40549830D02*
X94827198Y-40549830D01*
X92713001Y-55586170D02*
X92355379Y-55586170D01*
X93276831Y-55586170D02*
X92713001Y-55586170D01*
X93040661Y-52150000D02*
X93040661Y-51308000D01*
X93754149Y-48834614D02*
X93280661Y-48834614D01*
X93276831Y-56913830D02*
X93398304Y-56913830D01*
X93994149Y-48474614D02*
X93994149Y-48594614D01*
X93381830Y-42350138D02*
X93729000Y-42697308D01*
X93962134Y-56350000D02*
X93962134Y-56150000D01*
X99653724Y-40549830D02*
X99362000Y-40549830D01*
X92119209Y-53350000D02*
X92119209Y-53150000D01*
X101745458Y-39933288D02*
X101270271Y-39933288D01*
X104052830Y-40549830D02*
X102362000Y-40549830D01*
X93040661Y-49074614D02*
X93040661Y-49194614D01*
X92476831Y-53586170D02*
X92355379Y-53586170D01*
X94301862Y-40549830D02*
X93381830Y-41469862D01*
X93040661Y-54913830D02*
X93398304Y-54913830D01*
X95612000Y-65416001D02*
X95612000Y-64691001D01*
X93280661Y-48234614D02*
X93754149Y-48234614D01*
X95140830Y-60365138D02*
X93040661Y-58264969D01*
X92355379Y-52913830D02*
X92476831Y-52913830D01*
X93398304Y-53586170D02*
X93040661Y-53586170D01*
X93962134Y-54350000D02*
X93962134Y-54150000D01*
X92355379Y-54913830D02*
X92713001Y-54913830D01*
X108664030Y-45161030D02*
X108063271Y-45161030D01*
X108063271Y-45161030D02*
X107497970Y-44595729D01*
X93040661Y-52350000D02*
X93040661Y-52150000D01*
X101270271Y-39933288D02*
G75*
G03*
X101125888Y-40077729I29J-144412D01*
G01*
X101889899Y-40077729D02*
G75*
G03*
X101745458Y-39933301I-144399J29D01*
G01*
X102362000Y-40549830D02*
G75*
G02*
X101889870Y-40077729I0J472130D01*
G01*
X93040661Y-47994614D02*
G75*
G03*
X93280661Y-48234639I240039J14D01*
G01*
X93754149Y-48234614D02*
G75*
G02*
X93994186Y-48474614I51J-239986D01*
G01*
X92355379Y-55586170D02*
G75*
G02*
X92119230Y-55350000I21J236170D01*
G01*
X92119209Y-55150000D02*
G75*
G02*
X92355379Y-54913809I236191J0D01*
G01*
X93398304Y-54913830D02*
G75*
G03*
X93962130Y-54350000I-4J563830D01*
G01*
X93962134Y-54150000D02*
G75*
G03*
X93398304Y-53586166I-563834J0D01*
G01*
X92355379Y-53586170D02*
G75*
G02*
X92119230Y-53350000I21J236170D01*
G01*
X93040661Y-57150000D02*
G75*
G02*
X93276831Y-56913861I236139J0D01*
G01*
X99798170Y-40694276D02*
G75*
G03*
X99653724Y-40549830I-144470J-24D01*
G01*
X101125830Y-40694276D02*
G75*
G02*
X100653724Y-41166430I-472130J-24D01*
G01*
X93994149Y-48594614D02*
G75*
G02*
X93754149Y-48834549I-239949J14D01*
G01*
X92119209Y-53150000D02*
G75*
G02*
X92355379Y-52913809I236191J0D01*
G01*
X93962134Y-56150000D02*
G75*
G03*
X93398304Y-55586166I-563834J0D01*
G01*
X93398304Y-56913830D02*
G75*
G03*
X93962130Y-56350000I-4J563830D01*
G01*
X93280661Y-48834614D02*
G75*
G03*
X93040714Y-49074614I39J-239986D01*
G01*
X100270276Y-41166382D02*
G75*
G02*
X99798218Y-40694276I24J472082D01*
G01*
X92476831Y-52913830D02*
G75*
G03*
X93040630Y-52350000I-31J563830D01*
G01*
%TO.N,/RJ45_Out_16+*%
X114863143Y-47913135D02*
X114863143Y-48033135D01*
X115575000Y-45976000D02*
X114836670Y-45976000D01*
X114320640Y-59365404D02*
X114781548Y-59365404D01*
X114623143Y-48273135D02*
X114560640Y-48273135D01*
X113756320Y-60036764D02*
X113531087Y-60036764D01*
X115345868Y-58801084D02*
X115345868Y-58601084D01*
X114781543Y-56036764D02*
X114556320Y-56036764D01*
X114320640Y-54356000D02*
X114320640Y-49810459D01*
X114320640Y-48633135D02*
X114320640Y-49810459D01*
X115262000Y-65416001D02*
X114320640Y-64474641D01*
X113992000Y-58036764D02*
X113531067Y-58036764D01*
X114836670Y-46511856D02*
X114320640Y-47027887D01*
X113531067Y-57365404D02*
X113992000Y-57365404D01*
X114320640Y-55801084D02*
X114320640Y-55601084D01*
X114836670Y-45976000D02*
X114836670Y-46511856D01*
X113295407Y-59801084D02*
X113295407Y-59601084D01*
X114320640Y-47027887D02*
X114320640Y-47433135D01*
X113992000Y-57365404D02*
X114556320Y-57365404D01*
X113531087Y-59365404D02*
X113756320Y-59365404D01*
X114320640Y-64474641D02*
X114320640Y-60601084D01*
X114320640Y-55601084D02*
X114320640Y-54356000D01*
X114320640Y-48513135D02*
X114320640Y-48633135D01*
X114320640Y-58036764D02*
X113992000Y-58036764D01*
X114560640Y-47673135D02*
X114623143Y-47673135D01*
X113295387Y-57801084D02*
X113295387Y-57601084D01*
X115345863Y-56801084D02*
X115345863Y-56601084D01*
X114781548Y-58036764D02*
X114320640Y-58036764D01*
X113756320Y-59365404D02*
X114320640Y-59365404D01*
X114556320Y-57365404D02*
X114781543Y-57365404D01*
X114320640Y-47433135D02*
G75*
G03*
X114560640Y-47673060I239960J35D01*
G01*
X113531067Y-58036764D02*
G75*
G02*
X113295436Y-57801084I33J235664D01*
G01*
X114556320Y-56036764D02*
G75*
G02*
X114320636Y-55801084I-20J235664D01*
G01*
X115345863Y-56601084D02*
G75*
G03*
X114781543Y-56036737I-564363J-16D01*
G01*
X115345868Y-58601084D02*
G75*
G03*
X114781548Y-58036732I-564368J-16D01*
G01*
X113531087Y-60036764D02*
G75*
G02*
X113295436Y-59801084I13J235664D01*
G01*
X114863143Y-48033135D02*
G75*
G02*
X114623143Y-48273143I-240043J35D01*
G01*
X114560640Y-48273135D02*
G75*
G03*
X114320635Y-48513135I-40J-239965D01*
G01*
X113295387Y-57601084D02*
G75*
G02*
X113531067Y-57365387I235713J-16D01*
G01*
X114320640Y-60601084D02*
G75*
G03*
X113756320Y-60036760I-564340J-16D01*
G01*
X114781548Y-59365404D02*
G75*
G03*
X115345804Y-58801084I-48J564304D01*
G01*
X114623143Y-47673135D02*
G75*
G02*
X114863065Y-47913135I-43J-239965D01*
G01*
X113295407Y-59601084D02*
G75*
G02*
X113531087Y-59365407I235693J-16D01*
G01*
X114781543Y-57365404D02*
G75*
G03*
X115345804Y-56801084I-43J564304D01*
G01*
%TO.N,/RJ45_Out_18-*%
X97749975Y-58611666D02*
X95959654Y-56821346D01*
X97891395Y-58753086D02*
X97749975Y-58611666D01*
X101363170Y-62224862D02*
X99871300Y-60732992D01*
X95086170Y-46665929D02*
X94795970Y-46375729D01*
X94795970Y-45576271D02*
X95361271Y-45010970D01*
X97951169Y-60107530D02*
X97809746Y-59966107D01*
X94795970Y-46375729D02*
X94795970Y-45576271D01*
X100892000Y-65416001D02*
X100892000Y-64691001D01*
X95361271Y-45010970D02*
X95962030Y-45010970D01*
X95959654Y-56821346D02*
X95086170Y-55947862D01*
X100892000Y-64691001D02*
X101363170Y-64219831D01*
X99871300Y-59935615D02*
X99952951Y-59853963D01*
X98830196Y-60025882D02*
X98748547Y-60107532D01*
X95962030Y-45010970D02*
X96777000Y-44196000D01*
X99113039Y-59743039D02*
X98946042Y-59910037D01*
X97809746Y-59168731D02*
X97891396Y-59087082D01*
X101363170Y-64219831D02*
X101363170Y-62224862D01*
X99113037Y-59743037D02*
X99113039Y-59743039D01*
X99395879Y-59460195D02*
X99113037Y-59743037D01*
X99477531Y-59378544D02*
X99395879Y-59460195D01*
X98946042Y-59910037D02*
X98830196Y-60025882D01*
X95086170Y-55947862D02*
X95086170Y-46665929D01*
X99871300Y-60732992D02*
X99871300Y-60732991D01*
X99952951Y-59519969D02*
X99811526Y-59378544D01*
X98748547Y-60107532D02*
G75*
G02*
X97951210Y-60107489I-398647J398732D01*
G01*
X97891396Y-59087082D02*
G75*
G03*
X97891380Y-58753102I-166996J166982D01*
G01*
X97809746Y-59966107D02*
G75*
G02*
X97809727Y-59168712I398654J398707D01*
G01*
X99811526Y-59378544D02*
G75*
G03*
X99477532Y-59378544I-166997J-166996D01*
G01*
X99952951Y-59853963D02*
G75*
G03*
X99952917Y-59520003I-166951J166963D01*
G01*
X99871300Y-60732991D02*
G75*
G02*
X99871297Y-59935612I398700J398691D01*
G01*
%TO.N,/RJ45_Out_18+*%
X95413830Y-49892330D02*
X95413830Y-50012330D01*
X98714350Y-59678345D02*
X98598505Y-59794191D01*
X100184642Y-59288277D02*
X100043217Y-59146852D01*
X98123087Y-58521397D02*
X97981666Y-58379975D01*
X98041437Y-59400422D02*
X98123087Y-59318773D01*
X96191346Y-56589654D02*
X95413830Y-55812138D01*
X95653830Y-49052330D02*
X96125879Y-49052330D01*
X95413830Y-48692330D02*
X95413830Y-48812330D01*
X102162000Y-65416001D02*
X102162000Y-64691001D01*
X100102991Y-60167305D02*
X100184642Y-60085653D01*
X95460382Y-45976000D02*
X95413830Y-46022552D01*
X101690830Y-62089138D02*
X100102992Y-60501300D01*
X101690830Y-64219831D02*
X101690830Y-62089138D01*
X99245841Y-59146852D02*
X99164189Y-59228503D01*
X99164189Y-59228503D02*
X98881347Y-59511345D01*
X98881347Y-59511345D02*
X98881348Y-59511348D01*
X102162000Y-64691001D02*
X101690830Y-64219831D01*
X95653830Y-47852330D02*
X96125854Y-47852330D01*
X98598505Y-59794191D02*
X98516855Y-59875840D01*
X95761000Y-45976000D02*
X95460382Y-45976000D01*
X97981666Y-58379975D02*
X96191346Y-56589654D01*
X96365854Y-48092330D02*
X96365854Y-48212330D01*
X96125854Y-48452330D02*
X95653830Y-48452330D01*
X96125879Y-49652330D02*
X95653830Y-49652330D01*
X95413830Y-55812138D02*
X95413830Y-50586971D01*
X98881348Y-59511348D02*
X98714350Y-59678345D01*
X95413830Y-50012330D02*
X95413830Y-50586971D01*
X98182861Y-59875841D02*
X98041438Y-59734418D01*
X95413830Y-46022552D02*
X95413830Y-47612330D01*
X96365879Y-49292330D02*
X96365879Y-49412330D01*
X100102992Y-60501300D02*
X100102991Y-60501300D01*
X95653830Y-48452330D02*
G75*
G03*
X95413830Y-48692330I-30J-239970D01*
G01*
X95653830Y-49652330D02*
G75*
G03*
X95413830Y-49892330I-30J-239970D01*
G01*
X100102991Y-60501300D02*
G75*
G02*
X100102988Y-60167303I167009J167000D01*
G01*
X95413830Y-48812330D02*
G75*
G03*
X95653830Y-49052270I239970J30D01*
G01*
X100184642Y-60085653D02*
G75*
G03*
X100184607Y-59288312I-398642J398653D01*
G01*
X100043217Y-59146852D02*
G75*
G03*
X99245841Y-59146852I-398688J-398688D01*
G01*
X96125854Y-47852330D02*
G75*
G02*
X96365870Y-48092330I46J-239970D01*
G01*
X98516855Y-59875840D02*
G75*
G02*
X98182903Y-59875799I-166955J167040D01*
G01*
X98041438Y-59734418D02*
G75*
G02*
X98041417Y-59400402I166962J167018D01*
G01*
X96125879Y-49052330D02*
G75*
G02*
X96365870Y-49292330I21J-239970D01*
G01*
X98123087Y-59318773D02*
G75*
G03*
X98123072Y-58521412I-398687J398673D01*
G01*
X95413830Y-47612330D02*
G75*
G03*
X95653830Y-47852270I239970J30D01*
G01*
X96365879Y-49412330D02*
G75*
G02*
X96125879Y-49652279I-239979J30D01*
G01*
X96365854Y-48212330D02*
G75*
G02*
X96125854Y-48452254I-239954J30D01*
G01*
%TO.N,/RJ45_Out_19-*%
X106560136Y-42254342D02*
X106892820Y-41921657D01*
X92355379Y-54586170D02*
X92713001Y-54586170D01*
X100798170Y-40077729D02*
X100798170Y-40222170D01*
X104188552Y-40222170D02*
X102362000Y-40222170D01*
X94813170Y-64219831D02*
X94813170Y-60500862D01*
X93398304Y-55913830D02*
X93276831Y-55913830D01*
X93040661Y-54586170D02*
X93398304Y-54586170D01*
X104809228Y-40842846D02*
X104188552Y-40222170D01*
X94342000Y-64691001D02*
X94813170Y-64219831D01*
X92713000Y-58400692D02*
X92713000Y-57150000D01*
X93401339Y-42833031D02*
X93401339Y-43507661D01*
X94813170Y-60500862D02*
X92713000Y-58400692D01*
X106468555Y-41497393D02*
X106135870Y-41830077D01*
X94342000Y-65416001D02*
X94342000Y-64691001D01*
X106644988Y-42678606D02*
X106560136Y-42593754D01*
X91791549Y-53350000D02*
X91791549Y-53150000D01*
X107317014Y-42345992D02*
X106984399Y-42678606D01*
X91791549Y-55350000D02*
X91791549Y-55150000D01*
X93276831Y-56586170D02*
X93398304Y-56586170D01*
X92713000Y-57150000D02*
X92713001Y-57150000D01*
X92713001Y-52350000D02*
X92713001Y-52150000D01*
X92713000Y-51308000D02*
X92713000Y-44196000D01*
X93054170Y-41334138D02*
X93054170Y-42485862D01*
X92713001Y-55913830D02*
X92355379Y-55913830D01*
X105796459Y-41830077D02*
X105711607Y-41745225D01*
X108162382Y-44196000D02*
X107408665Y-43442283D01*
X92713001Y-54586170D02*
X93040661Y-54586170D01*
X93634474Y-56350000D02*
X93634474Y-56150000D01*
X105711607Y-41745225D02*
X104809228Y-40842846D01*
X93634474Y-54350000D02*
X93634474Y-54150000D01*
X92476831Y-53913830D02*
X92355379Y-53913830D01*
X94166138Y-40222170D02*
X93054170Y-41334138D01*
X99653724Y-40222170D02*
X99362000Y-40222170D01*
X92713001Y-52150000D02*
X92713000Y-51308000D01*
X108463000Y-44196000D02*
X108162382Y-44196000D01*
X93398304Y-53913830D02*
X93040661Y-53913830D01*
X100798170Y-40530446D02*
X100798170Y-40694276D01*
X93276831Y-55913830D02*
X92713001Y-55913830D01*
X99362000Y-40222170D02*
X94827198Y-40222170D01*
X107408665Y-43102871D02*
X107741279Y-42770256D01*
X100653724Y-40838722D02*
X100270276Y-40838722D01*
X93054170Y-42485862D02*
X93401339Y-42833031D01*
X94827198Y-40222170D02*
X94166138Y-40222170D01*
X92355379Y-52586170D02*
X92476831Y-52586170D01*
X100798170Y-40222170D02*
X100798170Y-40530446D01*
X93401339Y-43507661D02*
X92713000Y-44196000D01*
X106892820Y-41582246D02*
X106807967Y-41497393D01*
X101745458Y-39605628D02*
X101270271Y-39605628D01*
X93040661Y-53913830D02*
X92476831Y-53913830D01*
X107741279Y-42430845D02*
X107656426Y-42345992D01*
X93398304Y-56586170D02*
G75*
G03*
X93634470Y-56350000I-4J236170D01*
G01*
X93398304Y-54586170D02*
G75*
G03*
X93634470Y-54350000I-4J236170D01*
G01*
X91791549Y-55150000D02*
G75*
G02*
X92355379Y-54586149I563851J0D01*
G01*
X101270271Y-39605628D02*
G75*
G03*
X100798228Y-40077729I29J-472072D01*
G01*
X107656426Y-42345992D02*
G75*
G03*
X107317014Y-42345992I-169706J-169704D01*
G01*
X100125830Y-40694276D02*
G75*
G03*
X99653724Y-40222170I-472130J-24D01*
G01*
X106984399Y-42678606D02*
G75*
G02*
X106644989Y-42678606I-169705J169703D01*
G01*
X92713001Y-57150000D02*
G75*
G02*
X93276831Y-56586201I563799J0D01*
G01*
X100798170Y-40694276D02*
G75*
G02*
X100653724Y-40838770I-144470J-24D01*
G01*
X106560136Y-42593754D02*
G75*
G02*
X106560088Y-42254294I169664J169754D01*
G01*
X91791549Y-53150000D02*
G75*
G02*
X92355379Y-52586149I563851J0D01*
G01*
X107741279Y-42770256D02*
G75*
G03*
X107741230Y-42430895I-169679J169656D01*
G01*
X107408665Y-43442283D02*
G75*
G02*
X107408688Y-43102894I169735J169683D01*
G01*
X93634474Y-54150000D02*
G75*
G03*
X93398304Y-53913826I-236174J0D01*
G01*
X92355379Y-55913830D02*
G75*
G02*
X91791570Y-55350000I21J563830D01*
G01*
X102217559Y-40077729D02*
G75*
G03*
X101745458Y-39605641I-472059J29D01*
G01*
X102362000Y-40222170D02*
G75*
G02*
X102217530Y-40077729I0J144470D01*
G01*
X106807967Y-41497393D02*
G75*
G03*
X106468555Y-41497393I-169706J-169704D01*
G01*
X92355379Y-53913830D02*
G75*
G02*
X91791570Y-53350000I21J563830D01*
G01*
X92476831Y-52586170D02*
G75*
G03*
X92712970Y-52350000I-31J236170D01*
G01*
X106892820Y-41921657D02*
G75*
G03*
X106892772Y-41582295I-169720J169657D01*
G01*
X106135870Y-41830077D02*
G75*
G02*
X105796460Y-41830077I-169705J169703D01*
G01*
X100270276Y-40838722D02*
G75*
G02*
X100125878Y-40694276I24J144422D01*
G01*
X93634474Y-56150000D02*
G75*
G03*
X93398304Y-55913826I-236174J0D01*
G01*
%TO.N,/RJ45_Out_17-*%
X107487508Y-58275361D02*
X107677490Y-58275361D01*
X107913170Y-58039681D02*
X107913170Y-57839681D01*
X104091100Y-43915410D02*
X103683497Y-43507805D01*
X108393993Y-48425763D02*
X108309141Y-48510617D01*
X94745000Y-44196000D02*
X95811970Y-44196000D01*
X107913170Y-57839681D02*
X107913170Y-55118000D01*
X102507067Y-43014190D02*
X103189882Y-43014190D01*
X110444030Y-46375729D02*
X109157670Y-47662089D01*
X95811970Y-43796271D02*
X96706911Y-42901330D01*
X100599388Y-42619708D02*
X100804906Y-42619708D01*
X96706911Y-42901330D02*
X99345271Y-42901330D01*
X107913170Y-64219831D02*
X107913170Y-61839681D01*
X108273424Y-47965783D02*
X108393993Y-48086352D01*
X110444030Y-45795279D02*
X110444030Y-46375729D01*
X104282577Y-44106886D02*
X104091100Y-43915410D01*
X107442000Y-64691001D02*
X107913170Y-64219831D01*
X105720460Y-45544768D02*
X105505315Y-45329623D01*
X106923188Y-59039681D02*
X106923188Y-58839681D01*
X104474057Y-45329623D02*
X104282578Y-45138144D01*
X95811970Y-44196000D02*
X95811970Y-43796271D01*
X110495000Y-45744309D02*
X110444030Y-45795279D01*
X101404906Y-43014190D02*
X102507067Y-43014190D01*
X108358277Y-47541519D02*
X108273424Y-47626371D01*
X108667472Y-59604001D02*
X108241810Y-59604001D01*
X107677490Y-61604001D02*
X107487508Y-61604001D01*
X107442000Y-65416001D02*
X107442000Y-64691001D01*
X105720460Y-46678412D02*
X105720460Y-45544768D01*
X107677490Y-59604001D02*
X107487508Y-59604001D01*
X108309141Y-48510617D02*
X107913170Y-48906589D01*
X99345271Y-42901330D02*
X99458130Y-43014190D01*
X107487508Y-60275361D02*
X107677490Y-60275361D01*
X108241810Y-59604001D02*
X107677490Y-59604001D01*
X103189882Y-43014190D02*
X103683497Y-43507805D01*
X108903152Y-60039681D02*
X108903152Y-59839681D01*
X110495000Y-44196000D02*
X110495000Y-45744309D01*
X108818258Y-47662089D02*
X108697688Y-47541519D01*
X107913170Y-55118000D02*
X107913170Y-48906589D01*
X101199388Y-43014190D02*
X101404906Y-43014190D01*
X105505315Y-45329623D02*
X105505313Y-45329622D01*
X99458130Y-43014190D02*
X100204906Y-43014190D01*
X107677490Y-60275361D02*
X108241810Y-60275361D01*
X108241810Y-60275361D02*
X108667472Y-60275361D01*
X106923188Y-61039681D02*
X106923188Y-60839681D01*
X104757995Y-45329623D02*
G75*
G02*
X104474057Y-45329623I-141969J141971D01*
G01*
X106923188Y-60839681D02*
G75*
G02*
X107487508Y-60275388I564312J-19D01*
G01*
X108667472Y-60275361D02*
G75*
G03*
X108903161Y-60039681I28J235661D01*
G01*
X104282578Y-44854206D02*
G75*
G03*
X104282624Y-44106840I-373678J373706D01*
G01*
X108393993Y-48086352D02*
G75*
G02*
X108394036Y-48425805I-169693J-169748D01*
G01*
X107913170Y-61839681D02*
G75*
G03*
X107677490Y-61604030I-235670J-19D01*
G01*
X108697688Y-47541519D02*
G75*
G03*
X108358276Y-47541518I-169706J-169703D01*
G01*
X106923188Y-58839681D02*
G75*
G02*
X107487508Y-58275388I564312J-19D01*
G01*
X100402147Y-42816949D02*
G75*
G02*
X100599388Y-42619747I197253J-51D01*
G01*
X109157670Y-47662089D02*
G75*
G02*
X108818258Y-47662089I-169706J169704D01*
G01*
X108903152Y-59839681D02*
G75*
G03*
X108667472Y-59604048I-235652J-19D01*
G01*
X107487508Y-59604001D02*
G75*
G02*
X106923199Y-59039681I-8J564301D01*
G01*
X104282578Y-45138144D02*
G75*
G02*
X104282603Y-44854231I141922J141944D01*
G01*
X108273424Y-47626371D02*
G75*
G03*
X108273401Y-47965806I169676J-169729D01*
G01*
X105505313Y-45329622D02*
G75*
G03*
X104758041Y-45329668I-373613J-373678D01*
G01*
X101002147Y-42816949D02*
G75*
G03*
X101199388Y-43014153I197253J49D01*
G01*
X100204906Y-43014190D02*
G75*
G03*
X100402190Y-42816949I-6J197290D01*
G01*
X107677490Y-58275361D02*
G75*
G03*
X107913161Y-58039681I10J235661D01*
G01*
X100804906Y-42619708D02*
G75*
G02*
X101002192Y-42816949I-6J-197292D01*
G01*
X107487508Y-61604001D02*
G75*
G02*
X106923199Y-61039681I-8J564301D01*
G01*
%TO.N,/RJ45_Out_16-*%
X113992000Y-55601084D02*
X113992000Y-54356000D01*
X113756320Y-59036764D02*
X114320640Y-59036764D01*
X112966767Y-59801084D02*
X112966767Y-59601084D01*
X113992000Y-46891759D02*
X114508030Y-46375729D01*
X114508030Y-45795279D02*
X114559000Y-45744309D01*
X115017223Y-56801084D02*
X115017223Y-56601084D01*
X114781548Y-58365404D02*
X114320640Y-58365404D01*
X113992000Y-54356000D02*
X113992000Y-46891759D01*
X113992000Y-58365404D02*
X113531067Y-58365404D01*
X113531087Y-59036764D02*
X113756320Y-59036764D01*
X113756320Y-60365404D02*
X113531087Y-60365404D01*
X113531067Y-57036764D02*
X113992000Y-57036764D01*
X113992000Y-55801084D02*
X113992000Y-55601084D01*
X113992000Y-65416001D02*
X113992000Y-60601084D01*
X114508030Y-46375729D02*
X114508030Y-45795279D01*
X114559000Y-45744309D02*
X114559000Y-44196000D01*
X112966747Y-57801084D02*
X112966747Y-57601084D01*
X114556320Y-57036764D02*
X114781543Y-57036764D01*
X114781543Y-56365404D02*
X114556320Y-56365404D01*
X114320640Y-59036764D02*
X114781548Y-59036764D01*
X114320640Y-58365404D02*
X113992000Y-58365404D01*
X113992000Y-57036764D02*
X114556320Y-57036764D01*
X115017228Y-58801084D02*
X115017228Y-58601084D01*
X113531087Y-60365404D02*
G75*
G02*
X112966796Y-59801084I13J564304D01*
G01*
X114556320Y-56365404D02*
G75*
G02*
X113991996Y-55801084I-20J564304D01*
G01*
X113531067Y-58365404D02*
G75*
G02*
X112966796Y-57801084I33J564304D01*
G01*
X113992000Y-60601084D02*
G75*
G03*
X113756320Y-60365400I-235700J-16D01*
G01*
X114781543Y-57036764D02*
G75*
G03*
X115017164Y-56801084I-43J235664D01*
G01*
X112966747Y-57601084D02*
G75*
G02*
X113531067Y-57036747I564353J-16D01*
G01*
X114781548Y-59036764D02*
G75*
G03*
X115017164Y-58801084I-48J235664D01*
G01*
X115017228Y-58601084D02*
G75*
G03*
X114781548Y-58365372I-235728J-16D01*
G01*
X115017223Y-56601084D02*
G75*
G03*
X114781543Y-56365377I-235723J-16D01*
G01*
X112966767Y-59601084D02*
G75*
G02*
X113531087Y-59036767I564333J-16D01*
G01*
%TD*%
%TA.AperFunction,Conductor*%
%TO.N,GND*%
G36*
X67038116Y-78505685D02*
G01*
X67083871Y-78558489D01*
X67095077Y-78610000D01*
X67095077Y-85220000D01*
X67075392Y-85287039D01*
X67022588Y-85332794D01*
X66971077Y-85344000D01*
X64837331Y-85344000D01*
X64770292Y-85324315D01*
X64724537Y-85271511D01*
X64713639Y-85211266D01*
X64713677Y-85210731D01*
X64720500Y-85114094D01*
X64720500Y-83845906D01*
X64710413Y-83703038D01*
X64656996Y-83465858D01*
X64566224Y-83240319D01*
X64440449Y-83032261D01*
X64399398Y-82984000D01*
X64282929Y-82847074D01*
X64282925Y-82847070D01*
X64097749Y-82689559D01*
X64097745Y-82689556D01*
X64097739Y-82689551D01*
X63889681Y-82563776D01*
X63889678Y-82563774D01*
X63889677Y-82563774D01*
X63664144Y-82473004D01*
X63664139Y-82473003D01*
X63426967Y-82419588D01*
X63426957Y-82419586D01*
X63284096Y-82409500D01*
X63284094Y-82409500D01*
X61814500Y-82409500D01*
X61747461Y-82389815D01*
X61701706Y-82337011D01*
X61690500Y-82285500D01*
X61690500Y-81594500D01*
X61710185Y-81527461D01*
X61762989Y-81481706D01*
X61814500Y-81470500D01*
X63284094Y-81470500D01*
X63426962Y-81460413D01*
X63664142Y-81406996D01*
X63889681Y-81316224D01*
X64097739Y-81190449D01*
X64282927Y-81032927D01*
X64440449Y-80847739D01*
X64566224Y-80639681D01*
X64656996Y-80414142D01*
X64710413Y-80176962D01*
X64720500Y-80034094D01*
X64720500Y-78765906D01*
X64710413Y-78623038D01*
X64710412Y-78623037D01*
X64710109Y-78618733D01*
X64725023Y-78550474D01*
X64774473Y-78501114D01*
X64833801Y-78486000D01*
X66971077Y-78486000D01*
X67038116Y-78505685D01*
G37*
%TD.AperFunction*%
%TD*%
%TA.AperFunction,Conductor*%
%TO.N,GND*%
G36*
X67038116Y-53105685D02*
G01*
X67083871Y-53158489D01*
X67095077Y-53210000D01*
X67095077Y-59820000D01*
X67075392Y-59887039D01*
X67022588Y-59932794D01*
X66971077Y-59944000D01*
X64837331Y-59944000D01*
X64770292Y-59924315D01*
X64724537Y-59871511D01*
X64713639Y-59811266D01*
X64720500Y-59714094D01*
X64720500Y-58445906D01*
X64710413Y-58303038D01*
X64656996Y-58065858D01*
X64566224Y-57840319D01*
X64440449Y-57632261D01*
X64440440Y-57632250D01*
X64282929Y-57447074D01*
X64282925Y-57447070D01*
X64097749Y-57289559D01*
X64097745Y-57289556D01*
X64097739Y-57289551D01*
X63889681Y-57163776D01*
X63889678Y-57163774D01*
X63889677Y-57163774D01*
X63664144Y-57073004D01*
X63664139Y-57073003D01*
X63426967Y-57019588D01*
X63426957Y-57019586D01*
X63284096Y-57009500D01*
X63284094Y-57009500D01*
X61814500Y-57009500D01*
X61747461Y-56989815D01*
X61701706Y-56937011D01*
X61690500Y-56885500D01*
X61690500Y-56194500D01*
X61710185Y-56127461D01*
X61762989Y-56081706D01*
X61814500Y-56070500D01*
X63284094Y-56070500D01*
X63426962Y-56060413D01*
X63664142Y-56006996D01*
X63889681Y-55916224D01*
X64097739Y-55790449D01*
X64282927Y-55632927D01*
X64440449Y-55447739D01*
X64566224Y-55239681D01*
X64656996Y-55014142D01*
X64710413Y-54776962D01*
X64720500Y-54634094D01*
X64720500Y-53365906D01*
X64710413Y-53223038D01*
X64710412Y-53223037D01*
X64710109Y-53218733D01*
X64725023Y-53150474D01*
X64774473Y-53101114D01*
X64833801Y-53086000D01*
X66971077Y-53086000D01*
X67038116Y-53105685D01*
G37*
%TD.AperFunction*%
%TD*%
%TA.AperFunction,Conductor*%
%TO.N,GND*%
G36*
X78506566Y-37960185D02*
G01*
X78552321Y-38012989D01*
X78563219Y-38073234D01*
X78559500Y-38125905D01*
X78559500Y-39394096D01*
X78569586Y-39536957D01*
X78569588Y-39536967D01*
X78623003Y-39774139D01*
X78623004Y-39774144D01*
X78707345Y-39983703D01*
X78714114Y-40053244D01*
X78707345Y-40076297D01*
X78623004Y-40285855D01*
X78623003Y-40285860D01*
X78569588Y-40523032D01*
X78569586Y-40523042D01*
X78559500Y-40665903D01*
X78559500Y-41934096D01*
X78569586Y-42076957D01*
X78569588Y-42076967D01*
X78623003Y-42314139D01*
X78623004Y-42314144D01*
X78713774Y-42539677D01*
X78713776Y-42539681D01*
X78839551Y-42747739D01*
X78839556Y-42747745D01*
X78839559Y-42747749D01*
X78997070Y-42932925D01*
X78997074Y-42932929D01*
X79182250Y-43090440D01*
X79182261Y-43090449D01*
X79390319Y-43216224D01*
X79503088Y-43261610D01*
X79615855Y-43306995D01*
X79615856Y-43306995D01*
X79615858Y-43306996D01*
X79853038Y-43360413D01*
X79995906Y-43370500D01*
X81465500Y-43370500D01*
X81532539Y-43390185D01*
X81578294Y-43442989D01*
X81589500Y-43494500D01*
X81589500Y-44185500D01*
X81569815Y-44252539D01*
X81517011Y-44298294D01*
X81465500Y-44309500D01*
X79995903Y-44309500D01*
X79853042Y-44319586D01*
X79853035Y-44319587D01*
X79615857Y-44373004D01*
X79615848Y-44373007D01*
X79563275Y-44394166D01*
X79493734Y-44400935D01*
X79452477Y-44385036D01*
X79408339Y-44358152D01*
X79408334Y-44358150D01*
X79402008Y-44354781D01*
X79402000Y-44354777D01*
X79235727Y-44280920D01*
X79235720Y-44280918D01*
X79235711Y-44280914D01*
X79218452Y-44274680D01*
X79202493Y-44268915D01*
X79118374Y-44241789D01*
X79118359Y-44241785D01*
X79118358Y-44241785D01*
X79118354Y-44241784D01*
X79118349Y-44241783D01*
X79038061Y-44226549D01*
X79035310Y-44226027D01*
X78971855Y-44210998D01*
X78941897Y-44208301D01*
X78935932Y-44207169D01*
X78935928Y-44207169D01*
X78893699Y-44199157D01*
X78840155Y-44198728D01*
X78830035Y-44198233D01*
X78752628Y-44191267D01*
X78744106Y-44190500D01*
X76578000Y-44190500D01*
X76510961Y-44170815D01*
X76465206Y-44118011D01*
X76454000Y-44066500D01*
X76454000Y-38064500D01*
X76473685Y-37997461D01*
X76526489Y-37951706D01*
X76578000Y-37940500D01*
X78439527Y-37940500D01*
X78506566Y-37960185D01*
G37*
%TD.AperFunction*%
%TA.AperFunction,Conductor*%
G36*
X83312000Y-44400313D02*
G01*
X83244144Y-44373004D01*
X83244139Y-44373003D01*
X83006967Y-44319588D01*
X83006957Y-44319586D01*
X82864096Y-44309500D01*
X82864094Y-44309500D01*
X82814500Y-44309500D01*
X82747461Y-44289815D01*
X82701706Y-44237011D01*
X82690500Y-44185500D01*
X82690500Y-43494500D01*
X82710185Y-43427461D01*
X82762989Y-43381706D01*
X82814500Y-43370500D01*
X82864094Y-43370500D01*
X83006962Y-43360413D01*
X83244142Y-43306996D01*
X83312000Y-43279685D01*
X83312000Y-44400313D01*
G37*
%TD.AperFunction*%
%TD*%
%TA.AperFunction,Conductor*%
%TO.N,GND*%
G36*
X78513238Y-78505685D02*
G01*
X78558993Y-78558489D01*
X78569891Y-78618733D01*
X78559500Y-78765903D01*
X78559500Y-80034096D01*
X78569586Y-80176957D01*
X78569588Y-80176967D01*
X78623003Y-80414139D01*
X78623004Y-80414144D01*
X78713774Y-80639677D01*
X78713776Y-80639681D01*
X78839551Y-80847739D01*
X78839556Y-80847745D01*
X78839559Y-80847749D01*
X78997070Y-81032925D01*
X78997074Y-81032929D01*
X79182250Y-81190440D01*
X79182261Y-81190449D01*
X79390319Y-81316224D01*
X79503088Y-81361610D01*
X79615855Y-81406995D01*
X79615856Y-81406995D01*
X79615858Y-81406996D01*
X79853038Y-81460413D01*
X79995906Y-81470500D01*
X81465500Y-81470500D01*
X81532539Y-81490185D01*
X81578294Y-81542989D01*
X81589500Y-81594500D01*
X81589500Y-82285500D01*
X81569815Y-82352539D01*
X81517011Y-82398294D01*
X81465500Y-82409500D01*
X79995903Y-82409500D01*
X79853042Y-82419586D01*
X79853032Y-82419588D01*
X79615860Y-82473003D01*
X79615855Y-82473004D01*
X79390322Y-82563774D01*
X79390319Y-82563776D01*
X79182267Y-82689547D01*
X79182250Y-82689559D01*
X78997074Y-82847070D01*
X78997070Y-82847074D01*
X78839559Y-83032250D01*
X78839547Y-83032267D01*
X78713776Y-83240319D01*
X78713774Y-83240322D01*
X78623004Y-83465855D01*
X78623003Y-83465860D01*
X78569588Y-83703032D01*
X78569586Y-83703042D01*
X78559500Y-83845903D01*
X78559500Y-85114094D01*
X78566361Y-85211266D01*
X78551447Y-85279526D01*
X78501997Y-85328886D01*
X78442669Y-85344000D01*
X76070000Y-85344000D01*
X76002961Y-85324315D01*
X75957206Y-85271511D01*
X75946000Y-85220000D01*
X75946000Y-78610000D01*
X75965685Y-78542961D01*
X76018489Y-78497206D01*
X76070000Y-78486000D01*
X78446199Y-78486000D01*
X78513238Y-78505685D01*
G37*
%TD.AperFunction*%
%TD*%
%TA.AperFunction,Conductor*%
%TO.N,+3V3*%
G36*
X78756417Y-45469615D02*
G01*
X78769206Y-45468567D01*
X78802401Y-45480557D01*
X78808715Y-45483920D01*
X78873810Y-45528907D01*
X79003019Y-45587416D01*
X79006523Y-45589283D01*
X79028746Y-45611050D01*
X79052329Y-45631353D01*
X79053500Y-45635296D01*
X79056438Y-45638174D01*
X79063365Y-45668501D01*
X79072227Y-45698329D01*
X79071080Y-45702278D01*
X79071997Y-45706289D01*
X79071741Y-45709705D01*
X79067500Y-45757411D01*
X79067500Y-47002578D01*
X79067501Y-47002584D01*
X79078084Y-47121639D01*
X79078084Y-47121641D01*
X79078085Y-47121644D01*
X79133911Y-47316746D01*
X79227867Y-47496617D01*
X79356107Y-47653892D01*
X79484348Y-47758458D01*
X79513383Y-47782133D01*
X79681754Y-47870081D01*
X79732059Y-47918566D01*
X79745933Y-47955669D01*
X79755999Y-48005999D01*
X79756000Y-48006000D01*
X81465500Y-48006000D01*
X81532539Y-48025685D01*
X81578294Y-48078489D01*
X81589500Y-48130000D01*
X81589500Y-49660000D01*
X81569815Y-49727039D01*
X81517011Y-49772794D01*
X81465500Y-49784000D01*
X79756000Y-49784000D01*
X79737286Y-49886922D01*
X79705926Y-49949358D01*
X79672698Y-49974647D01*
X79513385Y-50057865D01*
X79513383Y-50057867D01*
X79356107Y-50186107D01*
X79227867Y-50343382D01*
X79133910Y-50523256D01*
X79078084Y-50718358D01*
X79067500Y-50837416D01*
X79067500Y-52082578D01*
X79067501Y-52082584D01*
X79076963Y-52189020D01*
X79063292Y-52257539D01*
X79014747Y-52307790D01*
X78953450Y-52324000D01*
X75816000Y-52324000D01*
X75748961Y-52304315D01*
X75703206Y-52251511D01*
X75692000Y-52200000D01*
X75692000Y-45590000D01*
X75711685Y-45522961D01*
X75764489Y-45477206D01*
X75816000Y-45466000D01*
X78744106Y-45466000D01*
X78756417Y-45469615D01*
G37*
%TD.AperFunction*%
%TA.AperFunction,Conductor*%
G36*
X83001039Y-48025685D02*
G01*
X83046794Y-48078489D01*
X83058000Y-48130000D01*
X83058000Y-49660000D01*
X83038315Y-49727039D01*
X82985511Y-49772794D01*
X82934000Y-49784000D01*
X82814500Y-49784000D01*
X82747461Y-49764315D01*
X82701706Y-49711511D01*
X82690500Y-49660000D01*
X82690500Y-48130000D01*
X82693050Y-48121314D01*
X82691762Y-48112353D01*
X82702740Y-48088312D01*
X82710185Y-48062961D01*
X82717025Y-48057033D01*
X82720787Y-48048797D01*
X82743021Y-48034507D01*
X82762989Y-48017206D01*
X82773503Y-48014918D01*
X82779565Y-48011023D01*
X82814500Y-48006000D01*
X82934000Y-48006000D01*
X83001039Y-48025685D01*
G37*
%TD.AperFunction*%
%TD*%
%TA.AperFunction,Conductor*%
%TO.N,GND*%
G36*
X67038116Y-65805685D02*
G01*
X67083871Y-65858489D01*
X67095077Y-65910000D01*
X67095077Y-72520000D01*
X67075392Y-72587039D01*
X67022588Y-72632794D01*
X66971077Y-72644000D01*
X64837331Y-72644000D01*
X64770292Y-72624315D01*
X64724537Y-72571511D01*
X64713639Y-72511266D01*
X64720500Y-72414094D01*
X64720500Y-71145906D01*
X64710413Y-71003038D01*
X64656996Y-70765858D01*
X64566224Y-70540319D01*
X64440449Y-70332261D01*
X64440440Y-70332250D01*
X64282929Y-70147074D01*
X64282925Y-70147070D01*
X64097749Y-69989559D01*
X64097745Y-69989556D01*
X64097739Y-69989551D01*
X63889681Y-69863776D01*
X63889678Y-69863774D01*
X63889677Y-69863774D01*
X63664144Y-69773004D01*
X63664139Y-69773003D01*
X63426967Y-69719588D01*
X63426957Y-69719586D01*
X63284096Y-69709500D01*
X63284094Y-69709500D01*
X61814500Y-69709500D01*
X61747461Y-69689815D01*
X61701706Y-69637011D01*
X61690500Y-69585500D01*
X61690500Y-68894500D01*
X61710185Y-68827461D01*
X61762989Y-68781706D01*
X61814500Y-68770500D01*
X63284094Y-68770500D01*
X63426962Y-68760413D01*
X63664142Y-68706996D01*
X63889681Y-68616224D01*
X64097739Y-68490449D01*
X64282927Y-68332927D01*
X64440449Y-68147739D01*
X64566224Y-67939681D01*
X64656996Y-67714142D01*
X64710413Y-67476962D01*
X64720500Y-67334094D01*
X64720500Y-66065906D01*
X64710413Y-65923038D01*
X64710412Y-65923037D01*
X64710109Y-65918733D01*
X64725023Y-65850474D01*
X64774473Y-65801114D01*
X64833801Y-65786000D01*
X66971077Y-65786000D01*
X67038116Y-65805685D01*
G37*
%TD.AperFunction*%
%TD*%
%TA.AperFunction,Conductor*%
%TO.N,GND*%
G36*
X67038116Y-40405685D02*
G01*
X67083871Y-40458489D01*
X67095077Y-40510000D01*
X67095077Y-47120000D01*
X67075392Y-47187039D01*
X67022588Y-47232794D01*
X66971077Y-47244000D01*
X64837331Y-47244000D01*
X64770292Y-47224315D01*
X64724537Y-47171511D01*
X64713639Y-47111266D01*
X64720500Y-47014094D01*
X64720500Y-45745906D01*
X64710413Y-45603038D01*
X64656996Y-45365858D01*
X64566224Y-45140319D01*
X64440449Y-44932261D01*
X64384590Y-44866591D01*
X64282929Y-44747074D01*
X64282925Y-44747070D01*
X64097749Y-44589559D01*
X64097745Y-44589556D01*
X64097739Y-44589551D01*
X63889681Y-44463776D01*
X63889678Y-44463774D01*
X63889677Y-44463774D01*
X63664144Y-44373004D01*
X63664139Y-44373003D01*
X63426967Y-44319588D01*
X63426957Y-44319586D01*
X63284096Y-44309500D01*
X63284094Y-44309500D01*
X61814500Y-44309500D01*
X61747461Y-44289815D01*
X61701706Y-44237011D01*
X61690500Y-44185500D01*
X61690500Y-43494500D01*
X61710185Y-43427461D01*
X61762989Y-43381706D01*
X61814500Y-43370500D01*
X63284094Y-43370500D01*
X63426962Y-43360413D01*
X63664142Y-43306996D01*
X63889681Y-43216224D01*
X64097739Y-43090449D01*
X64282927Y-42932927D01*
X64440449Y-42747739D01*
X64566224Y-42539681D01*
X64656996Y-42314142D01*
X64710413Y-42076962D01*
X64720500Y-41934094D01*
X64720500Y-40665906D01*
X64710413Y-40523038D01*
X64710412Y-40523037D01*
X64710109Y-40518733D01*
X64725023Y-40450474D01*
X64774473Y-40401114D01*
X64833801Y-40386000D01*
X66971077Y-40386000D01*
X67038116Y-40405685D01*
G37*
%TD.AperFunction*%
%TD*%
%TA.AperFunction,Conductor*%
%TO.N,GND*%
G36*
X86303039Y-37865685D02*
G01*
X86348794Y-37918489D01*
X86360000Y-37970000D01*
X86360000Y-44580000D01*
X86340315Y-44647039D01*
X86287511Y-44692794D01*
X86236000Y-44704000D01*
X83857893Y-44704000D01*
X83790854Y-44684315D01*
X83777551Y-44674452D01*
X83677743Y-44589554D01*
X83677741Y-44589552D01*
X83677739Y-44589551D01*
X83469681Y-44463776D01*
X83469678Y-44463774D01*
X83469677Y-44463774D01*
X83244144Y-44373004D01*
X83244139Y-44373003D01*
X83006967Y-44319588D01*
X83006957Y-44319586D01*
X82864096Y-44309500D01*
X82864094Y-44309500D01*
X82814500Y-44309500D01*
X82747461Y-44289815D01*
X82701706Y-44237011D01*
X82690500Y-44185500D01*
X82690500Y-43494500D01*
X82710185Y-43427461D01*
X82762989Y-43381706D01*
X82814500Y-43370500D01*
X82864094Y-43370500D01*
X83006962Y-43360413D01*
X83244142Y-43306996D01*
X83469681Y-43216224D01*
X83677739Y-43090449D01*
X83862927Y-42932927D01*
X84020449Y-42747739D01*
X84146224Y-42539681D01*
X84236996Y-42314142D01*
X84290413Y-42076962D01*
X84300500Y-41934094D01*
X84300500Y-40665906D01*
X84290413Y-40523038D01*
X84236996Y-40285858D01*
X84152653Y-40076294D01*
X84145885Y-40006756D01*
X84152652Y-39983708D01*
X84236996Y-39774142D01*
X84290413Y-39536962D01*
X84300500Y-39394094D01*
X84300500Y-38125906D01*
X84290413Y-37983038D01*
X84290412Y-37983037D01*
X84290109Y-37978733D01*
X84305023Y-37910474D01*
X84354473Y-37861114D01*
X84413801Y-37846000D01*
X86236000Y-37846000D01*
X86303039Y-37865685D01*
G37*
%TD.AperFunction*%
%TA.AperFunction,Conductor*%
G36*
X79615858Y-43306996D02*
G01*
X79853038Y-43360413D01*
X79995906Y-43370500D01*
X81465500Y-43370500D01*
X81532539Y-43390185D01*
X81578294Y-43442989D01*
X81589500Y-43494500D01*
X81589500Y-44185500D01*
X81569815Y-44252539D01*
X81517011Y-44298294D01*
X81465500Y-44309500D01*
X79995903Y-44309500D01*
X79853042Y-44319586D01*
X79853032Y-44319588D01*
X79615860Y-44373003D01*
X79615855Y-44373004D01*
X79502000Y-44418827D01*
X79502000Y-43261171D01*
X79615858Y-43306996D01*
G37*
%TD.AperFunction*%
%TD*%
%TA.AperFunction,Conductor*%
%TO.N,GND*%
G36*
X78513238Y-65805685D02*
G01*
X78558993Y-65858489D01*
X78569891Y-65918733D01*
X78559500Y-66065903D01*
X78559500Y-67334096D01*
X78569586Y-67476957D01*
X78569588Y-67476967D01*
X78623003Y-67714139D01*
X78623004Y-67714144D01*
X78713774Y-67939677D01*
X78713776Y-67939681D01*
X78839551Y-68147739D01*
X78839556Y-68147745D01*
X78839559Y-68147749D01*
X78997070Y-68332925D01*
X78997074Y-68332929D01*
X79182250Y-68490440D01*
X79182261Y-68490449D01*
X79390319Y-68616224D01*
X79503088Y-68661610D01*
X79615855Y-68706995D01*
X79615856Y-68706995D01*
X79615858Y-68706996D01*
X79853038Y-68760413D01*
X79995906Y-68770500D01*
X81465500Y-68770500D01*
X81532539Y-68790185D01*
X81578294Y-68842989D01*
X81589500Y-68894500D01*
X81589500Y-69585500D01*
X81569815Y-69652539D01*
X81517011Y-69698294D01*
X81465500Y-69709500D01*
X79995903Y-69709500D01*
X79853042Y-69719586D01*
X79853032Y-69719588D01*
X79615860Y-69773003D01*
X79615855Y-69773004D01*
X79390322Y-69863774D01*
X79390319Y-69863776D01*
X79182267Y-69989547D01*
X79182250Y-69989559D01*
X78997074Y-70147070D01*
X78997070Y-70147074D01*
X78839559Y-70332250D01*
X78839547Y-70332267D01*
X78713776Y-70540319D01*
X78713774Y-70540322D01*
X78623004Y-70765855D01*
X78623003Y-70765860D01*
X78569588Y-71003032D01*
X78569586Y-71003042D01*
X78559500Y-71145903D01*
X78559500Y-72414094D01*
X78566361Y-72511266D01*
X78551447Y-72579526D01*
X78501997Y-72628886D01*
X78442669Y-72644000D01*
X76070000Y-72644000D01*
X76002961Y-72624315D01*
X75957206Y-72571511D01*
X75946000Y-72520000D01*
X75946000Y-65910000D01*
X75965685Y-65842961D01*
X76018489Y-65797206D01*
X76070000Y-65786000D01*
X78446199Y-65786000D01*
X78513238Y-65805685D01*
G37*
%TD.AperFunction*%
%TD*%
M02*
