%TF.GenerationSoftware,KiCad,Pcbnew,9.0.0-9.0.0-2~ubuntu24.04.1*%
%TF.CreationDate,2025-03-20T04:03:54-04:00*%
%TF.ProjectId,PicoLVDS,5069636f-4c56-4445-932e-6b696361645f,3*%
%TF.SameCoordinates,Original*%
%TF.FileFunction,Copper,L4,Bot*%
%TF.FilePolarity,Positive*%
%FSLAX46Y46*%
G04 Gerber Fmt 4.6, Leading zero omitted, Abs format (unit mm)*
G04 Created by KiCad (PCBNEW 9.0.0-9.0.0-2~ubuntu24.04.1) date 2025-03-20 04:03:54*
%MOMM*%
%LPD*%
G01*
G04 APERTURE LIST*
%TA.AperFunction,ComponentPad*%
%ADD10R,1.700000X1.700000*%
%TD*%
%TA.AperFunction,ComponentPad*%
%ADD11O,1.700000X1.700000*%
%TD*%
%TA.AperFunction,ComponentPad*%
%ADD12C,1.448000*%
%TD*%
%TA.AperFunction,ViaPad*%
%ADD13C,0.600000*%
%TD*%
%TA.AperFunction,ViaPad*%
%ADD14C,0.500000*%
%TD*%
%TA.AperFunction,Conductor*%
%ADD15C,0.175260*%
%TD*%
G04 APERTURE END LIST*
D10*
%TO.P,J1,1,Pin_1*%
%TO.N,/Out_0+*%
X33750000Y-43740000D03*
D11*
%TO.P,J1,2,Pin_2*%
%TO.N,/Out_0-*%
X36290000Y-43740000D03*
%TO.P,J1,3,Pin_3*%
%TO.N,/Out_1+*%
X33750000Y-46280000D03*
%TO.P,J1,4,Pin_4*%
%TO.N,/Out_1-*%
X36290000Y-46280000D03*
%TO.P,J1,5,Pin_5*%
%TO.N,/Out_2+*%
X33750000Y-48820000D03*
%TO.P,J1,6,Pin_6*%
%TO.N,/Out_2-*%
X36290000Y-48820000D03*
%TO.P,J1,7,Pin_7*%
%TO.N,/Out_3+*%
X33750000Y-51360000D03*
%TO.P,J1,8,Pin_8*%
%TO.N,/Out_3-*%
X36290000Y-51360000D03*
%TO.P,J1,9,Pin_9*%
%TO.N,/Out_4+*%
X33750000Y-53900000D03*
%TO.P,J1,10,Pin_10*%
%TO.N,/Out_4-*%
X36290000Y-53900000D03*
%TO.P,J1,11,Pin_11*%
%TO.N,/Out_5+*%
X33750000Y-56440000D03*
%TO.P,J1,12,Pin_12*%
%TO.N,/Out_5-*%
X36290000Y-56440000D03*
%TO.P,J1,13,Pin_13*%
%TO.N,/Out_6+*%
X33750000Y-58980000D03*
%TO.P,J1,14,Pin_14*%
%TO.N,/Out_6-*%
X36290000Y-58980000D03*
%TO.P,J1,15,Pin_15*%
%TO.N,/Out_7+*%
X33750000Y-61520000D03*
%TO.P,J1,16,Pin_16*%
%TO.N,/Out_7-*%
X36290000Y-61520000D03*
%TO.P,J1,17,Pin_17*%
%TO.N,/Out_8+*%
X33750000Y-64060000D03*
%TO.P,J1,18,Pin_18*%
%TO.N,/Out_8-*%
X36290000Y-64060000D03*
%TO.P,J1,19,Pin_19*%
%TO.N,/Out_9+*%
X33750000Y-66600000D03*
%TO.P,J1,20,Pin_20*%
%TO.N,/Out_9-*%
X36290000Y-66600000D03*
%TO.P,J1,21,Pin_21*%
%TO.N,/Out_10+*%
X33750000Y-69140000D03*
%TO.P,J1,22,Pin_22*%
%TO.N,/Out_10-*%
X36290000Y-69140000D03*
%TO.P,J1,23,Pin_23*%
%TO.N,/Out_11+*%
X33750000Y-71680000D03*
%TO.P,J1,24,Pin_24*%
%TO.N,/Out_11-*%
X36290000Y-71680000D03*
%TO.P,J1,25,Pin_25*%
%TO.N,/Out_12+*%
X33750000Y-74220000D03*
%TO.P,J1,26,Pin_26*%
%TO.N,/Out_12-*%
X36290000Y-74220000D03*
%TO.P,J1,27,Pin_27*%
%TO.N,/Out_13+*%
X33750000Y-76760000D03*
%TO.P,J1,28,Pin_28*%
%TO.N,/Out_13-*%
X36290000Y-76760000D03*
%TO.P,J1,29,Pin_29*%
%TO.N,/Out_14+*%
X33750000Y-79300000D03*
%TO.P,J1,30,Pin_30*%
%TO.N,/Out_14-*%
X36290000Y-79300000D03*
%TO.P,J1,31,Pin_31*%
%TO.N,/Out_15+*%
X33750000Y-81840000D03*
%TO.P,J1,32,Pin_32*%
%TO.N,/Out_15-*%
X36290000Y-81840000D03*
%TO.P,J1,33,Pin_33*%
%TO.N,unconnected-(J1-Pin_33-Pad33)*%
X33750000Y-84380000D03*
%TO.P,J1,34,Pin_34*%
%TO.N,unconnected-(J1-Pin_34-Pad34)*%
X36290000Y-84380000D03*
%TD*%
D12*
%TO.P,J2,1_1,1_1*%
%TO.N,/RJ45_Out_19-*%
X108463000Y-44196000D03*
%TO.P,J2,1_2,1_2*%
%TO.N,/RJ45_Out_19+*%
X109479000Y-45976000D03*
%TO.P,J2,1_3,1_3*%
%TO.N,/RJ45_Out_17-*%
X110495000Y-44196000D03*
%TO.P,J2,1_4,1_4*%
%TO.N,/RJ45_Out_18+*%
X111511000Y-45976000D03*
%TO.P,J2,1_5,1_5*%
%TO.N,/RJ45_Out_18-*%
X112527000Y-44196000D03*
%TO.P,J2,1_6,1_6*%
%TO.N,/RJ45_Out_17+*%
X113543000Y-45976000D03*
%TO.P,J2,1_7,1_7*%
%TO.N,/RJ45_Out_16-*%
X114559000Y-44196000D03*
%TO.P,J2,1_8,1_8*%
%TO.N,/RJ45_Out_16+*%
X115575000Y-45976000D03*
%TO.P,J2,2_1,2_1*%
%TO.N,/RJ45_Out_19-*%
X92713000Y-44196000D03*
%TO.P,J2,2_2,2_2*%
%TO.N,/RJ45_Out_19+*%
X93729000Y-45976000D03*
%TO.P,J2,2_3,2_3*%
%TO.N,/RJ45_Out_17-*%
X94745000Y-44196000D03*
%TO.P,J2,2_4,2_4*%
%TO.N,/RJ45_Out_18+*%
X95761000Y-45976000D03*
%TO.P,J2,2_5,2_5*%
%TO.N,/RJ45_Out_18-*%
X96777000Y-44196000D03*
%TO.P,J2,2_6,2_6*%
%TO.N,/RJ45_Out_17+*%
X97793000Y-45976000D03*
%TO.P,J2,2_7,2_7*%
%TO.N,/RJ45_Out_16-*%
X98809000Y-44196000D03*
%TO.P,J2,2_8,2_8*%
%TO.N,/RJ45_Out_16+*%
X99825000Y-45976000D03*
%TD*%
D13*
%TO.N,+3V3*%
X52750000Y-69250000D03*
X77216000Y-51816000D03*
X52750000Y-57750000D03*
X92952500Y-64273500D03*
X51500000Y-81110000D03*
X76962000Y-49276000D03*
X76454000Y-47244000D03*
X50175000Y-51800000D03*
X77216000Y-48006000D03*
X78232000Y-48006000D03*
X50200000Y-40100000D03*
X76962000Y-50292000D03*
X77978000Y-49784000D03*
X50175000Y-62200000D03*
X112722000Y-64544499D03*
X78486000Y-45974000D03*
X51500000Y-45935000D03*
X52750000Y-46000000D03*
X76962000Y-46228000D03*
X50175000Y-50500000D03*
X76200000Y-48514000D03*
X106172000Y-64516000D03*
X77724000Y-48768000D03*
X50175000Y-75200000D03*
X51500000Y-57635000D03*
X51500000Y-69267500D03*
X53000000Y-81000000D03*
X78486000Y-51816000D03*
X77724000Y-50800000D03*
X99556500Y-64527500D03*
X50175000Y-73900000D03*
X50175000Y-63500000D03*
X50200000Y-85600000D03*
X76200000Y-51308000D03*
X77724000Y-46990000D03*
X76200000Y-49784000D03*
%TO.N,GND*%
X66548000Y-67564000D03*
X66548000Y-56896000D03*
X76493077Y-83566000D03*
X90551000Y-63881000D03*
X76493077Y-66294000D03*
X66548000Y-82296000D03*
X84074000Y-88900000D03*
X76962000Y-39878000D03*
X66548000Y-84836000D03*
X52750000Y-68000000D03*
X65532000Y-42672000D03*
X120650000Y-60452000D03*
X76493077Y-81534000D03*
X77763077Y-69088000D03*
X66040000Y-58674000D03*
X65532000Y-68072000D03*
X66548000Y-43180000D03*
X85344000Y-39116000D03*
X65532000Y-66294000D03*
X66548000Y-78994000D03*
X77001077Y-71374000D03*
X66548000Y-42164000D03*
X66548000Y-57912000D03*
X65532000Y-78994000D03*
X65532000Y-84836000D03*
X120650000Y-88392000D03*
X66040000Y-71374000D03*
X52750000Y-44500000D03*
X76493077Y-84836000D03*
X66040000Y-84074000D03*
X84836000Y-40894000D03*
X66548000Y-68580000D03*
X76962000Y-40894000D03*
X65532000Y-57912000D03*
X65532000Y-70612000D03*
X66548000Y-69596000D03*
X103632000Y-46736000D03*
X32004000Y-39370000D03*
X65532000Y-83312000D03*
X77470000Y-43434000D03*
X66040000Y-45974000D03*
X51500000Y-56365000D03*
X117094000Y-65416001D03*
X66040000Y-54356000D03*
X86614000Y-59944000D03*
X104137999Y-64259999D03*
X66548000Y-80264000D03*
X76493077Y-72136000D03*
X66548000Y-70612000D03*
X76493077Y-70866000D03*
X77001077Y-67056000D03*
X51500000Y-68132500D03*
X77001077Y-84074000D03*
X77509077Y-80518000D03*
X66548000Y-54864000D03*
X77509077Y-66294000D03*
X76962000Y-42926000D03*
X66548000Y-81280000D03*
X77509077Y-67818000D03*
X77978000Y-39878000D03*
X65532000Y-40894000D03*
X84836000Y-38354000D03*
X52750000Y-56250000D03*
X85598000Y-40894000D03*
X77509077Y-78994000D03*
X66548000Y-59436000D03*
X65278000Y-56642000D03*
X76493077Y-67818000D03*
X65278000Y-43942000D03*
X77724000Y-40894000D03*
X65532000Y-55372000D03*
X65532000Y-59436000D03*
X76493077Y-68834000D03*
X66548000Y-72136000D03*
X97659001Y-64639001D03*
X84836000Y-41910000D03*
X77978000Y-42418000D03*
X51500000Y-79932500D03*
X85852000Y-38354000D03*
X66548000Y-83312000D03*
X85852000Y-44196000D03*
X109982000Y-64770000D03*
X65532000Y-72136000D03*
X76962000Y-38354000D03*
X121158000Y-38354000D03*
X66548000Y-45212000D03*
X65532000Y-46736000D03*
X97151001Y-65147001D03*
X77509077Y-83058000D03*
X65278000Y-82042000D03*
X85852000Y-39878000D03*
X76493077Y-80518000D03*
X51500000Y-44665000D03*
X77509077Y-84836000D03*
X77978000Y-38354000D03*
X65532000Y-45212000D03*
X85852000Y-42418000D03*
X76493077Y-82550000D03*
X32766000Y-88138000D03*
X65278000Y-69342000D03*
X66548000Y-53594000D03*
X84836000Y-42926000D03*
X110458249Y-64230249D03*
X65532000Y-80772000D03*
X66040000Y-41656000D03*
X77763077Y-81788000D03*
X66548000Y-66294000D03*
X59944000Y-88900000D03*
X76493077Y-78994000D03*
X77470000Y-39116000D03*
X66548000Y-40894000D03*
X66548000Y-46736000D03*
X103629999Y-64767999D03*
X66548000Y-55880000D03*
X77509077Y-70358000D03*
X66040000Y-67056000D03*
X53000000Y-79750000D03*
X84836000Y-39878000D03*
X85344000Y-43434000D03*
X66548000Y-44196000D03*
X65532000Y-53594000D03*
X77001077Y-79756000D03*
X77509077Y-72136000D03*
X76962000Y-41910000D03*
X107188000Y-46736000D03*
X66040000Y-79756000D03*
X117856000Y-65024000D03*
X76493077Y-69850000D03*
X53340000Y-38354000D03*
D14*
%TO.N,/RJ45_Out_17+*%
X105068060Y-46678412D03*
%TO.N,/RJ45_Out_17-*%
X105720460Y-46678412D03*
%TD*%
D15*
%TO.N,/RJ45_Out_17+*%
X112476030Y-46375729D02*
X111910729Y-46941030D01*
X105230430Y-46840782D02*
X105068060Y-46678412D01*
X105230430Y-47550122D02*
X105230430Y-46840782D01*
X113543000Y-45976000D02*
X112476030Y-45976000D01*
X112476030Y-45976000D02*
X112476030Y-46375729D01*
X109116111Y-48169830D02*
X105850138Y-48169830D01*
X111910729Y-46941030D02*
X111111271Y-46941030D01*
X105850138Y-48169830D02*
X105230430Y-47550122D01*
X111111271Y-46941030D02*
X110728091Y-46557850D01*
X110728091Y-46557850D02*
X109116111Y-48169830D01*
%TO.N,/RJ45_Out_16+*%
X111410315Y-48190679D02*
X111210315Y-48190679D01*
X105147447Y-49763333D02*
X105147447Y-49425830D01*
X112410315Y-50180981D02*
X112210315Y-50180981D01*
X111646485Y-49422000D02*
X111646485Y-48622000D01*
X110974145Y-48426849D02*
X110974145Y-48622000D01*
X114113862Y-49185830D02*
X113210315Y-49185830D01*
X114886661Y-48413031D02*
X114113862Y-49185830D01*
X104547447Y-49425830D02*
X104547447Y-49763333D01*
X102452170Y-47565862D02*
X104072138Y-49185830D01*
X101406138Y-45757830D02*
X102452170Y-46803862D01*
X100043170Y-45757830D02*
X101406138Y-45757830D01*
X111646485Y-48622000D02*
X111646485Y-48426849D01*
X112974145Y-49422000D02*
X112974145Y-49617151D01*
X104072138Y-49185830D02*
X104307447Y-49185830D01*
X106707447Y-49185830D02*
X107701925Y-49185830D01*
X99825000Y-45976000D02*
X100043170Y-45757830D01*
X105387447Y-49185830D02*
X105507447Y-49185830D01*
X106347447Y-49763333D02*
X106347447Y-49425830D01*
X110410315Y-49185830D02*
X110210315Y-49185830D01*
X114886661Y-46664339D02*
X114886661Y-48413031D01*
X104787447Y-50003333D02*
X104907447Y-50003333D01*
X106587447Y-49185830D02*
X106707447Y-49185830D01*
X110210315Y-49185830D02*
X109614464Y-49185830D01*
X102452170Y-46803862D02*
X102452170Y-47565862D01*
X111646485Y-49617151D02*
X111646485Y-49422000D01*
X105987447Y-50003333D02*
X106107447Y-50003333D01*
X105747447Y-49425830D02*
X105747447Y-49763333D01*
X115575000Y-45976000D02*
X114886661Y-46664339D01*
X107701925Y-49185830D02*
X109614464Y-49185830D01*
X105747447Y-49763333D02*
G75*
G03*
X105987447Y-50003253I239953J33D01*
G01*
X106107447Y-50003333D02*
G75*
G03*
X106347433Y-49763333I-47J240033D01*
G01*
X105147447Y-49425830D02*
G75*
G02*
X105387447Y-49185847I239953J30D01*
G01*
X106347447Y-49425830D02*
G75*
G02*
X106587447Y-49185847I239953J30D01*
G01*
X104547447Y-49763333D02*
G75*
G03*
X104787447Y-50003253I239953J33D01*
G01*
X104307447Y-49185830D02*
G75*
G02*
X104547370Y-49425830I-47J-239970D01*
G01*
X104907447Y-50003333D02*
G75*
G03*
X105147433Y-49763333I-47J240033D01*
G01*
X111210315Y-48190679D02*
G75*
G03*
X110974079Y-48426849I-15J-236221D01*
G01*
X105507447Y-49185830D02*
G75*
G02*
X105747370Y-49425830I-47J-239970D01*
G01*
X112974145Y-49617151D02*
G75*
G02*
X112410315Y-50181045I-563845J-49D01*
G01*
X112210315Y-50180981D02*
G75*
G02*
X111646519Y-49617151I-15J563781D01*
G01*
X110974145Y-48622000D02*
G75*
G02*
X110410315Y-49185845I-563845J0D01*
G01*
X113210315Y-49185830D02*
G75*
G03*
X112974130Y-49422000I-15J-236170D01*
G01*
X111646485Y-48426849D02*
G75*
G03*
X111410315Y-48190715I-236185J-51D01*
G01*
%TO.N,/RJ45_Out_18-*%
X99267475Y-41238170D02*
X98738138Y-41238170D01*
X101536268Y-41238170D02*
X101117475Y-41238170D01*
X109569170Y-41238170D02*
X106426000Y-41238170D01*
X97889609Y-42086698D02*
X97685039Y-42291269D01*
X104862170Y-40673649D02*
X104862170Y-41002000D01*
X104862170Y-41802000D02*
X104862170Y-42130341D01*
X100637475Y-40265954D02*
X100517475Y-40265954D01*
X97372170Y-42604138D02*
X97372170Y-43901448D01*
X100037475Y-41238170D02*
X99917475Y-41238170D01*
X97077618Y-44196000D02*
X96777000Y-44196000D01*
X97685039Y-42291269D02*
X97372170Y-42604138D01*
X97711283Y-40890138D02*
X97626430Y-40974990D01*
X112527000Y-44196000D02*
X109569170Y-41238170D01*
X97372170Y-43901448D02*
X97077618Y-44196000D01*
X106189830Y-41002000D02*
X106189830Y-40673649D01*
X98398726Y-41238170D02*
X98050694Y-40890138D01*
X103626000Y-41238170D02*
X103426000Y-41238170D01*
X100277475Y-40505954D02*
X100277475Y-40998170D01*
X104626000Y-42366511D02*
X104426000Y-42366511D01*
X100877475Y-40998170D02*
X100877475Y-40505954D01*
X104189830Y-42130341D02*
X104189830Y-41802000D01*
X103426000Y-41238170D02*
X101536268Y-41238170D01*
X97626430Y-41314402D02*
X97974461Y-41662433D01*
X105626000Y-40109819D02*
X105426000Y-40109819D01*
X104862170Y-41002000D02*
X104862170Y-41802000D01*
X97974461Y-42001844D02*
X97889609Y-42086698D01*
X99917475Y-41238170D02*
X99267475Y-41238170D01*
X104426000Y-42366511D02*
G75*
G02*
X104189789Y-42130341I0J236211D01*
G01*
X106189830Y-40673649D02*
G75*
G03*
X105626000Y-40109770I-563830J49D01*
G01*
X100877475Y-40505954D02*
G75*
G03*
X100637475Y-40266025I-239975J-46D01*
G01*
X98050694Y-40890138D02*
G75*
G03*
X97711284Y-40890138I-169705J-169703D01*
G01*
X97974461Y-41662433D02*
G75*
G02*
X97974423Y-42001805I-169661J-169667D01*
G01*
X104862170Y-42130341D02*
G75*
G02*
X104626000Y-42366470I-236170J41D01*
G01*
X104189830Y-41802000D02*
G75*
G03*
X103626000Y-41238170I-563830J0D01*
G01*
X101117475Y-41238170D02*
G75*
G02*
X100877530Y-40998170I25J239970D01*
G01*
X97626430Y-40974990D02*
G75*
G03*
X97626426Y-41314406I169670J-169710D01*
G01*
X100517475Y-40265954D02*
G75*
G03*
X100277454Y-40505954I25J-240046D01*
G01*
X98738138Y-41238170D02*
G75*
G02*
X98398726Y-41238170I-169706J169704D01*
G01*
X100277475Y-40998170D02*
G75*
G02*
X100037475Y-41238175I-239975J-30D01*
G01*
X106426000Y-41238170D02*
G75*
G02*
X106189830Y-41002000I0J236170D01*
G01*
X105426000Y-40109819D02*
G75*
G03*
X104862219Y-40673649I0J-563781D01*
G01*
%TO.N,/RJ45_Out_18+*%
X105626000Y-40437479D02*
X105426000Y-40437479D01*
X98873862Y-41565830D02*
X97699830Y-42739862D01*
X97176729Y-45161030D02*
X96575970Y-45161030D01*
X105189830Y-40673649D02*
X105189830Y-41002000D01*
X109433448Y-41565830D02*
X106426000Y-41565830D01*
X96575970Y-45161030D02*
X95761000Y-45976000D01*
X111511000Y-43643382D02*
X109433448Y-41565830D01*
X105189830Y-41002000D02*
X105189830Y-41802000D01*
X97742030Y-43796271D02*
X97742030Y-44595729D01*
X97699830Y-42739862D02*
X97699830Y-43754071D01*
X103626000Y-41565830D02*
X103426000Y-41565830D01*
X101536268Y-41565830D02*
X98873862Y-41565830D01*
X104626000Y-42694171D02*
X104426000Y-42694171D01*
X105862170Y-41002000D02*
X105862170Y-40673649D01*
X103862170Y-42130341D02*
X103862170Y-41802000D01*
X97699830Y-43754071D02*
X97742030Y-43796271D01*
X105189830Y-41802000D02*
X105189830Y-42130341D01*
X111511000Y-45976000D02*
X111511000Y-43643382D01*
X103426000Y-41565830D02*
X101536268Y-41565830D01*
X97742030Y-44595729D02*
X97176729Y-45161030D01*
X106426000Y-41565830D02*
G75*
G02*
X105862170Y-41002000I0J563830D01*
G01*
X105189830Y-42130341D02*
G75*
G02*
X104626000Y-42694130I-563830J41D01*
G01*
X105426000Y-40437479D02*
G75*
G03*
X105189779Y-40673649I0J-236221D01*
G01*
X103862170Y-41802000D02*
G75*
G03*
X103626000Y-41565830I-236170J0D01*
G01*
X104426000Y-42694171D02*
G75*
G02*
X103862129Y-42130341I0J563871D01*
G01*
X105862170Y-40673649D02*
G75*
G03*
X105626000Y-40437530I-236170J-51D01*
G01*
%TO.N,/RJ45_Out_17-*%
X110495000Y-44196000D02*
X110495000Y-45744309D01*
X105558090Y-46840782D02*
X105720460Y-46678412D01*
X105558090Y-47414398D02*
X105558090Y-46840782D01*
X105985862Y-47842170D02*
X105558090Y-47414398D01*
X108977589Y-47842170D02*
X105985862Y-47842170D01*
X110495000Y-45744309D02*
X110444030Y-45795279D01*
X110444030Y-46375729D02*
X108977589Y-47842170D01*
X110444030Y-45795279D02*
X110444030Y-46375729D01*
%TO.N,/RJ45_Out_16-*%
X110410315Y-48858170D02*
X110210315Y-48858170D01*
X109614464Y-48858170D02*
X104207862Y-48858170D01*
X110210315Y-48858170D02*
X109614464Y-48858170D01*
X113978138Y-48858170D02*
X113210315Y-48858170D01*
X100224729Y-45010970D02*
X99623970Y-45010970D01*
X114559000Y-44196000D02*
X114559000Y-48277308D01*
X111974145Y-49617151D02*
X111974145Y-49422000D01*
X100643929Y-45430170D02*
X100224729Y-45010970D01*
X111410315Y-47863019D02*
X111210315Y-47863019D01*
X101541862Y-45430170D02*
X100643929Y-45430170D01*
X99623970Y-45010970D02*
X98809000Y-44196000D01*
X114559000Y-48277308D02*
X113978138Y-48858170D01*
X111974145Y-49422000D02*
X111974145Y-48622000D01*
X112410315Y-49853321D02*
X112210315Y-49853321D01*
X112646485Y-49422000D02*
X112646485Y-49617151D01*
X111974145Y-48622000D02*
X111974145Y-48426849D01*
X102779830Y-46668138D02*
X101541862Y-45430170D01*
X104207862Y-48858170D02*
X102779830Y-47430138D01*
X110646485Y-48426849D02*
X110646485Y-48622000D01*
X102779830Y-47430138D02*
X102779830Y-46668138D01*
X112210315Y-49853321D02*
G75*
G02*
X111974079Y-49617151I-15J236221D01*
G01*
X111210315Y-47863019D02*
G75*
G03*
X110646519Y-48426849I-15J-563781D01*
G01*
X110646485Y-48622000D02*
G75*
G02*
X110410315Y-48858185I-236185J0D01*
G01*
X112646485Y-49617151D02*
G75*
G02*
X112410315Y-49853285I-236185J51D01*
G01*
X113210315Y-48858170D02*
G75*
G03*
X112646470Y-49422000I-15J-563830D01*
G01*
X111974145Y-48426849D02*
G75*
G03*
X111410315Y-47862955I-563845J49D01*
G01*
%TD*%
%TA.AperFunction,Conductor*%
%TO.N,GND*%
G36*
X83255039Y-37720185D02*
G01*
X83300794Y-37772989D01*
X83312000Y-37824500D01*
X83312000Y-62484000D01*
X121665500Y-62484000D01*
X121732539Y-62503685D01*
X121778294Y-62556489D01*
X121789500Y-62608000D01*
X121789500Y-89375500D01*
X121769815Y-89442539D01*
X121717011Y-89488294D01*
X121665500Y-89499500D01*
X30624500Y-89499500D01*
X30557461Y-89479815D01*
X30511706Y-89427011D01*
X30500500Y-89375500D01*
X30500500Y-42839181D01*
X32137500Y-42839181D01*
X32137500Y-44640803D01*
X32137501Y-44640819D01*
X32148169Y-44745242D01*
X32204235Y-44914437D01*
X32204237Y-44914442D01*
X32227606Y-44952329D01*
X32296246Y-45063612D01*
X32297812Y-45066150D01*
X32420396Y-45188734D01*
X32453881Y-45250057D01*
X32448897Y-45319749D01*
X32433033Y-45349301D01*
X32370866Y-45434865D01*
X32255639Y-45661012D01*
X32177204Y-45902408D01*
X32137500Y-46153088D01*
X32137500Y-46406911D01*
X32176209Y-46651306D01*
X32177205Y-46657595D01*
X32255638Y-46898985D01*
X32370866Y-47125134D01*
X32520054Y-47330473D01*
X32520056Y-47330475D01*
X32651900Y-47462319D01*
X32685385Y-47523642D01*
X32680401Y-47593334D01*
X32651900Y-47637681D01*
X32520056Y-47769524D01*
X32520056Y-47769525D01*
X32520054Y-47769527D01*
X32471253Y-47836696D01*
X32370866Y-47974865D01*
X32255639Y-48201012D01*
X32177204Y-48442408D01*
X32137500Y-48693088D01*
X32137500Y-48946911D01*
X32161862Y-49100724D01*
X32177205Y-49197595D01*
X32255638Y-49438985D01*
X32370866Y-49665134D01*
X32520054Y-49870473D01*
X32520056Y-49870475D01*
X32651900Y-50002319D01*
X32685385Y-50063642D01*
X32680401Y-50133334D01*
X32651900Y-50177681D01*
X32520056Y-50309524D01*
X32520056Y-50309525D01*
X32520054Y-50309527D01*
X32460864Y-50390995D01*
X32370866Y-50514865D01*
X32255639Y-50741012D01*
X32177204Y-50982408D01*
X32137500Y-51233088D01*
X32137500Y-51486911D01*
X32177204Y-51737591D01*
X32177205Y-51737595D01*
X32255638Y-51978985D01*
X32370866Y-52205134D01*
X32520054Y-52410473D01*
X32520056Y-52410475D01*
X32651900Y-52542319D01*
X32685385Y-52603642D01*
X32680401Y-52673334D01*
X32651900Y-52717681D01*
X32520056Y-52849524D01*
X32520056Y-52849525D01*
X32520054Y-52849527D01*
X32455983Y-52937712D01*
X32370866Y-53054865D01*
X32255639Y-53281012D01*
X32177204Y-53522408D01*
X32137500Y-53773088D01*
X32137500Y-54026911D01*
X32177204Y-54277591D01*
X32177205Y-54277595D01*
X32255638Y-54518985D01*
X32370866Y-54745134D01*
X32520054Y-54950473D01*
X32520056Y-54950475D01*
X32651900Y-55082319D01*
X32685385Y-55143642D01*
X32680401Y-55213334D01*
X32651900Y-55257681D01*
X32520056Y-55389524D01*
X32520056Y-55389525D01*
X32520054Y-55389527D01*
X32455983Y-55477712D01*
X32370866Y-55594865D01*
X32255639Y-55821012D01*
X32177204Y-56062408D01*
X32137500Y-56313088D01*
X32137500Y-56566911D01*
X32175955Y-56809703D01*
X32177205Y-56817595D01*
X32255638Y-57058985D01*
X32370866Y-57285134D01*
X32520054Y-57490473D01*
X32520056Y-57490475D01*
X32651900Y-57622319D01*
X32685385Y-57683642D01*
X32680401Y-57753334D01*
X32651900Y-57797681D01*
X32520056Y-57929524D01*
X32520056Y-57929525D01*
X32520054Y-57929527D01*
X32455983Y-58017712D01*
X32370866Y-58134865D01*
X32255639Y-58361012D01*
X32177204Y-58602408D01*
X32137500Y-58853088D01*
X32137500Y-59106911D01*
X32177204Y-59357591D01*
X32177205Y-59357595D01*
X32255638Y-59598985D01*
X32370866Y-59825134D01*
X32520054Y-60030473D01*
X32520056Y-60030475D01*
X32651900Y-60162319D01*
X32685385Y-60223642D01*
X32680401Y-60293334D01*
X32651900Y-60337681D01*
X32520056Y-60469524D01*
X32520056Y-60469525D01*
X32520054Y-60469527D01*
X32455983Y-60557712D01*
X32370866Y-60674865D01*
X32255639Y-60901012D01*
X32177204Y-61142408D01*
X32137500Y-61393088D01*
X32137500Y-61646911D01*
X32177204Y-61897589D01*
X32177205Y-61897595D01*
X32255638Y-62138985D01*
X32370866Y-62365134D01*
X32520054Y-62570473D01*
X32520056Y-62570475D01*
X32651900Y-62702319D01*
X32685385Y-62763642D01*
X32680401Y-62833334D01*
X32651900Y-62877681D01*
X32520056Y-63009524D01*
X32520056Y-63009525D01*
X32520054Y-63009527D01*
X32455983Y-63097712D01*
X32370866Y-63214865D01*
X32255639Y-63441012D01*
X32177204Y-63682408D01*
X32137500Y-63933088D01*
X32137500Y-64186911D01*
X32174868Y-64422841D01*
X32177205Y-64437595D01*
X32255638Y-64678985D01*
X32370866Y-64905134D01*
X32520054Y-65110473D01*
X32520056Y-65110475D01*
X32651900Y-65242319D01*
X32685385Y-65303642D01*
X32680401Y-65373334D01*
X32651900Y-65417681D01*
X32520056Y-65549524D01*
X32520056Y-65549525D01*
X32520054Y-65549527D01*
X32478299Y-65606998D01*
X32370866Y-65754865D01*
X32255639Y-65981012D01*
X32177204Y-66222408D01*
X32137500Y-66473088D01*
X32137500Y-66726911D01*
X32177204Y-66977591D01*
X32177205Y-66977595D01*
X32255638Y-67218985D01*
X32370866Y-67445134D01*
X32520054Y-67650473D01*
X32520056Y-67650475D01*
X32651900Y-67782319D01*
X32685385Y-67843642D01*
X32680401Y-67913334D01*
X32651900Y-67957681D01*
X32520056Y-68089524D01*
X32520056Y-68089525D01*
X32520054Y-68089527D01*
X32455983Y-68177712D01*
X32370866Y-68294865D01*
X32255639Y-68521012D01*
X32177204Y-68762408D01*
X32137500Y-69013088D01*
X32137500Y-69266911D01*
X32177204Y-69517591D01*
X32177205Y-69517595D01*
X32255638Y-69758985D01*
X32370866Y-69985134D01*
X32520054Y-70190473D01*
X32520056Y-70190475D01*
X32651900Y-70322319D01*
X32685385Y-70383642D01*
X32680401Y-70453334D01*
X32651900Y-70497681D01*
X32520056Y-70629524D01*
X32520056Y-70629525D01*
X32520054Y-70629527D01*
X32455983Y-70717712D01*
X32370866Y-70834865D01*
X32255639Y-71061012D01*
X32177204Y-71302408D01*
X32137500Y-71553088D01*
X32137500Y-71806911D01*
X32177204Y-72057591D01*
X32177205Y-72057595D01*
X32255638Y-72298985D01*
X32370866Y-72525134D01*
X32520054Y-72730473D01*
X32520056Y-72730475D01*
X32651900Y-72862319D01*
X32685385Y-72923642D01*
X32680401Y-72993334D01*
X32651900Y-73037681D01*
X32520056Y-73169524D01*
X32520056Y-73169525D01*
X32520054Y-73169527D01*
X32455983Y-73257712D01*
X32370866Y-73374865D01*
X32255639Y-73601012D01*
X32177204Y-73842408D01*
X32137500Y-74093088D01*
X32137500Y-74346911D01*
X32177204Y-74597591D01*
X32177205Y-74597595D01*
X32255638Y-74838985D01*
X32370866Y-75065134D01*
X32520054Y-75270473D01*
X32520056Y-75270475D01*
X32651900Y-75402319D01*
X32685385Y-75463642D01*
X32680401Y-75533334D01*
X32651900Y-75577681D01*
X32520056Y-75709524D01*
X32520056Y-75709525D01*
X32520054Y-75709527D01*
X32455983Y-75797712D01*
X32370866Y-75914865D01*
X32255639Y-76141012D01*
X32177204Y-76382408D01*
X32137500Y-76633088D01*
X32137500Y-76886911D01*
X32177204Y-77137591D01*
X32177205Y-77137595D01*
X32255638Y-77378985D01*
X32370866Y-77605134D01*
X32520054Y-77810473D01*
X32520056Y-77810475D01*
X32651900Y-77942319D01*
X32685385Y-78003642D01*
X32680401Y-78073334D01*
X32651900Y-78117681D01*
X32520056Y-78249524D01*
X32520056Y-78249525D01*
X32520054Y-78249527D01*
X32455983Y-78337712D01*
X32370866Y-78454865D01*
X32255639Y-78681012D01*
X32177204Y-78922408D01*
X32137500Y-79173088D01*
X32137500Y-79426911D01*
X32177204Y-79677591D01*
X32177205Y-79677595D01*
X32255638Y-79918985D01*
X32370866Y-80145134D01*
X32520054Y-80350473D01*
X32520056Y-80350475D01*
X32651900Y-80482319D01*
X32685385Y-80543642D01*
X32680401Y-80613334D01*
X32651900Y-80657681D01*
X32520056Y-80789524D01*
X32520056Y-80789525D01*
X32520054Y-80789527D01*
X32455983Y-80877712D01*
X32370866Y-80994865D01*
X32255639Y-81221012D01*
X32177204Y-81462408D01*
X32137500Y-81713088D01*
X32137500Y-81966911D01*
X32177204Y-82217591D01*
X32177205Y-82217595D01*
X32255638Y-82458985D01*
X32370866Y-82685134D01*
X32520054Y-82890473D01*
X32520056Y-82890475D01*
X32651900Y-83022319D01*
X32685385Y-83083642D01*
X32680401Y-83153334D01*
X32651900Y-83197681D01*
X32520056Y-83329524D01*
X32520056Y-83329525D01*
X32520054Y-83329527D01*
X32455983Y-83417712D01*
X32370866Y-83534865D01*
X32255639Y-83761012D01*
X32177204Y-84002408D01*
X32137500Y-84253088D01*
X32137500Y-84506911D01*
X32161498Y-84658425D01*
X32177205Y-84757595D01*
X32255638Y-84998985D01*
X32370866Y-85225134D01*
X32520054Y-85430473D01*
X32699527Y-85609946D01*
X32904866Y-85759134D01*
X33131015Y-85874362D01*
X33372405Y-85952795D01*
X33466413Y-85967684D01*
X33623089Y-85992500D01*
X33623094Y-85992500D01*
X33876911Y-85992500D01*
X34016177Y-85970441D01*
X34127595Y-85952795D01*
X34368985Y-85874362D01*
X34595134Y-85759134D01*
X34800473Y-85609946D01*
X34932319Y-85478100D01*
X34993642Y-85444615D01*
X35063334Y-85449599D01*
X35107681Y-85478100D01*
X35239527Y-85609946D01*
X35444866Y-85759134D01*
X35671015Y-85874362D01*
X35912405Y-85952795D01*
X36006413Y-85967684D01*
X36163089Y-85992500D01*
X36163094Y-85992500D01*
X36416911Y-85992500D01*
X36556177Y-85970441D01*
X36667595Y-85952795D01*
X36908985Y-85874362D01*
X37135134Y-85759134D01*
X37340473Y-85609946D01*
X37455071Y-85495348D01*
X49137500Y-85495348D01*
X49137500Y-85704651D01*
X49178329Y-85909912D01*
X49178331Y-85909920D01*
X49258423Y-86103280D01*
X49374703Y-86277306D01*
X49522693Y-86425296D01*
X49696719Y-86541576D01*
X49793399Y-86581622D01*
X49890080Y-86621669D01*
X50095348Y-86662499D01*
X50095352Y-86662500D01*
X50095353Y-86662500D01*
X50304648Y-86662500D01*
X50304649Y-86662499D01*
X50509920Y-86621669D01*
X50703282Y-86541575D01*
X50877304Y-86425298D01*
X51025298Y-86277304D01*
X51141575Y-86103282D01*
X51221669Y-85909920D01*
X51262500Y-85704647D01*
X51262500Y-85495353D01*
X51221669Y-85290080D01*
X51181622Y-85193399D01*
X51141576Y-85096719D01*
X51025296Y-84922693D01*
X50877306Y-84774703D01*
X50703280Y-84658423D01*
X50509920Y-84578331D01*
X50509912Y-84578329D01*
X50304651Y-84537500D01*
X50304647Y-84537500D01*
X50095353Y-84537500D01*
X50095348Y-84537500D01*
X49890087Y-84578329D01*
X49890079Y-84578331D01*
X49696719Y-84658423D01*
X49522693Y-84774703D01*
X49374703Y-84922693D01*
X49258423Y-85096719D01*
X49178331Y-85290079D01*
X49178329Y-85290087D01*
X49137500Y-85495348D01*
X37455071Y-85495348D01*
X37519946Y-85430473D01*
X37669134Y-85225134D01*
X37784362Y-84998985D01*
X37862795Y-84757595D01*
X37880441Y-84646177D01*
X37902500Y-84506911D01*
X37902500Y-84253088D01*
X37862795Y-84002408D01*
X37862795Y-84002405D01*
X37784362Y-83761015D01*
X37669134Y-83534866D01*
X37519946Y-83329527D01*
X37388100Y-83197681D01*
X37354615Y-83136358D01*
X37359599Y-83066666D01*
X37388100Y-83022319D01*
X37519946Y-82890473D01*
X37669134Y-82685134D01*
X37784362Y-82458985D01*
X37862795Y-82217595D01*
X37880441Y-82106177D01*
X37902500Y-81966911D01*
X37902500Y-81713088D01*
X37862795Y-81462408D01*
X37862795Y-81462405D01*
X37784362Y-81221015D01*
X37674475Y-81005348D01*
X50437500Y-81005348D01*
X50437500Y-81214651D01*
X50478329Y-81419912D01*
X50478331Y-81419920D01*
X50558423Y-81613280D01*
X50674703Y-81787306D01*
X50822693Y-81935296D01*
X50996719Y-82051576D01*
X51093399Y-82091622D01*
X51190080Y-82131669D01*
X51395348Y-82172499D01*
X51395352Y-82172500D01*
X51395353Y-82172500D01*
X51604648Y-82172500D01*
X51604649Y-82172499D01*
X51809920Y-82131669D01*
X52003282Y-82051575D01*
X52177304Y-81935298D01*
X52229521Y-81883081D01*
X52290844Y-81849595D01*
X52360536Y-81854579D01*
X52386093Y-81867659D01*
X52496716Y-81941574D01*
X52496717Y-81941574D01*
X52496718Y-81941575D01*
X52690080Y-82021669D01*
X52840429Y-82051575D01*
X52895348Y-82062499D01*
X52895352Y-82062500D01*
X52895353Y-82062500D01*
X53104648Y-82062500D01*
X53104649Y-82062499D01*
X53309920Y-82021669D01*
X53503282Y-81941575D01*
X53677304Y-81825298D01*
X53825298Y-81677304D01*
X53941575Y-81503282D01*
X54021669Y-81309920D01*
X54062500Y-81104647D01*
X54062500Y-80895353D01*
X54021669Y-80690080D01*
X53953980Y-80526666D01*
X53941576Y-80496719D01*
X53825296Y-80322693D01*
X53677306Y-80174703D01*
X53503280Y-80058423D01*
X53309920Y-79978331D01*
X53309912Y-79978329D01*
X53104651Y-79937500D01*
X53104647Y-79937500D01*
X52895353Y-79937500D01*
X52895348Y-79937500D01*
X52690087Y-79978329D01*
X52690079Y-79978331D01*
X52496719Y-80058423D01*
X52322693Y-80174703D01*
X52270476Y-80226920D01*
X52209153Y-80260404D01*
X52139461Y-80255419D01*
X52113906Y-80242341D01*
X52003280Y-80168423D01*
X51809920Y-80088331D01*
X51809912Y-80088329D01*
X51604651Y-80047500D01*
X51604647Y-80047500D01*
X51395353Y-80047500D01*
X51395348Y-80047500D01*
X51190087Y-80088329D01*
X51190079Y-80088331D01*
X50996719Y-80168423D01*
X50822693Y-80284703D01*
X50674703Y-80432693D01*
X50558423Y-80606719D01*
X50478331Y-80800079D01*
X50478329Y-80800087D01*
X50437500Y-81005348D01*
X37674475Y-81005348D01*
X37669134Y-80994866D01*
X37519946Y-80789527D01*
X37388100Y-80657681D01*
X37354615Y-80596358D01*
X37359599Y-80526666D01*
X37388100Y-80482319D01*
X37437726Y-80432693D01*
X37519946Y-80350473D01*
X37669134Y-80145134D01*
X37784362Y-79918985D01*
X37862795Y-79677595D01*
X37880441Y-79566177D01*
X37902500Y-79426911D01*
X37902500Y-79173088D01*
X37862795Y-78922408D01*
X37862795Y-78922405D01*
X37784362Y-78681015D01*
X37669134Y-78454866D01*
X37519946Y-78249527D01*
X37388100Y-78117681D01*
X37354615Y-78056358D01*
X37359599Y-77986666D01*
X37388100Y-77942319D01*
X37519946Y-77810473D01*
X37669134Y-77605134D01*
X37784362Y-77378985D01*
X37862795Y-77137595D01*
X37880441Y-77026177D01*
X37902500Y-76886911D01*
X37902500Y-76633088D01*
X37862795Y-76382408D01*
X37862795Y-76382405D01*
X37784362Y-76141015D01*
X37669134Y-75914866D01*
X37519946Y-75709527D01*
X37388100Y-75577681D01*
X37354615Y-75516358D01*
X37359599Y-75446666D01*
X37388100Y-75402319D01*
X37519946Y-75270473D01*
X37669134Y-75065134D01*
X37784362Y-74838985D01*
X37862795Y-74597595D01*
X37893571Y-74403282D01*
X37902500Y-74346911D01*
X37902500Y-74093088D01*
X37862795Y-73842408D01*
X37862795Y-73842405D01*
X37847505Y-73795348D01*
X49112500Y-73795348D01*
X49112500Y-74004651D01*
X49153329Y-74209912D01*
X49153331Y-74209920D01*
X49233425Y-74403282D01*
X49252830Y-74432324D01*
X49285427Y-74481110D01*
X49306304Y-74547788D01*
X49287819Y-74615168D01*
X49285427Y-74618890D01*
X49233424Y-74696719D01*
X49153331Y-74890079D01*
X49153329Y-74890087D01*
X49112500Y-75095348D01*
X49112500Y-75304651D01*
X49153329Y-75509912D01*
X49153331Y-75509920D01*
X49233423Y-75703280D01*
X49349703Y-75877306D01*
X49497693Y-76025296D01*
X49671719Y-76141576D01*
X49768399Y-76181622D01*
X49865080Y-76221669D01*
X50070348Y-76262499D01*
X50070352Y-76262500D01*
X50070353Y-76262500D01*
X50279648Y-76262500D01*
X50279649Y-76262499D01*
X50484920Y-76221669D01*
X50678282Y-76141575D01*
X50852304Y-76025298D01*
X51000298Y-75877304D01*
X51116575Y-75703282D01*
X51196669Y-75509920D01*
X51237500Y-75304647D01*
X51237500Y-75095353D01*
X51196669Y-74890080D01*
X51116575Y-74696718D01*
X51116573Y-74696715D01*
X51116570Y-74696709D01*
X51064573Y-74618892D01*
X51043694Y-74552215D01*
X51062178Y-74484834D01*
X51064573Y-74481108D01*
X51116570Y-74403290D01*
X51116571Y-74403287D01*
X51116575Y-74403282D01*
X51196669Y-74209920D01*
X51237500Y-74004647D01*
X51237500Y-73795353D01*
X51196669Y-73590080D01*
X51156622Y-73493399D01*
X51116576Y-73396719D01*
X51000296Y-73222693D01*
X50852306Y-73074703D01*
X50678280Y-72958423D01*
X50484920Y-72878331D01*
X50484912Y-72878329D01*
X50279651Y-72837500D01*
X50279647Y-72837500D01*
X50070353Y-72837500D01*
X50070348Y-72837500D01*
X49865087Y-72878329D01*
X49865079Y-72878331D01*
X49671719Y-72958423D01*
X49497693Y-73074703D01*
X49349703Y-73222693D01*
X49233423Y-73396719D01*
X49153331Y-73590079D01*
X49153329Y-73590087D01*
X49112500Y-73795348D01*
X37847505Y-73795348D01*
X37784362Y-73601015D01*
X37669134Y-73374866D01*
X37519946Y-73169527D01*
X37388100Y-73037681D01*
X37354615Y-72976358D01*
X37359599Y-72906666D01*
X37388100Y-72862319D01*
X37412919Y-72837500D01*
X37519946Y-72730473D01*
X37669134Y-72525134D01*
X37784362Y-72298985D01*
X37862795Y-72057595D01*
X37880441Y-71946177D01*
X37902500Y-71806911D01*
X37902500Y-71553088D01*
X37862795Y-71302408D01*
X37862795Y-71302405D01*
X37784362Y-71061015D01*
X37669134Y-70834866D01*
X37519946Y-70629527D01*
X37388100Y-70497681D01*
X37354615Y-70436358D01*
X37359599Y-70366666D01*
X37388100Y-70322319D01*
X37438751Y-70271668D01*
X37519946Y-70190473D01*
X37669134Y-69985134D01*
X37784362Y-69758985D01*
X37862795Y-69517595D01*
X37888603Y-69354648D01*
X37902500Y-69266911D01*
X37902500Y-69162848D01*
X50437500Y-69162848D01*
X50437500Y-69372151D01*
X50478329Y-69577412D01*
X50478331Y-69577420D01*
X50558423Y-69770780D01*
X50674703Y-69944806D01*
X50822693Y-70092796D01*
X50996719Y-70209076D01*
X51093399Y-70249122D01*
X51190080Y-70289169D01*
X51356738Y-70322319D01*
X51395348Y-70329999D01*
X51395352Y-70330000D01*
X51395353Y-70330000D01*
X51604648Y-70330000D01*
X51604649Y-70329999D01*
X51809920Y-70289169D01*
X52003282Y-70209075D01*
X52069206Y-70165026D01*
X52135881Y-70144149D01*
X52203261Y-70162633D01*
X52206980Y-70165023D01*
X52246718Y-70191575D01*
X52440080Y-70271669D01*
X52645348Y-70312499D01*
X52645352Y-70312500D01*
X52645353Y-70312500D01*
X52854648Y-70312500D01*
X52854649Y-70312499D01*
X53059920Y-70271669D01*
X53253282Y-70191575D01*
X53427304Y-70075298D01*
X53575298Y-69927304D01*
X53691575Y-69753282D01*
X53771669Y-69559920D01*
X53812500Y-69354647D01*
X53812500Y-69145353D01*
X53771669Y-68940080D01*
X53731622Y-68843399D01*
X53691576Y-68746719D01*
X53575296Y-68572693D01*
X53427306Y-68424703D01*
X53253280Y-68308423D01*
X53059920Y-68228331D01*
X53059912Y-68228329D01*
X52854651Y-68187500D01*
X52854647Y-68187500D01*
X52645353Y-68187500D01*
X52645348Y-68187500D01*
X52440087Y-68228329D01*
X52440079Y-68228331D01*
X52246717Y-68308425D01*
X52180793Y-68352473D01*
X52114116Y-68373350D01*
X52046736Y-68354865D01*
X52043014Y-68352473D01*
X52003282Y-68325925D01*
X52003277Y-68325923D01*
X51809920Y-68245831D01*
X51809912Y-68245829D01*
X51604651Y-68205000D01*
X51604647Y-68205000D01*
X51395353Y-68205000D01*
X51395348Y-68205000D01*
X51190087Y-68245829D01*
X51190079Y-68245831D01*
X50996719Y-68325923D01*
X50822693Y-68442203D01*
X50674703Y-68590193D01*
X50558423Y-68764219D01*
X50478331Y-68957579D01*
X50478329Y-68957587D01*
X50437500Y-69162848D01*
X37902500Y-69162848D01*
X37902500Y-69013088D01*
X37862795Y-68762408D01*
X37862795Y-68762405D01*
X37784362Y-68521015D01*
X37669134Y-68294866D01*
X37519946Y-68089527D01*
X37388100Y-67957681D01*
X37354615Y-67896358D01*
X37359599Y-67826666D01*
X37388100Y-67782319D01*
X37519946Y-67650473D01*
X37669134Y-67445134D01*
X37784362Y-67218985D01*
X37862795Y-66977595D01*
X37880441Y-66866177D01*
X37902500Y-66726911D01*
X37902500Y-66473088D01*
X37862795Y-66222408D01*
X37862795Y-66222405D01*
X37784362Y-65981015D01*
X37669134Y-65754866D01*
X37519946Y-65549527D01*
X37388100Y-65417681D01*
X37354615Y-65356358D01*
X37359599Y-65286666D01*
X37388100Y-65242319D01*
X37437115Y-65193304D01*
X37519946Y-65110473D01*
X37669134Y-64905134D01*
X37784362Y-64678985D01*
X37862795Y-64437595D01*
X37880581Y-64325296D01*
X37902500Y-64186911D01*
X37902500Y-63933088D01*
X37868623Y-63719201D01*
X37862795Y-63682405D01*
X37784362Y-63441015D01*
X37669134Y-63214866D01*
X37519946Y-63009527D01*
X37388100Y-62877681D01*
X37354615Y-62816358D01*
X37359599Y-62746666D01*
X37388100Y-62702319D01*
X37519946Y-62570473D01*
X37669134Y-62365134D01*
X37784362Y-62138985D01*
X37798541Y-62095348D01*
X49112500Y-62095348D01*
X49112500Y-62304651D01*
X49153329Y-62509912D01*
X49153331Y-62509920D01*
X49178413Y-62570474D01*
X49233425Y-62703282D01*
X49252830Y-62732324D01*
X49285427Y-62781110D01*
X49306304Y-62847788D01*
X49287819Y-62915168D01*
X49285427Y-62918890D01*
X49233424Y-62996719D01*
X49153331Y-63190079D01*
X49153329Y-63190087D01*
X49112500Y-63395348D01*
X49112500Y-63604651D01*
X49153329Y-63809912D01*
X49153331Y-63809920D01*
X49233423Y-64003280D01*
X49349703Y-64177306D01*
X49497693Y-64325296D01*
X49671719Y-64441576D01*
X49768399Y-64481622D01*
X49865080Y-64521669D01*
X50070348Y-64562499D01*
X50070352Y-64562500D01*
X50070353Y-64562500D01*
X50279648Y-64562500D01*
X50279649Y-64562499D01*
X50484920Y-64521669D01*
X50678282Y-64441575D01*
X50852304Y-64325298D01*
X51000298Y-64177304D01*
X51005948Y-64168848D01*
X91890000Y-64168848D01*
X91890000Y-64378151D01*
X91930829Y-64583412D01*
X91930831Y-64583420D01*
X92010923Y-64776780D01*
X92127203Y-64950806D01*
X92275193Y-65098796D01*
X92449219Y-65215076D01*
X92514990Y-65242319D01*
X92642580Y-65295169D01*
X92817689Y-65330000D01*
X92847848Y-65335999D01*
X92847852Y-65336000D01*
X92847853Y-65336000D01*
X93057148Y-65336000D01*
X93057149Y-65335999D01*
X93262420Y-65295169D01*
X93439535Y-65221805D01*
X93455780Y-65215076D01*
X93455780Y-65215075D01*
X93455782Y-65215075D01*
X93629804Y-65098798D01*
X93777798Y-64950804D01*
X93894075Y-64776782D01*
X93974169Y-64583420D01*
X94002383Y-64441576D01*
X94006108Y-64422848D01*
X98494000Y-64422848D01*
X98494000Y-64632151D01*
X98534829Y-64837412D01*
X98534831Y-64837420D01*
X98614923Y-65030780D01*
X98731203Y-65204806D01*
X98879193Y-65352796D01*
X99053219Y-65469076D01*
X99149899Y-65509122D01*
X99246580Y-65549169D01*
X99451848Y-65589999D01*
X99451852Y-65590000D01*
X99451853Y-65590000D01*
X99661148Y-65590000D01*
X99661149Y-65589999D01*
X99866420Y-65549169D01*
X100059782Y-65469075D01*
X100233804Y-65352798D01*
X100381798Y-65204804D01*
X100498075Y-65030782D01*
X100578169Y-64837420D01*
X100619000Y-64632147D01*
X100619000Y-64422853D01*
X100616712Y-64411352D01*
X100616711Y-64411348D01*
X105109500Y-64411348D01*
X105109500Y-64620651D01*
X105150329Y-64825912D01*
X105150331Y-64825920D01*
X105230423Y-65019280D01*
X105346703Y-65193306D01*
X105494693Y-65341296D01*
X105668719Y-65457576D01*
X105737520Y-65486074D01*
X105862080Y-65537669D01*
X106067348Y-65578499D01*
X106067352Y-65578500D01*
X106067353Y-65578500D01*
X106276648Y-65578500D01*
X106276649Y-65578499D01*
X106481920Y-65537669D01*
X106675282Y-65457575D01*
X106849304Y-65341298D01*
X106997298Y-65193304D01*
X107113575Y-65019282D01*
X107193669Y-64825920D01*
X107234500Y-64620647D01*
X107234500Y-64439847D01*
X111659500Y-64439847D01*
X111659500Y-64649150D01*
X111700329Y-64854411D01*
X111700331Y-64854419D01*
X111780423Y-65047779D01*
X111896703Y-65221805D01*
X112044693Y-65369795D01*
X112218719Y-65486075D01*
X112315399Y-65526121D01*
X112412080Y-65566168D01*
X112531888Y-65589999D01*
X112617348Y-65606998D01*
X112617352Y-65606999D01*
X112617353Y-65606999D01*
X112826648Y-65606999D01*
X112826649Y-65606998D01*
X113031920Y-65566168D01*
X113225282Y-65486074D01*
X113399304Y-65369797D01*
X113547298Y-65221803D01*
X113663575Y-65047781D01*
X113743669Y-64854419D01*
X113784500Y-64649146D01*
X113784500Y-64439852D01*
X113743669Y-64234579D01*
X113685385Y-64093870D01*
X113663576Y-64041218D01*
X113547296Y-63867192D01*
X113399306Y-63719202D01*
X113225280Y-63602922D01*
X113031920Y-63522830D01*
X113031912Y-63522828D01*
X112826651Y-63481999D01*
X112826647Y-63481999D01*
X112617353Y-63481999D01*
X112617348Y-63481999D01*
X112412087Y-63522828D01*
X112412079Y-63522830D01*
X112218719Y-63602922D01*
X112044693Y-63719202D01*
X111896703Y-63867192D01*
X111780423Y-64041218D01*
X111700331Y-64234578D01*
X111700329Y-64234586D01*
X111659500Y-64439847D01*
X107234500Y-64439847D01*
X107234500Y-64411353D01*
X107193669Y-64206080D01*
X107147190Y-64093870D01*
X107113576Y-64012719D01*
X106997296Y-63838693D01*
X106849306Y-63690703D01*
X106675280Y-63574423D01*
X106481920Y-63494331D01*
X106481912Y-63494329D01*
X106276651Y-63453500D01*
X106276647Y-63453500D01*
X106067353Y-63453500D01*
X106067348Y-63453500D01*
X105862087Y-63494329D01*
X105862079Y-63494331D01*
X105668719Y-63574423D01*
X105494693Y-63690703D01*
X105346703Y-63838693D01*
X105230423Y-64012719D01*
X105150331Y-64206079D01*
X105150329Y-64206087D01*
X105109500Y-64411348D01*
X100616711Y-64411348D01*
X100598726Y-64320931D01*
X100578169Y-64217580D01*
X100505117Y-64041218D01*
X100498076Y-64024219D01*
X100381796Y-63850193D01*
X100233806Y-63702203D01*
X100059780Y-63585923D01*
X99866420Y-63505831D01*
X99866412Y-63505829D01*
X99661151Y-63465000D01*
X99661147Y-63465000D01*
X99451853Y-63465000D01*
X99451848Y-63465000D01*
X99246587Y-63505829D01*
X99246579Y-63505831D01*
X99053219Y-63585923D01*
X98879193Y-63702203D01*
X98731203Y-63850193D01*
X98614923Y-64024219D01*
X98534831Y-64217579D01*
X98534829Y-64217587D01*
X98494000Y-64422848D01*
X94006108Y-64422848D01*
X94012127Y-64392593D01*
X94012131Y-64392572D01*
X94015000Y-64378147D01*
X94015000Y-64168852D01*
X94014999Y-64168848D01*
X93989612Y-64041217D01*
X93974169Y-63963580D01*
X93922439Y-63838693D01*
X93894076Y-63770219D01*
X93777796Y-63596193D01*
X93629806Y-63448203D01*
X93455780Y-63331923D01*
X93262420Y-63251831D01*
X93262412Y-63251829D01*
X93057151Y-63211000D01*
X93057147Y-63211000D01*
X92847853Y-63211000D01*
X92847848Y-63211000D01*
X92642587Y-63251829D01*
X92642579Y-63251831D01*
X92449219Y-63331923D01*
X92275193Y-63448203D01*
X92127203Y-63596193D01*
X92010923Y-63770219D01*
X91930831Y-63963579D01*
X91930829Y-63963587D01*
X91890000Y-64168848D01*
X51005948Y-64168848D01*
X51056047Y-64093870D01*
X51091227Y-64041218D01*
X51116575Y-64003282D01*
X51196669Y-63809920D01*
X51237500Y-63604647D01*
X51237500Y-63395353D01*
X51196669Y-63190080D01*
X51116575Y-62996718D01*
X51116573Y-62996715D01*
X51116570Y-62996709D01*
X51064573Y-62918892D01*
X51043694Y-62852215D01*
X51062178Y-62784834D01*
X51064573Y-62781108D01*
X51116570Y-62703290D01*
X51116571Y-62703287D01*
X51116575Y-62703282D01*
X51196669Y-62509920D01*
X51237500Y-62304647D01*
X51237500Y-62095353D01*
X51196669Y-61890080D01*
X51156622Y-61793399D01*
X51116576Y-61696719D01*
X51000296Y-61522693D01*
X50852306Y-61374703D01*
X50678280Y-61258423D01*
X50484920Y-61178331D01*
X50484912Y-61178329D01*
X50279651Y-61137500D01*
X50279647Y-61137500D01*
X50070353Y-61137500D01*
X50070348Y-61137500D01*
X49865087Y-61178329D01*
X49865079Y-61178331D01*
X49671719Y-61258423D01*
X49497693Y-61374703D01*
X49349703Y-61522693D01*
X49233423Y-61696719D01*
X49153331Y-61890079D01*
X49153329Y-61890087D01*
X49112500Y-62095348D01*
X37798541Y-62095348D01*
X37862795Y-61897595D01*
X37884452Y-61760855D01*
X37902500Y-61646911D01*
X37902500Y-61393088D01*
X37868485Y-61178331D01*
X37862795Y-61142405D01*
X37784362Y-60901015D01*
X37669134Y-60674866D01*
X37519946Y-60469527D01*
X37388100Y-60337681D01*
X37354615Y-60276358D01*
X37359599Y-60206666D01*
X37388100Y-60162319D01*
X37519946Y-60030473D01*
X37669134Y-59825134D01*
X37784362Y-59598985D01*
X37862795Y-59357595D01*
X37880441Y-59246177D01*
X37902500Y-59106911D01*
X37902500Y-58853088D01*
X37871390Y-58656670D01*
X37862795Y-58602405D01*
X37784362Y-58361015D01*
X37669134Y-58134866D01*
X37519946Y-57929527D01*
X37388100Y-57797681D01*
X37354615Y-57736358D01*
X37359599Y-57666666D01*
X37388100Y-57622319D01*
X37480071Y-57530348D01*
X50437500Y-57530348D01*
X50437500Y-57739651D01*
X50478329Y-57944912D01*
X50478331Y-57944920D01*
X50558423Y-58138280D01*
X50674703Y-58312306D01*
X50822693Y-58460296D01*
X50996719Y-58576576D01*
X51093399Y-58616622D01*
X51190080Y-58656669D01*
X51365566Y-58691575D01*
X51395348Y-58697499D01*
X51395352Y-58697500D01*
X51395353Y-58697500D01*
X51604648Y-58697500D01*
X51604649Y-58697499D01*
X51809920Y-58656669D01*
X51986079Y-58583700D01*
X52055546Y-58576232D01*
X52102420Y-58595159D01*
X52246719Y-58691576D01*
X52343399Y-58731622D01*
X52440080Y-58771669D01*
X52645348Y-58812499D01*
X52645352Y-58812500D01*
X52645353Y-58812500D01*
X52854648Y-58812500D01*
X52854649Y-58812499D01*
X53059920Y-58771669D01*
X53238978Y-58697500D01*
X53253280Y-58691576D01*
X53253280Y-58691575D01*
X53253282Y-58691575D01*
X53427304Y-58575298D01*
X53575298Y-58427304D01*
X53691575Y-58253282D01*
X53771669Y-58059920D01*
X53812500Y-57854647D01*
X53812500Y-57645353D01*
X53771669Y-57440080D01*
X53707488Y-57285134D01*
X53691576Y-57246719D01*
X53575296Y-57072693D01*
X53427306Y-56924703D01*
X53253280Y-56808423D01*
X53059920Y-56728331D01*
X53059912Y-56728329D01*
X52854651Y-56687500D01*
X52854647Y-56687500D01*
X52645353Y-56687500D01*
X52645348Y-56687500D01*
X52440087Y-56728329D01*
X52440079Y-56728331D01*
X52263922Y-56801298D01*
X52194452Y-56808767D01*
X52147579Y-56789840D01*
X52055520Y-56728329D01*
X52003282Y-56693425D01*
X52003277Y-56693423D01*
X51809920Y-56613331D01*
X51809912Y-56613329D01*
X51604651Y-56572500D01*
X51604647Y-56572500D01*
X51395353Y-56572500D01*
X51395348Y-56572500D01*
X51190087Y-56613329D01*
X51190079Y-56613331D01*
X50996719Y-56693423D01*
X50822693Y-56809703D01*
X50674703Y-56957693D01*
X50558423Y-57131719D01*
X50478331Y-57325079D01*
X50478329Y-57325087D01*
X50437500Y-57530348D01*
X37480071Y-57530348D01*
X37519946Y-57490473D01*
X37669134Y-57285134D01*
X37784362Y-57058985D01*
X37862795Y-56817595D01*
X37880441Y-56706177D01*
X37902500Y-56566911D01*
X37902500Y-56313088D01*
X37862795Y-56062408D01*
X37862795Y-56062405D01*
X37784362Y-55821015D01*
X37669134Y-55594866D01*
X37519946Y-55389527D01*
X37388100Y-55257681D01*
X37354615Y-55196358D01*
X37359599Y-55126666D01*
X37388100Y-55082319D01*
X37519946Y-54950473D01*
X37669134Y-54745134D01*
X37784362Y-54518985D01*
X37862795Y-54277595D01*
X37880441Y-54166177D01*
X37902500Y-54026911D01*
X37902500Y-53773088D01*
X37862795Y-53522408D01*
X37862795Y-53522405D01*
X37784362Y-53281015D01*
X37669134Y-53054866D01*
X37519946Y-52849527D01*
X37388100Y-52717681D01*
X37354615Y-52656358D01*
X37359599Y-52586666D01*
X37388100Y-52542319D01*
X37453115Y-52477304D01*
X37519946Y-52410473D01*
X37669134Y-52205134D01*
X37784362Y-51978985D01*
X37862795Y-51737595D01*
X37881751Y-51617912D01*
X37902500Y-51486911D01*
X37902500Y-51233088D01*
X37870510Y-51031114D01*
X37862795Y-50982405D01*
X37784362Y-50741015D01*
X37669134Y-50514866D01*
X37582299Y-50395348D01*
X49112500Y-50395348D01*
X49112500Y-50604651D01*
X49153329Y-50809912D01*
X49153331Y-50809920D01*
X49230532Y-50996299D01*
X49233425Y-51003282D01*
X49252020Y-51031111D01*
X49285427Y-51081110D01*
X49306304Y-51147788D01*
X49287819Y-51215168D01*
X49285427Y-51218890D01*
X49233424Y-51296719D01*
X49153331Y-51490079D01*
X49153329Y-51490087D01*
X49112500Y-51695348D01*
X49112500Y-51904651D01*
X49153329Y-52109912D01*
X49153331Y-52109920D01*
X49233423Y-52303280D01*
X49349703Y-52477306D01*
X49497693Y-52625296D01*
X49671719Y-52741576D01*
X49710347Y-52757576D01*
X49865080Y-52821669D01*
X50005118Y-52849524D01*
X50070348Y-52862499D01*
X50070352Y-52862500D01*
X50070353Y-52862500D01*
X50279648Y-52862500D01*
X50279649Y-52862499D01*
X50484920Y-52821669D01*
X50678282Y-52741575D01*
X50852304Y-52625298D01*
X51000298Y-52477304D01*
X51116575Y-52303282D01*
X51196669Y-52109920D01*
X51237500Y-51904647D01*
X51237500Y-51695353D01*
X51196669Y-51490080D01*
X51116575Y-51296718D01*
X51116573Y-51296715D01*
X51116570Y-51296709D01*
X51064573Y-51218892D01*
X51043694Y-51152215D01*
X51062178Y-51084834D01*
X51064573Y-51081108D01*
X51116570Y-51003290D01*
X51116571Y-51003287D01*
X51116575Y-51003282D01*
X51196669Y-50809920D01*
X51237500Y-50604647D01*
X51237500Y-50395353D01*
X51196669Y-50190080D01*
X51138623Y-50049946D01*
X51116576Y-49996719D01*
X51000296Y-49822693D01*
X50852306Y-49674703D01*
X50678280Y-49558423D01*
X50484920Y-49478331D01*
X50484912Y-49478329D01*
X50279651Y-49437500D01*
X50279647Y-49437500D01*
X50070353Y-49437500D01*
X50070348Y-49437500D01*
X49865087Y-49478329D01*
X49865079Y-49478331D01*
X49671719Y-49558423D01*
X49497693Y-49674703D01*
X49349703Y-49822693D01*
X49233423Y-49996719D01*
X49153331Y-50190079D01*
X49153329Y-50190087D01*
X49112500Y-50395348D01*
X37582299Y-50395348D01*
X37519946Y-50309527D01*
X37388100Y-50177681D01*
X37354615Y-50116358D01*
X37359599Y-50046666D01*
X37388100Y-50002319D01*
X37451213Y-49939206D01*
X37519946Y-49870473D01*
X37669134Y-49665134D01*
X37784362Y-49438985D01*
X37862795Y-49197595D01*
X37884029Y-49063526D01*
X37902500Y-48946911D01*
X37902500Y-48693088D01*
X37862795Y-48442408D01*
X37862795Y-48442406D01*
X37862528Y-48441584D01*
X37852054Y-48409348D01*
X75137500Y-48409348D01*
X75137500Y-48618651D01*
X75178329Y-48823912D01*
X75178331Y-48823920D01*
X75258425Y-49017283D01*
X75300404Y-49080111D01*
X75321281Y-49146789D01*
X75302795Y-49214169D01*
X75300404Y-49217889D01*
X75258425Y-49280716D01*
X75178331Y-49474079D01*
X75178329Y-49474087D01*
X75137500Y-49679348D01*
X75137500Y-49888651D01*
X75178329Y-50093912D01*
X75178331Y-50093920D01*
X75258423Y-50287280D01*
X75374703Y-50461306D01*
X75378567Y-50466014D01*
X75376737Y-50467515D01*
X75405201Y-50519642D01*
X75400217Y-50589334D01*
X75377319Y-50624962D01*
X75378567Y-50625986D01*
X75374703Y-50630693D01*
X75258423Y-50804719D01*
X75178331Y-50998079D01*
X75178329Y-50998087D01*
X75137500Y-51203348D01*
X75137500Y-51412651D01*
X75178329Y-51617912D01*
X75178331Y-51617920D01*
X75258423Y-51811280D01*
X75374703Y-51985306D01*
X75522693Y-52133296D01*
X75696719Y-52249576D01*
X75793399Y-52289622D01*
X75890080Y-52329669D01*
X76091819Y-52369797D01*
X76095348Y-52370499D01*
X76095352Y-52370500D01*
X76242368Y-52370500D01*
X76309407Y-52390185D01*
X76345470Y-52425609D01*
X76390703Y-52493306D01*
X76538693Y-52641296D01*
X76712719Y-52757576D01*
X76809399Y-52797622D01*
X76906080Y-52837669D01*
X77111348Y-52878499D01*
X77111352Y-52878500D01*
X77111353Y-52878500D01*
X77320648Y-52878500D01*
X77320649Y-52878499D01*
X77525920Y-52837669D01*
X77719282Y-52757575D01*
X77782111Y-52715594D01*
X77848785Y-52694717D01*
X77916166Y-52713201D01*
X77919849Y-52715567D01*
X77982718Y-52757575D01*
X78176080Y-52837669D01*
X78381348Y-52878499D01*
X78381352Y-52878500D01*
X78381353Y-52878500D01*
X78590648Y-52878500D01*
X78590649Y-52878499D01*
X78795920Y-52837669D01*
X78989282Y-52757575D01*
X79163304Y-52641298D01*
X79217936Y-52586666D01*
X79311297Y-52493306D01*
X79420634Y-52329670D01*
X79427575Y-52319282D01*
X79434203Y-52303282D01*
X79474857Y-52205134D01*
X79507669Y-52125920D01*
X79548500Y-51920647D01*
X79548500Y-51711353D01*
X79507669Y-51506080D01*
X79467622Y-51409399D01*
X79427576Y-51312719D01*
X79311296Y-51138693D01*
X79163306Y-50990703D01*
X78989279Y-50874423D01*
X78863047Y-50822136D01*
X78808644Y-50778295D01*
X78788195Y-50728008D01*
X78786500Y-50717862D01*
X78786500Y-50695353D01*
X78763012Y-50577276D01*
X78762698Y-50575393D01*
X78766662Y-50542529D01*
X78769613Y-50509560D01*
X78770872Y-50507638D01*
X78771067Y-50506026D01*
X78775212Y-50501016D01*
X78797322Y-50467279D01*
X78803298Y-50461304D01*
X78919575Y-50287282D01*
X78999669Y-50093920D01*
X79040500Y-49888647D01*
X79040500Y-49679353D01*
X78999669Y-49474080D01*
X78959622Y-49377399D01*
X78919576Y-49280719D01*
X78830087Y-49146789D01*
X78803298Y-49106696D01*
X78797323Y-49100721D01*
X78793517Y-49093752D01*
X78787075Y-49089106D01*
X78777011Y-49063526D01*
X78763837Y-49039402D01*
X78763751Y-49029822D01*
X78761495Y-49024087D01*
X78763384Y-48988853D01*
X78767142Y-48969959D01*
X78799528Y-48908053D01*
X78819860Y-48891061D01*
X78909304Y-48831298D01*
X79057298Y-48683304D01*
X79173575Y-48509282D01*
X79253669Y-48315920D01*
X79294500Y-48110647D01*
X79294500Y-47901353D01*
X79253669Y-47696080D01*
X79194784Y-47553920D01*
X79173576Y-47502719D01*
X79057296Y-47328693D01*
X78909309Y-47180706D01*
X78909303Y-47180701D01*
X78887854Y-47166369D01*
X78843049Y-47112756D01*
X78834343Y-47043431D01*
X78864499Y-46980404D01*
X78909292Y-46948708D01*
X78989282Y-46915575D01*
X79163304Y-46799298D01*
X79311298Y-46651304D01*
X79427575Y-46477282D01*
X79507669Y-46283920D01*
X79548500Y-46078647D01*
X79548500Y-45869353D01*
X79507669Y-45664080D01*
X79460702Y-45550693D01*
X79427576Y-45470719D01*
X79311296Y-45296693D01*
X79163306Y-45148703D01*
X78989280Y-45032423D01*
X78795920Y-44952331D01*
X78795912Y-44952329D01*
X78590651Y-44911500D01*
X78590647Y-44911500D01*
X78381353Y-44911500D01*
X78381348Y-44911500D01*
X78176087Y-44952329D01*
X78176079Y-44952331D01*
X77982719Y-45032423D01*
X77808695Y-45148702D01*
X77660542Y-45296855D01*
X77599219Y-45330339D01*
X77529527Y-45325355D01*
X77503971Y-45312276D01*
X77465282Y-45286425D01*
X77465277Y-45286423D01*
X77271920Y-45206331D01*
X77271912Y-45206329D01*
X77066651Y-45165500D01*
X77066647Y-45165500D01*
X76857353Y-45165500D01*
X76857348Y-45165500D01*
X76652087Y-45206329D01*
X76652079Y-45206331D01*
X76458719Y-45286423D01*
X76284693Y-45402703D01*
X76136703Y-45550693D01*
X76020423Y-45724719D01*
X75940331Y-45918079D01*
X75940329Y-45918087D01*
X75899500Y-46123348D01*
X75899500Y-46270367D01*
X75879815Y-46337406D01*
X75844391Y-46373469D01*
X75776696Y-46418701D01*
X75776692Y-46418704D01*
X75628703Y-46566693D01*
X75512423Y-46740719D01*
X75432331Y-46934079D01*
X75432329Y-46934087D01*
X75391500Y-47139348D01*
X75391500Y-47348651D01*
X75432329Y-47553912D01*
X75432331Y-47553920D01*
X75466568Y-47636574D01*
X75474037Y-47706043D01*
X75442762Y-47768522D01*
X75439690Y-47771707D01*
X75374701Y-47836697D01*
X75258424Y-48010718D01*
X75178331Y-48204079D01*
X75178329Y-48204087D01*
X75137500Y-48409348D01*
X37852054Y-48409348D01*
X37784362Y-48201015D01*
X37669134Y-47974866D01*
X37519946Y-47769527D01*
X37388100Y-47637681D01*
X37354615Y-47576358D01*
X37359599Y-47506666D01*
X37388100Y-47462319D01*
X37427876Y-47422543D01*
X37519946Y-47330473D01*
X37669134Y-47125134D01*
X37784362Y-46898985D01*
X37862795Y-46657595D01*
X37897531Y-46438280D01*
X37902500Y-46406911D01*
X37902500Y-46153088D01*
X37880842Y-46016354D01*
X37862795Y-45902405D01*
X37839382Y-45830348D01*
X50437500Y-45830348D01*
X50437500Y-46039651D01*
X50478329Y-46244912D01*
X50478331Y-46244920D01*
X50558423Y-46438280D01*
X50674703Y-46612306D01*
X50822693Y-46760296D01*
X50996719Y-46876576D01*
X51090871Y-46915575D01*
X51190080Y-46956669D01*
X51386148Y-46995669D01*
X51395348Y-46997499D01*
X51395352Y-46997500D01*
X51395353Y-46997500D01*
X51604648Y-46997500D01*
X51604649Y-46997499D01*
X51809920Y-46956669D01*
X52003282Y-46876575D01*
X52007466Y-46873778D01*
X52074139Y-46852899D01*
X52141520Y-46871380D01*
X52145236Y-46873767D01*
X52149441Y-46876577D01*
X52246719Y-46941576D01*
X52343399Y-46981622D01*
X52440080Y-47021669D01*
X52643991Y-47062229D01*
X52645348Y-47062499D01*
X52645352Y-47062500D01*
X52645353Y-47062500D01*
X52854648Y-47062500D01*
X52854649Y-47062499D01*
X53059920Y-47021669D01*
X53253282Y-46941575D01*
X53427304Y-46825298D01*
X53575298Y-46677304D01*
X53691575Y-46503282D01*
X53702346Y-46477280D01*
X53726004Y-46420164D01*
X53771669Y-46309920D01*
X53812500Y-46104647D01*
X53812500Y-45895353D01*
X53771669Y-45690080D01*
X53731622Y-45593399D01*
X53691576Y-45496719D01*
X53575296Y-45322693D01*
X53427306Y-45174703D01*
X53253280Y-45058423D01*
X53059920Y-44978331D01*
X53059912Y-44978329D01*
X52854651Y-44937500D01*
X52854647Y-44937500D01*
X52645353Y-44937500D01*
X52645348Y-44937500D01*
X52440087Y-44978329D01*
X52440079Y-44978331D01*
X52246719Y-45058423D01*
X52242526Y-45061226D01*
X52175847Y-45082100D01*
X52108468Y-45063612D01*
X52104750Y-45061223D01*
X52003282Y-44993425D01*
X52003277Y-44993423D01*
X51809920Y-44913331D01*
X51809912Y-44913329D01*
X51604651Y-44872500D01*
X51604647Y-44872500D01*
X51395353Y-44872500D01*
X51395348Y-44872500D01*
X51190087Y-44913329D01*
X51190079Y-44913331D01*
X50996719Y-44993423D01*
X50822693Y-45109703D01*
X50674703Y-45257693D01*
X50558423Y-45431719D01*
X50478331Y-45625079D01*
X50478329Y-45625087D01*
X50437500Y-45830348D01*
X37839382Y-45830348D01*
X37784362Y-45661015D01*
X37669134Y-45434866D01*
X37519946Y-45229527D01*
X37388100Y-45097681D01*
X37354615Y-45036358D01*
X37359599Y-44966666D01*
X37388100Y-44922319D01*
X37437919Y-44872500D01*
X37519946Y-44790473D01*
X37669134Y-44585134D01*
X37784362Y-44358985D01*
X37862795Y-44117595D01*
X37880441Y-44006177D01*
X37902500Y-43866911D01*
X37902500Y-43613088D01*
X37871427Y-43416904D01*
X37862795Y-43362405D01*
X37784362Y-43121015D01*
X37669134Y-42894866D01*
X37519946Y-42689527D01*
X37340473Y-42510054D01*
X37135134Y-42360866D01*
X36908985Y-42245638D01*
X36667595Y-42167205D01*
X36667593Y-42167204D01*
X36667591Y-42167204D01*
X36416911Y-42127500D01*
X36416906Y-42127500D01*
X36163094Y-42127500D01*
X36163089Y-42127500D01*
X35912408Y-42167204D01*
X35671012Y-42245639D01*
X35444865Y-42360866D01*
X35416957Y-42381143D01*
X35371939Y-42413851D01*
X35359301Y-42423033D01*
X35293494Y-42446513D01*
X35225440Y-42430688D01*
X35198734Y-42410396D01*
X35076150Y-42287812D01*
X35076149Y-42287811D01*
X34981900Y-42229678D01*
X34924442Y-42194237D01*
X34924437Y-42194235D01*
X34755242Y-42138169D01*
X34755235Y-42138168D01*
X34650812Y-42127500D01*
X32849196Y-42127500D01*
X32849180Y-42127501D01*
X32744757Y-42138169D01*
X32575562Y-42194235D01*
X32575557Y-42194237D01*
X32423849Y-42287812D01*
X32297812Y-42413849D01*
X32204237Y-42565557D01*
X32204235Y-42565562D01*
X32148169Y-42734757D01*
X32148168Y-42734764D01*
X32137500Y-42839181D01*
X30500500Y-42839181D01*
X30500500Y-39995348D01*
X49137500Y-39995348D01*
X49137500Y-40204651D01*
X49178329Y-40409912D01*
X49178331Y-40409920D01*
X49258423Y-40603280D01*
X49374703Y-40777306D01*
X49522693Y-40925296D01*
X49696719Y-41041576D01*
X49793399Y-41081622D01*
X49890080Y-41121669D01*
X50095348Y-41162499D01*
X50095352Y-41162500D01*
X50095353Y-41162500D01*
X50304648Y-41162500D01*
X50304649Y-41162499D01*
X50509920Y-41121669D01*
X50674964Y-41053304D01*
X50703280Y-41041576D01*
X50703280Y-41041575D01*
X50703282Y-41041575D01*
X50877304Y-40925298D01*
X51025298Y-40777304D01*
X51141575Y-40603282D01*
X51221669Y-40409920D01*
X51262500Y-40204647D01*
X51262500Y-39995353D01*
X51221669Y-39790080D01*
X51146903Y-39609580D01*
X51141576Y-39596719D01*
X51025296Y-39422693D01*
X50877306Y-39274703D01*
X50703280Y-39158423D01*
X50509920Y-39078331D01*
X50509912Y-39078329D01*
X50304651Y-39037500D01*
X50304647Y-39037500D01*
X50095353Y-39037500D01*
X50095348Y-39037500D01*
X49890087Y-39078329D01*
X49890079Y-39078331D01*
X49696719Y-39158423D01*
X49522693Y-39274703D01*
X49374703Y-39422693D01*
X49258423Y-39596719D01*
X49178331Y-39790079D01*
X49178329Y-39790087D01*
X49137500Y-39995348D01*
X30500500Y-39995348D01*
X30500500Y-37824500D01*
X30520185Y-37757461D01*
X30572989Y-37711706D01*
X30624500Y-37700500D01*
X83188000Y-37700500D01*
X83255039Y-37720185D01*
G37*
%TD.AperFunction*%
%TD*%
M02*
