M48
; DRILL file {KiCad 8.0.6} date 2025-02-20T14:45:04-0500
; FORMAT={-:-/ absolute / inch / decimal}
; #@! TF.CreationDate,2025-02-20T14:45:04-05:00
; #@! TF.GenerationSoftware,Kicad,Pcbnew,8.0.6
; #@! TF.FileFunction,Plated,1,4,PTH
FMAT,2
INCH
; #@! TA.AperFunction,Plated,PTH,ViaDrill
T1C0.0157
; #@! TA.AperFunction,Plated,PTH,ComponentDrill
T2C0.0394
; #@! TA.AperFunction,Plated,PTH,ComponentDrill
T3C0.0402
%
G90
G05
T1
X2.0276Y-1.7585
X2.0276Y-1.8085
X2.0276Y-2.2191
X2.0276Y-2.2691
X2.0276Y-2.6824
X2.0276Y-2.7271
X2.0276Y-3.1469
X2.0276Y-3.1933
X2.0315Y-2.0709
X2.0315Y-2.4213
X2.0315Y-2.5276
X2.0315Y-2.8858
X2.0315Y-2.9882
X2.0354Y-1.6063
X2.0354Y-1.9606
X2.0354Y-3.3465
X2.0768Y-1.752
X2.0768Y-1.811
X2.0768Y-2.2146
X2.0768Y-2.2736
X2.0768Y-2.6772
X2.0768Y-2.7264
X2.0866Y-3.1398
X2.0866Y-3.189
T2
X1.3287Y-1.722
X1.3287Y-1.822
X1.3287Y-1.922
X1.3287Y-2.022
X1.3287Y-2.122
X1.3287Y-2.222
X1.3287Y-2.322
X1.3287Y-2.422
X1.3287Y-2.522
X1.3287Y-2.622
X1.3287Y-2.722
X1.3287Y-2.822
X1.3287Y-2.922
X1.3287Y-3.022
X1.3287Y-3.122
X1.3287Y-3.222
X1.3287Y-3.322
X1.4287Y-1.722
X1.4287Y-1.822
X1.4287Y-1.922
X1.4287Y-2.022
X1.4287Y-2.122
X1.4287Y-2.222
X1.4287Y-2.322
X1.4287Y-2.422
X1.4287Y-2.522
X1.4287Y-2.622
X1.4287Y-2.722
X1.4287Y-2.822
X1.4287Y-2.922
X1.4287Y-3.022
X1.4287Y-3.122
X1.4287Y-3.222
X1.4287Y-3.322
T3
X2.4705Y-1.526
X2.4705Y-1.626
X2.4705Y-1.726
X2.4705Y-1.826
X2.4705Y-1.926
X2.4705Y-2.026
X2.4705Y-2.126
X2.4705Y-2.226
X2.4705Y-2.326
X2.4705Y-2.426
X2.4705Y-2.526
X2.4705Y-2.626
X2.4705Y-2.726
X2.4705Y-2.826
X2.4705Y-2.926
X2.4705Y-3.026
X2.4705Y-3.126
X2.4705Y-3.226
X2.4705Y-3.326
X2.4705Y-3.426
X2.7205Y-3.4169
X2.8205Y-3.4169
X2.9205Y-3.4169
X3.1705Y-1.526
X3.1705Y-1.626
X3.1705Y-1.726
X3.1705Y-1.826
X3.1705Y-1.926
X3.1705Y-2.026
X3.1705Y-2.126
X3.1705Y-2.226
X3.1705Y-2.326
X3.1705Y-2.426
X3.1705Y-2.526
X3.1705Y-2.626
X3.1705Y-2.726
X3.1705Y-2.826
X3.1705Y-2.926
X3.1705Y-3.026
X3.1705Y-3.126
X3.1705Y-3.226
X3.1705Y-3.326
X3.1705Y-3.426
M30
