%TF.GenerationSoftware,KiCad,Pcbnew,8.0.6*%
%TF.CreationDate,2025-02-20T14:45:06-05:00*%
%TF.ProjectId,PicoLVDS,5069636f-4c56-4445-932e-6b696361645f,1*%
%TF.SameCoordinates,Original*%
%TF.FileFunction,Copper,L1,Top*%
%TF.FilePolarity,Positive*%
%FSLAX46Y46*%
G04 Gerber Fmt 4.6, Leading zero omitted, Abs format (unit mm)*
G04 Created by KiCad (PCBNEW 8.0.6) date 2025-02-20 14:45:06*
%MOMM*%
%LPD*%
G01*
G04 APERTURE LIST*
G04 Aperture macros list*
%AMRoundRect*
0 Rectangle with rounded corners*
0 $1 Rounding radius*
0 $2 $3 $4 $5 $6 $7 $8 $9 X,Y pos of 4 corners*
0 Add a 4 corners polygon primitive as box body*
4,1,4,$2,$3,$4,$5,$6,$7,$8,$9,$2,$3,0*
0 Add four circle primitives for the rounded corners*
1,1,$1+$1,$2,$3*
1,1,$1+$1,$4,$5*
1,1,$1+$1,$6,$7*
1,1,$1+$1,$8,$9*
0 Add four rect primitives between the rounded corners*
20,1,$1+$1,$2,$3,$4,$5,0*
20,1,$1+$1,$4,$5,$6,$7,0*
20,1,$1+$1,$6,$7,$8,$9,0*
20,1,$1+$1,$8,$9,$2,$3,0*%
G04 Aperture macros list end*
%TA.AperFunction,SMDPad,CuDef*%
%ADD10RoundRect,0.150000X0.825000X0.150000X-0.825000X0.150000X-0.825000X-0.150000X0.825000X-0.150000X0*%
%TD*%
%TA.AperFunction,SMDPad,CuDef*%
%ADD11RoundRect,0.155000X0.155000X-0.212500X0.155000X0.212500X-0.155000X0.212500X-0.155000X-0.212500X0*%
%TD*%
%TA.AperFunction,ComponentPad*%
%ADD12R,1.700000X1.700000*%
%TD*%
%TA.AperFunction,ComponentPad*%
%ADD13O,1.700000X1.700000*%
%TD*%
%TA.AperFunction,SMDPad,CuDef*%
%ADD14R,3.500000X1.700000*%
%TD*%
%TA.AperFunction,SMDPad,CuDef*%
%ADD15R,1.700000X3.500000*%
%TD*%
%TA.AperFunction,ViaPad*%
%ADD16C,0.600000*%
%TD*%
%TA.AperFunction,Conductor*%
%ADD17C,0.508000*%
%TD*%
%TA.AperFunction,Conductor*%
%ADD18C,0.762000*%
%TD*%
%TA.AperFunction,Conductor*%
%ADD19C,0.175260*%
%TD*%
%TA.AperFunction,Conductor*%
%ADD20C,0.381000*%
%TD*%
G04 APERTURE END LIST*
D10*
%TO.P,U5,1,EN*%
%TO.N,+3V3*%
X50250000Y-84920000D03*
%TO.P,U5,2,DIN1*%
%TO.N,/D15*%
X50250000Y-83650000D03*
%TO.P,U5,3,DIN2*%
%TO.N,/D14*%
X50250000Y-82380000D03*
%TO.P,U5,4,VCC*%
%TO.N,+3V3*%
X50250000Y-81110000D03*
%TO.P,U5,5,GND*%
%TO.N,GND*%
X50250000Y-79840000D03*
%TO.P,U5,6,DIN3*%
%TO.N,/D13*%
X50250000Y-78570000D03*
%TO.P,U5,7,DIN4*%
%TO.N,/D12*%
X50250000Y-77300000D03*
%TO.P,U5,8,~{EN}*%
%TO.N,GND*%
X50250000Y-76030000D03*
%TO.P,U5,9,DOUT4-*%
%TO.N,/Out_12-*%
X45300000Y-76030000D03*
%TO.P,U5,10,DOUT4+*%
%TO.N,/Out_12+*%
X45300000Y-77300000D03*
%TO.P,U5,11,DOUT3+*%
%TO.N,/Out_13+*%
X45300000Y-78570000D03*
%TO.P,U5,12,DOUT3-*%
%TO.N,/Out_13-*%
X45300000Y-79840000D03*
%TO.P,U5,13,DOUT2-*%
%TO.N,/Out_14-*%
X45300000Y-81110000D03*
%TO.P,U5,14,DOUT2+*%
%TO.N,/Out_14+*%
X45300000Y-82380000D03*
%TO.P,U5,15,DOUT1+*%
%TO.N,/Out_15+*%
X45300000Y-83650000D03*
%TO.P,U5,16,DOUT1-*%
%TO.N,/Out_15-*%
X45300000Y-84920000D03*
%TD*%
D11*
%TO.P,C1,1*%
%TO.N,+3V3*%
X52100000Y-45867500D03*
%TO.P,C1,2*%
%TO.N,GND*%
X52100000Y-44732500D03*
%TD*%
D10*
%TO.P,U3,1,EN*%
%TO.N,+3V3*%
X50175000Y-61445000D03*
%TO.P,U3,2,DIN1*%
%TO.N,/D7*%
X50175000Y-60175000D03*
%TO.P,U3,3,DIN2*%
%TO.N,/D6*%
X50175000Y-58905000D03*
%TO.P,U3,4,VCC*%
%TO.N,+3V3*%
X50175000Y-57635000D03*
%TO.P,U3,5,GND*%
%TO.N,GND*%
X50175000Y-56365000D03*
%TO.P,U3,6,DIN3*%
%TO.N,/D5*%
X50175000Y-55095000D03*
%TO.P,U3,7,DIN4*%
%TO.N,/D4*%
X50175000Y-53825000D03*
%TO.P,U3,8,~{EN}*%
%TO.N,GND*%
X50175000Y-52555000D03*
%TO.P,U3,9,DOUT4-*%
%TO.N,/Out_4-*%
X45225000Y-52555000D03*
%TO.P,U3,10,DOUT4+*%
%TO.N,/Out_4+*%
X45225000Y-53825000D03*
%TO.P,U3,11,DOUT3+*%
%TO.N,/Out_5+*%
X45225000Y-55095000D03*
%TO.P,U3,12,DOUT3-*%
%TO.N,/Out_5-*%
X45225000Y-56365000D03*
%TO.P,U3,13,DOUT2-*%
%TO.N,/Out_6-*%
X45225000Y-57635000D03*
%TO.P,U3,14,DOUT2+*%
%TO.N,/Out_6+*%
X45225000Y-58905000D03*
%TO.P,U3,15,DOUT1+*%
%TO.N,/Out_7+*%
X45225000Y-60175000D03*
%TO.P,U3,16,DOUT1-*%
%TO.N,/Out_7-*%
X45225000Y-61445000D03*
%TD*%
D12*
%TO.P,J1,1,Pin_1*%
%TO.N,/Out_0+*%
X33750000Y-43740000D03*
D13*
%TO.P,J1,2,Pin_2*%
%TO.N,/Out_0-*%
X36290000Y-43740000D03*
%TO.P,J1,3,Pin_3*%
%TO.N,/Out_1+*%
X33750000Y-46280000D03*
%TO.P,J1,4,Pin_4*%
%TO.N,/Out_1-*%
X36290000Y-46280000D03*
%TO.P,J1,5,Pin_5*%
%TO.N,/Out_2+*%
X33750000Y-48820000D03*
%TO.P,J1,6,Pin_6*%
%TO.N,/Out_2-*%
X36290000Y-48820000D03*
%TO.P,J1,7,Pin_7*%
%TO.N,/Out_3+*%
X33750000Y-51360000D03*
%TO.P,J1,8,Pin_8*%
%TO.N,/Out_3-*%
X36290000Y-51360000D03*
%TO.P,J1,9,Pin_9*%
%TO.N,/Out_4+*%
X33750000Y-53900000D03*
%TO.P,J1,10,Pin_10*%
%TO.N,/Out_4-*%
X36290000Y-53900000D03*
%TO.P,J1,11,Pin_11*%
%TO.N,/Out_5+*%
X33750000Y-56440000D03*
%TO.P,J1,12,Pin_12*%
%TO.N,/Out_5-*%
X36290000Y-56440000D03*
%TO.P,J1,13,Pin_13*%
%TO.N,/Out_6+*%
X33750000Y-58980000D03*
%TO.P,J1,14,Pin_14*%
%TO.N,/Out_6-*%
X36290000Y-58980000D03*
%TO.P,J1,15,Pin_15*%
%TO.N,/Out_7+*%
X33750000Y-61520000D03*
%TO.P,J1,16,Pin_16*%
%TO.N,/Out_7-*%
X36290000Y-61520000D03*
%TO.P,J1,17,Pin_17*%
%TO.N,/Out_8+*%
X33750000Y-64060000D03*
%TO.P,J1,18,Pin_18*%
%TO.N,/Out_8-*%
X36290000Y-64060000D03*
%TO.P,J1,19,Pin_19*%
%TO.N,/Out_9+*%
X33750000Y-66600000D03*
%TO.P,J1,20,Pin_20*%
%TO.N,/Out_9-*%
X36290000Y-66600000D03*
%TO.P,J1,21,Pin_21*%
%TO.N,/Out_10+*%
X33750000Y-69140000D03*
%TO.P,J1,22,Pin_22*%
%TO.N,/Out_10-*%
X36290000Y-69140000D03*
%TO.P,J1,23,Pin_23*%
%TO.N,/Out_11+*%
X33750000Y-71680000D03*
%TO.P,J1,24,Pin_24*%
%TO.N,/Out_11-*%
X36290000Y-71680000D03*
%TO.P,J1,25,Pin_25*%
%TO.N,/Out_12+*%
X33750000Y-74220000D03*
%TO.P,J1,26,Pin_26*%
%TO.N,/Out_12-*%
X36290000Y-74220000D03*
%TO.P,J1,27,Pin_27*%
%TO.N,/Out_13+*%
X33750000Y-76760000D03*
%TO.P,J1,28,Pin_28*%
%TO.N,/Out_13-*%
X36290000Y-76760000D03*
%TO.P,J1,29,Pin_29*%
%TO.N,/Out_14+*%
X33750000Y-79300000D03*
%TO.P,J1,30,Pin_30*%
%TO.N,/Out_14-*%
X36290000Y-79300000D03*
%TO.P,J1,31,Pin_31*%
%TO.N,/Out_15+*%
X33750000Y-81840000D03*
%TO.P,J1,32,Pin_32*%
%TO.N,/Out_15-*%
X36290000Y-81840000D03*
%TO.P,J1,33,Pin_33*%
%TO.N,unconnected-(J1-Pin_33-Pad33)*%
X33750000Y-84380000D03*
%TO.P,J1,34,Pin_34*%
%TO.N,unconnected-(J1-Pin_34-Pad34)*%
X36290000Y-84380000D03*
%TD*%
D10*
%TO.P,U2,1,EN*%
%TO.N,+3V3*%
X50175000Y-49745000D03*
%TO.P,U2,2,DIN1*%
%TO.N,/D3*%
X50175000Y-48475000D03*
%TO.P,U2,3,DIN2*%
%TO.N,/D2*%
X50175000Y-47205000D03*
%TO.P,U2,4,VCC*%
%TO.N,+3V3*%
X50175000Y-45935000D03*
%TO.P,U2,5,GND*%
%TO.N,GND*%
X50175000Y-44665000D03*
%TO.P,U2,6,DIN3*%
%TO.N,/D1*%
X50175000Y-43395000D03*
%TO.P,U2,7,DIN4*%
%TO.N,/D0*%
X50175000Y-42125000D03*
%TO.P,U2,8,~{EN}*%
%TO.N,GND*%
X50175000Y-40855000D03*
%TO.P,U2,9,DOUT4-*%
%TO.N,/Out_0-*%
X45225000Y-40855000D03*
%TO.P,U2,10,DOUT4+*%
%TO.N,/Out_0+*%
X45225000Y-42125000D03*
%TO.P,U2,11,DOUT3+*%
%TO.N,/Out_1+*%
X45225000Y-43395000D03*
%TO.P,U2,12,DOUT3-*%
%TO.N,/Out_1-*%
X45225000Y-44665000D03*
%TO.P,U2,13,DOUT2-*%
%TO.N,/Out_2-*%
X45225000Y-45935000D03*
%TO.P,U2,14,DOUT2+*%
%TO.N,/Out_2+*%
X45225000Y-47205000D03*
%TO.P,U2,15,DOUT1+*%
%TO.N,/Out_3+*%
X45225000Y-48475000D03*
%TO.P,U2,16,DOUT1-*%
%TO.N,/Out_3-*%
X45225000Y-49745000D03*
%TD*%
D11*
%TO.P,C4,1*%
%TO.N,+3V3*%
X52200000Y-81067500D03*
%TO.P,C4,2*%
%TO.N,GND*%
X52200000Y-79932500D03*
%TD*%
%TO.P,C2,1*%
%TO.N,+3V3*%
X52100000Y-57567500D03*
%TO.P,C2,2*%
%TO.N,GND*%
X52100000Y-56432500D03*
%TD*%
D10*
%TO.P,U4,1,EN*%
%TO.N,+3V3*%
X50200000Y-73145000D03*
%TO.P,U4,2,DIN1*%
%TO.N,/D11*%
X50200000Y-71875000D03*
%TO.P,U4,3,DIN2*%
%TO.N,/D10*%
X50200000Y-70605000D03*
%TO.P,U4,4,VCC*%
%TO.N,+3V3*%
X50200000Y-69335000D03*
%TO.P,U4,5,GND*%
%TO.N,GND*%
X50200000Y-68065000D03*
%TO.P,U4,6,DIN3*%
%TO.N,/D9*%
X50200000Y-66795000D03*
%TO.P,U4,7,DIN4*%
%TO.N,/D8*%
X50200000Y-65525000D03*
%TO.P,U4,8,~{EN}*%
%TO.N,GND*%
X50200000Y-64255000D03*
%TO.P,U4,9,DOUT4-*%
%TO.N,/Out_8-*%
X45250000Y-64255000D03*
%TO.P,U4,10,DOUT4+*%
%TO.N,/Out_8+*%
X45250000Y-65525000D03*
%TO.P,U4,11,DOUT3+*%
%TO.N,/Out_9+*%
X45250000Y-66795000D03*
%TO.P,U4,12,DOUT3-*%
%TO.N,/Out_9-*%
X45250000Y-68065000D03*
%TO.P,U4,13,DOUT2-*%
%TO.N,/Out_10-*%
X45250000Y-69335000D03*
%TO.P,U4,14,DOUT2+*%
%TO.N,/Out_10+*%
X45250000Y-70605000D03*
%TO.P,U4,15,DOUT1+*%
%TO.N,/Out_11+*%
X45250000Y-71875000D03*
%TO.P,U4,16,DOUT1-*%
%TO.N,/Out_11-*%
X45250000Y-73145000D03*
%TD*%
D11*
%TO.P,C3,1*%
%TO.N,+3V3*%
X52100000Y-69267500D03*
%TO.P,C3,2*%
%TO.N,GND*%
X52100000Y-68132500D03*
%TD*%
D13*
%TO.P,U1,1,GPIO0*%
%TO.N,/D0*%
X62750000Y-38760000D03*
D14*
X61850000Y-38760000D03*
D13*
%TO.P,U1,2,GPIO1*%
%TO.N,/D1*%
X62750000Y-41300000D03*
D14*
X61850000Y-41300000D03*
D12*
%TO.P,U1,3,GND*%
%TO.N,GND*%
X62750000Y-43840000D03*
D14*
X61850000Y-43840000D03*
D13*
%TO.P,U1,4,GPIO2*%
%TO.N,/D2*%
X62750000Y-46380000D03*
D14*
X61850000Y-46380000D03*
D13*
%TO.P,U1,5,GPIO3*%
%TO.N,/D3*%
X62750000Y-48920000D03*
D14*
X61850000Y-48920000D03*
D13*
%TO.P,U1,6,GPIO4*%
%TO.N,/D4*%
X62750000Y-51460000D03*
D14*
X61850000Y-51460000D03*
D13*
%TO.P,U1,7,GPIO5*%
%TO.N,/D5*%
X62750000Y-54000000D03*
D14*
X61850000Y-54000000D03*
D12*
%TO.P,U1,8,GND*%
%TO.N,GND*%
X62750000Y-56540000D03*
D14*
X61850000Y-56540000D03*
D13*
%TO.P,U1,9,GPIO6*%
%TO.N,/D6*%
X62750000Y-59080000D03*
D14*
X61850000Y-59080000D03*
D13*
%TO.P,U1,10,GPIO7*%
%TO.N,/D7*%
X62750000Y-61620000D03*
D14*
X61850000Y-61620000D03*
D13*
%TO.P,U1,11,GPIO8*%
%TO.N,/D8*%
X62750000Y-64160000D03*
D14*
X61850000Y-64160000D03*
D13*
%TO.P,U1,12,GPIO9*%
%TO.N,/D9*%
X62750000Y-66700000D03*
D14*
X61850000Y-66700000D03*
D12*
%TO.P,U1,13,GND*%
%TO.N,GND*%
X62750000Y-69240000D03*
D14*
X61850000Y-69240000D03*
D13*
%TO.P,U1,14,GPIO10*%
%TO.N,/D10*%
X62750000Y-71780000D03*
D14*
X61850000Y-71780000D03*
D13*
%TO.P,U1,15,GPIO11*%
%TO.N,/D11*%
X62750000Y-74320000D03*
D14*
X61850000Y-74320000D03*
D13*
%TO.P,U1,16,GPIO12*%
%TO.N,/D12*%
X62750000Y-76860000D03*
D14*
X61850000Y-76860000D03*
D13*
%TO.P,U1,17,GPIO13*%
%TO.N,/D13*%
X62750000Y-79400000D03*
D14*
X61850000Y-79400000D03*
D12*
%TO.P,U1,18,GND*%
%TO.N,GND*%
X62750000Y-81940000D03*
D14*
X61850000Y-81940000D03*
D13*
%TO.P,U1,19,GPIO14*%
%TO.N,/D14*%
X62750000Y-84480000D03*
D14*
X61850000Y-84480000D03*
D13*
%TO.P,U1,20,GPIO15*%
%TO.N,/D15*%
X62750000Y-87020000D03*
D14*
X61850000Y-87020000D03*
D13*
%TO.P,U1,21,GPIO16*%
%TO.N,unconnected-(U1-GPIO16-Pad21)*%
X80530000Y-87020000D03*
D14*
%TO.N,unconnected-(U1-GPIO16-Pad21)_1*%
X81430000Y-87020000D03*
D13*
%TO.P,U1,22,GPIO17*%
%TO.N,unconnected-(U1-GPIO17-Pad22)*%
X80530000Y-84480000D03*
D14*
%TO.N,unconnected-(U1-GPIO17-Pad22)_1*%
X81430000Y-84480000D03*
D12*
%TO.P,U1,23,GND*%
%TO.N,GND*%
X80530000Y-81940000D03*
D14*
X81430000Y-81940000D03*
D13*
%TO.P,U1,24,GPIO18*%
%TO.N,unconnected-(U1-GPIO18-Pad24)_1*%
X80530000Y-79400000D03*
D14*
%TO.N,unconnected-(U1-GPIO18-Pad24)*%
X81430000Y-79400000D03*
D13*
%TO.P,U1,25,GPIO19*%
%TO.N,unconnected-(U1-GPIO19-Pad25)_1*%
X80530000Y-76860000D03*
D14*
%TO.N,unconnected-(U1-GPIO19-Pad25)*%
X81430000Y-76860000D03*
D13*
%TO.P,U1,26,GPIO20*%
%TO.N,unconnected-(U1-GPIO20-Pad26)_1*%
X80530000Y-74320000D03*
D14*
%TO.N,unconnected-(U1-GPIO20-Pad26)*%
X81430000Y-74320000D03*
D13*
%TO.P,U1,27,GPIO21*%
%TO.N,unconnected-(U1-GPIO21-Pad27)_1*%
X80530000Y-71780000D03*
D14*
%TO.N,unconnected-(U1-GPIO21-Pad27)*%
X81430000Y-71780000D03*
D12*
%TO.P,U1,28,GND*%
%TO.N,GND*%
X80530000Y-69240000D03*
D14*
X81430000Y-69240000D03*
D13*
%TO.P,U1,29,GPIO22*%
%TO.N,unconnected-(U1-GPIO22-Pad29)*%
X80530000Y-66700000D03*
D14*
%TO.N,unconnected-(U1-GPIO22-Pad29)_1*%
X81430000Y-66700000D03*
D13*
%TO.P,U1,30,RUN*%
%TO.N,unconnected-(U1-RUN-Pad30)*%
X80530000Y-64160000D03*
D14*
%TO.N,unconnected-(U1-RUN-Pad30)_1*%
X81430000Y-64160000D03*
D13*
%TO.P,U1,31,GPIO26_ADC0*%
%TO.N,unconnected-(U1-GPIO26_ADC0-Pad31)*%
X80530000Y-61620000D03*
D14*
%TO.N,unconnected-(U1-GPIO26_ADC0-Pad31)_1*%
X81430000Y-61620000D03*
D13*
%TO.P,U1,32,GPIO27_ADC1*%
%TO.N,unconnected-(U1-GPIO27_ADC1-Pad32)_1*%
X80530000Y-59080000D03*
D14*
%TO.N,unconnected-(U1-GPIO27_ADC1-Pad32)*%
X81430000Y-59080000D03*
D12*
%TO.P,U1,33,AGND*%
%TO.N,unconnected-(U1-AGND-Pad33)_1*%
X80530000Y-56540000D03*
D14*
%TO.N,unconnected-(U1-AGND-Pad33)*%
X81430000Y-56540000D03*
D13*
%TO.P,U1,34,GPIO28_ADC2*%
%TO.N,unconnected-(U1-GPIO28_ADC2-Pad34)*%
X80530000Y-54000000D03*
D14*
%TO.N,unconnected-(U1-GPIO28_ADC2-Pad34)_1*%
X81430000Y-54000000D03*
D13*
%TO.P,U1,35,ADC_VREF*%
%TO.N,unconnected-(U1-ADC_VREF-Pad35)*%
X80530000Y-51460000D03*
D14*
%TO.N,unconnected-(U1-ADC_VREF-Pad35)_1*%
X81430000Y-51460000D03*
D13*
%TO.P,U1,36,3V3*%
%TO.N,+3V3*%
X80530000Y-48920000D03*
D14*
X81430000Y-48920000D03*
D13*
%TO.P,U1,37,3V3_EN*%
%TO.N,unconnected-(U1-3V3_EN-Pad37)*%
X80530000Y-46380000D03*
D14*
%TO.N,unconnected-(U1-3V3_EN-Pad37)_1*%
X81430000Y-46380000D03*
D12*
%TO.P,U1,38,GND*%
%TO.N,GND*%
X80530000Y-43840000D03*
D14*
X81430000Y-43840000D03*
D13*
%TO.P,U1,39,VSYS*%
%TO.N,unconnected-(U1-VSYS-Pad39)_1*%
X80530000Y-41300000D03*
D14*
%TO.N,unconnected-(U1-VSYS-Pad39)*%
X81430000Y-41300000D03*
D13*
%TO.P,U1,40,VBUS*%
%TO.N,unconnected-(U1-VBUS-Pad40)*%
X80530000Y-38760000D03*
D14*
%TO.N,unconnected-(U1-VBUS-Pad40)_1*%
X81430000Y-38760000D03*
D13*
%TO.P,U1,41,SWCLK*%
%TO.N,unconnected-(U1-SWCLK-Pad41)_1*%
X69100000Y-86790000D03*
D15*
%TO.N,unconnected-(U1-SWCLK-Pad41)*%
X69100000Y-87690000D03*
D12*
%TO.P,U1,42,GND*%
%TO.N,unconnected-(U1-GND-Pad42)_1*%
X71640000Y-86790000D03*
D15*
%TO.N,unconnected-(U1-GND-Pad42)*%
X71640000Y-87690000D03*
D13*
%TO.P,U1,43,SWDIO*%
%TO.N,unconnected-(U1-SWDIO-Pad43)*%
X74180000Y-86790000D03*
D15*
%TO.N,unconnected-(U1-SWDIO-Pad43)_1*%
X74180000Y-87690000D03*
%TD*%
D16*
%TO.N,+3V3*%
X52750000Y-69250000D03*
X52750000Y-57750000D03*
X51500000Y-81110000D03*
X51600000Y-61500000D03*
X51500000Y-45935000D03*
X52750000Y-46000000D03*
X51500000Y-57635000D03*
X51500000Y-69267500D03*
X53000000Y-81000000D03*
X51600000Y-73300000D03*
X51700000Y-85000000D03*
X51700000Y-49800000D03*
%TO.N,GND*%
X52750000Y-68000000D03*
X52750000Y-44500000D03*
X51500000Y-56365000D03*
X51500000Y-68132500D03*
X52750000Y-56250000D03*
X51500000Y-79932500D03*
X51600000Y-64200000D03*
X51600000Y-52600000D03*
X51500000Y-44665000D03*
X51600000Y-75900000D03*
X53000000Y-79750000D03*
X51700000Y-40800000D03*
%TD*%
D17*
%TO.N,+3V3*%
X52200000Y-81067500D02*
X52932500Y-81067500D01*
X52617500Y-45867500D02*
X52750000Y-46000000D01*
X52567500Y-57567500D02*
X52750000Y-57750000D01*
D18*
X51445000Y-73145000D02*
X51600000Y-73300000D01*
X50200000Y-73145000D02*
X51445000Y-73145000D01*
D17*
X50175000Y-57635000D02*
X51500000Y-57635000D01*
D18*
X50250000Y-84920000D02*
X51620000Y-84920000D01*
D17*
X52100000Y-45867500D02*
X52617500Y-45867500D01*
X50250000Y-81110000D02*
X51500000Y-81110000D01*
X51500000Y-57635000D02*
X52032500Y-57635000D01*
X50175000Y-45935000D02*
X51500000Y-45935000D01*
X50267500Y-69267500D02*
X50200000Y-69335000D01*
D18*
X51620000Y-84920000D02*
X51700000Y-85000000D01*
D17*
X51500000Y-45935000D02*
X52032500Y-45935000D01*
X52100000Y-69267500D02*
X51500000Y-69267500D01*
D18*
X50175000Y-61445000D02*
X51545000Y-61445000D01*
D17*
X52932500Y-81067500D02*
X53000000Y-81000000D01*
X51500000Y-69267500D02*
X50267500Y-69267500D01*
X51500000Y-81110000D02*
X52157500Y-81110000D01*
D18*
X51545000Y-61445000D02*
X51600000Y-61500000D01*
D17*
X52100000Y-69267500D02*
X52732500Y-69267500D01*
D18*
X50230000Y-49800000D02*
X50175000Y-49745000D01*
D17*
X52100000Y-57567500D02*
X52567500Y-57567500D01*
D18*
X51700000Y-49800000D02*
X50230000Y-49800000D01*
D17*
X52032500Y-57635000D02*
X52100000Y-57567500D01*
X52732500Y-69267500D02*
X52750000Y-69250000D01*
X52032500Y-45935000D02*
X52100000Y-45867500D01*
%TO.N,GND*%
X52817500Y-79932500D02*
X52200000Y-79932500D01*
D18*
X78994200Y-44844200D02*
X80033400Y-43805000D01*
X50220000Y-52600000D02*
X50175000Y-52555000D01*
X51470000Y-76030000D02*
X51600000Y-75900000D01*
X51600000Y-52600000D02*
X50220000Y-52600000D01*
D17*
X52100000Y-56432500D02*
X52567500Y-56432500D01*
X52200000Y-79932500D02*
X51500000Y-79932500D01*
D18*
X51645000Y-40855000D02*
X51700000Y-40800000D01*
D17*
X52567500Y-56432500D02*
X52750000Y-56250000D01*
D18*
X78994200Y-45505800D02*
X78994200Y-44844200D01*
D17*
X52032500Y-44665000D02*
X52100000Y-44732500D01*
X50267500Y-68132500D02*
X50200000Y-68065000D01*
X51500000Y-79932500D02*
X50342500Y-79932500D01*
X51500000Y-44665000D02*
X52032500Y-44665000D01*
X52750000Y-44500000D02*
X52517500Y-44732500D01*
X50175000Y-56365000D02*
X51500000Y-56365000D01*
X52750000Y-68000000D02*
X52617500Y-68132500D01*
X52517500Y-44732500D02*
X52100000Y-44732500D01*
X50175000Y-44665000D02*
X51500000Y-44665000D01*
D18*
X62750000Y-56540000D02*
X67960000Y-56540000D01*
D17*
X53000000Y-79750000D02*
X52817500Y-79932500D01*
X52617500Y-68132500D02*
X52100000Y-68132500D01*
D18*
X50175000Y-40855000D02*
X51645000Y-40855000D01*
X50200000Y-64255000D02*
X51545000Y-64255000D01*
D17*
X50342500Y-79932500D02*
X50250000Y-79840000D01*
D18*
X51545000Y-64255000D02*
X51600000Y-64200000D01*
D17*
X51500000Y-56365000D02*
X52032500Y-56365000D01*
D18*
X50250000Y-76030000D02*
X51470000Y-76030000D01*
D17*
X52100000Y-68132500D02*
X51500000Y-68132500D01*
X51500000Y-68132500D02*
X50267500Y-68132500D01*
D18*
X67960000Y-56540000D02*
X78994200Y-45505800D01*
D17*
X52032500Y-56365000D02*
X52100000Y-56432500D01*
D18*
X80033400Y-43805000D02*
X82712000Y-43805000D01*
D19*
%TO.N,/Out_8-*%
X40185793Y-63482399D02*
X40185793Y-63820000D01*
X38985793Y-63482399D02*
X38985793Y-63820000D01*
X42378350Y-63431650D02*
X42750000Y-63431650D01*
X38145793Y-63242423D02*
X38025793Y-63242423D01*
X41750000Y-64060000D02*
X41025793Y-64060000D01*
X39945793Y-64060000D02*
X39825793Y-64060000D01*
X38385793Y-63820000D02*
X38385793Y-63482423D01*
X38745793Y-64060000D02*
X38625793Y-64060000D01*
X44248382Y-64060000D02*
X44443382Y-64255000D01*
X40785793Y-63820000D02*
X40785793Y-63482399D01*
X37785793Y-63482423D02*
X37785793Y-63820000D01*
X39345793Y-63242399D02*
X39225793Y-63242399D01*
X40545793Y-63242399D02*
X40425793Y-63242399D01*
X36852304Y-64060000D02*
X37545793Y-64060000D01*
X43378350Y-64060000D02*
X44248382Y-64060000D01*
X39585793Y-63820000D02*
X39585793Y-63482399D01*
X41025793Y-64060000D02*
G75*
G02*
X40785800Y-63820000I7J240000D01*
G01*
X41750000Y-64060000D02*
G75*
G03*
X41900300Y-63909655I0J150300D01*
G01*
X39825793Y-64060000D02*
G75*
G02*
X39585800Y-63820000I7J240000D01*
G01*
X38625793Y-64060000D02*
G75*
G02*
X38385800Y-63820000I7J240000D01*
G01*
X40425793Y-63242399D02*
G75*
G03*
X40185799Y-63482399I7J-240001D01*
G01*
X37785793Y-63820000D02*
G75*
G02*
X37545793Y-64059993I-239993J0D01*
G01*
X39225793Y-63242399D02*
G75*
G03*
X38985799Y-63482399I7J-240001D01*
G01*
X38985793Y-63820000D02*
G75*
G02*
X38745793Y-64059993I-239993J0D01*
G01*
X43228005Y-63909655D02*
G75*
G03*
X43378350Y-64059995I150295J-45D01*
G01*
X39585793Y-63482399D02*
G75*
G03*
X39345793Y-63242407I-239993J-1D01*
G01*
X42750000Y-63431650D02*
G75*
G02*
X43228050Y-63909655I0J-478050D01*
G01*
X40185793Y-63820000D02*
G75*
G02*
X39945793Y-64059993I-239993J0D01*
G01*
X38025793Y-63242423D02*
G75*
G03*
X37785823Y-63482423I7J-239977D01*
G01*
X38385793Y-63482423D02*
G75*
G03*
X38145793Y-63242407I-239993J23D01*
G01*
X41900345Y-63909655D02*
G75*
G02*
X42378350Y-63431745I477955J-45D01*
G01*
X40785793Y-63482399D02*
G75*
G03*
X40545793Y-63242407I-239993J-1D01*
G01*
%TO.N,/Out_5+*%
X43762499Y-55095000D02*
X43291329Y-55566170D01*
X35838494Y-55349970D02*
X35076124Y-56112340D01*
X36741506Y-55349970D02*
X35838494Y-55349970D01*
X42553050Y-56263120D02*
X42250000Y-56263120D01*
X39094394Y-55566170D02*
X38548224Y-56112340D01*
X37380030Y-55988494D02*
X36741506Y-55349970D01*
X43291329Y-55566170D02*
X43250000Y-55566170D01*
X45225000Y-55095000D02*
X43762499Y-55095000D01*
X38548224Y-56112340D02*
X37380030Y-56112340D01*
X35076124Y-56112340D02*
X34077660Y-56112340D01*
X39094394Y-55566170D02*
X41553050Y-55566170D01*
X37380030Y-56112340D02*
X37380030Y-55988494D01*
X42065355Y-56078475D02*
G75*
G03*
X41553050Y-55566145I-512355J-25D01*
G01*
X42737695Y-56078475D02*
G75*
G02*
X42553050Y-56263095I-184595J-25D01*
G01*
X43250000Y-55566170D02*
G75*
G03*
X42737670Y-56078475I0J-512330D01*
G01*
X42250000Y-56263120D02*
G75*
G02*
X42065380Y-56078475I0J184620D01*
G01*
%TO.N,/Out_1-*%
X41650000Y-46280000D02*
X41951692Y-46280000D01*
X40930000Y-47093054D02*
X41050000Y-47093054D01*
X39730000Y-47093060D02*
X39850000Y-47093060D01*
X40090000Y-46853060D02*
X40090000Y-46520000D01*
X42913830Y-45317862D02*
X42913830Y-44567862D01*
X41951692Y-46280000D02*
X42725846Y-45505846D01*
X43759031Y-43722661D02*
X44021919Y-43722661D01*
X41530000Y-46280000D02*
X41650000Y-46280000D01*
X44495030Y-43935030D02*
X45225000Y-44665000D01*
X42913830Y-44567862D02*
X43759031Y-43722661D01*
X39490000Y-46520000D02*
X39490000Y-46853060D01*
X36290000Y-46280000D02*
X39250000Y-46280000D01*
X44021919Y-43722661D02*
X44234288Y-43935030D01*
X44234288Y-43935030D02*
X44495030Y-43935030D01*
X40330000Y-46280000D02*
X40450000Y-46280000D01*
X41290000Y-46853054D02*
X41290000Y-46520000D01*
X40690000Y-46520000D02*
X40690000Y-46853054D01*
X42725846Y-45505846D02*
X42913830Y-45317862D01*
X40090000Y-46520000D02*
G75*
G02*
X40330000Y-46280000I240000J0D01*
G01*
X39490000Y-46853060D02*
G75*
G03*
X39730000Y-47093100I240000J-40D01*
G01*
X40690000Y-46853054D02*
G75*
G03*
X40930000Y-47093100I240000J-46D01*
G01*
X39850000Y-47093060D02*
G75*
G03*
X40089960Y-46853060I0J239960D01*
G01*
X39250000Y-46280000D02*
G75*
G02*
X39490000Y-46520000I0J-240000D01*
G01*
X40450000Y-46280000D02*
G75*
G02*
X40690000Y-46520000I0J-240000D01*
G01*
X41050000Y-47093054D02*
G75*
G03*
X41289954Y-46853054I0J239954D01*
G01*
X41290000Y-46520000D02*
G75*
G02*
X41530000Y-46280000I240000J0D01*
G01*
%TO.N,/Out_14-*%
X42213036Y-82096170D02*
X42213036Y-81784954D01*
X39163830Y-80682138D02*
X38817862Y-80336170D01*
X38817862Y-80336170D02*
X37817862Y-80336170D01*
X41973036Y-81544954D02*
X41853036Y-81544954D01*
X37817862Y-80336170D02*
X36781692Y-79300000D01*
X40177189Y-82336170D02*
X41373036Y-82336170D01*
X44570030Y-81839970D02*
X44309288Y-81839970D01*
X44084970Y-82325030D02*
X44073830Y-82336170D01*
X42573036Y-82336170D02*
X42453036Y-82336170D01*
X43413036Y-82096170D02*
X43413036Y-81784951D01*
X41613036Y-81784954D02*
X41613036Y-82096170D01*
X43173036Y-81544951D02*
X43053036Y-81544951D01*
X39163830Y-81322811D02*
X40177189Y-82336170D01*
X42813036Y-81784951D02*
X42813036Y-82096170D01*
X44309288Y-81839970D02*
X44084970Y-82064288D01*
X39163830Y-81322811D02*
X39163830Y-80682138D01*
X44073830Y-82336170D02*
X43653036Y-82336170D01*
X44084970Y-82064288D02*
X44084970Y-82325030D01*
X45300000Y-81110000D02*
X44570030Y-81839970D01*
X42453036Y-82336170D02*
G75*
G02*
X42213030Y-82096170I-36J239970D01*
G01*
X41613036Y-82096170D02*
G75*
G02*
X41373036Y-82336236I-240036J-30D01*
G01*
X43413036Y-81784951D02*
G75*
G03*
X43173036Y-81544864I-240036J51D01*
G01*
X43053036Y-81544951D02*
G75*
G03*
X42813051Y-81784951I-36J-239949D01*
G01*
X43653036Y-82336170D02*
G75*
G02*
X43413030Y-82096170I-36J239970D01*
G01*
X41853036Y-81544954D02*
G75*
G03*
X41612954Y-81784954I-36J-240046D01*
G01*
X42213036Y-81784954D02*
G75*
G03*
X41973036Y-81544964I-240036J-46D01*
G01*
X42813036Y-82096170D02*
G75*
G02*
X42573036Y-82336236I-240036J-30D01*
G01*
%TO.N,/Out_11-*%
X39778377Y-71920000D02*
X39778377Y-72302816D01*
X42139171Y-72010851D02*
X42139171Y-71916170D01*
X44034970Y-71929970D02*
X43785000Y-71680000D01*
X43466831Y-71916170D02*
X43466831Y-72010851D01*
X40378377Y-72302841D02*
X40378377Y-71920000D01*
X45250000Y-73145000D02*
X44520030Y-72415030D01*
X40978377Y-71920000D02*
X40978377Y-72302841D01*
X42903001Y-72574681D02*
X42703001Y-72574681D01*
X44034970Y-72190712D02*
X44034970Y-71929970D01*
X44259288Y-72415030D02*
X44034970Y-72190712D01*
X39178377Y-72302816D02*
X39178377Y-71920000D01*
X40138377Y-71680000D02*
X40018377Y-71680000D01*
X40738377Y-72542841D02*
X40618377Y-72542841D01*
X36290000Y-71680000D02*
X38938377Y-71680000D01*
X41218377Y-71680000D02*
X41903001Y-71680000D01*
X39538377Y-72542816D02*
X39418377Y-72542816D01*
X44520030Y-72415030D02*
X44259288Y-72415030D01*
X43785000Y-71680000D02*
X43703001Y-71680000D01*
X40018377Y-71680000D02*
G75*
G03*
X39778400Y-71920000I23J-240000D01*
G01*
X43703001Y-71680000D02*
G75*
G03*
X43466800Y-71916170I-1J-236200D01*
G01*
X42703001Y-72574681D02*
G75*
G02*
X42139219Y-72010851I-1J563781D01*
G01*
X41218377Y-71680000D02*
G75*
G03*
X40978400Y-71920000I23J-240000D01*
G01*
X40378377Y-71920000D02*
G75*
G03*
X40138377Y-71680023I-239977J0D01*
G01*
X40978377Y-72302841D02*
G75*
G02*
X40738377Y-72542777I-239977J41D01*
G01*
X40618377Y-72542841D02*
G75*
G02*
X40378359Y-72302841I23J240041D01*
G01*
X39178377Y-71920000D02*
G75*
G03*
X38938377Y-71680023I-239977J0D01*
G01*
X43466831Y-72010851D02*
G75*
G02*
X42903001Y-72574731I-563831J-49D01*
G01*
X42139171Y-71916170D02*
G75*
G03*
X41903001Y-71680029I-236171J-30D01*
G01*
X39418377Y-72542816D02*
G75*
G02*
X39178384Y-72302816I23J240016D01*
G01*
X39778377Y-72302816D02*
G75*
G02*
X39538377Y-72542777I-239977J16D01*
G01*
%TO.N,/Out_5-*%
X38488000Y-56440000D02*
X38570000Y-56440000D01*
X39968118Y-55893830D02*
X40050118Y-55893830D01*
X36290000Y-56440000D02*
X37750000Y-56440000D01*
X40050118Y-55893830D02*
X41553050Y-55893830D01*
X38570000Y-56440000D02*
X38683948Y-56440000D01*
X43762499Y-56365000D02*
X43291329Y-55893830D01*
X38683948Y-56440000D02*
X39230118Y-55893830D01*
X43291329Y-55893830D02*
X43250000Y-55893830D01*
X39558118Y-56858941D02*
X39640118Y-56858941D01*
X38324000Y-57241111D02*
X38324000Y-56604000D01*
X42553050Y-56590780D02*
X42250000Y-56590780D01*
X37914000Y-56604000D02*
X37914000Y-57241111D01*
X39804118Y-56694941D02*
X39804118Y-56057830D01*
X38078000Y-57405111D02*
X38160000Y-57405111D01*
X45225000Y-56365000D02*
X43762499Y-56365000D01*
X39394118Y-56057830D02*
X39394118Y-56694941D01*
X39640118Y-56858941D02*
G75*
G03*
X39804141Y-56694941I-18J164041D01*
G01*
X43250000Y-55893830D02*
G75*
G03*
X43065330Y-56078475I0J-184670D01*
G01*
X39394118Y-56694941D02*
G75*
G03*
X39558118Y-56858882I163982J41D01*
G01*
X39804118Y-56057830D02*
G75*
G02*
X39968118Y-55893818I163982J30D01*
G01*
X37914000Y-57241111D02*
G75*
G03*
X38078000Y-57405100I164000J11D01*
G01*
X43065355Y-56078475D02*
G75*
G02*
X42553050Y-56590855I-512355J-25D01*
G01*
X41737695Y-56078475D02*
G75*
G03*
X41553050Y-55893905I-184595J-25D01*
G01*
X37750000Y-56440000D02*
G75*
G02*
X37914000Y-56604000I0J-164000D01*
G01*
X39230118Y-55893830D02*
G75*
G02*
X39394070Y-56057830I-18J-163970D01*
G01*
X38160000Y-57405111D02*
G75*
G03*
X38324011Y-57241111I0J164011D01*
G01*
X38324000Y-56604000D02*
G75*
G02*
X38488000Y-56440000I164000J0D01*
G01*
X42250000Y-56590780D02*
G75*
G02*
X41737720Y-56078475I0J512280D01*
G01*
%TO.N,/Out_7-*%
X39961692Y-61520000D02*
X40507862Y-60973830D01*
X38635692Y-62304087D02*
X38635692Y-61676000D01*
X38401692Y-61520000D02*
X36720855Y-61520000D01*
X39259692Y-61520000D02*
X39181692Y-61520000D01*
X42530849Y-61734310D02*
X42291329Y-61734310D01*
X40507862Y-60973830D02*
X41530849Y-60973830D01*
X39805692Y-61676000D02*
X39805692Y-62304111D01*
X39649692Y-62460111D02*
X39571692Y-62460111D01*
X43762499Y-61445000D02*
X43291329Y-60973830D01*
X39415692Y-62304111D02*
X39415692Y-61676000D01*
X45225000Y-61445000D02*
X43762499Y-61445000D01*
X38869692Y-62460087D02*
X38791692Y-62460087D01*
X38479692Y-61520000D02*
X38401692Y-61520000D01*
X39025692Y-61676000D02*
X39025692Y-62304087D01*
X39025692Y-62304087D02*
G75*
G02*
X38869692Y-62460092I-155992J-13D01*
G01*
X39181692Y-61520000D02*
G75*
G03*
X39025700Y-61676000I8J-156000D01*
G01*
X41747259Y-61190240D02*
G75*
G03*
X41530849Y-60973741I-216459J40D01*
G01*
X39571692Y-62460111D02*
G75*
G02*
X39415689Y-62304111I8J156011D01*
G01*
X38635692Y-61676000D02*
G75*
G03*
X38479692Y-61520008I-155992J0D01*
G01*
X42291329Y-61734310D02*
G75*
G02*
X41747190Y-61190240I-29J544110D01*
G01*
X38791692Y-62460087D02*
G75*
G02*
X38635713Y-62304087I8J155987D01*
G01*
X43291329Y-60973830D02*
G75*
G03*
X43074930Y-61190240I-29J-216370D01*
G01*
X43074919Y-61190240D02*
G75*
G02*
X42530849Y-61734219I-544019J40D01*
G01*
X39415692Y-61676000D02*
G75*
G03*
X39259692Y-61520008I-155992J0D01*
G01*
X39805692Y-62304111D02*
G75*
G02*
X39649692Y-62460092I-155992J11D01*
G01*
X39961692Y-61520000D02*
G75*
G03*
X39805700Y-61676000I8J-156000D01*
G01*
%TO.N,/Out_6+*%
X35076124Y-59307660D02*
X35838494Y-60070030D01*
X37503876Y-59307660D02*
X41500000Y-59307660D01*
X43300000Y-59307660D02*
X44015722Y-59307660D01*
X42063830Y-58743830D02*
X42063830Y-58611789D01*
X42736170Y-58611789D02*
X42736170Y-58743830D01*
X42300000Y-58375619D02*
X42500000Y-58375619D01*
X35838494Y-60070030D02*
X36741506Y-60070030D01*
X44015722Y-59307660D02*
X44418382Y-58905000D01*
X36741506Y-60070030D02*
X37503876Y-59307660D01*
X34077660Y-59307660D02*
X35076124Y-59307660D01*
X42500000Y-58375619D02*
G75*
G02*
X42736181Y-58611789I0J-236181D01*
G01*
X42736170Y-58743830D02*
G75*
G03*
X43300000Y-59307630I563830J30D01*
G01*
X41500000Y-59307660D02*
G75*
G03*
X42063860Y-58743830I0J563860D01*
G01*
X42063830Y-58611789D02*
G75*
G02*
X42300000Y-58375630I236170J-11D01*
G01*
%TO.N,/Out_9-*%
X38866186Y-67222841D02*
X38866186Y-66840000D01*
X43785000Y-66600000D02*
X43670139Y-66600000D01*
X39226186Y-67462841D02*
X39106186Y-67462841D01*
X45250000Y-68065000D02*
X44520030Y-67335030D01*
X39826186Y-66600000D02*
X39706186Y-66600000D01*
X43433969Y-66836170D02*
X43433969Y-66930777D01*
X40426186Y-67462816D02*
X40306186Y-67462816D01*
X40666186Y-66840000D02*
X40666186Y-67222816D01*
X40906186Y-66600000D02*
X41870139Y-66600000D01*
X44034970Y-67110712D02*
X44034970Y-66849970D01*
X36290000Y-66600000D02*
X38626186Y-66600000D01*
X39466186Y-66840000D02*
X39466186Y-67222841D01*
X44520030Y-67335030D02*
X44259288Y-67335030D01*
X42870139Y-67494607D02*
X42670139Y-67494607D01*
X44034970Y-66849970D02*
X43785000Y-66600000D01*
X42106309Y-66930777D02*
X42106309Y-66836170D01*
X44259288Y-67335030D02*
X44034970Y-67110712D01*
X40066186Y-67222816D02*
X40066186Y-66840000D01*
X40306186Y-67462816D02*
G75*
G02*
X40066184Y-67222816I14J240016D01*
G01*
X40066186Y-66840000D02*
G75*
G03*
X39826186Y-66600014I-239986J0D01*
G01*
X39106186Y-67462841D02*
G75*
G02*
X38866159Y-67222841I14J240041D01*
G01*
X38866186Y-66840000D02*
G75*
G03*
X38626186Y-66600014I-239986J0D01*
G01*
X40906186Y-66600000D02*
G75*
G03*
X40666200Y-66840000I14J-240000D01*
G01*
X42106309Y-66836170D02*
G75*
G03*
X41870139Y-66599991I-236209J-30D01*
G01*
X39706186Y-66600000D02*
G75*
G03*
X39466200Y-66840000I14J-240000D01*
G01*
X42670139Y-67494607D02*
G75*
G02*
X42106293Y-66930777I-39J563807D01*
G01*
X43433969Y-66930777D02*
G75*
G02*
X42870139Y-67494669I-563869J-23D01*
G01*
X39466186Y-67222841D02*
G75*
G02*
X39226186Y-67462786I-239986J41D01*
G01*
X40666186Y-67222816D02*
G75*
G02*
X40426186Y-67462786I-239986J16D01*
G01*
X43670139Y-66600000D02*
G75*
G03*
X43433900Y-66836170I-39J-236200D01*
G01*
%TO.N,/Out_4+*%
X41942170Y-52835031D02*
X41942170Y-52874000D01*
X36741506Y-54990030D02*
X37380030Y-54351506D01*
X35076124Y-54227660D02*
X35838494Y-54990030D01*
X42422000Y-53353830D02*
X42580000Y-53353830D01*
X41632000Y-52682861D02*
X41790000Y-52682861D01*
X43762499Y-53825000D02*
X45225000Y-53825000D01*
X38877862Y-53353830D02*
X41000000Y-53353830D01*
X34077660Y-54227660D02*
X35076124Y-54227660D01*
X42580000Y-53353830D02*
X43291329Y-53353830D01*
X43291329Y-53353830D02*
X43762499Y-53825000D01*
X38004032Y-54227660D02*
X38877862Y-53353830D01*
X37380030Y-54351506D02*
X37380030Y-54227660D01*
X37380030Y-54227660D02*
X38004032Y-54227660D01*
X35838494Y-54990030D02*
X36741506Y-54990030D01*
X41479830Y-52874000D02*
X41479830Y-52835031D01*
X41790000Y-52682861D02*
G75*
G02*
X41942139Y-52835031I0J-152139D01*
G01*
X41479830Y-52835031D02*
G75*
G02*
X41632000Y-52682830I152170J31D01*
G01*
X41942170Y-52874000D02*
G75*
G03*
X42422000Y-53353830I479830J0D01*
G01*
X41000000Y-53353830D02*
G75*
G03*
X41479830Y-52874000I0J479830D01*
G01*
%TO.N,/Out_3+*%
X43086170Y-50432138D02*
X43086170Y-49682138D01*
X34077660Y-51032340D02*
X35076124Y-51032340D01*
X37503876Y-51032340D02*
X42485968Y-51032340D01*
X43086170Y-49682138D02*
X43822138Y-48946170D01*
X36741506Y-50269970D02*
X37503876Y-51032340D01*
X43822138Y-48946170D02*
X44078830Y-48946170D01*
X35076124Y-51032340D02*
X35838494Y-50269970D01*
X44078830Y-48946170D02*
X44550000Y-48475000D01*
X42485968Y-51032340D02*
X43086170Y-50432138D01*
X35838494Y-50269970D02*
X36741506Y-50269970D01*
%TO.N,/Out_0+*%
X42663830Y-42317862D02*
X43327862Y-41653830D01*
X35838494Y-44830030D02*
X36741506Y-44830030D01*
X34077660Y-44067660D02*
X35076124Y-44067660D01*
X42663830Y-43567862D02*
X42663830Y-42317862D01*
X44078830Y-41653830D02*
X44550000Y-42125000D01*
X36741506Y-44830030D02*
X36821536Y-44750000D01*
X41481692Y-44750000D02*
X42663830Y-43567862D01*
X44550000Y-42125000D02*
X45225000Y-42125000D01*
X35076124Y-44067660D02*
X35838494Y-44830030D01*
X36821536Y-44750000D02*
X41481692Y-44750000D01*
X43327862Y-41653830D02*
X44078830Y-41653830D01*
%TO.N,/Out_15-*%
X42747143Y-85192237D02*
X42627143Y-85192237D01*
X41187143Y-84952237D02*
X41187143Y-84688830D01*
X37608308Y-81840000D02*
X38993841Y-83225533D01*
X38892420Y-84175483D02*
X38807567Y-84090630D01*
X38807567Y-83751218D02*
X38993841Y-83564945D01*
X39418107Y-83989211D02*
X39231832Y-84175483D01*
X42147143Y-84448830D02*
X42027143Y-84448830D01*
X40217138Y-84448830D02*
X39757519Y-83989211D01*
X40217138Y-84448830D02*
X40947143Y-84448830D01*
X43366329Y-84448830D02*
X43227143Y-84448830D01*
X37608308Y-81840000D02*
X36290000Y-81840000D01*
X42387143Y-84952237D02*
X42387143Y-84688830D01*
X41787143Y-84688830D02*
X41787143Y-84952237D01*
X45300000Y-84920000D02*
X43837499Y-84920000D01*
X41547143Y-85192237D02*
X41427143Y-85192237D01*
X42987143Y-84688830D02*
X42987143Y-84952237D01*
X43837499Y-84920000D02*
X43366329Y-84448830D01*
X42987143Y-84952237D02*
G75*
G02*
X42747143Y-85192243I-240043J37D01*
G01*
X41427143Y-85192237D02*
G75*
G02*
X41187063Y-84952237I-43J240037D01*
G01*
X41787143Y-84952237D02*
G75*
G02*
X41547143Y-85192243I-240043J37D01*
G01*
X42027143Y-84448830D02*
G75*
G03*
X41787130Y-84688830I-43J-239970D01*
G01*
X38993841Y-83564945D02*
G75*
G03*
X38993880Y-83225494I-169741J169745D01*
G01*
X39231832Y-84175483D02*
G75*
G02*
X38892420Y-84175483I-169706J169701D01*
G01*
X42627143Y-85192237D02*
G75*
G02*
X42387063Y-84952237I-43J240037D01*
G01*
X38807567Y-84090630D02*
G75*
G02*
X38807543Y-83751194I169733J169730D01*
G01*
X42387143Y-84688830D02*
G75*
G03*
X42147143Y-84448757I-240043J30D01*
G01*
X41187143Y-84688830D02*
G75*
G03*
X40947143Y-84448757I-240043J30D01*
G01*
X39757519Y-83989211D02*
G75*
G03*
X39418107Y-83989211I-169706J-169701D01*
G01*
X43227143Y-84448830D02*
G75*
G03*
X42987130Y-84688830I-43J-239970D01*
G01*
%TO.N,/Out_12+*%
X42836170Y-76317862D02*
X43818308Y-77300000D01*
X42700561Y-75413830D02*
X42836170Y-75549439D01*
X43818308Y-77300000D02*
X45300000Y-77300000D01*
X35838494Y-75310030D02*
X36741506Y-75310030D01*
X35076124Y-74547660D02*
X35838494Y-75310030D01*
X42836170Y-75549439D02*
X42836170Y-76317862D01*
X34077660Y-74547660D02*
X35076124Y-74547660D01*
X36741506Y-75310030D02*
X37159922Y-74891614D01*
X37682138Y-75413830D02*
X42700561Y-75413830D01*
X37159922Y-74891614D02*
X37682138Y-75413830D01*
%TO.N,/Out_1+*%
X43623308Y-43395000D02*
X42586170Y-44432138D01*
X41815968Y-45952340D02*
X37503876Y-45952340D01*
X45225000Y-43395000D02*
X43623308Y-43395000D01*
X35076124Y-45952340D02*
X34077660Y-45952340D01*
X36741506Y-45189970D02*
X35838494Y-45189970D01*
X42586170Y-44432138D02*
X42586170Y-45182138D01*
X42586170Y-45182138D02*
X41815968Y-45952340D01*
X35838494Y-45189970D02*
X35076124Y-45952340D01*
X37503876Y-45952340D02*
X36741506Y-45189970D01*
%TO.N,/Out_6-*%
X44234288Y-58364970D02*
X44495030Y-58364970D01*
X40867949Y-58740000D02*
X40867949Y-58357233D01*
X36290000Y-58980000D02*
X38827949Y-58980000D01*
X39667949Y-58740000D02*
X39667949Y-58357233D01*
X39427949Y-58117233D02*
X39307949Y-58117233D01*
X44009970Y-58589288D02*
X44234288Y-58364970D01*
X40627949Y-58117233D02*
X40507949Y-58117233D01*
X41736170Y-58743830D02*
X41736170Y-58611789D01*
X43880000Y-58980000D02*
X44009970Y-58850030D01*
X44009970Y-58850030D02*
X44009970Y-58589288D01*
X41500000Y-58980000D02*
X41107949Y-58980000D01*
X42300000Y-58047959D02*
X42500000Y-58047959D01*
X39067949Y-58357233D02*
X39067949Y-58740000D01*
X43300000Y-58980000D02*
X43880000Y-58980000D01*
X43063830Y-58611789D02*
X43063830Y-58743830D01*
X40267949Y-58357233D02*
X40267949Y-58740000D01*
X40027949Y-58980000D02*
X39907949Y-58980000D01*
X44495030Y-58364970D02*
X45225000Y-57635000D01*
X40867949Y-58357233D02*
G75*
G03*
X40627949Y-58117251I-239949J33D01*
G01*
X40267949Y-58740000D02*
G75*
G02*
X40027949Y-58979949I-239949J0D01*
G01*
X42500000Y-58047959D02*
G75*
G02*
X43063841Y-58611789I0J-563841D01*
G01*
X41500000Y-58980000D02*
G75*
G03*
X41736200Y-58743830I0J236200D01*
G01*
X41107949Y-58980000D02*
G75*
G02*
X40867900Y-58740000I-49J240000D01*
G01*
X41736170Y-58611789D02*
G75*
G02*
X42300000Y-58047970I563830J-11D01*
G01*
X39067949Y-58740000D02*
G75*
G02*
X38827949Y-58979949I-239949J0D01*
G01*
X39307949Y-58117233D02*
G75*
G03*
X39067933Y-58357233I-49J-239967D01*
G01*
X39907949Y-58980000D02*
G75*
G02*
X39667900Y-58740000I-49J240000D01*
G01*
X39667949Y-58357233D02*
G75*
G03*
X39427949Y-58117251I-239949J33D01*
G01*
X43063830Y-58743830D02*
G75*
G03*
X43300000Y-58979970I236170J30D01*
G01*
X40507949Y-58117233D02*
G75*
G03*
X40267933Y-58357233I-49J-239967D01*
G01*
%TO.N,/Out_8+*%
X44520030Y-64795030D02*
X45250000Y-65525000D01*
X36741506Y-65150030D02*
X37503876Y-64387660D01*
X35838494Y-65150030D02*
X36741506Y-65150030D01*
X34077660Y-64387660D02*
X35076124Y-64387660D01*
X42378350Y-63759310D02*
X42750000Y-63759310D01*
X44259288Y-64795030D02*
X44520030Y-64795030D01*
X43378350Y-64387660D02*
X43850881Y-64387660D01*
X43851918Y-64387660D02*
X44259288Y-64795030D01*
X37503876Y-64387660D02*
X41750000Y-64387660D01*
X35076124Y-64387660D02*
X35838494Y-65150030D01*
X43850881Y-64387660D02*
X43851918Y-64387660D01*
X41750000Y-64387660D02*
G75*
G03*
X42227960Y-63909655I0J477960D01*
G01*
X42750000Y-63759310D02*
G75*
G02*
X42900390Y-63909655I0J-150390D01*
G01*
X42900345Y-63909655D02*
G75*
G03*
X43378350Y-64387655I477955J-45D01*
G01*
X42228005Y-63909655D02*
G75*
G02*
X42378350Y-63759405I150295J-45D01*
G01*
%TO.N,/Out_11+*%
X36741506Y-70589970D02*
X35838494Y-70589970D01*
X37503876Y-71352340D02*
X36741506Y-70589970D01*
X43139171Y-71916170D02*
X43139171Y-72010851D01*
X35838494Y-70589970D02*
X35076124Y-71352340D01*
X44443382Y-71875000D02*
X43920722Y-71352340D01*
X42466831Y-72010851D02*
X42466831Y-71916170D01*
X42903001Y-72247021D02*
X42703001Y-72247021D01*
X43920722Y-71352340D02*
X43703001Y-71352340D01*
X37503876Y-71352340D02*
X41903001Y-71352340D01*
X35076124Y-71352340D02*
X34077660Y-71352340D01*
X42466831Y-71916170D02*
G75*
G03*
X41903001Y-71352369I-563831J-30D01*
G01*
X42703001Y-72247021D02*
G75*
G02*
X42466779Y-72010851I-1J236221D01*
G01*
X43703001Y-71352340D02*
G75*
G03*
X43139140Y-71916170I-1J-563860D01*
G01*
X43139171Y-72010851D02*
G75*
G02*
X42903001Y-72246971I-236171J51D01*
G01*
%TO.N,/Out_13-*%
X41887138Y-79368830D02*
X41596954Y-79078646D01*
X45300000Y-79840000D02*
X43837499Y-79840000D01*
X41257542Y-79078646D02*
X41071240Y-79264945D01*
X39038308Y-77000000D02*
X39038308Y-77263456D01*
X38798308Y-77503456D02*
X38678308Y-77503456D01*
X38438308Y-77263456D02*
X38438308Y-77000000D01*
X40731830Y-79264946D02*
X40646977Y-79180093D01*
X43366329Y-79368830D02*
X41887138Y-79368830D01*
X36290000Y-76760000D02*
X38198308Y-76760000D01*
X39798473Y-77992124D02*
X39984747Y-77805851D01*
X40646977Y-78840681D02*
X40833276Y-78654379D01*
X43837499Y-79840000D02*
X43366329Y-79368830D01*
X39278308Y-76760000D02*
X39984747Y-77466439D01*
X39883326Y-78416389D02*
X39798473Y-78331536D01*
X40409013Y-78230117D02*
X40222738Y-78416389D01*
X40833277Y-78314969D02*
X40748425Y-78230117D01*
X40748425Y-78230117D02*
G75*
G03*
X40409013Y-78230117I-169706J-169701D01*
G01*
X39798473Y-78331536D02*
G75*
G02*
X39798443Y-77992094I169727J169736D01*
G01*
X40833276Y-78654379D02*
G75*
G03*
X40833251Y-78314996I-169676J169679D01*
G01*
X38678308Y-77503456D02*
G75*
G02*
X38438344Y-77263456I-8J239956D01*
G01*
X40222738Y-78416389D02*
G75*
G02*
X39883326Y-78416389I-169706J169701D01*
G01*
X41071240Y-79264945D02*
G75*
G02*
X40731796Y-79264981I-169740J169745D01*
G01*
X38438308Y-77000000D02*
G75*
G03*
X38198308Y-76759992I-240008J0D01*
G01*
X39278308Y-76760000D02*
G75*
G03*
X39038300Y-77000000I-8J-240000D01*
G01*
X41596954Y-79078646D02*
G75*
G03*
X41257542Y-79078646I-169706J-169701D01*
G01*
X39984747Y-77805851D02*
G75*
G03*
X39984792Y-77466394I-169747J169751D01*
G01*
X40646977Y-79180093D02*
G75*
G02*
X40646990Y-78840694I169723J169693D01*
G01*
X39038308Y-77263456D02*
G75*
G02*
X38798308Y-77503508I-240008J-44D01*
G01*
%TO.N,/Out_0-*%
X44550000Y-40855000D02*
X44078830Y-41326170D01*
X44078830Y-41326170D02*
X43192138Y-41326170D01*
X42336170Y-43432138D02*
X41345968Y-44422340D01*
X39814331Y-44422340D02*
X39706331Y-44422340D01*
X38626331Y-44422340D02*
X38234589Y-44422340D01*
X40354331Y-43673651D02*
X40246331Y-43673651D01*
X41345968Y-44422340D02*
X40786331Y-44422340D01*
X42336170Y-42182138D02*
X42336170Y-43432138D01*
X40570331Y-44206340D02*
X40570331Y-43889651D01*
X45225000Y-40855000D02*
X44550000Y-40855000D01*
X43192138Y-41326170D02*
X42336170Y-42182138D01*
X39274331Y-43673648D02*
X39166331Y-43673648D01*
X38950331Y-43889648D02*
X38950331Y-44206340D01*
X38234589Y-44422340D02*
X36972340Y-44422340D01*
X38734331Y-44422340D02*
X38626331Y-44422340D01*
X40030331Y-43889651D02*
X40030331Y-44206340D01*
X36972340Y-44422340D02*
X36290000Y-43740000D01*
X39490331Y-44206340D02*
X39490331Y-43889648D01*
X38950331Y-44206340D02*
G75*
G02*
X38734331Y-44422331I-216031J40D01*
G01*
X39706331Y-44422340D02*
G75*
G02*
X39490260Y-44206340I-31J216040D01*
G01*
X40246331Y-43673651D02*
G75*
G03*
X40030251Y-43889651I-31J-216049D01*
G01*
X40786331Y-44422340D02*
G75*
G02*
X40570260Y-44206340I-31J216040D01*
G01*
X40570331Y-43889651D02*
G75*
G03*
X40354331Y-43673669I-216031J-49D01*
G01*
X39166331Y-43673648D02*
G75*
G03*
X38950348Y-43889648I-31J-215952D01*
G01*
X39490331Y-43889648D02*
G75*
G03*
X39274331Y-43673569I-216031J48D01*
G01*
X40030331Y-44206340D02*
G75*
G02*
X39814331Y-44422331I-216031J40D01*
G01*
%TO.N,/Out_3-*%
X38010000Y-51945781D02*
X38010000Y-51600000D01*
X38610000Y-51600000D02*
X38610000Y-51945781D01*
X37650000Y-51360000D02*
X37419175Y-51360000D01*
X38370000Y-52185781D02*
X38250000Y-52185781D01*
X41010000Y-51600000D02*
X41010000Y-51695757D01*
X40410000Y-51695757D02*
X40410000Y-51600000D01*
X39810000Y-51600000D02*
X39810000Y-51745756D01*
X44078830Y-49273830D02*
X43957862Y-49273830D01*
X43413830Y-50567862D02*
X42621692Y-51360000D01*
X43413830Y-49817862D02*
X43413830Y-50567862D01*
X37419175Y-51360000D02*
X36290000Y-51360000D01*
X40770000Y-51935757D02*
X40650000Y-51935757D01*
X44550000Y-49745000D02*
X44078830Y-49273830D01*
X43957862Y-49273830D02*
X43413830Y-49817862D01*
X38970000Y-51360000D02*
X38850000Y-51360000D01*
X42621692Y-51360000D02*
X41250000Y-51360000D01*
X40170000Y-51360000D02*
X40050000Y-51360000D01*
X39570000Y-51985756D02*
X39450000Y-51985756D01*
X37770000Y-51360000D02*
X37650000Y-51360000D01*
X39210000Y-51745756D02*
X39210000Y-51600000D01*
X38010000Y-51600000D02*
G75*
G03*
X37770000Y-51360000I-240000J0D01*
G01*
X40650000Y-51935757D02*
G75*
G02*
X40410043Y-51695757I0J239957D01*
G01*
X39210000Y-51600000D02*
G75*
G03*
X38970000Y-51360000I-240000J0D01*
G01*
X38850000Y-51360000D02*
G75*
G03*
X38610000Y-51600000I0J-240000D01*
G01*
X38610000Y-51945781D02*
G75*
G02*
X38370000Y-52185800I-240000J-19D01*
G01*
X38250000Y-52185781D02*
G75*
G02*
X38010019Y-51945781I0J239981D01*
G01*
X41010000Y-51695757D02*
G75*
G02*
X40770000Y-51935800I-240000J-43D01*
G01*
X39450000Y-51985756D02*
G75*
G02*
X39210044Y-51745756I0J239956D01*
G01*
X40050000Y-51360000D02*
G75*
G03*
X39810000Y-51600000I0J-240000D01*
G01*
X39810000Y-51745756D02*
G75*
G02*
X39570000Y-51985800I-240000J-44D01*
G01*
X40410000Y-51600000D02*
G75*
G03*
X40170000Y-51360000I-240000J0D01*
G01*
X41250000Y-51360000D02*
G75*
G03*
X41010000Y-51600000I0J-240000D01*
G01*
%TO.N,/Out_4-*%
X43762499Y-52555000D02*
X43835846Y-52555000D01*
X38742138Y-53026170D02*
X39182138Y-53026170D01*
X39728138Y-52699731D02*
X39728138Y-52870170D01*
X40118138Y-52870170D02*
X40118138Y-52599700D01*
X39494138Y-52543731D02*
X39572138Y-52543731D01*
X43835846Y-52555000D02*
X45225000Y-52555000D01*
X43291329Y-53026170D02*
X43762499Y-52555000D01*
X40508138Y-52599700D02*
X40508138Y-52870170D01*
X42269830Y-52835031D02*
X42269830Y-52874000D01*
X41152170Y-52874000D02*
X41152170Y-52835031D01*
X36290000Y-53900000D02*
X37518938Y-53900000D01*
X40664138Y-53026170D02*
X40742138Y-53026170D01*
X39338138Y-52870170D02*
X39338138Y-52699731D01*
X39884138Y-53026170D02*
X39962138Y-53026170D01*
X41632000Y-52355201D02*
X41790000Y-52355201D01*
X37868309Y-53679382D02*
X37535638Y-53346711D01*
X40742138Y-53026170D02*
X41000000Y-53026170D01*
X37518938Y-53900000D02*
X37868308Y-53900000D01*
X38419853Y-53348456D02*
X38730979Y-53037329D01*
X42580000Y-53026170D02*
X43291329Y-53026170D01*
X37811411Y-53070938D02*
X38144083Y-53403610D01*
X38364701Y-53403610D02*
X38419853Y-53348456D01*
X40274138Y-52443700D02*
X40352138Y-52443700D01*
X37535638Y-53126093D02*
X37590793Y-53070939D01*
X38730979Y-53037329D02*
X38742138Y-53026170D01*
X42422000Y-53026170D02*
X42580000Y-53026170D01*
X41152170Y-52835031D02*
G75*
G02*
X41632000Y-52355170I479830J31D01*
G01*
X37868308Y-53900000D02*
G75*
G03*
X37868300Y-53679392I-110308J110300D01*
G01*
X40352138Y-52443700D02*
G75*
G02*
X40508100Y-52599700I-38J-156000D01*
G01*
X39182138Y-53026170D02*
G75*
G03*
X39338070Y-52870170I-38J155970D01*
G01*
X39962138Y-53026170D02*
G75*
G03*
X40118070Y-52870170I-38J155970D01*
G01*
X39572138Y-52543731D02*
G75*
G02*
X39728069Y-52699731I-38J-155969D01*
G01*
X39338138Y-52699731D02*
G75*
G02*
X39494138Y-52543738I155962J31D01*
G01*
X37535638Y-53346711D02*
G75*
G02*
X37535636Y-53126091I110262J110311D01*
G01*
X37590793Y-53070939D02*
G75*
G02*
X37811409Y-53070941I110307J-110361D01*
G01*
X41790000Y-52355201D02*
G75*
G02*
X42269799Y-52835031I0J-479799D01*
G01*
X40508138Y-52870170D02*
G75*
G03*
X40664138Y-53026162I155962J-30D01*
G01*
X40118138Y-52599700D02*
G75*
G02*
X40274138Y-52443738I155962J0D01*
G01*
X38144083Y-53403610D02*
G75*
G03*
X38364701Y-53403610I110309J110311D01*
G01*
X41000000Y-53026170D02*
G75*
G03*
X41152170Y-52874000I0J152170D01*
G01*
X39728138Y-52870170D02*
G75*
G03*
X39884138Y-53026162I155962J-30D01*
G01*
X42269830Y-52874000D02*
G75*
G03*
X42422000Y-53026170I152170J0D01*
G01*
%TO.N,/Out_10-*%
X38370000Y-68324473D02*
X38250000Y-68324473D01*
X39570000Y-68324473D02*
X39450000Y-68324473D01*
X38970000Y-69140000D02*
X38850000Y-69140000D01*
X40170000Y-69140000D02*
X40050000Y-69140000D01*
X38610000Y-68900000D02*
X38610000Y-68564473D01*
X40410000Y-68564473D02*
X40410000Y-68900000D01*
X41780567Y-69140000D02*
X41250000Y-69140000D01*
X38010000Y-68564473D02*
X38010000Y-68900000D01*
X41010000Y-68900000D02*
X41010000Y-68564473D01*
X40770000Y-68324473D02*
X40650000Y-68324473D01*
X39810000Y-68900000D02*
X39810000Y-68564473D01*
X42475577Y-68444990D02*
X42780567Y-68444990D01*
X43475577Y-69140000D02*
X44248382Y-69140000D01*
X36290000Y-69140000D02*
X37770000Y-69140000D01*
X39210000Y-68564473D02*
X39210000Y-68900000D01*
X44248382Y-69140000D02*
X44443382Y-69335000D01*
X41964242Y-68956325D02*
G75*
G02*
X42475577Y-68444942I511358J25D01*
G01*
X38610000Y-68564473D02*
G75*
G03*
X38370000Y-68324500I-240000J-27D01*
G01*
X38850000Y-69140000D02*
G75*
G02*
X38610000Y-68900000I0J240000D01*
G01*
X40410000Y-68900000D02*
G75*
G02*
X40170000Y-69140000I-240000J0D01*
G01*
X39810000Y-68564473D02*
G75*
G03*
X39570000Y-68324500I-240000J-27D01*
G01*
X42780567Y-68444990D02*
G75*
G02*
X43291910Y-68956325I33J-511310D01*
G01*
X39450000Y-68324473D02*
G75*
G03*
X39209973Y-68564473I0J-240027D01*
G01*
X43291902Y-68956325D02*
G75*
G03*
X43475577Y-69139998I183698J25D01*
G01*
X38250000Y-68324473D02*
G75*
G03*
X38009973Y-68564473I0J-240027D01*
G01*
X40050000Y-69140000D02*
G75*
G02*
X39810000Y-68900000I0J240000D01*
G01*
X41250000Y-69140000D02*
G75*
G02*
X41010000Y-68900000I0J240000D01*
G01*
X39210000Y-68900000D02*
G75*
G02*
X38970000Y-69140000I-240000J0D01*
G01*
X41010000Y-68564473D02*
G75*
G03*
X40770000Y-68324500I-240000J-27D01*
G01*
X41780567Y-69140000D02*
G75*
G03*
X41964300Y-68956325I33J183700D01*
G01*
X40650000Y-68324473D02*
G75*
G03*
X40409973Y-68564473I0J-240027D01*
G01*
X38010000Y-68900000D02*
G75*
G02*
X37770000Y-69140000I-240000J0D01*
G01*
%TO.N,/Out_15+*%
X35076124Y-81512340D02*
X35838494Y-80749970D01*
X34077660Y-81512340D02*
X35076124Y-81512340D01*
X43837499Y-83650000D02*
X45300000Y-83650000D01*
X43366329Y-84121170D02*
X43837499Y-83650000D01*
X40352862Y-84121170D02*
X43366329Y-84121170D01*
X36741506Y-80749970D02*
X37503876Y-81512340D01*
X37744032Y-81512340D02*
X40352862Y-84121170D01*
X35838494Y-80749970D02*
X36741506Y-80749970D01*
X37503876Y-81512340D02*
X37744032Y-81512340D01*
%TO.N,/Out_2+*%
X44247862Y-46733830D02*
X44753830Y-46733830D01*
X37503876Y-49147660D02*
X42334032Y-49147660D01*
X35076124Y-49147660D02*
X35838494Y-49910030D01*
X43663830Y-47817862D02*
X43663830Y-47317862D01*
X43663830Y-47317862D02*
X44247862Y-46733830D01*
X34077660Y-49147660D02*
X35076124Y-49147660D01*
X42334032Y-49147660D02*
X43663830Y-47817862D01*
X35838494Y-49910030D02*
X36741506Y-49910030D01*
X44753830Y-46733830D02*
X45225000Y-47205000D01*
X36741506Y-49910030D02*
X37503876Y-49147660D01*
%TO.N,/Out_9+*%
X36741506Y-65509970D02*
X35838494Y-65509970D01*
X42433969Y-66930777D02*
X42433969Y-66836170D01*
X42870139Y-67166947D02*
X42670139Y-67166947D01*
X43920722Y-66272340D02*
X43670139Y-66272340D01*
X37503876Y-66272340D02*
X36741506Y-65509970D01*
X35838494Y-65509970D02*
X35076124Y-66272340D01*
X37503876Y-66272340D02*
X41870139Y-66272340D01*
X44443382Y-66795000D02*
X43920722Y-66272340D01*
X35076124Y-66272340D02*
X34077660Y-66272340D01*
X43106309Y-66836170D02*
X43106309Y-66930777D01*
X43106309Y-66930777D02*
G75*
G02*
X42870139Y-67167009I-236209J-23D01*
G01*
X42670139Y-67166947D02*
G75*
G02*
X42433953Y-66930777I-39J236147D01*
G01*
X43670139Y-66272340D02*
G75*
G03*
X43106240Y-66836170I-39J-563860D01*
G01*
X42433969Y-66836170D02*
G75*
G03*
X41870139Y-66272331I-563869J-30D01*
G01*
%TO.N,/Out_10+*%
X34077660Y-69467660D02*
X35076124Y-69467660D01*
X35838494Y-70230030D02*
X36741506Y-70230030D01*
X35076124Y-69467660D02*
X35838494Y-70230030D01*
X44259288Y-69875030D02*
X44520030Y-69875030D01*
X43851918Y-69467660D02*
X44259288Y-69875030D01*
X43780567Y-69467660D02*
X43851918Y-69467660D01*
X36741506Y-70230030D02*
X37503876Y-69467660D01*
X43475577Y-69467660D02*
X43780567Y-69467660D01*
X37503876Y-69467660D02*
X41780567Y-69467660D01*
X42475577Y-68772650D02*
X42780567Y-68772650D01*
X44520030Y-69875030D02*
X45250000Y-70605000D01*
X42291902Y-68956325D02*
G75*
G02*
X42475577Y-68772602I183698J25D01*
G01*
X42964242Y-68956325D02*
G75*
G03*
X43475577Y-69467658I511358J25D01*
G01*
X42780567Y-68772650D02*
G75*
G02*
X42964250Y-68956325I33J-183650D01*
G01*
X41780567Y-69467660D02*
G75*
G03*
X42291960Y-68956325I33J511360D01*
G01*
%TO.N,/Out_14+*%
X37682138Y-80663830D02*
X38682138Y-80663830D01*
X40041465Y-82663830D02*
X44209552Y-82663830D01*
X37074922Y-80056614D02*
X37682138Y-80663830D01*
X36741506Y-80390030D02*
X37074922Y-80056614D01*
X44209552Y-82663830D02*
X44493382Y-82380000D01*
X35838494Y-80390030D02*
X36741506Y-80390030D01*
X34077660Y-79627660D02*
X35076124Y-79627660D01*
X35076124Y-79627660D02*
X35838494Y-80390030D01*
X38836170Y-80817862D02*
X38836170Y-81458535D01*
X38836170Y-81458535D02*
X40041465Y-82663830D01*
X38682138Y-80663830D02*
X38836170Y-80817862D01*
%TO.N,/Out_13+*%
X43837499Y-78570000D02*
X45300000Y-78570000D01*
X42022862Y-79041170D02*
X43366329Y-79041170D01*
X37503876Y-76432340D02*
X39414032Y-76432340D01*
X35838494Y-75669970D02*
X36741506Y-75669970D01*
X36741506Y-75669970D02*
X37503876Y-76432340D01*
X39414032Y-76432340D02*
X42022862Y-79041170D01*
X43366329Y-79041170D02*
X43837499Y-78570000D01*
X34077660Y-76432340D02*
X35076124Y-76432340D01*
X35076124Y-76432340D02*
X35838494Y-75669970D01*
%TO.N,/Out_7+*%
X35838494Y-60429970D02*
X35076124Y-61192340D01*
X40372138Y-60646170D02*
X41530849Y-60646170D01*
X42530849Y-61406650D02*
X42291329Y-61406650D01*
X43762499Y-60175000D02*
X43291329Y-60646170D01*
X45225000Y-60175000D02*
X43762499Y-60175000D01*
X36741506Y-60429970D02*
X35838494Y-60429970D01*
X39825968Y-61192340D02*
X37503876Y-61192340D01*
X37503876Y-61192340D02*
X36741506Y-60429970D01*
X35076124Y-61192340D02*
X34077660Y-61192340D01*
X40372138Y-60646170D02*
X39825968Y-61192340D01*
X42291329Y-61406650D02*
G75*
G02*
X42074850Y-61190240I-29J216450D01*
G01*
X42074919Y-61190240D02*
G75*
G03*
X41530849Y-60646181I-544019J40D01*
G01*
X43291329Y-60646170D02*
G75*
G03*
X42747270Y-61190240I-29J-544030D01*
G01*
X42747259Y-61190240D02*
G75*
G02*
X42530849Y-61406659I-216459J40D01*
G01*
%TO.N,/Out_2-*%
X39327385Y-47909357D02*
X39447385Y-47909357D01*
X38127385Y-47909382D02*
X38247385Y-47909382D01*
X39927385Y-48820000D02*
X40047385Y-48820000D01*
X42198308Y-48820000D02*
X43336170Y-47682138D01*
X40047385Y-48820000D02*
X41250000Y-48820000D01*
X38727385Y-48820000D02*
X38847385Y-48820000D01*
X39087385Y-48580000D02*
X39087385Y-48149357D01*
X36290000Y-48820000D02*
X37647385Y-48820000D01*
X43336170Y-47182138D02*
X44112138Y-46406170D01*
X44753830Y-46406170D02*
X45225000Y-45935000D01*
X38487385Y-48149382D02*
X38487385Y-48580000D01*
X39687385Y-48149357D02*
X39687385Y-48580000D01*
X44112138Y-46406170D02*
X44753830Y-46406170D01*
X43336170Y-47682138D02*
X43336170Y-47182138D01*
X37887385Y-48580000D02*
X37887385Y-48149382D01*
X41250000Y-48820000D02*
X42198308Y-48820000D01*
X38847385Y-48820000D02*
G75*
G03*
X39087400Y-48580000I15J240000D01*
G01*
X39687385Y-48580000D02*
G75*
G03*
X39927385Y-48820015I240015J0D01*
G01*
X38247385Y-47909382D02*
G75*
G02*
X38487418Y-48149382I15J-240018D01*
G01*
X39087385Y-48149357D02*
G75*
G02*
X39327385Y-47909385I240015J-43D01*
G01*
X37887385Y-48149382D02*
G75*
G02*
X38127385Y-47909385I240015J-18D01*
G01*
X38487385Y-48580000D02*
G75*
G03*
X38727385Y-48820015I240015J0D01*
G01*
X39447385Y-47909357D02*
G75*
G02*
X39687443Y-48149357I15J-240043D01*
G01*
X37647385Y-48820000D02*
G75*
G03*
X37887400Y-48580000I15J240000D01*
G01*
%TO.N,/Out_12-*%
X43163830Y-75413715D02*
X42836285Y-75086170D01*
X44570030Y-76759970D02*
X44309288Y-76759970D01*
X37817862Y-75086170D02*
X40302155Y-75086170D01*
X41502155Y-75086170D02*
X41382155Y-75086170D01*
X40902155Y-74229384D02*
X40782155Y-74229384D01*
X37817862Y-75086170D02*
X36951692Y-74220000D01*
X42342155Y-74846170D02*
X42342155Y-74469409D01*
X45300000Y-76030000D02*
X44570030Y-76759970D01*
X41742155Y-74469409D02*
X41742155Y-74846170D01*
X42836285Y-75086170D02*
X42582155Y-75086170D01*
X41142155Y-74846170D02*
X41142155Y-74469384D01*
X43163830Y-76182138D02*
X43163830Y-75413715D01*
X42102155Y-74229409D02*
X41982155Y-74229409D01*
X40542155Y-74469384D02*
X40542155Y-74846170D01*
X44309288Y-76759970D02*
X44096919Y-76972339D01*
X44096919Y-76972339D02*
X43954031Y-76972339D01*
X43954031Y-76972339D02*
X43163830Y-76182138D01*
X40782155Y-74229384D02*
G75*
G03*
X40542184Y-74469384I45J-240016D01*
G01*
X41382155Y-75086170D02*
G75*
G02*
X41142230Y-74846170I45J239970D01*
G01*
X41982155Y-74229409D02*
G75*
G03*
X41742209Y-74469409I45J-239991D01*
G01*
X40542155Y-74846170D02*
G75*
G02*
X40302155Y-75086155I-239955J-30D01*
G01*
X42582155Y-75086170D02*
G75*
G02*
X42342230Y-74846170I45J239970D01*
G01*
X41742155Y-74846170D02*
G75*
G02*
X41502155Y-75086155I-239955J-30D01*
G01*
X41142155Y-74469384D02*
G75*
G03*
X40902155Y-74229445I-239955J-16D01*
G01*
X42342155Y-74469409D02*
G75*
G03*
X42102155Y-74229445I-239955J9D01*
G01*
D20*
%TO.N,/D7*%
X59658429Y-61585000D02*
X59693429Y-61620000D01*
X57350384Y-61585000D02*
X57502784Y-61585000D01*
X59250000Y-61585000D02*
X59658429Y-61585000D01*
X59693429Y-61620000D02*
X62750000Y-61620000D01*
X56283584Y-61018634D02*
X56283584Y-61280200D01*
X52675000Y-60175000D02*
X54085000Y-61585000D01*
X56283584Y-61280200D02*
X56283584Y-62101388D01*
X56588384Y-62406188D02*
X56740784Y-62406188D01*
X55826384Y-60713834D02*
X55978784Y-60713834D01*
X55521584Y-61280200D02*
X55521584Y-61018634D01*
X54085000Y-61585000D02*
X55216784Y-61585000D01*
X50175000Y-60175000D02*
X52675000Y-60175000D01*
X57045584Y-62101388D02*
X57045584Y-61889800D01*
X57502784Y-61585000D02*
X59250000Y-61585000D01*
X55978784Y-60713834D02*
G75*
G02*
X56283566Y-61018634I16J-304766D01*
G01*
X56283584Y-62101388D02*
G75*
G03*
X56588384Y-62406216I304816J-12D01*
G01*
X56740784Y-62406188D02*
G75*
G03*
X57045588Y-62101388I16J304788D01*
G01*
X55521584Y-61018634D02*
G75*
G02*
X55826384Y-60713784I304816J34D01*
G01*
X57045584Y-61889800D02*
G75*
G02*
X57350384Y-61584984I304816J0D01*
G01*
X55216784Y-61585000D02*
G75*
G03*
X55521600Y-61280200I16J304800D01*
G01*
%TO.N,/D3*%
X55295307Y-48281272D02*
X55295307Y-48475000D01*
X56057307Y-48475000D02*
X56057307Y-47890027D01*
X56819307Y-47890027D02*
X56819307Y-48475000D01*
X56819307Y-48475000D02*
X56819307Y-48779800D01*
X56057307Y-49059992D02*
X56057307Y-48475000D01*
X56362107Y-47585227D02*
X56514507Y-47585227D01*
X55295307Y-48475000D02*
X55295307Y-49059992D01*
X58038507Y-48475000D02*
X61000000Y-48475000D01*
X56819307Y-48779800D02*
X56819307Y-49059992D01*
X57886107Y-48475000D02*
X58038507Y-48475000D01*
X50175000Y-48475000D02*
X54258307Y-48475000D01*
X57581307Y-49059992D02*
X57581307Y-48779800D01*
X57124107Y-49364792D02*
X57276507Y-49364792D01*
X54645763Y-48087544D02*
X55101579Y-48087544D01*
X55600107Y-49364792D02*
X55752507Y-49364792D01*
X55295307Y-49059992D02*
G75*
G03*
X55600107Y-49364793I304793J-8D01*
G01*
X54258307Y-48475000D02*
G75*
G03*
X54452000Y-48281272I-7J193700D01*
G01*
X57581307Y-48779800D02*
G75*
G02*
X57886107Y-48475007I304793J0D01*
G01*
X55752507Y-49364792D02*
G75*
G03*
X56057292Y-49059992I-7J304792D01*
G01*
X57276507Y-49364792D02*
G75*
G03*
X57581292Y-49059992I-7J304792D01*
G01*
X55101579Y-48087544D02*
G75*
G02*
X55295356Y-48281272I21J-193756D01*
G01*
X56057307Y-47890027D02*
G75*
G02*
X56362107Y-47585207I304793J27D01*
G01*
X56819307Y-49059992D02*
G75*
G03*
X57124107Y-49364793I304793J-8D01*
G01*
X56514507Y-47585227D02*
G75*
G02*
X56819273Y-47890027I-7J-304773D01*
G01*
X54452035Y-48281272D02*
G75*
G02*
X54645763Y-48087535I193765J-28D01*
G01*
%TO.N,/D0*%
X53938898Y-41661103D02*
X53475000Y-42125000D01*
X54176820Y-41423182D02*
X53938898Y-41661103D01*
X55349955Y-41097251D02*
X55024024Y-41423183D01*
X53475000Y-42125000D02*
X53000000Y-42125000D01*
X55138153Y-40461847D02*
X55349955Y-40673649D01*
X53000000Y-42125000D02*
X50175000Y-42125000D01*
X55131616Y-39412500D02*
X54874181Y-39669934D01*
X62715000Y-38725000D02*
X56875000Y-38725000D01*
X56875000Y-38725000D02*
X56187500Y-39412500D01*
X54874181Y-40197875D02*
X55138151Y-40461845D01*
X55138151Y-40461845D02*
X55138153Y-40461847D01*
X54874181Y-39669934D02*
G75*
G03*
X54874185Y-40197871I264019J-263966D01*
G01*
X55349955Y-40673649D02*
G75*
G02*
X55350005Y-41097301I-211755J-211851D01*
G01*
X55024024Y-41423183D02*
G75*
G02*
X54600398Y-41423206I-211824J211783D01*
G01*
X55659558Y-39412500D02*
G75*
G03*
X55131616Y-39412500I-263971J-263972D01*
G01*
X54600422Y-41423182D02*
G75*
G03*
X54176820Y-41423182I-211801J-211800D01*
G01*
X56187500Y-39412500D02*
G75*
G02*
X55659558Y-39412500I-263971J263972D01*
G01*
%TO.N,/D5*%
X55500000Y-55500000D02*
X53232488Y-55500000D01*
X53232488Y-55500000D02*
X52827488Y-55095000D01*
X58445200Y-54269800D02*
X58445200Y-55136755D01*
X58140400Y-55441555D02*
X57988000Y-55441555D01*
X62715000Y-53965000D02*
X58750000Y-53965000D01*
X57226000Y-53965000D02*
X57035000Y-53965000D01*
X57683200Y-55136755D02*
X57683200Y-54269800D01*
X57035000Y-53965000D02*
X55500000Y-55500000D01*
X57378400Y-53965000D02*
X57226000Y-53965000D01*
X52827488Y-55095000D02*
X50175000Y-55095000D01*
X58750000Y-53965000D02*
G75*
G03*
X58445200Y-54269800I0J-304800D01*
G01*
X57683200Y-54269800D02*
G75*
G03*
X57378400Y-53965000I-304800J0D01*
G01*
X57988000Y-55441555D02*
G75*
G02*
X57683245Y-55136755I0J304755D01*
G01*
X58445200Y-55136755D02*
G75*
G02*
X58140400Y-55441600I-304800J-45D01*
G01*
%TO.N,/D1*%
X58106600Y-42227751D02*
X58259000Y-42227751D01*
X57801800Y-40960200D02*
X57801800Y-41922951D01*
X59021000Y-41265000D02*
X62000000Y-41265000D01*
X54605000Y-43395000D02*
X56114911Y-41885089D01*
X58563800Y-41922951D02*
X58563800Y-41569800D01*
X57344600Y-40302234D02*
X57497000Y-40302234D01*
X56689081Y-41310919D02*
X56735000Y-41265000D01*
X56114911Y-41885089D02*
X56689081Y-41310919D01*
X58868600Y-41265000D02*
X59021000Y-41265000D01*
X50175000Y-43395000D02*
X54605000Y-43395000D01*
X57801800Y-40607034D02*
X57801800Y-40960200D01*
X57039800Y-40960200D02*
X57039800Y-40607034D01*
X58259000Y-42227751D02*
G75*
G03*
X58563751Y-41922951I0J304751D01*
G01*
X56735000Y-41265000D02*
G75*
G03*
X57039800Y-40960200I0J304800D01*
G01*
X57039800Y-40607034D02*
G75*
G02*
X57344600Y-40302200I304800J34D01*
G01*
X57497000Y-40302234D02*
G75*
G02*
X57801766Y-40607034I0J-304766D01*
G01*
X57801800Y-41922951D02*
G75*
G03*
X58106600Y-42227800I304800J-49D01*
G01*
X58563800Y-41569800D02*
G75*
G02*
X58868600Y-41265000I304800J0D01*
G01*
%TO.N,/D8*%
X54525000Y-64125000D02*
X54500000Y-64100000D01*
X62750000Y-64160000D02*
X59500000Y-64160000D01*
X56321316Y-64125000D02*
X54525000Y-64125000D01*
X57997716Y-64998282D02*
X57845316Y-64998282D01*
X56778516Y-63606510D02*
X56778516Y-63820200D01*
X58642316Y-64160000D02*
X58607316Y-64125000D01*
X58302516Y-64429800D02*
X58302516Y-64693482D01*
X57540516Y-64429800D02*
X57540516Y-63606510D01*
X52775000Y-65525000D02*
X50200000Y-65525000D01*
X57235716Y-63301710D02*
X57083316Y-63301710D01*
X59500000Y-64160000D02*
X58642316Y-64160000D01*
X54500000Y-64100000D02*
X54200000Y-64100000D01*
X57540516Y-64693482D02*
X57540516Y-64429800D01*
X52969770Y-65330230D02*
X52775000Y-65525000D01*
X54200000Y-64100000D02*
X52969770Y-65330230D01*
X56473716Y-64125000D02*
X56321316Y-64125000D01*
X57540516Y-63606510D02*
G75*
G03*
X57235716Y-63301684I-304816J10D01*
G01*
X58607316Y-64125000D02*
G75*
G03*
X58302500Y-64429800I-16J-304800D01*
G01*
X56778516Y-63820200D02*
G75*
G02*
X56473716Y-64125016I-304816J0D01*
G01*
X57083316Y-63301710D02*
G75*
G03*
X56778510Y-63606510I-16J-304790D01*
G01*
X57845316Y-64998282D02*
G75*
G02*
X57540518Y-64693482I-16J304782D01*
G01*
X58302516Y-64693482D02*
G75*
G02*
X57997716Y-64998316I-304816J-18D01*
G01*
%TO.N,/D10*%
X58969641Y-71745000D02*
X59151641Y-71745000D01*
X57695641Y-71178056D02*
X57695641Y-71381000D01*
X57149641Y-70814056D02*
X57331641Y-70814056D01*
X59151641Y-71745000D02*
X59750000Y-71745000D01*
X59750000Y-71745000D02*
X62715000Y-71745000D01*
X57695641Y-71381000D02*
X57695641Y-72311951D01*
X55005000Y-70605000D02*
X56145000Y-71745000D01*
X50200000Y-70605000D02*
X55005000Y-70605000D01*
X58605641Y-72311951D02*
X58605641Y-72109000D01*
X56145000Y-71745000D02*
X56421641Y-71745000D01*
X58059641Y-72675951D02*
X58241641Y-72675951D01*
X56785641Y-71381000D02*
X56785641Y-71178056D01*
X56785641Y-71178056D02*
G75*
G02*
X57149641Y-70814141I363959J-44D01*
G01*
X57695641Y-72311951D02*
G75*
G03*
X58059641Y-72675959I363959J-49D01*
G01*
X58241641Y-72675951D02*
G75*
G03*
X58605551Y-72311951I-41J363951D01*
G01*
X58605641Y-72109000D02*
G75*
G02*
X58969641Y-71745041I363959J0D01*
G01*
X57331641Y-70814056D02*
G75*
G02*
X57695644Y-71178056I-41J-364044D01*
G01*
X56421641Y-71745000D02*
G75*
G03*
X56785600Y-71381000I-41J364000D01*
G01*
%TO.N,/D12*%
X55546000Y-76019680D02*
X55710000Y-76019680D01*
X53578000Y-76422000D02*
X53578000Y-76347699D01*
X54398000Y-76750000D02*
X54398000Y-77102293D01*
X51547038Y-77300000D02*
X52097038Y-76750000D01*
X55218000Y-76422000D02*
X55218000Y-76347680D01*
X57284822Y-76750000D02*
X62640000Y-76750000D01*
X54726000Y-77430293D02*
X54890000Y-77430293D01*
X55218000Y-77102293D02*
X55218000Y-76750000D01*
X53906000Y-76019699D02*
X54070000Y-76019699D01*
X52097038Y-76750000D02*
X53250000Y-76750000D01*
X54398000Y-76422000D02*
X54398000Y-76750000D01*
X55218000Y-76750000D02*
X55218000Y-76422000D01*
X56038000Y-76347680D02*
X56038000Y-76422000D01*
X50250000Y-77300000D02*
X51547038Y-77300000D01*
X56530000Y-76750000D02*
X57284822Y-76750000D01*
X54398000Y-76347699D02*
X54398000Y-76422000D01*
X56366000Y-76750000D02*
X56530000Y-76750000D01*
X54070000Y-76019699D02*
G75*
G02*
X54398001Y-76347699I0J-328001D01*
G01*
X53250000Y-76750000D02*
G75*
G03*
X53578000Y-76422000I0J328000D01*
G01*
X54398000Y-77102293D02*
G75*
G03*
X54726000Y-77430300I328000J-7D01*
G01*
X53578000Y-76347699D02*
G75*
G02*
X53906000Y-76019700I328000J-1D01*
G01*
X56038000Y-76422000D02*
G75*
G03*
X56366000Y-76750000I328000J0D01*
G01*
X55710000Y-76019680D02*
G75*
G02*
X56038020Y-76347680I0J-328020D01*
G01*
X54890000Y-77430293D02*
G75*
G03*
X55217993Y-77102293I0J327993D01*
G01*
X55218000Y-76347680D02*
G75*
G02*
X55546000Y-76019700I328000J-20D01*
G01*
%TO.N,/D14*%
X56921200Y-83940292D02*
X56921200Y-84140200D01*
X57683200Y-84949689D02*
X57683200Y-84749800D01*
X55945000Y-84445000D02*
X55722500Y-84222500D01*
X53880000Y-82380000D02*
X50250000Y-82380000D01*
X56616400Y-84445000D02*
X56464000Y-84445000D01*
X58445200Y-84749800D02*
X58445200Y-84949689D01*
X55722500Y-84222500D02*
X53880000Y-82380000D01*
X62715000Y-84445000D02*
X58750000Y-84445000D01*
X56464000Y-84445000D02*
X55945000Y-84445000D01*
X58140400Y-85254489D02*
X57988000Y-85254489D01*
X57683200Y-84749800D02*
X57683200Y-83940292D01*
X57378400Y-83635492D02*
X57226000Y-83635492D01*
X58750000Y-84445000D02*
G75*
G03*
X58445200Y-84749800I0J-304800D01*
G01*
X57988000Y-85254489D02*
G75*
G02*
X57683211Y-84949689I0J304789D01*
G01*
X57683200Y-83940292D02*
G75*
G03*
X57378400Y-83635500I-304800J-8D01*
G01*
X58445200Y-84949689D02*
G75*
G02*
X58140400Y-85254500I-304800J-11D01*
G01*
X56921200Y-84140200D02*
G75*
G02*
X56616400Y-84445000I-304800J0D01*
G01*
X57226000Y-83635492D02*
G75*
G03*
X56921192Y-83940292I0J-304808D01*
G01*
%TO.N,/D4*%
X56962000Y-52850250D02*
X57140000Y-52850250D01*
X56606000Y-51781000D02*
X56606000Y-52494250D01*
X55675000Y-51425000D02*
X56250000Y-51425000D01*
X58030000Y-51425000D02*
X59750000Y-51425000D01*
X59750000Y-51425000D02*
X62715000Y-51425000D01*
X53275000Y-53825000D02*
X55675000Y-51425000D01*
X57496000Y-52494250D02*
X57496000Y-51781000D01*
X57852000Y-51425000D02*
X58030000Y-51425000D01*
X50175000Y-53825000D02*
X53275000Y-53825000D01*
X57496000Y-51781000D02*
G75*
G02*
X57852000Y-51425000I356000J0D01*
G01*
X56606000Y-52494250D02*
G75*
G03*
X56962000Y-52850200I356000J50D01*
G01*
X57140000Y-52850250D02*
G75*
G03*
X57496050Y-52494250I0J356050D01*
G01*
X56250000Y-51425000D02*
G75*
G02*
X56606000Y-51781000I0J-356000D01*
G01*
%TO.N,/D15*%
X58013800Y-87358193D02*
X58013800Y-87289800D01*
X55800000Y-86900000D02*
X56100000Y-86900000D01*
X56794600Y-86307026D02*
X56947000Y-86307026D01*
X52550000Y-83650000D02*
X54930692Y-86030692D01*
X54930692Y-86030692D02*
X55800000Y-86900000D01*
X57251800Y-86680200D02*
X57251800Y-87358193D01*
X56489800Y-86680200D02*
X56489800Y-86611826D01*
X58750000Y-86985000D02*
X62715000Y-86985000D01*
X50250000Y-83650000D02*
X52550000Y-83650000D01*
X57556600Y-87662993D02*
X57709000Y-87662993D01*
X58471000Y-86985000D02*
X58750000Y-86985000D01*
X57251800Y-86611826D02*
X57251800Y-86680200D01*
X56100000Y-86900000D02*
X56185000Y-86985000D01*
X58318600Y-86985000D02*
X58471000Y-86985000D01*
X57709000Y-87662993D02*
G75*
G03*
X58013793Y-87358193I0J304793D01*
G01*
X57251800Y-87358193D02*
G75*
G03*
X57556600Y-87663000I304800J-7D01*
G01*
X56489800Y-86611826D02*
G75*
G02*
X56794600Y-86307000I304800J26D01*
G01*
X56947000Y-86307026D02*
G75*
G02*
X57251774Y-86611826I0J-304774D01*
G01*
X58013800Y-87289800D02*
G75*
G02*
X58318600Y-86985000I304800J0D01*
G01*
X56185000Y-86985000D02*
G75*
G03*
X56489800Y-86680200I0J304800D01*
G01*
%TO.N,/D2*%
X58114000Y-47262599D02*
X57960000Y-47262599D01*
X58884000Y-45427420D02*
X58730000Y-45427420D01*
X51330044Y-47205000D02*
X50175000Y-47205000D01*
X58422000Y-45735420D02*
X58422000Y-46037000D01*
X57190000Y-46345000D02*
X55355000Y-46345000D01*
X54495000Y-47205000D02*
X51330044Y-47205000D01*
X57344000Y-46345000D02*
X57190000Y-46345000D01*
X59192000Y-46037000D02*
X59192000Y-45735420D01*
X55355000Y-46345000D02*
X54495000Y-47205000D01*
X62715000Y-46345000D02*
X59500000Y-46345000D01*
X58422000Y-46037000D02*
X58422000Y-46954599D01*
X57652000Y-46954599D02*
X57652000Y-46653000D01*
X59192000Y-45735420D02*
G75*
G03*
X58884000Y-45427400I-308000J20D01*
G01*
X58422000Y-46954599D02*
G75*
G02*
X58114000Y-47262600I-308000J-1D01*
G01*
X58730000Y-45427420D02*
G75*
G03*
X58422020Y-45735420I0J-307980D01*
G01*
X57652000Y-46653000D02*
G75*
G03*
X57344000Y-46345000I-308000J0D01*
G01*
X57960000Y-47262599D02*
G75*
G02*
X57652001Y-46954599I0J307999D01*
G01*
X59500000Y-46345000D02*
G75*
G02*
X59192000Y-46037000I0J308000D01*
G01*
%TO.N,/D11*%
X57181927Y-73519053D02*
X57337927Y-73519053D01*
X53775000Y-71875000D02*
X56185000Y-74285000D01*
X57649927Y-73973000D02*
X57649927Y-74738947D01*
X56869927Y-73973000D02*
X56869927Y-73831053D01*
X50200000Y-71875000D02*
X53775000Y-71875000D01*
X57961927Y-75050947D02*
X58117927Y-75050947D01*
X58897927Y-74285000D02*
X59000000Y-74285000D01*
X57649927Y-73831053D02*
X57649927Y-73973000D01*
X58741927Y-74285000D02*
X58897927Y-74285000D01*
X56185000Y-74285000D02*
X56557927Y-74285000D01*
X58429927Y-74738947D02*
X58429927Y-74597000D01*
X59000000Y-74285000D02*
X62715000Y-74285000D01*
X58117927Y-75050947D02*
G75*
G03*
X58429947Y-74738947I-27J312047D01*
G01*
X57649927Y-74738947D02*
G75*
G03*
X57961927Y-75050873I311973J47D01*
G01*
X56557927Y-74285000D02*
G75*
G03*
X56869900Y-73973000I-27J312000D01*
G01*
X56869927Y-73831053D02*
G75*
G02*
X57181927Y-73519127I311973J-47D01*
G01*
X58429927Y-74597000D02*
G75*
G02*
X58741927Y-74285027I311973J0D01*
G01*
X57337927Y-73519053D02*
G75*
G02*
X57649947Y-73831053I-27J-312047D01*
G01*
%TO.N,/D9*%
X55856000Y-66795000D02*
X55856000Y-67212909D01*
X57436000Y-66377091D02*
X57436000Y-66479000D01*
X55382000Y-66061091D02*
X55540000Y-66061091D01*
X56172000Y-67528909D02*
X56330000Y-67528909D01*
X55856000Y-66479000D02*
X55856000Y-66795000D01*
X56646000Y-67212909D02*
X56646000Y-66795000D01*
X56646000Y-66479000D02*
X56646000Y-66377091D01*
X56646000Y-66795000D02*
X56646000Y-66479000D01*
X55066000Y-66479000D02*
X55066000Y-66377091D01*
X57752000Y-66795000D02*
X57910000Y-66795000D01*
X56962000Y-66061091D02*
X57120000Y-66061091D01*
X59567541Y-66795000D02*
X62655000Y-66795000D01*
X55856000Y-66377091D02*
X55856000Y-66479000D01*
X57910000Y-66795000D02*
X59567541Y-66795000D01*
X50200000Y-66795000D02*
X54750000Y-66795000D01*
X55066000Y-66377091D02*
G75*
G02*
X55382000Y-66061100I316000J-9D01*
G01*
X54750000Y-66795000D02*
G75*
G03*
X55066000Y-66479000I0J316000D01*
G01*
X57436000Y-66479000D02*
G75*
G03*
X57752000Y-66795000I316000J0D01*
G01*
X55540000Y-66061091D02*
G75*
G02*
X55856009Y-66377091I0J-316009D01*
G01*
X55856000Y-67212909D02*
G75*
G03*
X56172000Y-67528900I316000J9D01*
G01*
X56646000Y-66377091D02*
G75*
G02*
X56962000Y-66061100I316000J-9D01*
G01*
X56330000Y-67528909D02*
G75*
G03*
X56646009Y-67212909I0J316009D01*
G01*
X57120000Y-66061091D02*
G75*
G02*
X57436009Y-66377091I0J-316009D01*
G01*
%TO.N,/D6*%
X54621600Y-59882727D02*
X54774000Y-59882727D01*
X54316800Y-58232092D02*
X54316800Y-58600200D01*
X55383600Y-58905000D02*
X55536000Y-58905000D01*
X53859600Y-57927292D02*
X54012000Y-57927292D01*
X57675000Y-59080000D02*
X62750000Y-59080000D01*
X55078800Y-59577927D02*
X55078800Y-59209800D01*
X57500000Y-58905000D02*
X57543464Y-58948464D01*
X55536000Y-58905000D02*
X57500000Y-58905000D01*
X53554800Y-58600200D02*
X53554800Y-58232092D01*
X50175000Y-58905000D02*
X53250000Y-58905000D01*
X54316800Y-58600200D02*
X54316800Y-59577927D01*
X57543464Y-58948464D02*
X57675000Y-59080000D01*
X55078800Y-59209800D02*
G75*
G02*
X55383600Y-58905000I304800J0D01*
G01*
X54012000Y-57927292D02*
G75*
G02*
X54316808Y-58232092I0J-304808D01*
G01*
X53554800Y-58232092D02*
G75*
G02*
X53859600Y-57927300I304800J-8D01*
G01*
X53250000Y-58905000D02*
G75*
G03*
X53554800Y-58600200I0J304800D01*
G01*
X54774000Y-59882727D02*
G75*
G03*
X55078827Y-59577927I0J304827D01*
G01*
X54316800Y-59577927D02*
G75*
G03*
X54621600Y-59882700I304800J27D01*
G01*
%TO.N,/D13*%
X58197000Y-80137544D02*
X58197000Y-79737000D01*
X57267000Y-78993000D02*
X57267000Y-80137544D01*
X60000000Y-79365000D02*
X62715000Y-79365000D01*
X55200000Y-78600000D02*
X55866250Y-79266250D01*
X57639000Y-80509544D02*
X57825000Y-80509544D01*
X54700000Y-78500000D02*
X54800000Y-78600000D01*
X56709000Y-78520481D02*
X56895000Y-78520481D01*
X55866250Y-79266250D02*
X55965000Y-79365000D01*
X50320000Y-78500000D02*
X54700000Y-78500000D01*
X54800000Y-78600000D02*
X55200000Y-78600000D01*
X57267000Y-78892481D02*
X57267000Y-78993000D01*
X56337000Y-78993000D02*
X56337000Y-78892481D01*
X58755000Y-79365000D02*
X60000000Y-79365000D01*
X58569000Y-79365000D02*
X58755000Y-79365000D01*
X57825000Y-80509544D02*
G75*
G03*
X58197044Y-80137544I0J372044D01*
G01*
X56895000Y-78520481D02*
G75*
G02*
X57267019Y-78892481I0J-372019D01*
G01*
X55965000Y-79365000D02*
G75*
G03*
X56337000Y-78993000I0J372000D01*
G01*
X57267000Y-80137544D02*
G75*
G03*
X57639000Y-80509500I372000J44D01*
G01*
X56337000Y-78892481D02*
G75*
G02*
X56709000Y-78520500I372000J-19D01*
G01*
X58197000Y-79737000D02*
G75*
G02*
X58569000Y-79365000I372000J0D01*
G01*
%TD*%
%TA.AperFunction,Conductor*%
%TO.N,GND*%
G36*
X78863437Y-37720185D02*
G01*
X78909192Y-37772989D01*
X78919756Y-37837101D01*
X78917500Y-37859177D01*
X78917500Y-38691767D01*
X78917118Y-38701495D01*
X78912514Y-38759999D01*
X78917118Y-38818504D01*
X78917500Y-38828232D01*
X78917500Y-39660803D01*
X78917501Y-39660819D01*
X78928168Y-39765235D01*
X78928169Y-39765241D01*
X78984236Y-39934440D01*
X79003025Y-39964902D01*
X79003027Y-39964905D01*
X79021466Y-40032298D01*
X79003027Y-40095095D01*
X78984236Y-40125560D01*
X78928169Y-40294757D01*
X78928168Y-40294764D01*
X78917500Y-40399181D01*
X78917500Y-41231767D01*
X78917118Y-41241495D01*
X78912514Y-41299999D01*
X78917118Y-41358504D01*
X78917500Y-41368232D01*
X78917500Y-42200803D01*
X78917501Y-42200819D01*
X78928169Y-42305242D01*
X78984235Y-42474437D01*
X78984237Y-42474442D01*
X79077812Y-42626150D01*
X79170226Y-42718564D01*
X79203711Y-42779887D01*
X79198727Y-42849578D01*
X79186403Y-42882619D01*
X79186401Y-42882627D01*
X79180000Y-42942155D01*
X79180000Y-43590000D01*
X80085440Y-43590000D01*
X80054755Y-43643147D01*
X80020000Y-43772857D01*
X80020000Y-43907143D01*
X80054755Y-44036853D01*
X80085440Y-44090000D01*
X79180000Y-44090000D01*
X79180000Y-44737844D01*
X79186402Y-44797377D01*
X79186403Y-44797381D01*
X79198726Y-44830422D01*
X79203710Y-44900114D01*
X79170226Y-44961434D01*
X79077812Y-45053849D01*
X78984237Y-45205557D01*
X78984235Y-45205562D01*
X78928169Y-45374757D01*
X78928168Y-45374764D01*
X78917500Y-45479181D01*
X78917500Y-46311767D01*
X78917118Y-46321495D01*
X78912514Y-46379999D01*
X78917118Y-46438504D01*
X78917500Y-46448232D01*
X78917500Y-47280803D01*
X78917501Y-47280819D01*
X78928168Y-47385235D01*
X78928169Y-47385241D01*
X78984236Y-47554440D01*
X79003025Y-47584902D01*
X79003027Y-47584905D01*
X79021466Y-47652298D01*
X79003027Y-47715095D01*
X78984236Y-47745560D01*
X78928169Y-47914757D01*
X78928168Y-47914764D01*
X78917500Y-48019181D01*
X78917500Y-48851767D01*
X78917118Y-48861495D01*
X78912514Y-48919999D01*
X78917118Y-48978504D01*
X78917500Y-48988232D01*
X78917500Y-49820803D01*
X78917501Y-49820819D01*
X78928168Y-49925235D01*
X78928169Y-49925241D01*
X78984236Y-50094440D01*
X79003025Y-50124902D01*
X79003027Y-50124905D01*
X79021466Y-50192298D01*
X79003027Y-50255095D01*
X78984236Y-50285560D01*
X78928169Y-50454757D01*
X78928168Y-50454764D01*
X78917500Y-50559181D01*
X78917500Y-51391767D01*
X78917118Y-51401495D01*
X78912514Y-51459999D01*
X78917118Y-51518504D01*
X78917500Y-51528232D01*
X78917500Y-52360803D01*
X78917501Y-52360819D01*
X78928168Y-52465235D01*
X78928169Y-52465241D01*
X78984236Y-52634440D01*
X79003025Y-52664902D01*
X79003027Y-52664905D01*
X79021466Y-52732298D01*
X79003027Y-52795095D01*
X78984236Y-52825560D01*
X78928169Y-52994757D01*
X78928168Y-52994764D01*
X78917500Y-53099181D01*
X78917500Y-53931767D01*
X78917118Y-53941495D01*
X78912514Y-53999999D01*
X78917118Y-54058504D01*
X78917500Y-54068232D01*
X78917500Y-54900803D01*
X78917501Y-54900819D01*
X78928168Y-55005235D01*
X78928169Y-55005241D01*
X78984236Y-55174440D01*
X79003025Y-55204902D01*
X79003027Y-55204905D01*
X79021466Y-55272298D01*
X79003027Y-55335095D01*
X78984236Y-55365560D01*
X78928169Y-55534757D01*
X78928168Y-55534764D01*
X78917500Y-55639181D01*
X78917500Y-57440803D01*
X78917501Y-57440819D01*
X78928168Y-57545235D01*
X78928169Y-57545241D01*
X78984236Y-57714440D01*
X79003025Y-57744902D01*
X79003027Y-57744905D01*
X79021466Y-57812298D01*
X79003027Y-57875095D01*
X78984236Y-57905560D01*
X78928169Y-58074757D01*
X78928168Y-58074764D01*
X78917500Y-58179181D01*
X78917500Y-59011767D01*
X78917118Y-59021495D01*
X78912514Y-59079999D01*
X78917118Y-59138504D01*
X78917500Y-59148232D01*
X78917500Y-59980803D01*
X78917501Y-59980819D01*
X78928168Y-60085235D01*
X78928169Y-60085241D01*
X78984236Y-60254440D01*
X79003025Y-60284902D01*
X79003027Y-60284905D01*
X79021466Y-60352298D01*
X79003027Y-60415095D01*
X78984236Y-60445560D01*
X78928169Y-60614757D01*
X78928168Y-60614764D01*
X78917500Y-60719181D01*
X78917500Y-61551767D01*
X78917118Y-61561495D01*
X78912514Y-61619999D01*
X78917118Y-61678504D01*
X78917500Y-61688232D01*
X78917500Y-62520803D01*
X78917501Y-62520819D01*
X78928168Y-62625235D01*
X78928169Y-62625241D01*
X78984236Y-62794440D01*
X79003025Y-62824902D01*
X79003027Y-62824905D01*
X79021466Y-62892298D01*
X79003027Y-62955095D01*
X78984236Y-62985560D01*
X78928169Y-63154757D01*
X78928168Y-63154764D01*
X78917500Y-63259181D01*
X78917500Y-64091767D01*
X78917118Y-64101495D01*
X78912514Y-64159999D01*
X78917118Y-64218504D01*
X78917500Y-64228232D01*
X78917500Y-65060803D01*
X78917501Y-65060819D01*
X78928168Y-65165235D01*
X78928169Y-65165241D01*
X78984236Y-65334440D01*
X79003025Y-65364902D01*
X79003027Y-65364905D01*
X79021466Y-65432298D01*
X79003027Y-65495095D01*
X78984236Y-65525560D01*
X78928169Y-65694757D01*
X78928168Y-65694764D01*
X78917500Y-65799181D01*
X78917500Y-66631767D01*
X78917118Y-66641495D01*
X78912514Y-66699999D01*
X78917118Y-66758504D01*
X78917500Y-66768232D01*
X78917500Y-67600803D01*
X78917501Y-67600819D01*
X78928169Y-67705242D01*
X78984235Y-67874437D01*
X78984237Y-67874442D01*
X79077812Y-68026150D01*
X79170226Y-68118564D01*
X79203711Y-68179887D01*
X79198727Y-68249578D01*
X79186403Y-68282619D01*
X79186401Y-68282627D01*
X79180000Y-68342155D01*
X79180000Y-68990000D01*
X80085440Y-68990000D01*
X80054755Y-69043147D01*
X80020000Y-69172857D01*
X80020000Y-69307143D01*
X80054755Y-69436853D01*
X80085440Y-69490000D01*
X79180000Y-69490000D01*
X79180000Y-70137844D01*
X79186402Y-70197377D01*
X79186403Y-70197381D01*
X79198726Y-70230422D01*
X79203710Y-70300114D01*
X79170226Y-70361434D01*
X79077812Y-70453849D01*
X78984237Y-70605557D01*
X78984235Y-70605562D01*
X78928169Y-70774757D01*
X78928168Y-70774764D01*
X78917500Y-70879181D01*
X78917500Y-71711767D01*
X78917118Y-71721495D01*
X78912514Y-71779999D01*
X78917118Y-71838504D01*
X78917500Y-71848232D01*
X78917500Y-72680803D01*
X78917501Y-72680819D01*
X78928168Y-72785235D01*
X78928169Y-72785241D01*
X78984236Y-72954440D01*
X79003025Y-72984902D01*
X79003027Y-72984905D01*
X79021466Y-73052298D01*
X79003027Y-73115095D01*
X78984236Y-73145560D01*
X78928169Y-73314757D01*
X78928168Y-73314764D01*
X78917500Y-73419181D01*
X78917500Y-74251767D01*
X78917118Y-74261495D01*
X78912514Y-74319999D01*
X78917118Y-74378504D01*
X78917500Y-74388232D01*
X78917500Y-75220803D01*
X78917501Y-75220819D01*
X78928168Y-75325235D01*
X78928169Y-75325241D01*
X78984236Y-75494440D01*
X79003025Y-75524902D01*
X79003027Y-75524905D01*
X79021466Y-75592298D01*
X79003027Y-75655095D01*
X78984236Y-75685560D01*
X78928169Y-75854757D01*
X78928168Y-75854764D01*
X78917500Y-75959181D01*
X78917500Y-76791767D01*
X78917118Y-76801495D01*
X78912514Y-76859999D01*
X78917118Y-76918504D01*
X78917500Y-76928232D01*
X78917500Y-77760803D01*
X78917501Y-77760819D01*
X78928168Y-77865235D01*
X78928169Y-77865241D01*
X78984236Y-78034440D01*
X79003025Y-78064902D01*
X79003027Y-78064905D01*
X79021466Y-78132298D01*
X79003027Y-78195095D01*
X78984236Y-78225560D01*
X78928169Y-78394757D01*
X78928168Y-78394764D01*
X78917500Y-78499181D01*
X78917500Y-79331767D01*
X78917118Y-79341495D01*
X78912514Y-79399999D01*
X78917118Y-79458504D01*
X78917500Y-79468232D01*
X78917500Y-80300803D01*
X78917501Y-80300819D01*
X78928169Y-80405242D01*
X78984235Y-80574437D01*
X78984237Y-80574442D01*
X79077812Y-80726150D01*
X79170226Y-80818564D01*
X79203711Y-80879887D01*
X79198727Y-80949578D01*
X79186403Y-80982619D01*
X79186401Y-80982627D01*
X79180000Y-81042155D01*
X79180000Y-81690000D01*
X80085440Y-81690000D01*
X80054755Y-81743147D01*
X80020000Y-81872857D01*
X80020000Y-82007143D01*
X80054755Y-82136853D01*
X80085440Y-82190000D01*
X79180000Y-82190000D01*
X79180000Y-82837844D01*
X79186402Y-82897377D01*
X79186403Y-82897381D01*
X79198726Y-82930422D01*
X79203710Y-83000114D01*
X79170226Y-83061434D01*
X79077812Y-83153849D01*
X78984237Y-83305557D01*
X78984235Y-83305562D01*
X78928169Y-83474757D01*
X78928168Y-83474764D01*
X78917500Y-83579181D01*
X78917500Y-84411767D01*
X78917118Y-84421495D01*
X78912514Y-84479999D01*
X78917118Y-84538504D01*
X78917500Y-84548232D01*
X78917500Y-85380803D01*
X78917501Y-85380819D01*
X78925984Y-85463851D01*
X78928169Y-85485241D01*
X78984236Y-85654440D01*
X79003025Y-85684902D01*
X79003027Y-85684905D01*
X79021466Y-85752298D01*
X79003027Y-85815095D01*
X78984236Y-85845560D01*
X78928169Y-86014757D01*
X78928168Y-86014764D01*
X78917500Y-86119181D01*
X78917500Y-86951767D01*
X78917118Y-86961495D01*
X78912514Y-87019999D01*
X78917118Y-87078504D01*
X78917500Y-87088232D01*
X78917500Y-87920803D01*
X78917501Y-87920819D01*
X78928168Y-88025235D01*
X78928169Y-88025241D01*
X78984236Y-88194440D01*
X79077811Y-88346149D01*
X79203851Y-88472189D01*
X79355560Y-88565764D01*
X79524759Y-88621831D01*
X79629189Y-88632500D01*
X80461766Y-88632499D01*
X80471496Y-88632881D01*
X80530000Y-88637486D01*
X80588503Y-88632881D01*
X80598233Y-88632499D01*
X83230804Y-88632499D01*
X83230810Y-88632499D01*
X83335241Y-88621831D01*
X83504440Y-88565764D01*
X83656149Y-88472189D01*
X83782189Y-88346149D01*
X83875764Y-88194440D01*
X83931831Y-88025241D01*
X83942500Y-87920811D01*
X83942499Y-86119190D01*
X83931831Y-86014759D01*
X83875764Y-85845560D01*
X83856973Y-85815095D01*
X83838533Y-85747706D01*
X83856973Y-85684904D01*
X83875764Y-85654440D01*
X83931831Y-85485241D01*
X83942500Y-85380811D01*
X83942499Y-83579190D01*
X83931831Y-83474759D01*
X83875764Y-83305560D01*
X83782189Y-83153851D01*
X83689772Y-83061434D01*
X83656288Y-83000112D01*
X83661272Y-82930420D01*
X83661273Y-82930419D01*
X83673597Y-82897375D01*
X83673598Y-82897372D01*
X83679999Y-82837844D01*
X83680000Y-82837827D01*
X83680000Y-82190000D01*
X80974560Y-82190000D01*
X81005245Y-82136853D01*
X81040000Y-82007143D01*
X81040000Y-81872857D01*
X81005245Y-81743147D01*
X80974560Y-81690000D01*
X83680000Y-81690000D01*
X83680000Y-81042172D01*
X83679999Y-81042155D01*
X83673598Y-80982627D01*
X83673597Y-80982624D01*
X83661273Y-80949581D01*
X83656288Y-80879889D01*
X83689772Y-80818566D01*
X83689773Y-80818565D01*
X83689774Y-80818564D01*
X83782189Y-80726149D01*
X83875764Y-80574440D01*
X83931831Y-80405241D01*
X83942500Y-80300811D01*
X83942499Y-78499190D01*
X83931831Y-78394759D01*
X83875764Y-78225560D01*
X83856973Y-78195095D01*
X83838533Y-78127706D01*
X83856973Y-78064904D01*
X83875764Y-78034440D01*
X83931831Y-77865241D01*
X83942500Y-77760811D01*
X83942499Y-75959190D01*
X83931831Y-75854759D01*
X83875764Y-75685560D01*
X83856973Y-75655095D01*
X83838533Y-75587706D01*
X83856973Y-75524904D01*
X83875764Y-75494440D01*
X83931831Y-75325241D01*
X83942500Y-75220811D01*
X83942499Y-73419190D01*
X83931831Y-73314759D01*
X83875764Y-73145560D01*
X83856973Y-73115095D01*
X83838533Y-73047706D01*
X83856973Y-72984904D01*
X83875764Y-72954440D01*
X83931831Y-72785241D01*
X83942500Y-72680811D01*
X83942499Y-70879190D01*
X83931831Y-70774759D01*
X83875764Y-70605560D01*
X83782189Y-70453851D01*
X83689772Y-70361434D01*
X83656288Y-70300112D01*
X83661272Y-70230420D01*
X83661273Y-70230419D01*
X83673597Y-70197375D01*
X83673598Y-70197372D01*
X83679999Y-70137844D01*
X83680000Y-70137827D01*
X83680000Y-69490000D01*
X80974560Y-69490000D01*
X81005245Y-69436853D01*
X81040000Y-69307143D01*
X81040000Y-69172857D01*
X81005245Y-69043147D01*
X80974560Y-68990000D01*
X83680000Y-68990000D01*
X83680000Y-68342172D01*
X83679999Y-68342155D01*
X83673598Y-68282627D01*
X83673597Y-68282624D01*
X83661273Y-68249581D01*
X83656288Y-68179889D01*
X83689772Y-68118566D01*
X83689773Y-68118565D01*
X83689774Y-68118564D01*
X83782189Y-68026149D01*
X83875764Y-67874440D01*
X83931831Y-67705241D01*
X83942500Y-67600811D01*
X83942499Y-65799190D01*
X83931831Y-65694759D01*
X83875764Y-65525560D01*
X83856973Y-65495095D01*
X83838533Y-65427706D01*
X83856973Y-65364904D01*
X83875764Y-65334440D01*
X83931831Y-65165241D01*
X83942500Y-65060811D01*
X83942499Y-63259190D01*
X83931831Y-63154759D01*
X83875764Y-62985560D01*
X83856973Y-62955095D01*
X83838533Y-62887706D01*
X83856973Y-62824904D01*
X83875764Y-62794440D01*
X83931831Y-62625241D01*
X83942500Y-62520811D01*
X83942499Y-60719190D01*
X83931831Y-60614759D01*
X83875764Y-60445560D01*
X83856973Y-60415095D01*
X83838533Y-60347706D01*
X83856973Y-60284904D01*
X83875764Y-60254440D01*
X83931831Y-60085241D01*
X83942500Y-59980811D01*
X83942499Y-58179190D01*
X83931831Y-58074759D01*
X83875764Y-57905560D01*
X83856973Y-57875095D01*
X83838533Y-57807706D01*
X83856973Y-57744904D01*
X83875764Y-57714440D01*
X83931831Y-57545241D01*
X83942500Y-57440811D01*
X83942499Y-55639190D01*
X83931831Y-55534759D01*
X83875764Y-55365560D01*
X83856973Y-55335095D01*
X83838533Y-55267706D01*
X83856973Y-55204904D01*
X83875764Y-55174440D01*
X83931831Y-55005241D01*
X83942500Y-54900811D01*
X83942499Y-53099190D01*
X83931831Y-52994759D01*
X83875764Y-52825560D01*
X83856973Y-52795095D01*
X83838533Y-52727706D01*
X83856973Y-52664904D01*
X83875764Y-52634440D01*
X83931831Y-52465241D01*
X83942500Y-52360811D01*
X83942499Y-50559190D01*
X83931831Y-50454759D01*
X83875764Y-50285560D01*
X83856973Y-50255095D01*
X83838533Y-50187706D01*
X83856973Y-50124904D01*
X83875764Y-50094440D01*
X83931831Y-49925241D01*
X83942500Y-49820811D01*
X83942499Y-48019190D01*
X83931831Y-47914759D01*
X83875764Y-47745560D01*
X83856973Y-47715095D01*
X83838533Y-47647706D01*
X83856973Y-47584904D01*
X83875764Y-47554440D01*
X83931831Y-47385241D01*
X83942500Y-47280811D01*
X83942499Y-45479190D01*
X83931831Y-45374759D01*
X83875764Y-45205560D01*
X83782189Y-45053851D01*
X83689772Y-44961434D01*
X83656288Y-44900112D01*
X83661272Y-44830420D01*
X83661273Y-44830419D01*
X83673597Y-44797375D01*
X83673598Y-44797372D01*
X83679999Y-44737844D01*
X83680000Y-44737827D01*
X83680000Y-44090000D01*
X80974560Y-44090000D01*
X81005245Y-44036853D01*
X81040000Y-43907143D01*
X81040000Y-43772857D01*
X81005245Y-43643147D01*
X80974560Y-43590000D01*
X83680000Y-43590000D01*
X83680000Y-42942172D01*
X83679999Y-42942155D01*
X83673598Y-42882627D01*
X83673597Y-42882624D01*
X83661273Y-42849581D01*
X83656288Y-42779889D01*
X83689772Y-42718566D01*
X83689773Y-42718565D01*
X83689774Y-42718564D01*
X83782189Y-42626149D01*
X83875764Y-42474440D01*
X83931831Y-42305241D01*
X83942500Y-42200811D01*
X83942499Y-40399190D01*
X83931831Y-40294759D01*
X83875764Y-40125560D01*
X83856973Y-40095095D01*
X83838533Y-40027706D01*
X83856973Y-39964904D01*
X83875764Y-39934440D01*
X83931831Y-39765241D01*
X83942500Y-39660811D01*
X83942499Y-37859190D01*
X83940243Y-37837101D01*
X83940243Y-37837100D01*
X83953013Y-37768408D01*
X84000895Y-37717524D01*
X84063601Y-37700500D01*
X87375500Y-37700500D01*
X87442539Y-37720185D01*
X87488294Y-37772989D01*
X87499500Y-37824500D01*
X87499500Y-89375500D01*
X87479815Y-89442539D01*
X87427011Y-89488294D01*
X87375500Y-89499500D01*
X75916500Y-89499500D01*
X75849461Y-89479815D01*
X75803706Y-89427011D01*
X75792500Y-89375500D01*
X75792499Y-86858238D01*
X75792881Y-86848509D01*
X75793035Y-86846545D01*
X75797486Y-86790000D01*
X75792881Y-86731490D01*
X75792499Y-86721761D01*
X75792499Y-85889196D01*
X75792498Y-85889181D01*
X75788042Y-85845560D01*
X75781831Y-85784759D01*
X75725764Y-85615560D01*
X75632189Y-85463851D01*
X75506149Y-85337811D01*
X75354440Y-85244236D01*
X75354437Y-85244235D01*
X75185242Y-85188169D01*
X75185235Y-85188168D01*
X75080818Y-85177500D01*
X75080811Y-85177500D01*
X74248232Y-85177500D01*
X74238504Y-85177118D01*
X74231193Y-85176542D01*
X74180000Y-85172514D01*
X74179999Y-85172514D01*
X74121493Y-85177118D01*
X74111766Y-85177500D01*
X73279196Y-85177500D01*
X73279180Y-85177501D01*
X73174757Y-85188169D01*
X73061959Y-85225547D01*
X73005560Y-85244236D01*
X72975094Y-85263027D01*
X72907702Y-85281466D01*
X72844905Y-85263027D01*
X72814440Y-85244236D01*
X72729840Y-85216202D01*
X72645242Y-85188169D01*
X72645235Y-85188168D01*
X72540812Y-85177500D01*
X70739196Y-85177500D01*
X70739180Y-85177501D01*
X70634757Y-85188169D01*
X70521959Y-85225547D01*
X70465560Y-85244236D01*
X70435094Y-85263027D01*
X70367702Y-85281466D01*
X70304905Y-85263027D01*
X70274440Y-85244236D01*
X70189840Y-85216202D01*
X70105242Y-85188169D01*
X70105235Y-85188168D01*
X70000818Y-85177500D01*
X70000811Y-85177500D01*
X69168232Y-85177500D01*
X69158504Y-85177118D01*
X69151193Y-85176542D01*
X69100000Y-85172514D01*
X69099999Y-85172514D01*
X69041493Y-85177118D01*
X69031766Y-85177500D01*
X68199196Y-85177500D01*
X68199180Y-85177501D01*
X68094757Y-85188169D01*
X67925562Y-85244235D01*
X67925557Y-85244237D01*
X67773849Y-85337812D01*
X67647812Y-85463849D01*
X67554237Y-85615557D01*
X67554235Y-85615562D01*
X67498169Y-85784757D01*
X67498168Y-85784764D01*
X67487500Y-85889181D01*
X67487500Y-86721769D01*
X67487118Y-86731497D01*
X67482514Y-86789999D01*
X67487118Y-86848501D01*
X67487500Y-86858229D01*
X67487501Y-89375500D01*
X67467816Y-89442539D01*
X67415013Y-89488294D01*
X67363501Y-89499500D01*
X66124000Y-89499500D01*
X66056961Y-89479815D01*
X66011206Y-89427011D01*
X66000000Y-89375500D01*
X66000000Y-56391020D01*
X66019685Y-56323981D01*
X66041750Y-56298225D01*
X66903091Y-55534764D01*
X77000000Y-46585231D01*
X77000000Y-37824500D01*
X77019685Y-37757461D01*
X77072489Y-37711706D01*
X77124000Y-37700500D01*
X78796398Y-37700500D01*
X78863437Y-37720185D01*
G37*
%TD.AperFunction*%
%TD*%
M02*
